M48
;Layer_Color=9474304
;FILE_FORMAT=4:4
METRIC,LZ
;TYPE=PLATED
T01F00S00C0.3000
T02F00S00C0.4000
T05F00S00C1.0000
T06F00S00C1.0200
T07F00S00C1.1000
T08F00S00C1.2000
T09F00S00C1.4000
T11F00S00C2.2000
T12F00S00C2.7000
%
T01
X00625Y00065
X00625Y00075
X00625Y0009
X00635Y0009
X00645Y0009
X006Y00105
X006Y00125
X006Y00145
X00625Y00155
X00645Y00155
X00645Y00195
X00643Y0022
X00645Y0025
X00625Y0025
X00625Y00265
X00625Y0028
X00645Y0028
X00645Y00315
X00625Y00315
X006Y00315
X006Y003
X006Y00265
X00625Y00175
X0056Y00175
X0055Y0016
X0054Y00145
X0056Y00145
X0056Y00125
X0054Y00125
X0054Y00105
X0056Y00105
X0056Y0009
X0056Y00075
X0056Y0006
X0054Y0006
X00525Y0006
X00525Y00075
X0053Y0009
X00545Y0009
X0058Y00105
X0058Y00145
X00525Y0016
X00521Y00175
X00521Y00187
X00512Y00204
X00525Y00227
X00528Y00243
X0051Y00242
X00494Y00244
X00518Y00255
X00522Y00281
X00522Y00292
X00522Y00303
X00509Y00303
X00509Y00292
X00509Y00281
X0054Y0028
X0056Y0028
X0056Y00265
X0056Y0025
X0056Y003
X0056Y00315
X0054Y00315
X0058Y00295
X00478Y00297
X00477Y00288
X0047Y00293
X00462Y00288
X00462Y00298
X00463Y00318
X00478Y00318
X0044Y00267
X00389999Y00305
X00359999Y00305
X00362Y0028
X0035Y0028
X00335Y00275
X00303Y00275
X00304Y0025
X00313Y00257
X00327Y00247
X00332Y00232
X003665Y00237
X00356Y00248
X00337Y00194
X00337Y00183
X00338Y00174
X00329Y00173
X00327Y00196
X00323Y00152
X00331Y00138
X00365Y00135
X00375Y0014
X00385Y00126
X00385Y00095
X00386Y00085
X00375Y00104
X0035Y00105
X00335Y00097
X00335Y0009
X00306Y00075
X0031Y00059
X00319Y00052
X00312Y00042
X0031Y00031
X00311Y00016
X0032Y00023
X00322Y00037
X00334Y00032
X00347Y00032
X00355Y00032
X00363Y00032
X00359Y00019
X00372Y00019
X00346Y00019
X00333Y00019
X003Y00023
X00299Y00037
X00303Y00049
X00288Y00047
X00289Y0006
X00277Y00061
X00266Y00068
X00267Y00075
X0026425Y00083
X0026425Y00092
X00272Y000975
X002855Y000985
X00296Y00099
X00285Y00114
X00265Y00109
X00271Y00129
X00279Y00135
X00291Y00135
X00295Y00159
X00285Y00158
X00261Y00151
X00261Y00142
X00251Y00158
X00251Y00126
X00236Y0014
X00224Y00122
X00228Y00087
X00237Y00088
X00237Y00096
X00246Y00088
X00237Y00078
X00236Y00059
X00243Y00059
X00243Y0005
X00233Y0005
X00223Y0005
X0021Y0005
X002Y0005
X0019Y0005
X00209Y00077
X00229Y000615
X00256Y0006
X00265Y00051
X00265Y00007
X00249Y00007
X00233Y00007
X00217Y00007
X002Y00007
X00188Y00103
X00194Y00113
X00188Y00146
X00188Y00158
X00206Y00164
X00236Y0018
X00287Y00205
X00287Y00226
X0019Y00225
X00201Y00247
X00194Y00269
X00354Y00171
X004Y00155
X00442Y00157
X00469Y00157
X00492Y00158
X005Y00165
X0051Y00165
X00482Y00168
X00489Y00175
X00489Y00186
X00484Y00213
X0055Y0019
X00419Y00184
X00435Y0012
X00435Y00111
X0043Y00091
X0042Y00068
X00455Y0006
X00465Y00069
X00483Y00069
X00498Y00069
X00505Y0006
X0049Y0006
X00475Y0006
X00461Y00097
X0044Y00024
X0044Y00015
X00455Y00008
X00475Y00008
X00487Y00008
X00508Y00008
X00401Y00015
X00184Y00007
X00168Y00007
X00148Y00016
X00148Y0003
X00148Y00043
X00138Y00038
X00128Y00043
X00128Y0003
X00128Y00016
X00115Y0002
X001Y0002
X00085Y0002
X0007Y0002
X000725Y0004
X0008Y00059
X00092Y00058
X00092Y00069
X00092Y0008
X00104Y0008
X00104Y00069
X00104Y00058
X00117Y00058
X00117Y00069
X00117Y0008
X00126Y00099
X00128Y00115
X00139Y00109
X00155Y0012
X00162Y00094
X00177Y00098
X0017Y00081
X0017Y00069
X00138Y00023
X00098Y0009
X00078Y00085
X00082Y00106
X0006717Y00112399
X00066792Y00128013
X00083Y0012625
X00087Y00146
X00095683Y001469
X00102Y00132
X00106Y00124
X00113Y00112
X00132Y00132
X00132Y0014
X0015Y00152
X00146Y0016
X00138Y00165
X00125Y00165
X00125Y00177
X00112Y00186
X00102Y00176
X00091Y00176
X0009Y00185
X00082Y00172
X00074Y00172
X00067Y00168
X00067149Y00152428
X00050984Y0014625
X00051Y00135
X00044Y00141
X00031Y00141
X00031Y00154
X00038Y0015
X00046Y00154
X00045Y00166
X00033Y00166
X0004Y0019
X00053Y00191
X0003Y002
X00015Y002
X00036Y00219
X0006Y00254
X0008Y00285
X00026Y00282
X00026Y0031
X0014Y00285
X00128Y00254
X00138Y00229
X00156Y00227
X00156Y00245
X00177Y00239
X00179Y00264
X00184Y00271
X00184Y00278
X00184Y00285
X00157Y00188
X00123Y0022
X00112Y00164
X00087Y00164
X00038Y00131
X00044Y00121
X00032Y00121
X00038Y00103
X0005Y00085
X0005Y00075
X0005Y00065
X0005Y00055
X0006Y00055
X00066Y00071
X0001Y00065
X0001Y000825
X00015Y0013
X00015Y0015
X00025Y00337
X0008Y00338
X0006Y00366
X0008Y00399
X0008Y00412
X0014Y0039
X0013Y00366
X0014Y00335
X0017Y00496
X00144Y0061
X0012Y0061
X00123Y00603
X00119Y00597
X00096Y0061
X0027Y0061
X0029Y0061
X0029Y0064
X0027Y0064
X00323Y0065
X00351Y0065
X0037Y0064
X0039Y0064
X0039Y0061
X0037Y0061
X00351Y00619
X00328Y00585
X00315Y00523
X00314Y00506
X00341Y00505
X00338Y00476
X00338Y004535
X00318Y00455
X00318Y00465
X00306Y00465
X00306Y00455
X00294Y00455
X00294Y00465
X00282Y00465
X00279Y00447
X00278Y00428
X00275Y00412
X00275Y004
X00253Y00403
X00252Y00413
X00249Y00427
X00237Y00429
X00249Y00443
X00249Y00453
X00257Y00469
X00263Y00488
X00259Y00514
X00285Y00505
X00297Y00492
X00292Y00524
X00292Y00538
X00269Y0056
X002Y00527
X00200001Y0049
X0022Y00454
X00214Y00403
X002Y00394
X002Y00359
X00193Y0034
X00217Y00341
X00239Y00357
X0027Y00344
X0029Y00339
X003Y00352
X00314Y00377
X00319Y00388
X00307Y00389
X00308055Y0039592
X00311565Y00421565
X00328Y00422
X00329Y00413
X00341Y00411
X00353Y00413
X00351Y0042
X00347Y00426
X00355Y00406
X00351Y00392
X00353Y00384
X00344Y00375
X00329722Y003795
X0034Y00353
X0034Y00337
X00414Y00339
X0042Y00352
X00432Y00352
X00433Y00363
X00432Y0034
X00462Y00333
X00477Y00333
X0047Y00325
X0049Y00348
X0049Y0036
X00477Y00373
X00462Y00373
X00451Y00386
X00451Y00404
X0043Y00401
X0043Y00415
X00447Y00429
X00406Y00429
X00384Y00429
X00385Y00416
X00396Y00416
X00387Y00377
X00375Y00383
X00395Y00364
X00417Y00447
X00417Y00466
X00401Y00481
X00445Y00475
X00485Y00475
X005Y00433
X00537Y00421
X0055Y00425
X0055Y00435
X0055Y00445
X0055Y00455
X0055Y00465
X0055Y00475
X0055Y00485
X00535Y0049
X00535Y00505
X00522Y00518
X00552Y00537
X00563Y00505
X00525Y0057
X00525Y0058
X00507Y00589
X005Y0057
X0054Y00597
X00542Y00604
X0054Y00611
X0044Y00605
X0039Y0056
X00379Y00538
X00365Y00538
X00364Y00517
X00313Y00444
X00472Y00395
X0054Y0035
X0056Y0035
X0056Y00365
X0056Y0033
X0058Y00335
X006Y0033
X006Y0035
X00625Y0035
X00625Y00365
X00645Y0035
T02
X00615Y00015
X0061Y0003
X00615Y00045
X0063Y0005
X00645Y00045
X0065Y0003
X00645Y00015
X00631Y00008
X00045Y00015
X0005Y0003
X00045Y00045
X0003Y0005
X00015Y00045
X0001Y0003
X00015Y00015
X00031Y00008
X00031Y00608
X00045Y00615
X0005Y0063
X00045Y00645
X0003Y0065
X00015Y00645
X0001Y0063
X00015Y00615
X00615Y00615
X0061Y0063
X00615Y00645
X0063Y0065
X00645Y00645
X0065Y0063
X00645Y00615
X00631Y00608
T05
X00055Y00435
X0008Y00435
X00105Y00435
X00105Y0058
X00055Y0058
T06
X0058Y00205
X0058Y002375
T07
X000819Y00635
X001073Y00635
X001327Y00635
X001581Y00635
X005019Y00635
X005273Y00635
X005527Y00635
X005781Y00635
T08
X006436Y000742
X006436Y001758
X006436Y002647
X00542Y002647
X00542Y001758
X00542Y000742
X00542Y003663
X006436Y003663
T09
X00615Y00425
X00615Y00475
X00615Y00525
X00615Y00575
T11
X0058Y00125
X0058Y003155
T12
X0063Y0003
X0003Y0003
X0003Y0063
X0063Y0063
M30
