G04*
G04 #@! TF.GenerationSoftware,Altium Limited,DefaultClient, ()*
G04*
G04 Layer_Color=128*
%FSLAX44Y44*%
%MOMM*%
G71*
G04*
G04 #@! TF.SameCoordinates,4AC8D3AE-847C-4DBA-A645-61C765A70751*
G04*
G04*
G04 #@! TF.FilePolarity,Positive*
G04*
G01*
G75*
%ADD208C,0.1270*%
D208*
X536000Y74200D02*
X548000D01*
X542000Y68200D02*
Y80200D01*
X536000Y175800D02*
X548000D01*
X542000Y169800D02*
Y181800D01*
X637600Y74200D02*
X649600D01*
X643600Y68200D02*
Y80200D01*
X637600Y175800D02*
X649600D01*
X643600Y169800D02*
Y181800D01*
X569000Y125000D02*
X591000D01*
X580000Y114000D02*
Y136000D01*
X569000Y315500D02*
X591000D01*
X580000Y304500D02*
Y326500D01*
X536000Y264700D02*
X548000D01*
X542000Y258700D02*
Y270700D01*
X536000Y366300D02*
X548000D01*
X542000Y360300D02*
Y372300D01*
X637600Y264700D02*
X649600D01*
X643600Y258700D02*
Y270700D01*
X637600Y366300D02*
X649600D01*
X643600Y360300D02*
Y372300D01*
X16500Y630000D02*
X43500D01*
X30000Y616500D02*
Y643500D01*
X574900Y205000D02*
X585100D01*
X580000Y199900D02*
Y210100D01*
X616500Y30000D02*
X643500D01*
X630000Y16500D02*
Y43500D01*
X16500Y30000D02*
X43500D01*
X30000Y16500D02*
Y43500D01*
X616500Y630000D02*
X643500D01*
X630000Y616500D02*
Y643500D01*
X608000Y475000D02*
X622000D01*
X615000Y468000D02*
Y482000D01*
X608000Y425000D02*
X622000D01*
X615000Y418000D02*
Y432000D01*
X608000Y575000D02*
X622000D01*
X615000Y568000D02*
Y582000D01*
X608000Y525000D02*
X622000D01*
X615000Y518000D02*
Y532000D01*
X65000Y183250D02*
X71500D01*
X68250Y180000D02*
Y186500D01*
X58500Y100250D02*
X66000D01*
X62250Y96500D02*
Y104000D01*
X65000Y96750D02*
X71500D01*
X68250Y93500D02*
Y100000D01*
X14000Y183200D02*
X21500D01*
X17750Y179450D02*
Y186950D01*
X14000Y96800D02*
X21500D01*
X17750Y93050D02*
Y100550D01*
X58500Y179750D02*
X66000D01*
X62250Y176000D02*
Y183500D01*
X11000Y510000D02*
X29000D01*
X20000Y501000D02*
Y519000D01*
X75000Y435000D02*
X85000D01*
X80000Y430000D02*
Y440000D01*
X100000Y580000D02*
X110000D01*
X105000Y575000D02*
Y585000D01*
X131000Y510000D02*
X149000D01*
X140000Y501000D02*
Y519000D01*
X152600Y635000D02*
X163600D01*
X158100Y629500D02*
Y640500D01*
X574900Y237500D02*
X585100D01*
X580000Y232400D02*
Y242600D01*
X572600Y635000D02*
X583600D01*
X578100Y629500D02*
Y640500D01*
X76400Y635000D02*
X87400D01*
X81900Y629500D02*
Y640500D01*
X101800Y635000D02*
X112800D01*
X107300Y629500D02*
Y640500D01*
X127200Y635000D02*
X138200D01*
X132700Y629500D02*
Y640500D01*
X496400Y635000D02*
X507400D01*
X501900Y629500D02*
Y640500D01*
X436250Y625250D02*
X443750D01*
X440000Y621500D02*
Y629000D01*
X436250Y652750D02*
X443750D01*
X440000Y649000D02*
Y656500D01*
X320000Y310000D02*
X340000D01*
X330000Y300000D02*
Y320000D01*
X547200Y635000D02*
X558200D01*
X552700Y629500D02*
Y640500D01*
X521800Y635000D02*
X532800D01*
X527300Y629500D02*
Y640500D01*
X216250Y625250D02*
X223750D01*
X220000Y621500D02*
Y629000D01*
X216250Y652750D02*
X223750D01*
X220000Y649000D02*
Y656500D01*
X50000Y580000D02*
X60000D01*
X55000Y575000D02*
Y585000D01*
X50000Y435000D02*
X60000D01*
X55000Y430000D02*
Y440000D01*
X100000Y435000D02*
X110000D01*
X105000Y430000D02*
Y440000D01*
X65670Y112399D02*
X68670D01*
X67170Y110899D02*
Y113899D01*
X270500Y97500D02*
X273500D01*
X272000Y96000D02*
Y99000D01*
X328222Y379500D02*
X331222D01*
X329722Y378000D02*
Y381000D01*
X48000Y630000D02*
X52000D01*
X50000Y628000D02*
Y632000D01*
X8000Y630000D02*
X12000D01*
X10000Y628000D02*
Y632000D01*
X28000Y650000D02*
X32000D01*
X30000Y648000D02*
Y652000D01*
X29000Y608000D02*
X33000D01*
X31000Y606000D02*
Y610000D01*
X43000Y615000D02*
X47000D01*
X45000Y613000D02*
Y617000D01*
X13000Y615000D02*
X17000D01*
X15000Y613000D02*
Y617000D01*
X13000Y645000D02*
X17000D01*
X15000Y643000D02*
Y647000D01*
X43000Y645000D02*
X47000D01*
X45000Y643000D02*
Y647000D01*
X310065Y421565D02*
X313065D01*
X311565Y420065D02*
Y423065D01*
X268500Y610000D02*
X271500D01*
X270000Y608500D02*
Y611500D01*
X326500Y585000D02*
X329500D01*
X328000Y583500D02*
Y586500D01*
X326500Y422000D02*
X329500D01*
X328000Y420500D02*
Y423500D01*
X257500Y514000D02*
X260500D01*
X259000Y512500D02*
Y515500D01*
X463500Y69000D02*
X466500D01*
X465000Y67500D02*
Y70500D01*
X578500Y145000D02*
X581500D01*
X580000Y143500D02*
Y146500D01*
X598500Y145000D02*
X601500D01*
X600000Y143500D02*
Y146500D01*
X598500Y125000D02*
X601500D01*
X600000Y123500D02*
Y126500D01*
X598500Y105000D02*
X601500D01*
X600000Y103500D02*
Y106500D01*
X578500Y105000D02*
X581500D01*
X580000Y103500D02*
Y106500D01*
X558500Y125000D02*
X561500D01*
X560000Y123500D02*
Y126500D01*
X558500Y145000D02*
X561500D01*
X560000Y143500D02*
Y146500D01*
X558500Y105000D02*
X561500D01*
X560000Y103500D02*
Y106500D01*
X538500Y125000D02*
X541500D01*
X540000Y123500D02*
Y126500D01*
X538500Y145000D02*
X541500D01*
X540000Y143500D02*
Y146500D01*
X453500Y60000D02*
X456500D01*
X455000Y58500D02*
Y61500D01*
X473500Y60000D02*
X476500D01*
X475000Y58500D02*
Y61500D01*
X488500Y60000D02*
X491500D01*
X490000Y58500D02*
Y61500D01*
X503500Y60000D02*
X506500D01*
X505000Y58500D02*
Y61500D01*
X538500Y105000D02*
X541500D01*
X540000Y103500D02*
Y106500D01*
X481500Y69000D02*
X484500D01*
X483000Y67500D02*
Y70500D01*
X496500Y69000D02*
X499500D01*
X498000Y67500D02*
Y70500D01*
X310500Y42000D02*
X313500D01*
X312000Y40500D02*
Y43500D01*
X309500Y16000D02*
X312500D01*
X311000Y14500D02*
Y17500D01*
X308500Y59000D02*
X311500D01*
X310000Y57500D02*
Y60500D01*
X412500Y339000D02*
X415500D01*
X414000Y337500D02*
Y340500D01*
X418500Y352000D02*
X421500D01*
X420000Y350500D02*
Y353500D01*
X520500Y292000D02*
X523500D01*
X522000Y290500D02*
Y293500D01*
X44500Y154000D02*
X47500D01*
X46000Y152500D02*
Y155500D01*
X36500Y131000D02*
X39500D01*
X38000Y129500D02*
Y132500D01*
X42500Y121000D02*
X45500D01*
X44000Y119500D02*
Y122500D01*
X30500Y121000D02*
X33500D01*
X32000Y119500D02*
Y122500D01*
X96500Y90000D02*
X99500D01*
X98000Y88500D02*
Y91500D01*
X115500Y80000D02*
X118500D01*
X117000Y78500D02*
Y81500D01*
X102500Y80000D02*
X105500D01*
X104000Y78500D02*
Y81500D01*
X102500Y69000D02*
X105500D01*
X104000Y67500D02*
Y70500D01*
X115500Y69000D02*
X118500D01*
X117000Y67500D02*
Y70500D01*
X115500Y58000D02*
X118500D01*
X117000Y56500D02*
Y59500D01*
X102500Y58000D02*
X105500D01*
X104000Y56500D02*
Y59500D01*
X146500Y43000D02*
X149500D01*
X148000Y41500D02*
Y44500D01*
X126500Y43000D02*
X129500D01*
X128000Y41500D02*
Y44500D01*
X182500Y278000D02*
X185500D01*
X184000Y276500D02*
Y279500D01*
X182500Y271000D02*
X185500D01*
X184000Y269500D02*
Y272500D01*
X65649Y152428D02*
X68649D01*
X67149Y150928D02*
Y153928D01*
X526500Y243000D02*
X529500D01*
X528000Y241500D02*
Y244500D01*
X276500Y428000D02*
X279500D01*
X278000Y426500D02*
Y429500D01*
X383500Y416000D02*
X386500D01*
X385000Y414500D02*
Y417500D01*
X382500Y429000D02*
X385500D01*
X384000Y427500D02*
Y430500D01*
X394500Y416000D02*
X397500D01*
X396000Y414500D02*
Y417500D01*
X508500Y242000D02*
X511500D01*
X510000Y240500D02*
Y243500D01*
X137500Y109000D02*
X140500D01*
X139000Y107500D02*
Y110500D01*
X289500Y135000D02*
X292500D01*
X291000Y133500D02*
Y136500D01*
X144500Y160000D02*
X147500D01*
X146000Y158500D02*
Y161500D01*
X94183Y146900D02*
X97183D01*
X95683Y145400D02*
Y148400D01*
X222500Y122000D02*
X225500D01*
X224000Y120500D02*
Y123500D01*
X338500Y337000D02*
X341500D01*
X340000Y335500D02*
Y338500D01*
X316500Y465000D02*
X319500D01*
X318000Y463500D02*
Y466500D01*
X304500Y465000D02*
X307500D01*
X306000Y463500D02*
Y466500D01*
X292500Y465000D02*
X295500D01*
X294000Y463500D02*
Y466500D01*
X262750Y92000D02*
X265750D01*
X264250Y90500D02*
Y93500D01*
X311500Y444000D02*
X314500D01*
X313000Y442500D02*
Y445500D01*
X207500Y77000D02*
X210500D01*
X209000Y75500D02*
Y78500D01*
X262750Y83000D02*
X265750D01*
X264250Y81500D02*
Y84500D01*
X265500Y75000D02*
X268500D01*
X267000Y73500D02*
Y76500D01*
X264500Y68000D02*
X267500D01*
X266000Y66500D02*
Y69500D01*
X345500Y426000D02*
X348500D01*
X347000Y424500D02*
Y427500D01*
X349500Y420000D02*
X352500D01*
X351000Y418500D02*
Y421500D01*
X351500Y413000D02*
X354500D01*
X353000Y411500D02*
Y414500D01*
X353500Y406000D02*
X356500D01*
X355000Y404500D02*
Y407500D01*
X368500Y610000D02*
X371500D01*
X370000Y608500D02*
Y611500D01*
X348500Y280000D02*
X351500D01*
X350000Y278500D02*
Y281500D01*
X126500Y254000D02*
X129500D01*
X128000Y252500D02*
Y255500D01*
X641500Y220000D02*
X644500D01*
X643000Y218500D02*
Y221500D01*
X148500Y152000D02*
X151500D01*
X150000Y150500D02*
Y153500D01*
X327500Y173000D02*
X330500D01*
X329000Y171500D02*
Y174500D01*
X313500Y523000D02*
X316500D01*
X315000Y521500D02*
Y524500D01*
X312500Y506000D02*
X315500D01*
X314000Y504500D02*
Y507500D01*
X191500Y340000D02*
X194500D01*
X193000Y338500D02*
Y341500D01*
X280500Y465000D02*
X283500D01*
X282000Y463500D02*
Y466500D01*
X273500Y412000D02*
X276500D01*
X275000Y410500D02*
Y413500D01*
X128500Y366000D02*
X131500D01*
X130000Y364500D02*
Y367500D01*
X186500Y146000D02*
X189500D01*
X188000Y144500D02*
Y147500D01*
X430500Y352000D02*
X433500D01*
X432000Y350500D02*
Y353500D01*
X338500Y353000D02*
X341500D01*
X340000Y351500D02*
Y354500D01*
X123500Y165000D02*
X126500D01*
X125000Y163500D02*
Y166500D01*
X433500Y111000D02*
X436500D01*
X435000Y109500D02*
Y112500D01*
X110500Y164000D02*
X113500D01*
X112000Y162500D02*
Y165500D01*
X186500Y103000D02*
X189500D01*
X188000Y101500D02*
Y104500D01*
X316500Y455000D02*
X319500D01*
X318000Y453500D02*
Y456500D01*
X304500Y455000D02*
X307500D01*
X306000Y453500D02*
Y456500D01*
X292500Y455000D02*
X295500D01*
X294000Y453500D02*
Y456500D01*
X273500Y400000D02*
X276500D01*
X275000Y398500D02*
Y401500D01*
X123500Y177000D02*
X126500D01*
X125000Y175500D02*
Y178500D01*
X85500Y146000D02*
X88500D01*
X87000Y144500D02*
Y147500D01*
X349500Y619000D02*
X352500D01*
X351000Y617500D02*
Y620500D01*
X126500Y115000D02*
X129500D01*
X128000Y113500D02*
Y116500D01*
X277500Y447000D02*
X280500D01*
X279000Y445500D02*
Y448500D01*
X283500Y158000D02*
X286500D01*
X285000Y156500D02*
Y159500D01*
X34500Y219000D02*
X37500D01*
X36000Y217500D02*
Y220500D01*
X192500Y113000D02*
X195500D01*
X194000Y111500D02*
Y114500D01*
X370500Y19000D02*
X373500D01*
X372000Y17500D02*
Y20500D01*
X357500Y19000D02*
X360500D01*
X359000Y17500D02*
Y20500D01*
X331500Y19000D02*
X334500D01*
X333000Y17500D02*
Y20500D01*
X344500Y19000D02*
X347500D01*
X346000Y17500D02*
Y20500D01*
X104500Y124000D02*
X107500D01*
X106000Y122500D02*
Y125500D01*
X100500Y132000D02*
X103500D01*
X102000Y130500D02*
Y133500D01*
X298500Y352000D02*
X301500D01*
X300000Y350500D02*
Y353500D01*
X475500Y288000D02*
X478500D01*
X477000Y286500D02*
Y289500D01*
X460500Y333000D02*
X463500D01*
X462000Y331500D02*
Y334500D01*
X244500Y88000D02*
X247500D01*
X246000Y86500D02*
Y89500D01*
X520500Y518000D02*
X523500D01*
X522000Y516500D02*
Y519500D01*
X235500Y88000D02*
X238500D01*
X237000Y86500D02*
Y89500D01*
X506500Y8000D02*
X509500D01*
X508000Y6500D02*
Y9500D01*
X453500Y8000D02*
X456500D01*
X455000Y6500D02*
Y9500D01*
X473500Y8000D02*
X476500D01*
X475000Y6500D02*
Y9500D01*
X485500Y8000D02*
X488500D01*
X487000Y6500D02*
Y9500D01*
X65500Y168000D02*
X68500D01*
X67000Y166500D02*
Y169500D01*
X241500Y59000D02*
X244500D01*
X243000Y57500D02*
Y60500D01*
X160500Y94000D02*
X163500D01*
X162000Y92500D02*
Y95500D01*
X234500Y59000D02*
X237500D01*
X236000Y57500D02*
Y60500D01*
X305500Y389000D02*
X308500D01*
X307000Y387500D02*
Y390500D01*
X306555Y395920D02*
X309555D01*
X308055Y394420D02*
Y397420D01*
X121500Y603000D02*
X124500D01*
X123000Y601500D02*
Y604500D01*
X227500Y61500D02*
X230500D01*
X229000Y60000D02*
Y63000D01*
X561500Y505000D02*
X564500D01*
X563000Y503500D02*
Y506500D01*
X235500Y429000D02*
X238500D01*
X237000Y427500D02*
Y430500D01*
X550500Y537000D02*
X553500D01*
X552000Y535500D02*
Y538500D01*
X226500Y87000D02*
X229500D01*
X228000Y85500D02*
Y88500D01*
X287500Y60000D02*
X290500D01*
X289000Y58500D02*
Y61500D01*
X275500Y61000D02*
X278500D01*
X277000Y59500D02*
Y62500D01*
X89500Y176000D02*
X92500D01*
X91000Y174500D02*
Y177500D01*
X648000Y30000D02*
X652000D01*
X650000Y28000D02*
Y32000D01*
X608000Y30000D02*
X612000D01*
X610000Y28000D02*
Y32000D01*
X628000Y50000D02*
X632000D01*
X630000Y48000D02*
Y52000D01*
X629000Y8000D02*
X633000D01*
X631000Y6000D02*
Y10000D01*
X643000Y15000D02*
X647000D01*
X645000Y13000D02*
Y17000D01*
X613000Y15000D02*
X617000D01*
X615000Y13000D02*
Y17000D01*
X613000Y45000D02*
X617000D01*
X615000Y43000D02*
Y47000D01*
X643000Y45000D02*
X647000D01*
X645000Y43000D02*
Y47000D01*
X48000Y30000D02*
X52000D01*
X50000Y28000D02*
Y32000D01*
X8000Y30000D02*
X12000D01*
X10000Y28000D02*
Y32000D01*
X28000Y50000D02*
X32000D01*
X30000Y48000D02*
Y52000D01*
X29000Y8000D02*
X33000D01*
X31000Y6000D02*
Y10000D01*
X43000Y15000D02*
X47000D01*
X45000Y13000D02*
Y17000D01*
X13000Y15000D02*
X17000D01*
X15000Y13000D02*
Y17000D01*
X13000Y45000D02*
X17000D01*
X15000Y43000D02*
Y47000D01*
X43000Y45000D02*
X47000D01*
X45000Y43000D02*
Y47000D01*
X648000Y630000D02*
X652000D01*
X650000Y628000D02*
Y632000D01*
X608000Y630000D02*
X612000D01*
X610000Y628000D02*
Y632000D01*
X628000Y650000D02*
X632000D01*
X630000Y648000D02*
Y652000D01*
X629000Y608000D02*
X633000D01*
X631000Y606000D02*
Y610000D01*
X643000Y615000D02*
X647000D01*
X645000Y613000D02*
Y617000D01*
X613000Y615000D02*
X617000D01*
X615000Y613000D02*
Y617000D01*
X613000Y645000D02*
X617000D01*
X615000Y643000D02*
Y647000D01*
X643000Y645000D02*
X647000D01*
X645000Y643000D02*
Y647000D01*
X492500Y244000D02*
X495500D01*
X494000Y242500D02*
Y245500D01*
X516500Y255000D02*
X519500D01*
X518000Y253500D02*
Y256500D01*
X523500Y227000D02*
X526500D01*
X525000Y225500D02*
Y228500D01*
X384500Y85000D02*
X387500D01*
X386000Y83500D02*
Y86500D01*
X8500Y65000D02*
X11500D01*
X10000Y63500D02*
Y66500D01*
X48500Y75000D02*
X51500D01*
X50000Y73500D02*
Y76500D01*
X8500Y82500D02*
X11500D01*
X10000Y81000D02*
Y84000D01*
X68500Y20000D02*
X71500D01*
X70000Y18500D02*
Y21500D01*
X113500Y20000D02*
X116500D01*
X115000Y18500D02*
Y21500D01*
X126500Y16000D02*
X129500D01*
X128000Y14500D02*
Y17500D01*
X182500Y7000D02*
X185500D01*
X184000Y5500D02*
Y8500D01*
X198500Y7000D02*
X201500D01*
X200000Y5500D02*
Y8500D01*
X498500Y570000D02*
X501500D01*
X500000Y568500D02*
Y571500D01*
X505500Y589000D02*
X508500D01*
X507000Y587500D02*
Y590500D01*
X538500Y611000D02*
X541500D01*
X540000Y609500D02*
Y612500D01*
X336500Y453500D02*
X339500D01*
X338000Y452000D02*
Y455000D01*
X294500Y99000D02*
X297500D01*
X296000Y97500D02*
Y100500D01*
X368500Y640000D02*
X371500D01*
X370000Y638500D02*
Y641500D01*
X288500Y640000D02*
X291500D01*
X290000Y638500D02*
Y641500D01*
X268500Y640000D02*
X271500D01*
X270000Y638500D02*
Y641500D01*
X43500Y166000D02*
X46500D01*
X45000Y164500D02*
Y167500D01*
X31500Y166000D02*
X34500D01*
X33000Y164500D02*
Y167500D01*
X284000Y98500D02*
X287000D01*
X285500Y97000D02*
Y100000D01*
X81500Y126250D02*
X84500D01*
X83000Y124750D02*
Y127750D01*
X348500Y105000D02*
X351500D01*
X350000Y103500D02*
Y106500D01*
X80500Y106000D02*
X83500D01*
X82000Y104500D02*
Y107500D01*
X49484Y146250D02*
X52484D01*
X50984Y144750D02*
Y147750D01*
X65292Y128013D02*
X68292D01*
X66792Y126513D02*
Y129513D01*
X49500Y135000D02*
X52500D01*
X51000Y133500D02*
Y136500D01*
X247500Y7000D02*
X250500D01*
X249000Y5500D02*
Y8500D01*
X215500Y7000D02*
X218500D01*
X217000Y5500D02*
Y8500D01*
X598500Y315000D02*
X601500D01*
X600000Y313500D02*
Y316500D01*
X399500Y15000D02*
X402500D01*
X401000Y13500D02*
Y16500D01*
X351500Y384000D02*
X354500D01*
X353000Y382500D02*
Y385500D01*
X349500Y392000D02*
X352500D01*
X351000Y390500D02*
Y393500D01*
X438500Y24000D02*
X441500D01*
X440000Y22500D02*
Y25500D01*
X373500Y383000D02*
X376500D01*
X375000Y381500D02*
Y384500D01*
X85500Y164000D02*
X88500D01*
X87000Y162500D02*
Y165500D01*
X153500Y120000D02*
X156500D01*
X155000Y118500D02*
Y121500D01*
X175500Y98000D02*
X178500D01*
X177000Y96500D02*
Y99500D01*
X259500Y151000D02*
X262500D01*
X261000Y149500D02*
Y152500D01*
X321500Y152000D02*
X324500D01*
X323000Y150500D02*
Y153500D01*
X352500Y171000D02*
X355500D01*
X354000Y169500D02*
Y172500D01*
X377500Y538000D02*
X380500D01*
X379000Y536500D02*
Y539500D01*
X363500Y538000D02*
X366500D01*
X365000Y536500D02*
Y539500D01*
X349500Y650000D02*
X352500D01*
X351000Y648500D02*
Y651500D01*
X321500Y650000D02*
X324500D01*
X323000Y648500D02*
Y651500D01*
X48500Y65000D02*
X51500D01*
X50000Y63500D02*
Y66500D01*
X48500Y55000D02*
X51500D01*
X50000Y53500D02*
Y56500D01*
X48500Y85000D02*
X51500D01*
X50000Y83500D02*
Y86500D01*
X98500Y20000D02*
X101500D01*
X100000Y18500D02*
Y21500D01*
X166500Y7000D02*
X169500D01*
X168000Y5500D02*
Y8500D01*
X58500Y55000D02*
X61500D01*
X60000Y53500D02*
Y56500D01*
X71000Y40000D02*
X74000D01*
X72500Y38500D02*
Y41500D01*
X64500Y71000D02*
X67500D01*
X66000Y69500D02*
Y72500D01*
X83500Y20000D02*
X86500D01*
X85000Y18500D02*
Y21500D01*
X78500Y59000D02*
X81500D01*
X80000Y57500D02*
Y60500D01*
X36500Y103000D02*
X39500D01*
X38000Y101500D02*
Y104500D01*
X76500Y85000D02*
X79500D01*
X78000Y83500D02*
Y86500D01*
X111500Y112000D02*
X114500D01*
X113000Y110500D02*
Y113500D01*
X231500Y7000D02*
X234500D01*
X233000Y5500D02*
Y8500D01*
X263500Y7000D02*
X266500D01*
X265000Y5500D02*
Y8500D01*
X235500Y78000D02*
X238500D01*
X237000Y76500D02*
Y79500D01*
X235500Y96000D02*
X238500D01*
X237000Y94500D02*
Y97500D01*
X13500Y130000D02*
X16500D01*
X15000Y128500D02*
Y131500D01*
X13500Y150000D02*
X16500D01*
X15000Y148500D02*
Y151500D01*
X72500Y172000D02*
X75500D01*
X74000Y170500D02*
Y173500D01*
X80500Y172000D02*
X83500D01*
X82000Y170500D02*
Y173500D01*
X100500Y176000D02*
X103500D01*
X102000Y174500D02*
Y177500D01*
X88500Y185000D02*
X91500D01*
X90000Y183500D02*
Y186500D01*
X110500Y186000D02*
X113500D01*
X112000Y184500D02*
Y187500D01*
X28500Y200000D02*
X31500D01*
X30000Y198500D02*
Y201500D01*
X38500Y190000D02*
X41500D01*
X40000Y188500D02*
Y191500D01*
X13500Y200000D02*
X16500D01*
X15000Y198500D02*
Y201500D01*
X51500Y191000D02*
X54500D01*
X53000Y189500D02*
Y192500D01*
X78500Y285000D02*
X81500D01*
X80000Y283500D02*
Y286500D01*
X78500Y338000D02*
X81500D01*
X80000Y336500D02*
Y339500D01*
X121500Y220000D02*
X124500D01*
X123000Y218500D02*
Y221500D01*
X117500Y597000D02*
X120500D01*
X119000Y595500D02*
Y598500D01*
X118500Y610000D02*
X121500D01*
X120000Y608500D02*
Y611500D01*
X130500Y132000D02*
X133500D01*
X132000Y130500D02*
Y133500D01*
X130500Y140000D02*
X133500D01*
X132000Y138500D02*
Y141500D01*
X136500Y229000D02*
X139500D01*
X138000Y227500D02*
Y230500D01*
X182500Y285000D02*
X185500D01*
X184000Y283500D02*
Y286500D01*
X234500Y140000D02*
X237500D01*
X236000Y138500D02*
Y141500D01*
X277500Y135000D02*
X280500D01*
X279000Y133500D02*
Y136500D01*
X215500Y341000D02*
X218500D01*
X217000Y339500D02*
Y342500D01*
X285500Y205000D02*
X288500D01*
X287000Y203500D02*
Y206500D01*
X198500Y359000D02*
X201500D01*
X200000Y357500D02*
Y360500D01*
X138500Y390000D02*
X141500D01*
X140000Y388500D02*
Y391500D01*
X198500Y394000D02*
X201500D01*
X200000Y392500D02*
Y395500D01*
X247500Y427000D02*
X250500D01*
X249000Y425500D02*
Y428500D01*
X247500Y453000D02*
X250500D01*
X249000Y451500D02*
Y454500D01*
X247500Y443000D02*
X250500D01*
X249000Y441500D02*
Y444500D01*
X250500Y413000D02*
X253500D01*
X252000Y411500D02*
Y414500D01*
X251500Y403000D02*
X254500D01*
X253000Y401500D02*
Y404500D01*
X261500Y488000D02*
X264500D01*
X263000Y486500D02*
Y489500D01*
X283500Y505000D02*
X286500D01*
X285000Y503500D02*
Y506500D01*
X290500Y538000D02*
X293500D01*
X292000Y536500D02*
Y539500D01*
X290500Y524000D02*
X293500D01*
X292000Y522500D02*
Y525500D01*
X383500Y95000D02*
X386500D01*
X385000Y93500D02*
Y96500D01*
X373500Y104000D02*
X376500D01*
X375000Y102500D02*
Y105500D01*
X363500Y135000D02*
X366500D01*
X365000Y133500D02*
Y136500D01*
X329500Y138000D02*
X332500D01*
X331000Y136500D02*
Y139500D01*
X373500Y140000D02*
X376500D01*
X375000Y138500D02*
Y141500D01*
X459500Y97000D02*
X462500D01*
X461000Y95500D02*
Y98500D01*
X335500Y183000D02*
X338500D01*
X337000Y181500D02*
Y184500D01*
X336500Y174000D02*
X339500D01*
X338000Y172500D02*
Y175500D01*
X398500Y155000D02*
X401500D01*
X400000Y153500D02*
Y156500D01*
X335500Y194000D02*
X338500D01*
X337000Y192500D02*
Y195500D01*
X325500Y196000D02*
X328500D01*
X327000Y194500D02*
Y197500D01*
X330500Y232000D02*
X333500D01*
X332000Y230500D02*
Y233500D01*
X354500Y248000D02*
X357500D01*
X356000Y246500D02*
Y249500D01*
X440500Y157000D02*
X443500D01*
X442000Y155500D02*
Y158500D01*
X467500Y157000D02*
X470500D01*
X469000Y155500D02*
Y158500D01*
X490500Y158000D02*
X493500D01*
X492000Y156500D02*
Y159500D01*
X480500Y168000D02*
X483500D01*
X482000Y166500D02*
Y169500D01*
X460500Y288000D02*
X463500D01*
X462000Y286500D02*
Y289500D01*
X487500Y186000D02*
X490500D01*
X489000Y184500D02*
Y187500D01*
X487500Y175000D02*
X490500D01*
X489000Y173500D02*
Y176500D01*
X558500Y60000D02*
X561500D01*
X560000Y58500D02*
Y61500D01*
X523500Y60000D02*
X526500D01*
X525000Y58500D02*
Y61500D01*
X538500Y60000D02*
X541500D01*
X540000Y58500D02*
Y61500D01*
X523500Y75000D02*
X526500D01*
X525000Y73500D02*
Y76500D01*
X528500Y90000D02*
X531500D01*
X530000Y88500D02*
Y91500D01*
X558500Y75000D02*
X561500D01*
X560000Y73500D02*
Y76500D01*
X543500Y90000D02*
X546500D01*
X545000Y88500D02*
Y91500D01*
X558500Y90000D02*
X561500D01*
X560000Y88500D02*
Y91500D01*
X623500Y75000D02*
X626500D01*
X625000Y73500D02*
Y76500D01*
X623500Y65000D02*
X626500D01*
X625000Y63500D02*
Y66500D01*
X623500Y155000D02*
X626500D01*
X625000Y153500D02*
Y156500D01*
X623500Y90000D02*
X626500D01*
X625000Y88500D02*
Y91500D01*
X643500Y90000D02*
X646500D01*
X645000Y88500D02*
Y91500D01*
X633500Y90000D02*
X636500D01*
X635000Y88500D02*
Y91500D01*
X643500Y155000D02*
X646500D01*
X645000Y153500D02*
Y156500D01*
X498500Y165000D02*
X501500D01*
X500000Y163500D02*
Y166500D01*
X508500Y165000D02*
X511500D01*
X510000Y163500D02*
Y166500D01*
X519500Y187000D02*
X522500D01*
X521000Y185500D02*
Y188500D01*
X523500Y160000D02*
X526500D01*
X525000Y158500D02*
Y161500D01*
X548500Y160000D02*
X551500D01*
X550000Y158500D02*
Y161500D01*
X519500Y175000D02*
X522500D01*
X521000Y173500D02*
Y176500D01*
X548500Y190000D02*
X551500D01*
X550000Y188500D02*
Y191500D01*
X538500Y280000D02*
X541500D01*
X540000Y278500D02*
Y281500D01*
X558500Y175000D02*
X561500D01*
X560000Y173500D02*
Y176500D01*
X623500Y250000D02*
X626500D01*
X625000Y248500D02*
Y251500D01*
X623500Y175000D02*
X626500D01*
X625000Y173500D02*
Y176500D01*
X643500Y250000D02*
X646500D01*
X645000Y248500D02*
Y251500D01*
X643500Y195000D02*
X646500D01*
X645000Y193500D02*
Y196500D01*
X558500Y250000D02*
X561500D01*
X560000Y248500D02*
Y251500D01*
X598500Y265000D02*
X601500D01*
X600000Y263500D02*
Y266500D01*
X558500Y280000D02*
X561500D01*
X560000Y278500D02*
Y281500D01*
X558500Y265000D02*
X561500D01*
X560000Y263500D02*
Y266500D01*
X623500Y265000D02*
X626500D01*
X625000Y263500D02*
Y266500D01*
X623500Y280000D02*
X626500D01*
X625000Y278500D02*
Y281500D01*
X643500Y280000D02*
X646500D01*
X645000Y278500D02*
Y281500D01*
X393500Y364000D02*
X396500D01*
X395000Y362500D02*
Y365500D01*
X317500Y388000D02*
X320500D01*
X319000Y386500D02*
Y389500D01*
X428500Y401000D02*
X431500D01*
X430000Y399500D02*
Y402500D01*
X460500Y298000D02*
X463500D01*
X462000Y296500D02*
Y299500D01*
X468500Y293000D02*
X471500D01*
X470000Y291500D02*
Y294500D01*
X461500Y318000D02*
X464500D01*
X463000Y316500D02*
Y319500D01*
X468500Y325000D02*
X471500D01*
X470000Y323500D02*
Y326500D01*
X476500Y297000D02*
X479500D01*
X478000Y295500D02*
Y298500D01*
X475500Y333000D02*
X478500D01*
X477000Y331500D02*
Y334500D01*
X476500Y318000D02*
X479500D01*
X478000Y316500D02*
Y319500D01*
X449500Y386000D02*
X452500D01*
X451000Y384500D02*
Y387500D01*
X460500Y373000D02*
X463500D01*
X462000Y371500D02*
Y374500D01*
X449500Y404000D02*
X452500D01*
X451000Y402500D02*
Y405500D01*
X488500Y360000D02*
X491500D01*
X490000Y358500D02*
Y361500D01*
X475500Y373000D02*
X478500D01*
X477000Y371500D02*
Y374500D01*
X327500Y413000D02*
X330500D01*
X329000Y411500D02*
Y414500D01*
X339500Y411000D02*
X342500D01*
X341000Y409500D02*
Y412500D01*
X336500Y476000D02*
X339500D01*
X338000Y474500D02*
Y477500D01*
X428500Y415000D02*
X431500D01*
X430000Y413500D02*
Y416500D01*
X415500Y447000D02*
X418500D01*
X417000Y445500D02*
Y448500D01*
X415500Y466000D02*
X418500D01*
X417000Y464500D02*
Y467500D01*
X443500Y475000D02*
X446500D01*
X445000Y473500D02*
Y476500D01*
X483500Y475000D02*
X486500D01*
X485000Y473500D02*
Y476500D01*
X488500Y348000D02*
X491500D01*
X490000Y346500D02*
Y349500D01*
X558500Y315000D02*
X561500D01*
X560000Y313500D02*
Y316500D01*
X558500Y300000D02*
X561500D01*
X560000Y298500D02*
Y301500D01*
X538500Y315000D02*
X541500D01*
X540000Y313500D02*
Y316500D01*
X558500Y330000D02*
X561500D01*
X560000Y328500D02*
Y331500D01*
X538500Y350000D02*
X541500D01*
X540000Y348500D02*
Y351500D01*
X535500Y421000D02*
X538500D01*
X537000Y419500D02*
Y422500D01*
X558500Y365000D02*
X561500D01*
X560000Y363500D02*
Y366500D01*
X558500Y350000D02*
X561500D01*
X560000Y348500D02*
Y351500D01*
X548500Y425000D02*
X551500D01*
X550000Y423500D02*
Y426500D01*
X578500Y295000D02*
X581500D01*
X580000Y293500D02*
Y296500D01*
X578500Y335000D02*
X581500D01*
X580000Y333500D02*
Y336500D01*
X598500Y330000D02*
X601500D01*
X600000Y328500D02*
Y331500D01*
X598500Y300000D02*
X601500D01*
X600000Y298500D02*
Y301500D01*
X643500Y315000D02*
X646500D01*
X645000Y313500D02*
Y316500D01*
X623500Y315000D02*
X626500D01*
X625000Y313500D02*
Y316500D01*
X598500Y350000D02*
X601500D01*
X600000Y348500D02*
Y351500D01*
X623500Y365000D02*
X626500D01*
X625000Y363500D02*
Y366500D01*
X623500Y350000D02*
X626500D01*
X625000Y348500D02*
Y351500D01*
X643500Y350000D02*
X646500D01*
X645000Y348500D02*
Y351500D01*
X498500Y433000D02*
X501500D01*
X500000Y431500D02*
Y434500D01*
X533500Y490000D02*
X536500D01*
X535000Y488500D02*
Y491500D01*
X548500Y485000D02*
X551500D01*
X550000Y483500D02*
Y486500D01*
X548500Y475000D02*
X551500D01*
X550000Y473500D02*
Y476500D01*
X533500Y505000D02*
X536500D01*
X535000Y503500D02*
Y506500D01*
X538500Y597000D02*
X541500D01*
X540000Y595500D02*
Y598500D01*
X548500Y445000D02*
X551500D01*
X550000Y443500D02*
Y446500D01*
X548500Y435000D02*
X551500D01*
X550000Y433500D02*
Y436500D01*
X548500Y465000D02*
X551500D01*
X550000Y463500D02*
Y466500D01*
X548500Y455000D02*
X551500D01*
X550000Y453500D02*
Y456500D01*
X428500Y91000D02*
X431500D01*
X430000Y89500D02*
Y92500D01*
X177500Y264000D02*
X180500D01*
X179000Y262500D02*
Y265500D01*
X192500Y269000D02*
X195500D01*
X194000Y267500D02*
Y270500D01*
X285500Y226000D02*
X288500D01*
X287000Y224500D02*
Y227500D01*
X302500Y250000D02*
X305500D01*
X304000Y248500D02*
Y251500D01*
X155500Y188000D02*
X158500D01*
X157000Y186500D02*
Y189500D01*
X438500Y15000D02*
X441500D01*
X440000Y13500D02*
Y16500D01*
X482500Y213000D02*
X485500D01*
X484000Y211500D02*
Y214500D01*
X510500Y204000D02*
X513500D01*
X512000Y202500D02*
Y205500D01*
X438500Y267000D02*
X441500D01*
X440000Y265500D02*
Y268500D01*
X399500Y481000D02*
X402500D01*
X401000Y479500D02*
Y482500D01*
X404500Y429000D02*
X407500D01*
X406000Y427500D02*
Y430500D01*
X385500Y377000D02*
X388500D01*
X387000Y375500D02*
Y378500D01*
X388500Y560000D02*
X391500D01*
X390000Y558500D02*
Y561500D01*
X267500Y560000D02*
X270500D01*
X269000Y558500D02*
Y561500D01*
X295500Y492000D02*
X298500D01*
X297000Y490500D02*
Y493500D01*
X198500Y527000D02*
X201500D01*
X200000Y525500D02*
Y528500D01*
X212500Y403000D02*
X215500D01*
X214000Y401500D02*
Y404500D01*
X255500Y469000D02*
X258500D01*
X257000Y467500D02*
Y470500D01*
X24500Y282000D02*
X27500D01*
X26000Y280500D02*
Y283500D01*
X24500Y310000D02*
X27500D01*
X26000Y308500D02*
Y311500D01*
X23500Y337000D02*
X26500D01*
X25000Y335500D02*
Y338500D01*
X78500Y399000D02*
X81500D01*
X80000Y397500D02*
Y400500D01*
X188500Y225000D02*
X191500D01*
X190000Y223500D02*
Y226500D01*
X199500Y247000D02*
X202500D01*
X201000Y245500D02*
Y248500D01*
X175500Y239000D02*
X178500D01*
X177000Y237500D02*
Y240500D01*
X154500Y227000D02*
X157500D01*
X156000Y225500D02*
Y228500D01*
X154500Y245000D02*
X157500D01*
X156000Y243500D02*
Y246500D01*
X288500Y339000D02*
X291500D01*
X290000Y337500D02*
Y340500D01*
X523500Y570000D02*
X526500D01*
X525000Y568500D02*
Y571500D01*
X523500Y580000D02*
X526500D01*
X525000Y578500D02*
Y581500D01*
X286500Y47000D02*
X289500D01*
X288000Y45500D02*
Y48500D01*
X333500Y97000D02*
X336500D01*
X335000Y95500D02*
Y98500D01*
X333500Y90000D02*
X336500D01*
X335000Y88500D02*
Y91500D01*
X268500Y344000D02*
X271500D01*
X270000Y342500D02*
Y345500D01*
X231500Y50000D02*
X234500D01*
X233000Y48500D02*
Y51500D01*
X241500Y50000D02*
X244500D01*
X243000Y48500D02*
Y51500D01*
X221500Y50000D02*
X224500D01*
X223000Y48500D02*
Y51500D01*
X365000Y237000D02*
X368000D01*
X366500Y235500D02*
Y238500D01*
X360500Y280000D02*
X363500D01*
X362000Y278500D02*
Y281500D01*
X301500Y275000D02*
X304500D01*
X303000Y273500D02*
Y276500D01*
X333500Y275000D02*
X336500D01*
X335000Y273500D02*
Y276500D01*
X259500Y142000D02*
X262500D01*
X261000Y140500D02*
Y143500D01*
X234500Y180000D02*
X237500D01*
X236000Y178500D02*
Y181500D01*
X417500Y184000D02*
X420500D01*
X419000Y182500D02*
Y185500D01*
X383500Y126000D02*
X386500D01*
X385000Y124500D02*
Y127500D01*
X142500Y610000D02*
X145500D01*
X144000Y608500D02*
Y611500D01*
X124500Y99000D02*
X127500D01*
X126000Y97500D02*
Y100500D01*
X254500Y60000D02*
X257500D01*
X256000Y58500D02*
Y61500D01*
X293500Y159000D02*
X296500D01*
X295000Y157500D02*
Y160500D01*
X269500Y129000D02*
X272500D01*
X271000Y127500D02*
Y130500D01*
X283500Y114000D02*
X286500D01*
X285000Y112500D02*
Y115500D01*
X94500Y610000D02*
X97500D01*
X96000Y608500D02*
Y611500D01*
X249500Y158000D02*
X252500D01*
X251000Y156500D02*
Y159500D01*
X249500Y126000D02*
X252500D01*
X251000Y124500D02*
Y127500D01*
X263500Y109000D02*
X266500D01*
X265000Y107500D02*
Y110500D01*
X317500Y52000D02*
X320500D01*
X319000Y50500D02*
Y53500D01*
X301500Y49000D02*
X304500D01*
X303000Y47500D02*
Y50500D01*
X304500Y75000D02*
X307500D01*
X306000Y73500D02*
Y76500D01*
X58500Y366000D02*
X61500D01*
X60000Y364500D02*
Y367500D01*
X58500Y254000D02*
X61500D01*
X60000Y252500D02*
Y255500D01*
X388500Y610000D02*
X391500D01*
X390000Y608500D02*
Y611500D01*
X288500Y610000D02*
X291500D01*
X290000Y608500D02*
Y611500D01*
X388500Y640000D02*
X391500D01*
X390000Y638500D02*
Y641500D01*
X78500Y412000D02*
X81500D01*
X80000Y410500D02*
Y413500D01*
X325500Y247000D02*
X328500D01*
X327000Y245500D02*
Y248500D01*
X342500Y375000D02*
X345500D01*
X344000Y373500D02*
Y376500D01*
X186500Y158000D02*
X189500D01*
X188000Y156500D02*
Y159500D01*
X29500Y154000D02*
X32500D01*
X31000Y152500D02*
Y155500D01*
X438500Y605000D02*
X441500D01*
X440000Y603500D02*
Y606500D01*
X388499Y305000D02*
X391499D01*
X389999Y303500D02*
Y306500D01*
X540500Y604000D02*
X543500D01*
X542000Y602500D02*
Y605500D01*
X431500Y363000D02*
X434500D01*
X433000Y361500D02*
Y364500D01*
X430500Y340000D02*
X433500D01*
X432000Y338500D02*
Y341500D01*
X168500Y496000D02*
X171500D01*
X170000Y494500D02*
Y497500D01*
X208500Y50000D02*
X211500D01*
X210000Y48500D02*
Y51500D01*
X198500Y50000D02*
X201500D01*
X200000Y48500D02*
Y51500D01*
X188500Y50000D02*
X191500D01*
X190000Y48500D02*
Y51500D01*
X138500Y285000D02*
X141500D01*
X140000Y283500D02*
Y286500D01*
X138500Y335000D02*
X141500D01*
X140000Y333500D02*
Y336500D01*
X433500Y120000D02*
X436500D01*
X435000Y118500D02*
Y121500D01*
X168500Y81000D02*
X171500D01*
X170000Y79500D02*
Y82500D01*
X168500Y69000D02*
X171500D01*
X170000Y67500D02*
Y70500D01*
X136500Y165000D02*
X139500D01*
X138000Y163500D02*
Y166500D01*
X263500Y51000D02*
X266500D01*
X265000Y49500D02*
Y52500D01*
X311500Y257000D02*
X314500D01*
X313000Y255500D02*
Y258500D01*
X204500Y164000D02*
X207500D01*
X206000Y162500D02*
Y165500D01*
X358499Y305000D02*
X361499D01*
X359999Y303500D02*
Y306500D01*
X345500Y32000D02*
X348500D01*
X347000Y30500D02*
Y33500D01*
X361500Y32000D02*
X364500D01*
X363000Y30500D02*
Y33500D01*
X353500Y32000D02*
X356500D01*
X355000Y30500D02*
Y33500D01*
X418500Y68000D02*
X421500D01*
X420000Y66500D02*
Y69500D01*
X198501Y490000D02*
X201501D01*
X200001Y488500D02*
Y491500D01*
X218500Y454000D02*
X221500D01*
X220000Y452500D02*
Y455500D01*
X90500Y58000D02*
X93500D01*
X92000Y56500D02*
Y59500D01*
X445500Y429000D02*
X448500D01*
X447000Y427500D02*
Y430500D01*
X362500Y517000D02*
X365500D01*
X364000Y515500D02*
Y518500D01*
X339500Y505000D02*
X342500D01*
X341000Y503500D02*
Y506500D01*
X237500Y357000D02*
X240500D01*
X239000Y355500D02*
Y358500D01*
X312500Y377000D02*
X315500D01*
X314000Y375500D02*
Y378500D01*
X470500Y395000D02*
X473500D01*
X472000Y393500D02*
Y396500D01*
X520500Y281000D02*
X523500D01*
X522000Y279500D02*
Y282500D01*
X507500Y281000D02*
X510500D01*
X509000Y279500D02*
Y282500D01*
X507500Y292000D02*
X510500D01*
X509000Y290500D02*
Y293500D01*
X520500Y303000D02*
X523500D01*
X522000Y301500D02*
Y304500D01*
X507500Y303000D02*
X510500D01*
X509000Y301500D02*
Y304500D01*
X90500Y80000D02*
X93500D01*
X92000Y78500D02*
Y81500D01*
X90500Y69000D02*
X93500D01*
X92000Y67500D02*
Y70500D01*
X318500Y23000D02*
X321500D01*
X320000Y21500D02*
Y24500D01*
X320500Y37000D02*
X323500D01*
X322000Y35500D02*
Y38500D01*
X308500Y31000D02*
X311500D01*
X310000Y29500D02*
Y32500D01*
X298500Y23000D02*
X301500D01*
X300000Y21500D02*
Y24500D01*
X297500Y37000D02*
X300500D01*
X299000Y35500D02*
Y38500D01*
X36500Y150000D02*
X39500D01*
X38000Y148500D02*
Y151500D01*
X42500Y141000D02*
X45500D01*
X44000Y139500D02*
Y142500D01*
X29500Y141000D02*
X32500D01*
X31000Y139500D02*
Y142500D01*
X126500Y30000D02*
X129500D01*
X128000Y28500D02*
Y31500D01*
X136500Y38000D02*
X139500D01*
X138000Y36500D02*
Y39500D01*
X136500Y23000D02*
X139500D01*
X138000Y21500D02*
Y24500D01*
X146500Y16000D02*
X149500D01*
X148000Y14500D02*
Y17500D01*
X146500Y30000D02*
X149500D01*
X148000Y28500D02*
Y31500D01*
X332500Y32000D02*
X335500D01*
X334000Y30500D02*
Y33500D01*
M02*
