G04*
G04 #@! TF.GenerationSoftware,Altium Limited,DefaultClient, ()*
G04*
G04 Layer_Color=65535*
%FSLAX44Y44*%
%MOMM*%
G71*
G04*
G04 #@! TF.SameCoordinates,4AC8D3AE-847C-4DBA-A645-61C765A70751*
G04*
G04*
G04 #@! TF.FilePolarity,Positive*
G04*
G01*
G75*
G36*
X123867Y631451D02*
X121561D01*
X121211Y632617D01*
X118724D01*
X118374Y631451D01*
X116133D01*
X118789Y638549D01*
X121198D01*
X123867Y631451D01*
D02*
G37*
G36*
X146783Y634182D02*
X143717D01*
Y635818D01*
X146783D01*
Y634182D01*
D02*
G37*
G36*
X94850Y638653D02*
X94966D01*
X95096Y638640D01*
X95238Y638627D01*
X95394Y638601D01*
X95744Y638536D01*
X96093Y638433D01*
X96430Y638303D01*
X96586Y638213D01*
X96741Y638122D01*
X96754D01*
X96780Y638096D01*
X96819Y638070D01*
X96871Y638018D01*
X96935Y637966D01*
X97013Y637889D01*
X97091Y637811D01*
X97182Y637707D01*
X97272Y637604D01*
X97363Y637474D01*
X97466Y637345D01*
X97557Y637189D01*
X97648Y637021D01*
X97739Y636852D01*
X97816Y636658D01*
X97894Y636451D01*
X95951Y636023D01*
Y636036D01*
X95938Y636075D01*
X95912Y636140D01*
X95886Y636205D01*
X95808Y636360D01*
X95770Y636425D01*
X95731Y636490D01*
X95718Y636503D01*
X95705Y636529D01*
X95653Y636580D01*
X95601Y636632D01*
X95459Y636762D01*
X95277Y636878D01*
X95264Y636891D01*
X95238Y636904D01*
X95174Y636930D01*
X95109Y636956D01*
X95018Y636982D01*
X94915Y636995D01*
X94798Y637021D01*
X94604D01*
X94565Y637008D01*
X94422Y636995D01*
X94254Y636943D01*
X94073Y636878D01*
X93878Y636762D01*
X93697Y636619D01*
X93619Y636516D01*
X93541Y636412D01*
X93528Y636386D01*
X93490Y636334D01*
X93451Y636218D01*
X93399Y636075D01*
X93334Y635881D01*
X93295Y635648D01*
X93256Y635363D01*
X93244Y635026D01*
Y635013D01*
Y634974D01*
Y634909D01*
Y634832D01*
X93256Y634741D01*
Y634624D01*
X93282Y634378D01*
X93334Y634119D01*
X93386Y633847D01*
X93477Y633601D01*
X93528Y633497D01*
X93593Y633407D01*
X93606Y633394D01*
X93658Y633342D01*
X93749Y633277D01*
X93852Y633199D01*
X93995Y633109D01*
X94176Y633044D01*
X94370Y632992D01*
X94604Y632979D01*
X94707D01*
X94824Y632992D01*
X94966Y633018D01*
X95122Y633070D01*
X95277Y633122D01*
X95433Y633212D01*
X95562Y633329D01*
X95575Y633342D01*
X95614Y633394D01*
X95679Y633471D01*
X95744Y633588D01*
X95821Y633731D01*
X95899Y633912D01*
X95977Y634119D01*
X96041Y634365D01*
X97959Y633769D01*
Y633756D01*
X97946Y633731D01*
X97933Y633692D01*
X97920Y633640D01*
X97881Y633484D01*
X97803Y633303D01*
X97725Y633083D01*
X97609Y632863D01*
X97492Y632642D01*
X97337Y632422D01*
X97324Y632396D01*
X97259Y632332D01*
X97169Y632241D01*
X97052Y632111D01*
X96896Y631982D01*
X96728Y631852D01*
X96521Y631723D01*
X96301Y631606D01*
X96288D01*
X96275Y631593D01*
X96236Y631580D01*
X96197Y631567D01*
X96054Y631515D01*
X95873Y631477D01*
X95653Y631425D01*
X95381Y631373D01*
X95070Y631347D01*
X94733Y631334D01*
X94539D01*
X94435Y631347D01*
X94332D01*
X94202Y631360D01*
X94060Y631373D01*
X93762Y631412D01*
X93438Y631477D01*
X93127Y631554D01*
X92829Y631658D01*
X92816D01*
X92803Y631671D01*
X92764Y631697D01*
X92712Y631723D01*
X92570Y631813D01*
X92401Y631930D01*
X92207Y632098D01*
X91987Y632293D01*
X91780Y632539D01*
X91572Y632837D01*
Y632850D01*
X91546Y632876D01*
X91521Y632927D01*
X91495Y632992D01*
X91456Y633070D01*
X91404Y633173D01*
X91352Y633290D01*
X91313Y633433D01*
X91262Y633575D01*
X91210Y633744D01*
X91171Y633925D01*
X91119Y634119D01*
X91093Y634326D01*
X91067Y634547D01*
X91041Y635013D01*
Y635039D01*
Y635091D01*
X91054Y635181D01*
Y635298D01*
X91067Y635453D01*
X91093Y635622D01*
X91119Y635803D01*
X91158Y636010D01*
X91210Y636231D01*
X91274Y636451D01*
X91339Y636671D01*
X91430Y636904D01*
X91546Y637124D01*
X91663Y637332D01*
X91806Y637539D01*
X91974Y637720D01*
X91987Y637733D01*
X92013Y637759D01*
X92078Y637811D01*
X92142Y637863D01*
X92246Y637941D01*
X92363Y638018D01*
X92492Y638109D01*
X92661Y638200D01*
X92829Y638277D01*
X93036Y638368D01*
X93256Y638446D01*
X93490Y638523D01*
X93749Y638575D01*
X94021Y638627D01*
X94319Y638653D01*
X94629Y638666D01*
X94759D01*
X94850Y638653D01*
D02*
G37*
G36*
X70332Y635832D02*
X72329D01*
Y634154D01*
X70332D01*
Y632171D01*
X68654D01*
Y634154D01*
X66671D01*
Y635832D01*
X68654D01*
Y637829D01*
X70332D01*
Y635832D01*
D02*
G37*
G36*
X609832Y125832D02*
X611829D01*
Y124154D01*
X609832D01*
Y122171D01*
X608154D01*
Y124154D01*
X606171D01*
Y125832D01*
X608154D01*
Y127829D01*
X609832D01*
Y125832D01*
D02*
G37*
G36*
X515332Y635832D02*
X517329D01*
Y634154D01*
X515332D01*
Y632171D01*
X513654D01*
Y634154D01*
X511671D01*
Y635832D01*
X513654D01*
Y637829D01*
X515332D01*
Y635832D01*
D02*
G37*
G36*
X592032Y634182D02*
X588968D01*
Y635818D01*
X592032D01*
Y634182D01*
D02*
G37*
G36*
X541043Y635868D02*
X543763Y631451D01*
X541056D01*
X539553Y634352D01*
X538426Y633173D01*
Y631451D01*
X536237D01*
Y638549D01*
X538426D01*
Y635855D01*
X540719Y638549D01*
X543647D01*
X541043Y635868D01*
D02*
G37*
G36*
X565522Y638653D02*
X565677Y638640D01*
X565846Y638614D01*
X566040Y638588D01*
X566235Y638549D01*
X566455Y638498D01*
X566675Y638433D01*
X566908Y638355D01*
X567128Y638264D01*
X567349Y638148D01*
X567569Y638018D01*
X567763Y637876D01*
X567957Y637707D01*
X567970Y637694D01*
X567996Y637668D01*
X568048Y637604D01*
X568113Y637539D01*
X568178Y637435D01*
X568268Y637319D01*
X568359Y637176D01*
X568450Y637021D01*
X568540Y636839D01*
X568618Y636645D01*
X568709Y636425D01*
X568773Y636192D01*
X568838Y635933D01*
X568890Y635661D01*
X568916Y635363D01*
X568929Y635052D01*
Y635039D01*
Y635000D01*
Y634935D01*
Y634845D01*
X568916Y634741D01*
X568903Y634611D01*
X568890Y634482D01*
X568877Y634326D01*
X568825Y634002D01*
X568748Y633666D01*
X568644Y633329D01*
X568502Y633005D01*
Y632992D01*
X568489Y632966D01*
X568463Y632927D01*
X568424Y632876D01*
X568333Y632733D01*
X568191Y632552D01*
X568022Y632357D01*
X567815Y632150D01*
X567582Y631956D01*
X567297Y631774D01*
X567284D01*
X567258Y631762D01*
X567219Y631736D01*
X567154Y631710D01*
X567076Y631671D01*
X566986Y631632D01*
X566882Y631593D01*
X566753Y631554D01*
X566610Y631515D01*
X566468Y631477D01*
X566131Y631399D01*
X565742Y631347D01*
X565315Y631334D01*
X565121D01*
X565017Y631347D01*
X564900Y631360D01*
X564771D01*
X564615Y631386D01*
X564304Y631425D01*
X563980Y631489D01*
X563644Y631580D01*
X563333Y631710D01*
X563320D01*
X563294Y631723D01*
X563255Y631749D01*
X563203Y631787D01*
X563061Y631878D01*
X562879Y632008D01*
X562672Y632163D01*
X562465Y632383D01*
X562245Y632629D01*
X562050Y632914D01*
Y632927D01*
X562024Y632953D01*
X562011Y633005D01*
X561973Y633070D01*
X561934Y633148D01*
X561895Y633238D01*
X561856Y633355D01*
X561817Y633484D01*
X561765Y633627D01*
X561726Y633782D01*
X561688Y633951D01*
X561649Y634145D01*
X561597Y634547D01*
X561571Y634987D01*
Y635013D01*
Y635065D01*
X561584Y635155D01*
Y635272D01*
X561597Y635415D01*
X561623Y635583D01*
X561649Y635777D01*
X561688Y635971D01*
X561740Y636192D01*
X561804Y636412D01*
X561882Y636632D01*
X561973Y636865D01*
X562089Y637086D01*
X562219Y637306D01*
X562361Y637500D01*
X562530Y637694D01*
X562543Y637707D01*
X562581Y637733D01*
X562633Y637785D01*
X562711Y637850D01*
X562815Y637915D01*
X562931Y638005D01*
X563074Y638096D01*
X563229Y638187D01*
X563410Y638277D01*
X563618Y638355D01*
X563838Y638446D01*
X564084Y638511D01*
X564343Y638575D01*
X564628Y638627D01*
X564926Y638653D01*
X565237Y638666D01*
X565405D01*
X565522Y638653D01*
D02*
G37*
%LPC*%
G36*
X119968Y636697D02*
X119190Y634158D01*
X120745D01*
X119968Y636697D01*
D02*
G37*
G36*
X565224Y637008D02*
X565198D01*
X565121Y636995D01*
X564991Y636982D01*
X564848Y636943D01*
X564680Y636891D01*
X564499Y636801D01*
X564317Y636684D01*
X564162Y636529D01*
X564149Y636503D01*
X564097Y636438D01*
X564032Y636321D01*
X563968Y636166D01*
X563929Y636062D01*
X563890Y635946D01*
X563851Y635816D01*
X563825Y635687D01*
X563799Y635531D01*
X563773Y635363D01*
X563760Y635181D01*
Y634987D01*
Y634974D01*
Y634935D01*
Y634883D01*
X563773Y634819D01*
Y634728D01*
X563786Y634624D01*
X563812Y634391D01*
X563851Y634145D01*
X563929Y633886D01*
X564019Y633640D01*
X564084Y633536D01*
X564149Y633446D01*
X564162Y633420D01*
X564227Y633368D01*
X564317Y633303D01*
X564434Y633212D01*
X564589Y633122D01*
X564784Y633057D01*
X565004Y633005D01*
X565250Y632979D01*
X565315D01*
X565367Y632992D01*
X565496Y633005D01*
X565652Y633031D01*
X565820Y633096D01*
X566001Y633173D01*
X566183Y633277D01*
X566338Y633433D01*
X566351Y633459D01*
X566403Y633523D01*
X566429Y633575D01*
X566468Y633640D01*
X566507Y633718D01*
X566545Y633808D01*
X566571Y633912D01*
X566610Y634028D01*
X566649Y634171D01*
X566675Y634313D01*
X566701Y634482D01*
X566727Y634663D01*
X566740Y634857D01*
Y635078D01*
Y635091D01*
Y635117D01*
Y635168D01*
Y635246D01*
X566727Y635324D01*
X566714Y635415D01*
X566688Y635635D01*
X566636Y635868D01*
X566571Y636114D01*
X566468Y636347D01*
X566325Y636541D01*
X566312Y636567D01*
X566247Y636619D01*
X566157Y636684D01*
X566040Y636775D01*
X565885Y636865D01*
X565690Y636930D01*
X565470Y636982D01*
X565224Y637008D01*
D02*
G37*
%LPD*%
M02*
