G04*
G04 #@! TF.GenerationSoftware,Altium Limited,DefaultClient, ()*
G04*
G04 Layer_Color=8421504*
%FSLAX44Y44*%
%MOMM*%
G71*
G04*
G04 #@! TF.SameCoordinates,4AC8D3AE-847C-4DBA-A645-61C765A70751*
G04*
G04*
G04 #@! TF.FilePolarity,Positive*
G04*
G01*
G75*
%ADD10R,0.9300X1.2500*%
G04:AMPARAMS|DCode=11|XSize=0.65mm|YSize=0.65mm|CornerRadius=0.065mm|HoleSize=0mm|Usage=FLASHONLY|Rotation=90.000|XOffset=0mm|YOffset=0mm|HoleType=Round|Shape=RoundedRectangle|*
%AMROUNDEDRECTD11*
21,1,0.6500,0.5200,0,0,90.0*
21,1,0.5200,0.6500,0,0,90.0*
1,1,0.1300,0.2600,0.2600*
1,1,0.1300,0.2600,-0.2600*
1,1,0.1300,-0.2600,-0.2600*
1,1,0.1300,-0.2600,0.2600*
%
%ADD11ROUNDEDRECTD11*%
G04:AMPARAMS|DCode=12|XSize=0.65mm|YSize=0.65mm|CornerRadius=0.065mm|HoleSize=0mm|Usage=FLASHONLY|Rotation=180.000|XOffset=0mm|YOffset=0mm|HoleType=Round|Shape=RoundedRectangle|*
%AMROUNDEDRECTD12*
21,1,0.6500,0.5200,0,0,180.0*
21,1,0.5200,0.6500,0,0,180.0*
1,1,0.1300,-0.2600,0.2600*
1,1,0.1300,0.2600,0.2600*
1,1,0.1300,0.2600,-0.2600*
1,1,0.1300,-0.2600,-0.2600*
%
%ADD12ROUNDEDRECTD12*%
G04:AMPARAMS|DCode=13|XSize=0.8mm|YSize=0.7mm|CornerRadius=0.07mm|HoleSize=0mm|Usage=FLASHONLY|Rotation=0.000|XOffset=0mm|YOffset=0mm|HoleType=Round|Shape=RoundedRectangle|*
%AMROUNDEDRECTD13*
21,1,0.8000,0.5600,0,0,0.0*
21,1,0.6600,0.7000,0,0,0.0*
1,1,0.1400,0.3300,-0.2800*
1,1,0.1400,-0.3300,-0.2800*
1,1,0.1400,-0.3300,0.2800*
1,1,0.1400,0.3300,0.2800*
%
%ADD13ROUNDEDRECTD13*%
G04:AMPARAMS|DCode=14|XSize=0.875mm|YSize=0.2mm|CornerRadius=0.025mm|HoleSize=0mm|Usage=FLASHONLY|Rotation=90.000|XOffset=0mm|YOffset=0mm|HoleType=Round|Shape=RoundedRectangle|*
%AMROUNDEDRECTD14*
21,1,0.8750,0.1500,0,0,90.0*
21,1,0.8250,0.2000,0,0,90.0*
1,1,0.0500,0.0750,0.4125*
1,1,0.0500,0.0750,-0.4125*
1,1,0.0500,-0.0750,-0.4125*
1,1,0.0500,-0.0750,0.4125*
%
%ADD14ROUNDEDRECTD14*%
G04:AMPARAMS|DCode=15|XSize=0.3mm|YSize=1.45mm|CornerRadius=0.075mm|HoleSize=0mm|Usage=FLASHONLY|Rotation=270.000|XOffset=0mm|YOffset=0mm|HoleType=Round|Shape=RoundedRectangle|*
%AMROUNDEDRECTD15*
21,1,0.3000,1.3000,0,0,270.0*
21,1,0.1500,1.4500,0,0,270.0*
1,1,0.1500,-0.6500,-0.0750*
1,1,0.1500,-0.6500,0.0750*
1,1,0.1500,0.6500,0.0750*
1,1,0.1500,0.6500,-0.0750*
%
%ADD15ROUNDEDRECTD15*%
G04:AMPARAMS|DCode=16|XSize=0.9mm|YSize=0.85mm|CornerRadius=0.085mm|HoleSize=0mm|Usage=FLASHONLY|Rotation=0.000|XOffset=0mm|YOffset=0mm|HoleType=Round|Shape=RoundedRectangle|*
%AMROUNDEDRECTD16*
21,1,0.9000,0.6800,0,0,0.0*
21,1,0.7300,0.8500,0,0,0.0*
1,1,0.1700,0.3650,-0.3400*
1,1,0.1700,-0.3650,-0.3400*
1,1,0.1700,-0.3650,0.3400*
1,1,0.1700,0.3650,0.3400*
%
%ADD16ROUNDEDRECTD16*%
G04:AMPARAMS|DCode=17|XSize=2.7mm|YSize=1.55mm|CornerRadius=0.155mm|HoleSize=0mm|Usage=FLASHONLY|Rotation=180.000|XOffset=0mm|YOffset=0mm|HoleType=Round|Shape=RoundedRectangle|*
%AMROUNDEDRECTD17*
21,1,2.7000,1.2400,0,0,180.0*
21,1,2.3900,1.5500,0,0,180.0*
1,1,0.3100,-1.1950,0.6200*
1,1,0.3100,1.1950,0.6200*
1,1,0.3100,1.1950,-0.6200*
1,1,0.3100,-1.1950,-0.6200*
%
%ADD17ROUNDEDRECTD17*%
G04:AMPARAMS|DCode=18|XSize=1.93mm|YSize=1.65mm|CornerRadius=0.165mm|HoleSize=0mm|Usage=FLASHONLY|Rotation=90.000|XOffset=0mm|YOffset=0mm|HoleType=Round|Shape=RoundedRectangle|*
%AMROUNDEDRECTD18*
21,1,1.9300,1.3200,0,0,90.0*
21,1,1.6000,1.6500,0,0,90.0*
1,1,0.3300,0.6600,0.8000*
1,1,0.3300,0.6600,-0.8000*
1,1,0.3300,-0.6600,-0.8000*
1,1,0.3300,-0.6600,0.8000*
%
%ADD18ROUNDEDRECTD18*%
G04:AMPARAMS|DCode=19|XSize=1.4mm|YSize=2.1mm|CornerRadius=0.14mm|HoleSize=0mm|Usage=FLASHONLY|Rotation=270.000|XOffset=0mm|YOffset=0mm|HoleType=Round|Shape=RoundedRectangle|*
%AMROUNDEDRECTD19*
21,1,1.4000,1.8200,0,0,270.0*
21,1,1.1200,2.1000,0,0,270.0*
1,1,0.2800,-0.9100,-0.5600*
1,1,0.2800,-0.9100,0.5600*
1,1,0.2800,0.9100,0.5600*
1,1,0.2800,0.9100,-0.5600*
%
%ADD19ROUNDEDRECTD19*%
G04:AMPARAMS|DCode=20|XSize=0.55mm|YSize=0.55mm|CornerRadius=0.055mm|HoleSize=0mm|Usage=FLASHONLY|Rotation=0.000|XOffset=0mm|YOffset=0mm|HoleType=Round|Shape=RoundedRectangle|*
%AMROUNDEDRECTD20*
21,1,0.5500,0.4400,0,0,0.0*
21,1,0.4400,0.5500,0,0,0.0*
1,1,0.1100,0.2200,-0.2200*
1,1,0.1100,-0.2200,-0.2200*
1,1,0.1100,-0.2200,0.2200*
1,1,0.1100,0.2200,0.2200*
%
%ADD20ROUNDEDRECTD20*%
G04:AMPARAMS|DCode=21|XSize=0.55mm|YSize=0.55mm|CornerRadius=0.055mm|HoleSize=0mm|Usage=FLASHONLY|Rotation=270.000|XOffset=0mm|YOffset=0mm|HoleType=Round|Shape=RoundedRectangle|*
%AMROUNDEDRECTD21*
21,1,0.5500,0.4400,0,0,270.0*
21,1,0.4400,0.5500,0,0,270.0*
1,1,0.1100,-0.2200,-0.2200*
1,1,0.1100,-0.2200,0.2200*
1,1,0.1100,0.2200,0.2200*
1,1,0.1100,0.2200,-0.2200*
%
%ADD21ROUNDEDRECTD21*%
G04:AMPARAMS|DCode=22|XSize=0.61mm|YSize=1.27mm|CornerRadius=0.0763mm|HoleSize=0mm|Usage=FLASHONLY|Rotation=0.000|XOffset=0mm|YOffset=0mm|HoleType=Round|Shape=RoundedRectangle|*
%AMROUNDEDRECTD22*
21,1,0.6100,1.1175,0,0,0.0*
21,1,0.4575,1.2700,0,0,0.0*
1,1,0.1525,0.2288,-0.5587*
1,1,0.1525,-0.2288,-0.5587*
1,1,0.1525,-0.2288,0.5587*
1,1,0.1525,0.2288,0.5587*
%
%ADD22ROUNDEDRECTD22*%
%ADD23R,1.7272X3.9878*%
G04:AMPARAMS|DCode=24|XSize=0.8mm|YSize=0.9mm|CornerRadius=0.08mm|HoleSize=0mm|Usage=FLASHONLY|Rotation=180.000|XOffset=0mm|YOffset=0mm|HoleType=Round|Shape=RoundedRectangle|*
%AMROUNDEDRECTD24*
21,1,0.8000,0.7400,0,0,180.0*
21,1,0.6400,0.9000,0,0,180.0*
1,1,0.1600,-0.3200,0.3700*
1,1,0.1600,0.3200,0.3700*
1,1,0.1600,0.3200,-0.3700*
1,1,0.1600,-0.3200,-0.3700*
%
%ADD24ROUNDEDRECTD24*%
G04:AMPARAMS|DCode=25|XSize=0.8mm|YSize=0.9mm|CornerRadius=0.08mm|HoleSize=0mm|Usage=FLASHONLY|Rotation=90.000|XOffset=0mm|YOffset=0mm|HoleType=Round|Shape=RoundedRectangle|*
%AMROUNDEDRECTD25*
21,1,0.8000,0.7400,0,0,90.0*
21,1,0.6400,0.9000,0,0,90.0*
1,1,0.1600,0.3700,0.3200*
1,1,0.1600,0.3700,-0.3200*
1,1,0.1600,-0.3700,-0.3200*
1,1,0.1600,-0.3700,0.3200*
%
%ADD25ROUNDEDRECTD25*%
G04:AMPARAMS|DCode=26|XSize=0.2mm|YSize=0.875mm|CornerRadius=0.025mm|HoleSize=0mm|Usage=FLASHONLY|Rotation=90.000|XOffset=0mm|YOffset=0mm|HoleType=Round|Shape=RoundedRectangle|*
%AMROUNDEDRECTD26*
21,1,0.2000,0.8250,0,0,90.0*
21,1,0.1500,0.8750,0,0,90.0*
1,1,0.0500,0.4125,0.0750*
1,1,0.0500,0.4125,-0.0750*
1,1,0.0500,-0.4125,-0.0750*
1,1,0.0500,-0.4125,0.0750*
%
%ADD26ROUNDEDRECTD26*%
G04:AMPARAMS|DCode=27|XSize=0.2mm|YSize=0.55mm|CornerRadius=0.02mm|HoleSize=0mm|Usage=FLASHONLY|Rotation=180.000|XOffset=0mm|YOffset=0mm|HoleType=Round|Shape=RoundedRectangle|*
%AMROUNDEDRECTD27*
21,1,0.2000,0.5100,0,0,180.0*
21,1,0.1600,0.5500,0,0,180.0*
1,1,0.0400,-0.0800,0.2550*
1,1,0.0400,0.0800,0.2550*
1,1,0.0400,0.0800,-0.2550*
1,1,0.0400,-0.0800,-0.2550*
%
%ADD27ROUNDEDRECTD27*%
G04:AMPARAMS|DCode=28|XSize=0.2mm|YSize=0.55mm|CornerRadius=0.02mm|HoleSize=0mm|Usage=FLASHONLY|Rotation=90.000|XOffset=0mm|YOffset=0mm|HoleType=Round|Shape=RoundedRectangle|*
%AMROUNDEDRECTD28*
21,1,0.2000,0.5100,0,0,90.0*
21,1,0.1600,0.5500,0,0,90.0*
1,1,0.0400,0.2550,0.0800*
1,1,0.0400,0.2550,-0.0800*
1,1,0.0400,-0.2550,-0.0800*
1,1,0.0400,-0.2550,0.0800*
%
%ADD28ROUNDEDRECTD28*%
G04:AMPARAMS|DCode=29|XSize=1.1mm|YSize=1.4mm|CornerRadius=0.11mm|HoleSize=0mm|Usage=FLASHONLY|Rotation=180.000|XOffset=0mm|YOffset=0mm|HoleType=Round|Shape=RoundedRectangle|*
%AMROUNDEDRECTD29*
21,1,1.1000,1.1800,0,0,180.0*
21,1,0.8800,1.4000,0,0,180.0*
1,1,0.2200,-0.4400,0.5900*
1,1,0.2200,0.4400,0.5900*
1,1,0.2200,0.4400,-0.5900*
1,1,0.2200,-0.4400,-0.5900*
%
%ADD29ROUNDEDRECTD29*%
G04:AMPARAMS|DCode=30|XSize=0.27mm|YSize=0.8mm|CornerRadius=0.0338mm|HoleSize=0mm|Usage=FLASHONLY|Rotation=270.000|XOffset=0mm|YOffset=0mm|HoleType=Round|Shape=RoundedRectangle|*
%AMROUNDEDRECTD30*
21,1,0.2700,0.7325,0,0,270.0*
21,1,0.2025,0.8000,0,0,270.0*
1,1,0.0675,-0.3663,-0.1013*
1,1,0.0675,-0.3663,0.1013*
1,1,0.0675,0.3663,0.1013*
1,1,0.0675,0.3663,-0.1013*
%
%ADD30ROUNDEDRECTD30*%
G04:AMPARAMS|DCode=31|XSize=0.27mm|YSize=0.9mm|CornerRadius=0.0338mm|HoleSize=0mm|Usage=FLASHONLY|Rotation=270.000|XOffset=0mm|YOffset=0mm|HoleType=Round|Shape=RoundedRectangle|*
%AMROUNDEDRECTD31*
21,1,0.2700,0.8325,0,0,270.0*
21,1,0.2025,0.9000,0,0,270.0*
1,1,0.0675,-0.4162,-0.1013*
1,1,0.0675,-0.4162,0.1013*
1,1,0.0675,0.4162,0.1013*
1,1,0.0675,0.4162,-0.1013*
%
%ADD31ROUNDEDRECTD31*%
G04:AMPARAMS|DCode=32|XSize=0.2mm|YSize=0.6mm|CornerRadius=0.02mm|HoleSize=0mm|Usage=FLASHONLY|Rotation=0.000|XOffset=0mm|YOffset=0mm|HoleType=Round|Shape=RoundedRectangle|*
%AMROUNDEDRECTD32*
21,1,0.2000,0.5600,0,0,0.0*
21,1,0.1600,0.6000,0,0,0.0*
1,1,0.0400,0.0800,-0.2800*
1,1,0.0400,-0.0800,-0.2800*
1,1,0.0400,-0.0800,0.2800*
1,1,0.0400,0.0800,0.2800*
%
%ADD32ROUNDEDRECTD32*%
G04:AMPARAMS|DCode=33|XSize=0.2mm|YSize=0.6mm|CornerRadius=0.02mm|HoleSize=0mm|Usage=FLASHONLY|Rotation=90.000|XOffset=0mm|YOffset=0mm|HoleType=Round|Shape=RoundedRectangle|*
%AMROUNDEDRECTD33*
21,1,0.2000,0.5600,0,0,90.0*
21,1,0.1600,0.6000,0,0,90.0*
1,1,0.0400,0.2800,0.0800*
1,1,0.0400,0.2800,-0.0800*
1,1,0.0400,-0.2800,-0.0800*
1,1,0.0400,-0.2800,0.0800*
%
%ADD33ROUNDEDRECTD33*%
G04:AMPARAMS|DCode=34|XSize=0.9mm|YSize=0.3mm|CornerRadius=0.03mm|HoleSize=0mm|Usage=FLASHONLY|Rotation=270.000|XOffset=0mm|YOffset=0mm|HoleType=Round|Shape=RoundedRectangle|*
%AMROUNDEDRECTD34*
21,1,0.9000,0.2400,0,0,270.0*
21,1,0.8400,0.3000,0,0,270.0*
1,1,0.0600,-0.1200,-0.4200*
1,1,0.0600,-0.1200,0.4200*
1,1,0.0600,0.1200,0.4200*
1,1,0.0600,0.1200,-0.4200*
%
%ADD34ROUNDEDRECTD34*%
G04:AMPARAMS|DCode=35|XSize=1.3mm|YSize=3.4mm|CornerRadius=0.325mm|HoleSize=0mm|Usage=FLASHONLY|Rotation=180.000|XOffset=0mm|YOffset=0mm|HoleType=Round|Shape=RoundedRectangle|*
%AMROUNDEDRECTD35*
21,1,1.3000,2.7500,0,0,180.0*
21,1,0.6500,3.4000,0,0,180.0*
1,1,0.6500,-0.3250,1.3750*
1,1,0.6500,0.3250,1.3750*
1,1,0.6500,0.3250,-1.3750*
1,1,0.6500,-0.3250,-1.3750*
%
%ADD35ROUNDEDRECTD35*%
G04:AMPARAMS|DCode=36|XSize=0.3mm|YSize=1.2mm|CornerRadius=0.0375mm|HoleSize=0mm|Usage=FLASHONLY|Rotation=180.000|XOffset=0mm|YOffset=0mm|HoleType=Round|Shape=RoundedRectangle|*
%AMROUNDEDRECTD36*
21,1,0.3000,1.1250,0,0,180.0*
21,1,0.2250,1.2000,0,0,180.0*
1,1,0.0750,-0.1125,0.5625*
1,1,0.0750,0.1125,0.5625*
1,1,0.0750,0.1125,-0.5625*
1,1,0.0750,-0.1125,-0.5625*
%
%ADD36ROUNDEDRECTD36*%
G04:AMPARAMS|DCode=37|XSize=2.2mm|YSize=3.3mm|CornerRadius=0.22mm|HoleSize=0mm|Usage=FLASHONLY|Rotation=180.000|XOffset=0mm|YOffset=0mm|HoleType=Round|Shape=RoundedRectangle|*
%AMROUNDEDRECTD37*
21,1,2.2000,2.8600,0,0,180.0*
21,1,1.7600,3.3000,0,0,180.0*
1,1,0.4400,-0.8800,1.4300*
1,1,0.4400,0.8800,1.4300*
1,1,0.4400,0.8800,-1.4300*
1,1,0.4400,-0.8800,-1.4300*
%
%ADD37ROUNDEDRECTD37*%
%ADD38O,0.4500X1.4000*%
G04:AMPARAMS|DCode=39|XSize=1.4mm|YSize=2.1mm|CornerRadius=0.14mm|HoleSize=0mm|Usage=FLASHONLY|Rotation=0.000|XOffset=0mm|YOffset=0mm|HoleType=Round|Shape=RoundedRectangle|*
%AMROUNDEDRECTD39*
21,1,1.4000,1.8200,0,0,0.0*
21,1,1.1200,2.1000,0,0,0.0*
1,1,0.2800,0.5600,-0.9100*
1,1,0.2800,-0.5600,-0.9100*
1,1,0.2800,-0.5600,0.9100*
1,1,0.2800,0.5600,0.9100*
%
%ADD39ROUNDEDRECTD39*%
G04:AMPARAMS|DCode=40|XSize=1mm|YSize=1.9mm|CornerRadius=0.1mm|HoleSize=0mm|Usage=FLASHONLY|Rotation=90.000|XOffset=0mm|YOffset=0mm|HoleType=Round|Shape=RoundedRectangle|*
%AMROUNDEDRECTD40*
21,1,1.0000,1.7000,0,0,90.0*
21,1,0.8000,1.9000,0,0,90.0*
1,1,0.2000,0.8500,0.4000*
1,1,0.2000,0.8500,-0.4000*
1,1,0.2000,-0.8500,-0.4000*
1,1,0.2000,-0.8500,0.4000*
%
%ADD40ROUNDEDRECTD40*%
G04:AMPARAMS|DCode=41|XSize=1.1mm|YSize=3.7mm|CornerRadius=0.11mm|HoleSize=0mm|Usage=FLASHONLY|Rotation=90.000|XOffset=0mm|YOffset=0mm|HoleType=Round|Shape=RoundedRectangle|*
%AMROUNDEDRECTD41*
21,1,1.1000,3.4800,0,0,90.0*
21,1,0.8800,3.7000,0,0,90.0*
1,1,0.2200,1.7400,0.4400*
1,1,0.2200,1.7400,-0.4400*
1,1,0.2200,-1.7400,-0.4400*
1,1,0.2200,-1.7400,0.4400*
%
%ADD41ROUNDEDRECTD41*%
G04:AMPARAMS|DCode=42|XSize=0.62mm|YSize=0.6mm|CornerRadius=0.06mm|HoleSize=0mm|Usage=FLASHONLY|Rotation=180.000|XOffset=0mm|YOffset=0mm|HoleType=Round|Shape=RoundedRectangle|*
%AMROUNDEDRECTD42*
21,1,0.6200,0.4800,0,0,180.0*
21,1,0.5000,0.6000,0,0,180.0*
1,1,0.1200,-0.2500,0.2400*
1,1,0.1200,0.2500,0.2400*
1,1,0.1200,0.2500,-0.2400*
1,1,0.1200,-0.2500,-0.2400*
%
%ADD42ROUNDEDRECTD42*%
G04:AMPARAMS|DCode=43|XSize=2.7mm|YSize=1.55mm|CornerRadius=0.155mm|HoleSize=0mm|Usage=FLASHONLY|Rotation=90.000|XOffset=0mm|YOffset=0mm|HoleType=Round|Shape=RoundedRectangle|*
%AMROUNDEDRECTD43*
21,1,2.7000,1.2400,0,0,90.0*
21,1,2.3900,1.5500,0,0,90.0*
1,1,0.3100,0.6200,1.1950*
1,1,0.3100,0.6200,-1.1950*
1,1,0.3100,-0.6200,-1.1950*
1,1,0.3100,-0.6200,1.1950*
%
%ADD43ROUNDEDRECTD43*%
G04:AMPARAMS|DCode=44|XSize=1.4mm|YSize=1.2mm|CornerRadius=0.12mm|HoleSize=0mm|Usage=FLASHONLY|Rotation=270.000|XOffset=0mm|YOffset=0mm|HoleType=Round|Shape=RoundedRectangle|*
%AMROUNDEDRECTD44*
21,1,1.4000,0.9600,0,0,270.0*
21,1,1.1600,1.2000,0,0,270.0*
1,1,0.2400,-0.4800,-0.5800*
1,1,0.2400,-0.4800,0.5800*
1,1,0.2400,0.4800,0.5800*
1,1,0.2400,0.4800,-0.5800*
%
%ADD44ROUNDEDRECTD44*%
G04:AMPARAMS|DCode=45|XSize=0.9mm|YSize=0.85mm|CornerRadius=0.085mm|HoleSize=0mm|Usage=FLASHONLY|Rotation=90.000|XOffset=0mm|YOffset=0mm|HoleType=Round|Shape=RoundedRectangle|*
%AMROUNDEDRECTD45*
21,1,0.9000,0.6800,0,0,90.0*
21,1,0.7300,0.8500,0,0,90.0*
1,1,0.1700,0.3400,0.3650*
1,1,0.1700,0.3400,-0.3650*
1,1,0.1700,-0.3400,-0.3650*
1,1,0.1700,-0.3400,0.3650*
%
%ADD45ROUNDEDRECTD45*%
G04:AMPARAMS|DCode=46|XSize=0.52mm|YSize=0.5mm|CornerRadius=0.05mm|HoleSize=0mm|Usage=FLASHONLY|Rotation=90.000|XOffset=0mm|YOffset=0mm|HoleType=Round|Shape=RoundedRectangle|*
%AMROUNDEDRECTD46*
21,1,0.5200,0.4000,0,0,90.0*
21,1,0.4200,0.5000,0,0,90.0*
1,1,0.1000,0.2000,0.2100*
1,1,0.1000,0.2000,-0.2100*
1,1,0.1000,-0.2000,-0.2100*
1,1,0.1000,-0.2000,0.2100*
%
%ADD46ROUNDEDRECTD46*%
G04:AMPARAMS|DCode=47|XSize=1.7mm|YSize=1.1mm|CornerRadius=0.1375mm|HoleSize=0mm|Usage=FLASHONLY|Rotation=180.000|XOffset=0mm|YOffset=0mm|HoleType=Round|Shape=RoundedRectangle|*
%AMROUNDEDRECTD47*
21,1,1.7000,0.8250,0,0,180.0*
21,1,1.4250,1.1000,0,0,180.0*
1,1,0.2750,-0.7125,0.4125*
1,1,0.2750,0.7125,0.4125*
1,1,0.2750,0.7125,-0.4125*
1,1,0.2750,-0.7125,-0.4125*
%
%ADD47ROUNDEDRECTD47*%
G04:AMPARAMS|DCode=48|XSize=0.45mm|YSize=0.8mm|CornerRadius=0.045mm|HoleSize=0mm|Usage=FLASHONLY|Rotation=90.000|XOffset=0mm|YOffset=0mm|HoleType=Round|Shape=RoundedRectangle|*
%AMROUNDEDRECTD48*
21,1,0.4500,0.7100,0,0,90.0*
21,1,0.3600,0.8000,0,0,90.0*
1,1,0.0900,0.3550,0.1800*
1,1,0.0900,0.3550,-0.1800*
1,1,0.0900,-0.3550,-0.1800*
1,1,0.0900,-0.3550,0.1800*
%
%ADD48ROUNDEDRECTD48*%
G04:AMPARAMS|DCode=49|XSize=0.4mm|YSize=0.85mm|CornerRadius=0.04mm|HoleSize=0mm|Usage=FLASHONLY|Rotation=0.000|XOffset=0mm|YOffset=0mm|HoleType=Round|Shape=RoundedRectangle|*
%AMROUNDEDRECTD49*
21,1,0.4000,0.7700,0,0,0.0*
21,1,0.3200,0.8500,0,0,0.0*
1,1,0.0800,0.1600,-0.3850*
1,1,0.0800,-0.1600,-0.3850*
1,1,0.0800,-0.1600,0.3850*
1,1,0.0800,0.1600,0.3850*
%
%ADD49ROUNDEDRECTD49*%
G04:AMPARAMS|DCode=50|XSize=0.45mm|YSize=1.05mm|CornerRadius=0.045mm|HoleSize=0mm|Usage=FLASHONLY|Rotation=270.000|XOffset=0mm|YOffset=0mm|HoleType=Round|Shape=RoundedRectangle|*
%AMROUNDEDRECTD50*
21,1,0.4500,0.9600,0,0,270.0*
21,1,0.3600,1.0500,0,0,270.0*
1,1,0.0900,-0.4800,-0.1800*
1,1,0.0900,-0.4800,0.1800*
1,1,0.0900,0.4800,0.1800*
1,1,0.0900,0.4800,-0.1800*
%
%ADD50ROUNDEDRECTD50*%
G04:AMPARAMS|DCode=51|XSize=1.55mm|YSize=1mm|CornerRadius=0.125mm|HoleSize=0mm|Usage=FLASHONLY|Rotation=180.000|XOffset=0mm|YOffset=0mm|HoleType=Round|Shape=RoundedRectangle|*
%AMROUNDEDRECTD51*
21,1,1.5500,0.7500,0,0,180.0*
21,1,1.3000,1.0000,0,0,180.0*
1,1,0.2500,-0.6500,0.3750*
1,1,0.2500,0.6500,0.3750*
1,1,0.2500,0.6500,-0.3750*
1,1,0.2500,-0.6500,-0.3750*
%
%ADD51ROUNDEDRECTD51*%
G04:AMPARAMS|DCode=52|XSize=1mm|YSize=1mm|CornerRadius=0.1mm|HoleSize=0mm|Usage=FLASHONLY|Rotation=90.000|XOffset=0mm|YOffset=0mm|HoleType=Round|Shape=RoundedRectangle|*
%AMROUNDEDRECTD52*
21,1,1.0000,0.8000,0,0,90.0*
21,1,0.8000,1.0000,0,0,90.0*
1,1,0.2000,0.4000,0.4000*
1,1,0.2000,0.4000,-0.4000*
1,1,0.2000,-0.4000,-0.4000*
1,1,0.2000,-0.4000,0.4000*
%
%ADD52ROUNDEDRECTD52*%
G04:AMPARAMS|DCode=53|XSize=0.5mm|YSize=1mm|CornerRadius=0.05mm|HoleSize=0mm|Usage=FLASHONLY|Rotation=0.000|XOffset=0mm|YOffset=0mm|HoleType=Round|Shape=RoundedRectangle|*
%AMROUNDEDRECTD53*
21,1,0.5000,0.9000,0,0,0.0*
21,1,0.4000,1.0000,0,0,0.0*
1,1,0.1000,0.2000,-0.4500*
1,1,0.1000,-0.2000,-0.4500*
1,1,0.1000,-0.2000,0.4500*
1,1,0.1000,0.2000,0.4500*
%
%ADD53ROUNDEDRECTD53*%
G04:AMPARAMS|DCode=54|XSize=0.55mm|YSize=0.8mm|CornerRadius=0.055mm|HoleSize=0mm|Usage=FLASHONLY|Rotation=180.000|XOffset=0mm|YOffset=0mm|HoleType=Round|Shape=RoundedRectangle|*
%AMROUNDEDRECTD54*
21,1,0.5500,0.6900,0,0,180.0*
21,1,0.4400,0.8000,0,0,180.0*
1,1,0.1100,-0.2200,0.3450*
1,1,0.1100,0.2200,0.3450*
1,1,0.1100,0.2200,-0.3450*
1,1,0.1100,-0.2200,-0.3450*
%
%ADD54ROUNDEDRECTD54*%
G04:AMPARAMS|DCode=55|XSize=0.55mm|YSize=1mm|CornerRadius=0.055mm|HoleSize=0mm|Usage=FLASHONLY|Rotation=180.000|XOffset=0mm|YOffset=0mm|HoleType=Round|Shape=RoundedRectangle|*
%AMROUNDEDRECTD55*
21,1,0.5500,0.8900,0,0,180.0*
21,1,0.4400,1.0000,0,0,180.0*
1,1,0.1100,-0.2200,0.4450*
1,1,0.1100,0.2200,0.4450*
1,1,0.1100,0.2200,-0.4450*
1,1,0.1100,-0.2200,-0.4450*
%
%ADD55ROUNDEDRECTD55*%
G04:AMPARAMS|DCode=56|XSize=1.4mm|YSize=1.2mm|CornerRadius=0.12mm|HoleSize=0mm|Usage=FLASHONLY|Rotation=0.000|XOffset=0mm|YOffset=0mm|HoleType=Round|Shape=RoundedRectangle|*
%AMROUNDEDRECTD56*
21,1,1.4000,0.9600,0,0,0.0*
21,1,1.1600,1.2000,0,0,0.0*
1,1,0.2400,0.5800,-0.4800*
1,1,0.2400,-0.5800,-0.4800*
1,1,0.2400,-0.5800,0.4800*
1,1,0.2400,0.5800,0.4800*
%
%ADD56ROUNDEDRECTD56*%
G04:AMPARAMS|DCode=57|XSize=0.62mm|YSize=0.6mm|CornerRadius=0.06mm|HoleSize=0mm|Usage=FLASHONLY|Rotation=90.000|XOffset=0mm|YOffset=0mm|HoleType=Round|Shape=RoundedRectangle|*
%AMROUNDEDRECTD57*
21,1,0.6200,0.4800,0,0,90.0*
21,1,0.5000,0.6000,0,0,90.0*
1,1,0.1200,0.2400,0.2500*
1,1,0.1200,0.2400,-0.2500*
1,1,0.1200,-0.2400,-0.2500*
1,1,0.1200,-0.2400,0.2500*
%
%ADD57ROUNDEDRECTD57*%
G04:AMPARAMS|DCode=58|XSize=0.85mm|YSize=1.2mm|CornerRadius=0.085mm|HoleSize=0mm|Usage=FLASHONLY|Rotation=270.000|XOffset=0mm|YOffset=0mm|HoleType=Round|Shape=RoundedRectangle|*
%AMROUNDEDRECTD58*
21,1,0.8500,1.0300,0,0,270.0*
21,1,0.6800,1.2000,0,0,270.0*
1,1,0.1700,-0.5150,-0.3400*
1,1,0.1700,-0.5150,0.3400*
1,1,0.1700,0.5150,0.3400*
1,1,0.1700,0.5150,-0.3400*
%
%ADD58ROUNDEDRECTD58*%
G04:AMPARAMS|DCode=59|XSize=0.55mm|YSize=1mm|CornerRadius=0.055mm|HoleSize=0mm|Usage=FLASHONLY|Rotation=90.000|XOffset=0mm|YOffset=0mm|HoleType=Round|Shape=RoundedRectangle|*
%AMROUNDEDRECTD59*
21,1,0.5500,0.8900,0,0,90.0*
21,1,0.4400,1.0000,0,0,90.0*
1,1,0.1100,0.4450,0.2200*
1,1,0.1100,0.4450,-0.2200*
1,1,0.1100,-0.4450,-0.2200*
1,1,0.1100,-0.4450,0.2200*
%
%ADD59ROUNDEDRECTD59*%
G04:AMPARAMS|DCode=60|XSize=0.85mm|YSize=1.2mm|CornerRadius=0.085mm|HoleSize=0mm|Usage=FLASHONLY|Rotation=180.000|XOffset=0mm|YOffset=0mm|HoleType=Round|Shape=RoundedRectangle|*
%AMROUNDEDRECTD60*
21,1,0.8500,1.0300,0,0,180.0*
21,1,0.6800,1.2000,0,0,180.0*
1,1,0.1700,-0.3400,0.5150*
1,1,0.1700,0.3400,0.5150*
1,1,0.1700,0.3400,-0.5150*
1,1,0.1700,-0.3400,-0.5150*
%
%ADD60ROUNDEDRECTD60*%
G04:AMPARAMS|DCode=61|XSize=0.8mm|YSize=0.8mm|CornerRadius=0.08mm|HoleSize=0mm|Usage=FLASHONLY|Rotation=90.000|XOffset=0mm|YOffset=0mm|HoleType=Round|Shape=RoundedRectangle|*
%AMROUNDEDRECTD61*
21,1,0.8000,0.6400,0,0,90.0*
21,1,0.6400,0.8000,0,0,90.0*
1,1,0.1600,0.3200,0.3200*
1,1,0.1600,0.3200,-0.3200*
1,1,0.1600,-0.3200,-0.3200*
1,1,0.1600,-0.3200,0.3200*
%
%ADD61ROUNDEDRECTD61*%
G04:AMPARAMS|DCode=62|XSize=1mm|YSize=1.9mm|CornerRadius=0.1mm|HoleSize=0mm|Usage=FLASHONLY|Rotation=180.000|XOffset=0mm|YOffset=0mm|HoleType=Round|Shape=RoundedRectangle|*
%AMROUNDEDRECTD62*
21,1,1.0000,1.7000,0,0,180.0*
21,1,0.8000,1.9000,0,0,180.0*
1,1,0.2000,-0.4000,0.8500*
1,1,0.2000,0.4000,0.8500*
1,1,0.2000,0.4000,-0.8500*
1,1,0.2000,-0.4000,-0.8500*
%
%ADD62ROUNDEDRECTD62*%
G04:AMPARAMS|DCode=63|XSize=0.85mm|YSize=0.85mm|CornerRadius=0.085mm|HoleSize=0mm|Usage=FLASHONLY|Rotation=180.000|XOffset=0mm|YOffset=0mm|HoleType=Round|Shape=RoundedRectangle|*
%AMROUNDEDRECTD63*
21,1,0.8500,0.6800,0,0,180.0*
21,1,0.6800,0.8500,0,0,180.0*
1,1,0.1700,-0.3400,0.3400*
1,1,0.1700,0.3400,0.3400*
1,1,0.1700,0.3400,-0.3400*
1,1,0.1700,-0.3400,-0.3400*
%
%ADD63ROUNDEDRECTD63*%
G04:AMPARAMS|DCode=64|XSize=0.8mm|YSize=0.8mm|CornerRadius=0.08mm|HoleSize=0mm|Usage=FLASHONLY|Rotation=180.000|XOffset=0mm|YOffset=0mm|HoleType=Round|Shape=RoundedRectangle|*
%AMROUNDEDRECTD64*
21,1,0.8000,0.6400,0,0,180.0*
21,1,0.6400,0.8000,0,0,180.0*
1,1,0.1600,-0.3200,0.3200*
1,1,0.1600,0.3200,0.3200*
1,1,0.1600,0.3200,-0.3200*
1,1,0.1600,-0.3200,-0.3200*
%
%ADD64ROUNDEDRECTD64*%
G04:AMPARAMS|DCode=65|XSize=1mm|YSize=1mm|CornerRadius=0.1mm|HoleSize=0mm|Usage=FLASHONLY|Rotation=0.000|XOffset=0mm|YOffset=0mm|HoleType=Round|Shape=RoundedRectangle|*
%AMROUNDEDRECTD65*
21,1,1.0000,0.8000,0,0,0.0*
21,1,0.8000,1.0000,0,0,0.0*
1,1,0.2000,0.4000,-0.4000*
1,1,0.2000,-0.4000,-0.4000*
1,1,0.2000,-0.4000,0.4000*
1,1,0.2000,0.4000,0.4000*
%
%ADD65ROUNDEDRECTD65*%
G04:AMPARAMS|DCode=66|XSize=1.5mm|YSize=1.4mm|CornerRadius=0.14mm|HoleSize=0mm|Usage=FLASHONLY|Rotation=270.000|XOffset=0mm|YOffset=0mm|HoleType=Round|Shape=RoundedRectangle|*
%AMROUNDEDRECTD66*
21,1,1.5000,1.1200,0,0,270.0*
21,1,1.2200,1.4000,0,0,270.0*
1,1,0.2800,-0.5600,-0.6100*
1,1,0.2800,-0.5600,0.6100*
1,1,0.2800,0.5600,0.6100*
1,1,0.2800,0.5600,-0.6100*
%
%ADD66ROUNDEDRECTD66*%
G04:AMPARAMS|DCode=67|XSize=1.1mm|YSize=3.7mm|CornerRadius=0.11mm|HoleSize=0mm|Usage=FLASHONLY|Rotation=180.000|XOffset=0mm|YOffset=0mm|HoleType=Round|Shape=RoundedRectangle|*
%AMROUNDEDRECTD67*
21,1,1.1000,3.4800,0,0,180.0*
21,1,0.8800,3.7000,0,0,180.0*
1,1,0.2200,-0.4400,1.7400*
1,1,0.2200,0.4400,1.7400*
1,1,0.2200,0.4400,-1.7400*
1,1,0.2200,-0.4400,-1.7400*
%
%ADD67ROUNDEDRECTD67*%
G04:AMPARAMS|DCode=68|XSize=0.63mm|YSize=0.83mm|CornerRadius=0.063mm|HoleSize=0mm|Usage=FLASHONLY|Rotation=270.000|XOffset=0mm|YOffset=0mm|HoleType=Round|Shape=RoundedRectangle|*
%AMROUNDEDRECTD68*
21,1,0.6300,0.7040,0,0,270.0*
21,1,0.5040,0.8300,0,0,270.0*
1,1,0.1260,-0.3520,-0.2520*
1,1,0.1260,-0.3520,0.2520*
1,1,0.1260,0.3520,0.2520*
1,1,0.1260,0.3520,-0.2520*
%
%ADD68ROUNDEDRECTD68*%
G04:AMPARAMS|DCode=69|XSize=0.98mm|YSize=0.92mm|CornerRadius=0.092mm|HoleSize=0mm|Usage=FLASHONLY|Rotation=90.000|XOffset=0mm|YOffset=0mm|HoleType=Round|Shape=RoundedRectangle|*
%AMROUNDEDRECTD69*
21,1,0.9800,0.7360,0,0,90.0*
21,1,0.7960,0.9200,0,0,90.0*
1,1,0.1840,0.3680,0.3980*
1,1,0.1840,0.3680,-0.3980*
1,1,0.1840,-0.3680,-0.3980*
1,1,0.1840,-0.3680,0.3980*
%
%ADD69ROUNDEDRECTD69*%
G36*
X338937Y409942D02*
X339211Y409829D01*
X339456Y409665D01*
X339665Y409456D01*
X339829Y409211D01*
X339942Y408937D01*
X340000Y408648D01*
Y408500D01*
Y391500D01*
Y391352D01*
X339942Y391062D01*
X339829Y390789D01*
X339665Y390544D01*
X339456Y390335D01*
X339211Y390171D01*
X338937Y390058D01*
X338648Y390000D01*
X321352D01*
X321063Y390058D01*
X320789Y390171D01*
X320544Y390335D01*
X320335Y390544D01*
X320171Y390789D01*
X320058Y391062D01*
X320000Y391352D01*
Y391500D01*
Y408500D01*
Y408648D01*
X320058Y408937D01*
X320171Y409211D01*
X320335Y409456D01*
X320544Y409665D01*
X320789Y409829D01*
X321063Y409942D01*
X321352Y410000D01*
X338648D01*
X338937Y409942D01*
D02*
G37*
G36*
X135000Y146000D02*
X135199D01*
X135566Y145848D01*
X135848Y145566D01*
X136000Y145199D01*
X136000Y145000D01*
X136000Y145000D01*
X136000Y139500D01*
X136000Y139301D01*
X135848Y138934D01*
X135566Y138652D01*
X135199Y138500D01*
X135000Y138500D01*
X129500D01*
X129301Y138500D01*
X128933Y138652D01*
X128652Y138933D01*
X128500Y139301D01*
X128500Y139500D01*
X128500Y139500D01*
Y145000D01*
Y145199D01*
X128652Y145567D01*
X128933Y145848D01*
X129301Y146000D01*
X129500D01*
X135000Y146000D01*
D02*
G37*
G36*
X125500D02*
X125699D01*
X126066Y145848D01*
X126348Y145566D01*
X126500Y145199D01*
X126500Y145000D01*
X126500Y145000D01*
X126500Y139500D01*
X126500Y139301D01*
X126348Y138934D01*
X126066Y138652D01*
X125699Y138500D01*
X125500Y138500D01*
X120000D01*
X119801Y138500D01*
X119433Y138652D01*
X119152Y138933D01*
X119000Y139301D01*
X119000Y139500D01*
X119000Y139500D01*
Y145000D01*
Y145199D01*
X119152Y145567D01*
X119433Y145848D01*
X119801Y146000D01*
X120000D01*
X125500Y146000D01*
D02*
G37*
G36*
X135000Y136500D02*
X135199D01*
X135566Y136348D01*
X135848Y136066D01*
X136000Y135699D01*
X136000Y135500D01*
X136000Y135500D01*
X136000Y130000D01*
X136000Y129801D01*
X135848Y129433D01*
X135566Y129152D01*
X135199Y129000D01*
X135000Y129000D01*
X129500D01*
X129301Y129000D01*
X128933Y129152D01*
X128652Y129433D01*
X128500Y129801D01*
X128500Y130000D01*
X128500Y130000D01*
Y135500D01*
Y135699D01*
X128652Y136067D01*
X128933Y136348D01*
X129301Y136500D01*
X129500D01*
X135000Y136500D01*
D02*
G37*
G36*
X125500D02*
X125699D01*
X126066Y136348D01*
X126348Y136066D01*
X126500Y135699D01*
X126500Y135500D01*
X126500Y135500D01*
X126500Y130000D01*
X126500Y129801D01*
X126348Y129433D01*
X126066Y129152D01*
X125699Y129000D01*
X125500Y129000D01*
X120000D01*
X119801Y129000D01*
X119433Y129152D01*
X119152Y129433D01*
X119000Y129801D01*
X119000Y130000D01*
X119000Y130000D01*
Y135500D01*
Y135699D01*
X119152Y136067D01*
X119433Y136348D01*
X119801Y136500D01*
X120000D01*
X125500Y136500D01*
D02*
G37*
G36*
X250317Y100348D02*
X250598Y100066D01*
X250750Y99699D01*
X250750Y99500D01*
X250750Y99500D01*
X250750Y89000D01*
X250750Y88801D01*
X250598Y88434D01*
X250316Y88152D01*
X249949Y88000D01*
X249750D01*
X239250Y88000D01*
X239051D01*
X238684Y88152D01*
X238402Y88434D01*
X238250Y88801D01*
Y89000D01*
Y89000D01*
X238250Y99481D01*
X238246Y99683D01*
X238395Y100057D01*
X238677Y100344D01*
X239049Y100500D01*
X239250Y100500D01*
Y100500D01*
X249750Y100500D01*
X249949Y100500D01*
X250317Y100348D01*
D02*
G37*
G36*
X235317Y100348D02*
X235598Y100066D01*
X235750Y99699D01*
X235750Y99500D01*
X235750Y99500D01*
X235750Y89000D01*
X235750Y88801D01*
X235598Y88434D01*
X235316Y88152D01*
X234949Y88000D01*
X234750D01*
X224250Y88000D01*
X224051D01*
X223684Y88152D01*
X223402Y88434D01*
X223250Y88801D01*
Y89000D01*
Y89000D01*
X223250Y99481D01*
X223246Y99683D01*
X223395Y100057D01*
X223677Y100344D01*
X224049Y100500D01*
X224250Y100500D01*
Y100500D01*
X234750Y100500D01*
X234949Y100500D01*
X235317Y100348D01*
D02*
G37*
G36*
X164080Y89240D02*
X164100D01*
X164130Y89230D01*
X164150D01*
X164180Y89220D01*
X164200Y89210D01*
X164230Y89200D01*
X164250Y89180D01*
X164270Y89170D01*
X164290Y89150D01*
X164310Y89140D01*
X164330Y89120D01*
X164350Y89100D01*
X164370Y89080D01*
X164390Y89060D01*
X164400Y89040D01*
X164420Y89020D01*
X164430Y89000D01*
X164450Y88980D01*
X164460Y88950D01*
X164470Y88930D01*
X164480Y88900D01*
Y88880D01*
X164490Y88850D01*
Y88830D01*
X164500Y88800D01*
Y88780D01*
Y88750D01*
Y86750D01*
Y86720D01*
Y86700D01*
X164490Y86670D01*
Y86650D01*
X164480Y86620D01*
Y86600D01*
X164470Y86570D01*
X164460Y86550D01*
X164450Y86520D01*
X164430Y86500D01*
X164420Y86480D01*
X164400Y86460D01*
X164390Y86440D01*
X164370Y86420D01*
X164350Y86400D01*
X164330Y86380D01*
X164310Y86360D01*
X164290Y86350D01*
X164270Y86330D01*
X164250Y86320D01*
X164230Y86300D01*
X164200Y86290D01*
X164180Y86280D01*
X164150Y86270D01*
X164130D01*
X164100Y86260D01*
X164080D01*
X164050Y86250D01*
X158950D01*
X158920Y86260D01*
X158900D01*
X158870Y86270D01*
X158850D01*
X158820Y86280D01*
X158800Y86290D01*
X158770Y86300D01*
X158750Y86320D01*
X158730Y86330D01*
X158710Y86350D01*
X158690Y86360D01*
X158670Y86380D01*
X158650Y86400D01*
X158630Y86420D01*
X158610Y86440D01*
X158600Y86460D01*
X158580Y86480D01*
X158570Y86500D01*
X158550Y86520D01*
X158540Y86550D01*
X158530Y86570D01*
X158520Y86600D01*
Y86620D01*
X158510Y86650D01*
Y86670D01*
X158500Y86700D01*
Y86720D01*
Y86750D01*
Y88750D01*
Y88780D01*
Y88800D01*
X158510Y88830D01*
Y88850D01*
X158520Y88880D01*
Y88900D01*
X158530Y88930D01*
X158540Y88950D01*
X158550Y88980D01*
X158570Y89000D01*
X158580Y89020D01*
X158600Y89040D01*
X158610Y89060D01*
X158630Y89080D01*
X158650Y89100D01*
X158670Y89120D01*
X158690Y89140D01*
X158710Y89150D01*
X158730Y89170D01*
X158750Y89180D01*
X158770Y89200D01*
X158800Y89210D01*
X158820Y89220D01*
X158850Y89230D01*
X158870D01*
X158900Y89240D01*
X158920D01*
X158950Y89250D01*
X164050D01*
X164080Y89240D01*
D02*
G37*
G36*
X133080D02*
X133100D01*
X133130Y89230D01*
X133150D01*
X133180Y89220D01*
X133200Y89210D01*
X133230Y89200D01*
X133250Y89180D01*
X133270Y89170D01*
X133290Y89150D01*
X133310Y89140D01*
X133330Y89120D01*
X133350Y89100D01*
X133370Y89080D01*
X133390Y89060D01*
X133400Y89040D01*
X133420Y89020D01*
X133430Y89000D01*
X133450Y88980D01*
X133460Y88950D01*
X133470Y88930D01*
X133480Y88900D01*
Y88880D01*
X133490Y88850D01*
Y88830D01*
X133500Y88800D01*
Y88780D01*
Y88750D01*
Y86750D01*
Y86720D01*
Y86700D01*
X133490Y86670D01*
Y86650D01*
X133480Y86620D01*
Y86600D01*
X133470Y86570D01*
X133460Y86550D01*
X133450Y86520D01*
X133430Y86500D01*
X133420Y86480D01*
X133400Y86460D01*
X133390Y86440D01*
X133370Y86420D01*
X133350Y86400D01*
X133330Y86380D01*
X133310Y86360D01*
X133290Y86350D01*
X133270Y86330D01*
X133250Y86320D01*
X133230Y86300D01*
X133200Y86290D01*
X133180Y86280D01*
X133150Y86270D01*
X133130D01*
X133100Y86260D01*
X133080D01*
X133050Y86250D01*
X127950D01*
X127920Y86260D01*
X127900D01*
X127870Y86270D01*
X127850D01*
X127820Y86280D01*
X127800Y86290D01*
X127770Y86300D01*
X127750Y86320D01*
X127730Y86330D01*
X127710Y86350D01*
X127690Y86360D01*
X127670Y86380D01*
X127650Y86400D01*
X127630Y86420D01*
X127610Y86440D01*
X127600Y86460D01*
X127580Y86480D01*
X127570Y86500D01*
X127550Y86520D01*
X127540Y86550D01*
X127530Y86570D01*
X127520Y86600D01*
Y86620D01*
X127510Y86650D01*
Y86670D01*
X127500Y86700D01*
Y86720D01*
Y86750D01*
Y88750D01*
Y88780D01*
Y88800D01*
X127510Y88830D01*
Y88850D01*
X127520Y88880D01*
Y88900D01*
X127530Y88930D01*
X127540Y88950D01*
X127550Y88980D01*
X127570Y89000D01*
X127580Y89020D01*
X127600Y89040D01*
X127610Y89060D01*
X127630Y89080D01*
X127650Y89100D01*
X127670Y89120D01*
X127690Y89140D01*
X127710Y89150D01*
X127730Y89170D01*
X127750Y89180D01*
X127770Y89200D01*
X127800Y89210D01*
X127820Y89220D01*
X127850Y89230D01*
X127870D01*
X127900Y89240D01*
X127920D01*
X127950Y89250D01*
X133050D01*
X133080Y89240D01*
D02*
G37*
G36*
X250317Y85348D02*
X250598Y85066D01*
X250750Y84699D01*
X250750Y84500D01*
X250750Y84500D01*
X250750Y74000D01*
X250750Y73801D01*
X250598Y73433D01*
X250316Y73152D01*
X249949Y73000D01*
X249750D01*
X239250Y73000D01*
X239051D01*
X238684Y73152D01*
X238402Y73433D01*
X238250Y73801D01*
Y74000D01*
Y74000D01*
X238250Y84481D01*
X238246Y84683D01*
X238395Y85057D01*
X238677Y85344D01*
X239049Y85500D01*
X239250Y85500D01*
Y85500D01*
X249750Y85500D01*
X249949Y85500D01*
X250317Y85348D01*
D02*
G37*
G36*
X235317D02*
X235598Y85066D01*
X235750Y84699D01*
X235750Y84500D01*
X235750Y84500D01*
X235750Y74000D01*
X235750Y73801D01*
X235598Y73433D01*
X235316Y73152D01*
X234949Y73000D01*
X234750D01*
X224250Y73000D01*
X224051D01*
X223684Y73152D01*
X223402Y73433D01*
X223250Y73801D01*
Y74000D01*
Y74000D01*
X223250Y84481D01*
X223246Y84683D01*
X223395Y85057D01*
X223677Y85344D01*
X224049Y85500D01*
X224250Y85500D01*
Y85500D01*
X234750Y85500D01*
X234949Y85500D01*
X235317Y85348D01*
D02*
G37*
G36*
X164080Y82740D02*
X164100D01*
X164130Y82730D01*
X164150D01*
X164180Y82720D01*
X164200Y82710D01*
X164230Y82700D01*
X164250Y82680D01*
X164270Y82670D01*
X164290Y82650D01*
X164310Y82640D01*
X164330Y82620D01*
X164350Y82600D01*
X164370Y82580D01*
X164390Y82560D01*
X164400Y82540D01*
X164420Y82520D01*
X164430Y82500D01*
X164450Y82480D01*
X164460Y82450D01*
X164470Y82430D01*
X164480Y82400D01*
Y82380D01*
X164490Y82350D01*
Y82330D01*
X164500Y82300D01*
Y82280D01*
Y82250D01*
Y80250D01*
Y80220D01*
Y80200D01*
X164490Y80170D01*
Y80150D01*
X164480Y80120D01*
Y80100D01*
X164470Y80070D01*
X164460Y80050D01*
X164450Y80020D01*
X164430Y80000D01*
X164420Y79980D01*
X164400Y79960D01*
X164390Y79940D01*
X164370Y79920D01*
X164350Y79900D01*
X164330Y79880D01*
X164310Y79860D01*
X164290Y79850D01*
X164270Y79830D01*
X164250Y79820D01*
X164230Y79800D01*
X164200Y79790D01*
X164180Y79780D01*
X164150Y79770D01*
X164130D01*
X164100Y79760D01*
X164080D01*
X164050Y79750D01*
X158950D01*
X158920Y79760D01*
X158900D01*
X158870Y79770D01*
X158850D01*
X158820Y79780D01*
X158800Y79790D01*
X158770Y79800D01*
X158750Y79820D01*
X158730Y79830D01*
X158710Y79850D01*
X158690Y79860D01*
X158670Y79880D01*
X158650Y79900D01*
X158630Y79920D01*
X158610Y79940D01*
X158600Y79960D01*
X158580Y79980D01*
X158570Y80000D01*
X158550Y80020D01*
X158540Y80050D01*
X158530Y80070D01*
X158520Y80100D01*
Y80120D01*
X158510Y80150D01*
Y80170D01*
X158500Y80200D01*
Y80220D01*
Y80250D01*
Y82250D01*
Y82280D01*
Y82300D01*
X158510Y82330D01*
Y82350D01*
X158520Y82380D01*
Y82400D01*
X158530Y82430D01*
X158540Y82450D01*
X158550Y82480D01*
X158570Y82500D01*
X158580Y82520D01*
X158600Y82540D01*
X158610Y82560D01*
X158630Y82580D01*
X158650Y82600D01*
X158670Y82620D01*
X158690Y82640D01*
X158710Y82650D01*
X158730Y82670D01*
X158750Y82680D01*
X158770Y82700D01*
X158800Y82710D01*
X158820Y82720D01*
X158850Y82730D01*
X158870D01*
X158900Y82740D01*
X158920D01*
X158950Y82750D01*
X164050D01*
X164080Y82740D01*
D02*
G37*
G36*
X133080D02*
X133100D01*
X133130Y82730D01*
X133150D01*
X133180Y82720D01*
X133200Y82710D01*
X133230Y82700D01*
X133250Y82680D01*
X133270Y82670D01*
X133290Y82650D01*
X133310Y82640D01*
X133330Y82620D01*
X133350Y82600D01*
X133370Y82580D01*
X133390Y82560D01*
X133400Y82540D01*
X133420Y82520D01*
X133430Y82500D01*
X133450Y82480D01*
X133460Y82450D01*
X133470Y82430D01*
X133480Y82400D01*
Y82380D01*
X133490Y82350D01*
Y82330D01*
X133500Y82300D01*
Y82280D01*
Y82250D01*
Y80250D01*
Y80220D01*
Y80200D01*
X133490Y80170D01*
Y80150D01*
X133480Y80120D01*
Y80100D01*
X133470Y80070D01*
X133460Y80050D01*
X133450Y80020D01*
X133430Y80000D01*
X133420Y79980D01*
X133400Y79960D01*
X133390Y79940D01*
X133370Y79920D01*
X133350Y79900D01*
X133330Y79880D01*
X133310Y79860D01*
X133290Y79850D01*
X133270Y79830D01*
X133250Y79820D01*
X133230Y79800D01*
X133200Y79790D01*
X133180Y79780D01*
X133150Y79770D01*
X133130D01*
X133100Y79760D01*
X133080D01*
X133050Y79750D01*
X127950D01*
X127920Y79760D01*
X127900D01*
X127870Y79770D01*
X127850D01*
X127820Y79780D01*
X127800Y79790D01*
X127770Y79800D01*
X127750Y79820D01*
X127730Y79830D01*
X127710Y79850D01*
X127690Y79860D01*
X127670Y79880D01*
X127650Y79900D01*
X127630Y79920D01*
X127610Y79940D01*
X127600Y79960D01*
X127580Y79980D01*
X127570Y80000D01*
X127550Y80020D01*
X127540Y80050D01*
X127530Y80070D01*
X127520Y80100D01*
Y80120D01*
X127510Y80150D01*
Y80170D01*
X127500Y80200D01*
Y80220D01*
Y80250D01*
Y82250D01*
Y82280D01*
Y82300D01*
X127510Y82330D01*
Y82350D01*
X127520Y82380D01*
Y82400D01*
X127530Y82430D01*
X127540Y82450D01*
X127550Y82480D01*
X127570Y82500D01*
X127580Y82520D01*
X127600Y82540D01*
X127610Y82560D01*
X127630Y82580D01*
X127650Y82600D01*
X127670Y82620D01*
X127690Y82640D01*
X127710Y82650D01*
X127730Y82670D01*
X127750Y82680D01*
X127770Y82700D01*
X127800Y82710D01*
X127820Y82720D01*
X127850Y82730D01*
X127870D01*
X127900Y82740D01*
X127920D01*
X127950Y82750D01*
X133050D01*
X133080Y82740D01*
D02*
G37*
G36*
X151180Y90240D02*
X151210D01*
X151230Y90230D01*
X151260D01*
X151280Y90220D01*
X151310Y90210D01*
X151330Y90200D01*
X151350Y90180D01*
X151380Y90170D01*
X151400Y90150D01*
X151420Y90140D01*
X151440Y90120D01*
X151460Y90100D01*
X151480Y90080D01*
X151490Y90060D01*
X151510Y90040D01*
X151520Y90020D01*
X151540Y90000D01*
X151550Y89980D01*
X151560Y89950D01*
X151570Y89930D01*
X151580Y89900D01*
X151590Y89880D01*
Y89850D01*
X151600Y89830D01*
Y89800D01*
Y89780D01*
Y89750D01*
Y79500D01*
Y79470D01*
Y79450D01*
Y79420D01*
X151590Y79400D01*
Y79370D01*
X151580Y79350D01*
X151570Y79320D01*
X151560Y79300D01*
X151550Y79270D01*
X151540Y79250D01*
X151520Y79230D01*
X151510Y79210D01*
X151490Y79190D01*
X151480Y79170D01*
X151460Y79150D01*
X151440Y79130D01*
X151420Y79110D01*
X151400Y79100D01*
X151380Y79080D01*
X151350Y79070D01*
X151330Y79050D01*
X151310Y79040D01*
X151280Y79030D01*
X151260Y79020D01*
X151230D01*
X151210Y79010D01*
X151180D01*
X151160Y79000D01*
X145000D01*
X144980Y79010D01*
X144950D01*
X144930Y79020D01*
X144900D01*
X144880Y79030D01*
X144850Y79040D01*
X144830Y79050D01*
X144800Y79070D01*
X144780Y79080D01*
X144760Y79100D01*
X144740Y79110D01*
X144720Y79130D01*
X144700Y79150D01*
X144680Y79170D01*
X144670Y79190D01*
X144650Y79210D01*
X144640Y79230D01*
X144620Y79250D01*
X144610Y79270D01*
X144600Y79300D01*
X144590Y79320D01*
X144580Y79350D01*
X144570Y79370D01*
Y79400D01*
X144560Y79420D01*
Y79450D01*
Y79470D01*
Y79500D01*
Y89750D01*
Y89780D01*
Y89800D01*
Y89830D01*
X144570Y89850D01*
Y89880D01*
X144580Y89900D01*
X144590Y89930D01*
X144600Y89950D01*
X144610Y89980D01*
X144620Y90000D01*
X144640Y90020D01*
X144650Y90040D01*
X144670Y90060D01*
X144680Y90080D01*
X144700Y90100D01*
X144720Y90120D01*
X144740Y90140D01*
X144760Y90150D01*
X144780Y90170D01*
X144810Y90180D01*
X144830Y90200D01*
X144850Y90210D01*
X144880Y90220D01*
X144900Y90230D01*
X144930D01*
X144950Y90240D01*
X144980D01*
X145000Y90250D01*
X151160D01*
X151180Y90240D01*
D02*
G37*
G36*
X142130D02*
X142160D01*
X142180Y90230D01*
X142210D01*
X142230Y90220D01*
X142260Y90210D01*
X142280Y90200D01*
X142310Y90180D01*
X142330Y90170D01*
X142350Y90150D01*
X142370Y90140D01*
X142390Y90120D01*
X142410Y90100D01*
X142430Y90080D01*
X142440Y90060D01*
X142460Y90040D01*
X142470Y90020D01*
X142490Y90000D01*
X142500Y89980D01*
X142510Y89950D01*
X142520Y89930D01*
X142530Y89900D01*
X142540Y89880D01*
Y89850D01*
X142550Y89830D01*
Y89800D01*
Y89780D01*
X142560Y89750D01*
Y79500D01*
X142550Y79470D01*
Y79450D01*
Y79420D01*
X142540Y79400D01*
Y79370D01*
X142530Y79350D01*
X142520Y79320D01*
X142510Y79300D01*
X142500Y79270D01*
X142490Y79250D01*
X142470Y79230D01*
X142460Y79210D01*
X142440Y79190D01*
X142430Y79170D01*
X142410Y79150D01*
X142390Y79130D01*
X142370Y79110D01*
X142350Y79100D01*
X142330Y79080D01*
X142310Y79070D01*
X142280Y79050D01*
X142260Y79040D01*
X142230Y79030D01*
X142210Y79020D01*
X142180D01*
X142160Y79010D01*
X142130D01*
X142110Y79000D01*
X135950D01*
X135930Y79010D01*
X135900D01*
X135880Y79020D01*
X135850D01*
X135830Y79030D01*
X135800Y79040D01*
X135780Y79050D01*
X135750Y79070D01*
X135730Y79080D01*
X135710Y79100D01*
X135690Y79110D01*
X135670Y79130D01*
X135650Y79150D01*
X135630Y79170D01*
X135620Y79190D01*
X135600Y79210D01*
X135590Y79230D01*
X135570Y79250D01*
X135560Y79270D01*
X135550Y79300D01*
X135540Y79320D01*
X135530Y79350D01*
X135520Y79370D01*
Y79400D01*
X135510Y79420D01*
Y79450D01*
Y79470D01*
X135500Y79500D01*
Y89750D01*
X135510Y89780D01*
Y89800D01*
Y89830D01*
X135520Y89850D01*
Y89880D01*
X135530Y89900D01*
X135540Y89930D01*
X135550Y89950D01*
X135560Y89980D01*
X135570Y90000D01*
X135590Y90020D01*
X135600Y90040D01*
X135620Y90060D01*
X135630Y90080D01*
X135650Y90100D01*
X135670Y90120D01*
X135690Y90140D01*
X135710Y90150D01*
X135730Y90170D01*
X135750Y90180D01*
X135780Y90200D01*
X135800Y90210D01*
X135830Y90220D01*
X135850Y90230D01*
X135880D01*
X135900Y90240D01*
X135930D01*
X135950Y90250D01*
X142110D01*
X142130Y90240D01*
D02*
G37*
G36*
X164080Y76240D02*
X164100D01*
X164130Y76230D01*
X164150D01*
X164180Y76220D01*
X164200Y76210D01*
X164230Y76200D01*
X164250Y76180D01*
X164270Y76170D01*
X164290Y76150D01*
X164310Y76140D01*
X164330Y76120D01*
X164350Y76100D01*
X164370Y76080D01*
X164390Y76060D01*
X164400Y76040D01*
X164420Y76020D01*
X164430Y76000D01*
X164450Y75980D01*
X164460Y75950D01*
X164470Y75930D01*
X164480Y75900D01*
Y75880D01*
X164490Y75850D01*
Y75830D01*
X164500Y75800D01*
Y75780D01*
Y75750D01*
Y73750D01*
Y73720D01*
Y73700D01*
X164490Y73670D01*
Y73650D01*
X164480Y73620D01*
Y73600D01*
X164470Y73570D01*
X164460Y73550D01*
X164450Y73520D01*
X164430Y73500D01*
X164420Y73480D01*
X164400Y73460D01*
X164390Y73440D01*
X164370Y73420D01*
X164350Y73400D01*
X164330Y73380D01*
X164310Y73360D01*
X164290Y73350D01*
X164270Y73330D01*
X164250Y73320D01*
X164230Y73300D01*
X164200Y73290D01*
X164180Y73280D01*
X164150Y73270D01*
X164130D01*
X164100Y73260D01*
X164080D01*
X164050Y73250D01*
X158950D01*
X158920Y73260D01*
X158900D01*
X158870Y73270D01*
X158850D01*
X158820Y73280D01*
X158800Y73290D01*
X158770Y73300D01*
X158750Y73320D01*
X158730Y73330D01*
X158710Y73350D01*
X158690Y73360D01*
X158670Y73380D01*
X158650Y73400D01*
X158630Y73420D01*
X158610Y73440D01*
X158600Y73460D01*
X158580Y73480D01*
X158570Y73500D01*
X158550Y73520D01*
X158540Y73550D01*
X158530Y73570D01*
X158520Y73600D01*
Y73620D01*
X158510Y73650D01*
Y73670D01*
X158500Y73700D01*
Y73720D01*
Y73750D01*
Y75750D01*
Y75780D01*
Y75800D01*
X158510Y75830D01*
Y75850D01*
X158520Y75880D01*
Y75900D01*
X158530Y75930D01*
X158540Y75950D01*
X158550Y75980D01*
X158570Y76000D01*
X158580Y76020D01*
X158600Y76040D01*
X158610Y76060D01*
X158630Y76080D01*
X158650Y76100D01*
X158670Y76120D01*
X158690Y76140D01*
X158710Y76150D01*
X158730Y76170D01*
X158750Y76180D01*
X158770Y76200D01*
X158800Y76210D01*
X158820Y76220D01*
X158850Y76230D01*
X158870D01*
X158900Y76240D01*
X158920D01*
X158950Y76250D01*
X164050D01*
X164080Y76240D01*
D02*
G37*
G36*
X133080D02*
X133100D01*
X133130Y76230D01*
X133150D01*
X133180Y76220D01*
X133200Y76210D01*
X133230Y76200D01*
X133250Y76180D01*
X133270Y76170D01*
X133290Y76150D01*
X133310Y76140D01*
X133330Y76120D01*
X133350Y76100D01*
X133370Y76080D01*
X133390Y76060D01*
X133400Y76040D01*
X133420Y76020D01*
X133430Y76000D01*
X133450Y75980D01*
X133460Y75950D01*
X133470Y75930D01*
X133480Y75900D01*
Y75880D01*
X133490Y75850D01*
Y75830D01*
X133500Y75800D01*
Y75780D01*
Y75750D01*
Y73750D01*
Y73720D01*
Y73700D01*
X133490Y73670D01*
Y73650D01*
X133480Y73620D01*
Y73600D01*
X133470Y73570D01*
X133460Y73550D01*
X133450Y73520D01*
X133430Y73500D01*
X133420Y73480D01*
X133400Y73460D01*
X133390Y73440D01*
X133370Y73420D01*
X133350Y73400D01*
X133330Y73380D01*
X133310Y73360D01*
X133290Y73350D01*
X133270Y73330D01*
X133250Y73320D01*
X133230Y73300D01*
X133200Y73290D01*
X133180Y73280D01*
X133150Y73270D01*
X133130D01*
X133100Y73260D01*
X133080D01*
X133050Y73250D01*
X127950D01*
X127920Y73260D01*
X127900D01*
X127870Y73270D01*
X127850D01*
X127820Y73280D01*
X127800Y73290D01*
X127770Y73300D01*
X127750Y73320D01*
X127730Y73330D01*
X127710Y73350D01*
X127690Y73360D01*
X127670Y73380D01*
X127650Y73400D01*
X127630Y73420D01*
X127610Y73440D01*
X127600Y73460D01*
X127580Y73480D01*
X127570Y73500D01*
X127550Y73520D01*
X127540Y73550D01*
X127530Y73570D01*
X127520Y73600D01*
Y73620D01*
X127510Y73650D01*
Y73670D01*
X127500Y73700D01*
Y73720D01*
Y73750D01*
Y75750D01*
Y75780D01*
Y75800D01*
X127510Y75830D01*
Y75850D01*
X127520Y75880D01*
Y75900D01*
X127530Y75930D01*
X127540Y75950D01*
X127550Y75980D01*
X127570Y76000D01*
X127580Y76020D01*
X127600Y76040D01*
X127610Y76060D01*
X127630Y76080D01*
X127650Y76100D01*
X127670Y76120D01*
X127690Y76140D01*
X127710Y76150D01*
X127730Y76170D01*
X127750Y76180D01*
X127770Y76200D01*
X127800Y76210D01*
X127820Y76220D01*
X127850Y76230D01*
X127870D01*
X127900Y76240D01*
X127920D01*
X127950Y76250D01*
X133050D01*
X133080Y76240D01*
D02*
G37*
G36*
X164080Y69740D02*
X164100D01*
X164130Y69730D01*
X164150D01*
X164180Y69720D01*
X164200Y69710D01*
X164230Y69700D01*
X164250Y69680D01*
X164270Y69670D01*
X164290Y69650D01*
X164310Y69640D01*
X164330Y69620D01*
X164350Y69600D01*
X164370Y69580D01*
X164390Y69560D01*
X164400Y69540D01*
X164420Y69520D01*
X164430Y69500D01*
X164450Y69480D01*
X164460Y69450D01*
X164470Y69430D01*
X164480Y69400D01*
Y69380D01*
X164490Y69350D01*
Y69330D01*
X164500Y69300D01*
Y69280D01*
Y69250D01*
Y67250D01*
Y67220D01*
Y67200D01*
X164490Y67170D01*
Y67150D01*
X164480Y67120D01*
Y67100D01*
X164470Y67070D01*
X164460Y67050D01*
X164450Y67020D01*
X164430Y67000D01*
X164420Y66980D01*
X164400Y66960D01*
X164390Y66940D01*
X164370Y66920D01*
X164350Y66900D01*
X164330Y66880D01*
X164310Y66860D01*
X164290Y66850D01*
X164270Y66830D01*
X164250Y66820D01*
X164230Y66800D01*
X164200Y66790D01*
X164180Y66780D01*
X164150Y66770D01*
X164130D01*
X164100Y66760D01*
X164080D01*
X164050Y66750D01*
X158950D01*
X158920Y66760D01*
X158900D01*
X158870Y66770D01*
X158850D01*
X158820Y66780D01*
X158800Y66790D01*
X158770Y66800D01*
X158750Y66820D01*
X158730Y66830D01*
X158710Y66850D01*
X158690Y66860D01*
X158670Y66880D01*
X158650Y66900D01*
X158630Y66920D01*
X158610Y66940D01*
X158600Y66960D01*
X158580Y66980D01*
X158570Y67000D01*
X158550Y67020D01*
X158540Y67050D01*
X158530Y67070D01*
X158520Y67100D01*
Y67120D01*
X158510Y67150D01*
Y67170D01*
X158500Y67200D01*
Y67220D01*
Y67250D01*
Y69250D01*
Y69280D01*
Y69300D01*
X158510Y69330D01*
Y69350D01*
X158520Y69380D01*
Y69400D01*
X158530Y69430D01*
X158540Y69450D01*
X158550Y69480D01*
X158570Y69500D01*
X158580Y69520D01*
X158600Y69540D01*
X158610Y69560D01*
X158630Y69580D01*
X158650Y69600D01*
X158670Y69620D01*
X158690Y69640D01*
X158710Y69650D01*
X158730Y69670D01*
X158750Y69680D01*
X158770Y69700D01*
X158800Y69710D01*
X158820Y69720D01*
X158850Y69730D01*
X158870D01*
X158900Y69740D01*
X158920D01*
X158950Y69750D01*
X164050D01*
X164080Y69740D01*
D02*
G37*
G36*
X133080D02*
X133100D01*
X133130Y69730D01*
X133150D01*
X133180Y69720D01*
X133200Y69710D01*
X133230Y69700D01*
X133250Y69680D01*
X133270Y69670D01*
X133290Y69650D01*
X133310Y69640D01*
X133330Y69620D01*
X133350Y69600D01*
X133370Y69580D01*
X133390Y69560D01*
X133400Y69540D01*
X133420Y69520D01*
X133430Y69500D01*
X133450Y69480D01*
X133460Y69450D01*
X133470Y69430D01*
X133480Y69400D01*
Y69380D01*
X133490Y69350D01*
Y69330D01*
X133500Y69300D01*
Y69280D01*
Y69250D01*
Y67250D01*
Y67220D01*
Y67200D01*
X133490Y67170D01*
Y67150D01*
X133480Y67120D01*
Y67100D01*
X133470Y67070D01*
X133460Y67050D01*
X133450Y67020D01*
X133430Y67000D01*
X133420Y66980D01*
X133400Y66960D01*
X133390Y66940D01*
X133370Y66920D01*
X133350Y66900D01*
X133330Y66880D01*
X133310Y66860D01*
X133290Y66850D01*
X133270Y66830D01*
X133250Y66820D01*
X133230Y66800D01*
X133200Y66790D01*
X133180Y66780D01*
X133150Y66770D01*
X133130D01*
X133100Y66760D01*
X133080D01*
X133050Y66750D01*
X127950D01*
X127920Y66760D01*
X127900D01*
X127870Y66770D01*
X127850D01*
X127820Y66780D01*
X127800Y66790D01*
X127770Y66800D01*
X127750Y66820D01*
X127730Y66830D01*
X127710Y66850D01*
X127690Y66860D01*
X127670Y66880D01*
X127650Y66900D01*
X127630Y66920D01*
X127610Y66940D01*
X127600Y66960D01*
X127580Y66980D01*
X127570Y67000D01*
X127550Y67020D01*
X127540Y67050D01*
X127530Y67070D01*
X127520Y67100D01*
Y67120D01*
X127510Y67150D01*
Y67170D01*
X127500Y67200D01*
Y67220D01*
Y67250D01*
Y69250D01*
Y69280D01*
Y69300D01*
X127510Y69330D01*
Y69350D01*
X127520Y69380D01*
Y69400D01*
X127530Y69430D01*
X127540Y69450D01*
X127550Y69480D01*
X127570Y69500D01*
X127580Y69520D01*
X127600Y69540D01*
X127610Y69560D01*
X127630Y69580D01*
X127650Y69600D01*
X127670Y69620D01*
X127690Y69640D01*
X127710Y69650D01*
X127730Y69670D01*
X127750Y69680D01*
X127770Y69700D01*
X127800Y69710D01*
X127820Y69720D01*
X127850Y69730D01*
X127870D01*
X127900Y69740D01*
X127920D01*
X127950Y69750D01*
X133050D01*
X133080Y69740D01*
D02*
G37*
G36*
X151180Y76990D02*
X151210D01*
X151230Y76980D01*
X151260D01*
X151280Y76970D01*
X151310Y76960D01*
X151330Y76950D01*
X151350Y76930D01*
X151380Y76920D01*
X151400Y76900D01*
X151420Y76890D01*
X151440Y76870D01*
X151460Y76850D01*
X151480Y76830D01*
X151490Y76810D01*
X151510Y76790D01*
X151520Y76770D01*
X151540Y76750D01*
X151550Y76730D01*
X151560Y76700D01*
X151570Y76680D01*
X151580Y76650D01*
X151590Y76630D01*
Y76600D01*
X151600Y76580D01*
Y76550D01*
Y76530D01*
Y76500D01*
Y66250D01*
Y66220D01*
Y66200D01*
Y66170D01*
X151590Y66150D01*
Y66120D01*
X151580Y66100D01*
X151570Y66070D01*
X151560Y66050D01*
X151550Y66020D01*
X151540Y66000D01*
X151520Y65980D01*
X151510Y65960D01*
X151490Y65940D01*
X151480Y65920D01*
X151460Y65900D01*
X151440Y65880D01*
X151420Y65860D01*
X151400Y65850D01*
X151380Y65830D01*
X151350Y65820D01*
X151330Y65800D01*
X151310Y65790D01*
X151280Y65780D01*
X151260Y65770D01*
X151230D01*
X151210Y65760D01*
X151180D01*
X151160Y65750D01*
X145000D01*
X144980Y65760D01*
X144950D01*
X144930Y65770D01*
X144900D01*
X144880Y65780D01*
X144850Y65790D01*
X144830Y65800D01*
X144810Y65820D01*
X144780Y65830D01*
X144760Y65850D01*
X144740Y65860D01*
X144720Y65880D01*
X144700Y65900D01*
X144680Y65920D01*
X144670Y65940D01*
X144650Y65960D01*
X144640Y65980D01*
X144620Y66000D01*
X144610Y66020D01*
X144600Y66050D01*
X144590Y66070D01*
X144580Y66100D01*
X144570Y66120D01*
Y66150D01*
X144560Y66170D01*
Y66200D01*
Y66220D01*
Y66250D01*
Y76500D01*
Y76530D01*
Y76550D01*
Y76580D01*
X144570Y76600D01*
Y76630D01*
X144580Y76650D01*
X144590Y76680D01*
X144600Y76700D01*
X144610Y76730D01*
X144620Y76750D01*
X144640Y76770D01*
X144650Y76790D01*
X144670Y76810D01*
X144680Y76830D01*
X144700Y76850D01*
X144720Y76870D01*
X144740Y76890D01*
X144760Y76900D01*
X144780Y76920D01*
X144800Y76930D01*
X144830Y76950D01*
X144850Y76960D01*
X144880Y76970D01*
X144900Y76980D01*
X144930D01*
X144950Y76990D01*
X144980D01*
X145000Y77000D01*
X151160D01*
X151180Y76990D01*
D02*
G37*
G36*
X142130D02*
X142160D01*
X142180Y76980D01*
X142210D01*
X142230Y76970D01*
X142260Y76960D01*
X142280Y76950D01*
X142310Y76930D01*
X142330Y76920D01*
X142350Y76900D01*
X142370Y76890D01*
X142390Y76870D01*
X142410Y76850D01*
X142430Y76830D01*
X142440Y76810D01*
X142460Y76790D01*
X142470Y76770D01*
X142490Y76750D01*
X142500Y76730D01*
X142510Y76700D01*
X142520Y76680D01*
X142530Y76650D01*
X142540Y76630D01*
Y76600D01*
X142550Y76580D01*
Y76550D01*
Y76530D01*
X142560Y76500D01*
Y66250D01*
X142550Y66220D01*
Y66200D01*
Y66170D01*
X142540Y66150D01*
Y66120D01*
X142530Y66100D01*
X142520Y66070D01*
X142510Y66050D01*
X142500Y66020D01*
X142490Y66000D01*
X142470Y65980D01*
X142460Y65960D01*
X142440Y65940D01*
X142430Y65920D01*
X142410Y65900D01*
X142390Y65880D01*
X142370Y65860D01*
X142350Y65850D01*
X142330Y65830D01*
X142310Y65820D01*
X142280Y65800D01*
X142260Y65790D01*
X142230Y65780D01*
X142210Y65770D01*
X142180D01*
X142160Y65760D01*
X142130D01*
X142110Y65750D01*
X135950D01*
X135930Y65760D01*
X135900D01*
X135880Y65770D01*
X135850D01*
X135830Y65780D01*
X135800Y65790D01*
X135780Y65800D01*
X135750Y65820D01*
X135730Y65830D01*
X135710Y65850D01*
X135690Y65860D01*
X135670Y65880D01*
X135650Y65900D01*
X135630Y65920D01*
X135620Y65940D01*
X135600Y65960D01*
X135590Y65980D01*
X135570Y66000D01*
X135560Y66020D01*
X135550Y66050D01*
X135540Y66070D01*
X135530Y66100D01*
X135520Y66120D01*
Y66150D01*
X135510Y66170D01*
Y66200D01*
Y66220D01*
X135500Y66250D01*
Y76500D01*
X135510Y76530D01*
Y76550D01*
Y76580D01*
X135520Y76600D01*
Y76630D01*
X135530Y76650D01*
X135540Y76680D01*
X135550Y76700D01*
X135560Y76730D01*
X135570Y76750D01*
X135590Y76770D01*
X135600Y76790D01*
X135620Y76810D01*
X135630Y76830D01*
X135650Y76850D01*
X135670Y76870D01*
X135690Y76890D01*
X135710Y76900D01*
X135730Y76920D01*
X135750Y76930D01*
X135780Y76950D01*
X135800Y76960D01*
X135830Y76970D01*
X135850Y76980D01*
X135880D01*
X135900Y76990D01*
X135930D01*
X135950Y77000D01*
X142110D01*
X142130Y76990D01*
D02*
G37*
G36*
X377138Y73893D02*
X372312D01*
Y49520D01*
X378154D01*
Y44440D01*
X372312D01*
Y38078D01*
X355040D01*
Y77957D01*
X377138Y77957D01*
Y73893D01*
D02*
G37*
G36*
X349960Y77957D02*
Y38078D01*
X332688D01*
Y44440D01*
X326846D01*
Y49520D01*
X332688D01*
Y73893D01*
X327862D01*
Y77957D01*
X349960Y77957D01*
D02*
G37*
D10*
X187699Y390500D02*
D03*
Y376000D02*
D03*
Y361500D02*
D03*
X198999Y390500D02*
D03*
Y376000D02*
D03*
Y361500D02*
D03*
X210299Y390500D02*
D03*
Y376000D02*
D03*
Y361500D02*
D03*
D11*
X310000Y640000D02*
D03*
Y630000D02*
D03*
X270000D02*
D03*
Y640000D02*
D03*
X438000Y69000D02*
D03*
X563000Y505000D02*
D03*
X456000Y475000D02*
D03*
X500000Y441000D02*
D03*
X306000Y122000D02*
D03*
X251000Y148000D02*
D03*
Y136000D02*
D03*
X206000Y185000D02*
D03*
X251000Y158000D02*
D03*
X290000Y630000D02*
D03*
Y640000D02*
D03*
X370000Y630000D02*
D03*
Y640000D02*
D03*
X390000Y630000D02*
D03*
Y640000D02*
D03*
X251000Y126000D02*
D03*
X460000Y164000D02*
D03*
Y174000D02*
D03*
X306000Y132000D02*
D03*
X368000Y340000D02*
D03*
X170000Y505000D02*
D03*
X140000Y343000D02*
D03*
Y277000D02*
D03*
X325000Y278000D02*
D03*
X138000Y165000D02*
D03*
X313000Y278000D02*
D03*
X206000Y175000D02*
D03*
X356000Y340000D02*
D03*
X325000Y288000D02*
D03*
X253000Y543000D02*
D03*
Y553000D02*
D03*
X140000Y353000D02*
D03*
X508200Y262000D02*
D03*
Y272000D02*
D03*
X313000Y288000D02*
D03*
X356000Y350000D02*
D03*
X368000D02*
D03*
X373000Y465000D02*
D03*
Y475000D02*
D03*
X362000Y465000D02*
D03*
Y475000D02*
D03*
X351000Y486000D02*
D03*
Y496000D02*
D03*
X341000Y486000D02*
D03*
Y496000D02*
D03*
X330000Y486000D02*
D03*
Y496000D02*
D03*
X500000Y451000D02*
D03*
X516000Y608000D02*
D03*
Y598000D02*
D03*
X564000Y608000D02*
D03*
Y598000D02*
D03*
X220000Y595000D02*
D03*
Y605000D02*
D03*
X82500Y200000D02*
D03*
Y210000D02*
D03*
X138000Y197000D02*
D03*
X140000Y267000D02*
D03*
X170000Y515000D02*
D03*
X440000Y584000D02*
D03*
Y574000D02*
D03*
X563000Y495000D02*
D03*
X138000Y175000D02*
D03*
Y187000D02*
D03*
X402000Y69000D02*
D03*
Y79000D02*
D03*
X438000D02*
D03*
X161000Y205000D02*
D03*
Y215000D02*
D03*
X172000Y205000D02*
D03*
Y215000D02*
D03*
X479000Y451000D02*
D03*
Y441000D02*
D03*
X456000Y465000D02*
D03*
D12*
X283000Y478000D02*
D03*
X293000D02*
D03*
X253000D02*
D03*
X430000Y24000D02*
D03*
X440000D02*
D03*
X456000Y440000D02*
D03*
X35000Y310000D02*
D03*
X297000Y205000D02*
D03*
X253000Y490000D02*
D03*
X316000Y157000D02*
D03*
X484000Y221000D02*
D03*
X520000Y204000D02*
D03*
X451000Y395000D02*
D03*
X298000Y240000D02*
D03*
X362000Y291000D02*
D03*
X335000Y267000D02*
D03*
X303000D02*
D03*
X236000Y192000D02*
D03*
Y168000D02*
D03*
X318000Y110000D02*
D03*
X308000D02*
D03*
X308000Y84000D02*
D03*
X318000D02*
D03*
X308000Y97000D02*
D03*
X318000D02*
D03*
X352000Y291000D02*
D03*
X308000Y240000D02*
D03*
X45000Y310000D02*
D03*
X401000Y24000D02*
D03*
X65000Y412000D02*
D03*
X95000D02*
D03*
X325000Y267000D02*
D03*
X313000D02*
D03*
X204000Y410000D02*
D03*
X194000D02*
D03*
Y432000D02*
D03*
X250000Y366000D02*
D03*
X194000Y421000D02*
D03*
X250000Y377000D02*
D03*
X260000Y366000D02*
D03*
Y377000D02*
D03*
X461000Y395000D02*
D03*
X530000Y204000D02*
D03*
X297000Y217000D02*
D03*
X307000D02*
D03*
X456000Y429000D02*
D03*
X466000D02*
D03*
X243000Y478000D02*
D03*
X204000Y432000D02*
D03*
Y421000D02*
D03*
X250000Y355000D02*
D03*
X260000D02*
D03*
X388000Y398000D02*
D03*
X378000D02*
D03*
X411000Y24000D02*
D03*
X306000Y157000D02*
D03*
X494000Y221000D02*
D03*
X105000Y412000D02*
D03*
X55000D02*
D03*
X246000Y192000D02*
D03*
Y168000D02*
D03*
X306000Y145000D02*
D03*
X316000D02*
D03*
X425000Y132000D02*
D03*
X435000D02*
D03*
X307000Y205000D02*
D03*
X435000Y188000D02*
D03*
X445000D02*
D03*
X515000Y400000D02*
D03*
Y390000D02*
D03*
X243000Y490000D02*
D03*
X505000Y390000D02*
D03*
Y400000D02*
D03*
X483000Y395000D02*
D03*
X493000D02*
D03*
X466000Y440000D02*
D03*
X456000Y452000D02*
D03*
X466000D02*
D03*
D13*
X323500Y629000D02*
D03*
X336500D02*
D03*
Y641000D02*
D03*
X323500D02*
D03*
D14*
X312000Y434380D02*
D03*
X328000D02*
D03*
X304000Y365620D02*
D03*
X308000D02*
D03*
X312000D02*
D03*
X316000D02*
D03*
X320000D02*
D03*
X324000D02*
D03*
X328000D02*
D03*
X332000D02*
D03*
X336000D02*
D03*
X340000D02*
D03*
X344000D02*
D03*
X348000D02*
D03*
X352000D02*
D03*
X356000D02*
D03*
Y434380D02*
D03*
X352000D02*
D03*
X348000D02*
D03*
X344000D02*
D03*
X340000D02*
D03*
X336000D02*
D03*
X332000D02*
D03*
X324000D02*
D03*
X320000D02*
D03*
X316000D02*
D03*
X308000D02*
D03*
X304000D02*
D03*
D15*
X403000Y105000D02*
D03*
X447000Y100000D02*
D03*
X403000Y110000D02*
D03*
X447000Y95000D02*
D03*
X403000Y115000D02*
D03*
X447000D02*
D03*
Y110000D02*
D03*
X403000Y100000D02*
D03*
Y95000D02*
D03*
X447000Y105000D02*
D03*
D16*
X482000Y145500D02*
D03*
X188000Y101500D02*
D03*
X92000Y114500D02*
D03*
X112000Y176500D02*
D03*
X125000D02*
D03*
X140000Y240500D02*
D03*
X300000Y339500D02*
D03*
X140000Y379500D02*
D03*
X200000Y516500D02*
D03*
X294000Y466500D02*
D03*
X385000Y104500D02*
D03*
X321000Y134500D02*
D03*
X328000Y186500D02*
D03*
X410000Y162500D02*
D03*
X482000Y158500D02*
D03*
X340000Y338500D02*
D03*
X306000Y466500D02*
D03*
X318000D02*
D03*
X338000D02*
D03*
X351000Y641500D02*
D03*
X328000Y173500D02*
D03*
X321000Y121500D02*
D03*
X351000Y628500D02*
D03*
X410000Y175500D02*
D03*
X385000Y117500D02*
D03*
X306000Y453500D02*
D03*
X338000D02*
D03*
X294000D02*
D03*
X340000Y351500D02*
D03*
X300000Y352500D02*
D03*
X125000Y163500D02*
D03*
X188000Y88500D02*
D03*
X140000Y366500D02*
D03*
X200000Y503500D02*
D03*
X92000Y127500D02*
D03*
X140000Y253500D02*
D03*
X112000Y163500D02*
D03*
X318000Y453500D02*
D03*
X455000Y487500D02*
D03*
Y500500D02*
D03*
D17*
X465000Y47750D02*
D03*
X497000D02*
D03*
X522000Y544750D02*
D03*
X168000Y21250D02*
D03*
X200000D02*
D03*
X233000D02*
D03*
X265000D02*
D03*
X465000Y22250D02*
D03*
X497000D02*
D03*
X522000Y519250D02*
D03*
X233000Y46750D02*
D03*
X200000D02*
D03*
X168000D02*
D03*
X265000D02*
D03*
D18*
X437250Y50000D02*
D03*
X402750D02*
D03*
D19*
X505000Y139500D02*
D03*
Y180500D02*
D03*
D20*
X469500Y129000D02*
D03*
X520500Y215000D02*
D03*
X529500D02*
D03*
X203500Y300000D02*
D03*
X194500D02*
D03*
X203500Y320000D02*
D03*
X194500D02*
D03*
X259500Y344000D02*
D03*
X250500D02*
D03*
X460500Y129000D02*
D03*
D21*
X507000Y214500D02*
D03*
Y223500D02*
D03*
X185000Y514500D02*
D03*
Y505500D02*
D03*
X440000Y604500D02*
D03*
Y595500D02*
D03*
X460000Y141500D02*
D03*
Y150500D02*
D03*
X138000Y218500D02*
D03*
Y209500D02*
D03*
X195000Y145500D02*
D03*
Y154500D02*
D03*
D22*
X333450Y20060D02*
D03*
X346150D02*
D03*
X358850D02*
D03*
X371550D02*
D03*
D23*
X363676Y58018D02*
D03*
X341324D02*
D03*
D24*
X243500Y503000D02*
D03*
X262500D02*
D03*
X253000Y529000D02*
D03*
X265500Y167000D02*
D03*
X284500D02*
D03*
X275000Y193000D02*
D03*
X217500Y130000D02*
D03*
X236500D02*
D03*
X227000Y156000D02*
D03*
D25*
X375000Y149500D02*
D03*
Y130500D02*
D03*
X401000Y140000D02*
D03*
X123000Y190500D02*
D03*
Y209500D02*
D03*
X97000Y200000D02*
D03*
D26*
X364380Y374000D02*
D03*
Y378000D02*
D03*
Y382000D02*
D03*
Y386000D02*
D03*
Y390000D02*
D03*
Y394000D02*
D03*
Y398000D02*
D03*
Y402000D02*
D03*
Y406000D02*
D03*
Y410000D02*
D03*
Y414000D02*
D03*
Y418000D02*
D03*
Y422000D02*
D03*
Y426000D02*
D03*
X295620D02*
D03*
Y422000D02*
D03*
Y418000D02*
D03*
Y414000D02*
D03*
Y410000D02*
D03*
Y406000D02*
D03*
Y402000D02*
D03*
Y398000D02*
D03*
Y394000D02*
D03*
Y390000D02*
D03*
Y386000D02*
D03*
Y382000D02*
D03*
Y378000D02*
D03*
Y374000D02*
D03*
D27*
X223000Y106000D02*
D03*
X235000D02*
D03*
X231000D02*
D03*
X227000D02*
D03*
X239000D02*
D03*
X243000D02*
D03*
X247000D02*
D03*
X251000D02*
D03*
X251000Y67500D02*
D03*
X247000D02*
D03*
X243000D02*
D03*
X239000D02*
D03*
X235000D02*
D03*
X231000D02*
D03*
X227000D02*
D03*
X223000D02*
D03*
D28*
X256250Y100750D02*
D03*
Y96750D02*
D03*
Y92750D02*
D03*
Y88750D02*
D03*
Y84750D02*
D03*
Y80750D02*
D03*
Y76750D02*
D03*
Y72750D02*
D03*
X217750Y100750D02*
D03*
Y92750D02*
D03*
Y88750D02*
D03*
Y96750D02*
D03*
Y84750D02*
D03*
Y80750D02*
D03*
Y76750D02*
D03*
Y72750D02*
D03*
D29*
X417000Y378000D02*
D03*
Y400000D02*
D03*
X401000D02*
D03*
Y378000D02*
D03*
D30*
X59250Y168750D02*
D03*
Y163750D02*
D03*
Y158750D02*
D03*
Y153750D02*
D03*
Y148750D02*
D03*
Y143750D02*
D03*
Y138750D02*
D03*
Y133750D02*
D03*
Y128750D02*
D03*
Y123750D02*
D03*
Y118750D02*
D03*
Y113750D02*
D03*
D31*
X75250Y111250D02*
D03*
Y116250D02*
D03*
Y121250D02*
D03*
Y126250D02*
D03*
Y131250D02*
D03*
Y136250D02*
D03*
Y141250D02*
D03*
Y146250D02*
D03*
Y151250D02*
D03*
Y156250D02*
D03*
Y161250D02*
D03*
Y166250D02*
D03*
D32*
X119500Y151500D02*
D03*
X123500D02*
D03*
X131500D02*
D03*
X135500D02*
D03*
Y123500D02*
D03*
X131500D02*
D03*
X123500D02*
D03*
X119500D02*
D03*
X127500Y151500D02*
D03*
Y123500D02*
D03*
D33*
X141500Y145500D02*
D03*
Y141500D02*
D03*
Y133500D02*
D03*
Y129500D02*
D03*
X113500D02*
D03*
Y133500D02*
D03*
Y141500D02*
D03*
Y145500D02*
D03*
X141500Y137500D02*
D03*
X113500D02*
D03*
D34*
X360000Y118500D02*
D03*
X355000D02*
D03*
X350000D02*
D03*
X345000D02*
D03*
X340000D02*
D03*
Y161500D02*
D03*
X345000D02*
D03*
X350000D02*
D03*
X355000D02*
D03*
X360000D02*
D03*
D35*
X189500Y247000D02*
D03*
X276500D02*
D03*
D36*
X302500Y539000D02*
D03*
X307500D02*
D03*
X312500D02*
D03*
X317500D02*
D03*
X322500D02*
D03*
X327500D02*
D03*
X332500D02*
D03*
X337500D02*
D03*
X342500D02*
D03*
X347500D02*
D03*
X352500D02*
D03*
X357500D02*
D03*
D37*
X373500Y560700D02*
D03*
X286500D02*
D03*
D38*
X277750Y87500D02*
D03*
X271250D02*
D03*
X290750D02*
D03*
X284250Y146500D02*
D03*
X290750D02*
D03*
X277750D02*
D03*
X271250D02*
D03*
X284250Y87500D02*
D03*
D39*
X67500Y71000D02*
D03*
X108500D02*
D03*
D40*
X550000Y547000D02*
D03*
Y517000D02*
D03*
D41*
X485000Y533000D02*
D03*
Y503000D02*
D03*
D42*
X115000Y30400D02*
D03*
X96000Y163600D02*
D03*
X180000Y145400D02*
D03*
Y154600D02*
D03*
X115000Y39600D02*
D03*
X96000Y154400D02*
D03*
D43*
X72250Y40000D02*
D03*
X446750Y287000D02*
D03*
Y320000D02*
D03*
X470750Y353000D02*
D03*
X445250D02*
D03*
X421250Y320000D02*
D03*
Y287000D02*
D03*
X97750Y40000D02*
D03*
D44*
X155500Y108000D02*
D03*
X261500Y448000D02*
D03*
Y428000D02*
D03*
X298500Y506000D02*
D03*
X510500Y243000D02*
D03*
X404500Y447000D02*
D03*
Y466000D02*
D03*
X490500Y315000D02*
D03*
Y335000D02*
D03*
X536500Y475000D02*
D03*
Y455000D02*
D03*
Y435000D02*
D03*
X138500Y108000D02*
D03*
X315500Y506000D02*
D03*
X278500Y448000D02*
D03*
X507500Y315000D02*
D03*
X387500Y447000D02*
D03*
X507500Y335000D02*
D03*
X519500Y455000D02*
D03*
Y435000D02*
D03*
Y475000D02*
D03*
X527500Y243000D02*
D03*
X278500Y428000D02*
D03*
X387500Y466000D02*
D03*
D45*
X276000Y70000D02*
D03*
X93500Y399000D02*
D03*
X66500D02*
D03*
X205500Y341000D02*
D03*
X263500Y412000D02*
D03*
Y400000D02*
D03*
X267500Y465000D02*
D03*
X302500Y523000D02*
D03*
X396500Y429000D02*
D03*
Y416000D02*
D03*
X289000Y70000D02*
D03*
X106500Y399000D02*
D03*
X53500D02*
D03*
X383500Y416000D02*
D03*
X315500Y523000D02*
D03*
X276500Y412000D02*
D03*
X192500Y341000D02*
D03*
X280500Y465000D02*
D03*
X426500Y80000D02*
D03*
X413500D02*
D03*
X460500Y215000D02*
D03*
X473500D02*
D03*
X276500Y400000D02*
D03*
X383500Y429000D02*
D03*
D46*
X199900Y102000D02*
D03*
X227100Y115000D02*
D03*
X208100Y102000D02*
D03*
X218900Y115000D02*
D03*
D47*
X40500Y282500D02*
D03*
Y337500D02*
D03*
X119500D02*
D03*
Y282500D02*
D03*
X40500Y382500D02*
D03*
X119500D02*
D03*
X40500Y237500D02*
D03*
X119500D02*
D03*
D48*
X109250Y604000D02*
D03*
X529250Y603000D02*
D03*
X109250Y610500D02*
D03*
X130750D02*
D03*
X550750Y603000D02*
D03*
X130750Y604000D02*
D03*
Y597500D02*
D03*
X109250D02*
D03*
X550750Y609500D02*
D03*
Y596500D02*
D03*
X529250D02*
D03*
Y609500D02*
D03*
D49*
X301500Y192500D02*
D03*
X314500Y171500D02*
D03*
X301500D02*
D03*
X308000Y192500D02*
D03*
X314500D02*
D03*
D50*
X227200Y395050D02*
D03*
X170800Y356950D02*
D03*
Y395050D02*
D03*
Y369650D02*
D03*
X227200D02*
D03*
X170800Y382350D02*
D03*
X227200D02*
D03*
Y356950D02*
D03*
D51*
X193750Y647500D02*
D03*
X246250D02*
D03*
X413750D02*
D03*
X466250D02*
D03*
X413750Y630500D02*
D03*
X466250D02*
D03*
X193750D02*
D03*
X246250D02*
D03*
D52*
X347500Y180000D02*
D03*
X351500Y237000D02*
D03*
X366500D02*
D03*
X362500Y180000D02*
D03*
D53*
X345500Y194000D02*
D03*
X355000Y221000D02*
D03*
X364500D02*
D03*
Y194000D02*
D03*
X355000D02*
D03*
X345500Y221000D02*
D03*
D54*
X444500Y148000D02*
D03*
X425500Y172000D02*
D03*
X444500D02*
D03*
X435000Y148000D02*
D03*
X425500D02*
D03*
D55*
X483500Y234000D02*
D03*
Y261000D02*
D03*
X474000Y234000D02*
D03*
X493000D02*
D03*
Y261000D02*
D03*
X474000D02*
D03*
D56*
X491000Y295500D02*
D03*
Y278500D02*
D03*
D57*
X406000Y364000D02*
D03*
X416600Y415000D02*
D03*
X415200Y364000D02*
D03*
X407400Y415000D02*
D03*
D58*
X469000Y308250D02*
D03*
Y277750D02*
D03*
D59*
X472500Y475000D02*
D03*
X499500D02*
D03*
X472500Y484500D02*
D03*
Y465500D02*
D03*
X499500D02*
D03*
Y484500D02*
D03*
D60*
X548250Y497000D02*
D03*
X517750D02*
D03*
D61*
X562000Y441750D02*
D03*
Y458250D02*
D03*
D62*
X554000Y575000D02*
D03*
X524000D02*
D03*
D63*
X385000Y224250D02*
D03*
Y190750D02*
D03*
D64*
X36750Y209000D02*
D03*
X633250Y220000D02*
D03*
X616750D02*
D03*
X53250Y209000D02*
D03*
X88250Y310000D02*
D03*
X71750D02*
D03*
D65*
X327000Y206500D02*
D03*
Y221500D02*
D03*
D66*
X357500Y93000D02*
D03*
X338500D02*
D03*
D67*
X426000Y246000D02*
D03*
X456000D02*
D03*
D68*
X180000Y112850D02*
D03*
Y135150D02*
D03*
X195000Y112850D02*
D03*
Y135150D02*
D03*
D69*
X113900Y98000D02*
D03*
X98100D02*
D03*
M02*
