G04*
G04 #@! TF.GenerationSoftware,Altium Limited,DefaultClient, ()*
G04*
G04 Layer_Color=16711935*
%FSLAX44Y44*%
%MOMM*%
G71*
G04*
G04 #@! TF.SameCoordinates,4AC8D3AE-847C-4DBA-A645-61C765A70751*
G04*
G04*
G04 #@! TF.FilePolarity,Negative*
G04*
G01*
G75*
%ADD72C,0.8000*%
%ADD137C,2.1000*%
%ADD138C,3.1000*%
%ADD139C,5.5000*%
%ADD140C,1.9000*%
%ADD141C,3.2000*%
%ADD142O,2.6500X1.3500*%
%ADD143O,1.4500X2.0250*%
%ADD144O,2.7000X1.4000*%
%ADD145O,1.4500X1.7500*%
G04:AMPARAMS|DCode=146|XSize=3.3mm|YSize=4.1mm|CornerRadius=0.85mm|HoleSize=0mm|Usage=FLASHONLY|Rotation=0.000|XOffset=0mm|YOffset=0mm|HoleType=Round|Shape=RoundedRectangle|*
%AMROUNDEDRECTD146*
21,1,3.3000,2.4000,0,0,0.0*
21,1,1.6000,4.1000,0,0,0.0*
1,1,1.7000,0.8000,-1.2000*
1,1,1.7000,-0.8000,-1.2000*
1,1,1.7000,-0.8000,1.2000*
1,1,1.7000,0.8000,1.2000*
%
%ADD146ROUNDEDRECTD146*%
%ADD147C,1.6000*%
%ADD148O,1.6240X2.1000*%
%ADD149O,1.6000X2.1000*%
%ADD150C,0.4750*%
%ADD151C,0.1000*%
G04:AMPARAMS|DCode=152|XSize=1.6mm|YSize=1.6mm|CornerRadius=0.425mm|HoleSize=0mm|Usage=FLASHONLY|Rotation=0.000|XOffset=0mm|YOffset=0mm|HoleType=Round|Shape=RoundedRectangle|*
%AMROUNDEDRECTD152*
21,1,1.6000,0.7500,0,0,0.0*
21,1,0.7500,1.6000,0,0,0.0*
1,1,0.8500,0.3750,-0.3750*
1,1,0.8500,-0.3750,-0.3750*
1,1,0.8500,-0.3750,0.3750*
1,1,0.8500,0.3750,0.3750*
%
%ADD152ROUNDEDRECTD152*%
%ADD195R,1.0000X1.5000*%
%ADD198R,0.3000X0.4000*%
%ADD199R,0.4000X0.3000*%
%ADD200R,0.3000X1.5000*%
%ADD201R,1.5000X1.5000*%
%ADD202O,3.2032X1.2032*%
%ADD203O,1.2032X3.2032*%
G04:AMPARAMS|DCode=204|XSize=0.5mm|YSize=0.5mm|CornerRadius=0.07mm|HoleSize=0mm|Usage=FLASHONLY|Rotation=0.000|XOffset=0mm|YOffset=0mm|HoleType=Round|Shape=RoundedRectangle|*
%AMROUNDEDRECTD204*
21,1,0.5000,0.3600,0,0,0.0*
21,1,0.3600,0.5000,0,0,0.0*
1,1,0.1400,0.1800,-0.1800*
1,1,0.1400,-0.1800,-0.1800*
1,1,0.1400,-0.1800,0.1800*
1,1,0.1400,0.1800,0.1800*
%
%ADD204ROUNDEDRECTD204*%
G04:AMPARAMS|DCode=205|XSize=0.5mm|YSize=0.5mm|CornerRadius=0.07mm|HoleSize=0mm|Usage=FLASHONLY|Rotation=270.000|XOffset=0mm|YOffset=0mm|HoleType=Round|Shape=RoundedRectangle|*
%AMROUNDEDRECTD205*
21,1,0.5000,0.3600,0,0,270.0*
21,1,0.3600,0.5000,0,0,270.0*
1,1,0.1400,-0.1800,-0.1800*
1,1,0.1400,-0.1800,0.1800*
1,1,0.1400,0.1800,0.1800*
1,1,0.1400,0.1800,-0.1800*
%
%ADD205ROUNDEDRECTD205*%
G36*
X631766Y656941D02*
X635267Y656480D01*
X638679Y655566D01*
X641941Y654215D01*
X645000Y652449D01*
X647802Y650299D01*
X650299Y647802D01*
X652449Y645000D01*
X654215Y641941D01*
X655566Y638679D01*
X656480Y635267D01*
X656941Y631766D01*
X656941Y630000D01*
X656941Y30000D01*
Y28234D01*
X656480Y24733D01*
X655566Y21321D01*
X654215Y18059D01*
X652449Y15000D01*
X650299Y12198D01*
X648205Y10104D01*
X645591Y8152D01*
X642142Y6279D01*
X638461Y4920D01*
X634622Y4104D01*
X630706Y3846D01*
X628750Y4000D01*
X628750Y4000D01*
X628750Y4000D01*
X31000Y4000D01*
X29230Y4000D01*
X25721Y4462D01*
X22302Y5378D01*
X19033Y6732D01*
X16290Y8315D01*
X16951Y10097D01*
X17023Y10213D01*
X18093Y10000D01*
X627500D01*
X627500Y10000D01*
X627500Y10000D01*
X629472Y9992D01*
X633343Y10749D01*
X636990Y12251D01*
X640272Y14439D01*
X643061Y17228D01*
X645249Y20510D01*
X646751Y24157D01*
X647508Y28028D01*
X647500Y30000D01*
X647500Y623000D01*
X647500Y623000D01*
X647500Y623000D01*
X647500Y623014D01*
X647500Y624770D01*
X647487Y624866D01*
X647038Y628279D01*
X646122Y631697D01*
X644768Y634967D01*
X642998Y638032D01*
X640843Y640840D01*
X638341Y643343D01*
X635533Y645498D01*
X632467Y647267D01*
X629198Y648622D01*
X625779Y649538D01*
X622270Y650000D01*
X620500Y650000D01*
X27500Y650000D01*
X27500Y650000D01*
X25530Y650000D01*
X21666Y649231D01*
X18026Y647723D01*
X14751Y645535D01*
X11965Y642749D01*
X9776Y639473D01*
X8269Y635834D01*
X7500Y631970D01*
Y630000D01*
Y22405D01*
X5500Y22007D01*
X5378Y22302D01*
X4462Y25720D01*
X4000Y29229D01*
X4000Y30999D01*
Y637060D01*
X4434Y638679D01*
X5785Y641941D01*
X7551Y645000D01*
X9701Y647802D01*
X12198Y650299D01*
X15000Y652449D01*
X18059Y654215D01*
X21321Y655566D01*
X24733Y656480D01*
X28234Y656941D01*
X30000Y656941D01*
X630000Y656941D01*
X631766Y656941D01*
D02*
G37*
G36*
X119376Y616709D02*
X117587Y616445D01*
X117490Y616542D01*
X117407Y616626D01*
X117323Y616695D01*
X117254Y616750D01*
X117199Y616792D01*
X117157Y616820D01*
X117129Y616847D01*
X117115D01*
X117004Y616903D01*
X116894Y616931D01*
X116713Y616986D01*
X116630D01*
X116574Y617000D01*
X116519D01*
X116353Y616986D01*
X116186Y616945D01*
X116061Y616903D01*
X115950Y616847D01*
X115853Y616778D01*
X115798Y616736D01*
X115756Y616695D01*
X115742Y616681D01*
X115645Y616542D01*
X115576Y616390D01*
X115520Y616223D01*
X115493Y616057D01*
X115465Y615918D01*
X115451Y615793D01*
Y615710D01*
Y615696D01*
Y615682D01*
X115465Y615447D01*
X115493Y615253D01*
X115548Y615086D01*
X115590Y614948D01*
X115645Y614837D01*
X115701Y614767D01*
X115729Y614712D01*
X115742Y614698D01*
X115853Y614587D01*
X115978Y614504D01*
X116103Y614448D01*
X116214Y614407D01*
X116325Y614379D01*
X116408Y614365D01*
X116477D01*
X116616Y614379D01*
X116755Y614407D01*
X116880Y614448D01*
X116977Y614504D01*
X117060Y614545D01*
X117115Y614587D01*
X117157Y614615D01*
X117171Y614628D01*
X117268Y614739D01*
X117337Y614864D01*
X117407Y614989D01*
X117448Y615114D01*
X117476Y615225D01*
X117504Y615322D01*
X117517Y615377D01*
Y615405D01*
X119653Y615169D01*
X119598Y614975D01*
X119529Y614795D01*
X119473Y614642D01*
X119404Y614518D01*
X119362Y614407D01*
X119320Y614337D01*
X119293Y614282D01*
X119279Y614268D01*
X119085Y614018D01*
X118988Y613907D01*
X118890Y613824D01*
X118793Y613741D01*
X118724Y613685D01*
X118682Y613644D01*
X118669Y613630D01*
X118364Y613450D01*
X118211Y613380D01*
X118058Y613325D01*
X117934Y613269D01*
X117837Y613242D01*
X117781Y613228D01*
X117753Y613214D01*
X117545Y613172D01*
X117323Y613131D01*
X117101Y613103D01*
X116907Y613089D01*
X116727D01*
X116588Y613075D01*
X116463D01*
X116089Y613089D01*
X115756Y613131D01*
X115451Y613186D01*
X115202Y613256D01*
X115007Y613311D01*
X114924Y613339D01*
X114869Y613367D01*
X114813Y613394D01*
X114772Y613408D01*
X114758Y613422D01*
X114744D01*
X114508Y613574D01*
X114300Y613741D01*
X114120Y613907D01*
X113967Y614074D01*
X113856Y614226D01*
X113773Y614351D01*
X113718Y614434D01*
X113704Y614448D01*
Y614462D01*
X113579Y614712D01*
X113482Y614975D01*
X113426Y615211D01*
X113371Y615419D01*
X113343Y615613D01*
X113329Y615752D01*
Y615807D01*
Y615849D01*
Y615863D01*
Y615877D01*
X113343Y616071D01*
X113357Y616251D01*
X113440Y616584D01*
X113551Y616889D01*
X113690Y617139D01*
X113829Y617333D01*
X113884Y617416D01*
X113940Y617485D01*
X113981Y617541D01*
X114023Y617583D01*
X114037Y617596D01*
X114050Y617610D01*
X114189Y617735D01*
X114328Y617846D01*
X114480Y617929D01*
X114633Y618012D01*
X114938Y618137D01*
X115243Y618220D01*
X115493Y618262D01*
X115604Y618290D01*
X115701D01*
X115784Y618304D01*
X115895D01*
X116145Y618290D01*
X116256Y618276D01*
X116353Y618262D01*
X116450Y618248D01*
X116519Y618234D01*
X116561Y618220D01*
X116574D01*
X116824Y618151D01*
X116949Y618110D01*
X117060Y618068D01*
X117143Y618026D01*
X117226Y617999D01*
X117268Y617985D01*
X117282Y617971D01*
X117101Y619108D01*
X113690D01*
Y620800D01*
X118710D01*
X119376Y616709D01*
D02*
G37*
G36*
X125034Y616071D02*
X127031Y613200D01*
X124743D01*
X123550Y614961D01*
X122538Y613200D01*
X120069D01*
X122080Y616071D01*
X120208Y618706D01*
X122538D01*
X123550Y617166D01*
X124424Y618706D01*
X126934D01*
X125034Y616071D01*
D02*
G37*
G36*
X130873Y620911D02*
X131150Y620883D01*
X131400Y620842D01*
X131636Y620786D01*
X131844Y620717D01*
X132038Y620647D01*
X132218Y620564D01*
X132371Y620495D01*
X132509Y620412D01*
X132634Y620328D01*
X132731Y620259D01*
X132814Y620190D01*
X132884Y620134D01*
X132925Y620093D01*
X132953Y620065D01*
X132967Y620051D01*
X133106Y619871D01*
X133217Y619677D01*
X133328Y619455D01*
X133411Y619219D01*
X133549Y618720D01*
X133646Y618220D01*
X133674Y617985D01*
X133702Y617763D01*
X133716Y617555D01*
X133730Y617374D01*
X133744Y617236D01*
Y617125D01*
Y617056D01*
Y617028D01*
X133730Y616709D01*
X133716Y616404D01*
X133688Y616126D01*
X133660Y615891D01*
X133633Y615682D01*
X133619Y615530D01*
X133605Y615475D01*
X133591Y615433D01*
Y615419D01*
Y615405D01*
X133535Y615155D01*
X133466Y614920D01*
X133397Y614726D01*
X133328Y614573D01*
X133272Y614434D01*
X133217Y614351D01*
X133189Y614282D01*
X133175Y614268D01*
X133022Y614060D01*
X132856Y613880D01*
X132703Y613727D01*
X132537Y613602D01*
X132412Y613505D01*
X132301Y613436D01*
X132232Y613394D01*
X132204Y613380D01*
X131968Y613283D01*
X131705Y613200D01*
X131441Y613145D01*
X131192Y613117D01*
X130970Y613089D01*
X130887D01*
X130803Y613075D01*
X130637D01*
X130332Y613089D01*
X130041Y613117D01*
X129777Y613158D01*
X129541Y613228D01*
X129320Y613297D01*
X129125Y613380D01*
X128945Y613464D01*
X128793Y613561D01*
X128654Y613644D01*
X128543Y613727D01*
X128446Y613810D01*
X128363Y613880D01*
X128293Y613949D01*
X128252Y613991D01*
X128238Y614018D01*
X128224Y614032D01*
X128099Y614226D01*
X127988Y614434D01*
X127891Y614670D01*
X127808Y614906D01*
X127683Y615405D01*
X127600Y615904D01*
X127572Y616140D01*
X127558Y616348D01*
X127544Y616542D01*
X127530Y616723D01*
X127517Y616861D01*
Y616958D01*
Y617028D01*
Y617056D01*
X127530Y617388D01*
X127544Y617721D01*
X127586Y618012D01*
X127628Y618276D01*
X127669Y618498D01*
X127683Y618595D01*
X127697Y618664D01*
X127711Y618734D01*
X127725Y618775D01*
X127739Y618803D01*
Y618817D01*
X127780Y618983D01*
X127836Y619122D01*
X127877Y619261D01*
X127919Y619371D01*
X127961Y619469D01*
X128002Y619538D01*
X128016Y619580D01*
X128030Y619593D01*
X128182Y619843D01*
X128266Y619954D01*
X128349Y620037D01*
X128418Y620120D01*
X128474Y620176D01*
X128515Y620218D01*
X128529Y620231D01*
X128654Y620342D01*
X128779Y620439D01*
X128917Y620523D01*
X129042Y620592D01*
X129153Y620647D01*
X129250Y620703D01*
X129306Y620717D01*
X129333Y620731D01*
X129528Y620800D01*
X129736Y620842D01*
X129944Y620883D01*
X130138Y620897D01*
X130318Y620911D01*
X130457Y620925D01*
X130582D01*
X130873Y620911D01*
D02*
G37*
G36*
X109613D02*
X109890Y620883D01*
X110140Y620842D01*
X110375Y620786D01*
X110583Y620717D01*
X110778Y620647D01*
X110958Y620564D01*
X111110Y620495D01*
X111249Y620412D01*
X111374Y620328D01*
X111471Y620259D01*
X111554Y620190D01*
X111623Y620134D01*
X111665Y620093D01*
X111693Y620065D01*
X111707Y620051D01*
X111845Y619871D01*
X111956Y619677D01*
X112067Y619455D01*
X112150Y619219D01*
X112289Y618720D01*
X112386Y618220D01*
X112414Y617985D01*
X112442Y617763D01*
X112456Y617555D01*
X112469Y617374D01*
X112483Y617236D01*
Y617125D01*
Y617056D01*
Y617028D01*
X112469Y616709D01*
X112456Y616404D01*
X112428Y616126D01*
X112400Y615891D01*
X112372Y615682D01*
X112359Y615530D01*
X112345Y615475D01*
X112331Y615433D01*
Y615419D01*
Y615405D01*
X112275Y615155D01*
X112206Y614920D01*
X112137Y614726D01*
X112067Y614573D01*
X112012Y614434D01*
X111956Y614351D01*
X111929Y614282D01*
X111915Y614268D01*
X111762Y614060D01*
X111596Y613880D01*
X111443Y613727D01*
X111277Y613602D01*
X111152Y613505D01*
X111041Y613436D01*
X110972Y613394D01*
X110944Y613380D01*
X110708Y613283D01*
X110445Y613200D01*
X110181Y613145D01*
X109931Y613117D01*
X109710Y613089D01*
X109626D01*
X109543Y613075D01*
X109377D01*
X109072Y613089D01*
X108780Y613117D01*
X108517Y613158D01*
X108281Y613228D01*
X108059Y613297D01*
X107865Y613380D01*
X107685Y613464D01*
X107532Y613561D01*
X107394Y613644D01*
X107283Y613727D01*
X107186Y613810D01*
X107102Y613880D01*
X107033Y613949D01*
X106991Y613991D01*
X106978Y614018D01*
X106964Y614032D01*
X106839Y614226D01*
X106728Y614434D01*
X106631Y614670D01*
X106548Y614906D01*
X106423Y615405D01*
X106340Y615904D01*
X106312Y616140D01*
X106298Y616348D01*
X106284Y616542D01*
X106270Y616723D01*
X106256Y616861D01*
Y616958D01*
Y617028D01*
Y617056D01*
X106270Y617388D01*
X106284Y617721D01*
X106326Y618012D01*
X106367Y618276D01*
X106409Y618498D01*
X106423Y618595D01*
X106437Y618664D01*
X106451Y618734D01*
X106464Y618775D01*
X106478Y618803D01*
Y618817D01*
X106520Y618983D01*
X106575Y619122D01*
X106617Y619261D01*
X106659Y619371D01*
X106700Y619469D01*
X106742Y619538D01*
X106756Y619580D01*
X106770Y619593D01*
X106922Y619843D01*
X107005Y619954D01*
X107088Y620037D01*
X107158Y620120D01*
X107213Y620176D01*
X107255Y620218D01*
X107269Y620231D01*
X107394Y620342D01*
X107518Y620439D01*
X107657Y620523D01*
X107782Y620592D01*
X107893Y620647D01*
X107990Y620703D01*
X108045Y620717D01*
X108073Y620731D01*
X108267Y620800D01*
X108475Y620842D01*
X108683Y620883D01*
X108877Y620897D01*
X109058Y620911D01*
X109197Y620925D01*
X109321D01*
X109613Y620911D01*
D02*
G37*
G36*
X273876Y603911D02*
X274209Y603883D01*
X274500Y603842D01*
X274736Y603786D01*
X274930Y603731D01*
X275069Y603689D01*
X275152Y603661D01*
X275166Y603647D01*
X275180D01*
X275402Y603536D01*
X275582Y603412D01*
X275748Y603287D01*
X275873Y603162D01*
X275984Y603051D01*
X276067Y602968D01*
X276109Y602912D01*
X276123Y602885D01*
X276234Y602677D01*
X276331Y602455D01*
X276400Y602233D01*
X276470Y602011D01*
X276511Y601803D01*
X276539Y601650D01*
X276553Y601581D01*
X276567Y601539D01*
Y601512D01*
Y601498D01*
X274445Y601331D01*
X274403Y601553D01*
X274362Y601734D01*
X274306Y601886D01*
X274251Y602011D01*
X274195Y602108D01*
X274154Y602177D01*
X274126Y602205D01*
X274112Y602219D01*
X274001Y602302D01*
X273890Y602371D01*
X273779Y602413D01*
X273682Y602455D01*
X273585Y602469D01*
X273516Y602482D01*
X273446D01*
X273308Y602469D01*
X273183Y602441D01*
X273072Y602399D01*
X272975Y602358D01*
X272892Y602316D01*
X272836Y602274D01*
X272808Y602247D01*
X272794Y602233D01*
X272711Y602136D01*
X272642Y602039D01*
X272600Y601942D01*
X272559Y601844D01*
X272545Y601761D01*
X272531Y601692D01*
Y601650D01*
Y601637D01*
X272545Y601512D01*
X272573Y601401D01*
X272614Y601276D01*
X272656Y601179D01*
X272711Y601082D01*
X272753Y601012D01*
X272781Y600971D01*
X272794Y600957D01*
X272850Y600888D01*
X272919Y600804D01*
X273086Y600638D01*
X273294Y600471D01*
X273488Y600291D01*
X273682Y600139D01*
X273835Y600014D01*
X273904Y599972D01*
X273946Y599931D01*
X273973Y599917D01*
X273987Y599903D01*
X274265Y599695D01*
X274514Y599501D01*
X274750Y599307D01*
X274958Y599126D01*
X275152Y598946D01*
X275319Y598793D01*
X275471Y598641D01*
X275596Y598502D01*
X275707Y598377D01*
X275818Y598266D01*
X275887Y598169D01*
X275956Y598100D01*
X276012Y598031D01*
X276040Y597989D01*
X276054Y597961D01*
X276067Y597948D01*
X276248Y597642D01*
X276400Y597323D01*
X276511Y597032D01*
X276594Y596769D01*
X276664Y596533D01*
X276678Y596436D01*
X276691Y596353D01*
X276705Y596297D01*
X276719Y596242D01*
Y596214D01*
Y596200D01*
X270368D01*
Y597920D01*
X273682D01*
X273474Y598100D01*
X273321Y598253D01*
X273266Y598294D01*
X273224Y598336D01*
X273197Y598350D01*
X273183Y598363D01*
X273086Y598447D01*
X272961Y598544D01*
X272808Y598641D01*
X272670Y598738D01*
X272531Y598835D01*
X272420Y598918D01*
X272351Y598974D01*
X272323Y598988D01*
X272129Y599126D01*
X271949Y599265D01*
X271782Y599404D01*
X271630Y599529D01*
X271505Y599653D01*
X271380Y599764D01*
X271172Y599972D01*
X271019Y600139D01*
X270922Y600263D01*
X270853Y600347D01*
X270839Y600374D01*
X270700Y600610D01*
X270603Y600846D01*
X270520Y601082D01*
X270478Y601276D01*
X270451Y601456D01*
X270423Y601595D01*
Y601637D01*
Y601678D01*
Y601692D01*
Y601706D01*
X270437Y601942D01*
X270478Y602164D01*
X270534Y602371D01*
X270603Y602538D01*
X270673Y602691D01*
X270728Y602788D01*
X270770Y602857D01*
X270784Y602885D01*
X270922Y603065D01*
X271089Y603231D01*
X271255Y603356D01*
X271408Y603467D01*
X271546Y603550D01*
X271671Y603620D01*
X271740Y603647D01*
X271754Y603661D01*
X271768D01*
X272018Y603745D01*
X272295Y603814D01*
X272586Y603855D01*
X272864Y603897D01*
X273113Y603911D01*
X273224D01*
X273321Y603925D01*
X273502D01*
X273876Y603911D01*
D02*
G37*
G36*
X369605Y599709D02*
X367816Y599445D01*
X367719Y599542D01*
X367635Y599626D01*
X367552Y599695D01*
X367483Y599750D01*
X367427Y599792D01*
X367386Y599820D01*
X367358Y599847D01*
X367344D01*
X367233Y599903D01*
X367122Y599931D01*
X366942Y599986D01*
X366859D01*
X366803Y600000D01*
X366748D01*
X366581Y599986D01*
X366415Y599944D01*
X366290Y599903D01*
X366179Y599847D01*
X366082Y599778D01*
X366027Y599737D01*
X365985Y599695D01*
X365971Y599681D01*
X365874Y599542D01*
X365805Y599390D01*
X365749Y599223D01*
X365722Y599057D01*
X365694Y598918D01*
X365680Y598793D01*
Y598710D01*
Y598696D01*
Y598683D01*
X365694Y598447D01*
X365722Y598253D01*
X365777Y598086D01*
X365819Y597948D01*
X365874Y597836D01*
X365930Y597767D01*
X365957Y597712D01*
X365971Y597698D01*
X366082Y597587D01*
X366207Y597504D01*
X366332Y597448D01*
X366443Y597407D01*
X366554Y597379D01*
X366637Y597365D01*
X366706D01*
X366845Y597379D01*
X366984Y597407D01*
X367108Y597448D01*
X367206Y597504D01*
X367289Y597545D01*
X367344Y597587D01*
X367386Y597615D01*
X367400Y597629D01*
X367497Y597739D01*
X367566Y597864D01*
X367635Y597989D01*
X367677Y598114D01*
X367705Y598225D01*
X367733Y598322D01*
X367746Y598377D01*
Y598405D01*
X369882Y598169D01*
X369827Y597975D01*
X369757Y597795D01*
X369702Y597642D01*
X369632Y597518D01*
X369591Y597407D01*
X369549Y597337D01*
X369521Y597282D01*
X369508Y597268D01*
X369314Y597018D01*
X369216Y596907D01*
X369119Y596824D01*
X369022Y596741D01*
X368953Y596685D01*
X368911Y596644D01*
X368898Y596630D01*
X368592Y596450D01*
X368440Y596380D01*
X368287Y596325D01*
X368162Y596269D01*
X368065Y596242D01*
X368010Y596228D01*
X367982Y596214D01*
X367774Y596172D01*
X367552Y596131D01*
X367330Y596103D01*
X367136Y596089D01*
X366956D01*
X366817Y596075D01*
X366692D01*
X366318Y596089D01*
X365985Y596131D01*
X365680Y596186D01*
X365430Y596255D01*
X365236Y596311D01*
X365153Y596339D01*
X365098Y596367D01*
X365042Y596394D01*
X365000Y596408D01*
X364987Y596422D01*
X364973D01*
X364737Y596575D01*
X364529Y596741D01*
X364349Y596907D01*
X364196Y597074D01*
X364085Y597226D01*
X364002Y597351D01*
X363946Y597434D01*
X363933Y597448D01*
Y597462D01*
X363808Y597712D01*
X363711Y597975D01*
X363655Y598211D01*
X363600Y598419D01*
X363572Y598613D01*
X363558Y598752D01*
Y598807D01*
Y598849D01*
Y598863D01*
Y598877D01*
X363572Y599071D01*
X363586Y599251D01*
X363669Y599584D01*
X363780Y599889D01*
X363919Y600139D01*
X364057Y600333D01*
X364113Y600416D01*
X364168Y600485D01*
X364210Y600541D01*
X364252Y600583D01*
X364265Y600596D01*
X364279Y600610D01*
X364418Y600735D01*
X364557Y600846D01*
X364709Y600929D01*
X364862Y601012D01*
X365167Y601137D01*
X365472Y601220D01*
X365722Y601262D01*
X365832Y601290D01*
X365930D01*
X366013Y601304D01*
X366124D01*
X366373Y601290D01*
X366484Y601276D01*
X366581Y601262D01*
X366679Y601248D01*
X366748Y601234D01*
X366790Y601220D01*
X366803D01*
X367053Y601151D01*
X367178Y601110D01*
X367289Y601068D01*
X367372Y601026D01*
X367455Y600998D01*
X367497Y600985D01*
X367511Y600971D01*
X367330Y602108D01*
X363919D01*
Y603800D01*
X368939D01*
X369605Y599709D01*
D02*
G37*
G36*
X386824Y603911D02*
X387088Y603883D01*
X387337Y603842D01*
X387573Y603772D01*
X387781Y603703D01*
X387975Y603620D01*
X388156Y603536D01*
X388322Y603453D01*
X388461Y603356D01*
X388585Y603273D01*
X388696Y603190D01*
X388793Y603120D01*
X388863Y603051D01*
X388904Y603009D01*
X388932Y602982D01*
X388946Y602968D01*
X389099Y602774D01*
X389223Y602566D01*
X389348Y602330D01*
X389445Y602094D01*
X389529Y601844D01*
X389598Y601595D01*
X389695Y601110D01*
X389737Y600874D01*
X389764Y600652D01*
X389778Y600458D01*
X389792Y600291D01*
X389806Y600153D01*
Y600056D01*
Y599986D01*
Y599958D01*
Y599695D01*
X389792Y599459D01*
X389764Y599223D01*
X389737Y599015D01*
X389709Y598807D01*
X389681Y598627D01*
X389639Y598447D01*
X389598Y598294D01*
X389570Y598156D01*
X389529Y598045D01*
X389501Y597934D01*
X389459Y597850D01*
X389445Y597781D01*
X389417Y597739D01*
X389404Y597712D01*
Y597698D01*
X389237Y597407D01*
X389057Y597143D01*
X388863Y596935D01*
X388696Y596769D01*
X388530Y596630D01*
X388405Y596533D01*
X388322Y596477D01*
X388308Y596464D01*
X388294D01*
X388017Y596339D01*
X387712Y596242D01*
X387407Y596172D01*
X387115Y596131D01*
X386866Y596103D01*
X386755Y596089D01*
X386658Y596075D01*
X386464D01*
X386131Y596089D01*
X385826Y596117D01*
X385548Y596172D01*
X385326Y596228D01*
X385146Y596283D01*
X385007Y596339D01*
X384924Y596367D01*
X384896Y596380D01*
X384674Y596519D01*
X384467Y596658D01*
X384300Y596824D01*
X384161Y596977D01*
X384050Y597115D01*
X383967Y597226D01*
X383912Y597296D01*
X383898Y597323D01*
X383773Y597559D01*
X383690Y597795D01*
X383620Y598031D01*
X383579Y598239D01*
X383551Y598433D01*
X383537Y598572D01*
Y598627D01*
Y598669D01*
Y598683D01*
Y598696D01*
X383551Y598904D01*
X383565Y599099D01*
X383648Y599445D01*
X383759Y599764D01*
X383884Y600028D01*
X383953Y600139D01*
X384023Y600236D01*
X384078Y600333D01*
X384134Y600402D01*
X384175Y600458D01*
X384217Y600499D01*
X384231Y600513D01*
X384245Y600527D01*
X384383Y600652D01*
X384522Y600777D01*
X384661Y600874D01*
X384813Y600957D01*
X385104Y601082D01*
X385382Y601165D01*
X385618Y601220D01*
X385715Y601234D01*
X385812Y601248D01*
X385881Y601262D01*
X385978D01*
X386158Y601248D01*
X386339Y601234D01*
X386491Y601207D01*
X386630Y601165D01*
X386741Y601123D01*
X386824Y601096D01*
X386880Y601082D01*
X386894Y601068D01*
X387046Y600998D01*
X387185Y600901D01*
X387309Y600804D01*
X387434Y600721D01*
X387531Y600638D01*
X387601Y600569D01*
X387656Y600513D01*
X387670Y600499D01*
X387656Y600721D01*
X387629Y600915D01*
X387601Y601096D01*
X387587Y601262D01*
X387559Y601415D01*
X387531Y601539D01*
X387504Y601650D01*
X387476Y601761D01*
X387462Y601844D01*
X387434Y601914D01*
X387393Y602011D01*
X387379Y602080D01*
X387365Y602094D01*
X387254Y602274D01*
X387115Y602399D01*
X386991Y602496D01*
X386852Y602552D01*
X386741Y602593D01*
X386644Y602607D01*
X386588Y602621D01*
X386561D01*
X386464Y602607D01*
X386367Y602593D01*
X386214Y602524D01*
X386158Y602482D01*
X386117Y602455D01*
X386103Y602441D01*
X386089Y602427D01*
X386020Y602344D01*
X385964Y602261D01*
X385867Y602052D01*
X385840Y601969D01*
X385812Y601886D01*
X385798Y601831D01*
Y601817D01*
X383704Y602066D01*
X383787Y602288D01*
X383870Y602496D01*
X383953Y602663D01*
X384050Y602815D01*
X384120Y602926D01*
X384189Y603023D01*
X384231Y603079D01*
X384245Y603093D01*
X384383Y603231D01*
X384522Y603356D01*
X384674Y603467D01*
X384813Y603550D01*
X384938Y603620D01*
X385035Y603661D01*
X385091Y603689D01*
X385118Y603703D01*
X385326Y603772D01*
X385562Y603828D01*
X385798Y603869D01*
X386034Y603897D01*
X386228Y603911D01*
X386394Y603925D01*
X386547D01*
X386824Y603911D01*
D02*
G37*
G36*
X393994Y603661D02*
X394147Y603425D01*
X394299Y603218D01*
X394452Y603051D01*
X394590Y602898D01*
X394701Y602788D01*
X394771Y602732D01*
X394785Y602704D01*
X394799D01*
X395034Y602524D01*
X395312Y602371D01*
X395589Y602233D01*
X395853Y602108D01*
X396088Y602011D01*
X396199Y601969D01*
X396282Y601928D01*
X396366Y601914D01*
X396421Y601886D01*
X396449Y601872D01*
X396463D01*
Y600153D01*
X396199Y600236D01*
X395963Y600305D01*
X395769Y600388D01*
X395589Y600458D01*
X395450Y600513D01*
X395339Y600555D01*
X395284Y600583D01*
X395256Y600596D01*
X395076Y600693D01*
X394896Y600804D01*
X394715Y600915D01*
X394563Y601012D01*
X394438Y601110D01*
X394327Y601179D01*
X394272Y601234D01*
X394244Y601248D01*
Y596200D01*
X392108D01*
Y603925D01*
X393855D01*
X393994Y603661D01*
D02*
G37*
G36*
X373973D02*
X374126Y603425D01*
X374278Y603218D01*
X374431Y603051D01*
X374570Y602898D01*
X374681Y602788D01*
X374750Y602732D01*
X374764Y602704D01*
X374778D01*
X375013Y602524D01*
X375291Y602371D01*
X375568Y602233D01*
X375832Y602108D01*
X376067Y602011D01*
X376178Y601969D01*
X376262Y601928D01*
X376345Y601914D01*
X376400Y601886D01*
X376428Y601872D01*
X376442D01*
Y600153D01*
X376178Y600236D01*
X375943Y600305D01*
X375748Y600388D01*
X375568Y600458D01*
X375429Y600513D01*
X375318Y600555D01*
X375263Y600583D01*
X375235Y600596D01*
X375055Y600693D01*
X374875Y600804D01*
X374695Y600915D01*
X374542Y601012D01*
X374417Y601110D01*
X374306Y601179D01*
X374251Y601234D01*
X374223Y601248D01*
Y596200D01*
X372087D01*
Y603925D01*
X373835D01*
X373973Y603661D01*
D02*
G37*
G36*
X294077Y603599D02*
X294230Y603363D01*
X294382Y603155D01*
X294535Y602989D01*
X294674Y602836D01*
X294785Y602725D01*
X294854Y602670D01*
X294868Y602642D01*
X294882D01*
X295117Y602462D01*
X295395Y602309D01*
X295672Y602170D01*
X295936Y602046D01*
X296171Y601949D01*
X296282Y601907D01*
X296366Y601865D01*
X296449Y601851D01*
X296504Y601824D01*
X296532Y601810D01*
X296546D01*
Y600090D01*
X296282Y600173D01*
X296047Y600243D01*
X295853Y600326D01*
X295672Y600395D01*
X295534Y600451D01*
X295422Y600492D01*
X295367Y600520D01*
X295339Y600534D01*
X295159Y600631D01*
X294979Y600742D01*
X294799Y600853D01*
X294646Y600950D01*
X294521Y601047D01*
X294410Y601116D01*
X294355Y601172D01*
X294327Y601186D01*
Y596138D01*
X292191D01*
Y603862D01*
X293939D01*
X294077Y603599D01*
D02*
G37*
G36*
X333356Y596200D02*
X331151D01*
Y600388D01*
X328294Y596200D01*
X326075D01*
Y603800D01*
X328294D01*
Y599584D01*
X331179Y603800D01*
X333356D01*
Y596200D01*
D02*
G37*
G36*
X266970Y603911D02*
X267275Y603869D01*
X267538Y603828D01*
X267774Y603772D01*
X267954Y603703D01*
X268093Y603661D01*
X268176Y603620D01*
X268190Y603606D01*
X268204D01*
X268426Y603481D01*
X268620Y603328D01*
X268787Y603162D01*
X268925Y603009D01*
X269036Y602871D01*
X269119Y602760D01*
X269175Y602691D01*
X269189Y602677D01*
Y602663D01*
X269300Y602427D01*
X269383Y602191D01*
X269452Y601955D01*
X269494Y601747D01*
X269522Y601553D01*
X269535Y601415D01*
Y601359D01*
Y601317D01*
Y601304D01*
Y601290D01*
X269522Y601082D01*
X269508Y600888D01*
X269424Y600541D01*
X269314Y600222D01*
X269189Y599958D01*
X269119Y599847D01*
X269064Y599750D01*
X269008Y599667D01*
X268953Y599584D01*
X268911Y599529D01*
X268870Y599487D01*
X268856Y599473D01*
X268842Y599459D01*
X268703Y599334D01*
X268565Y599223D01*
X268426Y599126D01*
X268273Y599043D01*
X267982Y598918D01*
X267719Y598835D01*
X267483Y598780D01*
X267372Y598766D01*
X267289Y598752D01*
X267219Y598738D01*
X267122D01*
X266928Y598752D01*
X266762Y598766D01*
X266595Y598793D01*
X266471Y598835D01*
X266360Y598863D01*
X266276Y598890D01*
X266221Y598904D01*
X266207Y598918D01*
X266054Y599002D01*
X265916Y599085D01*
X265777Y599182D01*
X265666Y599265D01*
X265555Y599348D01*
X265486Y599417D01*
X265430Y599473D01*
X265417Y599487D01*
X265444Y599265D01*
X265458Y599071D01*
X265486Y598890D01*
X265514Y598724D01*
X265541Y598572D01*
X265569Y598447D01*
X265597Y598322D01*
X265611Y598225D01*
X265638Y598142D01*
X265666Y598072D01*
X265694Y597961D01*
X265722Y597892D01*
X265735Y597878D01*
X265846Y597712D01*
X265971Y597587D01*
X266110Y597504D01*
X266235Y597448D01*
X266346Y597407D01*
X266443Y597393D01*
X266498Y597379D01*
X266526D01*
X266623Y597393D01*
X266720Y597407D01*
X266873Y597476D01*
X266928Y597504D01*
X266970Y597531D01*
X266998Y597545D01*
X267011Y597559D01*
X267081Y597642D01*
X267136Y597739D01*
X267219Y597934D01*
X267247Y598031D01*
X267261Y598114D01*
X267275Y598169D01*
Y598183D01*
X269369Y597906D01*
X269300Y597684D01*
X269216Y597490D01*
X269119Y597323D01*
X269036Y597171D01*
X268967Y597060D01*
X268897Y596963D01*
X268856Y596907D01*
X268842Y596894D01*
X268703Y596755D01*
X268565Y596630D01*
X268412Y596519D01*
X268287Y596436D01*
X268162Y596367D01*
X268065Y596325D01*
X268010Y596297D01*
X267982Y596283D01*
X267774Y596214D01*
X267538Y596158D01*
X267289Y596131D01*
X267067Y596103D01*
X266859Y596089D01*
X266692Y596075D01*
X266540D01*
X266262Y596089D01*
X265999Y596117D01*
X265749Y596158D01*
X265527Y596228D01*
X265306Y596297D01*
X265111Y596380D01*
X264931Y596464D01*
X264778Y596547D01*
X264626Y596630D01*
X264501Y596727D01*
X264404Y596796D01*
X264307Y596866D01*
X264238Y596935D01*
X264196Y596977D01*
X264168Y597004D01*
X264154Y597018D01*
X264002Y597212D01*
X263863Y597421D01*
X263752Y597656D01*
X263655Y597892D01*
X263558Y598142D01*
X263489Y598391D01*
X263392Y598877D01*
X263350Y599112D01*
X263322Y599334D01*
X263309Y599529D01*
X263295Y599695D01*
X263281Y599834D01*
Y599944D01*
Y600000D01*
Y600028D01*
X263295Y600527D01*
X263322Y600749D01*
X263350Y600971D01*
X263378Y601165D01*
X263406Y601359D01*
X263447Y601525D01*
X263489Y601678D01*
X263530Y601817D01*
X263558Y601928D01*
X263600Y602039D01*
X263627Y602122D01*
X263655Y602191D01*
X263683Y602233D01*
X263697Y602261D01*
Y602274D01*
X263863Y602579D01*
X264044Y602829D01*
X264224Y603051D01*
X264404Y603218D01*
X264571Y603356D01*
X264695Y603453D01*
X264778Y603509D01*
X264792Y603523D01*
X264806D01*
X265084Y603661D01*
X265375Y603758D01*
X265680Y603828D01*
X265971Y603869D01*
X266221Y603911D01*
X266332D01*
X266429Y603925D01*
X266623D01*
X266970Y603911D01*
D02*
G37*
G36*
X338876D02*
X339084Y603897D01*
X339292Y603869D01*
X339472Y603842D01*
X339638Y603800D01*
X339805Y603772D01*
X339944Y603745D01*
X340069Y603703D01*
X340179Y603675D01*
X340276Y603633D01*
X340360Y603606D01*
X340415Y603592D01*
X340457Y603564D01*
X340485Y603550D01*
X340498D01*
X340845Y603356D01*
X341150Y603134D01*
X341400Y602898D01*
X341622Y602677D01*
X341788Y602469D01*
X341899Y602302D01*
X341941Y602233D01*
X341968Y602191D01*
X341996Y602164D01*
Y602150D01*
X342163Y601789D01*
X342287Y601428D01*
X342384Y601068D01*
X342440Y600735D01*
X342468Y600583D01*
X342482Y600444D01*
X342495Y600319D01*
Y600208D01*
X342509Y600125D01*
Y600056D01*
Y600014D01*
Y600000D01*
X342495Y599570D01*
X342440Y599168D01*
X342371Y598807D01*
X342329Y598641D01*
X342273Y598502D01*
X342232Y598363D01*
X342190Y598239D01*
X342163Y598142D01*
X342121Y598058D01*
X342093Y597989D01*
X342066Y597934D01*
X342052Y597906D01*
Y597892D01*
X341857Y597573D01*
X341650Y597296D01*
X341428Y597060D01*
X341219Y596880D01*
X341025Y596727D01*
X340873Y596616D01*
X340817Y596588D01*
X340776Y596561D01*
X340748Y596533D01*
X340734D01*
X340387Y596380D01*
X340027Y596269D01*
X339652Y596186D01*
X339306Y596131D01*
X339139Y596117D01*
X338987Y596103D01*
X338862Y596089D01*
X338737D01*
X338640Y596075D01*
X338515D01*
X338113Y596089D01*
X337752Y596117D01*
X337420Y596158D01*
X337142Y596200D01*
X337031Y596228D01*
X336920Y596242D01*
X336837Y596269D01*
X336754Y596283D01*
X336698Y596297D01*
X336657Y596311D01*
X336629Y596325D01*
X336615D01*
X336310Y596436D01*
X335991Y596588D01*
X335672Y596755D01*
X335381Y596907D01*
X335131Y597060D01*
X335020Y597129D01*
X334937Y597185D01*
X334854Y597226D01*
X334799Y597268D01*
X334771Y597282D01*
X334757Y597296D01*
Y600541D01*
X338390D01*
Y598960D01*
X336809D01*
Y598239D01*
X336976Y598142D01*
X337142Y598058D01*
X337281Y597989D01*
X337406Y597948D01*
X337503Y597906D01*
X337572Y597878D01*
X337628Y597850D01*
X337641D01*
X337905Y597781D01*
X338030Y597767D01*
X338155Y597753D01*
X338252Y597739D01*
X338390D01*
X338682Y597767D01*
X338945Y597823D01*
X339167Y597906D01*
X339347Y598003D01*
X339500Y598100D01*
X339611Y598183D01*
X339666Y598239D01*
X339694Y598266D01*
X339777Y598377D01*
X339847Y598488D01*
X339958Y598766D01*
X340041Y599057D01*
X340096Y599348D01*
X340124Y599612D01*
X340138Y599723D01*
Y599834D01*
X340152Y599917D01*
Y599972D01*
Y600014D01*
Y600028D01*
Y600236D01*
X340138Y600430D01*
X340110Y600610D01*
X340082Y600777D01*
X340041Y600929D01*
X340013Y601068D01*
X339916Y601304D01*
X339833Y601484D01*
X339763Y601623D01*
X339708Y601692D01*
X339694Y601720D01*
X339514Y601900D01*
X339306Y602039D01*
X339098Y602136D01*
X338904Y602191D01*
X338723Y602233D01*
X338585Y602247D01*
X338529Y602261D01*
X338460D01*
X338266Y602247D01*
X338099Y602219D01*
X337961Y602191D01*
X337836Y602150D01*
X337739Y602094D01*
X337655Y602066D01*
X337614Y602039D01*
X337600Y602025D01*
X337489Y601928D01*
X337378Y601831D01*
X337295Y601720D01*
X337225Y601623D01*
X337184Y601525D01*
X337142Y601442D01*
X337114Y601387D01*
Y601373D01*
X334854Y601775D01*
X334937Y602039D01*
X335034Y602274D01*
X335145Y602482D01*
X335242Y602649D01*
X335339Y602788D01*
X335409Y602898D01*
X335464Y602954D01*
X335478Y602982D01*
X335644Y603148D01*
X335811Y603301D01*
X335991Y603425D01*
X336158Y603523D01*
X336296Y603592D01*
X336407Y603647D01*
X336490Y603675D01*
X336504Y603689D01*
X336518D01*
X336643Y603731D01*
X336782Y603772D01*
X337073Y603828D01*
X337392Y603869D01*
X337697Y603897D01*
X337974Y603911D01*
X338085Y603925D01*
X338404D01*
X338876Y603911D01*
D02*
G37*
G36*
X324494Y596200D02*
X321013D01*
X320764Y596214D01*
X320528Y596228D01*
X320278Y596255D01*
X320070Y596297D01*
X319876Y596339D01*
X319723Y596367D01*
X319668Y596380D01*
X319626D01*
X319613Y596394D01*
X319599D01*
X319391Y596464D01*
X319196Y596561D01*
X319030Y596658D01*
X318864Y596755D01*
X318739Y596852D01*
X318642Y596935D01*
X318586Y596991D01*
X318559Y597004D01*
X318378Y597185D01*
X318226Y597379D01*
X318087Y597559D01*
X317976Y597739D01*
X317893Y597892D01*
X317837Y598017D01*
X317796Y598100D01*
X317782Y598114D01*
Y598128D01*
X317685Y598405D01*
X317616Y598710D01*
X317560Y599029D01*
X317532Y599320D01*
X317505Y599598D01*
Y599709D01*
X317491Y599820D01*
Y599903D01*
Y599958D01*
Y600000D01*
Y600014D01*
X317505Y600305D01*
X317518Y600569D01*
X317546Y600818D01*
X317588Y601040D01*
X317629Y601220D01*
X317657Y601359D01*
X317671Y601415D01*
Y601456D01*
X317685Y601470D01*
Y601484D01*
X317768Y601734D01*
X317851Y601969D01*
X317948Y602177D01*
X318045Y602358D01*
X318143Y602510D01*
X318212Y602607D01*
X318267Y602677D01*
X318281Y602704D01*
X318448Y602885D01*
X318614Y603051D01*
X318794Y603190D01*
X318961Y603301D01*
X319113Y603398D01*
X319224Y603453D01*
X319307Y603495D01*
X319321Y603509D01*
X319335D01*
X319585Y603606D01*
X319862Y603675D01*
X320140Y603731D01*
X320417Y603758D01*
X320653Y603786D01*
X320750D01*
X320847Y603800D01*
X324494D01*
Y596200D01*
D02*
G37*
G36*
X290111Y599286D02*
Y597552D01*
X286255D01*
Y596138D01*
X284411D01*
Y597552D01*
X283454D01*
Y599189D01*
X284411D01*
Y603862D01*
X286255D01*
X290111Y599286D01*
D02*
G37*
G36*
X30306Y387661D02*
X30459Y387425D01*
X30611Y387217D01*
X30764Y387051D01*
X30902Y386898D01*
X31013Y386787D01*
X31083Y386732D01*
X31096Y386704D01*
X31110D01*
X31346Y386524D01*
X31623Y386371D01*
X31901Y386233D01*
X32164Y386108D01*
X32400Y386011D01*
X32511Y385969D01*
X32594Y385928D01*
X32678Y385914D01*
X32733Y385886D01*
X32761Y385872D01*
X32775D01*
Y384152D01*
X32511Y384236D01*
X32275Y384305D01*
X32081Y384388D01*
X31901Y384458D01*
X31762Y384513D01*
X31651Y384555D01*
X31596Y384582D01*
X31568Y384596D01*
X31388Y384693D01*
X31207Y384804D01*
X31027Y384915D01*
X30875Y385012D01*
X30750Y385109D01*
X30639Y385179D01*
X30583Y385234D01*
X30556Y385248D01*
Y380200D01*
X28420D01*
Y387925D01*
X30167D01*
X30306Y387661D01*
D02*
G37*
G36*
X42593Y380200D02*
X40291D01*
X38960Y384985D01*
X37629Y380200D01*
X35312D01*
X33634Y387800D01*
X35867D01*
X36672Y383542D01*
X37850Y387800D01*
X40069D01*
X41248Y383542D01*
X42052Y387800D01*
X44271D01*
X42593Y380200D01*
D02*
G37*
G36*
X48474Y387911D02*
X48848Y387883D01*
X49167Y387828D01*
X49320Y387800D01*
X49444Y387772D01*
X49555Y387744D01*
X49652Y387717D01*
X49736Y387689D01*
X49805Y387661D01*
X49860Y387647D01*
X49902Y387634D01*
X49916Y387620D01*
X49930D01*
X50166Y387495D01*
X50374Y387370D01*
X50554Y387231D01*
X50693Y387107D01*
X50803Y386982D01*
X50887Y386885D01*
X50942Y386829D01*
X50956Y386801D01*
X51067Y386607D01*
X51150Y386413D01*
X51206Y386219D01*
X51247Y386053D01*
X51275Y385914D01*
X51289Y385789D01*
Y385720D01*
Y385706D01*
Y385692D01*
X51275Y385526D01*
X51261Y385373D01*
X51192Y385096D01*
X51081Y384846D01*
X50956Y384638D01*
X50845Y384458D01*
X50734Y384333D01*
X50665Y384263D01*
X50637Y384250D01*
Y384236D01*
X50498Y384125D01*
X50346Y384028D01*
X50013Y383847D01*
X49652Y383695D01*
X49278Y383556D01*
X49111Y383501D01*
X48959Y383459D01*
X48806Y383418D01*
X48682Y383376D01*
X48584Y383362D01*
X48501Y383334D01*
X48446Y383320D01*
X48432D01*
X48266Y383279D01*
X48113Y383237D01*
X47974Y383209D01*
X47849Y383168D01*
X47642Y383085D01*
X47475Y383015D01*
X47364Y382960D01*
X47281Y382918D01*
X47239Y382891D01*
X47225Y382877D01*
X47142Y382793D01*
X47073Y382696D01*
X47031Y382613D01*
X46990Y382530D01*
X46976Y382461D01*
X46962Y382405D01*
Y382364D01*
Y382350D01*
X46976Y382239D01*
X47003Y382128D01*
X47045Y382031D01*
X47101Y381948D01*
X47156Y381892D01*
X47198Y381837D01*
X47225Y381809D01*
X47239Y381795D01*
X47350Y381726D01*
X47475Y381670D01*
X47600Y381628D01*
X47725Y381601D01*
X47849Y381587D01*
X47933Y381573D01*
X48016D01*
X48252Y381587D01*
X48460Y381642D01*
X48640Y381712D01*
X48793Y381809D01*
X48903Y381892D01*
X48987Y381961D01*
X49042Y382017D01*
X49056Y382031D01*
X49125Y382142D01*
X49195Y382280D01*
X49278Y382558D01*
X49320Y382669D01*
X49333Y382766D01*
X49347Y382835D01*
Y382863D01*
X51580Y382710D01*
X51552Y382502D01*
X51511Y382294D01*
X51414Y381934D01*
X51275Y381601D01*
X51122Y381323D01*
X51053Y381212D01*
X50984Y381101D01*
X50914Y381018D01*
X50859Y380949D01*
X50817Y380894D01*
X50776Y380852D01*
X50762Y380824D01*
X50748Y380810D01*
X50595Y380685D01*
X50415Y380574D01*
X50221Y380464D01*
X50013Y380380D01*
X49569Y380256D01*
X49125Y380172D01*
X48903Y380131D01*
X48709Y380117D01*
X48529Y380103D01*
X48376Y380089D01*
X48238Y380075D01*
X48057D01*
X47655Y380089D01*
X47309Y380117D01*
X46990Y380172D01*
X46726Y380228D01*
X46615Y380256D01*
X46518Y380283D01*
X46421Y380311D01*
X46352Y380339D01*
X46296Y380353D01*
X46255Y380367D01*
X46241Y380380D01*
X46227D01*
X45963Y380519D01*
X45742Y380658D01*
X45547Y380810D01*
X45381Y380963D01*
X45256Y381101D01*
X45159Y381212D01*
X45104Y381282D01*
X45090Y381310D01*
X44951Y381545D01*
X44854Y381781D01*
X44771Y382017D01*
X44729Y382225D01*
X44701Y382405D01*
X44674Y382544D01*
Y382599D01*
Y382641D01*
Y382655D01*
Y382669D01*
X44688Y382891D01*
X44715Y383112D01*
X44771Y383293D01*
X44826Y383459D01*
X44882Y383598D01*
X44937Y383709D01*
X44965Y383764D01*
X44979Y383792D01*
X45104Y383972D01*
X45256Y384139D01*
X45423Y384277D01*
X45575Y384402D01*
X45728Y384499D01*
X45839Y384569D01*
X45922Y384610D01*
X45936Y384624D01*
X45950D01*
X46088Y384693D01*
X46241Y384749D01*
X46574Y384874D01*
X46948Y384999D01*
X47309Y385096D01*
X47475Y385137D01*
X47642Y385179D01*
X47794Y385220D01*
X47919Y385248D01*
X48016Y385276D01*
X48099Y385290D01*
X48155Y385304D01*
X48169D01*
X48376Y385345D01*
X48543Y385401D01*
X48682Y385442D01*
X48779Y385484D01*
X48862Y385526D01*
X48903Y385553D01*
X48931Y385581D01*
X48945D01*
X49001Y385636D01*
X49042Y385692D01*
X49084Y385803D01*
X49111Y385886D01*
Y385900D01*
Y385914D01*
X49098Y385997D01*
X49084Y386080D01*
X49015Y386219D01*
X48945Y386302D01*
X48931Y386316D01*
X48917Y386330D01*
X48834Y386385D01*
X48737Y386441D01*
X48529Y386482D01*
X48432Y386496D01*
X48363Y386510D01*
X48293D01*
X48113Y386496D01*
X47961Y386469D01*
X47822Y386441D01*
X47711Y386399D01*
X47628Y386344D01*
X47572Y386316D01*
X47530Y386288D01*
X47517Y386274D01*
X47420Y386177D01*
X47336Y386053D01*
X47281Y385928D01*
X47225Y385817D01*
X47184Y385706D01*
X47156Y385609D01*
X47142Y385553D01*
Y385526D01*
X44923Y385650D01*
X44965Y385858D01*
X45006Y386066D01*
X45062Y386247D01*
X45131Y386413D01*
X45201Y386566D01*
X45284Y386718D01*
X45353Y386843D01*
X45436Y386954D01*
X45589Y387134D01*
X45714Y387273D01*
X45811Y387342D01*
X45825Y387370D01*
X45839D01*
X45991Y387467D01*
X46158Y387550D01*
X46504Y387689D01*
X46879Y387786D01*
X47239Y387855D01*
X47406Y387883D01*
X47558Y387897D01*
X47697Y387911D01*
X47822D01*
X47919Y387925D01*
X48057D01*
X48474Y387911D01*
D02*
G37*
G36*
X43356Y332200D02*
X41151D01*
Y336388D01*
X38294Y332200D01*
X36075D01*
Y339800D01*
X38294D01*
Y335584D01*
X41179Y339800D01*
X43356D01*
Y332200D01*
D02*
G37*
G36*
X48876Y339911D02*
X49084Y339897D01*
X49292Y339869D01*
X49472Y339841D01*
X49639Y339800D01*
X49805Y339772D01*
X49944Y339744D01*
X50068Y339703D01*
X50179Y339675D01*
X50276Y339633D01*
X50360Y339606D01*
X50415Y339592D01*
X50457Y339564D01*
X50484Y339550D01*
X50498D01*
X50845Y339356D01*
X51150Y339134D01*
X51400Y338899D01*
X51622Y338677D01*
X51788Y338469D01*
X51899Y338302D01*
X51941Y338233D01*
X51968Y338191D01*
X51996Y338163D01*
Y338150D01*
X52163Y337789D01*
X52287Y337428D01*
X52385Y337068D01*
X52440Y336735D01*
X52468Y336582D01*
X52482Y336444D01*
X52495Y336319D01*
Y336208D01*
X52509Y336125D01*
Y336055D01*
Y336014D01*
Y336000D01*
X52495Y335570D01*
X52440Y335168D01*
X52371Y334807D01*
X52329Y334641D01*
X52274Y334502D01*
X52232Y334364D01*
X52190Y334239D01*
X52163Y334142D01*
X52121Y334058D01*
X52093Y333989D01*
X52066Y333934D01*
X52052Y333906D01*
Y333892D01*
X51858Y333573D01*
X51649Y333296D01*
X51428Y333060D01*
X51220Y332880D01*
X51025Y332727D01*
X50873Y332616D01*
X50817Y332588D01*
X50776Y332561D01*
X50748Y332533D01*
X50734D01*
X50387Y332380D01*
X50027Y332269D01*
X49652Y332186D01*
X49306Y332131D01*
X49139Y332117D01*
X48987Y332103D01*
X48862Y332089D01*
X48737D01*
X48640Y332075D01*
X48515D01*
X48113Y332089D01*
X47752Y332117D01*
X47420Y332158D01*
X47142Y332200D01*
X47031Y332228D01*
X46920Y332242D01*
X46837Y332269D01*
X46754Y332283D01*
X46698Y332297D01*
X46657Y332311D01*
X46629Y332325D01*
X46615D01*
X46310Y332436D01*
X45991Y332588D01*
X45672Y332755D01*
X45381Y332907D01*
X45131Y333060D01*
X45020Y333129D01*
X44937Y333185D01*
X44854Y333226D01*
X44798Y333268D01*
X44771Y333282D01*
X44757Y333296D01*
Y336541D01*
X48390D01*
Y334960D01*
X46809D01*
Y334239D01*
X46976Y334142D01*
X47142Y334058D01*
X47281Y333989D01*
X47406Y333947D01*
X47503Y333906D01*
X47572Y333878D01*
X47628Y333850D01*
X47642D01*
X47905Y333781D01*
X48030Y333767D01*
X48155Y333753D01*
X48252Y333739D01*
X48390D01*
X48682Y333767D01*
X48945Y333823D01*
X49167Y333906D01*
X49347Y334003D01*
X49500Y334100D01*
X49611Y334183D01*
X49666Y334239D01*
X49694Y334266D01*
X49777Y334377D01*
X49847Y334488D01*
X49957Y334766D01*
X50041Y335057D01*
X50096Y335348D01*
X50124Y335612D01*
X50138Y335723D01*
Y335834D01*
X50152Y335917D01*
Y335972D01*
Y336014D01*
Y336028D01*
Y336236D01*
X50138Y336430D01*
X50110Y336610D01*
X50082Y336777D01*
X50041Y336929D01*
X50013Y337068D01*
X49916Y337304D01*
X49833Y337484D01*
X49763Y337623D01*
X49708Y337692D01*
X49694Y337720D01*
X49514Y337900D01*
X49306Y338039D01*
X49098Y338136D01*
X48903Y338191D01*
X48723Y338233D01*
X48584Y338247D01*
X48529Y338260D01*
X48460D01*
X48266Y338247D01*
X48099Y338219D01*
X47961Y338191D01*
X47836Y338150D01*
X47739Y338094D01*
X47655Y338066D01*
X47614Y338039D01*
X47600Y338025D01*
X47489Y337928D01*
X47378Y337831D01*
X47295Y337720D01*
X47225Y337623D01*
X47184Y337525D01*
X47142Y337442D01*
X47115Y337387D01*
Y337373D01*
X44854Y337775D01*
X44937Y338039D01*
X45034Y338274D01*
X45145Y338482D01*
X45242Y338649D01*
X45339Y338787D01*
X45409Y338899D01*
X45464Y338954D01*
X45478Y338982D01*
X45644Y339148D01*
X45811Y339301D01*
X45991Y339426D01*
X46158Y339523D01*
X46296Y339592D01*
X46407Y339647D01*
X46490Y339675D01*
X46504Y339689D01*
X46518D01*
X46643Y339731D01*
X46782Y339772D01*
X47073Y339828D01*
X47392Y339869D01*
X47697Y339897D01*
X47974Y339911D01*
X48085Y339925D01*
X48404D01*
X48876Y339911D01*
D02*
G37*
G36*
X34494Y332200D02*
X31013D01*
X30764Y332214D01*
X30528Y332228D01*
X30278Y332256D01*
X30070Y332297D01*
X29876Y332339D01*
X29723Y332366D01*
X29668Y332380D01*
X29626D01*
X29613Y332394D01*
X29599D01*
X29391Y332463D01*
X29197Y332561D01*
X29030Y332658D01*
X28864Y332755D01*
X28739Y332852D01*
X28642Y332935D01*
X28586Y332990D01*
X28559Y333004D01*
X28378Y333185D01*
X28226Y333379D01*
X28087Y333559D01*
X27976Y333739D01*
X27893Y333892D01*
X27837Y334017D01*
X27796Y334100D01*
X27782Y334114D01*
Y334128D01*
X27685Y334405D01*
X27615Y334710D01*
X27560Y335029D01*
X27532Y335320D01*
X27505Y335598D01*
Y335709D01*
X27491Y335820D01*
Y335903D01*
Y335958D01*
Y336000D01*
Y336014D01*
X27505Y336305D01*
X27518Y336569D01*
X27546Y336818D01*
X27588Y337040D01*
X27629Y337220D01*
X27657Y337359D01*
X27671Y337415D01*
Y337456D01*
X27685Y337470D01*
Y337484D01*
X27768Y337733D01*
X27851Y337969D01*
X27948Y338177D01*
X28045Y338358D01*
X28142Y338510D01*
X28212Y338607D01*
X28267Y338677D01*
X28281Y338704D01*
X28448Y338885D01*
X28614Y339051D01*
X28794Y339190D01*
X28961Y339301D01*
X29113Y339398D01*
X29224Y339453D01*
X29307Y339495D01*
X29321Y339509D01*
X29335D01*
X29585Y339606D01*
X29862Y339675D01*
X30140Y339731D01*
X30417Y339758D01*
X30653Y339786D01*
X30750D01*
X30847Y339800D01*
X34494D01*
Y332200D01*
D02*
G37*
G36*
X43356Y280200D02*
X41151D01*
Y284388D01*
X38294Y280200D01*
X36075D01*
Y287800D01*
X38294D01*
Y283584D01*
X41179Y287800D01*
X43356D01*
Y280200D01*
D02*
G37*
G36*
X48876Y287911D02*
X49084Y287897D01*
X49292Y287869D01*
X49472Y287841D01*
X49639Y287800D01*
X49805Y287772D01*
X49944Y287745D01*
X50068Y287703D01*
X50179Y287675D01*
X50276Y287633D01*
X50360Y287606D01*
X50415Y287592D01*
X50457Y287564D01*
X50484Y287550D01*
X50498D01*
X50845Y287356D01*
X51150Y287134D01*
X51400Y286898D01*
X51622Y286677D01*
X51788Y286469D01*
X51899Y286302D01*
X51941Y286233D01*
X51968Y286191D01*
X51996Y286164D01*
Y286150D01*
X52163Y285789D01*
X52287Y285428D01*
X52385Y285068D01*
X52440Y284735D01*
X52468Y284583D01*
X52482Y284444D01*
X52495Y284319D01*
Y284208D01*
X52509Y284125D01*
Y284056D01*
Y284014D01*
Y284000D01*
X52495Y283570D01*
X52440Y283168D01*
X52371Y282807D01*
X52329Y282641D01*
X52274Y282502D01*
X52232Y282363D01*
X52190Y282239D01*
X52163Y282142D01*
X52121Y282058D01*
X52093Y281989D01*
X52066Y281934D01*
X52052Y281906D01*
Y281892D01*
X51858Y281573D01*
X51649Y281296D01*
X51428Y281060D01*
X51220Y280880D01*
X51025Y280727D01*
X50873Y280616D01*
X50817Y280588D01*
X50776Y280561D01*
X50748Y280533D01*
X50734D01*
X50387Y280380D01*
X50027Y280269D01*
X49652Y280186D01*
X49306Y280131D01*
X49139Y280117D01*
X48987Y280103D01*
X48862Y280089D01*
X48737D01*
X48640Y280075D01*
X48515D01*
X48113Y280089D01*
X47752Y280117D01*
X47420Y280158D01*
X47142Y280200D01*
X47031Y280228D01*
X46920Y280242D01*
X46837Y280269D01*
X46754Y280283D01*
X46698Y280297D01*
X46657Y280311D01*
X46629Y280325D01*
X46615D01*
X46310Y280436D01*
X45991Y280588D01*
X45672Y280755D01*
X45381Y280907D01*
X45131Y281060D01*
X45020Y281129D01*
X44937Y281185D01*
X44854Y281226D01*
X44798Y281268D01*
X44771Y281282D01*
X44757Y281296D01*
Y284541D01*
X48390D01*
Y282960D01*
X46809D01*
Y282239D01*
X46976Y282142D01*
X47142Y282058D01*
X47281Y281989D01*
X47406Y281947D01*
X47503Y281906D01*
X47572Y281878D01*
X47628Y281850D01*
X47642D01*
X47905Y281781D01*
X48030Y281767D01*
X48155Y281753D01*
X48252Y281739D01*
X48390D01*
X48682Y281767D01*
X48945Y281823D01*
X49167Y281906D01*
X49347Y282003D01*
X49500Y282100D01*
X49611Y282183D01*
X49666Y282239D01*
X49694Y282266D01*
X49777Y282377D01*
X49847Y282488D01*
X49957Y282766D01*
X50041Y283057D01*
X50096Y283348D01*
X50124Y283612D01*
X50138Y283723D01*
Y283834D01*
X50152Y283917D01*
Y283972D01*
Y284014D01*
Y284028D01*
Y284236D01*
X50138Y284430D01*
X50110Y284610D01*
X50082Y284777D01*
X50041Y284929D01*
X50013Y285068D01*
X49916Y285304D01*
X49833Y285484D01*
X49763Y285623D01*
X49708Y285692D01*
X49694Y285720D01*
X49514Y285900D01*
X49306Y286039D01*
X49098Y286136D01*
X48903Y286191D01*
X48723Y286233D01*
X48584Y286247D01*
X48529Y286261D01*
X48460D01*
X48266Y286247D01*
X48099Y286219D01*
X47961Y286191D01*
X47836Y286150D01*
X47739Y286094D01*
X47655Y286066D01*
X47614Y286039D01*
X47600Y286025D01*
X47489Y285928D01*
X47378Y285831D01*
X47295Y285720D01*
X47225Y285623D01*
X47184Y285525D01*
X47142Y285442D01*
X47115Y285387D01*
Y285373D01*
X44854Y285775D01*
X44937Y286039D01*
X45034Y286274D01*
X45145Y286482D01*
X45242Y286649D01*
X45339Y286787D01*
X45409Y286898D01*
X45464Y286954D01*
X45478Y286982D01*
X45644Y287148D01*
X45811Y287301D01*
X45991Y287425D01*
X46158Y287523D01*
X46296Y287592D01*
X46407Y287647D01*
X46490Y287675D01*
X46504Y287689D01*
X46518D01*
X46643Y287731D01*
X46782Y287772D01*
X47073Y287828D01*
X47392Y287869D01*
X47697Y287897D01*
X47974Y287911D01*
X48085Y287925D01*
X48404D01*
X48876Y287911D01*
D02*
G37*
G36*
X34494Y280200D02*
X31013D01*
X30764Y280214D01*
X30528Y280228D01*
X30278Y280256D01*
X30070Y280297D01*
X29876Y280339D01*
X29723Y280366D01*
X29668Y280380D01*
X29626D01*
X29613Y280394D01*
X29599D01*
X29391Y280464D01*
X29197Y280561D01*
X29030Y280658D01*
X28864Y280755D01*
X28739Y280852D01*
X28642Y280935D01*
X28586Y280991D01*
X28559Y281004D01*
X28378Y281185D01*
X28226Y281379D01*
X28087Y281559D01*
X27976Y281739D01*
X27893Y281892D01*
X27837Y282017D01*
X27796Y282100D01*
X27782Y282114D01*
Y282128D01*
X27685Y282405D01*
X27615Y282710D01*
X27560Y283029D01*
X27532Y283320D01*
X27505Y283598D01*
Y283709D01*
X27491Y283820D01*
Y283903D01*
Y283958D01*
Y284000D01*
Y284014D01*
X27505Y284305D01*
X27518Y284569D01*
X27546Y284818D01*
X27588Y285040D01*
X27629Y285220D01*
X27657Y285359D01*
X27671Y285415D01*
Y285456D01*
X27685Y285470D01*
Y285484D01*
X27768Y285734D01*
X27851Y285969D01*
X27948Y286177D01*
X28045Y286358D01*
X28142Y286510D01*
X28212Y286607D01*
X28267Y286677D01*
X28281Y286704D01*
X28448Y286885D01*
X28614Y287051D01*
X28794Y287190D01*
X28961Y287301D01*
X29113Y287398D01*
X29224Y287453D01*
X29307Y287495D01*
X29321Y287509D01*
X29335D01*
X29585Y287606D01*
X29862Y287675D01*
X30140Y287731D01*
X30417Y287758D01*
X30653Y287786D01*
X30750D01*
X30847Y287800D01*
X34494D01*
Y280200D01*
D02*
G37*
G36*
X31228Y239911D02*
X31561Y239883D01*
X31852Y239842D01*
X32088Y239786D01*
X32282Y239731D01*
X32421Y239689D01*
X32504Y239661D01*
X32518Y239647D01*
X32532D01*
X32754Y239536D01*
X32934Y239412D01*
X33101Y239287D01*
X33225Y239162D01*
X33336Y239051D01*
X33419Y238968D01*
X33461Y238912D01*
X33475Y238885D01*
X33586Y238677D01*
X33683Y238455D01*
X33752Y238233D01*
X33822Y238011D01*
X33863Y237803D01*
X33891Y237650D01*
X33905Y237581D01*
X33919Y237539D01*
Y237512D01*
Y237498D01*
X31797Y237331D01*
X31755Y237553D01*
X31714Y237734D01*
X31658Y237886D01*
X31603Y238011D01*
X31547Y238108D01*
X31506Y238177D01*
X31478Y238205D01*
X31464Y238219D01*
X31353Y238302D01*
X31242Y238372D01*
X31131Y238413D01*
X31034Y238455D01*
X30937Y238469D01*
X30868Y238482D01*
X30798D01*
X30660Y238469D01*
X30535Y238441D01*
X30424Y238399D01*
X30327Y238358D01*
X30244Y238316D01*
X30188Y238274D01*
X30160Y238247D01*
X30147Y238233D01*
X30063Y238136D01*
X29994Y238039D01*
X29952Y237942D01*
X29911Y237845D01*
X29897Y237761D01*
X29883Y237692D01*
Y237650D01*
Y237637D01*
X29897Y237512D01*
X29925Y237401D01*
X29966Y237276D01*
X30008Y237179D01*
X30063Y237082D01*
X30105Y237012D01*
X30133Y236971D01*
X30147Y236957D01*
X30202Y236888D01*
X30271Y236804D01*
X30438Y236638D01*
X30646Y236472D01*
X30840Y236291D01*
X31034Y236139D01*
X31187Y236014D01*
X31256Y235972D01*
X31298Y235931D01*
X31325Y235917D01*
X31339Y235903D01*
X31616Y235695D01*
X31866Y235501D01*
X32102Y235307D01*
X32310Y235126D01*
X32504Y234946D01*
X32671Y234793D01*
X32823Y234641D01*
X32948Y234502D01*
X33059Y234377D01*
X33170Y234266D01*
X33239Y234169D01*
X33308Y234100D01*
X33364Y234031D01*
X33392Y233989D01*
X33406Y233961D01*
X33419Y233948D01*
X33600Y233642D01*
X33752Y233323D01*
X33863Y233032D01*
X33946Y232769D01*
X34016Y232533D01*
X34030Y232436D01*
X34044Y232353D01*
X34057Y232297D01*
X34071Y232242D01*
Y232214D01*
Y232200D01*
X27720D01*
Y233920D01*
X31034D01*
X30826Y234100D01*
X30673Y234253D01*
X30618Y234294D01*
X30576Y234336D01*
X30549Y234350D01*
X30535Y234363D01*
X30438Y234447D01*
X30313Y234544D01*
X30160Y234641D01*
X30022Y234738D01*
X29883Y234835D01*
X29772Y234918D01*
X29703Y234974D01*
X29675Y234988D01*
X29481Y235126D01*
X29300Y235265D01*
X29134Y235404D01*
X28982Y235529D01*
X28857Y235653D01*
X28732Y235764D01*
X28524Y235972D01*
X28371Y236139D01*
X28274Y236264D01*
X28205Y236347D01*
X28191Y236374D01*
X28052Y236610D01*
X27955Y236846D01*
X27872Y237082D01*
X27831Y237276D01*
X27803Y237456D01*
X27775Y237595D01*
Y237637D01*
Y237678D01*
Y237692D01*
Y237706D01*
X27789Y237942D01*
X27831Y238164D01*
X27886Y238372D01*
X27955Y238538D01*
X28025Y238690D01*
X28080Y238788D01*
X28122Y238857D01*
X28136Y238885D01*
X28274Y239065D01*
X28441Y239231D01*
X28607Y239356D01*
X28760Y239467D01*
X28898Y239550D01*
X29023Y239620D01*
X29093Y239647D01*
X29106Y239661D01*
X29120D01*
X29370Y239744D01*
X29647Y239814D01*
X29938Y239855D01*
X30216Y239897D01*
X30466Y239911D01*
X30576D01*
X30673Y239925D01*
X30854D01*
X31228Y239911D01*
D02*
G37*
G36*
X43294Y232200D02*
X40992D01*
X39660Y236985D01*
X38329Y232200D01*
X36013D01*
X34335Y239800D01*
X36568D01*
X37372Y235542D01*
X38551Y239800D01*
X40770D01*
X41948Y235542D01*
X42753Y239800D01*
X44972D01*
X43294Y232200D01*
D02*
G37*
G36*
X49174Y239911D02*
X49548Y239883D01*
X49867Y239828D01*
X50020Y239800D01*
X50145Y239772D01*
X50256Y239744D01*
X50353Y239717D01*
X50436Y239689D01*
X50505Y239661D01*
X50561Y239647D01*
X50602Y239634D01*
X50616Y239620D01*
X50630D01*
X50866Y239495D01*
X51074Y239370D01*
X51254Y239231D01*
X51393Y239107D01*
X51504Y238982D01*
X51587Y238885D01*
X51642Y238829D01*
X51656Y238801D01*
X51767Y238607D01*
X51851Y238413D01*
X51906Y238219D01*
X51948Y238053D01*
X51975Y237914D01*
X51989Y237789D01*
Y237720D01*
Y237706D01*
Y237692D01*
X51975Y237526D01*
X51961Y237373D01*
X51892Y237096D01*
X51781Y236846D01*
X51656Y236638D01*
X51545Y236458D01*
X51434Y236333D01*
X51365Y236264D01*
X51337Y236250D01*
Y236236D01*
X51199Y236125D01*
X51046Y236028D01*
X50713Y235847D01*
X50353Y235695D01*
X49978Y235556D01*
X49812Y235501D01*
X49659Y235459D01*
X49507Y235417D01*
X49382Y235376D01*
X49285Y235362D01*
X49202Y235334D01*
X49146Y235320D01*
X49132D01*
X48966Y235279D01*
X48813Y235237D01*
X48675Y235210D01*
X48550Y235168D01*
X48342Y235085D01*
X48175Y235015D01*
X48064Y234960D01*
X47981Y234918D01*
X47940Y234890D01*
X47926Y234877D01*
X47843Y234793D01*
X47773Y234696D01*
X47732Y234613D01*
X47690Y234530D01*
X47676Y234461D01*
X47662Y234405D01*
Y234363D01*
Y234350D01*
X47676Y234239D01*
X47704Y234128D01*
X47745Y234031D01*
X47801Y233948D01*
X47856Y233892D01*
X47898Y233836D01*
X47926Y233809D01*
X47940Y233795D01*
X48051Y233726D01*
X48175Y233670D01*
X48300Y233629D01*
X48425Y233601D01*
X48550Y233587D01*
X48633Y233573D01*
X48716D01*
X48952Y233587D01*
X49160Y233642D01*
X49340Y233712D01*
X49493Y233809D01*
X49604Y233892D01*
X49687Y233961D01*
X49742Y234017D01*
X49756Y234031D01*
X49826Y234142D01*
X49895Y234280D01*
X49978Y234558D01*
X50020Y234669D01*
X50034Y234766D01*
X50048Y234835D01*
Y234863D01*
X52281Y234710D01*
X52253Y234502D01*
X52211Y234294D01*
X52114Y233934D01*
X51975Y233601D01*
X51823Y233323D01*
X51754Y233213D01*
X51684Y233102D01*
X51615Y233018D01*
X51559Y232949D01*
X51518Y232894D01*
X51476Y232852D01*
X51462Y232824D01*
X51448Y232810D01*
X51296Y232686D01*
X51115Y232575D01*
X50921Y232464D01*
X50713Y232380D01*
X50269Y232255D01*
X49826Y232172D01*
X49604Y232131D01*
X49410Y232117D01*
X49229Y232103D01*
X49077Y232089D01*
X48938Y232075D01*
X48758D01*
X48356Y232089D01*
X48009Y232117D01*
X47690Y232172D01*
X47427Y232228D01*
X47316Y232255D01*
X47218Y232283D01*
X47121Y232311D01*
X47052Y232339D01*
X46997Y232353D01*
X46955Y232367D01*
X46941Y232380D01*
X46927D01*
X46664Y232519D01*
X46442Y232658D01*
X46248Y232810D01*
X46081Y232963D01*
X45957Y233102D01*
X45859Y233213D01*
X45804Y233282D01*
X45790Y233309D01*
X45651Y233545D01*
X45554Y233781D01*
X45471Y234017D01*
X45430Y234225D01*
X45402Y234405D01*
X45374Y234544D01*
Y234599D01*
Y234641D01*
Y234655D01*
Y234669D01*
X45388Y234890D01*
X45416Y235112D01*
X45471Y235293D01*
X45527Y235459D01*
X45582Y235598D01*
X45637Y235709D01*
X45665Y235764D01*
X45679Y235792D01*
X45804Y235972D01*
X45957Y236139D01*
X46123Y236277D01*
X46275Y236402D01*
X46428Y236499D01*
X46539Y236569D01*
X46622Y236610D01*
X46636Y236624D01*
X46650D01*
X46789Y236693D01*
X46941Y236749D01*
X47274Y236874D01*
X47648Y236999D01*
X48009Y237096D01*
X48175Y237137D01*
X48342Y237179D01*
X48494Y237220D01*
X48619Y237248D01*
X48716Y237276D01*
X48800Y237290D01*
X48855Y237304D01*
X48869D01*
X49077Y237345D01*
X49243Y237401D01*
X49382Y237442D01*
X49479Y237484D01*
X49562Y237526D01*
X49604Y237553D01*
X49632Y237581D01*
X49646D01*
X49701Y237637D01*
X49742Y237692D01*
X49784Y237803D01*
X49812Y237886D01*
Y237900D01*
Y237914D01*
X49798Y237997D01*
X49784Y238080D01*
X49715Y238219D01*
X49646Y238302D01*
X49632Y238316D01*
X49618Y238330D01*
X49535Y238385D01*
X49437Y238441D01*
X49229Y238482D01*
X49132Y238496D01*
X49063Y238510D01*
X48994D01*
X48813Y238496D01*
X48661Y238469D01*
X48522Y238441D01*
X48411Y238399D01*
X48328Y238344D01*
X48273Y238316D01*
X48231Y238288D01*
X48217Y238274D01*
X48120Y238177D01*
X48037Y238053D01*
X47981Y237928D01*
X47926Y237817D01*
X47884Y237706D01*
X47856Y237609D01*
X47843Y237553D01*
Y237526D01*
X45624Y237650D01*
X45665Y237858D01*
X45707Y238066D01*
X45762Y238247D01*
X45832Y238413D01*
X45901Y238566D01*
X45984Y238718D01*
X46054Y238843D01*
X46137Y238954D01*
X46289Y239134D01*
X46414Y239273D01*
X46511Y239342D01*
X46525Y239370D01*
X46539D01*
X46691Y239467D01*
X46858Y239550D01*
X47205Y239689D01*
X47579Y239786D01*
X47940Y239855D01*
X48106Y239883D01*
X48259Y239897D01*
X48397Y239911D01*
X48522D01*
X48619Y239925D01*
X48758D01*
X49174Y239911D01*
D02*
G37*
G36*
X62500Y211500D02*
X57500Y211500D01*
X56505Y211500D01*
X54668Y212261D01*
X53261Y213668D01*
X52500Y215506D01*
X52500Y216500D01*
X52500Y216500D01*
Y221500D01*
X52500Y222495D01*
X53261Y224332D01*
X54668Y225739D01*
X56505Y226500D01*
X57500Y226500D01*
X57500Y226500D01*
X62500D01*
Y211500D01*
D02*
G37*
G36*
X637500Y217000D02*
X609000D01*
Y217000D01*
X608726Y216975D01*
X608202Y217138D01*
X607779Y217489D01*
X607524Y217976D01*
X607500Y218250D01*
X607525Y218524D01*
X607780Y219010D01*
X608202Y219362D01*
X608727Y219525D01*
X609000Y219500D01*
X626000Y219500D01*
Y219500D01*
X626638Y219516D01*
X627845Y219916D01*
X628807Y220747D01*
X629377Y221883D01*
X629486Y222512D01*
X629486Y223250D01*
X629398Y223905D01*
X628853Y225102D01*
X627891Y225998D01*
X626659Y226458D01*
X626000Y226500D01*
X597500Y226500D01*
Y240000D01*
X637500D01*
Y217000D01*
D02*
G37*
G36*
X70500Y226500D02*
X71495Y226500D01*
X73332Y225739D01*
X74739Y224332D01*
X75500Y222495D01*
X75500Y221500D01*
X75500Y221500D01*
X75500Y216500D01*
X75500Y215505D01*
X74739Y213668D01*
X73332Y212261D01*
X71495Y211500D01*
X70500Y211500D01*
X65500D01*
Y226500D01*
X70500Y226500D01*
D02*
G37*
G36*
X626000Y224000D02*
Y224000D01*
X626224Y223975D01*
X626618Y223758D01*
X626900Y223406D01*
X627025Y222974D01*
X627000Y222750D01*
X627025Y222526D01*
X626900Y222094D01*
X626618Y221742D01*
X626224Y221525D01*
X626000Y221500D01*
X609000Y221500D01*
Y221500D01*
X608339Y221460D01*
X607104Y221001D01*
X606138Y220104D01*
X605589Y218906D01*
X605500Y218250D01*
X605545Y217540D01*
X606042Y216215D01*
X607007Y215180D01*
X608295Y214594D01*
X609000Y214500D01*
X637500D01*
Y200000D01*
X597500D01*
Y224000D01*
X626000Y224000D01*
D02*
G37*
G36*
X163750Y133250D02*
X158750Y133250D01*
X157755Y133250D01*
X155918Y134011D01*
X154511Y135418D01*
X153750Y137255D01*
X153750Y138250D01*
X153750Y138250D01*
Y143250D01*
X153750Y144244D01*
X154511Y146082D01*
X155918Y147489D01*
X157755Y148250D01*
X158750Y148250D01*
X158750Y148250D01*
X163750D01*
Y133250D01*
D02*
G37*
G36*
X171750Y148250D02*
X172745Y148250D01*
X174582Y147489D01*
X175989Y146082D01*
X176750Y144244D01*
X176750Y143250D01*
X176750Y143250D01*
X176750Y138250D01*
X176750Y137255D01*
X175989Y135418D01*
X174582Y134011D01*
X172745Y133250D01*
X171750Y133250D01*
X166750D01*
Y148250D01*
X171750Y148250D01*
D02*
G37*
G36*
X170750Y105750D02*
X165750Y105750D01*
X164755Y105750D01*
X162918Y106511D01*
X161511Y107918D01*
X160750Y109755D01*
X160750Y110750D01*
X160750Y110750D01*
Y115750D01*
X160750Y116744D01*
X161511Y118582D01*
X162918Y119989D01*
X164755Y120750D01*
X165750Y120750D01*
X165750Y120750D01*
X170750D01*
Y105750D01*
D02*
G37*
G36*
X54832Y116832D02*
X56829D01*
Y115154D01*
X54832D01*
Y113171D01*
X53154D01*
Y115154D01*
X51171D01*
Y116832D01*
X53154D01*
Y118829D01*
X54832D01*
Y116832D01*
D02*
G37*
G36*
X178750Y120750D02*
X179745Y120750D01*
X181582Y119989D01*
X182989Y118582D01*
X183750Y116744D01*
X183750Y115750D01*
X183750Y115750D01*
X183750Y110750D01*
X183750Y109755D01*
X182989Y107918D01*
X181582Y106511D01*
X179745Y105750D01*
X178750Y105750D01*
X173750D01*
Y120750D01*
X178750Y120750D01*
D02*
G37*
G36*
X324500Y70500D02*
X319500Y70500D01*
X318505Y70500D01*
X316668Y71261D01*
X315261Y72668D01*
X314500Y74506D01*
X314500Y75500D01*
X314500Y75500D01*
Y80500D01*
X314500Y81495D01*
X315261Y83332D01*
X316668Y84739D01*
X318505Y85500D01*
X319500Y85500D01*
X319500Y85500D01*
X324500D01*
Y70500D01*
D02*
G37*
G36*
X344500Y85500D02*
X345494Y85500D01*
X347332Y84739D01*
X348739Y83332D01*
X349500Y81495D01*
X349500Y80500D01*
X349500Y80500D01*
X349500Y75500D01*
X349500Y74505D01*
X348739Y72668D01*
X347332Y71261D01*
X345495Y70500D01*
X344500Y70500D01*
X339500D01*
Y85500D01*
X344500Y85500D01*
D02*
G37*
G36*
X543598Y42295D02*
X544043Y42221D01*
X544561Y42036D01*
X545154Y41777D01*
X545820Y41444D01*
X546524Y40962D01*
X546561Y40925D01*
X546598Y40888D01*
X546857Y40703D01*
X547154Y40407D01*
X547487Y40110D01*
X547524Y40036D01*
X547598Y39962D01*
X547709Y39851D01*
X547820Y39703D01*
X547931Y39518D01*
X548079Y39296D01*
X548265Y38999D01*
X548302Y38962D01*
X548339Y38851D01*
X548413Y38666D01*
X548524Y38444D01*
X548635Y38148D01*
X548746Y37814D01*
X548857Y37407D01*
X548968Y36962D01*
Y36925D01*
Y36740D01*
X549005Y36481D01*
X548968Y36148D01*
X548931Y35740D01*
X548857Y35296D01*
X548709Y34778D01*
X548524Y34222D01*
X548487Y34185D01*
X548413Y34111D01*
X548228Y34000D01*
X548116D01*
X548042Y34037D01*
X547968Y34111D01*
X547857Y34222D01*
X547783Y34407D01*
X547709Y34667D01*
Y34704D01*
X547746Y34741D01*
Y34815D01*
X547783Y34926D01*
X547820Y35111D01*
X547857Y35333D01*
X547894Y35666D01*
Y35703D01*
Y35852D01*
Y36037D01*
X547857Y36296D01*
X547820Y36629D01*
X547709Y37037D01*
X547561Y37444D01*
X547376Y37925D01*
X547339Y37999D01*
X547228Y38148D01*
X547080Y38407D01*
X546783Y38703D01*
X546413Y39073D01*
X545969Y39444D01*
X545376Y39851D01*
X544635Y40258D01*
X544598D01*
X544524Y40296D01*
X544413Y40332D01*
X544302Y40407D01*
X543932Y40518D01*
X543561Y40629D01*
Y40666D01*
X543524D01*
Y40629D01*
X543487D01*
X543413Y40666D01*
X543302D01*
X543117Y40703D01*
X542747D01*
X542339Y40629D01*
X542302D01*
X542228Y40592D01*
X542006Y40518D01*
X541710Y40407D01*
X541413Y40184D01*
X541376Y40147D01*
X541302Y40073D01*
X541228Y39925D01*
X541117Y39740D01*
X541006Y39481D01*
X540895Y39221D01*
X540821Y38888D01*
Y38555D01*
Y38518D01*
Y38407D01*
X540858Y38185D01*
X540932Y37925D01*
X541006Y37629D01*
X541154Y37296D01*
X541339Y36925D01*
X541562Y36518D01*
X541599Y36481D01*
X541710Y36296D01*
X541895Y36074D01*
X542117Y35740D01*
X542376Y35370D01*
X542710Y34926D01*
X543043Y34444D01*
X543413Y33926D01*
X543450Y33852D01*
X543598Y33704D01*
X543784Y33407D01*
X544043Y33074D01*
X544339Y32630D01*
X544709Y32148D01*
X545080Y31630D01*
X545450Y31111D01*
Y31074D01*
X545524Y31000D01*
X545598Y30889D01*
X545709Y30741D01*
X545858Y30519D01*
X546043Y30296D01*
X546450Y29741D01*
X546894Y29074D01*
X547413Y28371D01*
X548487Y26890D01*
Y26852D01*
X548561Y26815D01*
X548635Y26704D01*
X548709Y26556D01*
X548968Y26223D01*
X549264Y25779D01*
X549598Y25260D01*
X549968Y24704D01*
X550301Y24186D01*
X550635Y23668D01*
Y23631D01*
X550672Y23519D01*
X550709Y23371D01*
X550746Y23186D01*
Y23149D01*
X550709Y23038D01*
X550672Y22890D01*
X550561Y22742D01*
X550524Y22705D01*
X550487Y22668D01*
X550301Y22520D01*
X550264D01*
X550190Y22483D01*
X549931Y22445D01*
X549709D01*
X549598Y22483D01*
X549524Y22520D01*
X549413Y22557D01*
X549264Y22594D01*
X549042Y22631D01*
X549005D01*
X548931Y22668D01*
X548783Y22705D01*
X548561Y22742D01*
X548302Y22779D01*
X547968Y22853D01*
X547598Y22890D01*
X547191Y22964D01*
X547154D01*
X547043Y23001D01*
X546894Y23038D01*
X546635Y23075D01*
X546228Y23149D01*
X546006Y23186D01*
X545709Y23223D01*
X545376Y23260D01*
X545006Y23334D01*
X544895D01*
X544784Y23371D01*
X544635Y23408D01*
X544413D01*
X544191Y23445D01*
X543895Y23519D01*
X543561Y23556D01*
X542821Y23668D01*
X541932Y23779D01*
X540932Y23890D01*
X539821Y24038D01*
X539784D01*
X539710Y24075D01*
X539562Y24112D01*
X539525D01*
X539451Y24186D01*
X539340Y24297D01*
X539266Y24482D01*
X539303Y24519D01*
X539340Y24556D01*
X539488Y24593D01*
X539673Y24667D01*
X539932Y24704D01*
X540303Y24742D01*
X540821Y24779D01*
X541080D01*
X541413Y24816D01*
X541821D01*
X542339Y24853D01*
X543635D01*
X544376Y24816D01*
X544709D01*
X545117Y24779D01*
X545598Y24742D01*
X546191Y24704D01*
X546820Y24630D01*
X548153Y24482D01*
X548116Y24556D01*
X548005Y24704D01*
X547857Y24964D01*
X547598Y25260D01*
X547339Y25667D01*
X547043Y26112D01*
X546672Y26630D01*
X546302Y27149D01*
X546265Y27223D01*
X546117Y27408D01*
X545895Y27704D01*
X545635Y28075D01*
X545302Y28519D01*
X544932Y29037D01*
X544524Y29593D01*
X544117Y30148D01*
X544080Y30222D01*
X543932Y30408D01*
X543709Y30667D01*
X543450Y31037D01*
X543154Y31482D01*
X542784Y31963D01*
X542043Y32963D01*
X542006Y33037D01*
X541858Y33185D01*
X541673Y33481D01*
X541451Y33815D01*
X541154Y34222D01*
X540858Y34667D01*
X540228Y35555D01*
Y35592D01*
X540191Y35629D01*
X540043Y35852D01*
X539858Y36222D01*
X539636Y36666D01*
X539451Y37185D01*
X539266Y37777D01*
X539192Y38333D01*
Y38925D01*
Y38999D01*
X539229Y39185D01*
X539303Y39481D01*
X539377Y39814D01*
X539525Y40221D01*
X539710Y40629D01*
X539969Y40999D01*
X540303Y41370D01*
X540340Y41406D01*
X540488Y41518D01*
X540710Y41666D01*
X541006Y41851D01*
X541376Y42036D01*
X541858Y42184D01*
X542376Y42332D01*
X542969Y42369D01*
X543265D01*
X543598Y42295D01*
D02*
G37*
G36*
X556315Y33648D02*
X556463Y33611D01*
X556537Y33574D01*
X556685Y33463D01*
X556945Y33278D01*
X557167Y32981D01*
Y32944D01*
X557204Y32907D01*
X557315Y32685D01*
X557463Y32389D01*
X557500Y32056D01*
Y31981D01*
X557463Y31796D01*
X557389Y31611D01*
X557204Y31426D01*
X557130Y31389D01*
X556982Y31352D01*
X556759Y31315D01*
X556611Y31352D01*
X556463Y31389D01*
X556426D01*
X556389Y31426D01*
X556204Y31537D01*
X555982Y31722D01*
X555759Y32019D01*
Y32056D01*
X555722Y32093D01*
X555611Y32315D01*
X555500Y32611D01*
X555463Y32944D01*
Y32981D01*
Y33019D01*
Y33204D01*
X555537Y33389D01*
X555722Y33574D01*
X555797Y33611D01*
X555945Y33648D01*
X556167Y33685D01*
X556315Y33648D01*
D02*
G37*
G36*
Y28648D02*
X556463Y28611D01*
X556537Y28574D01*
X556685Y28463D01*
X556945Y28278D01*
X557167Y27981D01*
Y27944D01*
X557204Y27907D01*
X557315Y27685D01*
X557463Y27389D01*
X557500Y27056D01*
Y26981D01*
X557463Y26796D01*
X557389Y26611D01*
X557204Y26426D01*
X557130Y26389D01*
X556982Y26352D01*
X556759Y26315D01*
X556611Y26352D01*
X556463Y26389D01*
X556426D01*
X556389Y26426D01*
X556204Y26537D01*
X555982Y26722D01*
X555759Y27019D01*
Y27056D01*
X555722Y27093D01*
X555611Y27315D01*
X555500Y27611D01*
X555463Y27944D01*
Y27981D01*
Y28019D01*
Y28204D01*
X555537Y28389D01*
X555722Y28574D01*
X555797Y28611D01*
X555945Y28648D01*
X556167Y28685D01*
X556315Y28648D01*
D02*
G37*
G36*
X583150Y42517D02*
X583483Y42443D01*
X583891Y42369D01*
X584335Y42221D01*
X584779Y41999D01*
X584816Y41962D01*
X584964Y41888D01*
X585224Y41703D01*
X585483Y41481D01*
X585816Y41147D01*
X586187Y40777D01*
X586557Y40296D01*
X586890Y39703D01*
X586927Y39629D01*
X587001Y39481D01*
X587112Y39185D01*
X587224Y38851D01*
X587335Y38481D01*
X587409Y38036D01*
X587483Y37629D01*
Y37222D01*
Y37185D01*
X587446Y37074D01*
Y36888D01*
X587409Y36629D01*
X587261Y36111D01*
X587038Y35592D01*
X587001Y35518D01*
X586890Y35370D01*
X586742Y35148D01*
X586557Y34926D01*
X586520Y34889D01*
X586372Y34741D01*
X586187Y34555D01*
X585964Y34370D01*
X586001D01*
X586076Y34296D01*
X586224Y34222D01*
X586409Y34074D01*
X586853Y33741D01*
X587409Y33259D01*
X587446Y33222D01*
X587520Y33148D01*
X587668Y32963D01*
X587853Y32778D01*
X588112Y32518D01*
X588335Y32222D01*
X588631Y31852D01*
X588890Y31482D01*
X588927Y31407D01*
X589075Y31185D01*
X589260Y30852D01*
X589483Y30445D01*
X589705Y29926D01*
X589927Y29371D01*
X590112Y28778D01*
X590223Y28149D01*
Y28075D01*
Y27889D01*
Y27556D01*
X590186Y27149D01*
X590112Y26704D01*
X590001Y26186D01*
X589816Y25630D01*
X589557Y25112D01*
X589520Y25075D01*
X589408Y24890D01*
X589260Y24667D01*
X589038Y24408D01*
X588742Y24075D01*
X588409Y23742D01*
X588001Y23445D01*
X587557Y23149D01*
X587483Y23112D01*
X587335Y23038D01*
X587075Y22927D01*
X586705Y22816D01*
X586298Y22668D01*
X585816Y22557D01*
X585298Y22483D01*
X584742Y22445D01*
X584187D01*
X583965Y22483D01*
X583668Y22557D01*
X583261Y22631D01*
X582817Y22779D01*
X582335Y23001D01*
X581854Y23260D01*
X581372Y23593D01*
X581335Y23631D01*
X581187Y23779D01*
X580965Y24001D01*
X580669Y24334D01*
X580372Y24704D01*
X580076Y25186D01*
X579780Y25742D01*
X579521Y26334D01*
Y26371D01*
X579484Y26445D01*
X579447Y26556D01*
X579409Y26704D01*
X579261Y27075D01*
X579113Y27593D01*
X579002Y28186D01*
X578854Y28815D01*
X578780Y29445D01*
X578743Y30074D01*
Y30111D01*
Y30148D01*
Y30371D01*
X578780Y30667D01*
X578817Y31074D01*
X578928Y31519D01*
X579039Y32000D01*
X579224Y32482D01*
X579484Y32926D01*
X579521Y32963D01*
X579558Y33037D01*
X579669Y33148D01*
X579780Y33296D01*
X580076Y33630D01*
X580484Y33963D01*
X580521Y34000D01*
X580558Y34037D01*
X580669Y34111D01*
X580817Y34185D01*
X581150Y34407D01*
X581558Y34592D01*
X581520Y34629D01*
X581409Y34667D01*
X581261Y34778D01*
X581076Y34926D01*
X580854Y35111D01*
X580632Y35333D01*
X580372Y35629D01*
X580113Y35926D01*
X580076Y35963D01*
X580002Y36111D01*
X579891Y36296D01*
X579706Y36592D01*
X579521Y36962D01*
X579336Y37370D01*
X579150Y37888D01*
X578965Y38444D01*
Y38481D01*
X578928Y38629D01*
X578891Y38851D01*
Y39110D01*
Y39407D01*
Y39740D01*
X578965Y40110D01*
X579076Y40481D01*
Y40518D01*
X579150Y40666D01*
X579224Y40814D01*
X579336Y41073D01*
X579521Y41295D01*
X579743Y41592D01*
X580002Y41851D01*
X580298Y42073D01*
X580335D01*
X580372Y42110D01*
X580447Y42147D01*
X580484D01*
X580595Y42221D01*
X580743Y42258D01*
X580965Y42332D01*
X581261Y42406D01*
X581595Y42481D01*
X582002Y42517D01*
X582409Y42554D01*
X582854D01*
X583150Y42517D01*
D02*
G37*
G36*
X568448Y41925D02*
X568818Y41851D01*
X569300Y41740D01*
X569855Y41518D01*
X570448Y41221D01*
X571114Y40814D01*
X571151D01*
X571188Y40740D01*
X571410Y40555D01*
X571595Y40407D01*
X571781Y40221D01*
X572003Y39999D01*
X572225Y39740D01*
X572484Y39444D01*
X572744Y39110D01*
X573040Y38703D01*
X573373Y38259D01*
X573669Y37777D01*
X574003Y37222D01*
X574336Y36629D01*
X574669Y35963D01*
Y35926D01*
X574743Y35814D01*
X574817Y35666D01*
X574892Y35407D01*
X575040Y35148D01*
X575151Y34815D01*
X575299Y34444D01*
X575447Y34037D01*
X575780Y33185D01*
X576077Y32259D01*
X576299Y31296D01*
X576484Y30408D01*
Y30371D01*
Y30296D01*
X576521Y30185D01*
Y30037D01*
X576558Y29630D01*
X576595Y29111D01*
X576632Y28519D01*
Y27889D01*
X576595Y27297D01*
X576484Y26704D01*
Y26630D01*
X576410Y26482D01*
X576336Y26223D01*
X576262Y25927D01*
X576003Y25223D01*
X575854Y24890D01*
X575669Y24593D01*
X575632Y24556D01*
X575558Y24408D01*
X575410Y24223D01*
X575225Y24001D01*
X574966Y23742D01*
X574669Y23482D01*
X574373Y23223D01*
X574003Y23001D01*
X573966Y22964D01*
X573817Y22927D01*
X573595Y22816D01*
X573336Y22742D01*
X573003Y22631D01*
X572595Y22520D01*
X572151Y22483D01*
X571707Y22445D01*
X571484D01*
X571262Y22483D01*
X570966Y22557D01*
X570596Y22668D01*
X570151Y22853D01*
X569707Y23075D01*
X569225Y23371D01*
X569151Y23408D01*
X569003Y23556D01*
X568744Y23742D01*
X568411Y24038D01*
X568003Y24408D01*
X567559Y24853D01*
X567114Y25334D01*
X566633Y25927D01*
X566596Y25964D01*
X566559Y26038D01*
X566448Y26149D01*
X566337Y26334D01*
X566189Y26556D01*
X566040Y26852D01*
X565818Y27149D01*
X565633Y27519D01*
X565411Y27926D01*
X565189Y28371D01*
X564744Y29334D01*
X564337Y30445D01*
X563967Y31667D01*
Y31704D01*
X563930Y31815D01*
X563893Y32000D01*
X563819Y32259D01*
X563782Y32556D01*
X563745Y32963D01*
X563670Y33370D01*
X563633Y33852D01*
X563596Y34370D01*
Y34926D01*
X563633Y36148D01*
X563670Y36777D01*
X563782Y37444D01*
X563893Y38148D01*
X564078Y38851D01*
X564115Y38925D01*
X564152Y39073D01*
X564263Y39333D01*
X564411Y39666D01*
X564633Y40036D01*
X564893Y40407D01*
X565189Y40777D01*
X565559Y41110D01*
X565596Y41147D01*
X565744Y41258D01*
X565929Y41370D01*
X566226Y41555D01*
X566559Y41703D01*
X566966Y41814D01*
X567374Y41925D01*
X567855Y41962D01*
X568151D01*
X568448Y41925D01*
D02*
G37*
G36*
X528489D02*
X528859Y41851D01*
X529341Y41740D01*
X529896Y41518D01*
X530489Y41221D01*
X531155Y40814D01*
X531192D01*
X531229Y40740D01*
X531451Y40555D01*
X531637Y40407D01*
X531822Y40221D01*
X532044Y39999D01*
X532266Y39740D01*
X532525Y39444D01*
X532785Y39110D01*
X533081Y38703D01*
X533414Y38259D01*
X533711Y37777D01*
X534044Y37222D01*
X534377Y36629D01*
X534711Y35963D01*
Y35926D01*
X534785Y35814D01*
X534859Y35666D01*
X534933Y35407D01*
X535081Y35148D01*
X535192Y34815D01*
X535340Y34444D01*
X535488Y34037D01*
X535821Y33185D01*
X536118Y32259D01*
X536340Y31296D01*
X536525Y30408D01*
Y30371D01*
Y30296D01*
X536562Y30185D01*
Y30037D01*
X536599Y29630D01*
X536636Y29111D01*
X536673Y28519D01*
Y27889D01*
X536636Y27297D01*
X536525Y26704D01*
Y26630D01*
X536451Y26482D01*
X536377Y26223D01*
X536303Y25927D01*
X536044Y25223D01*
X535896Y24890D01*
X535710Y24593D01*
X535673Y24556D01*
X535599Y24408D01*
X535451Y24223D01*
X535266Y24001D01*
X535007Y23742D01*
X534711Y23482D01*
X534414Y23223D01*
X534044Y23001D01*
X534007Y22964D01*
X533859Y22927D01*
X533637Y22816D01*
X533377Y22742D01*
X533044Y22631D01*
X532637Y22520D01*
X532192Y22483D01*
X531748Y22445D01*
X531526D01*
X531303Y22483D01*
X531007Y22557D01*
X530637Y22668D01*
X530192Y22853D01*
X529748Y23075D01*
X529267Y23371D01*
X529193Y23408D01*
X529044Y23556D01*
X528785Y23742D01*
X528452Y24038D01*
X528045Y24408D01*
X527600Y24853D01*
X527156Y25334D01*
X526674Y25927D01*
X526637Y25964D01*
X526600Y26038D01*
X526489Y26149D01*
X526378Y26334D01*
X526230Y26556D01*
X526082Y26852D01*
X525859Y27149D01*
X525674Y27519D01*
X525452Y27926D01*
X525230Y28371D01*
X524786Y29334D01*
X524378Y30445D01*
X524008Y31667D01*
Y31704D01*
X523971Y31815D01*
X523934Y32000D01*
X523860Y32259D01*
X523823Y32555D01*
X523786Y32963D01*
X523712Y33370D01*
X523675Y33852D01*
X523638Y34370D01*
Y34926D01*
X523675Y36148D01*
X523712Y36777D01*
X523823Y37444D01*
X523934Y38147D01*
X524119Y38851D01*
X524156Y38925D01*
X524193Y39073D01*
X524304Y39333D01*
X524452Y39666D01*
X524674Y40036D01*
X524934Y40407D01*
X525230Y40777D01*
X525600Y41110D01*
X525637Y41147D01*
X525785Y41258D01*
X525971Y41369D01*
X526267Y41555D01*
X526600Y41703D01*
X527008Y41814D01*
X527415Y41925D01*
X527896Y41962D01*
X528193D01*
X528489Y41925D01*
D02*
G37*
%LPC*%
G36*
X130679Y619524D02*
X130651D01*
X130471Y619496D01*
X130318Y619441D01*
X130179Y619358D01*
X130068Y619261D01*
X129985Y619164D01*
X129930Y619080D01*
X129888Y619025D01*
X129874Y618997D01*
X129833Y618886D01*
X129791Y618761D01*
X129749Y618609D01*
X129722Y618456D01*
X129680Y618123D01*
X129639Y617777D01*
X129625Y617472D01*
Y617319D01*
X129611Y617208D01*
Y617097D01*
Y617028D01*
Y616972D01*
Y616958D01*
Y616598D01*
X129625Y616293D01*
X129652Y616029D01*
X129666Y615821D01*
X129694Y615655D01*
X129722Y615544D01*
X129736Y615475D01*
Y615447D01*
X129777Y615280D01*
X129833Y615128D01*
X129888Y615017D01*
X129944Y614906D01*
X129999Y614837D01*
X130041Y614781D01*
X130068Y614753D01*
X130082Y614739D01*
X130179Y614670D01*
X130276Y614615D01*
X130360Y614573D01*
X130457Y614545D01*
X130526Y614531D01*
X130595Y614518D01*
X130651D01*
X130817Y614545D01*
X130970Y614601D01*
X131095Y614684D01*
X131206Y614781D01*
X131289Y614878D01*
X131344Y614961D01*
X131386Y615017D01*
X131400Y615045D01*
X131441Y615155D01*
X131483Y615280D01*
X131511Y615419D01*
X131538Y615572D01*
X131594Y615904D01*
X131622Y616237D01*
X131636Y616542D01*
Y616681D01*
X131649Y616792D01*
Y616889D01*
Y616958D01*
Y617014D01*
Y617028D01*
Y617291D01*
X131636Y617527D01*
X131622Y617735D01*
X131608Y617943D01*
X131594Y618110D01*
X131580Y618276D01*
X131552Y618415D01*
X131525Y618539D01*
X131511Y618650D01*
X131483Y618747D01*
X131469Y618817D01*
X131455Y618872D01*
X131441Y618928D01*
X131428Y618955D01*
X131414Y618983D01*
X131317Y619164D01*
X131192Y619302D01*
X131067Y619399D01*
X130942Y619455D01*
X130831Y619496D01*
X130734Y619510D01*
X130679Y619524D01*
D02*
G37*
G36*
X109418D02*
X109391D01*
X109210Y619496D01*
X109058Y619441D01*
X108919Y619358D01*
X108808Y619261D01*
X108725Y619164D01*
X108670Y619080D01*
X108628Y619025D01*
X108614Y618997D01*
X108572Y618886D01*
X108531Y618761D01*
X108489Y618609D01*
X108462Y618456D01*
X108420Y618123D01*
X108378Y617777D01*
X108364Y617472D01*
Y617319D01*
X108350Y617208D01*
Y617097D01*
Y617028D01*
Y616972D01*
Y616958D01*
Y616598D01*
X108364Y616293D01*
X108392Y616029D01*
X108406Y615821D01*
X108434Y615655D01*
X108462Y615544D01*
X108475Y615475D01*
Y615447D01*
X108517Y615280D01*
X108572Y615128D01*
X108628Y615017D01*
X108683Y614906D01*
X108739Y614837D01*
X108780Y614781D01*
X108808Y614753D01*
X108822Y614739D01*
X108919Y614670D01*
X109016Y614615D01*
X109099Y614573D01*
X109197Y614545D01*
X109266Y614531D01*
X109335Y614518D01*
X109391D01*
X109557Y614545D01*
X109710Y614601D01*
X109834Y614684D01*
X109945Y614781D01*
X110029Y614878D01*
X110084Y614961D01*
X110126Y615017D01*
X110140Y615045D01*
X110181Y615155D01*
X110223Y615280D01*
X110251Y615419D01*
X110278Y615572D01*
X110334Y615904D01*
X110361Y616237D01*
X110375Y616542D01*
Y616681D01*
X110389Y616792D01*
Y616889D01*
Y616958D01*
Y617014D01*
Y617028D01*
Y617291D01*
X110375Y617527D01*
X110361Y617735D01*
X110348Y617943D01*
X110334Y618110D01*
X110320Y618276D01*
X110292Y618415D01*
X110264Y618539D01*
X110251Y618650D01*
X110223Y618747D01*
X110209Y618817D01*
X110195Y618872D01*
X110181Y618928D01*
X110167Y618955D01*
X110153Y618983D01*
X110056Y619164D01*
X109931Y619302D01*
X109807Y619399D01*
X109682Y619455D01*
X109571Y619496D01*
X109474Y619510D01*
X109418Y619524D01*
D02*
G37*
G36*
X386630Y599958D02*
X386561D01*
X386408Y599944D01*
X386269Y599903D01*
X386145Y599847D01*
X386034Y599792D01*
X385950Y599723D01*
X385895Y599667D01*
X385853Y599626D01*
X385840Y599612D01*
X385742Y599473D01*
X385659Y599320D01*
X385604Y599154D01*
X385576Y599002D01*
X385548Y598863D01*
X385534Y598752D01*
Y598669D01*
Y598655D01*
Y598641D01*
X385548Y598419D01*
X385576Y598225D01*
X385631Y598072D01*
X385673Y597934D01*
X385728Y597836D01*
X385784Y597753D01*
X385812Y597712D01*
X385826Y597698D01*
X385937Y597601D01*
X386048Y597518D01*
X386172Y597462D01*
X386269Y597434D01*
X386367Y597407D01*
X386450Y597393D01*
X386519D01*
X386685Y597407D01*
X386838Y597448D01*
X386963Y597504D01*
X387074Y597573D01*
X387171Y597629D01*
X387240Y597684D01*
X387282Y597726D01*
X387296Y597739D01*
X387393Y597878D01*
X387476Y598031D01*
X387531Y598197D01*
X387559Y598350D01*
X387587Y598488D01*
X387601Y598599D01*
Y598669D01*
Y598696D01*
X387587Y598918D01*
X387559Y599099D01*
X387504Y599265D01*
X387448Y599390D01*
X387407Y599487D01*
X387351Y599570D01*
X387323Y599612D01*
X387309Y599626D01*
X387185Y599737D01*
X387060Y599820D01*
X386935Y599875D01*
X386824Y599917D01*
X386713Y599944D01*
X386630Y599958D01*
D02*
G37*
G36*
X266637Y602607D02*
X266568D01*
X266401Y602593D01*
X266262Y602552D01*
X266138Y602496D01*
X266027Y602427D01*
X265944Y602358D01*
X265874Y602302D01*
X265833Y602261D01*
X265819Y602247D01*
X265708Y602108D01*
X265638Y601955D01*
X265583Y601789D01*
X265541Y601637D01*
X265514Y601498D01*
X265500Y601387D01*
Y601317D01*
Y601304D01*
Y601290D01*
X265514Y601082D01*
X265541Y600888D01*
X265597Y600721D01*
X265638Y600596D01*
X265694Y600499D01*
X265749Y600416D01*
X265777Y600374D01*
X265791Y600361D01*
X265902Y600250D01*
X266027Y600180D01*
X266152Y600125D01*
X266262Y600083D01*
X266373Y600056D01*
X266457Y600042D01*
X266526D01*
X266679Y600056D01*
X266817Y600097D01*
X266942Y600153D01*
X267053Y600208D01*
X267136Y600263D01*
X267192Y600319D01*
X267233Y600361D01*
X267247Y600374D01*
X267344Y600513D01*
X267414Y600666D01*
X267455Y600832D01*
X267483Y600985D01*
X267511Y601123D01*
X267525Y601234D01*
Y601317D01*
Y601345D01*
X267511Y601567D01*
X267483Y601761D01*
X267441Y601914D01*
X267386Y602052D01*
X267344Y602150D01*
X267303Y602233D01*
X267275Y602274D01*
X267261Y602288D01*
X267150Y602399D01*
X267039Y602469D01*
X266914Y602524D01*
X266803Y602566D01*
X266720Y602593D01*
X266637Y602607D01*
D02*
G37*
G36*
X322150Y602080D02*
X321568D01*
X321249Y602066D01*
X320972Y602011D01*
X320750Y601942D01*
X320569Y601858D01*
X320431Y601761D01*
X320334Y601692D01*
X320264Y601637D01*
X320251Y601623D01*
X320181Y601525D01*
X320112Y601428D01*
X320015Y601179D01*
X319945Y600901D01*
X319904Y600638D01*
X319862Y600374D01*
Y600263D01*
X319848Y600166D01*
Y600083D01*
Y600028D01*
Y599986D01*
Y599972D01*
X319862Y599653D01*
X319876Y599390D01*
X319904Y599154D01*
X319932Y598974D01*
X319973Y598835D01*
X320001Y598738D01*
X320015Y598669D01*
X320029Y598655D01*
X320098Y598516D01*
X320181Y598391D01*
X320264Y598294D01*
X320348Y598225D01*
X320417Y598156D01*
X320472Y598114D01*
X320514Y598100D01*
X320528Y598086D01*
X320667Y598031D01*
X320819Y598003D01*
X320999Y597975D01*
X321166Y597948D01*
X321332D01*
X321457Y597934D01*
X322150D01*
Y602080D01*
D02*
G37*
G36*
X286255Y601588D02*
Y599189D01*
X288308D01*
X286255Y601588D01*
D02*
G37*
G36*
X32150Y338080D02*
X31568D01*
X31249Y338066D01*
X30972Y338011D01*
X30750Y337942D01*
X30570Y337858D01*
X30431Y337761D01*
X30334Y337692D01*
X30264Y337636D01*
X30250Y337623D01*
X30181Y337525D01*
X30112Y337428D01*
X30015Y337179D01*
X29945Y336901D01*
X29904Y336638D01*
X29862Y336374D01*
Y336264D01*
X29848Y336166D01*
Y336083D01*
Y336028D01*
Y335986D01*
Y335972D01*
X29862Y335653D01*
X29876Y335390D01*
X29904Y335154D01*
X29931Y334974D01*
X29973Y334835D01*
X30001Y334738D01*
X30015Y334669D01*
X30029Y334655D01*
X30098Y334516D01*
X30181Y334391D01*
X30264Y334294D01*
X30348Y334225D01*
X30417Y334156D01*
X30472Y334114D01*
X30514Y334100D01*
X30528Y334086D01*
X30667Y334031D01*
X30819Y334003D01*
X30999Y333975D01*
X31166Y333947D01*
X31332D01*
X31457Y333934D01*
X32150D01*
Y338080D01*
D02*
G37*
G36*
Y286080D02*
X31568D01*
X31249Y286066D01*
X30972Y286011D01*
X30750Y285942D01*
X30570Y285858D01*
X30431Y285761D01*
X30334Y285692D01*
X30264Y285637D01*
X30250Y285623D01*
X30181Y285525D01*
X30112Y285428D01*
X30015Y285179D01*
X29945Y284901D01*
X29904Y284638D01*
X29862Y284374D01*
Y284263D01*
X29848Y284166D01*
Y284083D01*
Y284028D01*
Y283986D01*
Y283972D01*
X29862Y283653D01*
X29876Y283390D01*
X29904Y283154D01*
X29931Y282974D01*
X29973Y282835D01*
X30001Y282738D01*
X30015Y282669D01*
X30029Y282655D01*
X30098Y282516D01*
X30181Y282391D01*
X30264Y282294D01*
X30348Y282225D01*
X30417Y282155D01*
X30472Y282114D01*
X30514Y282100D01*
X30528Y282086D01*
X30667Y282031D01*
X30819Y282003D01*
X30999Y281975D01*
X31166Y281947D01*
X31332D01*
X31457Y281934D01*
X32150D01*
Y286080D01*
D02*
G37*
G36*
X629486Y223250D02*
Y223250D01*
D01*
Y223250D01*
D02*
G37*
G36*
X582780Y40925D02*
X582224D01*
X581965Y40888D01*
X581706Y40814D01*
X581632D01*
X581483Y40777D01*
X581298Y40740D01*
X581150Y40666D01*
X581113D01*
X581076Y40629D01*
X580928Y40444D01*
X580743Y40221D01*
X580595Y39888D01*
Y39851D01*
X580558Y39814D01*
X580521Y39592D01*
Y39259D01*
X580558Y38888D01*
Y38851D01*
X580595Y38814D01*
X580632Y38592D01*
X580780Y38296D01*
X580928Y37888D01*
X581113Y37481D01*
X581335Y37074D01*
X581595Y36703D01*
X581891Y36407D01*
X581928Y36370D01*
X582039Y36296D01*
X582187Y36185D01*
X582409Y36037D01*
X582705Y35889D01*
X583039Y35703D01*
X583409Y35555D01*
X583816Y35407D01*
X583853D01*
X583928Y35370D01*
X584150Y35259D01*
X584224Y35296D01*
X584409Y35370D01*
X584668Y35518D01*
X584964Y35703D01*
X585039Y35740D01*
X585187Y35889D01*
X585409Y36111D01*
X585594Y36407D01*
X585631Y36444D01*
X585668Y36592D01*
X585742Y36814D01*
X585779Y37111D01*
X585816Y37481D01*
X585779Y37925D01*
X585631Y38407D01*
X585409Y38962D01*
X585372Y38999D01*
X585298Y39148D01*
X585187Y39333D01*
X585001Y39592D01*
X584594Y40110D01*
X584335Y40332D01*
X584039Y40518D01*
X584002Y40555D01*
X583891Y40592D01*
X583742Y40666D01*
X583557Y40740D01*
X583076Y40888D01*
X582780Y40925D01*
D02*
G37*
G36*
X584113Y33481D02*
X584039D01*
X583928Y33444D01*
X583705Y33407D01*
X583372D01*
X583224Y33370D01*
X583076Y33333D01*
X582854Y33296D01*
X582631Y33222D01*
X582335Y33111D01*
X582298D01*
X582187Y33074D01*
X582039Y33000D01*
X581817Y32889D01*
X581595Y32741D01*
X581372Y32518D01*
X581113Y32296D01*
X580891Y32000D01*
X580854Y31963D01*
X580817Y31852D01*
X580706Y31667D01*
X580632Y31445D01*
X580521Y31111D01*
X580447Y30778D01*
X580409Y30371D01*
Y29889D01*
Y29815D01*
Y29667D01*
X580447Y29408D01*
X580521Y29037D01*
X580595Y28593D01*
X580706Y28075D01*
X580854Y27519D01*
X581076Y26890D01*
X581113Y26815D01*
X581187Y26630D01*
X581335Y26334D01*
X581520Y26001D01*
X581780Y25630D01*
X582076Y25260D01*
X582372Y24927D01*
X582743Y24667D01*
X582780Y24630D01*
X582891Y24593D01*
X583076Y24482D01*
X583298Y24371D01*
X583853Y24186D01*
X584150Y24112D01*
X584409Y24075D01*
X584816D01*
X585113Y24112D01*
X585446Y24149D01*
X585816Y24223D01*
X586187Y24334D01*
X586594Y24482D01*
X586631Y24519D01*
X586742Y24593D01*
X586927Y24704D01*
X587150Y24853D01*
X587409Y25075D01*
X587668Y25334D01*
X587927Y25630D01*
X588149Y25964D01*
X588186Y26001D01*
X588223Y26149D01*
X588335Y26334D01*
X588409Y26593D01*
X588483Y26890D01*
X588557Y27260D01*
X588594Y27667D01*
X588557Y28075D01*
Y28112D01*
X588520Y28297D01*
X588446Y28519D01*
X588372Y28815D01*
X588223Y29186D01*
X588038Y29593D01*
X587816Y30037D01*
X587520Y30519D01*
X587483Y30593D01*
X587372Y30741D01*
X587187Y30963D01*
X586964Y31259D01*
X586705Y31556D01*
X586409Y31889D01*
X586113Y32222D01*
X585779Y32482D01*
X585742Y32518D01*
X585631Y32593D01*
X585483Y32704D01*
X585261Y32852D01*
X585001Y33037D01*
X584705Y33185D01*
X584113Y33481D01*
D02*
G37*
G36*
X567670Y40851D02*
X567485D01*
X567337Y40814D01*
X567151Y40777D01*
X566966Y40703D01*
X566707Y40629D01*
X566485Y40481D01*
X566263Y40296D01*
X566226Y40258D01*
X566152Y40184D01*
X566040Y40073D01*
X565892Y39925D01*
X565744Y39703D01*
X565596Y39444D01*
X565337Y38851D01*
Y38814D01*
X565300Y38703D01*
X565263Y38518D01*
X565189Y38259D01*
X565152Y37962D01*
X565078Y37592D01*
X565041Y37185D01*
X564967Y36740D01*
X564893Y35740D01*
X564930Y34629D01*
X565004Y33444D01*
X565115Y32852D01*
X565263Y32259D01*
Y32222D01*
X565300Y32111D01*
X565337Y31963D01*
X565411Y31741D01*
X565522Y31482D01*
X565633Y31148D01*
X565892Y30445D01*
X566226Y29630D01*
X566670Y28741D01*
X567151Y27852D01*
X567707Y27038D01*
X567744Y26964D01*
X567892Y26778D01*
X568151Y26519D01*
X568411Y26186D01*
X568781Y25815D01*
X569151Y25445D01*
X569522Y25075D01*
X569929Y24779D01*
X569966Y24742D01*
X570114Y24667D01*
X570299Y24556D01*
X570522Y24445D01*
X571077Y24186D01*
X571336Y24112D01*
X571595Y24075D01*
X571744D01*
X571892Y24112D01*
X572114D01*
X572595Y24223D01*
X573114Y24445D01*
X573151D01*
X573225Y24519D01*
X573336Y24593D01*
X573484Y24704D01*
X573855Y25038D01*
X574225Y25519D01*
X574262Y25593D01*
X574373Y25815D01*
X574521Y26149D01*
X574669Y26630D01*
X574817Y27223D01*
X574929Y27926D01*
X574966Y28778D01*
X574929Y29704D01*
Y29741D01*
Y29815D01*
X574892Y29963D01*
X574855Y30185D01*
X574817Y30408D01*
X574743Y30704D01*
X574669Y31037D01*
X574595Y31445D01*
X574484Y31852D01*
X574336Y32296D01*
X574040Y33296D01*
X573632Y34444D01*
X573114Y35629D01*
Y35666D01*
X573077Y35740D01*
X573003Y35889D01*
X572892Y36074D01*
X572781Y36259D01*
X572669Y36518D01*
X572336Y37074D01*
X571966Y37703D01*
X571521Y38370D01*
X571077Y38962D01*
X570559Y39518D01*
X570485Y39592D01*
X570299Y39740D01*
X570040Y39925D01*
X569670Y40184D01*
X569225Y40444D01*
X568744Y40629D01*
X568226Y40777D01*
X567670Y40851D01*
D02*
G37*
G36*
X527711D02*
X527526D01*
X527378Y40814D01*
X527193Y40777D01*
X527008Y40703D01*
X526748Y40629D01*
X526526Y40481D01*
X526304Y40296D01*
X526267Y40258D01*
X526193Y40184D01*
X526082Y40073D01*
X525934Y39925D01*
X525785Y39703D01*
X525637Y39444D01*
X525378Y38851D01*
Y38814D01*
X525341Y38703D01*
X525304Y38518D01*
X525230Y38259D01*
X525193Y37962D01*
X525119Y37592D01*
X525082Y37185D01*
X525008Y36740D01*
X524934Y35740D01*
X524971Y34629D01*
X525045Y33444D01*
X525156Y32852D01*
X525304Y32259D01*
Y32222D01*
X525341Y32111D01*
X525378Y31963D01*
X525452Y31741D01*
X525563Y31482D01*
X525674Y31148D01*
X525934Y30445D01*
X526267Y29630D01*
X526711Y28741D01*
X527193Y27852D01*
X527748Y27038D01*
X527785Y26964D01*
X527933Y26778D01*
X528193Y26519D01*
X528452Y26186D01*
X528822Y25815D01*
X529193Y25445D01*
X529563Y25075D01*
X529970Y24779D01*
X530007Y24742D01*
X530155Y24667D01*
X530340Y24556D01*
X530563Y24445D01*
X531118Y24186D01*
X531377Y24112D01*
X531637Y24075D01*
X531785D01*
X531933Y24112D01*
X532155D01*
X532637Y24223D01*
X533155Y24445D01*
X533192D01*
X533266Y24519D01*
X533377Y24593D01*
X533525Y24704D01*
X533896Y25038D01*
X534266Y25519D01*
X534303Y25593D01*
X534414Y25815D01*
X534562Y26149D01*
X534711Y26630D01*
X534859Y27223D01*
X534970Y27926D01*
X535007Y28778D01*
X534970Y29704D01*
Y29741D01*
Y29815D01*
X534933Y29963D01*
X534896Y30185D01*
X534859Y30408D01*
X534785Y30704D01*
X534711Y31037D01*
X534636Y31445D01*
X534525Y31852D01*
X534377Y32296D01*
X534081Y33296D01*
X533674Y34444D01*
X533155Y35629D01*
Y35666D01*
X533118Y35740D01*
X533044Y35889D01*
X532933Y36074D01*
X532822Y36259D01*
X532711Y36518D01*
X532377Y37074D01*
X532007Y37703D01*
X531563Y38370D01*
X531118Y38962D01*
X530600Y39518D01*
X530526Y39592D01*
X530340Y39740D01*
X530081Y39925D01*
X529711Y40184D01*
X529267Y40444D01*
X528785Y40629D01*
X528267Y40777D01*
X527711Y40851D01*
D02*
G37*
%LPD*%
D72*
X106000Y123999D02*
D03*
X87000Y145999D02*
D03*
X50000Y630000D02*
D03*
X10000D02*
D03*
X30000Y650000D02*
D03*
X31000Y608000D02*
D03*
X45000Y615000D02*
D03*
X15000D02*
D03*
Y645000D02*
D03*
X45000D02*
D03*
X650000Y30000D02*
D03*
X610000D02*
D03*
X630000Y50000D02*
D03*
X631000Y8000D02*
D03*
X645000Y15000D02*
D03*
X615000D02*
D03*
Y45000D02*
D03*
X645000D02*
D03*
X50000Y30000D02*
D03*
X10000D02*
D03*
X30000Y50000D02*
D03*
X31000Y8000D02*
D03*
X45000Y15000D02*
D03*
X15000D02*
D03*
Y45000D02*
D03*
X45000D02*
D03*
X650000Y630000D02*
D03*
X610000D02*
D03*
X630000Y650000D02*
D03*
X631000Y608000D02*
D03*
X645000Y615000D02*
D03*
X615000D02*
D03*
Y645000D02*
D03*
X645000D02*
D03*
D137*
X542000Y74200D02*
D03*
Y175800D02*
D03*
X643600Y74200D02*
D03*
Y175800D02*
D03*
X542000Y264700D02*
D03*
Y366300D02*
D03*
X643600Y264700D02*
D03*
Y366300D02*
D03*
D138*
X580000Y125000D02*
D03*
Y315500D02*
D03*
D139*
X30000Y630000D02*
D03*
X630000Y30000D02*
D03*
X30000D02*
D03*
X630000Y630000D02*
D03*
D140*
X580000Y205000D02*
D03*
Y237500D02*
D03*
D141*
X615000Y475000D02*
D03*
Y425000D02*
D03*
Y575000D02*
D03*
Y525000D02*
D03*
D142*
X68250Y183250D02*
D03*
Y96750D02*
D03*
D143*
X62250Y100250D02*
D03*
D144*
X17750Y183200D02*
D03*
Y96800D02*
D03*
D145*
X62250Y179750D02*
D03*
D146*
X20000Y510000D02*
D03*
X140000D02*
D03*
D147*
X80000Y435000D02*
D03*
X105000Y580000D02*
D03*
X55000Y435000D02*
D03*
X105000D02*
D03*
D148*
X158100Y635000D02*
D03*
X578100D02*
D03*
D149*
X81900D02*
D03*
X107300D02*
D03*
X132700D02*
D03*
X501900D02*
D03*
X552700D02*
D03*
X527300D02*
D03*
D150*
X440000Y625250D02*
D03*
X220000D02*
D03*
D151*
X330000Y310000D02*
D03*
D152*
X55000Y580000D02*
D03*
D195*
X332000Y78000D02*
D03*
D198*
X521998Y218000D02*
D03*
X276001Y114000D02*
D03*
X275999Y104000D02*
D03*
D199*
X285003Y126003D02*
D03*
X295000Y126002D02*
D03*
X315000Y125999D02*
D03*
X305002Y126002D02*
D03*
D200*
X64000Y219000D02*
D03*
X165250Y140750D02*
D03*
X332001Y78000D02*
D03*
X172251Y113250D02*
D03*
D201*
X331999Y78000D02*
D03*
D202*
X40000Y350000D02*
D03*
Y270000D02*
D03*
Y249999D02*
D03*
Y370000D02*
D03*
X33000Y166000D02*
D03*
Y115999D02*
D03*
D203*
X269999Y630000D02*
D03*
X389999D02*
D03*
X370000D02*
D03*
X290000D02*
D03*
X330000D02*
D03*
D204*
X531000Y218000D02*
D03*
X525000D02*
D03*
X519000D02*
D03*
X279000Y114000D02*
D03*
X273000D02*
D03*
Y104000D02*
D03*
X279000D02*
D03*
D205*
X305000Y129000D02*
D03*
X285000D02*
D03*
X295000Y123000D02*
D03*
X285000D02*
D03*
X295000Y129000D02*
D03*
X315000D02*
D03*
Y123000D02*
D03*
X305000D02*
D03*
M02*
