G04*
G04 #@! TF.GenerationSoftware,Altium Limited,DefaultClient, ()*
G04*
G04 Layer_Physical_Order=4*
G04 Layer_Color=16440176*
%FSLAX44Y44*%
%MOMM*%
G71*
G04*
G04 #@! TF.SameCoordinates,4AC8D3AE-847C-4DBA-A645-61C765A70751*
G04*
G04*
G04 #@! TF.FilePolarity,Positive*
G04*
G01*
G75*
%ADD72C,0.8000*%
%ADD162C,0.3000*%
%ADD163C,0.2000*%
%ADD173C,2.0000*%
%ADD174C,3.0000*%
%ADD175C,5.4000*%
%ADD176C,1.8000*%
%ADD177O,2.5500X1.2500*%
%ADD178O,1.3500X1.9250*%
%ADD179O,2.6000X1.3000*%
%ADD180O,1.3500X1.6500*%
G04:AMPARAMS|DCode=181|XSize=3.2mm|YSize=4mm|CornerRadius=0.8mm|HoleSize=0mm|Usage=FLASHONLY|Rotation=0.000|XOffset=0mm|YOffset=0mm|HoleType=Round|Shape=RoundedRectangle|*
%AMROUNDEDRECTD181*
21,1,3.2000,2.4000,0,0,0.0*
21,1,1.6000,4.0000,0,0,0.0*
1,1,1.6000,0.8000,-1.2000*
1,1,1.6000,-0.8000,-1.2000*
1,1,1.6000,-0.8000,1.2000*
1,1,1.6000,0.8000,1.2000*
%
%ADD181ROUNDEDRECTD181*%
%ADD182C,1.5000*%
%ADD183O,1.5240X2.0000*%
%ADD184O,1.5000X2.0000*%
%ADD185C,0.3750*%
%ADD186C,0.7500*%
G04:AMPARAMS|DCode=187|XSize=1.5mm|YSize=1.5mm|CornerRadius=0.375mm|HoleSize=0mm|Usage=FLASHONLY|Rotation=0.000|XOffset=0mm|YOffset=0mm|HoleType=Round|Shape=RoundedRectangle|*
%AMROUNDEDRECTD187*
21,1,1.5000,0.7500,0,0,0.0*
21,1,0.7500,1.5000,0,0,0.0*
1,1,0.7500,0.3750,-0.3750*
1,1,0.7500,-0.3750,-0.3750*
1,1,0.7500,-0.3750,0.3750*
1,1,0.7500,0.3750,0.3750*
%
%ADD187ROUNDEDRECTD187*%
%ADD188C,0.5000*%
G04:AMPARAMS|DCode=189|XSize=0.2mm|YSize=0.2mm|CornerRadius=0.01mm|HoleSize=0mm|Usage=FLASHONLY|Rotation=135.000|XOffset=0mm|YOffset=0mm|HoleType=Round|Shape=RoundedRectangle|*
%AMROUNDEDRECTD189*
21,1,0.2000,0.1800,0,0,135.0*
21,1,0.1800,0.2000,0,0,135.0*
1,1,0.0200,0.0000,0.1273*
1,1,0.0200,0.1273,0.0000*
1,1,0.0200,0.0000,-0.1273*
1,1,0.0200,-0.1273,0.0000*
%
%ADD189ROUNDEDRECTD189*%
G04:AMPARAMS|DCode=190|XSize=0.25mm|YSize=0.2mm|CornerRadius=0mm|HoleSize=0mm|Usage=FLASHONLY|Rotation=135.000|XOffset=0mm|YOffset=0mm|HoleType=Round|Shape=Rectangle|*
%AMROTATEDRECTD190*
4,1,4,0.1591,-0.0177,0.0177,-0.1591,-0.1591,0.0177,-0.0177,0.1591,0.1591,-0.0177,0.0*
%
%ADD190ROTATEDRECTD190*%

G36*
X631766Y656941D02*
X635267Y656480D01*
X638679Y655566D01*
X641941Y654215D01*
X645000Y652449D01*
X647802Y650299D01*
X650299Y647802D01*
X652449Y645000D01*
X654215Y641941D01*
X655566Y638679D01*
X656480Y635267D01*
X656941Y631766D01*
X656941Y630000D01*
X656941Y372192D01*
X654941Y371656D01*
X653603Y373975D01*
X651275Y376302D01*
X648425Y377948D01*
X645246Y378800D01*
X644850D01*
Y366300D01*
Y353800D01*
X645246D01*
X648425Y354652D01*
X651275Y356297D01*
X653603Y358625D01*
X654941Y360943D01*
X656941Y360408D01*
X656941Y270592D01*
X654941Y270056D01*
X653603Y272375D01*
X651275Y274702D01*
X648425Y276348D01*
X645246Y277200D01*
X644850D01*
Y264700D01*
Y252200D01*
X645246D01*
X648425Y253052D01*
X651275Y254697D01*
X653603Y257025D01*
X654941Y259344D01*
X656941Y258808D01*
X656941Y181692D01*
X654941Y181156D01*
X653603Y183475D01*
X651275Y185802D01*
X648425Y187448D01*
X645246Y188300D01*
X644850D01*
Y175800D01*
Y163300D01*
X645246D01*
X648425Y164152D01*
X651275Y165798D01*
X653603Y168125D01*
X654941Y170444D01*
X656941Y169908D01*
X656941Y80092D01*
X654941Y79556D01*
X653603Y81875D01*
X651275Y84202D01*
X648425Y85848D01*
X645246Y86700D01*
X644850D01*
Y74200D01*
Y61700D01*
X645246D01*
X648425Y62552D01*
X651275Y64198D01*
X653603Y66525D01*
X654941Y68844D01*
X656941Y68308D01*
X656941Y30000D01*
Y28234D01*
X656480Y24733D01*
X655566Y21321D01*
X654215Y18059D01*
X652449Y15000D01*
X650299Y12198D01*
X647802Y9701D01*
X645000Y7551D01*
X641941Y5785D01*
X638679Y4434D01*
X635267Y3520D01*
X631766Y3059D01*
X28234D01*
X24733Y3520D01*
X21321Y4434D01*
X18059Y5785D01*
X15000Y7551D01*
X12198Y9701D01*
X9701Y12198D01*
X7551Y15000D01*
X5785Y18059D01*
X4434Y21321D01*
X3520Y24733D01*
X3059Y28234D01*
Y30000D01*
Y89406D01*
X4136Y89999D01*
X5059Y90207D01*
X6711Y88939D01*
X8900Y88032D01*
X11250Y87722D01*
X16500D01*
Y96800D01*
Y105878D01*
X11250D01*
X8900Y105568D01*
X6711Y104662D01*
X5059Y103393D01*
X4136Y103602D01*
X3059Y104194D01*
Y175806D01*
X4136Y176399D01*
X5059Y176607D01*
X6711Y175338D01*
X8900Y174432D01*
X11250Y174122D01*
X16500D01*
Y183200D01*
Y192278D01*
X11250D01*
X8900Y191968D01*
X6711Y191061D01*
X5059Y189793D01*
X4136Y190002D01*
X3059Y190594D01*
Y489332D01*
X5059Y490091D01*
X6705Y488828D01*
X9259Y487770D01*
X12000Y487409D01*
X18750D01*
Y510000D01*
Y532591D01*
X12000D01*
X9259Y532230D01*
X6705Y531172D01*
X5059Y529909D01*
X3059Y530668D01*
Y630000D01*
Y631766D01*
X3520Y635267D01*
X4434Y638679D01*
X5785Y641941D01*
X7551Y645000D01*
X9701Y647802D01*
X12198Y650299D01*
X15000Y652449D01*
X18059Y654215D01*
X21321Y655566D01*
X24733Y656480D01*
X28234Y656941D01*
X30000Y656941D01*
X213446Y656941D01*
X214684Y654941D01*
X214250Y653894D01*
Y651606D01*
X215125Y649493D01*
X216743Y647875D01*
X218856Y647000D01*
X221144D01*
X223257Y647875D01*
X224875Y649493D01*
X225750Y651606D01*
Y653894D01*
X225316Y654941D01*
X226553Y656941D01*
X433447Y656941D01*
X434684Y654941D01*
X434250Y653894D01*
Y651606D01*
X435125Y649493D01*
X436743Y647875D01*
X438856Y647000D01*
X441144D01*
X443257Y647875D01*
X444875Y649493D01*
X445750Y651606D01*
Y653894D01*
X445316Y654941D01*
X446553Y656941D01*
X630000Y656941D01*
X631766Y656941D01*
D02*
G37*
%LPC*%
G36*
X159350Y647423D02*
Y636250D01*
X168307D01*
Y637380D01*
X167959Y640022D01*
X166940Y642484D01*
X165318Y644598D01*
X163204Y646220D01*
X160742Y647240D01*
X159350Y647423D01*
D02*
G37*
G36*
X579350D02*
Y636250D01*
X588307D01*
Y637380D01*
X587960Y640022D01*
X586940Y642484D01*
X585318Y644598D01*
X583204Y646220D01*
X580742Y647240D01*
X579350Y647423D01*
D02*
G37*
G36*
X576850D02*
X575458Y647240D01*
X572996Y646220D01*
X570882Y644598D01*
X569260Y642484D01*
X568241Y640022D01*
X567893Y637380D01*
Y636250D01*
X576850D01*
Y647423D01*
D02*
G37*
G36*
X156850D02*
X155458Y647240D01*
X152996Y646220D01*
X150882Y644598D01*
X149260Y642484D01*
X148240Y640022D01*
X147893Y637380D01*
Y636250D01*
X156850D01*
Y647423D01*
D02*
G37*
G36*
X390895Y644500D02*
X389105D01*
X387451Y643815D01*
X386185Y642549D01*
X385500Y640895D01*
Y639105D01*
X386185Y637451D01*
X387451Y636185D01*
X389105Y635500D01*
X390895D01*
X392549Y636185D01*
X393815Y637451D01*
X394500Y639105D01*
Y640895D01*
X393815Y642549D01*
X392549Y643815D01*
X390895Y644500D01*
D02*
G37*
G36*
X370895D02*
X369105D01*
X367451Y643815D01*
X366185Y642549D01*
X365500Y640895D01*
Y639105D01*
X366185Y637451D01*
X367451Y636185D01*
X369105Y635500D01*
X370895D01*
X372549Y636185D01*
X373815Y637451D01*
X374500Y639105D01*
Y640895D01*
X373815Y642549D01*
X372549Y643815D01*
X370895Y644500D01*
D02*
G37*
G36*
X290895D02*
X289105D01*
X287451Y643815D01*
X286185Y642549D01*
X285500Y640895D01*
Y639105D01*
X286185Y637451D01*
X287451Y636185D01*
X289105Y635500D01*
X290895D01*
X292549Y636185D01*
X293815Y637451D01*
X294500Y639105D01*
Y640895D01*
X293815Y642549D01*
X292549Y643815D01*
X290895Y644500D01*
D02*
G37*
G36*
X270895Y644500D02*
X269105D01*
X267451Y643815D01*
X266185Y642549D01*
X265500Y640895D01*
Y639105D01*
X266185Y637451D01*
X267451Y636185D01*
X269105Y635500D01*
X270895D01*
X272549Y636185D01*
X273815Y637451D01*
X274500Y639105D01*
Y640895D01*
X273815Y642549D01*
X272549Y643815D01*
X270895Y644500D01*
D02*
G37*
G36*
X552700Y647082D02*
X550220Y646756D01*
X547909Y645798D01*
X545925Y644276D01*
X544402Y642291D01*
X543445Y639980D01*
X543118Y637500D01*
Y632500D01*
X543445Y630020D01*
X544402Y627709D01*
X545925Y625724D01*
X547909Y624202D01*
X550220Y623245D01*
X552700Y622918D01*
X555180Y623245D01*
X557491Y624202D01*
X559476Y625724D01*
X560998Y627709D01*
X561955Y630020D01*
X562282Y632500D01*
Y637500D01*
X561955Y639980D01*
X560998Y642291D01*
X559476Y644276D01*
X557491Y645798D01*
X555180Y646756D01*
X552700Y647082D01*
D02*
G37*
G36*
X527300D02*
X524820Y646756D01*
X522509Y645798D01*
X520525Y644276D01*
X519002Y642291D01*
X518045Y639980D01*
X517718Y637500D01*
Y632500D01*
X518045Y630020D01*
X519002Y627709D01*
X520525Y625724D01*
X522509Y624202D01*
X524820Y623245D01*
X527300Y622918D01*
X529780Y623245D01*
X532091Y624202D01*
X534076Y625724D01*
X535598Y627709D01*
X536555Y630020D01*
X536882Y632500D01*
Y637500D01*
X536555Y639980D01*
X535598Y642291D01*
X534076Y644276D01*
X532091Y645798D01*
X529780Y646756D01*
X527300Y647082D01*
D02*
G37*
G36*
X501900D02*
X499420Y646756D01*
X497109Y645798D01*
X495125Y644276D01*
X493602Y642291D01*
X492645Y639980D01*
X492318Y637500D01*
Y632500D01*
X492645Y630020D01*
X493602Y627709D01*
X495125Y625724D01*
X497109Y624202D01*
X499420Y623245D01*
X501900Y622918D01*
X504380Y623245D01*
X506691Y624202D01*
X508675Y625724D01*
X510198Y627709D01*
X511156Y630020D01*
X511482Y632500D01*
Y637500D01*
X511156Y639980D01*
X510198Y642291D01*
X508675Y644276D01*
X506691Y645798D01*
X504380Y646756D01*
X501900Y647082D01*
D02*
G37*
G36*
X132700D02*
X130220Y646756D01*
X127909Y645798D01*
X125925Y644276D01*
X124402Y642291D01*
X123444Y639980D01*
X123118Y637500D01*
Y632500D01*
X123444Y630020D01*
X124402Y627709D01*
X125925Y625724D01*
X127909Y624202D01*
X130220Y623245D01*
X132700Y622918D01*
X135180Y623245D01*
X137491Y624202D01*
X139475Y625724D01*
X140998Y627709D01*
X141955Y630020D01*
X142282Y632500D01*
Y637500D01*
X141955Y639980D01*
X140998Y642291D01*
X139475Y644276D01*
X137491Y645798D01*
X135180Y646756D01*
X132700Y647082D01*
D02*
G37*
G36*
X107300D02*
X104820Y646756D01*
X102509Y645798D01*
X100525Y644276D01*
X99002Y642291D01*
X98045Y639980D01*
X97718Y637500D01*
Y632500D01*
X98045Y630020D01*
X99002Y627709D01*
X100525Y625724D01*
X102509Y624202D01*
X104820Y623245D01*
X107300Y622918D01*
X109780Y623245D01*
X112091Y624202D01*
X114075Y625724D01*
X115598Y627709D01*
X116555Y630020D01*
X116882Y632500D01*
Y637500D01*
X116555Y639980D01*
X115598Y642291D01*
X114075Y644276D01*
X112091Y645798D01*
X109780Y646756D01*
X107300Y647082D01*
D02*
G37*
G36*
X81900D02*
X79420Y646756D01*
X77109Y645798D01*
X75125Y644276D01*
X73602Y642291D01*
X72645Y639980D01*
X72318Y637500D01*
Y632500D01*
X72645Y630020D01*
X73602Y627709D01*
X75125Y625724D01*
X77109Y624202D01*
X79420Y623245D01*
X81900Y622918D01*
X84380Y623245D01*
X86691Y624202D01*
X88675Y625724D01*
X90198Y627709D01*
X91155Y630020D01*
X91482Y632500D01*
Y637500D01*
X91155Y639980D01*
X90198Y642291D01*
X88675Y644276D01*
X86691Y645798D01*
X84380Y646756D01*
X81900Y647082D01*
D02*
G37*
G36*
X168307Y633750D02*
X159350D01*
Y622577D01*
X160742Y622761D01*
X163204Y623780D01*
X165318Y625402D01*
X166940Y627516D01*
X167959Y629978D01*
X168307Y632620D01*
Y633750D01*
D02*
G37*
G36*
X576850D02*
X567893D01*
Y632620D01*
X568241Y629978D01*
X569260Y627516D01*
X570882Y625402D01*
X572996Y623780D01*
X575458Y622761D01*
X576850Y622577D01*
Y633750D01*
D02*
G37*
G36*
X588307D02*
X579350D01*
Y622577D01*
X580742Y622761D01*
X583204Y623780D01*
X585318Y625402D01*
X586940Y627516D01*
X587960Y629978D01*
X588307Y632620D01*
Y633750D01*
D02*
G37*
G36*
X156850D02*
X147893D01*
Y632620D01*
X148240Y629978D01*
X149260Y627516D01*
X150882Y625402D01*
X152996Y623780D01*
X155458Y622761D01*
X156850Y622577D01*
Y633750D01*
D02*
G37*
G36*
X441144Y631000D02*
X438856D01*
X436743Y630125D01*
X435125Y628507D01*
X434250Y626394D01*
Y624106D01*
X435125Y621993D01*
X436743Y620375D01*
X438856Y619500D01*
X441144D01*
X443257Y620375D01*
X444875Y621993D01*
X445750Y624106D01*
Y626394D01*
X444875Y628507D01*
X443257Y630125D01*
X441144Y631000D01*
D02*
G37*
G36*
X221144D02*
X218856D01*
X216743Y630125D01*
X215125Y628507D01*
X214250Y626394D01*
Y624106D01*
X215125Y621993D01*
X216743Y620375D01*
X218856Y619500D01*
X221144D01*
X223257Y620375D01*
X224875Y621993D01*
X225750Y624106D01*
Y626394D01*
X224875Y628507D01*
X223257Y630125D01*
X221144Y631000D01*
D02*
G37*
G36*
X351895Y623500D02*
X350105D01*
X348451Y622815D01*
X347185Y621549D01*
X346500Y619895D01*
Y618105D01*
X347185Y616451D01*
X348451Y615185D01*
X350105Y614500D01*
X351895D01*
X353549Y615185D01*
X354815Y616451D01*
X355500Y618105D01*
Y619895D01*
X354815Y621549D01*
X353549Y622815D01*
X351895Y623500D01*
D02*
G37*
G36*
X144895Y614500D02*
X143105D01*
X141451Y613815D01*
X140185Y612549D01*
X139500Y610895D01*
Y609105D01*
X140185Y607451D01*
X141451Y606185D01*
X143105Y605500D01*
X144895D01*
X146549Y606185D01*
X147815Y607451D01*
X148500Y609105D01*
Y610895D01*
X147815Y612549D01*
X146549Y613815D01*
X144895Y614500D01*
D02*
G37*
G36*
X96895D02*
X95105D01*
X93451Y613815D01*
X92185Y612549D01*
X91500Y610895D01*
Y609105D01*
X92185Y607451D01*
X93451Y606185D01*
X95105Y605500D01*
X96895D01*
X98549Y606185D01*
X99815Y607451D01*
X100500Y609105D01*
Y610895D01*
X99815Y612549D01*
X98549Y613815D01*
X96895Y614500D01*
D02*
G37*
G36*
X440895Y609500D02*
X439105D01*
X437451Y608815D01*
X436185Y607549D01*
X435500Y605895D01*
Y604105D01*
X436185Y602451D01*
X437451Y601185D01*
X439105Y600500D01*
X440895D01*
X442549Y601185D01*
X443815Y602451D01*
X444500Y604105D01*
Y605895D01*
X443815Y607549D01*
X442549Y608815D01*
X440895Y609500D01*
D02*
G37*
G36*
X542895Y608500D02*
X541105D01*
X539451Y607815D01*
X538185Y606549D01*
X537500Y604895D01*
Y603105D01*
X538185Y601451D01*
X539451Y600185D01*
X541105Y599500D01*
X542895D01*
X544549Y600185D01*
X545815Y601451D01*
X546500Y603105D01*
Y604895D01*
X545815Y606549D01*
X544549Y607815D01*
X542895Y608500D01*
D02*
G37*
G36*
X123895Y607500D02*
X122105D01*
X120451Y606815D01*
X119185Y605549D01*
X118500Y603895D01*
Y602105D01*
X119185Y600451D01*
X120451Y599185D01*
X122105Y598500D01*
X123895D01*
X125549Y599185D01*
X126815Y600451D01*
X127500Y602105D01*
Y603895D01*
X126815Y605549D01*
X125549Y606815D01*
X123895Y607500D01*
D02*
G37*
G36*
X507895Y593500D02*
X506105D01*
X504451Y592815D01*
X503185Y591549D01*
X502500Y589895D01*
Y588105D01*
X503185Y586451D01*
X504451Y585185D01*
X506105Y584500D01*
X507895D01*
X509549Y585185D01*
X510815Y586451D01*
X511500Y588105D01*
Y589895D01*
X510815Y591549D01*
X509549Y592815D01*
X507895Y593500D01*
D02*
G37*
G36*
X106316Y590000D02*
X106250D01*
Y581250D01*
X115000D01*
Y581316D01*
X114319Y583860D01*
X113002Y586140D01*
X111140Y588002D01*
X108860Y589319D01*
X106316Y590000D01*
D02*
G37*
G36*
X103750D02*
X103684D01*
X101140Y589319D01*
X98860Y588002D01*
X96998Y586140D01*
X95681Y583860D01*
X95000Y581316D01*
Y581250D01*
X103750D01*
Y590000D01*
D02*
G37*
G36*
X58750Y589613D02*
X51250D01*
X49007Y589166D01*
X47105Y587896D01*
X45834Y585993D01*
X45387Y583750D01*
Y576250D01*
X45834Y574007D01*
X47105Y572104D01*
X49007Y570834D01*
X51250Y570387D01*
X58750D01*
X60993Y570834D01*
X62895Y572104D01*
X64166Y574007D01*
X64613Y576250D01*
Y583750D01*
X64166Y585993D01*
X62895Y587896D01*
X60993Y589166D01*
X58750Y589613D01*
D02*
G37*
G36*
X115000Y578750D02*
X106250D01*
Y570000D01*
X106316D01*
X108860Y570681D01*
X111140Y571998D01*
X113002Y573860D01*
X114319Y576140D01*
X115000Y578684D01*
Y578750D01*
D02*
G37*
G36*
X103750D02*
X95000D01*
Y578684D01*
X95681Y576140D01*
X96998Y573860D01*
X98860Y571998D01*
X101140Y570681D01*
X103684Y570000D01*
X103750D01*
Y578750D01*
D02*
G37*
G36*
X525895Y584500D02*
X524105D01*
X522451Y583815D01*
X521185Y582549D01*
X520500Y580895D01*
Y579105D01*
X521185Y577451D01*
X522451Y576185D01*
X522699Y576082D01*
Y573918D01*
X522451Y573815D01*
X521185Y572549D01*
X520500Y570895D01*
Y569105D01*
X521185Y567451D01*
X522451Y566185D01*
X524105Y565500D01*
X525895D01*
X527549Y566185D01*
X528815Y567451D01*
X529500Y569105D01*
Y570895D01*
X528815Y572549D01*
X527549Y573815D01*
X527301Y573918D01*
Y576082D01*
X527549Y576185D01*
X528815Y577451D01*
X529500Y579105D01*
Y580895D01*
X528815Y582549D01*
X527549Y583815D01*
X525895Y584500D01*
D02*
G37*
G36*
X500895Y574500D02*
X499105D01*
X497451Y573815D01*
X496185Y572549D01*
X495500Y570895D01*
Y569105D01*
X496185Y567451D01*
X497451Y566185D01*
X499105Y565500D01*
X500895D01*
X502549Y566185D01*
X503815Y567451D01*
X504500Y569105D01*
Y570895D01*
X503815Y572549D01*
X502549Y573815D01*
X500895Y574500D01*
D02*
G37*
G36*
X616674Y592000D02*
X613326D01*
X610041Y591347D01*
X606948Y590065D01*
X604163Y588205D01*
X601795Y585837D01*
X599935Y583052D01*
X598653Y579959D01*
X598000Y576674D01*
Y573326D01*
X598653Y570041D01*
X599935Y566948D01*
X601795Y564163D01*
X604163Y561795D01*
X606948Y559935D01*
X610041Y558653D01*
X613326Y558000D01*
X616674D01*
X619959Y558653D01*
X623052Y559935D01*
X625837Y561795D01*
X628205Y564163D01*
X630065Y566948D01*
X631347Y570041D01*
X632000Y573326D01*
Y576674D01*
X631347Y579959D01*
X630065Y583052D01*
X628205Y585837D01*
X625837Y588205D01*
X623052Y590065D01*
X619959Y591347D01*
X616674Y592000D01*
D02*
G37*
G36*
X552895Y541500D02*
X551105D01*
X549451Y540815D01*
X548185Y539549D01*
X547500Y537895D01*
Y536105D01*
X548185Y534451D01*
X549451Y533185D01*
X551105Y532500D01*
X552895D01*
X554549Y533185D01*
X555815Y534451D01*
X556500Y536105D01*
Y537895D01*
X555815Y539549D01*
X554549Y540815D01*
X552895Y541500D01*
D02*
G37*
G36*
X616724Y542500D02*
X616250D01*
Y526250D01*
X632500D01*
Y526724D01*
X631828Y530105D01*
X630508Y533289D01*
X628593Y536156D01*
X626156Y538593D01*
X623289Y540508D01*
X620105Y541828D01*
X616724Y542500D01*
D02*
G37*
G36*
X613750D02*
X613276D01*
X609895Y541828D01*
X606711Y540508D01*
X603844Y538593D01*
X601407Y536156D01*
X599492Y533289D01*
X598172Y530105D01*
X597500Y526724D01*
Y526250D01*
X613750D01*
Y542500D01*
D02*
G37*
G36*
X315895Y527500D02*
X314105D01*
X312451Y526815D01*
X311185Y525549D01*
X310500Y523895D01*
Y522105D01*
X311185Y520451D01*
X312451Y519185D01*
X314105Y518500D01*
X315895D01*
X317549Y519185D01*
X318815Y520451D01*
X319500Y522105D01*
Y523895D01*
X318815Y525549D01*
X317549Y526815D01*
X315895Y527500D01*
D02*
G37*
G36*
X148000Y532591D02*
X141250D01*
Y511250D01*
X158591D01*
Y522000D01*
X158230Y524741D01*
X157172Y527295D01*
X155489Y529489D01*
X153295Y531172D01*
X150741Y532230D01*
X148000Y532591D01*
D02*
G37*
G36*
X138750D02*
X132000D01*
X129259Y532230D01*
X126705Y531172D01*
X124511Y529489D01*
X122828Y527295D01*
X121770Y524741D01*
X121409Y522000D01*
Y511250D01*
X138750D01*
Y532591D01*
D02*
G37*
G36*
X28000D02*
X21250D01*
Y511250D01*
X38591D01*
Y522000D01*
X38230Y524741D01*
X37172Y527295D01*
X35489Y529489D01*
X33295Y531172D01*
X30741Y532230D01*
X28000Y532591D01*
D02*
G37*
G36*
X632500Y523750D02*
X616250D01*
Y507500D01*
X616724D01*
X620105Y508172D01*
X623289Y509492D01*
X626156Y511407D01*
X628593Y513844D01*
X630508Y516711D01*
X631828Y519895D01*
X632500Y523276D01*
Y523750D01*
D02*
G37*
G36*
X613750D02*
X597500D01*
Y523276D01*
X598172Y519895D01*
X599492Y516711D01*
X601407Y513844D01*
X603844Y511407D01*
X606711Y509492D01*
X609895Y508172D01*
X613276Y507500D01*
X613750D01*
Y523750D01*
D02*
G37*
G36*
X314895Y510500D02*
X313105D01*
X311451Y509815D01*
X310185Y508549D01*
X309500Y506895D01*
Y505105D01*
X310185Y503451D01*
X311451Y502185D01*
X313105Y501500D01*
X314895D01*
X316549Y502185D01*
X317815Y503451D01*
X318500Y505105D01*
Y506895D01*
X317815Y508549D01*
X316549Y509815D01*
X314895Y510500D01*
D02*
G37*
G36*
X563895Y509500D02*
X562105D01*
X560451Y508815D01*
X559185Y507549D01*
X558500Y505895D01*
Y504105D01*
X559185Y502451D01*
X560451Y501185D01*
X562105Y500500D01*
X563895D01*
X565549Y501185D01*
X566815Y502451D01*
X567500Y504105D01*
Y505895D01*
X566815Y507549D01*
X565549Y508815D01*
X563895Y509500D01*
D02*
G37*
G36*
X390895Y614500D02*
X389105D01*
X387451Y613815D01*
X386185Y612549D01*
X385500Y610895D01*
Y610205D01*
X385462Y610043D01*
X385458Y609925D01*
X385455Y609899D01*
X385449Y609874D01*
X385440Y609845D01*
X385426Y609808D01*
X385403Y609762D01*
X385368Y609705D01*
X385338Y609664D01*
X352837Y577163D01*
X352174Y576171D01*
X351941Y575000D01*
X351941Y575000D01*
Y451267D01*
X340009Y439335D01*
X337858Y440012D01*
X337826Y440171D01*
X337163Y441163D01*
X337163Y441163D01*
X334059Y444267D01*
Y448262D01*
X334435Y448647D01*
X336059Y449433D01*
X337105Y449000D01*
X338895D01*
X340549Y449685D01*
X341815Y450951D01*
X342500Y452605D01*
Y454395D01*
X341815Y456049D01*
X340549Y457315D01*
X338895Y458000D01*
X337105D01*
X336059Y457567D01*
X334435Y458353D01*
X334059Y458738D01*
Y483733D01*
X337163Y486837D01*
X337163Y486837D01*
X337826Y487829D01*
X338059Y489000D01*
Y499183D01*
X340059Y500519D01*
X340105Y500500D01*
X341895D01*
X343549Y501185D01*
X344815Y502451D01*
X345500Y504105D01*
Y505895D01*
X344815Y507549D01*
X343549Y508815D01*
X341895Y509500D01*
X340105D01*
X340059Y509481D01*
X338059Y510817D01*
Y574233D01*
X369304Y605479D01*
X369326Y605494D01*
X369338Y605500D01*
X370895D01*
X372549Y606185D01*
X373815Y607451D01*
X374500Y609105D01*
Y610895D01*
X373815Y612549D01*
X372549Y613815D01*
X370895Y614500D01*
X369105D01*
X367451Y613815D01*
X366185Y612549D01*
X365500Y610895D01*
Y610604D01*
X365489Y610541D01*
X365475Y610485D01*
X365456Y610426D01*
X365431Y610364D01*
X365397Y610296D01*
X365354Y610221D01*
X365300Y610139D01*
X365256Y610082D01*
X332837Y577663D01*
X332174Y576671D01*
X331941Y575500D01*
X331941Y575500D01*
Y490267D01*
X330059Y488385D01*
X328059Y489213D01*
Y575000D01*
X328059Y575000D01*
X327826Y576171D01*
X327163Y577163D01*
X325203Y579123D01*
X326335Y580819D01*
X327105Y580500D01*
X328895D01*
X330549Y581185D01*
X331815Y582451D01*
X332500Y584105D01*
Y585895D01*
X331815Y587549D01*
X330549Y588815D01*
X328895Y589500D01*
X327105D01*
X325451Y588815D01*
X324185Y587549D01*
X323500Y585895D01*
Y584105D01*
X323819Y583335D01*
X322123Y582203D01*
X294662Y609664D01*
X294632Y609705D01*
X294597Y609762D01*
X294574Y609808D01*
X294560Y609844D01*
X294550Y609874D01*
X294545Y609899D01*
X294542Y609925D01*
X294538Y610043D01*
X294500Y610205D01*
Y610895D01*
X293815Y612549D01*
X292549Y613815D01*
X290895Y614500D01*
X289105D01*
X287451Y613815D01*
X286185Y612549D01*
X285500Y610895D01*
Y609105D01*
X286185Y607451D01*
X287451Y606185D01*
X289105Y605500D01*
X289795D01*
X289957Y605462D01*
X290075Y605458D01*
X290101Y605455D01*
X290126Y605449D01*
X290156Y605440D01*
X290192Y605426D01*
X290238Y605402D01*
X290295Y605368D01*
X290336Y605338D01*
X321941Y573733D01*
Y460238D01*
X321565Y459854D01*
X319941Y459067D01*
X318895Y459500D01*
X317105D01*
X315451Y458815D01*
X314185Y457549D01*
X313500Y455895D01*
Y454105D01*
X314185Y452451D01*
X315451Y451185D01*
X317105Y450500D01*
X318895D01*
X319941Y450933D01*
X321565Y450146D01*
X321941Y449762D01*
Y430267D01*
X318837Y427163D01*
X318174Y426171D01*
X317941Y425000D01*
X317941Y425000D01*
Y424106D01*
X316801Y422578D01*
X316801Y422578D01*
Y422578D01*
X316065Y422461D01*
X316024Y422560D01*
X315380Y424114D01*
X314114Y425380D01*
X312460Y426065D01*
X311391D01*
X303559Y433898D01*
Y449467D01*
X305105Y450500D01*
X306895D01*
X308549Y451185D01*
X309815Y452451D01*
X310500Y454105D01*
Y455895D01*
X309815Y457549D01*
X308549Y458815D01*
X306895Y459500D01*
X305105D01*
X303559Y460533D01*
Y475233D01*
X305163Y476837D01*
X305826Y477830D01*
X306059Y479000D01*
X306059Y479000D01*
Y577000D01*
X306059Y577000D01*
X305826Y578171D01*
X305163Y579163D01*
X305163Y579163D01*
X274662Y609664D01*
X274632Y609705D01*
X274597Y609762D01*
X274574Y609808D01*
X274559Y609844D01*
X274550Y609874D01*
X274545Y609899D01*
X274542Y609925D01*
X274538Y610043D01*
X274500Y610205D01*
Y610895D01*
X273815Y612549D01*
X272549Y613815D01*
X270895Y614500D01*
X269105D01*
X267451Y613815D01*
X266185Y612549D01*
X265500Y610895D01*
Y609105D01*
X266185Y607451D01*
X267451Y606185D01*
X269105Y605500D01*
X269795D01*
X269957Y605462D01*
X270075Y605458D01*
X270101Y605455D01*
X270126Y605449D01*
X270156Y605440D01*
X270192Y605426D01*
X270238Y605402D01*
X270295Y605368D01*
X270336Y605338D01*
X299941Y575733D01*
Y480267D01*
X298337Y478663D01*
X297674Y477671D01*
X297441Y476500D01*
X297441Y476500D01*
Y460536D01*
X295441Y459274D01*
X294895Y459500D01*
X293105D01*
X293007Y459459D01*
X290826Y460171D01*
X290163Y461163D01*
X286662Y464664D01*
X286632Y464705D01*
X286597Y464762D01*
X286574Y464808D01*
X286560Y464844D01*
X286551Y464874D01*
X286545Y464899D01*
X286542Y464925D01*
X286538Y465043D01*
X286500Y465205D01*
Y465895D01*
X285815Y467549D01*
X284549Y468815D01*
X282895Y469500D01*
X281105D01*
X279451Y468815D01*
X278185Y467549D01*
X277500Y465895D01*
Y464105D01*
X278185Y462451D01*
X279451Y461185D01*
X281105Y460500D01*
X281795D01*
X281957Y460462D01*
X282075Y460458D01*
X282101Y460455D01*
X282126Y460449D01*
X282155Y460440D01*
X282192Y460426D01*
X282238Y460403D01*
X282295Y460368D01*
X282336Y460338D01*
X284941Y457733D01*
Y449642D01*
X282941Y449244D01*
X282815Y449549D01*
X281549Y450815D01*
X279895Y451500D01*
X278105D01*
X276451Y450815D01*
X275185Y449549D01*
X274500Y447895D01*
Y446105D01*
X275185Y444451D01*
X276451Y443185D01*
X278105Y442500D01*
X279895D01*
X281549Y443185D01*
X282815Y444451D01*
X282941Y444756D01*
X284941Y444358D01*
Y429000D01*
X284941Y429000D01*
X285174Y427830D01*
X285837Y426837D01*
X310895Y401779D01*
X309762Y400084D01*
X308950Y400420D01*
X307160D01*
X305506Y399735D01*
X304240Y398469D01*
X303555Y396815D01*
Y395025D01*
X304240Y393371D01*
X303209Y391573D01*
X303185Y391549D01*
X302500Y389895D01*
Y388105D01*
X303185Y386451D01*
X304451Y385185D01*
X306105Y384500D01*
X307895D01*
X309549Y385185D01*
X310815Y386451D01*
X311500Y388105D01*
Y389895D01*
X310815Y391549D01*
X311846Y393347D01*
X311870Y393371D01*
X312555Y395025D01*
Y396815D01*
X312219Y397627D01*
X313914Y398760D01*
X327491Y385183D01*
X327155Y383297D01*
X325907Y382049D01*
X325222Y380395D01*
Y379326D01*
X321314Y375418D01*
X320348Y375513D01*
X318500Y376105D01*
Y377895D01*
X317815Y379549D01*
X316549Y380815D01*
X314895Y381500D01*
X313105D01*
X311451Y380815D01*
X310963Y380327D01*
X310822Y380239D01*
X310735Y380159D01*
X310715Y380143D01*
X310693Y380128D01*
X310666Y380114D01*
X310630Y380099D01*
X310581Y380083D01*
X310517Y380067D01*
X310465Y380059D01*
X185267D01*
X114163Y451163D01*
X113171Y451826D01*
X112000Y452059D01*
X112000Y452059D01*
X69000D01*
X69000Y452059D01*
X67829Y451826D01*
X66837Y451163D01*
X66837Y451163D01*
X61173Y445499D01*
X61149Y445479D01*
X60918Y445336D01*
X60571Y445178D01*
X60109Y445020D01*
X59532Y444875D01*
X58847Y444751D01*
X58078Y444655D01*
X56159Y444544D01*
X55065Y444539D01*
X54875Y444500D01*
X53749D01*
X51333Y443853D01*
X49167Y442602D01*
X47398Y440833D01*
X46147Y438667D01*
X45500Y436251D01*
Y433749D01*
X46147Y431333D01*
X47398Y429167D01*
X49167Y427398D01*
X51333Y426147D01*
X53749Y425500D01*
X56251D01*
X58667Y426147D01*
X60833Y427398D01*
X62602Y429167D01*
X63853Y431333D01*
X64500Y433749D01*
Y434875D01*
X64539Y435065D01*
X64544Y436159D01*
X64655Y438078D01*
X64751Y438847D01*
X64875Y439533D01*
X65020Y440109D01*
X65178Y440571D01*
X65336Y440918D01*
X65479Y441149D01*
X65499Y441173D01*
X70267Y445941D01*
X74951D01*
X75487Y443941D01*
X73860Y443002D01*
X71998Y441140D01*
X70682Y438860D01*
X70000Y436316D01*
Y436250D01*
X90000D01*
Y436316D01*
X89319Y438860D01*
X88002Y441140D01*
X86140Y443002D01*
X84513Y443941D01*
X85049Y445941D01*
X101401D01*
X101664Y443941D01*
X101333Y443853D01*
X99167Y442602D01*
X97398Y440833D01*
X96147Y438667D01*
X95500Y436251D01*
Y433749D01*
X96147Y431333D01*
X97398Y429167D01*
X99167Y427398D01*
X101333Y426147D01*
X103749Y425500D01*
X104875D01*
X105065Y425461D01*
X106159Y425456D01*
X108078Y425345D01*
X108847Y425249D01*
X109533Y425125D01*
X110109Y424980D01*
X110571Y424822D01*
X110918Y424664D01*
X111149Y424521D01*
X111173Y424501D01*
X166837Y368837D01*
X166837Y368837D01*
X167829Y368174D01*
X169000Y367941D01*
X169000Y367941D01*
X321222D01*
X321222Y367941D01*
X322392Y368174D01*
X323385Y368837D01*
X329548Y375000D01*
X330617D01*
X332271Y375685D01*
X333537Y376951D01*
X334293Y378596D01*
X335500Y378441D01*
X338464D01*
X339726Y376441D01*
X339500Y375895D01*
Y374105D01*
X340185Y372451D01*
X341451Y371185D01*
X343105Y370500D01*
X344895D01*
X346549Y371185D01*
X347494Y372130D01*
X349683Y372769D01*
X446941Y275511D01*
Y142788D01*
X444941Y142591D01*
X444826Y143171D01*
X444163Y144163D01*
X444163Y144163D01*
X329163Y259163D01*
X328171Y259826D01*
X327000Y260059D01*
X327000Y260059D01*
X316535D01*
X316483Y260067D01*
X316419Y260083D01*
X316370Y260099D01*
X316334Y260114D01*
X316307Y260128D01*
X316285Y260142D01*
X316265Y260159D01*
X316178Y260239D01*
X316037Y260327D01*
X315549Y260815D01*
X313895Y261500D01*
X312105D01*
X310451Y260815D01*
X309185Y259549D01*
X308500Y257895D01*
Y256105D01*
X309185Y254451D01*
X310451Y253185D01*
X312105Y252500D01*
X313895D01*
X315549Y253185D01*
X316037Y253673D01*
X316178Y253761D01*
X316265Y253841D01*
X316285Y253857D01*
X316307Y253872D01*
X316334Y253886D01*
X316370Y253901D01*
X316419Y253917D01*
X316483Y253933D01*
X316535Y253941D01*
X324345D01*
X324783Y253682D01*
X325124Y253125D01*
X324451Y250815D01*
X323185Y249549D01*
X322500Y247895D01*
Y246105D01*
X323185Y244451D01*
X324451Y243185D01*
X326105Y242500D01*
X326795D01*
X326957Y242462D01*
X327075Y242458D01*
X327101Y242455D01*
X327126Y242450D01*
X327155Y242440D01*
X327192Y242426D01*
X327238Y242403D01*
X327295Y242368D01*
X327336Y242338D01*
X431941Y137733D01*
Y123534D01*
X431933Y123483D01*
X431917Y123419D01*
X431901Y123370D01*
X431886Y123334D01*
X431872Y123307D01*
X431858Y123285D01*
X431842Y123265D01*
X431761Y123178D01*
X431673Y123037D01*
X431185Y122549D01*
X430500Y120895D01*
Y120205D01*
X430462Y120043D01*
X430458Y119925D01*
X430455Y119899D01*
X430449Y119874D01*
X430440Y119845D01*
X430426Y119808D01*
X430402Y119762D01*
X430368Y119705D01*
X430338Y119664D01*
X429733Y119059D01*
X323000D01*
X321829Y118826D01*
X320837Y118163D01*
X320837Y118163D01*
X302500Y99826D01*
X301873Y99847D01*
X300278Y100432D01*
X299815Y101549D01*
X298549Y102815D01*
X296895Y103500D01*
X295105D01*
X293451Y102815D01*
X292185Y101549D01*
X291500Y99895D01*
Y98105D01*
X292185Y96451D01*
X293451Y95185D01*
X294568Y94722D01*
X295152Y93127D01*
X295174Y92500D01*
X280733Y78059D01*
X270534D01*
X270483Y78067D01*
X270419Y78083D01*
X270370Y78099D01*
X270334Y78114D01*
X270307Y78128D01*
X270285Y78142D01*
X270265Y78159D01*
X270178Y78239D01*
X270037Y78327D01*
X269549Y78815D01*
X269343Y78900D01*
X268143Y80357D01*
X268411Y81286D01*
X268750Y82105D01*
Y83895D01*
X268065Y85549D01*
X267361Y86253D01*
X266998Y87500D01*
X267361Y88747D01*
X268065Y89451D01*
X268750Y91105D01*
Y91811D01*
X270624Y93199D01*
X271105Y93000D01*
X272895D01*
X274549Y93685D01*
X275815Y94951D01*
X276500Y96605D01*
Y98395D01*
X275815Y100049D01*
X274549Y101315D01*
X272895Y102000D01*
X271105D01*
X269451Y101315D01*
X268695Y100559D01*
X263767D01*
X254059Y110267D01*
Y122465D01*
X254067Y122516D01*
X254083Y122581D01*
X254099Y122630D01*
X254114Y122666D01*
X254128Y122693D01*
X254142Y122715D01*
X254158Y122735D01*
X254239Y122822D01*
X254327Y122963D01*
X254815Y123451D01*
X255500Y125105D01*
Y126568D01*
X256397Y127212D01*
X257348Y127548D01*
X273059Y111837D01*
X274051Y111174D01*
X275222Y110941D01*
X281465D01*
X281516Y110933D01*
X281581Y110917D01*
X281630Y110901D01*
X281666Y110886D01*
X281693Y110872D01*
X281715Y110858D01*
X281735Y110842D01*
X281822Y110761D01*
X281963Y110673D01*
X282451Y110185D01*
X284105Y109500D01*
X285895D01*
X287549Y110185D01*
X288815Y111451D01*
X289500Y113105D01*
Y114895D01*
X288815Y116549D01*
X287549Y117815D01*
X285895Y118500D01*
X284105D01*
X282451Y117815D01*
X281963Y117327D01*
X281822Y117239D01*
X281735Y117158D01*
X281715Y117142D01*
X281693Y117128D01*
X281666Y117114D01*
X281630Y117099D01*
X281581Y117083D01*
X281517Y117067D01*
X281465Y117059D01*
X276489D01*
X271048Y122500D01*
X271876Y124500D01*
X271895D01*
X273549Y125185D01*
X274815Y126451D01*
X275500Y128105D01*
Y129895D01*
X274815Y131549D01*
X274327Y132037D01*
X274239Y132178D01*
X274158Y132265D01*
X274142Y132285D01*
X274128Y132307D01*
X274114Y132334D01*
X274099Y132370D01*
X274083Y132419D01*
X274067Y132483D01*
X274059Y132535D01*
Y255076D01*
X297647Y278665D01*
X299185Y277549D01*
X299144Y277449D01*
X298500Y275895D01*
Y274105D01*
X299185Y272451D01*
X300451Y271185D01*
X302105Y270500D01*
X303895D01*
X305549Y271185D01*
X306815Y272451D01*
X307500Y274105D01*
Y275895D01*
X306815Y277549D01*
X305549Y278815D01*
X303895Y279500D01*
X302105D01*
X300551Y278856D01*
X300451Y278815D01*
X299335Y280353D01*
X302924Y283941D01*
X344762D01*
X345147Y283565D01*
X345933Y281941D01*
X345500Y280895D01*
Y279105D01*
X346185Y277451D01*
X347451Y276185D01*
X349105Y275500D01*
X350895D01*
X352549Y276185D01*
X353815Y277451D01*
X354500Y279105D01*
Y280895D01*
X354067Y281941D01*
X354854Y283565D01*
X355238Y283941D01*
X356762D01*
X357146Y283565D01*
X357933Y281941D01*
X357500Y280895D01*
Y279105D01*
X358185Y277451D01*
X359451Y276185D01*
X361105Y275500D01*
X362895D01*
X364549Y276185D01*
X365815Y277451D01*
X366500Y279105D01*
Y280895D01*
X366067Y281941D01*
X366853Y283565D01*
X367238Y283941D01*
X371999D01*
X371999Y283941D01*
X373170Y284174D01*
X374162Y284837D01*
X389663Y300338D01*
X389705Y300368D01*
X389762Y300403D01*
X389808Y300426D01*
X389844Y300440D01*
X389873Y300450D01*
X389898Y300455D01*
X389924Y300458D01*
X390042Y300462D01*
X390205Y300500D01*
X390894D01*
X392548Y301185D01*
X393814Y302451D01*
X394499Y304105D01*
Y305895D01*
X393814Y307549D01*
X392548Y308815D01*
X390894Y309500D01*
X389104D01*
X387450Y308815D01*
X386184Y307549D01*
X385499Y305895D01*
Y305205D01*
X385461Y305043D01*
X385457Y304925D01*
X385454Y304899D01*
X385449Y304874D01*
X385440Y304844D01*
X385425Y304808D01*
X385402Y304762D01*
X385367Y304705D01*
X385337Y304664D01*
X370732Y290059D01*
X350787D01*
X350590Y292059D01*
X351170Y292174D01*
X352162Y292837D01*
X359663Y300338D01*
X359705Y300368D01*
X359762Y300403D01*
X359808Y300426D01*
X359844Y300440D01*
X359873Y300450D01*
X359898Y300455D01*
X359924Y300458D01*
X360042Y300462D01*
X360205Y300500D01*
X360894D01*
X362548Y301185D01*
X363814Y302451D01*
X364499Y304105D01*
Y305895D01*
X363814Y307549D01*
X362548Y308815D01*
X360894Y309500D01*
X359104D01*
X357450Y308815D01*
X356184Y307549D01*
X355499Y305895D01*
Y305205D01*
X355461Y305043D01*
X355457Y304925D01*
X355454Y304899D01*
X355449Y304874D01*
X355440Y304844D01*
X355425Y304808D01*
X355402Y304762D01*
X355367Y304705D01*
X355337Y304664D01*
X348732Y298059D01*
X337317D01*
X336781Y300059D01*
X337368Y300398D01*
X339602Y302632D01*
X341182Y305368D01*
X342000Y308420D01*
Y311580D01*
X341182Y314632D01*
X339602Y317368D01*
X337368Y319602D01*
X334632Y321182D01*
X331580Y322000D01*
X328420D01*
X325368Y321182D01*
X322632Y319602D01*
X320398Y317368D01*
X318818Y314632D01*
X318000Y311580D01*
Y308420D01*
X318818Y305368D01*
X320398Y302632D01*
X322632Y300398D01*
X323219Y300059D01*
X322683Y298059D01*
X297000D01*
X297000Y298059D01*
X295830Y297826D01*
X294837Y297163D01*
X294837Y297163D01*
X214837Y217163D01*
X214174Y216171D01*
X213941Y215000D01*
X213941Y215000D01*
Y85778D01*
X213941Y85778D01*
X214174Y84608D01*
X214837Y83615D01*
X230605Y67848D01*
X230171Y66719D01*
X229624Y66000D01*
X228105D01*
X226451Y65315D01*
X225185Y64049D01*
X224500Y62395D01*
Y60605D01*
X225185Y58951D01*
X226451Y57685D01*
X228105Y57000D01*
X229895D01*
X230524Y57260D01*
X231637Y56413D01*
X231827Y56114D01*
X231166Y54111D01*
X230451Y53815D01*
X229185Y52549D01*
X229082Y52301D01*
X226918D01*
X226815Y52549D01*
X225549Y53815D01*
X223895Y54500D01*
X222105D01*
X222059Y54481D01*
X220059Y55817D01*
Y70000D01*
X220059Y70000D01*
X219826Y71171D01*
X219163Y72163D01*
X219163Y72163D01*
X216565Y74760D01*
X215573Y75423D01*
X214736Y75590D01*
X213662Y76664D01*
X213632Y76705D01*
X213597Y76762D01*
X213574Y76808D01*
X213559Y76844D01*
X213550Y76874D01*
X213545Y76899D01*
X213542Y76925D01*
X213538Y77043D01*
X213500Y77205D01*
Y77895D01*
X212815Y79549D01*
X211549Y80815D01*
X209895Y81500D01*
X208105D01*
X206451Y80815D01*
X205185Y79549D01*
X204500Y77895D01*
Y76105D01*
X205185Y74451D01*
X206451Y73185D01*
X208105Y72500D01*
X208795D01*
X208957Y72462D01*
X209075Y72458D01*
X209101Y72455D01*
X209126Y72449D01*
X209156Y72441D01*
X209192Y72426D01*
X209238Y72403D01*
X209295Y72368D01*
X209336Y72338D01*
X211239Y70435D01*
X211240Y70435D01*
X212232Y69772D01*
X213069Y69605D01*
X213941Y68733D01*
Y55238D01*
X213565Y54854D01*
X211941Y54067D01*
X210895Y54500D01*
X209105D01*
X207451Y53815D01*
X206185Y52549D01*
X206082Y52301D01*
X203918D01*
X203815Y52549D01*
X202549Y53815D01*
X200895Y54500D01*
X199105D01*
X197451Y53815D01*
X196185Y52549D01*
X196082Y52301D01*
X193918D01*
X193815Y52549D01*
X192549Y53815D01*
X190895Y54500D01*
X189105D01*
X187451Y53815D01*
X186185Y52549D01*
X185500Y50895D01*
Y49105D01*
X186185Y47451D01*
X187451Y46185D01*
X189105Y45500D01*
X190895D01*
X192549Y46185D01*
X193815Y47451D01*
X193918Y47699D01*
X196082D01*
X196185Y47451D01*
X197451Y46185D01*
X199105Y45500D01*
X200895D01*
X202549Y46185D01*
X203815Y47451D01*
X203918Y47699D01*
X206082D01*
X206185Y47451D01*
X207451Y46185D01*
X209105Y45500D01*
X210895D01*
X211965Y45943D01*
X212131Y45948D01*
X213689Y45310D01*
X214149Y44956D01*
X214174Y44830D01*
X214837Y43837D01*
X218837Y39837D01*
X218837Y39837D01*
X219830Y39174D01*
X221000Y38941D01*
X269000D01*
X269000Y38941D01*
X270170Y39174D01*
X271163Y39837D01*
X285663Y54337D01*
X286326Y55329D01*
X287282Y55841D01*
X288105Y55500D01*
X289895D01*
X291549Y56185D01*
X292815Y57451D01*
X293500Y59105D01*
Y60895D01*
X292815Y62549D01*
X291549Y63815D01*
X291186Y65639D01*
X299545Y73997D01*
X299920Y74018D01*
X301787Y73411D01*
X302185Y72451D01*
X303451Y71185D01*
X305105Y70500D01*
X305443D01*
X305522Y70431D01*
X310453Y65500D01*
X309625Y63500D01*
X309105D01*
X307451Y62815D01*
X306185Y61549D01*
X305500Y59895D01*
Y58105D01*
X306185Y56451D01*
X307451Y55185D01*
X309105Y54500D01*
X310895D01*
X312549Y55185D01*
X313815Y56451D01*
X314474Y58043D01*
X314949Y58266D01*
X316429Y58797D01*
X317376Y57914D01*
X316978Y56033D01*
X316451Y55815D01*
X315185Y54549D01*
X314500Y52895D01*
Y51105D01*
X315185Y49451D01*
X316451Y48185D01*
X318105Y47500D01*
X319895D01*
X321549Y48185D01*
X322815Y49451D01*
X323066Y50058D01*
X325348Y50606D01*
X336306Y39647D01*
X336501Y39404D01*
X336728Y39070D01*
X336922Y38729D01*
X337070Y38409D01*
X336961Y38142D01*
X336103Y36497D01*
X335431Y36278D01*
X334895Y36500D01*
X333105D01*
X331451Y35815D01*
X330185Y34549D01*
X329500Y32895D01*
Y31105D01*
X330185Y29451D01*
X331451Y28185D01*
X333105Y27500D01*
X334895D01*
X335431Y27722D01*
X337431Y26454D01*
Y24000D01*
X337491Y23702D01*
X335648Y22716D01*
X335549Y22815D01*
X333895Y23500D01*
X332105D01*
X330451Y22815D01*
X329185Y21549D01*
X328500Y19895D01*
Y18105D01*
X329185Y16451D01*
X330451Y15185D01*
X332105Y14500D01*
X333895D01*
X335549Y15185D01*
X336815Y16451D01*
X337500Y18105D01*
Y19625D01*
X338216Y20170D01*
X339348Y20605D01*
X341500Y18453D01*
Y18105D01*
X342185Y16451D01*
X343451Y15185D01*
X345105Y14500D01*
X346895D01*
X348549Y15185D01*
X349815Y16451D01*
X350500Y18105D01*
Y19895D01*
X349815Y21549D01*
X348549Y22815D01*
X346895Y23500D01*
X346753D01*
X345330Y24992D01*
X345497Y27094D01*
X346105Y27500D01*
X347895D01*
X349549Y28185D01*
X349693Y28330D01*
X351000Y29312D01*
X352307Y28330D01*
X352451Y28185D01*
X354105Y27500D01*
X355895D01*
X357549Y28185D01*
X357693Y28330D01*
X359000Y29312D01*
X360307Y28330D01*
X360451Y28185D01*
X362105Y27500D01*
X363895D01*
X365549Y28185D01*
X366431Y29067D01*
X368226Y28581D01*
X368431Y28454D01*
Y21795D01*
X368185Y21549D01*
X367500Y19895D01*
Y18105D01*
X368185Y16451D01*
X369451Y15185D01*
X371105Y14500D01*
X372895D01*
X374549Y15185D01*
X375815Y16451D01*
X376500Y18105D01*
Y19895D01*
X375815Y21549D01*
X375576Y21788D01*
X375569Y21893D01*
Y34000D01*
X375297Y35366D01*
X374523Y36523D01*
X368523Y42523D01*
X367366Y43297D01*
X366000Y43569D01*
X344069D01*
X343761Y43603D01*
X343363Y43679D01*
X342985Y43783D01*
X342622Y43916D01*
X342271Y44078D01*
X341930Y44272D01*
X341596Y44500D01*
X341353Y44694D01*
X329523Y56523D01*
X329523Y56523D01*
X310500Y75547D01*
Y75895D01*
X310067Y76941D01*
X310854Y78565D01*
X311238Y78941D01*
X383000D01*
X383000Y78941D01*
X384170Y79174D01*
X385163Y79837D01*
X385664Y80338D01*
X385705Y80368D01*
X385762Y80403D01*
X385808Y80426D01*
X385844Y80441D01*
X385874Y80449D01*
X385899Y80455D01*
X385925Y80458D01*
X386043Y80462D01*
X386205Y80500D01*
X386895D01*
X388549Y81185D01*
X389815Y82451D01*
X390500Y84105D01*
Y85895D01*
X389815Y87549D01*
X388549Y88815D01*
X386895Y89500D01*
X385105D01*
X383451Y88815D01*
X382185Y87549D01*
X381500Y85895D01*
Y85205D01*
X381466Y85059D01*
X339251D01*
X338423Y87059D01*
X338815Y87451D01*
X339500Y89105D01*
Y90895D01*
X338815Y92549D01*
X337864Y93500D01*
X338815Y94451D01*
X339500Y96105D01*
Y97895D01*
X338815Y99549D01*
X337549Y100815D01*
X335895Y101500D01*
X334105D01*
X332451Y100815D01*
X331185Y99549D01*
X330500Y97895D01*
Y96105D01*
X331185Y94451D01*
X332136Y93500D01*
X331185Y92549D01*
X330500Y90895D01*
Y89105D01*
X331185Y87451D01*
X331577Y87059D01*
X330749Y85059D01*
X305998D01*
X305232Y86906D01*
X326267Y107941D01*
X344183D01*
X345519Y105941D01*
X345500Y105895D01*
Y104105D01*
X346185Y102451D01*
X347451Y101185D01*
X349105Y100500D01*
X350895D01*
X352549Y101185D01*
X353815Y102451D01*
X354500Y104105D01*
Y105895D01*
X354481Y105941D01*
X355817Y107941D01*
X431465D01*
X431516Y107933D01*
X431581Y107917D01*
X431630Y107901D01*
X431666Y107886D01*
X431693Y107872D01*
X431715Y107858D01*
X431735Y107842D01*
X431822Y107761D01*
X431963Y107673D01*
X432451Y107185D01*
X434105Y106500D01*
X435895D01*
X437549Y107185D01*
X438815Y108451D01*
X439500Y110105D01*
Y110396D01*
X439511Y110459D01*
X439525Y110515D01*
X439544Y110574D01*
X439569Y110636D01*
X439603Y110704D01*
X439646Y110779D01*
X439700Y110861D01*
X439744Y110918D01*
X444163Y115337D01*
X444163Y115337D01*
X444826Y116329D01*
X444941Y116909D01*
X446941Y116712D01*
Y99267D01*
X420336Y72662D01*
X420295Y72632D01*
X420238Y72597D01*
X420192Y72574D01*
X420156Y72559D01*
X420126Y72551D01*
X420101Y72545D01*
X420075Y72542D01*
X419957Y72538D01*
X419795Y72500D01*
X419105D01*
X417451Y71815D01*
X416185Y70549D01*
X415500Y68895D01*
Y67105D01*
X416185Y65451D01*
X417451Y64185D01*
X419105Y63500D01*
X420895D01*
X422549Y64185D01*
X423815Y65451D01*
X424500Y67105D01*
Y67795D01*
X424538Y67957D01*
X424542Y68075D01*
X424545Y68101D01*
X424551Y68126D01*
X424560Y68155D01*
X424574Y68192D01*
X424597Y68238D01*
X424632Y68295D01*
X424662Y68336D01*
X435093Y78768D01*
X436941Y78002D01*
Y27534D01*
X436933Y27483D01*
X436917Y27419D01*
X436901Y27370D01*
X436886Y27334D01*
X436872Y27307D01*
X436858Y27285D01*
X436842Y27265D01*
X436761Y27178D01*
X436673Y27037D01*
X436185Y26549D01*
X435500Y24895D01*
Y23105D01*
X436185Y21451D01*
X437451Y20185D01*
X439105Y19500D01*
X440895D01*
X442549Y20185D01*
X443815Y21451D01*
X444500Y23105D01*
Y24895D01*
X443815Y26549D01*
X443327Y27037D01*
X443239Y27178D01*
X443158Y27265D01*
X443142Y27285D01*
X443128Y27307D01*
X443114Y27334D01*
X443099Y27370D01*
X443083Y27419D01*
X443067Y27483D01*
X443059Y27535D01*
Y81076D01*
X456163Y94180D01*
X456163Y94180D01*
X456826Y95173D01*
X457059Y96343D01*
X457059Y96343D01*
Y97000D01*
X457059Y97000D01*
Y279000D01*
X457059Y279000D01*
Y279435D01*
X457059Y279435D01*
X456826Y280606D01*
X456163Y281598D01*
X456163Y281598D01*
X365059Y372702D01*
Y390000D01*
X365059Y390000D01*
X364826Y391171D01*
X364163Y392163D01*
X364163Y392163D01*
X356670Y399656D01*
X357139Y402015D01*
X357549Y402185D01*
X358815Y403451D01*
X359500Y405105D01*
Y406895D01*
X358815Y408549D01*
X357549Y409815D01*
X357463Y412015D01*
X357500Y412105D01*
Y413895D01*
X356815Y415549D01*
X355549Y416815D01*
X355463Y419015D01*
X355500Y419105D01*
Y420895D01*
X355481Y420941D01*
X356817Y422941D01*
X376498D01*
X379602Y419837D01*
X379602Y419837D01*
X379693Y419776D01*
X380594Y419035D01*
X380599Y417134D01*
X380500Y416895D01*
Y415105D01*
X381185Y413451D01*
X382451Y412185D01*
X384105Y411500D01*
X385895D01*
X387549Y412185D01*
X388815Y413451D01*
X389500Y415105D01*
Y416895D01*
X389481Y416941D01*
X390817Y418941D01*
X419000D01*
X419000Y418941D01*
X420171Y419174D01*
X421163Y419837D01*
X427267Y425941D01*
X443465D01*
X443517Y425933D01*
X443581Y425917D01*
X443630Y425901D01*
X443666Y425886D01*
X443693Y425872D01*
X443715Y425858D01*
X443735Y425841D01*
X443822Y425761D01*
X443963Y425673D01*
X444451Y425185D01*
X446105Y424500D01*
X447895D01*
X449549Y425185D01*
X450815Y426451D01*
X451500Y428105D01*
Y429895D01*
X450815Y431549D01*
X449549Y432815D01*
X447895Y433500D01*
X446105D01*
X444451Y432815D01*
X443963Y432327D01*
X443822Y432239D01*
X443735Y432159D01*
X443715Y432142D01*
X443693Y432128D01*
X443666Y432114D01*
X443630Y432099D01*
X443581Y432083D01*
X443517Y432067D01*
X443465Y432059D01*
X426000D01*
X426000Y432059D01*
X424829Y431826D01*
X423837Y431163D01*
X423837Y431163D01*
X417733Y425059D01*
X389238D01*
X388853Y425435D01*
X388067Y427059D01*
X388500Y428105D01*
Y429895D01*
X387815Y431549D01*
X386549Y432815D01*
X384895Y433500D01*
X383105D01*
X381451Y432815D01*
X380185Y431549D01*
X379769Y430544D01*
X379440Y429866D01*
X377765Y429059D01*
X377765Y429059D01*
X350305D01*
X349549Y429815D01*
X347895Y430500D01*
X346105D01*
X346059Y430481D01*
X344059Y431817D01*
Y434733D01*
X357163Y447837D01*
X357163Y447837D01*
X357826Y448829D01*
X358059Y450000D01*
X358059Y450000D01*
Y514358D01*
X360059Y514756D01*
X360185Y514451D01*
X361451Y513185D01*
X363105Y512500D01*
X364895D01*
X366549Y513185D01*
X367815Y514451D01*
X368500Y516105D01*
Y517895D01*
X367815Y519549D01*
X366549Y520815D01*
X364895Y521500D01*
X363105D01*
X361451Y520815D01*
X360185Y519549D01*
X360059Y519244D01*
X358059Y519642D01*
Y573733D01*
X389664Y605338D01*
X389705Y605368D01*
X389762Y605402D01*
X389808Y605426D01*
X389844Y605440D01*
X389874Y605449D01*
X389899Y605455D01*
X389925Y605458D01*
X390043Y605462D01*
X390205Y605500D01*
X390895D01*
X392549Y606185D01*
X393815Y607451D01*
X394500Y609105D01*
Y610895D01*
X393815Y612549D01*
X392549Y613815D01*
X390895Y614500D01*
D02*
G37*
G36*
X170895Y500500D02*
X169105D01*
X167451Y499815D01*
X166185Y498549D01*
X165500Y496895D01*
Y495105D01*
X166185Y493451D01*
X167451Y492185D01*
X169105Y491500D01*
X170895D01*
X172549Y492185D01*
X173815Y493451D01*
X174500Y495105D01*
Y496895D01*
X173815Y498549D01*
X172549Y499815D01*
X170895Y500500D01*
D02*
G37*
G36*
X158591Y508750D02*
X141250D01*
Y487409D01*
X148000D01*
X150741Y487770D01*
X153295Y488828D01*
X155489Y490511D01*
X157172Y492705D01*
X158230Y495259D01*
X158591Y498000D01*
Y508750D01*
D02*
G37*
G36*
X138750D02*
X121409D01*
Y498000D01*
X121770Y495259D01*
X122828Y492705D01*
X124511Y490511D01*
X126705Y488828D01*
X129259Y487770D01*
X132000Y487409D01*
X138750D01*
Y508750D01*
D02*
G37*
G36*
X38591D02*
X21250D01*
Y487409D01*
X28000D01*
X30741Y487770D01*
X33295Y488828D01*
X35489Y490511D01*
X37172Y492705D01*
X38230Y495259D01*
X38591Y498000D01*
Y508750D01*
D02*
G37*
G36*
X200896Y494500D02*
X199106D01*
X197452Y493815D01*
X196186Y492549D01*
X195501Y490895D01*
Y489105D01*
X196186Y487451D01*
X197452Y486185D01*
X199106Y485500D01*
X200896D01*
X202550Y486185D01*
X203816Y487451D01*
X204501Y489105D01*
Y490895D01*
X203816Y492549D01*
X202550Y493815D01*
X200896Y494500D01*
D02*
G37*
G36*
X616674Y492000D02*
X613326D01*
X610041Y491347D01*
X606948Y490065D01*
X604163Y488205D01*
X601795Y485837D01*
X599935Y483052D01*
X598653Y479959D01*
X598000Y476674D01*
Y473326D01*
X598653Y470041D01*
X599935Y466948D01*
X601795Y464163D01*
X604163Y461795D01*
X606948Y459935D01*
X610041Y458653D01*
X613326Y458000D01*
X616674D01*
X619959Y458653D01*
X623052Y459935D01*
X625837Y461795D01*
X628205Y464163D01*
X630065Y466948D01*
X631347Y470041D01*
X632000Y473326D01*
Y476674D01*
X631347Y479959D01*
X630065Y483052D01*
X628205Y485837D01*
X625837Y488205D01*
X623052Y490065D01*
X619959Y491347D01*
X616674Y492000D01*
D02*
G37*
G36*
X220895Y458500D02*
X219105D01*
X217451Y457815D01*
X216185Y456549D01*
X215500Y454895D01*
Y453105D01*
X216185Y451451D01*
X217451Y450185D01*
X219105Y449500D01*
X220895D01*
X222549Y450185D01*
X223815Y451451D01*
X224500Y453105D01*
Y454895D01*
X223815Y456549D01*
X222549Y457815D01*
X220895Y458500D01*
D02*
G37*
G36*
X313895Y448500D02*
X312105D01*
X310451Y447815D01*
X309185Y446549D01*
X308500Y444895D01*
Y443105D01*
X309185Y441451D01*
X310451Y440185D01*
X312105Y439500D01*
X313895D01*
X315549Y440185D01*
X316815Y441451D01*
X317500Y443105D01*
Y444895D01*
X316815Y446549D01*
X315549Y447815D01*
X313895Y448500D01*
D02*
G37*
G36*
X90000Y433750D02*
X81250D01*
Y425000D01*
X81316D01*
X83860Y425681D01*
X86140Y426998D01*
X88002Y428860D01*
X89319Y431140D01*
X90000Y433684D01*
Y433750D01*
D02*
G37*
G36*
X78750D02*
X70000D01*
Y433684D01*
X70682Y431140D01*
X71998Y428860D01*
X73860Y426998D01*
X76140Y425681D01*
X78684Y425000D01*
X78750D01*
Y433750D01*
D02*
G37*
G36*
X237895Y433500D02*
X236105D01*
X234451Y432815D01*
X233185Y431549D01*
X232500Y429895D01*
Y428105D01*
X233185Y426451D01*
X234451Y425185D01*
X236105Y424500D01*
X237895D01*
X239549Y425185D01*
X240815Y426451D01*
X241500Y428105D01*
Y429895D01*
X240815Y431549D01*
X239549Y432815D01*
X237895Y433500D01*
D02*
G37*
G36*
X278895Y432500D02*
X277105D01*
X275451Y431815D01*
X274185Y430549D01*
X273500Y428895D01*
Y427105D01*
X274185Y425451D01*
X275451Y424185D01*
X277105Y423500D01*
X278895D01*
X280549Y424185D01*
X281815Y425451D01*
X282500Y427105D01*
Y428895D01*
X281815Y430549D01*
X280549Y431815D01*
X278895Y432500D01*
D02*
G37*
G36*
X616674Y442000D02*
X613326D01*
X610041Y441347D01*
X606948Y440065D01*
X604163Y438205D01*
X601795Y435837D01*
X599935Y433052D01*
X598653Y429959D01*
X598000Y426674D01*
Y423326D01*
X598653Y420041D01*
X599935Y416948D01*
X601795Y414163D01*
X604163Y411795D01*
X606948Y409935D01*
X610041Y408653D01*
X613326Y408000D01*
X616674D01*
X619959Y408653D01*
X623052Y409935D01*
X625837Y411795D01*
X628205Y414163D01*
X630065Y416948D01*
X631347Y420041D01*
X632000Y423326D01*
Y426674D01*
X631347Y429959D01*
X630065Y433052D01*
X628205Y435837D01*
X625837Y438205D01*
X623052Y440065D01*
X619959Y441347D01*
X616674Y442000D01*
D02*
G37*
G36*
X275895Y416500D02*
X274105D01*
X272451Y415815D01*
X271185Y414549D01*
X270500Y412895D01*
Y411105D01*
X271185Y409451D01*
X272451Y408185D01*
X274105Y407500D01*
X275895D01*
X277549Y408185D01*
X278815Y409451D01*
X279500Y411105D01*
Y412895D01*
X278815Y414549D01*
X277549Y415815D01*
X275895Y416500D01*
D02*
G37*
G36*
X80895D02*
X79105D01*
X77451Y415815D01*
X76185Y414549D01*
X75500Y412895D01*
Y411105D01*
X76185Y409451D01*
X77451Y408185D01*
X79105Y407500D01*
X80895D01*
X82549Y408185D01*
X83815Y409451D01*
X84500Y411105D01*
Y412895D01*
X83815Y414549D01*
X82549Y415815D01*
X80895Y416500D01*
D02*
G37*
G36*
X275895Y404500D02*
X274105D01*
X272451Y403815D01*
X271185Y402549D01*
X270500Y400895D01*
Y399105D01*
X271185Y397451D01*
X272451Y396185D01*
X274105Y395500D01*
X275895D01*
X277549Y396185D01*
X278815Y397451D01*
X279500Y399105D01*
Y400895D01*
X278815Y402549D01*
X277549Y403815D01*
X275895Y404500D01*
D02*
G37*
G36*
X472895Y399500D02*
X471105D01*
X469451Y398815D01*
X468185Y397549D01*
X467500Y395895D01*
Y394105D01*
X468185Y392451D01*
X469451Y391185D01*
X471105Y390500D01*
X472895D01*
X474549Y391185D01*
X475815Y392451D01*
X476500Y394105D01*
Y395895D01*
X475815Y397549D01*
X474549Y398815D01*
X472895Y399500D01*
D02*
G37*
G36*
X130895Y370500D02*
X129105D01*
X127451Y369815D01*
X126963Y369327D01*
X126822Y369239D01*
X126735Y369159D01*
X126715Y369142D01*
X126693Y369128D01*
X126666Y369114D01*
X126630Y369099D01*
X126581Y369083D01*
X126517Y369067D01*
X126465Y369059D01*
X63534D01*
X63484Y369067D01*
X63419Y369083D01*
X63370Y369099D01*
X63334Y369114D01*
X63307Y369128D01*
X63285Y369142D01*
X63265Y369159D01*
X63178Y369239D01*
X63037Y369327D01*
X62549Y369815D01*
X60895Y370500D01*
X59105D01*
X57451Y369815D01*
X56185Y368549D01*
X55500Y366895D01*
Y365105D01*
X56185Y363451D01*
X57451Y362185D01*
X59105Y361500D01*
X60895D01*
X62549Y362185D01*
X63037Y362673D01*
X63178Y362761D01*
X63265Y362841D01*
X63285Y362858D01*
X63307Y362872D01*
X63334Y362886D01*
X63370Y362901D01*
X63419Y362917D01*
X63483Y362933D01*
X63535Y362941D01*
X126466D01*
X126517Y362933D01*
X126581Y362917D01*
X126630Y362901D01*
X126666Y362886D01*
X126693Y362872D01*
X126715Y362858D01*
X126735Y362841D01*
X126822Y362761D01*
X126963Y362673D01*
X127451Y362185D01*
X129105Y361500D01*
X130895D01*
X132549Y362185D01*
X133815Y363451D01*
X134500Y365105D01*
Y366895D01*
X133815Y368549D01*
X132549Y369815D01*
X130895Y370500D01*
D02*
G37*
G36*
X543646Y378800D02*
X543250D01*
Y367550D01*
X554500D01*
Y367946D01*
X553648Y371125D01*
X552002Y373975D01*
X549675Y376302D01*
X546825Y377948D01*
X543646Y378800D01*
D02*
G37*
G36*
X540750D02*
X540354D01*
X537175Y377948D01*
X534325Y376302D01*
X531997Y373975D01*
X530352Y371125D01*
X529500Y367946D01*
Y367550D01*
X540750D01*
Y378800D01*
D02*
G37*
G36*
X642350D02*
X641954D01*
X638775Y377948D01*
X635925Y376302D01*
X633597Y373975D01*
X631952Y371125D01*
X631100Y367946D01*
Y367550D01*
X642350D01*
Y378800D01*
D02*
G37*
G36*
X433895Y367500D02*
X432105D01*
X430451Y366815D01*
X429185Y365549D01*
X428500Y363895D01*
Y362105D01*
X429185Y360451D01*
X430451Y359185D01*
X432105Y358500D01*
X433895D01*
X435549Y359185D01*
X436815Y360451D01*
X437500Y362105D01*
Y363895D01*
X436815Y365549D01*
X435549Y366815D01*
X433895Y367500D01*
D02*
G37*
G36*
X642350Y365050D02*
X631100D01*
Y364654D01*
X631952Y361475D01*
X633597Y358625D01*
X635925Y356297D01*
X638775Y354652D01*
X641954Y353800D01*
X642350D01*
Y365050D01*
D02*
G37*
G36*
X554500D02*
X543250D01*
Y353800D01*
X543646D01*
X546825Y354652D01*
X549675Y356297D01*
X552002Y358625D01*
X553648Y361475D01*
X554500Y364654D01*
Y365050D01*
D02*
G37*
G36*
X540750D02*
X529500D01*
Y364654D01*
X530352Y361475D01*
X531997Y358625D01*
X534325Y356297D01*
X537175Y354652D01*
X540354Y353800D01*
X540750D01*
Y365050D01*
D02*
G37*
G36*
X239895Y361500D02*
X238105D01*
X236451Y360815D01*
X235185Y359549D01*
X234500Y357895D01*
Y356105D01*
X235185Y354451D01*
X236451Y353185D01*
X238105Y352500D01*
X239895D01*
X241549Y353185D01*
X242815Y354451D01*
X243500Y356105D01*
Y357895D01*
X242815Y359549D01*
X241549Y360815D01*
X239895Y361500D01*
D02*
G37*
G36*
X340895Y357500D02*
X339105D01*
X337451Y356815D01*
X336185Y355549D01*
X335500Y353895D01*
Y352105D01*
X336185Y350451D01*
X337451Y349185D01*
X339105Y348500D01*
X340895D01*
X342549Y349185D01*
X343815Y350451D01*
X344500Y352105D01*
Y353895D01*
X343815Y355549D01*
X342549Y356815D01*
X340895Y357500D01*
D02*
G37*
G36*
X432895Y356500D02*
X431105D01*
X429451Y355815D01*
X428185Y354549D01*
X427500Y352895D01*
Y351105D01*
X428185Y349451D01*
X429451Y348185D01*
X431105Y347500D01*
X432895D01*
X434549Y348185D01*
X435815Y349451D01*
X436500Y351105D01*
Y352895D01*
X435815Y354549D01*
X434549Y355815D01*
X432895Y356500D01*
D02*
G37*
G36*
X420895D02*
X419105D01*
X417451Y355815D01*
X416185Y354549D01*
X415500Y352895D01*
Y351105D01*
X416185Y349451D01*
X417451Y348185D01*
X419105Y347500D01*
X420895D01*
X422549Y348185D01*
X423815Y349451D01*
X424500Y351105D01*
Y352895D01*
X423815Y354549D01*
X422549Y355815D01*
X420895Y356500D01*
D02*
G37*
G36*
X300895D02*
X299105D01*
X297451Y355815D01*
X296185Y354549D01*
X295500Y352895D01*
Y351105D01*
X296185Y349451D01*
X297451Y348185D01*
X299105Y347500D01*
X300895D01*
X302549Y348185D01*
X303815Y349451D01*
X304500Y351105D01*
Y352895D01*
X303815Y354549D01*
X302549Y355815D01*
X300895Y356500D01*
D02*
G37*
G36*
X270895Y348500D02*
X269105D01*
X267451Y347815D01*
X266185Y346549D01*
X265500Y344895D01*
Y343105D01*
X266185Y341451D01*
X267451Y340185D01*
X269105Y339500D01*
X270895D01*
X272549Y340185D01*
X273815Y341451D01*
X274500Y343105D01*
Y344895D01*
X273815Y346549D01*
X272549Y347815D01*
X270895Y348500D01*
D02*
G37*
G36*
X432895Y344500D02*
X431105D01*
X429451Y343815D01*
X428185Y342549D01*
X427500Y340895D01*
Y339105D01*
X428185Y337451D01*
X429451Y336185D01*
X431105Y335500D01*
X432895D01*
X434549Y336185D01*
X435815Y337451D01*
X436500Y339105D01*
Y340895D01*
X435815Y342549D01*
X434549Y343815D01*
X432895Y344500D01*
D02*
G37*
G36*
X193895D02*
X192105D01*
X190451Y343815D01*
X189185Y342549D01*
X188500Y340895D01*
Y339105D01*
X189185Y337451D01*
X190451Y336185D01*
X192105Y335500D01*
X193895D01*
X195549Y336185D01*
X196815Y337451D01*
X197500Y339105D01*
Y340895D01*
X196815Y342549D01*
X195549Y343815D01*
X193895Y344500D01*
D02*
G37*
G36*
X414895Y343500D02*
X413105D01*
X411451Y342815D01*
X410185Y341549D01*
X409500Y339895D01*
Y338105D01*
X410185Y336451D01*
X411451Y335185D01*
X413105Y334500D01*
X414895D01*
X416549Y335185D01*
X417815Y336451D01*
X418500Y338105D01*
Y339895D01*
X417815Y341549D01*
X416549Y342815D01*
X414895Y343500D01*
D02*
G37*
G36*
X140895Y339500D02*
X139105D01*
X137451Y338815D01*
X136185Y337549D01*
X135500Y335895D01*
Y334105D01*
X136185Y332451D01*
X137451Y331185D01*
X139105Y330500D01*
X140895D01*
X142549Y331185D01*
X143815Y332451D01*
X144500Y334105D01*
Y335895D01*
X143815Y337549D01*
X142549Y338815D01*
X140895Y339500D01*
D02*
G37*
G36*
X581724Y333000D02*
X581250D01*
Y316750D01*
X597500D01*
Y317224D01*
X596828Y320605D01*
X595508Y323789D01*
X593593Y326656D01*
X591156Y329093D01*
X588289Y331008D01*
X585105Y332327D01*
X581724Y333000D01*
D02*
G37*
G36*
X578750D02*
X578276D01*
X574895Y332327D01*
X571711Y331008D01*
X568844Y329093D01*
X566407Y326656D01*
X564492Y323789D01*
X563172Y320605D01*
X562500Y317224D01*
Y316750D01*
X578750D01*
Y333000D01*
D02*
G37*
G36*
X522895Y307500D02*
X521105D01*
X519451Y306815D01*
X518185Y305549D01*
X517500Y303895D01*
Y302105D01*
X518185Y300451D01*
X519451Y299185D01*
X521105Y298500D01*
X522895D01*
X524549Y299185D01*
X525815Y300451D01*
X526500Y302105D01*
Y303895D01*
X525815Y305549D01*
X524549Y306815D01*
X522895Y307500D01*
D02*
G37*
G36*
X509895D02*
X508105D01*
X506451Y306815D01*
X505185Y305549D01*
X504500Y303895D01*
Y302105D01*
X505185Y300451D01*
X506451Y299185D01*
X508105Y298500D01*
X509895D01*
X511549Y299185D01*
X512815Y300451D01*
X513500Y302105D01*
Y303895D01*
X512815Y305549D01*
X511549Y306815D01*
X509895Y307500D01*
D02*
G37*
G36*
X597500Y314250D02*
X581250D01*
Y298000D01*
X581724D01*
X585105Y298673D01*
X588289Y299992D01*
X591156Y301907D01*
X593593Y304344D01*
X595508Y307211D01*
X596828Y310395D01*
X597500Y313776D01*
Y314250D01*
D02*
G37*
G36*
X578750D02*
X562500D01*
Y313776D01*
X563172Y310395D01*
X564492Y307211D01*
X566407Y304344D01*
X568844Y301907D01*
X571711Y299992D01*
X574895Y298673D01*
X578276Y298000D01*
X578750D01*
Y314250D01*
D02*
G37*
G36*
X522895Y296500D02*
X521105D01*
X519451Y295815D01*
X518185Y294549D01*
X517500Y292895D01*
Y291105D01*
X518185Y289451D01*
X519451Y288185D01*
X521105Y287500D01*
X522895D01*
X524549Y288185D01*
X525815Y289451D01*
X526500Y291105D01*
Y292895D01*
X525815Y294549D01*
X524549Y295815D01*
X522895Y296500D01*
D02*
G37*
G36*
X509895D02*
X508105D01*
X506451Y295815D01*
X505185Y294549D01*
X504500Y292895D01*
Y291105D01*
X505185Y289451D01*
X506451Y288185D01*
X508105Y287500D01*
X509895D01*
X511549Y288185D01*
X512815Y289451D01*
X513500Y291105D01*
Y292895D01*
X512815Y294549D01*
X511549Y295815D01*
X509895Y296500D01*
D02*
G37*
G36*
X140895Y289500D02*
X139105D01*
X137451Y288815D01*
X136185Y287549D01*
X135500Y285895D01*
Y284105D01*
X136185Y282451D01*
X137451Y281185D01*
X139105Y280500D01*
X140895D01*
X142549Y281185D01*
X143815Y282451D01*
X144500Y284105D01*
Y285895D01*
X143815Y287549D01*
X142549Y288815D01*
X140895Y289500D01*
D02*
G37*
G36*
X522895Y285500D02*
X521105D01*
X519451Y284815D01*
X518185Y283549D01*
X517500Y281895D01*
Y280105D01*
X518185Y278451D01*
X519451Y277185D01*
X521105Y276500D01*
X522895D01*
X524549Y277185D01*
X525815Y278451D01*
X526500Y280105D01*
Y281895D01*
X525815Y283549D01*
X524549Y284815D01*
X522895Y285500D01*
D02*
G37*
G36*
X509895D02*
X508105D01*
X506451Y284815D01*
X505185Y283549D01*
X504500Y281895D01*
Y280105D01*
X505185Y278451D01*
X506451Y277185D01*
X508105Y276500D01*
X509895D01*
X511549Y277185D01*
X512815Y278451D01*
X513500Y280105D01*
Y281895D01*
X512815Y283549D01*
X511549Y284815D01*
X509895Y285500D01*
D02*
G37*
G36*
X335895Y279500D02*
X334105D01*
X332451Y278815D01*
X331185Y277549D01*
X330500Y275895D01*
Y274105D01*
X331185Y272451D01*
X332451Y271185D01*
X334105Y270500D01*
X335895D01*
X337549Y271185D01*
X338815Y272451D01*
X339500Y274105D01*
Y275895D01*
X338815Y277549D01*
X337549Y278815D01*
X335895Y279500D01*
D02*
G37*
G36*
X184895Y282500D02*
X183105D01*
X181451Y281815D01*
X180185Y280549D01*
X179500Y278895D01*
Y277105D01*
X180185Y275451D01*
X181136Y274500D01*
X180185Y273549D01*
X179500Y271895D01*
Y270105D01*
X180185Y268451D01*
X181451Y267185D01*
X183105Y266500D01*
X184895D01*
X186549Y267185D01*
X187815Y268451D01*
X188500Y270105D01*
Y271895D01*
X187815Y273549D01*
X186864Y274500D01*
X187815Y275451D01*
X188500Y277105D01*
Y278895D01*
X187815Y280549D01*
X186549Y281815D01*
X184895Y282500D01*
D02*
G37*
G36*
X543646Y277200D02*
X543250D01*
Y265950D01*
X554500D01*
Y266346D01*
X553648Y269525D01*
X552002Y272375D01*
X549675Y274702D01*
X546825Y276348D01*
X543646Y277200D01*
D02*
G37*
G36*
X540750D02*
X540354D01*
X537175Y276348D01*
X534325Y274702D01*
X531997Y272375D01*
X530352Y269525D01*
X529500Y266346D01*
Y265950D01*
X540750D01*
Y277200D01*
D02*
G37*
G36*
X642350D02*
X641954D01*
X638775Y276348D01*
X635925Y274702D01*
X633597Y272375D01*
X631952Y269525D01*
X631100Y266346D01*
Y265950D01*
X642350D01*
Y277200D01*
D02*
G37*
G36*
X128895Y258500D02*
X127105D01*
X125451Y257815D01*
X124963Y257327D01*
X124822Y257239D01*
X124735Y257159D01*
X124715Y257143D01*
X124693Y257128D01*
X124666Y257114D01*
X124630Y257099D01*
X124581Y257083D01*
X124517Y257067D01*
X124465Y257059D01*
X63534D01*
X63484Y257067D01*
X63419Y257083D01*
X63370Y257099D01*
X63334Y257114D01*
X63307Y257128D01*
X63285Y257142D01*
X63265Y257159D01*
X63178Y257239D01*
X63037Y257327D01*
X62549Y257815D01*
X60895Y258500D01*
X59105D01*
X57451Y257815D01*
X56185Y256549D01*
X55500Y254895D01*
Y253105D01*
X56185Y251451D01*
X57451Y250185D01*
X59105Y249500D01*
X60895D01*
X62549Y250185D01*
X63037Y250673D01*
X63178Y250761D01*
X63265Y250842D01*
X63285Y250858D01*
X63307Y250872D01*
X63334Y250886D01*
X63370Y250901D01*
X63419Y250917D01*
X63483Y250933D01*
X63535Y250941D01*
X124466D01*
X124516Y250933D01*
X124581Y250917D01*
X124630Y250901D01*
X124666Y250886D01*
X124693Y250872D01*
X124715Y250858D01*
X124735Y250841D01*
X124822Y250761D01*
X124963Y250673D01*
X125451Y250185D01*
X127105Y249500D01*
X128895D01*
X130549Y250185D01*
X131815Y251451D01*
X132500Y253105D01*
Y254895D01*
X131815Y256549D01*
X130549Y257815D01*
X128895Y258500D01*
D02*
G37*
G36*
X642350Y263450D02*
X631100D01*
Y263054D01*
X631952Y259875D01*
X633597Y257025D01*
X635925Y254697D01*
X638775Y253052D01*
X641954Y252200D01*
X642350D01*
Y263450D01*
D02*
G37*
G36*
X554500D02*
X543250D01*
Y252200D01*
X543646D01*
X546825Y253052D01*
X549675Y254697D01*
X552002Y257025D01*
X553648Y259875D01*
X554500Y263054D01*
Y263450D01*
D02*
G37*
G36*
X540750D02*
X529500D01*
Y263054D01*
X530352Y259875D01*
X531997Y257025D01*
X534325Y254697D01*
X537175Y253052D01*
X540354Y252200D01*
X540750D01*
Y263450D01*
D02*
G37*
G36*
X581514Y249000D02*
X581250D01*
Y238750D01*
X591500D01*
Y239014D01*
X590716Y241939D01*
X589202Y244561D01*
X587061Y246702D01*
X584439Y248216D01*
X581514Y249000D01*
D02*
G37*
G36*
X578750D02*
X578486D01*
X575561Y248216D01*
X572939Y246702D01*
X570798Y244561D01*
X569284Y241939D01*
X568500Y239014D01*
Y238750D01*
X578750D01*
Y249000D01*
D02*
G37*
G36*
X528895Y247500D02*
X527105D01*
X525451Y246815D01*
X524185Y245549D01*
X523500Y243895D01*
Y242105D01*
X524185Y240451D01*
X525451Y239185D01*
X527105Y238500D01*
X528895D01*
X530549Y239185D01*
X531815Y240451D01*
X532500Y242105D01*
Y243895D01*
X531815Y245549D01*
X530549Y246815D01*
X528895Y247500D01*
D02*
G37*
G36*
X367395Y241500D02*
X365605D01*
X363951Y240815D01*
X362685Y239549D01*
X362000Y237895D01*
Y236105D01*
X362685Y234451D01*
X363951Y233185D01*
X365605Y232500D01*
X367395D01*
X369049Y233185D01*
X370315Y234451D01*
X371000Y236105D01*
Y237895D01*
X370315Y239549D01*
X369049Y240815D01*
X367395Y241500D01*
D02*
G37*
G36*
X591500Y236250D02*
X581250D01*
Y226000D01*
X581514D01*
X584439Y226784D01*
X587061Y228298D01*
X589202Y230439D01*
X590716Y233061D01*
X591500Y235986D01*
Y236250D01*
D02*
G37*
G36*
X578750D02*
X568500D01*
Y235986D01*
X569284Y233061D01*
X570798Y230439D01*
X572939Y228298D01*
X575561Y226784D01*
X578486Y226000D01*
X578750D01*
Y236250D01*
D02*
G37*
G36*
X525895Y231500D02*
X524105D01*
X522451Y230815D01*
X521185Y229549D01*
X520500Y227895D01*
Y226105D01*
X521185Y224451D01*
X522451Y223185D01*
X524105Y222500D01*
X525895D01*
X527549Y223185D01*
X528815Y224451D01*
X529500Y226105D01*
Y227895D01*
X528815Y229549D01*
X527549Y230815D01*
X525895Y231500D01*
D02*
G37*
G36*
X643895Y224500D02*
X642105D01*
X640451Y223815D01*
X639185Y222549D01*
X638500Y220895D01*
Y219105D01*
X639185Y217451D01*
X640451Y216185D01*
X642105Y215500D01*
X643895D01*
X645549Y216185D01*
X646815Y217451D01*
X647500Y219105D01*
Y220895D01*
X646815Y222549D01*
X645549Y223815D01*
X643895Y224500D01*
D02*
G37*
G36*
X36895Y223500D02*
X35105D01*
X33451Y222815D01*
X32185Y221549D01*
X31500Y219895D01*
Y218105D01*
X32185Y216451D01*
X33451Y215185D01*
X35105Y214500D01*
X36895D01*
X38549Y215185D01*
X39815Y216451D01*
X40500Y218105D01*
Y219895D01*
X39815Y221549D01*
X38549Y222815D01*
X36895Y223500D01*
D02*
G37*
G36*
X581448Y216000D02*
X578552D01*
X575754Y215250D01*
X573246Y213802D01*
X571198Y211754D01*
X569750Y209246D01*
X569000Y206448D01*
Y203552D01*
X569750Y200754D01*
X571198Y198246D01*
X573246Y196198D01*
X575754Y194750D01*
X578552Y194000D01*
X581448D01*
X584246Y194750D01*
X586754Y196198D01*
X588802Y198246D01*
X590250Y200754D01*
X591000Y203552D01*
Y206448D01*
X590250Y209246D01*
X588802Y211754D01*
X586754Y213802D01*
X584246Y215250D01*
X581448Y216000D01*
D02*
G37*
G36*
X74750Y192076D02*
X69500D01*
Y184500D01*
X83411D01*
X83275Y185534D01*
X82393Y187663D01*
X80991Y189491D01*
X79163Y190893D01*
X77034Y191775D01*
X74750Y192076D01*
D02*
G37*
G36*
X67000D02*
X61750D01*
X59466Y191775D01*
X57337Y190893D01*
X55509Y189491D01*
X54107Y187663D01*
X53225Y185534D01*
X53089Y184500D01*
X67000D01*
Y192076D01*
D02*
G37*
G36*
X24250Y192278D02*
X19000D01*
Y184450D01*
X33163D01*
X33018Y185550D01*
X32111Y187739D01*
X30669Y189619D01*
X28789Y191061D01*
X26600Y191968D01*
X24250Y192278D01*
D02*
G37*
G36*
X419895Y188500D02*
X418105D01*
X416451Y187815D01*
X415185Y186549D01*
X414500Y184895D01*
Y183105D01*
X415185Y181451D01*
X416451Y180185D01*
X418105Y179500D01*
X419895D01*
X421549Y180185D01*
X422815Y181451D01*
X423500Y183105D01*
Y184895D01*
X422815Y186549D01*
X421549Y187815D01*
X419895Y188500D01*
D02*
G37*
G36*
X543646Y188300D02*
X543250D01*
Y177050D01*
X554500D01*
Y177446D01*
X553648Y180625D01*
X552002Y183475D01*
X549675Y185802D01*
X546825Y187448D01*
X543646Y188300D01*
D02*
G37*
G36*
X540750D02*
X540354D01*
X537175Y187448D01*
X534325Y185802D01*
X531997Y183475D01*
X530352Y180625D01*
X529500Y177446D01*
Y177050D01*
X540750D01*
Y188300D01*
D02*
G37*
G36*
X642350D02*
X641954D01*
X638775Y187448D01*
X635925Y185802D01*
X633597Y183475D01*
X631952Y180625D01*
X631100Y177446D01*
Y177050D01*
X642350D01*
Y188300D01*
D02*
G37*
G36*
X33163Y181950D02*
X19000D01*
Y174122D01*
X24250D01*
X26600Y174432D01*
X28789Y175338D01*
X30669Y176781D01*
X32111Y178661D01*
X33018Y180851D01*
X33163Y181950D01*
D02*
G37*
G36*
X48877Y182209D02*
X47623D01*
X46453Y181976D01*
X45295Y181496D01*
X44303Y180833D01*
X43417Y179947D01*
X42754Y178955D01*
X42274Y177797D01*
X42041Y176627D01*
Y175373D01*
X42274Y174203D01*
X42754Y173045D01*
X43417Y172053D01*
X44303Y171167D01*
X45295Y170504D01*
X46453Y170024D01*
X47623Y169791D01*
X48877D01*
X50047Y170024D01*
X51205Y170504D01*
X52197Y171167D01*
X52937Y171907D01*
X53266Y172066D01*
X54714Y172168D01*
X55415Y171963D01*
X55653Y171653D01*
X57585Y170170D01*
X59835Y169238D01*
X61000Y169085D01*
Y179750D01*
X63500D01*
Y169085D01*
X64665Y169238D01*
X66915Y170170D01*
X68847Y171653D01*
X70330Y173585D01*
X70677Y174424D01*
X74750D01*
X77034Y174725D01*
X79163Y175607D01*
X80991Y177009D01*
X82393Y178837D01*
X83275Y180966D01*
X83411Y182000D01*
X52228D01*
X50949Y181602D01*
X50047Y181976D01*
X48877Y182209D01*
D02*
G37*
G36*
X329895Y177500D02*
X328105D01*
X326451Y176815D01*
X325185Y175549D01*
X324500Y173895D01*
Y172105D01*
X325185Y170451D01*
X326451Y169185D01*
X328105Y168500D01*
X329895D01*
X331549Y169185D01*
X332815Y170451D01*
X333500Y172105D01*
Y173895D01*
X332815Y175549D01*
X331549Y176815D01*
X329895Y177500D01*
D02*
G37*
G36*
X206895Y168500D02*
X205105D01*
X203451Y167815D01*
X202963Y167327D01*
X202822Y167239D01*
X202735Y167159D01*
X202715Y167143D01*
X202693Y167128D01*
X202666Y167114D01*
X202630Y167099D01*
X202581Y167083D01*
X202517Y167067D01*
X202465Y167059D01*
X176329D01*
X176329Y167059D01*
X175158Y166826D01*
X174166Y166163D01*
X174166Y166163D01*
X127758Y119755D01*
X127697Y119708D01*
X127608Y119646D01*
X127524Y119595D01*
X127447Y119555D01*
X127376Y119523D01*
X127312Y119500D01*
X127105D01*
X125451Y118815D01*
X124185Y117549D01*
X123500Y115895D01*
Y114105D01*
X124185Y112451D01*
X125451Y111185D01*
X127105Y110500D01*
X128895D01*
X130549Y111185D01*
X131815Y112451D01*
X132500Y114105D01*
Y115846D01*
X177596Y160941D01*
X182183D01*
X183519Y158941D01*
X183500Y158895D01*
Y157105D01*
X184185Y155451D01*
X185451Y154185D01*
X187105Y153500D01*
X188895D01*
X190549Y154185D01*
X191815Y155451D01*
X192500Y157105D01*
Y158895D01*
X192481Y158941D01*
X193817Y160941D01*
X202465D01*
X202516Y160933D01*
X202581Y160917D01*
X202630Y160901D01*
X202666Y160886D01*
X202693Y160872D01*
X202715Y160858D01*
X202735Y160842D01*
X202822Y160761D01*
X202963Y160673D01*
X203451Y160185D01*
X205105Y159500D01*
X206895D01*
X208549Y160185D01*
X209815Y161451D01*
X210500Y163105D01*
Y164895D01*
X209815Y166549D01*
X208549Y167815D01*
X206895Y168500D01*
D02*
G37*
G36*
X642350Y174550D02*
X631100D01*
Y174154D01*
X631952Y170975D01*
X633597Y168125D01*
X635925Y165798D01*
X638775Y164152D01*
X641954Y163300D01*
X642350D01*
Y174550D01*
D02*
G37*
G36*
X554500D02*
X543250D01*
Y163300D01*
X543646D01*
X546825Y164152D01*
X549675Y165798D01*
X552002Y168125D01*
X553648Y170975D01*
X554500Y174154D01*
Y174550D01*
D02*
G37*
G36*
X540750D02*
X529500D01*
Y174154D01*
X530352Y170975D01*
X531997Y168125D01*
X534325Y165798D01*
X537175Y164152D01*
X540354Y163300D01*
X540750D01*
Y174550D01*
D02*
G37*
G36*
X125895Y169500D02*
X124105D01*
X122451Y168815D01*
X121185Y167549D01*
X120500Y165895D01*
Y164105D01*
X121185Y162451D01*
X122451Y161185D01*
X124105Y160500D01*
X125895D01*
X127549Y161185D01*
X128815Y162451D01*
X129500Y164105D01*
Y165895D01*
X128815Y167549D01*
X127549Y168815D01*
X125895Y169500D01*
D02*
G37*
G36*
X112895Y168500D02*
X111105D01*
X109451Y167815D01*
X108185Y166549D01*
X107500Y164895D01*
Y163105D01*
X108185Y161451D01*
X109451Y160185D01*
X111105Y159500D01*
X112895D01*
X114549Y160185D01*
X115815Y161451D01*
X116500Y163105D01*
Y164895D01*
X115815Y166549D01*
X114549Y167815D01*
X112895Y168500D01*
D02*
G37*
G36*
X295895Y163500D02*
X294105D01*
X292451Y162815D01*
X291185Y161549D01*
X290500Y159895D01*
Y158105D01*
X291185Y156451D01*
X292451Y155185D01*
X294105Y154500D01*
X295895D01*
X297549Y155185D01*
X298815Y156451D01*
X299500Y158105D01*
Y159895D01*
X298815Y161549D01*
X297549Y162815D01*
X295895Y163500D01*
D02*
G37*
G36*
X46895Y158500D02*
X45105D01*
X43451Y157815D01*
X42185Y156549D01*
X41686Y155344D01*
X41305Y154832D01*
X39500Y154249D01*
X38895Y154500D01*
X37105D01*
X35109Y155838D01*
X34815Y156549D01*
X33549Y157815D01*
X31895Y158500D01*
X30105D01*
X28451Y157815D01*
X27185Y156549D01*
X26500Y154895D01*
Y153105D01*
X27185Y151451D01*
X28451Y150185D01*
X30105Y149500D01*
X31895D01*
X33891Y148162D01*
X34185Y147451D01*
X35451Y146185D01*
X37105Y145500D01*
X38895D01*
X39599Y145792D01*
X40732Y144096D01*
X40185Y143549D01*
X39500Y141895D01*
Y140105D01*
X40185Y138451D01*
X41451Y137185D01*
X43105Y136500D01*
X44652D01*
X45026Y136378D01*
X46500Y135000D01*
Y134105D01*
X47185Y132451D01*
X48451Y131185D01*
X50105Y130500D01*
X51895D01*
X53549Y131185D01*
X54815Y132451D01*
X55500Y134105D01*
Y135895D01*
X54815Y137549D01*
X53549Y138815D01*
X51895Y139500D01*
X51551D01*
X50779Y140854D01*
X51498Y141750D01*
X51879D01*
X53533Y142435D01*
X54799Y143701D01*
X55484Y145355D01*
Y147145D01*
X54799Y148799D01*
X53533Y150065D01*
X51879Y150750D01*
X51689D01*
X50353Y152750D01*
X50500Y153105D01*
Y154895D01*
X49815Y156549D01*
X48549Y157815D01*
X46895Y158500D01*
D02*
G37*
G36*
X96578Y151400D02*
X94788D01*
X93134Y150715D01*
X92198Y149779D01*
X91830Y149452D01*
X89766Y149599D01*
X89549Y149815D01*
X87895Y150500D01*
X86105D01*
X84451Y149815D01*
X83185Y148549D01*
X82500Y146895D01*
Y145105D01*
X83185Y143451D01*
X84451Y142185D01*
X86105Y141500D01*
X87895D01*
X89549Y142185D01*
X90485Y143121D01*
X90853Y143448D01*
X92918Y143301D01*
X93134Y143085D01*
X94788Y142400D01*
X96578D01*
X98232Y143085D01*
X99498Y144351D01*
X100183Y146005D01*
Y147795D01*
X99498Y149449D01*
X98232Y150715D01*
X96578Y151400D01*
D02*
G37*
G36*
X68044Y156928D02*
X66254D01*
X64600Y156243D01*
X63334Y154977D01*
X62649Y153323D01*
Y151533D01*
X63334Y149879D01*
X64600Y148613D01*
X66254Y147928D01*
X68044D01*
X69698Y148613D01*
X70964Y149879D01*
X71649Y151533D01*
Y153323D01*
X70964Y154977D01*
X69698Y156243D01*
X68044Y156928D01*
D02*
G37*
G36*
X138895Y169500D02*
X137105D01*
X135451Y168815D01*
X134185Y167549D01*
X133500Y165895D01*
Y164105D01*
X134185Y162451D01*
X135451Y161185D01*
X137105Y160500D01*
X138895D01*
X139500Y160751D01*
X141500Y159523D01*
Y159105D01*
X142185Y157451D01*
X143451Y156185D01*
X144656Y155686D01*
X145168Y155306D01*
X145751Y153500D01*
X145500Y152895D01*
Y151105D01*
X146185Y149451D01*
X147451Y148185D01*
X149105Y147500D01*
X150895D01*
X152549Y148185D01*
X153815Y149451D01*
X154500Y151105D01*
Y152895D01*
X153815Y154549D01*
X152549Y155815D01*
X151344Y156314D01*
X150832Y156694D01*
X150249Y158500D01*
X150500Y159105D01*
Y160895D01*
X149815Y162549D01*
X148549Y163815D01*
X146895Y164500D01*
X145105D01*
X144500Y164249D01*
X142500Y165477D01*
Y165895D01*
X141815Y167549D01*
X140549Y168815D01*
X138895Y169500D01*
D02*
G37*
G36*
X188895Y150500D02*
X187105D01*
X185451Y149815D01*
X184185Y148549D01*
X183500Y146895D01*
Y145105D01*
X184185Y143451D01*
X185451Y142185D01*
X187105Y141500D01*
X188895D01*
X190549Y142185D01*
X191815Y143451D01*
X192500Y145105D01*
Y146895D01*
X191815Y148549D01*
X190549Y149815D01*
X188895Y150500D01*
D02*
G37*
G36*
X600895Y149500D02*
X599105D01*
X597451Y148815D01*
X596185Y147549D01*
X595500Y145895D01*
Y144105D01*
X596185Y142451D01*
X597451Y141185D01*
X599105Y140500D01*
X600895D01*
X602549Y141185D01*
X603815Y142451D01*
X604500Y144105D01*
Y145895D01*
X603815Y147549D01*
X602549Y148815D01*
X600895Y149500D01*
D02*
G37*
G36*
X560895D02*
X559105D01*
X557451Y148815D01*
X556185Y147549D01*
X555500Y145895D01*
Y144105D01*
X556185Y142451D01*
X557451Y141185D01*
X559105Y140500D01*
X560895D01*
X562549Y141185D01*
X563815Y142451D01*
X564500Y144105D01*
Y145895D01*
X563815Y147549D01*
X562549Y148815D01*
X560895Y149500D01*
D02*
G37*
G36*
X540895D02*
X539105D01*
X537451Y148815D01*
X536185Y147549D01*
X535500Y145895D01*
Y144105D01*
X536185Y142451D01*
X537451Y141185D01*
X539105Y140500D01*
X540895D01*
X542549Y141185D01*
X543815Y142451D01*
X544500Y144105D01*
Y145895D01*
X543815Y147549D01*
X542549Y148815D01*
X540895Y149500D01*
D02*
G37*
G36*
X31895Y145500D02*
X30105D01*
X28451Y144815D01*
X27185Y143549D01*
X26500Y141895D01*
Y140105D01*
X27185Y138451D01*
X28451Y137185D01*
X30105Y136500D01*
X31895D01*
X33549Y137185D01*
X34815Y138451D01*
X35500Y140105D01*
Y141895D01*
X34815Y143549D01*
X33549Y144815D01*
X31895Y145500D01*
D02*
G37*
G36*
X291895Y139500D02*
X290105D01*
X288451Y138815D01*
X287185Y137549D01*
X286500Y135895D01*
Y134105D01*
X287185Y132451D01*
X288451Y131185D01*
X290105Y130500D01*
X291895D01*
X293549Y131185D01*
X294815Y132451D01*
X295500Y134105D01*
Y135895D01*
X294815Y137549D01*
X293549Y138815D01*
X291895Y139500D01*
D02*
G37*
G36*
X580895Y149500D02*
X579105D01*
X577451Y148815D01*
X576185Y147549D01*
X575500Y145895D01*
Y144105D01*
X575740Y143525D01*
X575244Y141979D01*
X574829Y141313D01*
X574701Y141206D01*
X571948Y140065D01*
X569163Y138205D01*
X566795Y135837D01*
X564935Y133053D01*
X563794Y130299D01*
X563687Y130171D01*
X563021Y129756D01*
X561475Y129260D01*
X560895Y129500D01*
X559105D01*
X557451Y128815D01*
X556185Y127549D01*
X555500Y125895D01*
Y124105D01*
X556185Y122451D01*
X557451Y121185D01*
X559105Y120500D01*
X560895D01*
X561475Y120740D01*
X563021Y120244D01*
X563687Y119829D01*
X563794Y119701D01*
X564935Y116947D01*
X566795Y114163D01*
X569163Y111795D01*
X571948Y109935D01*
X574701Y108794D01*
X574829Y108687D01*
X575244Y108021D01*
X575740Y106475D01*
X575500Y105895D01*
Y104105D01*
X576185Y102451D01*
X577451Y101185D01*
X579105Y100500D01*
X580895D01*
X582549Y101185D01*
X583815Y102451D01*
X584500Y104105D01*
Y105895D01*
X584260Y106475D01*
X584756Y108021D01*
X585171Y108687D01*
X585299Y108794D01*
X588052Y109935D01*
X590837Y111795D01*
X593205Y114163D01*
X595065Y116947D01*
X596206Y119701D01*
X596313Y119829D01*
X596979Y120244D01*
X598525Y120740D01*
X599105Y120500D01*
X600895D01*
X602549Y121185D01*
X603815Y122451D01*
X604500Y124105D01*
Y125895D01*
X603815Y127549D01*
X602549Y128815D01*
X600895Y129500D01*
X599105D01*
X598525Y129260D01*
X596979Y129756D01*
X596313Y130171D01*
X596206Y130299D01*
X595065Y133053D01*
X593205Y135837D01*
X590837Y138205D01*
X588052Y140065D01*
X585299Y141206D01*
X585171Y141313D01*
X584756Y141979D01*
X584260Y143525D01*
X584500Y144105D01*
Y145895D01*
X583815Y147549D01*
X582549Y148815D01*
X580895Y149500D01*
D02*
G37*
G36*
X38895Y135500D02*
X37105D01*
X35451Y134815D01*
X34185Y133549D01*
X33500Y131895D01*
Y130105D01*
X34185Y128451D01*
X35451Y127185D01*
X37105Y126500D01*
X38895D01*
X40549Y127185D01*
X41815Y128451D01*
X42500Y130105D01*
Y131895D01*
X41815Y133549D01*
X40549Y134815D01*
X38895Y135500D01*
D02*
G37*
G36*
X67687Y132513D02*
X65897D01*
X64243Y131828D01*
X62977Y130562D01*
X62292Y128908D01*
Y127118D01*
X62977Y125464D01*
X64243Y124198D01*
X65897Y123513D01*
X67687D01*
X69341Y124198D01*
X70607Y125464D01*
X71292Y127118D01*
Y128908D01*
X70607Y130562D01*
X69341Y131828D01*
X67687Y132513D01*
D02*
G37*
G36*
X83895Y130750D02*
X82105D01*
X80451Y130065D01*
X79185Y128799D01*
X78500Y127145D01*
Y125355D01*
X79185Y123701D01*
X80451Y122435D01*
X82105Y121750D01*
X83895D01*
X85549Y122435D01*
X86815Y123701D01*
X87500Y125355D01*
Y127145D01*
X86815Y128799D01*
X85549Y130065D01*
X83895Y130750D01*
D02*
G37*
G36*
X385895Y130500D02*
X384105D01*
X382451Y129815D01*
X381185Y128549D01*
X380500Y126895D01*
Y125105D01*
X381185Y123451D01*
X382451Y122185D01*
X384105Y121500D01*
X385895D01*
X387549Y122185D01*
X388815Y123451D01*
X389500Y125105D01*
Y126895D01*
X388815Y128549D01*
X387549Y129815D01*
X385895Y130500D01*
D02*
G37*
G36*
X540895Y129500D02*
X539105D01*
X537451Y128815D01*
X536185Y127549D01*
X535500Y125895D01*
Y124105D01*
X536185Y122451D01*
X537451Y121185D01*
X539105Y120500D01*
X540895D01*
X542549Y121185D01*
X543815Y122451D01*
X544500Y124105D01*
Y125895D01*
X543815Y127549D01*
X542549Y128815D01*
X540895Y129500D01*
D02*
G37*
G36*
X102895Y136500D02*
X101105D01*
X99451Y135815D01*
X98185Y134549D01*
X97500Y132895D01*
Y131105D01*
X98185Y129451D01*
X99451Y128185D01*
X100656Y127686D01*
X101168Y127305D01*
X101750Y125500D01*
X101500Y124895D01*
Y123105D01*
X102185Y121451D01*
X103451Y120185D01*
X105105Y119500D01*
X106895D01*
X108549Y120185D01*
X109815Y121451D01*
X110500Y123105D01*
Y124895D01*
X109815Y126549D01*
X108549Y127815D01*
X107344Y128314D01*
X106832Y128694D01*
X106249Y130500D01*
X106500Y131105D01*
Y132895D01*
X105815Y134549D01*
X104549Y135815D01*
X102895Y136500D01*
D02*
G37*
G36*
X44895Y125500D02*
X43105D01*
X41451Y124815D01*
X40185Y123549D01*
X39500Y121895D01*
Y120105D01*
X40185Y118451D01*
X41451Y117185D01*
X43105Y116500D01*
X44895D01*
X46549Y117185D01*
X47815Y118451D01*
X48500Y120105D01*
Y121895D01*
X47815Y123549D01*
X46549Y124815D01*
X44895Y125500D01*
D02*
G37*
G36*
X32895D02*
X31105D01*
X29451Y124815D01*
X28185Y123549D01*
X27500Y121895D01*
Y120105D01*
X28185Y118451D01*
X29451Y117185D01*
X31105Y116500D01*
X32895D01*
X34549Y117185D01*
X35815Y118451D01*
X36500Y120105D01*
Y121895D01*
X35815Y123549D01*
X34549Y124815D01*
X32895Y125500D01*
D02*
G37*
G36*
X194895Y117500D02*
X193105D01*
X191451Y116815D01*
X190185Y115549D01*
X189500Y113895D01*
Y112105D01*
X190185Y110451D01*
X191451Y109185D01*
X193105Y108500D01*
X194895D01*
X196549Y109185D01*
X197815Y110451D01*
X198500Y112105D01*
Y113895D01*
X197815Y115549D01*
X196549Y116815D01*
X194895Y117500D01*
D02*
G37*
G36*
X265895Y113500D02*
X264105D01*
X262451Y112815D01*
X261185Y111549D01*
X260500Y109895D01*
Y108105D01*
X261185Y106451D01*
X262451Y105185D01*
X264105Y104500D01*
X265895D01*
X267549Y105185D01*
X268815Y106451D01*
X269500Y108105D01*
Y109895D01*
X268815Y111549D01*
X267549Y112815D01*
X265895Y113500D01*
D02*
G37*
G36*
X139895D02*
X138105D01*
X136451Y112815D01*
X135185Y111549D01*
X134500Y109895D01*
Y108105D01*
X135185Y106451D01*
X136451Y105185D01*
X138105Y104500D01*
X139895D01*
X141549Y105185D01*
X142815Y106451D01*
X143500Y108105D01*
Y109895D01*
X142815Y111549D01*
X141549Y112815D01*
X139895Y113500D01*
D02*
G37*
G36*
X600895Y109500D02*
X599105D01*
X597451Y108815D01*
X596185Y107549D01*
X595500Y105895D01*
Y104105D01*
X596185Y102451D01*
X597451Y101185D01*
X599105Y100500D01*
X600895D01*
X602549Y101185D01*
X603815Y102451D01*
X604500Y104105D01*
Y105895D01*
X603815Y107549D01*
X602549Y108815D01*
X600895Y109500D01*
D02*
G37*
G36*
X560895D02*
X559105D01*
X557451Y108815D01*
X556185Y107549D01*
X555500Y105895D01*
Y104105D01*
X556185Y102451D01*
X557451Y101185D01*
X559105Y100500D01*
X560895D01*
X562549Y101185D01*
X563815Y102451D01*
X564500Y104105D01*
Y105895D01*
X563815Y107549D01*
X562549Y108815D01*
X560895Y109500D01*
D02*
G37*
G36*
X540895D02*
X539105D01*
X537451Y108815D01*
X536185Y107549D01*
X535500Y105895D01*
Y104105D01*
X536185Y102451D01*
X537451Y101185D01*
X539105Y100500D01*
X540895D01*
X542549Y101185D01*
X543815Y102451D01*
X544500Y104105D01*
Y105895D01*
X543815Y107549D01*
X542549Y108815D01*
X540895Y109500D01*
D02*
G37*
G36*
X63500Y112290D02*
Y100250D01*
X61000D01*
Y112290D01*
X59835Y112137D01*
X57585Y111205D01*
X55653Y109722D01*
X55576Y109622D01*
X54862Y109395D01*
X54030Y109405D01*
X53075Y109648D01*
X52564Y110159D01*
X51572Y110822D01*
X50598Y111226D01*
X49427Y111459D01*
X48373D01*
X47202Y111226D01*
X46228Y110822D01*
X45236Y110159D01*
X44491Y109414D01*
X43828Y108422D01*
X43424Y107448D01*
X43191Y106277D01*
Y105750D01*
X43191Y105750D01*
X43191Y101723D01*
X43424Y100552D01*
X43828Y99578D01*
X44491Y98586D01*
X45236Y97841D01*
X46228Y97177D01*
X47202Y96774D01*
X48373Y96541D01*
X49427D01*
X50598Y96774D01*
X50962Y96925D01*
X50970Y96925D01*
X51204Y96904D01*
X52548Y96246D01*
X53054Y95763D01*
X53225Y94466D01*
X54107Y92337D01*
X55509Y90509D01*
X57337Y89107D01*
X59466Y88225D01*
X61750Y87924D01*
X67000D01*
Y96750D01*
X68250D01*
Y98000D01*
X83411D01*
X83275Y99034D01*
X82393Y101163D01*
X80991Y102991D01*
X79163Y104393D01*
X77034Y105275D01*
X74750Y105576D01*
X71247D01*
X70330Y107790D01*
X68847Y109722D01*
X66915Y111205D01*
X64665Y112137D01*
X63500Y112290D01*
D02*
G37*
G36*
X24250Y105878D02*
X19000D01*
Y98050D01*
X33163D01*
X33018Y99150D01*
X32111Y101339D01*
X30669Y103219D01*
X28789Y104662D01*
X26600Y105568D01*
X24250Y105878D01*
D02*
G37*
G36*
X126895Y103500D02*
X125105D01*
X123451Y102815D01*
X122185Y101549D01*
X121500Y99895D01*
Y98105D01*
X122185Y96451D01*
X123451Y95185D01*
X125105Y94500D01*
X126895D01*
X128549Y95185D01*
X129815Y96451D01*
X130500Y98105D01*
Y99895D01*
X129815Y101549D01*
X128549Y102815D01*
X126895Y103500D01*
D02*
G37*
G36*
X162895Y98500D02*
X161105D01*
X159451Y97815D01*
X158185Y96549D01*
X157500Y94895D01*
Y93105D01*
X158185Y91451D01*
X159451Y90185D01*
X161105Y89500D01*
X162895D01*
X164549Y90185D01*
X165815Y91451D01*
X166500Y93105D01*
Y94895D01*
X165815Y96549D01*
X164549Y97815D01*
X162895Y98500D01*
D02*
G37*
G36*
X83411Y95500D02*
X69500D01*
Y87924D01*
X74750D01*
X77034Y88225D01*
X79163Y89107D01*
X80991Y90509D01*
X82393Y92337D01*
X83275Y94466D01*
X83411Y95500D01*
D02*
G37*
G36*
X33163Y95550D02*
X19000D01*
Y87722D01*
X24250D01*
X26600Y88032D01*
X28789Y88939D01*
X30669Y90381D01*
X32111Y92261D01*
X33018Y94451D01*
X33163Y95550D01*
D02*
G37*
G36*
X98895Y94500D02*
X97105D01*
X95451Y93815D01*
X94185Y92549D01*
X93500Y90895D01*
Y89105D01*
X94185Y87451D01*
X95451Y86185D01*
X97105Y85500D01*
X98895D01*
X100549Y86185D01*
X101815Y87451D01*
X102500Y89105D01*
Y90895D01*
X101815Y92549D01*
X100549Y93815D01*
X98895Y94500D01*
D02*
G37*
G36*
X170895Y85500D02*
X169105D01*
X167451Y84815D01*
X166185Y83549D01*
X165500Y81895D01*
Y80105D01*
X166185Y78451D01*
X167451Y77185D01*
X169105Y76500D01*
X170895D01*
X172549Y77185D01*
X173815Y78451D01*
X174500Y80105D01*
Y81895D01*
X173815Y83549D01*
X172549Y84815D01*
X170895Y85500D01*
D02*
G37*
G36*
X117895Y84500D02*
X116105D01*
X114451Y83815D01*
X113185Y82549D01*
X112500Y80895D01*
Y79105D01*
X113185Y77451D01*
X114451Y76185D01*
X116105Y75500D01*
X117895D01*
X119549Y76185D01*
X120815Y77451D01*
X121500Y79105D01*
Y80895D01*
X120815Y82549D01*
X119549Y83815D01*
X117895Y84500D01*
D02*
G37*
G36*
X104895D02*
X103105D01*
X101451Y83815D01*
X100185Y82549D01*
X99500Y80895D01*
Y79105D01*
X100185Y77451D01*
X101451Y76185D01*
X103105Y75500D01*
X104895D01*
X106549Y76185D01*
X107815Y77451D01*
X108500Y79105D01*
Y80895D01*
X107815Y82549D01*
X106549Y83815D01*
X104895Y84500D01*
D02*
G37*
G36*
X92895D02*
X91105D01*
X89451Y83815D01*
X88185Y82549D01*
X87500Y80895D01*
Y79105D01*
X88185Y77451D01*
X89451Y76185D01*
X91105Y75500D01*
X92895D01*
X94549Y76185D01*
X95815Y77451D01*
X96500Y79105D01*
Y80895D01*
X95815Y82549D01*
X94549Y83815D01*
X92895Y84500D01*
D02*
G37*
G36*
X543646Y86700D02*
X543250D01*
Y75450D01*
X554500D01*
Y75846D01*
X553648Y79025D01*
X552002Y81875D01*
X549675Y84202D01*
X546825Y85848D01*
X543646Y86700D01*
D02*
G37*
G36*
X540750D02*
X540354D01*
X537175Y85848D01*
X534325Y84202D01*
X531997Y81875D01*
X530352Y79025D01*
X529500Y75846D01*
Y75450D01*
X540750D01*
Y86700D01*
D02*
G37*
G36*
X642350D02*
X641954D01*
X638775Y85848D01*
X635925Y84202D01*
X633597Y81875D01*
X631952Y79025D01*
X631100Y75846D01*
Y75450D01*
X642350D01*
Y86700D01*
D02*
G37*
G36*
X498895Y73500D02*
X497105D01*
X495451Y72815D01*
X494185Y71549D01*
X493500Y69895D01*
Y68105D01*
X494185Y66451D01*
X495451Y65185D01*
X497105Y64500D01*
X498895D01*
X500549Y65185D01*
X501815Y66451D01*
X502500Y68105D01*
Y69895D01*
X501815Y71549D01*
X500549Y72815D01*
X498895Y73500D01*
D02*
G37*
G36*
X483895D02*
X482105D01*
X480451Y72815D01*
X479185Y71549D01*
X478500Y69895D01*
Y68105D01*
X479185Y66451D01*
X480451Y65185D01*
X482105Y64500D01*
X483895D01*
X485549Y65185D01*
X486815Y66451D01*
X487500Y68105D01*
Y69895D01*
X486815Y71549D01*
X485549Y72815D01*
X483895Y73500D01*
D02*
G37*
G36*
X465895D02*
X464105D01*
X462451Y72815D01*
X461185Y71549D01*
X460500Y69895D01*
Y68105D01*
X461185Y66451D01*
X462451Y65185D01*
X464105Y64500D01*
X465895D01*
X467549Y65185D01*
X468815Y66451D01*
X469500Y68105D01*
Y69895D01*
X468815Y71549D01*
X467549Y72815D01*
X465895Y73500D01*
D02*
G37*
G36*
X170895D02*
X169105D01*
X167451Y72815D01*
X166185Y71549D01*
X165500Y69895D01*
Y68105D01*
X166185Y66451D01*
X167451Y65185D01*
X169105Y64500D01*
X170895D01*
X172549Y65185D01*
X173815Y66451D01*
X174500Y68105D01*
Y69895D01*
X173815Y71549D01*
X172549Y72815D01*
X170895Y73500D01*
D02*
G37*
G36*
X117895D02*
X116105D01*
X114451Y72815D01*
X113185Y71549D01*
X112500Y69895D01*
Y68105D01*
X113185Y66451D01*
X114451Y65185D01*
X116105Y64500D01*
X117895D01*
X119549Y65185D01*
X120815Y66451D01*
X121500Y68105D01*
Y69895D01*
X120815Y71549D01*
X119549Y72815D01*
X117895Y73500D01*
D02*
G37*
G36*
X104895D02*
X103105D01*
X101451Y72815D01*
X100185Y71549D01*
X99500Y69895D01*
Y68105D01*
X100185Y66451D01*
X101451Y65185D01*
X103105Y64500D01*
X104895D01*
X106549Y65185D01*
X107815Y66451D01*
X108500Y68105D01*
Y69895D01*
X107815Y71549D01*
X106549Y72815D01*
X104895Y73500D01*
D02*
G37*
G36*
X92895D02*
X91105D01*
X89451Y72815D01*
X88185Y71549D01*
X87500Y69895D01*
Y68105D01*
X88185Y66451D01*
X89451Y65185D01*
X91105Y64500D01*
X92895D01*
X94549Y65185D01*
X95815Y66451D01*
X96500Y68105D01*
Y69895D01*
X95815Y71549D01*
X94549Y72815D01*
X92895Y73500D01*
D02*
G37*
G36*
X642350Y72950D02*
X631100D01*
Y72554D01*
X631952Y69375D01*
X633597Y66525D01*
X635925Y64198D01*
X638775Y62552D01*
X641954Y61700D01*
X642350D01*
Y72950D01*
D02*
G37*
G36*
X554500D02*
X543250D01*
Y61700D01*
X543646D01*
X546825Y62552D01*
X549675Y64198D01*
X552002Y66525D01*
X553648Y69375D01*
X554500Y72554D01*
Y72950D01*
D02*
G37*
G36*
X540750D02*
X529500D01*
Y72554D01*
X530352Y69375D01*
X531997Y66525D01*
X534325Y64198D01*
X537175Y62552D01*
X540354Y61700D01*
X540750D01*
Y72950D01*
D02*
G37*
G36*
X505895Y64500D02*
X504105D01*
X502451Y63815D01*
X501185Y62549D01*
X500500Y60895D01*
Y59105D01*
X501185Y57451D01*
X502451Y56185D01*
X504105Y55500D01*
X505895D01*
X507549Y56185D01*
X508815Y57451D01*
X509500Y59105D01*
Y60895D01*
X508815Y62549D01*
X507549Y63815D01*
X505895Y64500D01*
D02*
G37*
G36*
X490895D02*
X489105D01*
X487451Y63815D01*
X486185Y62549D01*
X485500Y60895D01*
Y59105D01*
X486185Y57451D01*
X487451Y56185D01*
X489105Y55500D01*
X490895D01*
X492549Y56185D01*
X493815Y57451D01*
X494500Y59105D01*
Y60895D01*
X493815Y62549D01*
X492549Y63815D01*
X490895Y64500D01*
D02*
G37*
G36*
X475895D02*
X474105D01*
X472451Y63815D01*
X471185Y62549D01*
X470500Y60895D01*
Y59105D01*
X471185Y57451D01*
X472451Y56185D01*
X474105Y55500D01*
X475895D01*
X477549Y56185D01*
X478815Y57451D01*
X479500Y59105D01*
Y60895D01*
X478815Y62549D01*
X477549Y63815D01*
X475895Y64500D01*
D02*
G37*
G36*
X455895D02*
X454105D01*
X452451Y63815D01*
X451185Y62549D01*
X450500Y60895D01*
Y59105D01*
X451185Y57451D01*
X452451Y56185D01*
X454105Y55500D01*
X455895D01*
X457549Y56185D01*
X458815Y57451D01*
X459500Y59105D01*
Y60895D01*
X458815Y62549D01*
X457549Y63815D01*
X455895Y64500D01*
D02*
G37*
G36*
X117895Y62500D02*
X116105D01*
X114451Y61815D01*
X113185Y60549D01*
X112500Y58895D01*
Y57105D01*
X113185Y55451D01*
X114451Y54185D01*
X116105Y53500D01*
X117895D01*
X119549Y54185D01*
X120815Y55451D01*
X121500Y57105D01*
Y58895D01*
X120815Y60549D01*
X119549Y61815D01*
X117895Y62500D01*
D02*
G37*
G36*
X104895D02*
X103105D01*
X101451Y61815D01*
X100185Y60549D01*
X99500Y58895D01*
Y57105D01*
X100185Y55451D01*
X101451Y54185D01*
X103105Y53500D01*
X104895D01*
X106549Y54185D01*
X107815Y55451D01*
X108500Y57105D01*
Y58895D01*
X107815Y60549D01*
X106549Y61815D01*
X104895Y62500D01*
D02*
G37*
G36*
X92895D02*
X91105D01*
X89451Y61815D01*
X88185Y60549D01*
X87500Y58895D01*
Y57105D01*
X88185Y55451D01*
X89451Y54185D01*
X91105Y53500D01*
X92895D01*
X94549Y54185D01*
X95815Y55451D01*
X96500Y57105D01*
Y58895D01*
X95815Y60549D01*
X94549Y61815D01*
X92895Y62500D01*
D02*
G37*
G36*
X303895Y53500D02*
X302105D01*
X300451Y52815D01*
X299185Y51549D01*
X298500Y49895D01*
Y48105D01*
X299185Y46451D01*
X300451Y45185D01*
X302105Y44500D01*
X303895D01*
X305549Y45185D01*
X306815Y46451D01*
X307500Y48105D01*
Y49895D01*
X306815Y51549D01*
X305549Y52815D01*
X303895Y53500D01*
D02*
G37*
G36*
X288895Y51500D02*
X287105D01*
X285451Y50815D01*
X284185Y49549D01*
X283500Y47895D01*
Y46105D01*
X284185Y44451D01*
X285451Y43185D01*
X287105Y42500D01*
X288895D01*
X290549Y43185D01*
X291815Y44451D01*
X292500Y46105D01*
Y47895D01*
X291815Y49549D01*
X290549Y50815D01*
X288895Y51500D01*
D02*
G37*
G36*
X148895Y47500D02*
X147105D01*
X145451Y46815D01*
X144185Y45549D01*
X143500Y43895D01*
Y42105D01*
X144185Y40451D01*
X145451Y39185D01*
X147105Y38500D01*
X148895D01*
X150549Y39185D01*
X151815Y40451D01*
X152500Y42105D01*
Y43895D01*
X151815Y45549D01*
X150549Y46815D01*
X148895Y47500D01*
D02*
G37*
G36*
X128895D02*
X127105D01*
X125451Y46815D01*
X124185Y45549D01*
X123500Y43895D01*
Y42105D01*
X124185Y40451D01*
X125451Y39185D01*
X127105Y38500D01*
X128895D01*
X130549Y39185D01*
X131815Y40451D01*
X132500Y42105D01*
Y43895D01*
X131815Y45549D01*
X130549Y46815D01*
X128895Y47500D01*
D02*
G37*
G36*
X312895Y46500D02*
X311105D01*
X309451Y45815D01*
X308185Y44549D01*
X307500Y42895D01*
Y41105D01*
X308185Y39451D01*
X309451Y38185D01*
X311105Y37500D01*
X312895D01*
X314549Y38185D01*
X315815Y39451D01*
X316500Y41105D01*
Y42895D01*
X315815Y44549D01*
X314549Y45815D01*
X312895Y46500D01*
D02*
G37*
G36*
X138895Y42500D02*
X137105D01*
X135451Y41815D01*
X134185Y40549D01*
X133500Y38895D01*
Y37105D01*
X134185Y35451D01*
X135451Y34185D01*
X137105Y33500D01*
X138895D01*
X140549Y34185D01*
X141815Y35451D01*
X142500Y37105D01*
Y38895D01*
X141815Y40549D01*
X140549Y41815D01*
X138895Y42500D01*
D02*
G37*
G36*
X322895Y41500D02*
X321105D01*
X319451Y40815D01*
X318185Y39549D01*
X317500Y37895D01*
Y36105D01*
X318185Y34451D01*
X319451Y33185D01*
X321105Y32500D01*
X322895D01*
X324549Y33185D01*
X325815Y34451D01*
X326500Y36105D01*
Y37895D01*
X325815Y39549D01*
X324549Y40815D01*
X322895Y41500D01*
D02*
G37*
G36*
X299895D02*
X298105D01*
X296451Y40815D01*
X295185Y39549D01*
X294500Y37895D01*
Y36105D01*
X295185Y34451D01*
X296451Y33185D01*
X298105Y32500D01*
X299895D01*
X301549Y33185D01*
X302815Y34451D01*
X303500Y36105D01*
Y37895D01*
X302815Y39549D01*
X301549Y40815D01*
X299895Y41500D01*
D02*
G37*
G36*
X310895Y35500D02*
X309105D01*
X307451Y34815D01*
X306185Y33549D01*
X305500Y31895D01*
Y30105D01*
X306185Y28451D01*
X307451Y27185D01*
X309105Y26500D01*
X310895D01*
X312549Y27185D01*
X313815Y28451D01*
X314500Y30105D01*
Y31895D01*
X313815Y33549D01*
X312549Y34815D01*
X310895Y35500D01*
D02*
G37*
G36*
X148895Y34500D02*
X147105D01*
X145451Y33815D01*
X144185Y32549D01*
X143500Y30895D01*
Y29105D01*
X144185Y27451D01*
X145451Y26185D01*
X147105Y25500D01*
X148895D01*
X150549Y26185D01*
X151815Y27451D01*
X152500Y29105D01*
Y30895D01*
X151815Y32549D01*
X150549Y33815D01*
X148895Y34500D01*
D02*
G37*
G36*
X128895D02*
X127105D01*
X125451Y33815D01*
X124185Y32549D01*
X123500Y30895D01*
Y29105D01*
X124185Y27451D01*
X125451Y26185D01*
X127105Y25500D01*
X128895D01*
X130549Y26185D01*
X131815Y27451D01*
X132500Y29105D01*
Y30895D01*
X131815Y32549D01*
X130549Y33815D01*
X128895Y34500D01*
D02*
G37*
G36*
X320895Y27500D02*
X319105D01*
X317451Y26815D01*
X316185Y25549D01*
X315500Y23895D01*
Y22105D01*
X316185Y20451D01*
X317451Y19185D01*
X319105Y18500D01*
X320895D01*
X322549Y19185D01*
X323815Y20451D01*
X324500Y22105D01*
Y23895D01*
X323815Y25549D01*
X322549Y26815D01*
X320895Y27500D01*
D02*
G37*
G36*
X300895D02*
X299105D01*
X297451Y26815D01*
X296185Y25549D01*
X295500Y23895D01*
Y22105D01*
X296185Y20451D01*
X297451Y19185D01*
X299105Y18500D01*
X300895D01*
X302549Y19185D01*
X303815Y20451D01*
X304500Y22105D01*
Y23895D01*
X303815Y25549D01*
X302549Y26815D01*
X300895Y27500D01*
D02*
G37*
G36*
X138895D02*
X137105D01*
X135451Y26815D01*
X134185Y25549D01*
X133500Y23895D01*
Y22105D01*
X134185Y20451D01*
X135451Y19185D01*
X137105Y18500D01*
X138895D01*
X140549Y19185D01*
X141815Y20451D01*
X142500Y22105D01*
Y23895D01*
X141815Y25549D01*
X140549Y26815D01*
X138895Y27500D01*
D02*
G37*
G36*
X359895Y23500D02*
X358105D01*
X356451Y22815D01*
X355185Y21549D01*
X354500Y19895D01*
Y18105D01*
X355185Y16451D01*
X356451Y15185D01*
X358105Y14500D01*
X359895D01*
X361549Y15185D01*
X362815Y16451D01*
X363500Y18105D01*
Y19895D01*
X362815Y21549D01*
X361549Y22815D01*
X359895Y23500D01*
D02*
G37*
G36*
X311895Y20500D02*
X310105D01*
X308451Y19815D01*
X307185Y18549D01*
X306500Y16895D01*
Y15105D01*
X307185Y13451D01*
X308451Y12185D01*
X310105Y11500D01*
X311895D01*
X313549Y12185D01*
X314815Y13451D01*
X315500Y15105D01*
Y16895D01*
X314815Y18549D01*
X313549Y19815D01*
X311895Y20500D01*
D02*
G37*
G36*
X148895D02*
X147105D01*
X145451Y19815D01*
X144185Y18549D01*
X143500Y16895D01*
Y15105D01*
X144185Y13451D01*
X145451Y12185D01*
X147105Y11500D01*
X148895D01*
X150549Y12185D01*
X151815Y13451D01*
X152500Y15105D01*
Y16895D01*
X151815Y18549D01*
X150549Y19815D01*
X148895Y20500D01*
D02*
G37*
G36*
X128895D02*
X127105D01*
X125451Y19815D01*
X124185Y18549D01*
X123500Y16895D01*
Y15105D01*
X124185Y13451D01*
X125451Y12185D01*
X127105Y11500D01*
X128895D01*
X130549Y12185D01*
X131815Y13451D01*
X132500Y15105D01*
Y16895D01*
X131815Y18549D01*
X130549Y19815D01*
X128895Y20500D01*
D02*
G37*
G36*
X401895Y19500D02*
X400105D01*
X398451Y18815D01*
X397185Y17549D01*
X396500Y15895D01*
Y14105D01*
X397185Y12451D01*
X398451Y11185D01*
X400105Y10500D01*
X401895D01*
X403549Y11185D01*
X404815Y12451D01*
X405500Y14105D01*
Y15895D01*
X404815Y17549D01*
X403549Y18815D01*
X401895Y19500D01*
D02*
G37*
%LPD*%
G36*
X369622Y607529D02*
X369418Y607549D01*
X369217Y607549D01*
X369018Y607527D01*
X368822Y607483D01*
X368627Y607419D01*
X368435Y607332D01*
X368245Y607225D01*
X368058Y607096D01*
X367872Y606946D01*
X367689Y606775D01*
X366496Y608410D01*
X366666Y608590D01*
X366822Y608772D01*
X366962Y608956D01*
X367087Y609144D01*
X367197Y609334D01*
X367292Y609528D01*
X367372Y609724D01*
X367437Y609923D01*
X367487Y610124D01*
X367522Y610329D01*
X369622Y607529D01*
D02*
G37*
G36*
X389975Y607500D02*
X389767Y607493D01*
X389561Y607468D01*
X389359Y607425D01*
X389159Y607363D01*
X388963Y607283D01*
X388769Y607186D01*
X388579Y607069D01*
X388392Y606935D01*
X388208Y606783D01*
X388026Y606612D01*
X386612Y608026D01*
X386783Y608208D01*
X386935Y608392D01*
X387069Y608579D01*
X387186Y608769D01*
X387283Y608963D01*
X387363Y609159D01*
X387425Y609358D01*
X387468Y609561D01*
X387493Y609767D01*
X387500Y609975D01*
X389975Y607500D01*
D02*
G37*
G36*
X292507Y609767D02*
X292532Y609561D01*
X292575Y609358D01*
X292637Y609159D01*
X292717Y608963D01*
X292815Y608769D01*
X292931Y608579D01*
X293065Y608392D01*
X293217Y608208D01*
X293388Y608026D01*
X291974Y606612D01*
X291793Y606783D01*
X291608Y606935D01*
X291421Y607069D01*
X291231Y607186D01*
X291037Y607283D01*
X290841Y607363D01*
X290641Y607425D01*
X290439Y607468D01*
X290233Y607493D01*
X290025Y607500D01*
X292500Y609975D01*
X292507Y609767D01*
D02*
G37*
G36*
X272507D02*
X272532Y609561D01*
X272575Y609358D01*
X272637Y609159D01*
X272717Y608963D01*
X272815Y608769D01*
X272931Y608579D01*
X273065Y608392D01*
X273217Y608208D01*
X273388Y608026D01*
X271974Y606612D01*
X271793Y606783D01*
X271608Y606935D01*
X271421Y607069D01*
X271231Y607186D01*
X271037Y607283D01*
X270841Y607363D01*
X270641Y607425D01*
X270439Y607468D01*
X270233Y607493D01*
X270025Y607500D01*
X272500Y609975D01*
X272507Y609767D01*
D02*
G37*
G36*
X284507Y464767D02*
X284532Y464561D01*
X284575Y464359D01*
X284637Y464159D01*
X284717Y463963D01*
X284814Y463769D01*
X284931Y463579D01*
X285065Y463392D01*
X285217Y463208D01*
X285388Y463026D01*
X283974Y461612D01*
X283792Y461783D01*
X283608Y461935D01*
X283421Y462069D01*
X283231Y462186D01*
X283037Y462283D01*
X282841Y462363D01*
X282641Y462425D01*
X282439Y462468D01*
X282234Y462493D01*
X282025Y462500D01*
X284500Y464975D01*
X284507Y464767D01*
D02*
G37*
G36*
X297441Y449464D02*
Y432631D01*
X297441Y432631D01*
X297674Y431460D01*
X298337Y430468D01*
X307065Y421740D01*
Y420670D01*
X307750Y419016D01*
X309016Y417750D01*
X310670Y417065D01*
X312460D01*
X314114Y417750D01*
X315380Y419016D01*
X316024Y420571D01*
X316065Y420670D01*
X316801Y420553D01*
Y420553D01*
X316801Y420553D01*
X317941Y419025D01*
Y413000D01*
X317941Y413000D01*
X318174Y411829D01*
X318837Y410837D01*
X343268Y386407D01*
X342502Y384559D01*
X336767D01*
X291059Y430267D01*
Y449183D01*
X293059Y450519D01*
X293105Y450500D01*
X294895D01*
X295441Y450726D01*
X297441Y449464D01*
D02*
G37*
G36*
X64145Y442731D02*
X63822Y442347D01*
X63534Y441879D01*
X63281Y441326D01*
X63063Y440687D01*
X62881Y439964D01*
X62734Y439156D01*
X62623Y438263D01*
X62505Y436223D01*
X62500Y435075D01*
X55075Y442500D01*
X56223Y442505D01*
X58263Y442623D01*
X59156Y442734D01*
X59964Y442881D01*
X60687Y443063D01*
X61326Y443281D01*
X61879Y443534D01*
X62347Y443822D01*
X62731Y444145D01*
X64145Y442731D01*
D02*
G37*
G36*
X445215Y427250D02*
X445062Y427393D01*
X444899Y427520D01*
X444725Y427632D01*
X444541Y427730D01*
X444346Y427812D01*
X444140Y427880D01*
X443923Y427933D01*
X443696Y427970D01*
X443457Y427993D01*
X443209Y428000D01*
Y430000D01*
X443457Y430008D01*
X443696Y430030D01*
X443923Y430067D01*
X444140Y430120D01*
X444346Y430187D01*
X444541Y430270D01*
X444725Y430368D01*
X444899Y430480D01*
X445062Y430607D01*
X445215Y430750D01*
Y427250D01*
D02*
G37*
G36*
X112505Y433777D02*
X112623Y431737D01*
X112734Y430844D01*
X112881Y430036D01*
X113063Y429313D01*
X113281Y428674D01*
X113534Y428121D01*
X113822Y427653D01*
X114145Y427269D01*
X112731Y425855D01*
X112347Y426178D01*
X111879Y426466D01*
X111326Y426719D01*
X110688Y426937D01*
X109964Y427119D01*
X109156Y427266D01*
X108263Y427377D01*
X106223Y427495D01*
X105075Y427500D01*
X112500Y434925D01*
X112505Y433777D01*
D02*
G37*
G36*
X348901Y418643D02*
X348782Y418805D01*
X348649Y418951D01*
X348501Y419080D01*
X348339Y419191D01*
X348161Y419286D01*
X347968Y419363D01*
X347761Y419423D01*
X347539Y419466D01*
X347302Y419492D01*
X347051Y419500D01*
X347500Y421500D01*
X347747Y421506D01*
X348216Y421552D01*
X348438Y421591D01*
X348652Y421643D01*
X348858Y421706D01*
X349056Y421780D01*
X349246Y421866D01*
X349427Y421963D01*
X349601Y422072D01*
X348901Y418643D01*
D02*
G37*
G36*
X343507Y410766D02*
X343532Y410561D01*
X343575Y410359D01*
X343637Y410159D01*
X343717Y409963D01*
X343815Y409769D01*
X343931Y409579D01*
X344065Y409392D01*
X344217Y409207D01*
X344388Y409026D01*
X342974Y407612D01*
X342793Y407783D01*
X342608Y407935D01*
X342421Y408069D01*
X342231Y408186D01*
X342037Y408283D01*
X341841Y408363D01*
X341642Y408425D01*
X341439Y408468D01*
X341233Y408493D01*
X341025Y408500D01*
X343500Y410975D01*
X343507Y410766D01*
D02*
G37*
G36*
X349207Y395217D02*
X349392Y395065D01*
X349579Y394931D01*
X349769Y394814D01*
X349963Y394717D01*
X350159Y394637D01*
X350359Y394575D01*
X350561Y394532D01*
X350766Y394507D01*
X350975Y394500D01*
X348500Y392025D01*
X348493Y392234D01*
X348468Y392439D01*
X348425Y392641D01*
X348363Y392841D01*
X348283Y393037D01*
X348186Y393231D01*
X348069Y393421D01*
X347935Y393608D01*
X347783Y393792D01*
X347612Y393974D01*
X349026Y395388D01*
X349207Y395217D01*
D02*
G37*
G36*
X350602Y383292D02*
X350587Y383310D01*
X350554Y383327D01*
X350501Y383341D01*
X350430Y383354D01*
X350340Y383365D01*
X350104Y383380D01*
X349611Y383389D01*
Y385389D01*
X350936Y385411D01*
X350602Y383292D01*
D02*
G37*
G36*
X312215Y375250D02*
X312062Y375392D01*
X311899Y375520D01*
X311725Y375633D01*
X311541Y375730D01*
X311346Y375812D01*
X311140Y375880D01*
X310923Y375933D01*
X310696Y375970D01*
X310457Y375993D01*
X310209Y376000D01*
Y378000D01*
X310457Y378008D01*
X310696Y378030D01*
X310923Y378068D01*
X311140Y378120D01*
X311346Y378187D01*
X311541Y378270D01*
X311725Y378368D01*
X311899Y378480D01*
X312062Y378607D01*
X312215Y378750D01*
Y375250D01*
D02*
G37*
G36*
X180616Y376059D02*
X179787Y374059D01*
X170267D01*
X115499Y428827D01*
X115479Y428851D01*
X115336Y429082D01*
X115178Y429429D01*
X115021Y429891D01*
X114875Y430468D01*
X114751Y431153D01*
X114655Y431922D01*
X114544Y433841D01*
X114539Y434935D01*
X114500Y435125D01*
Y436251D01*
X113853Y438667D01*
X112602Y440833D01*
X110833Y442602D01*
X108667Y443853D01*
X108336Y443941D01*
X108599Y445941D01*
X110733D01*
X180616Y376059D01*
D02*
G37*
G36*
X389974Y302500D02*
X389766Y302493D01*
X389560Y302468D01*
X389358Y302425D01*
X389158Y302363D01*
X388962Y302283D01*
X388769Y302185D01*
X388578Y302069D01*
X388391Y301935D01*
X388207Y301783D01*
X388026Y301612D01*
X386611Y303026D01*
X386782Y303207D01*
X386934Y303392D01*
X387069Y303579D01*
X387185Y303769D01*
X387283Y303963D01*
X387362Y304159D01*
X387424Y304359D01*
X387467Y304561D01*
X387492Y304767D01*
X387499Y304975D01*
X389974Y302500D01*
D02*
G37*
G36*
X359974D02*
X359766Y302493D01*
X359560Y302468D01*
X359358Y302425D01*
X359158Y302363D01*
X358962Y302283D01*
X358769Y302185D01*
X358578Y302069D01*
X358391Y301935D01*
X358207Y301783D01*
X358025Y301612D01*
X356611Y303026D01*
X356782Y303207D01*
X356934Y303392D01*
X357069Y303579D01*
X357185Y303769D01*
X357282Y303963D01*
X357362Y304159D01*
X357424Y304359D01*
X357467Y304561D01*
X357492Y304767D01*
X357499Y304975D01*
X359974Y302500D01*
D02*
G37*
G36*
X314938Y258608D02*
X315101Y258480D01*
X315275Y258368D01*
X315459Y258270D01*
X315654Y258188D01*
X315860Y258120D01*
X316077Y258067D01*
X316304Y258030D01*
X316542Y258008D01*
X316791Y258000D01*
Y256000D01*
X316542Y255993D01*
X316304Y255970D01*
X316077Y255933D01*
X315860Y255880D01*
X315654Y255812D01*
X315459Y255730D01*
X315275Y255632D01*
X315101Y255520D01*
X314938Y255392D01*
X314785Y255250D01*
Y258750D01*
X314938Y258608D01*
D02*
G37*
G36*
X329507Y246766D02*
X329532Y246561D01*
X329575Y246359D01*
X329637Y246159D01*
X329717Y245963D01*
X329814Y245769D01*
X329931Y245579D01*
X330065Y245392D01*
X330217Y245208D01*
X330388Y245026D01*
X328974Y243612D01*
X328792Y243783D01*
X328608Y243935D01*
X328421Y244069D01*
X328231Y244186D01*
X328037Y244283D01*
X327841Y244363D01*
X327641Y244425D01*
X327439Y244468D01*
X327234Y244493D01*
X327025Y244500D01*
X329500Y246975D01*
X329507Y246766D01*
D02*
G37*
G36*
X252607Y156062D02*
X252480Y155899D01*
X252367Y155725D01*
X252270Y155541D01*
X252188Y155346D01*
X252120Y155140D01*
X252068Y154923D01*
X252030Y154696D01*
X252008Y154458D01*
X252000Y154209D01*
X250000D01*
X249993Y154458D01*
X249970Y154696D01*
X249932Y154923D01*
X249880Y155140D01*
X249813Y155346D01*
X249730Y155541D01*
X249632Y155725D01*
X249520Y155899D01*
X249393Y156062D01*
X249250Y156215D01*
X252750D01*
X252607Y156062D01*
D02*
G37*
G36*
X272008Y132542D02*
X272030Y132304D01*
X272068Y132077D01*
X272120Y131860D01*
X272188Y131654D01*
X272270Y131459D01*
X272367Y131275D01*
X272480Y131101D01*
X272607Y130938D01*
X272750Y130785D01*
X269250D01*
X269393Y130938D01*
X269520Y131101D01*
X269632Y131275D01*
X269730Y131459D01*
X269813Y131654D01*
X269880Y131860D01*
X269932Y132077D01*
X269970Y132304D01*
X269993Y132542D01*
X270000Y132791D01*
X272000D01*
X272008Y132542D01*
D02*
G37*
G36*
X301066Y289941D02*
X300486Y289826D01*
X299494Y289163D01*
X299494Y289163D01*
X268837Y258506D01*
X268174Y257514D01*
X267941Y256343D01*
X267941Y256343D01*
Y132535D01*
X267933Y132484D01*
X267917Y132419D01*
X267901Y132370D01*
X267886Y132334D01*
X267872Y132307D01*
X267858Y132285D01*
X267841Y132265D01*
X267761Y132178D01*
X267673Y132037D01*
X267185Y131549D01*
X266500Y129895D01*
Y129876D01*
X264500Y129048D01*
X254059Y139489D01*
Y154466D01*
X254067Y154516D01*
X254083Y154581D01*
X254099Y154630D01*
X254114Y154666D01*
X254128Y154693D01*
X254142Y154715D01*
X254158Y154735D01*
X254239Y154822D01*
X254327Y154963D01*
X254815Y155451D01*
X255500Y157105D01*
Y158895D01*
X254815Y160549D01*
X253549Y161815D01*
X251895Y162500D01*
X250105D01*
X248451Y161815D01*
X247185Y160549D01*
X246500Y158895D01*
Y157105D01*
X247185Y155451D01*
X247673Y154963D01*
X247761Y154822D01*
X247841Y154735D01*
X247857Y154715D01*
X247872Y154693D01*
X247886Y154666D01*
X247901Y154630D01*
X247917Y154581D01*
X247933Y154517D01*
X247941Y154465D01*
Y138222D01*
X247941Y138222D01*
X248174Y137051D01*
X248837Y136059D01*
X252548Y132348D01*
X252212Y131397D01*
X251568Y130500D01*
X250105D01*
X248451Y129815D01*
X247185Y128549D01*
X246500Y126895D01*
Y125105D01*
X247185Y123451D01*
X247673Y122963D01*
X247761Y122822D01*
X247841Y122735D01*
X247857Y122715D01*
X247872Y122693D01*
X247886Y122666D01*
X247901Y122630D01*
X247917Y122581D01*
X247933Y122517D01*
X247941Y122465D01*
Y109000D01*
X247941Y109000D01*
X248174Y107830D01*
X248837Y106837D01*
X260337Y95337D01*
X260359Y95323D01*
X260435Y94549D01*
X259750Y92895D01*
Y91105D01*
X260435Y89451D01*
X261139Y88747D01*
X261502Y87500D01*
X261139Y86253D01*
X260435Y85549D01*
X259750Y83895D01*
Y82105D01*
X260435Y80451D01*
X261701Y79185D01*
X261907Y79100D01*
X263107Y77643D01*
X262839Y76714D01*
X262500Y75895D01*
Y74105D01*
X263185Y72451D01*
X263512Y72124D01*
X263451Y71815D01*
X262185Y70549D01*
X261500Y68895D01*
Y67105D01*
X262185Y65451D01*
X263451Y64185D01*
X265105Y63500D01*
X266895D01*
X268549Y64185D01*
X269037Y64673D01*
X269178Y64761D01*
X269265Y64841D01*
X269285Y64858D01*
X269307Y64872D01*
X269334Y64886D01*
X269370Y64901D01*
X269419Y64917D01*
X269483Y64933D01*
X269535Y64941D01*
X279266D01*
X279719Y64461D01*
X280573Y62941D01*
X280441Y62278D01*
X280441Y62278D01*
Y57767D01*
X270877Y48203D01*
X269181Y49335D01*
X269500Y50105D01*
Y51895D01*
X268815Y53549D01*
X267549Y54815D01*
X265895Y55500D01*
X264105D01*
X262451Y54815D01*
X261185Y53549D01*
X260500Y51895D01*
Y50105D01*
X261185Y48451D01*
X262451Y47185D01*
X262756Y47059D01*
X262358Y45059D01*
X247251D01*
X246423Y47059D01*
X246815Y47451D01*
X247500Y49105D01*
Y50895D01*
X246815Y52549D01*
X246111Y53253D01*
X245748Y54500D01*
X246111Y55747D01*
X246815Y56451D01*
X247500Y58105D01*
Y59895D01*
X246815Y61549D01*
X245549Y62815D01*
X243895Y63500D01*
X243764D01*
X243750Y63505D01*
X243674Y63541D01*
X243592Y63586D01*
X243503Y63641D01*
X243430Y63693D01*
X243318Y63786D01*
X220059Y87045D01*
Y213733D01*
X298267Y291941D01*
X300869D01*
X301066Y289941D01*
D02*
G37*
G36*
X252607Y124062D02*
X252480Y123899D01*
X252367Y123725D01*
X252270Y123541D01*
X252188Y123346D01*
X252120Y123140D01*
X252068Y122923D01*
X252030Y122696D01*
X252008Y122458D01*
X252000Y122209D01*
X250000D01*
X249993Y122458D01*
X249970Y122696D01*
X249932Y122923D01*
X249880Y123140D01*
X249813Y123346D01*
X249730Y123541D01*
X249632Y123725D01*
X249520Y123899D01*
X249393Y124062D01*
X249250Y124215D01*
X252750D01*
X252607Y124062D01*
D02*
G37*
G36*
X436007Y123542D02*
X436030Y123304D01*
X436068Y123077D01*
X436120Y122860D01*
X436188Y122654D01*
X436270Y122459D01*
X436367Y122275D01*
X436480Y122101D01*
X436608Y121938D01*
X436750Y121785D01*
X433250D01*
X433392Y121938D01*
X433520Y122101D01*
X433633Y122275D01*
X433730Y122459D01*
X433812Y122654D01*
X433880Y122860D01*
X433932Y123077D01*
X433970Y123304D01*
X433993Y123542D01*
X434000Y123791D01*
X436000D01*
X436007Y123542D01*
D02*
G37*
G36*
X434975Y117500D02*
X434767Y117493D01*
X434561Y117468D01*
X434358Y117425D01*
X434159Y117363D01*
X433963Y117283D01*
X433769Y117185D01*
X433579Y117069D01*
X433392Y116935D01*
X433208Y116783D01*
X433026Y116612D01*
X431612Y118026D01*
X431783Y118208D01*
X431935Y118392D01*
X432069Y118579D01*
X432186Y118769D01*
X432283Y118963D01*
X432363Y119159D01*
X432425Y119359D01*
X432468Y119561D01*
X432493Y119767D01*
X432500Y119975D01*
X434975Y117500D01*
D02*
G37*
G36*
X438504Y112590D02*
X438334Y112410D01*
X438178Y112228D01*
X438038Y112044D01*
X437913Y111856D01*
X437803Y111666D01*
X437708Y111472D01*
X437628Y111276D01*
X437563Y111077D01*
X437513Y110876D01*
X437478Y110671D01*
X435378Y113471D01*
X435582Y113451D01*
X435783Y113451D01*
X435982Y113473D01*
X436178Y113517D01*
X436373Y113581D01*
X436565Y113668D01*
X436755Y113775D01*
X436942Y113904D01*
X437128Y114054D01*
X437311Y114225D01*
X438504Y112590D01*
D02*
G37*
G36*
X283215Y112250D02*
X283062Y112393D01*
X282899Y112520D01*
X282725Y112633D01*
X282541Y112730D01*
X282346Y112812D01*
X282140Y112880D01*
X281923Y112933D01*
X281696Y112970D01*
X281458Y112992D01*
X281209Y113000D01*
Y115000D01*
X281458Y115007D01*
X281696Y115030D01*
X281923Y115068D01*
X282140Y115120D01*
X282346Y115188D01*
X282541Y115270D01*
X282725Y115367D01*
X282899Y115480D01*
X283062Y115608D01*
X283215Y115750D01*
Y112250D01*
D02*
G37*
G36*
X433215Y109250D02*
X433062Y109392D01*
X432899Y109520D01*
X432725Y109633D01*
X432541Y109730D01*
X432346Y109812D01*
X432140Y109880D01*
X431923Y109932D01*
X431696Y109970D01*
X431457Y109993D01*
X431209Y110000D01*
Y112000D01*
X431457Y112008D01*
X431696Y112030D01*
X431923Y112067D01*
X432140Y112120D01*
X432346Y112188D01*
X432541Y112270D01*
X432725Y112367D01*
X432899Y112480D01*
X433062Y112607D01*
X433215Y112750D01*
Y109250D01*
D02*
G37*
G36*
X385975Y82500D02*
X385766Y82493D01*
X385561Y82468D01*
X385359Y82425D01*
X385159Y82363D01*
X384963Y82283D01*
X384769Y82185D01*
X384579Y82069D01*
X384392Y81935D01*
X384207Y81783D01*
X384026Y81612D01*
X382612Y83026D01*
X382783Y83208D01*
X382935Y83392D01*
X383069Y83579D01*
X383186Y83769D01*
X383283Y83963D01*
X383363Y84159D01*
X383425Y84359D01*
X383468Y84561D01*
X383493Y84767D01*
X383500Y84975D01*
X385975Y82500D01*
D02*
G37*
G36*
X211507Y76767D02*
X211532Y76561D01*
X211575Y76358D01*
X211637Y76159D01*
X211717Y75963D01*
X211814Y75769D01*
X211931Y75579D01*
X212065Y75392D01*
X212217Y75208D01*
X212388Y75026D01*
X210974Y73612D01*
X210793Y73783D01*
X210608Y73935D01*
X210421Y74069D01*
X210231Y74186D01*
X210037Y74283D01*
X209841Y74363D01*
X209641Y74425D01*
X209439Y74468D01*
X209233Y74493D01*
X209025Y74500D01*
X211500Y76975D01*
X211507Y76767D01*
D02*
G37*
G36*
X268938Y76607D02*
X269101Y76480D01*
X269275Y76368D01*
X269459Y76270D01*
X269654Y76188D01*
X269860Y76120D01*
X270077Y76068D01*
X270304Y76030D01*
X270543Y76007D01*
X270791Y76000D01*
Y74000D01*
X270543Y73993D01*
X270304Y73970D01*
X270077Y73932D01*
X269860Y73880D01*
X269654Y73812D01*
X269459Y73730D01*
X269275Y73632D01*
X269101Y73520D01*
X268938Y73393D01*
X268785Y73250D01*
Y76750D01*
X268938Y76607D01*
D02*
G37*
G36*
X308510Y74898D02*
X308540Y74807D01*
X308592Y74703D01*
X308664Y74585D01*
X308757Y74453D01*
X309006Y74147D01*
X309338Y73787D01*
X309536Y73586D01*
X307414Y71465D01*
X307213Y71662D01*
X306547Y72243D01*
X306415Y72336D01*
X306297Y72408D01*
X306193Y72460D01*
X306102Y72490D01*
X306025Y72500D01*
X308500Y74975D01*
X308510Y74898D01*
D02*
G37*
G36*
X423388Y69974D02*
X423217Y69792D01*
X423065Y69608D01*
X422931Y69421D01*
X422814Y69231D01*
X422717Y69037D01*
X422637Y68841D01*
X422575Y68641D01*
X422532Y68439D01*
X422507Y68233D01*
X422500Y68025D01*
X420025Y70500D01*
X420233Y70507D01*
X420439Y70532D01*
X420641Y70575D01*
X420841Y70637D01*
X421037Y70717D01*
X421231Y70814D01*
X421421Y70931D01*
X421608Y71065D01*
X421792Y71217D01*
X421974Y71388D01*
X423388Y69974D01*
D02*
G37*
G36*
X267938Y69608D02*
X268101Y69480D01*
X268275Y69367D01*
X268459Y69270D01*
X268654Y69187D01*
X268860Y69120D01*
X269077Y69068D01*
X269304Y69030D01*
X269543Y69008D01*
X269791Y69000D01*
Y67000D01*
X269543Y66993D01*
X269304Y66970D01*
X269077Y66933D01*
X268860Y66880D01*
X268654Y66813D01*
X268459Y66730D01*
X268275Y66632D01*
X268101Y66520D01*
X267938Y66392D01*
X267785Y66250D01*
Y69750D01*
X267938Y69608D01*
D02*
G37*
G36*
X241827Y62373D02*
X242190Y62072D01*
X242374Y61942D01*
X242561Y61826D01*
X242750Y61722D01*
X242941Y61633D01*
X243134Y61556D01*
X243329Y61494D01*
X243526Y61444D01*
X240567Y59575D01*
X240602Y59772D01*
X240614Y59967D01*
X240603Y60162D01*
X240569Y60354D01*
X240513Y60546D01*
X240433Y60736D01*
X240330Y60924D01*
X240204Y61111D01*
X240054Y61297D01*
X239882Y61482D01*
X241649Y62544D01*
X241827Y62373D01*
D02*
G37*
G36*
X339933Y43218D02*
X340384Y42858D01*
X340852Y42540D01*
X341338Y42264D01*
X341841Y42030D01*
X342362Y41839D01*
X342900Y41691D01*
X343456Y41585D01*
X344030Y41521D01*
X344621Y41500D01*
X345500Y38500D01*
X344930Y38470D01*
X344420Y38380D01*
X343970Y38230D01*
X343580Y38020D01*
X343250Y37750D01*
X342980Y37420D01*
X342770Y37030D01*
X342620Y36580D01*
X342530Y36070D01*
X342500Y35500D01*
X339500Y36379D01*
X339479Y36970D01*
X339415Y37544D01*
X339309Y38100D01*
X339161Y38638D01*
X338970Y39159D01*
X338736Y39662D01*
X338461Y40148D01*
X338142Y40616D01*
X337782Y41067D01*
X337379Y41500D01*
X339500Y43621D01*
X339933Y43218D01*
D02*
G37*
G36*
X441007Y27543D02*
X441030Y27304D01*
X441068Y27077D01*
X441120Y26860D01*
X441188Y26654D01*
X441270Y26459D01*
X441367Y26275D01*
X441480Y26101D01*
X441608Y25938D01*
X441750Y25785D01*
X438250D01*
X438392Y25938D01*
X438520Y26101D01*
X438633Y26275D01*
X438730Y26459D01*
X438812Y26654D01*
X438880Y26860D01*
X438932Y27077D01*
X438970Y27304D01*
X438993Y27543D01*
X439000Y27791D01*
X441000D01*
X441007Y27543D01*
D02*
G37*
G36*
X373503Y22218D02*
X373563Y21337D01*
X373590Y21177D01*
X373623Y21043D01*
X373660Y20932D01*
X373703Y20847D01*
X373750Y20785D01*
X370250D01*
X370298Y20847D01*
X370340Y20932D01*
X370378Y21043D01*
X370410Y21177D01*
X370438Y21337D01*
X370477Y21728D01*
X370498Y22218D01*
X370500Y22500D01*
X373500D01*
X373503Y22218D01*
D02*
G37*
G36*
X344787Y22338D02*
X345453Y21757D01*
X345585Y21664D01*
X345703Y21592D01*
X345807Y21540D01*
X345898Y21510D01*
X345975Y21500D01*
X343500Y19025D01*
X343490Y19102D01*
X343460Y19193D01*
X343408Y19297D01*
X343336Y19415D01*
X343243Y19547D01*
X342994Y19853D01*
X342662Y20213D01*
X342464Y20414D01*
X344586Y22536D01*
X344787Y22338D01*
D02*
G37*
%LPC*%
G36*
X236895Y184500D02*
X235105D01*
X233451Y183815D01*
X232185Y182549D01*
X231500Y180895D01*
Y179105D01*
X232185Y177451D01*
X233451Y176185D01*
X235105Y175500D01*
X236895D01*
X238549Y176185D01*
X239815Y177451D01*
X240500Y179105D01*
Y180895D01*
X239815Y182549D01*
X238549Y183815D01*
X236895Y184500D01*
D02*
G37*
G36*
X261895Y146500D02*
X260105D01*
X258451Y145815D01*
X257185Y144549D01*
X256500Y142895D01*
Y141105D01*
X257185Y139451D01*
X258451Y138185D01*
X260105Y137500D01*
X261895D01*
X263549Y138185D01*
X264815Y139451D01*
X265500Y141105D01*
Y142895D01*
X264815Y144549D01*
X263549Y145815D01*
X261895Y146500D01*
D02*
G37*
G36*
X256895Y64500D02*
X255105D01*
X253451Y63815D01*
X252185Y62549D01*
X251500Y60895D01*
Y59105D01*
X252185Y57451D01*
X253451Y56185D01*
X255105Y55500D01*
X256895D01*
X258549Y56185D01*
X259815Y57451D01*
X260500Y59105D01*
Y60895D01*
X259815Y62549D01*
X258549Y63815D01*
X256895Y64500D01*
D02*
G37*
%LPD*%
G36*
X128215Y364250D02*
X128062Y364393D01*
X127899Y364520D01*
X127725Y364632D01*
X127541Y364730D01*
X127346Y364813D01*
X127140Y364880D01*
X126923Y364933D01*
X126696Y364970D01*
X126458Y364992D01*
X126209Y365000D01*
Y367000D01*
X126458Y367007D01*
X126696Y367030D01*
X126923Y367067D01*
X127140Y367120D01*
X127346Y367188D01*
X127541Y367270D01*
X127725Y367368D01*
X127899Y367480D01*
X128062Y367607D01*
X128215Y367750D01*
Y364250D01*
D02*
G37*
G36*
X61938Y367607D02*
X62101Y367480D01*
X62275Y367368D01*
X62459Y367270D01*
X62654Y367188D01*
X62860Y367120D01*
X63077Y367067D01*
X63304Y367030D01*
X63542Y367007D01*
X63791Y367000D01*
Y365000D01*
X63542Y364992D01*
X63304Y364970D01*
X63077Y364933D01*
X62860Y364880D01*
X62654Y364813D01*
X62459Y364730D01*
X62275Y364632D01*
X62101Y364520D01*
X61938Y364393D01*
X61785Y364250D01*
Y367750D01*
X61938Y367607D01*
D02*
G37*
G36*
X126215Y252250D02*
X126062Y252393D01*
X125899Y252520D01*
X125725Y252633D01*
X125541Y252730D01*
X125346Y252812D01*
X125140Y252880D01*
X124923Y252932D01*
X124696Y252970D01*
X124458Y252992D01*
X124209Y253000D01*
Y255000D01*
X124458Y255007D01*
X124696Y255030D01*
X124923Y255068D01*
X125140Y255120D01*
X125346Y255187D01*
X125541Y255270D01*
X125725Y255368D01*
X125899Y255480D01*
X126062Y255607D01*
X126215Y255750D01*
Y252250D01*
D02*
G37*
G36*
X61938Y255607D02*
X62101Y255480D01*
X62275Y255368D01*
X62459Y255270D01*
X62654Y255187D01*
X62860Y255120D01*
X63077Y255068D01*
X63304Y255030D01*
X63542Y255007D01*
X63791Y255000D01*
Y253000D01*
X63542Y252992D01*
X63304Y252970D01*
X63077Y252932D01*
X62860Y252880D01*
X62654Y252812D01*
X62459Y252730D01*
X62275Y252633D01*
X62101Y252520D01*
X61938Y252393D01*
X61785Y252250D01*
Y255750D01*
X61938Y255607D01*
D02*
G37*
G36*
X204215Y162250D02*
X204062Y162393D01*
X203899Y162520D01*
X203725Y162633D01*
X203541Y162730D01*
X203346Y162812D01*
X203140Y162880D01*
X202923Y162932D01*
X202696Y162970D01*
X202458Y162992D01*
X202209Y163000D01*
Y165000D01*
X202458Y165007D01*
X202696Y165030D01*
X202923Y165068D01*
X203140Y165120D01*
X203346Y165187D01*
X203541Y165270D01*
X203725Y165368D01*
X203899Y165480D01*
X204062Y165607D01*
X204215Y165750D01*
Y162250D01*
D02*
G37*
G36*
X131160Y117417D02*
X130989Y117234D01*
X130839Y117048D01*
X130712Y116861D01*
X130607Y116671D01*
X130525Y116480D01*
X130465Y116288D01*
X130428Y116093D01*
X130413Y115897D01*
X130420Y115699D01*
X130450Y115499D01*
X127550Y117459D01*
X127750Y117503D01*
X127948Y117561D01*
X128144Y117633D01*
X128337Y117719D01*
X128528Y117819D01*
X128716Y117934D01*
X128902Y118062D01*
X129086Y118204D01*
X129267Y118361D01*
X129445Y118531D01*
X131160Y117417D01*
D02*
G37*
D72*
X50000Y630000D02*
D03*
X10000D02*
D03*
X30000Y650000D02*
D03*
X31000Y608000D02*
D03*
X45000Y615000D02*
D03*
X15000D02*
D03*
Y645000D02*
D03*
X45000D02*
D03*
X650000Y30000D02*
D03*
X610000D02*
D03*
X630000Y50000D02*
D03*
X631000Y8000D02*
D03*
X645000Y15000D02*
D03*
X615000D02*
D03*
Y45000D02*
D03*
X645000D02*
D03*
X50000Y30000D02*
D03*
X10000D02*
D03*
X30000Y50000D02*
D03*
X31000Y8000D02*
D03*
X45000Y15000D02*
D03*
X15000D02*
D03*
Y45000D02*
D03*
X45000D02*
D03*
X650000Y630000D02*
D03*
X610000D02*
D03*
X630000Y650000D02*
D03*
X631000Y608000D02*
D03*
X645000Y615000D02*
D03*
X615000D02*
D03*
Y645000D02*
D03*
X645000D02*
D03*
D162*
X372000Y19000D02*
Y34000D01*
X366000Y40000D02*
X372000Y34000D01*
X341000Y24000D02*
X346000Y19000D01*
X341000Y24000D02*
Y40000D01*
X366000D01*
X327000Y54000D02*
X341000Y40000D01*
X327000Y54000D02*
X327000D01*
X306000Y75000D02*
X327000Y54000D01*
D163*
X262500Y97500D02*
X272000D01*
X272000Y97500D01*
X321222Y371000D02*
X329722Y379500D01*
X169000Y371000D02*
X321222D01*
X377765Y426000D02*
X381765Y422000D01*
X347000Y426000D02*
X377765D01*
X300500Y432631D02*
Y476500D01*
X303000Y479000D01*
Y577000D01*
X300500Y432631D02*
X311565Y421565D01*
X270000Y610000D02*
X303000Y577000D01*
X450000Y98000D02*
Y276778D01*
X345278Y381500D02*
X450000Y276778D01*
X335500Y381500D02*
X345278D01*
X288000Y429000D02*
X335500Y381500D01*
X288000Y429000D02*
Y459000D01*
X209000Y77000D02*
X213402Y72597D01*
X214403D01*
X217000Y70000D01*
X267000Y75000D02*
X282000D01*
X323000Y116000D01*
X266000Y68000D02*
X282000D01*
X325000Y111000D01*
X344500Y420500D02*
X350500D01*
X351000Y420000D01*
X341000Y424000D02*
X344500Y420500D01*
X335000Y575500D02*
X369500Y610000D01*
X370000D01*
X60000Y254000D02*
X128000D01*
X282000Y465000D02*
X288000Y459000D01*
X60000Y366000D02*
X130000D01*
X435500Y111000D02*
X442000Y117500D01*
X325000Y111000D02*
X435500D01*
X128000Y115000D02*
Y115671D01*
X176329Y164000D01*
X251000Y109000D02*
X262500Y97500D01*
X217000Y85778D02*
Y215000D01*
X243000Y59000D02*
Y59778D01*
X217000Y85778D02*
X243000Y59778D01*
X221000Y42000D02*
X269000D01*
X283500Y56500D01*
Y62278D01*
X303222Y82000D02*
X383000D01*
X283500Y62278D02*
X303222Y82000D01*
X217000Y46000D02*
Y70000D01*
X383000Y82000D02*
X386000Y85000D01*
X217000Y46000D02*
X221000Y42000D01*
X290000Y610000D02*
X325000Y575000D01*
Y429000D02*
Y575000D01*
X331000Y443000D02*
Y485000D01*
X352611Y384389D02*
X353000Y384000D01*
X349611Y384389D02*
X352611D01*
X321000Y413000D02*
X349611Y384389D01*
X348414Y403586D02*
X362000Y390000D01*
Y371435D02*
Y390000D01*
X335000Y408000D02*
X351000Y392000D01*
X362000Y371435D02*
X454000Y279435D01*
X454000Y97000D02*
Y279000D01*
X454000Y279000D02*
X454000Y279000D01*
X454000Y279000D02*
Y279435D01*
X440000Y82343D02*
X454000Y96343D01*
X440000Y24000D02*
Y82343D01*
X454000Y97000D02*
X454000Y97000D01*
X454000Y96343D02*
Y97000D01*
X420000Y68000D02*
X450000Y98000D01*
X348414Y403586D02*
X348414D01*
X341000Y411000D02*
X345586Y406414D01*
X321000Y413000D02*
Y425000D01*
X335000Y408000D02*
Y439000D01*
X176329Y164000D02*
X206000D01*
X442000Y117500D02*
Y142000D01*
X327000Y257000D02*
X442000Y142000D01*
X313000Y257000D02*
X327000D01*
X271000Y129000D02*
Y256343D01*
X275222Y114000D02*
X285000D01*
X251000Y138222D02*
X275222Y114000D01*
X251000Y109000D02*
Y126000D01*
Y138222D02*
Y158000D01*
X217000Y215000D02*
X297000Y295000D01*
X431000Y116000D02*
X435000Y120000D01*
X323000Y116000D02*
X431000D01*
X271000Y256343D02*
X301657Y287000D01*
X341000Y424000D02*
Y436000D01*
X355000Y450000D02*
Y575000D01*
X341000Y436000D02*
X355000Y450000D01*
Y575000D02*
X390000Y610000D01*
X331000Y443000D02*
X335000Y439000D01*
X331000Y485000D02*
X335000Y489000D01*
Y575500D01*
X321000Y425000D02*
X325000Y429000D01*
X381765Y422000D02*
X419000D01*
X327000Y247000D02*
X435000Y139000D01*
Y120000D02*
Y139000D01*
X371999Y287000D02*
X389999Y305000D01*
X301657Y287000D02*
X371999D01*
X349999Y295000D02*
X359999Y305000D01*
X297000Y295000D02*
X349999D01*
X426000Y429000D02*
X447000D01*
X419000Y422000D02*
X426000Y429000D01*
X105000Y435000D02*
X169000Y371000D01*
X112000Y449000D02*
X184000Y377000D01*
X314000D01*
X69000Y449000D02*
X112000D01*
X55000Y435000D02*
X69000Y449000D01*
D173*
X542000Y74200D02*
D03*
Y175800D02*
D03*
X643600Y74200D02*
D03*
Y175800D02*
D03*
X542000Y264700D02*
D03*
Y366300D02*
D03*
X643600Y264700D02*
D03*
Y366300D02*
D03*
D174*
X580000Y125000D02*
D03*
Y315500D02*
D03*
X615000Y475000D02*
D03*
Y425000D02*
D03*
Y575000D02*
D03*
Y525000D02*
D03*
D175*
X30000Y630000D02*
D03*
X630000Y30000D02*
D03*
X30000D02*
D03*
X630000Y630000D02*
D03*
D176*
X580000Y205000D02*
D03*
Y237500D02*
D03*
D177*
X68250Y183250D02*
D03*
Y96750D02*
D03*
D178*
X62250Y100250D02*
D03*
D179*
X17750Y183200D02*
D03*
Y96800D02*
D03*
D180*
X62250Y179750D02*
D03*
D181*
X20000Y510000D02*
D03*
X140000D02*
D03*
D182*
X80000Y435000D02*
D03*
X105000Y580000D02*
D03*
X55000Y435000D02*
D03*
X105000D02*
D03*
D183*
X158100Y635000D02*
D03*
X578100D02*
D03*
D184*
X81900D02*
D03*
X107300D02*
D03*
X132700D02*
D03*
X501900D02*
D03*
X552700D02*
D03*
X527300D02*
D03*
D185*
X440000Y625250D02*
D03*
X220000D02*
D03*
D186*
X440000Y652750D02*
D03*
X220000D02*
D03*
D187*
X55000Y580000D02*
D03*
D188*
X67170Y112399D02*
D03*
X272000Y97500D02*
D03*
X329722Y379500D02*
D03*
X311565Y421565D02*
D03*
X270000Y610000D02*
D03*
X328000Y585000D02*
D03*
Y422000D02*
D03*
X259000Y514000D02*
D03*
X465000Y69000D02*
D03*
X580000Y145000D02*
D03*
X600000D02*
D03*
Y125000D02*
D03*
Y105000D02*
D03*
X580000D02*
D03*
X560000Y125000D02*
D03*
Y145000D02*
D03*
Y105000D02*
D03*
X540000Y125000D02*
D03*
Y145000D02*
D03*
X455000Y60000D02*
D03*
X475000D02*
D03*
X490000D02*
D03*
X505000D02*
D03*
X540000Y105000D02*
D03*
X483000Y69000D02*
D03*
X498000D02*
D03*
X312000Y42000D02*
D03*
X311000Y16000D02*
D03*
X310000Y59000D02*
D03*
X414000Y339000D02*
D03*
X420000Y352000D02*
D03*
X522000Y292000D02*
D03*
X46000Y154000D02*
D03*
X38000Y131000D02*
D03*
X44000Y121000D02*
D03*
X32000D02*
D03*
X98000Y90000D02*
D03*
X117000Y80000D02*
D03*
X104000D02*
D03*
Y69000D02*
D03*
X117000D02*
D03*
Y58000D02*
D03*
X104000D02*
D03*
X148000Y43000D02*
D03*
X128000D02*
D03*
X184000Y278000D02*
D03*
Y271000D02*
D03*
X67149Y152428D02*
D03*
X528000Y243000D02*
D03*
X278000Y428000D02*
D03*
X385000Y416000D02*
D03*
X384000Y429000D02*
D03*
X396000Y416000D02*
D03*
X510000Y242000D02*
D03*
X139000Y109000D02*
D03*
X291000Y135000D02*
D03*
X146000Y160000D02*
D03*
X95683Y146900D02*
D03*
X224000Y122000D02*
D03*
X340000Y337000D02*
D03*
X318000Y465000D02*
D03*
X306000D02*
D03*
X294000D02*
D03*
X264250Y92000D02*
D03*
X313000Y444000D02*
D03*
X209000Y77000D02*
D03*
X264250Y83000D02*
D03*
X267000Y75000D02*
D03*
X266000Y68000D02*
D03*
X347000Y426000D02*
D03*
X351000Y420000D02*
D03*
X353000Y413000D02*
D03*
X355000Y406000D02*
D03*
X370000Y610000D02*
D03*
X350000Y280000D02*
D03*
X128000Y254000D02*
D03*
X643000Y220000D02*
D03*
X150000Y152000D02*
D03*
X329000Y173000D02*
D03*
X315000Y523000D02*
D03*
X314000Y506000D02*
D03*
X193000Y340000D02*
D03*
X282000Y465000D02*
D03*
X275000Y412000D02*
D03*
X130000Y366000D02*
D03*
X188000Y146000D02*
D03*
X432000Y352000D02*
D03*
X340000Y353000D02*
D03*
X125000Y165000D02*
D03*
X435000Y111000D02*
D03*
X112000Y164000D02*
D03*
X188000Y103000D02*
D03*
X318000Y455000D02*
D03*
X306000D02*
D03*
X294000D02*
D03*
X275000Y400000D02*
D03*
X125000Y177000D02*
D03*
X87000Y146000D02*
D03*
X351000Y619000D02*
D03*
X128000Y115000D02*
D03*
X279000Y447000D02*
D03*
X285000Y158000D02*
D03*
X36000Y219000D02*
D03*
X194000Y113000D02*
D03*
X372000Y19000D02*
D03*
X359000D02*
D03*
X333000D02*
D03*
X346000D02*
D03*
X106000Y124000D02*
D03*
X102000Y132000D02*
D03*
X300000Y352000D02*
D03*
X477000Y288000D02*
D03*
X462000Y333000D02*
D03*
X246000Y88000D02*
D03*
X522000Y518000D02*
D03*
X237000Y88000D02*
D03*
X508000Y8000D02*
D03*
X455000D02*
D03*
X475000D02*
D03*
X487000D02*
D03*
X67000Y168000D02*
D03*
X243000Y59000D02*
D03*
X162000Y94000D02*
D03*
X236000Y59000D02*
D03*
X307000Y389000D02*
D03*
X308055Y395920D02*
D03*
X123000Y603000D02*
D03*
X229000Y61500D02*
D03*
X563000Y505000D02*
D03*
X237000Y429000D02*
D03*
X552000Y537000D02*
D03*
X228000Y87000D02*
D03*
X289000Y60000D02*
D03*
X277000Y61000D02*
D03*
X91000Y176000D02*
D03*
X494000Y244000D02*
D03*
X518000Y255000D02*
D03*
X525000Y227000D02*
D03*
X386000Y85000D02*
D03*
X10000Y65000D02*
D03*
X50000Y75000D02*
D03*
X10000Y82500D02*
D03*
X70000Y20000D02*
D03*
X115000D02*
D03*
X128000Y16000D02*
D03*
X184000Y7000D02*
D03*
X200000D02*
D03*
X500000Y570000D02*
D03*
X507000Y589000D02*
D03*
X540000Y611000D02*
D03*
X338000Y453500D02*
D03*
X296000Y99000D02*
D03*
X370000Y640000D02*
D03*
X290000D02*
D03*
X270000Y640000D02*
D03*
X45000Y166000D02*
D03*
X33000D02*
D03*
X285500Y98500D02*
D03*
X83000Y126250D02*
D03*
X350000Y105000D02*
D03*
X82000Y106000D02*
D03*
X50984Y146250D02*
D03*
X66792Y128013D02*
D03*
X51000Y135000D02*
D03*
X249000Y7000D02*
D03*
X217000D02*
D03*
X600000Y315000D02*
D03*
X401000Y15000D02*
D03*
X353000Y384000D02*
D03*
X351000Y392000D02*
D03*
X440000Y24000D02*
D03*
X375000Y383000D02*
D03*
X87000Y164000D02*
D03*
X155000Y120000D02*
D03*
X177000Y98000D02*
D03*
X261000Y151000D02*
D03*
X323000Y152000D02*
D03*
X354000Y171000D02*
D03*
X379000Y538000D02*
D03*
X365000D02*
D03*
X351000Y650000D02*
D03*
X323000D02*
D03*
X50000Y65000D02*
D03*
Y55000D02*
D03*
Y85000D02*
D03*
X100000Y20000D02*
D03*
X168000Y7000D02*
D03*
X60000Y55000D02*
D03*
X72500Y40000D02*
D03*
X66000Y71000D02*
D03*
X85000Y20000D02*
D03*
X80000Y59000D02*
D03*
X38000Y103000D02*
D03*
X78000Y85000D02*
D03*
X113000Y112000D02*
D03*
X233000Y7000D02*
D03*
X265000D02*
D03*
X237000Y78000D02*
D03*
Y96000D02*
D03*
X15000Y130000D02*
D03*
Y150000D02*
D03*
X74000Y172000D02*
D03*
X82000D02*
D03*
X102000Y176000D02*
D03*
X90000Y185000D02*
D03*
X112000Y186000D02*
D03*
X30000Y200000D02*
D03*
X40000Y190000D02*
D03*
X15000Y200000D02*
D03*
X53000Y191000D02*
D03*
X80000Y285000D02*
D03*
Y338000D02*
D03*
X123000Y220000D02*
D03*
X119000Y597000D02*
D03*
X120000Y610000D02*
D03*
X132000Y132000D02*
D03*
Y140000D02*
D03*
X138000Y229000D02*
D03*
X184000Y285000D02*
D03*
X236000Y140000D02*
D03*
X279000Y135000D02*
D03*
X217000Y341000D02*
D03*
X287000Y205000D02*
D03*
X200000Y359000D02*
D03*
X140000Y390000D02*
D03*
X200000Y394000D02*
D03*
X249000Y427000D02*
D03*
Y453000D02*
D03*
Y443000D02*
D03*
X252000Y413000D02*
D03*
X253000Y403000D02*
D03*
X263000Y488000D02*
D03*
X285000Y505000D02*
D03*
X292000Y538000D02*
D03*
Y524000D02*
D03*
X385000Y95000D02*
D03*
X375000Y104000D02*
D03*
X365000Y135000D02*
D03*
X331000Y138000D02*
D03*
X375000Y140000D02*
D03*
X461000Y97000D02*
D03*
X337000Y183000D02*
D03*
X338000Y174000D02*
D03*
X400000Y155000D02*
D03*
X337000Y194000D02*
D03*
X327000Y196000D02*
D03*
X332000Y232000D02*
D03*
X356000Y248000D02*
D03*
X442000Y157000D02*
D03*
X469000D02*
D03*
X492000Y158000D02*
D03*
X482000Y168000D02*
D03*
X462000Y288000D02*
D03*
X489000Y186000D02*
D03*
Y175000D02*
D03*
X560000Y60000D02*
D03*
X525000D02*
D03*
X540000D02*
D03*
X525000Y75000D02*
D03*
X530000Y90000D02*
D03*
X560000Y75000D02*
D03*
X545000Y90000D02*
D03*
X560000D02*
D03*
X625000Y75000D02*
D03*
Y65000D02*
D03*
Y155000D02*
D03*
Y90000D02*
D03*
X645000D02*
D03*
X635000D02*
D03*
X645000Y155000D02*
D03*
X500000Y165000D02*
D03*
X510000D02*
D03*
X521000Y187000D02*
D03*
X525000Y160000D02*
D03*
X550000D02*
D03*
X521000Y175000D02*
D03*
X550000Y190000D02*
D03*
X540000Y280000D02*
D03*
X560000Y175000D02*
D03*
X625000Y250000D02*
D03*
Y175000D02*
D03*
X645000Y250000D02*
D03*
Y195000D02*
D03*
X560000Y250000D02*
D03*
X600000Y265000D02*
D03*
X560000Y280000D02*
D03*
Y265000D02*
D03*
X625000D02*
D03*
Y280000D02*
D03*
X645000D02*
D03*
X395000Y364000D02*
D03*
X319000Y388000D02*
D03*
X430000Y401000D02*
D03*
X462000Y298000D02*
D03*
X470000Y293000D02*
D03*
X463000Y318000D02*
D03*
X470000Y325000D02*
D03*
X478000Y297000D02*
D03*
X477000Y333000D02*
D03*
X478000Y318000D02*
D03*
X451000Y386000D02*
D03*
X462000Y373000D02*
D03*
X451000Y404000D02*
D03*
X490000Y360000D02*
D03*
X477000Y373000D02*
D03*
X329000Y413000D02*
D03*
X341000Y411000D02*
D03*
X338000Y476000D02*
D03*
X430000Y415000D02*
D03*
X417000Y447000D02*
D03*
Y466000D02*
D03*
X445000Y475000D02*
D03*
X485000D02*
D03*
X490000Y348000D02*
D03*
X560000Y315000D02*
D03*
Y300000D02*
D03*
X540000Y315000D02*
D03*
X560000Y330000D02*
D03*
X540000Y350000D02*
D03*
X537000Y421000D02*
D03*
X560000Y365000D02*
D03*
Y350000D02*
D03*
X550000Y425000D02*
D03*
X580000Y295000D02*
D03*
Y335000D02*
D03*
X600000Y330000D02*
D03*
Y300000D02*
D03*
X645000Y315000D02*
D03*
X625000D02*
D03*
X600000Y350000D02*
D03*
X625000Y365000D02*
D03*
Y350000D02*
D03*
X645000D02*
D03*
X500000Y433000D02*
D03*
X535000Y490000D02*
D03*
X550000Y485000D02*
D03*
Y475000D02*
D03*
X535000Y505000D02*
D03*
X540000Y597000D02*
D03*
X550000Y445000D02*
D03*
Y435000D02*
D03*
Y465000D02*
D03*
Y455000D02*
D03*
X430000Y91000D02*
D03*
X179000Y264000D02*
D03*
X194000Y269000D02*
D03*
X287000Y226000D02*
D03*
X304000Y250000D02*
D03*
X157000Y188000D02*
D03*
X440000Y15000D02*
D03*
X484000Y213000D02*
D03*
X512000Y204000D02*
D03*
X440000Y267000D02*
D03*
X401000Y481000D02*
D03*
X406000Y429000D02*
D03*
X387000Y377000D02*
D03*
X390000Y560000D02*
D03*
X269000D02*
D03*
X297000Y492000D02*
D03*
X200000Y527000D02*
D03*
X214000Y403000D02*
D03*
X257000Y469000D02*
D03*
X26000Y282000D02*
D03*
Y310000D02*
D03*
X25000Y337000D02*
D03*
X80000Y399000D02*
D03*
X190000Y225000D02*
D03*
X201000Y247000D02*
D03*
X177000Y239000D02*
D03*
X156000Y227000D02*
D03*
Y245000D02*
D03*
X290000Y339000D02*
D03*
X525000Y570000D02*
D03*
Y580000D02*
D03*
X288000Y47000D02*
D03*
X335000Y97000D02*
D03*
Y90000D02*
D03*
X270000Y344000D02*
D03*
X233000Y50000D02*
D03*
X243000D02*
D03*
X223000D02*
D03*
X366500Y237000D02*
D03*
X362000Y280000D02*
D03*
X303000Y275000D02*
D03*
X335000D02*
D03*
X261000Y142000D02*
D03*
X236000Y180000D02*
D03*
X419000Y184000D02*
D03*
X385000Y126000D02*
D03*
X144000Y610000D02*
D03*
X126000Y99000D02*
D03*
X256000Y60000D02*
D03*
X295000Y159000D02*
D03*
X271000Y129000D02*
D03*
X285000Y114000D02*
D03*
X96000Y610000D02*
D03*
X251000Y158000D02*
D03*
Y126000D02*
D03*
X265000Y109000D02*
D03*
X319000Y52000D02*
D03*
X303000Y49000D02*
D03*
X306000Y75000D02*
D03*
X60000Y366000D02*
D03*
Y254000D02*
D03*
X390000Y610000D02*
D03*
X290000D02*
D03*
X390000Y640000D02*
D03*
X80000Y412000D02*
D03*
X327000Y247000D02*
D03*
X344000Y375000D02*
D03*
X188000Y158000D02*
D03*
X31000Y154000D02*
D03*
X440000Y605000D02*
D03*
X389999Y305000D02*
D03*
X542000Y604000D02*
D03*
X433000Y363000D02*
D03*
X432000Y340000D02*
D03*
X170000Y496000D02*
D03*
X210000Y50000D02*
D03*
X200000D02*
D03*
X190000D02*
D03*
X140000Y285000D02*
D03*
Y335000D02*
D03*
X435000Y120000D02*
D03*
X170000Y81000D02*
D03*
Y69000D02*
D03*
X138000Y165000D02*
D03*
X265000Y51000D02*
D03*
X313000Y257000D02*
D03*
X206000Y164000D02*
D03*
X359999Y305000D02*
D03*
X347000Y32000D02*
D03*
X363000D02*
D03*
X355000D02*
D03*
X420000Y68000D02*
D03*
X200001Y490000D02*
D03*
X220000Y454000D02*
D03*
X92000Y58000D02*
D03*
X447000Y429000D02*
D03*
X364000Y517000D02*
D03*
X341000Y505000D02*
D03*
X239000Y357000D02*
D03*
X314000Y377000D02*
D03*
X472000Y395000D02*
D03*
X522000Y281000D02*
D03*
X509000D02*
D03*
Y292000D02*
D03*
X522000Y303000D02*
D03*
X509000D02*
D03*
X92000Y80000D02*
D03*
Y69000D02*
D03*
X320000Y23000D02*
D03*
X322000Y37000D02*
D03*
X310000Y31000D02*
D03*
X300000Y23000D02*
D03*
X299000Y37000D02*
D03*
X38000Y150000D02*
D03*
X44000Y141000D02*
D03*
X31000D02*
D03*
X128000Y30000D02*
D03*
X138000Y38000D02*
D03*
Y23000D02*
D03*
X148000Y16000D02*
D03*
Y30000D02*
D03*
X334000Y32000D02*
D03*
D189*
X348414Y403586D02*
D03*
X345586Y406414D02*
D03*
D190*
X347001Y404999D02*
D03*
M02*
