G04*
G04 #@! TF.GenerationSoftware,Altium Limited,DefaultClient, ()*
G04*
G04 Layer_Color=0*
%FSLAX44Y44*%
%MOMM*%
G71*
G04*
G04 #@! TF.SameCoordinates,4AC8D3AE-847C-4DBA-A645-61C765A70751*
G04*
G04*
G04 #@! TF.FilePolarity,Positive*
G04*
G01*
G75*
%ADD213C,0.0254*%
G36*
X45100Y176000D02*
Y176627D01*
X45580Y177784D01*
X46466Y178670D01*
X47623Y179150D01*
X48250D01*
X48877D01*
X50034Y178670D01*
X50920Y177784D01*
X51400Y176627D01*
Y176000D01*
Y175373D01*
X50920Y174216D01*
X50034Y173330D01*
X48877Y172850D01*
X48250D01*
X47623D01*
X46466Y173330D01*
X45580Y174216D01*
X45100Y175373D01*
Y176000D01*
D01*
D02*
G37*
G36*
X48900Y108400D02*
X48373D01*
X47399Y107997D01*
X46653Y107251D01*
X46250Y106277D01*
Y105750D01*
X46250D01*
X46250Y102250D01*
Y101723D01*
X46653Y100749D01*
X47399Y100003D01*
X48373Y99600D01*
X48900D01*
X49427D01*
X50401Y100003D01*
X51146Y100749D01*
X51550Y101723D01*
Y102250D01*
X51550D01*
X51550Y105750D01*
X51550Y106277D01*
X51146Y107251D01*
X50401Y107997D01*
X49427Y108400D01*
X48900D01*
X48900D01*
D02*
G37*
D213*
X0Y30000D02*
G03*
X30000Y0I30000J0D01*
G01*
X630000D01*
D02*
G03*
X660000Y30000I0J30000D01*
G01*
X660000Y630000D01*
D02*
G03*
X630000Y660000I-30000J0D01*
G01*
X30000Y660000D01*
D02*
G03*
X0Y630000I-0J-30000D01*
G01*
Y30000D01*
M02*
