G04*
G04 #@! TF.GenerationSoftware,Altium Limited,DefaultClient, ()*
G04*
G04 Layer_Physical_Order=6*
G04 Layer_Color=16711680*
%FSLAX44Y44*%
%MOMM*%
G71*
G04*
G04 #@! TF.SameCoordinates,4AC8D3AE-847C-4DBA-A645-61C765A70751*
G04*
G04*
G04 #@! TF.FilePolarity,Positive*
G04*
G01*
G75*
%ADD72C,0.8000*%
%ADD153C,0.7000*%
%ADD162C,0.3000*%
%ADD163C,0.2000*%
%ADD164C,0.2000*%
%ADD165C,0.1500*%
%ADD166C,0.5000*%
%ADD168C,0.4000*%
%ADD173C,2.0000*%
%ADD174C,3.0000*%
%ADD175C,5.4000*%
%ADD176C,1.8000*%
%ADD177O,2.5500X1.2500*%
%ADD178O,1.3500X1.9250*%
%ADD179O,2.6000X1.3000*%
%ADD180O,1.3500X1.6500*%
G04:AMPARAMS|DCode=181|XSize=3.2mm|YSize=4mm|CornerRadius=0.8mm|HoleSize=0mm|Usage=FLASHONLY|Rotation=0.000|XOffset=0mm|YOffset=0mm|HoleType=Round|Shape=RoundedRectangle|*
%AMROUNDEDRECTD181*
21,1,3.2000,2.4000,0,0,0.0*
21,1,1.6000,4.0000,0,0,0.0*
1,1,1.6000,0.8000,-1.2000*
1,1,1.6000,-0.8000,-1.2000*
1,1,1.6000,-0.8000,1.2000*
1,1,1.6000,0.8000,1.2000*
%
%ADD181ROUNDEDRECTD181*%
%ADD182C,1.5000*%
%ADD183O,1.5240X2.0000*%
%ADD184O,1.5000X2.0000*%
%ADD185C,0.3750*%
%ADD186C,0.7500*%
G04:AMPARAMS|DCode=187|XSize=1.5mm|YSize=1.5mm|CornerRadius=0.375mm|HoleSize=0mm|Usage=FLASHONLY|Rotation=0.000|XOffset=0mm|YOffset=0mm|HoleType=Round|Shape=RoundedRectangle|*
%AMROUNDEDRECTD187*
21,1,1.5000,0.7500,0,0,0.0*
21,1,0.7500,1.5000,0,0,0.0*
1,1,0.7500,0.3750,-0.3750*
1,1,0.7500,-0.3750,-0.3750*
1,1,0.7500,-0.3750,0.3750*
1,1,0.7500,0.3750,0.3750*
%
%ADD187ROUNDEDRECTD187*%
%ADD188C,0.5000*%
%ADD191O,3.0000X1.0000*%
%ADD192O,1.0000X3.0000*%
G04:AMPARAMS|DCode=193|XSize=0.4mm|YSize=0.4mm|CornerRadius=0.02mm|HoleSize=0mm|Usage=FLASHONLY|Rotation=0.000|XOffset=0mm|YOffset=0mm|HoleType=Round|Shape=RoundedRectangle|*
%AMROUNDEDRECTD193*
21,1,0.4000,0.3600,0,0,0.0*
21,1,0.3600,0.4000,0,0,0.0*
1,1,0.0400,0.1800,-0.1800*
1,1,0.0400,-0.1800,-0.1800*
1,1,0.0400,-0.1800,0.1800*
1,1,0.0400,0.1800,0.1800*
%
%ADD193ROUNDEDRECTD193*%
G04:AMPARAMS|DCode=194|XSize=0.4mm|YSize=0.4mm|CornerRadius=0.02mm|HoleSize=0mm|Usage=FLASHONLY|Rotation=270.000|XOffset=0mm|YOffset=0mm|HoleType=Round|Shape=RoundedRectangle|*
%AMROUNDEDRECTD194*
21,1,0.4000,0.3600,0,0,270.0*
21,1,0.3600,0.4000,0,0,270.0*
1,1,0.0400,-0.1800,-0.1800*
1,1,0.0400,-0.1800,0.1800*
1,1,0.0400,0.1800,0.1800*
1,1,0.0400,0.1800,-0.1800*
%
%ADD194ROUNDEDRECTD194*%
%ADD195R,1.0000X1.5000*%
%ADD196C,0.2750*%
%ADD197R,0.4000X0.4000*%
G36*
X635001Y656568D02*
X635074Y656532D01*
X638679Y655566D01*
X641941Y654215D01*
X645000Y652449D01*
X647802Y650299D01*
X650299Y647802D01*
X652449Y645000D01*
X654215Y641941D01*
X655566Y638679D01*
X656480Y635267D01*
X656941Y631766D01*
X656941Y630000D01*
X656941Y372192D01*
X654941Y371656D01*
X653603Y373975D01*
X651275Y376302D01*
X648425Y377948D01*
X645246Y378800D01*
X644850D01*
Y366300D01*
Y353800D01*
X645246D01*
X648425Y354652D01*
X651275Y356297D01*
X653603Y358625D01*
X654941Y360943D01*
X656941Y360408D01*
X656941Y270592D01*
X654941Y270056D01*
X653603Y272375D01*
X651275Y274702D01*
X648425Y276348D01*
X645246Y277200D01*
X644850D01*
Y264700D01*
Y252200D01*
X645246D01*
X648425Y253052D01*
X651275Y254697D01*
X653603Y257025D01*
X654941Y259344D01*
X656941Y258808D01*
X656941Y181692D01*
X654941Y181156D01*
X653603Y183475D01*
X651275Y185802D01*
X648425Y187448D01*
X645246Y188300D01*
X644850D01*
Y175800D01*
Y163300D01*
X645246D01*
X648425Y164152D01*
X651275Y165798D01*
X653603Y168125D01*
X654941Y170444D01*
X656941Y169908D01*
X656941Y80092D01*
X654941Y79556D01*
X653603Y81875D01*
X651275Y84202D01*
X648425Y85848D01*
X645246Y86700D01*
X644850D01*
Y74200D01*
Y61700D01*
X645246D01*
X648425Y62552D01*
X651275Y64198D01*
X653603Y66525D01*
X654941Y68844D01*
X656941Y68308D01*
X656941Y30000D01*
Y28234D01*
X656480Y24733D01*
X655566Y21321D01*
X654215Y18059D01*
X652449Y15000D01*
X650299Y12198D01*
X647802Y9701D01*
X645000Y7551D01*
X641941Y5785D01*
X638679Y4434D01*
X635267Y3520D01*
X631766Y3059D01*
X28265D01*
X28170Y3067D01*
X25346Y3439D01*
X22796Y4008D01*
X19478Y5221D01*
X16347Y6857D01*
X13455Y8888D01*
X10854Y11279D01*
X8588Y13989D01*
X6694Y16972D01*
X5206Y20176D01*
X4149Y23548D01*
X3541Y27028D01*
X3467Y28793D01*
Y89048D01*
X5467Y89893D01*
X6711Y88939D01*
X8900Y88032D01*
X11250Y87722D01*
X16500D01*
Y96800D01*
Y105878D01*
X11250D01*
X8900Y105568D01*
X6711Y104662D01*
X5467Y103707D01*
X3467Y104552D01*
Y175448D01*
X5467Y176293D01*
X6711Y175338D01*
X8900Y174432D01*
X11250Y174122D01*
X17980D01*
X18659Y172122D01*
X17651Y171349D01*
X16449Y169782D01*
X15693Y167958D01*
X15600Y167250D01*
X31750D01*
Y173565D01*
X29628D01*
X29209Y174452D01*
X29084Y175565D01*
X30669Y176781D01*
X32111Y178661D01*
X33018Y180851D01*
X33163Y181950D01*
X17750D01*
Y183200D01*
X16500D01*
Y192278D01*
X11250D01*
X8900Y191968D01*
X6711Y191061D01*
X5467Y190107D01*
X3467Y190952D01*
Y488791D01*
X5467Y489778D01*
X6705Y488828D01*
X9259Y487770D01*
X12000Y487409D01*
X18750D01*
Y510000D01*
Y532591D01*
X12000D01*
X9259Y532230D01*
X6705Y531172D01*
X5467Y530222D01*
X3467Y531209D01*
Y630125D01*
X3467Y631887D01*
X3929Y635380D01*
X4843Y638783D01*
X6196Y642037D01*
X7962Y645086D01*
X10113Y647877D01*
X12611Y650363D01*
X15412Y652500D01*
X18470Y654252D01*
X21730Y655589D01*
X25137Y656487D01*
X28547Y656920D01*
X30387Y656923D01*
X30394Y656923D01*
X30394Y656923D01*
X30394Y656923D01*
X213428Y656923D01*
X214676Y654923D01*
X214250Y653894D01*
Y651606D01*
X215125Y649493D01*
X216743Y647875D01*
X218856Y647000D01*
X221144D01*
X223257Y647875D01*
X224875Y649493D01*
X225750Y651606D01*
Y653894D01*
X225324Y654923D01*
X226572Y656923D01*
X433428Y656923D01*
X434676Y654923D01*
X434250Y653894D01*
Y651606D01*
X435125Y649493D01*
X436743Y647875D01*
X438856Y647000D01*
X441144D01*
X443257Y647875D01*
X444875Y649493D01*
X445750Y651606D01*
Y653894D01*
X445324Y654923D01*
X446572Y656923D01*
X630462Y656923D01*
X632230Y656927D01*
X635001Y656568D01*
D02*
G37*
%LPC*%
G36*
X159350Y647423D02*
Y636250D01*
X168307D01*
Y637380D01*
X167959Y640022D01*
X166940Y642484D01*
X165318Y644598D01*
X163204Y646220D01*
X160742Y647240D01*
X159350Y647423D01*
D02*
G37*
G36*
X579350D02*
Y636250D01*
X588307D01*
Y637380D01*
X587960Y640022D01*
X586940Y642484D01*
X585318Y644598D01*
X583204Y646220D01*
X580742Y647240D01*
X579350Y647423D01*
D02*
G37*
G36*
X576850D02*
X575458Y647240D01*
X572996Y646220D01*
X570882Y644598D01*
X569260Y642484D01*
X568241Y640022D01*
X567893Y637380D01*
Y636250D01*
X576850D01*
Y647423D01*
D02*
G37*
G36*
X156850D02*
X155458Y647240D01*
X152996Y646220D01*
X150882Y644598D01*
X149260Y642484D01*
X148240Y640022D01*
X147893Y637380D01*
Y636250D01*
X156850D01*
Y647423D01*
D02*
G37*
G36*
X331250Y647400D02*
Y631250D01*
X337565D01*
Y640000D01*
X337307Y641958D01*
X336551Y643782D01*
X335349Y645349D01*
X333782Y646551D01*
X331958Y647307D01*
X331250Y647400D01*
D02*
G37*
G36*
X328750Y647400D02*
X328042Y647307D01*
X326218Y646551D01*
X324651Y645349D01*
X323449Y643782D01*
X322693Y641958D01*
X322435Y640000D01*
Y631250D01*
X328750D01*
Y647400D01*
D02*
G37*
G36*
X552700Y647082D02*
X550220Y646756D01*
X547909Y645798D01*
X545925Y644276D01*
X544402Y642291D01*
X543445Y639980D01*
X543118Y637500D01*
Y632500D01*
X543445Y630020D01*
X544402Y627709D01*
X545925Y625724D01*
X547909Y624202D01*
X550220Y623245D01*
X552700Y622918D01*
X555180Y623245D01*
X557491Y624202D01*
X559476Y625724D01*
X560998Y627709D01*
X561955Y630020D01*
X562282Y632500D01*
Y637500D01*
X561955Y639980D01*
X560998Y642291D01*
X559476Y644276D01*
X557491Y645798D01*
X555180Y646756D01*
X552700Y647082D01*
D02*
G37*
G36*
X527300D02*
X524820Y646756D01*
X522509Y645798D01*
X520525Y644276D01*
X519002Y642291D01*
X518045Y639980D01*
X517718Y637500D01*
Y632500D01*
X518045Y630020D01*
X519002Y627709D01*
X520525Y625724D01*
X522509Y624202D01*
X524820Y623245D01*
X527300Y622918D01*
X529780Y623245D01*
X532091Y624202D01*
X534076Y625724D01*
X535598Y627709D01*
X536555Y630020D01*
X536882Y632500D01*
Y637500D01*
X536555Y639980D01*
X535598Y642291D01*
X534076Y644276D01*
X532091Y645798D01*
X529780Y646756D01*
X527300Y647082D01*
D02*
G37*
G36*
X501900D02*
X499420Y646756D01*
X497109Y645798D01*
X495125Y644276D01*
X493602Y642291D01*
X492645Y639980D01*
X492318Y637500D01*
Y632500D01*
X492645Y630020D01*
X493602Y627709D01*
X495125Y625724D01*
X497109Y624202D01*
X499420Y623245D01*
X501900Y622918D01*
X504380Y623245D01*
X506691Y624202D01*
X508675Y625724D01*
X510198Y627709D01*
X511156Y630020D01*
X511482Y632500D01*
Y637500D01*
X511156Y639980D01*
X510198Y642291D01*
X508675Y644276D01*
X506691Y645798D01*
X504380Y646756D01*
X501900Y647082D01*
D02*
G37*
G36*
X132700D02*
X130220Y646756D01*
X127909Y645798D01*
X125925Y644276D01*
X124402Y642291D01*
X123444Y639980D01*
X123118Y637500D01*
Y632500D01*
X123444Y630020D01*
X124402Y627709D01*
X125925Y625724D01*
X127909Y624202D01*
X130220Y623245D01*
X132700Y622918D01*
X135180Y623245D01*
X137491Y624202D01*
X138442Y624932D01*
X140941Y622433D01*
Y613535D01*
X140933Y613484D01*
X140917Y613419D01*
X140901Y613370D01*
X140886Y613334D01*
X140872Y613307D01*
X140858Y613285D01*
X140841Y613265D01*
X140761Y613178D01*
X140673Y613037D01*
X140185Y612549D01*
X139500Y610895D01*
Y609105D01*
X140185Y607451D01*
X141451Y606185D01*
X143105Y605500D01*
X143795D01*
X143957Y605462D01*
X144075Y605458D01*
X144101Y605455D01*
X144126Y605449D01*
X144156Y605440D01*
X144192Y605426D01*
X144238Y605402D01*
X144295Y605368D01*
X144336Y605338D01*
X156941Y592733D01*
Y530668D01*
X154941Y529909D01*
X153295Y531172D01*
X150741Y532230D01*
X148000Y532591D01*
X141250D01*
Y510000D01*
Y487409D01*
X148000D01*
X150741Y487770D01*
X153295Y488828D01*
X154941Y490091D01*
X156941Y489332D01*
Y275213D01*
X156444Y274811D01*
X155045Y274281D01*
X153059Y276267D01*
Y286000D01*
X153059Y286000D01*
X152826Y287171D01*
X152163Y288163D01*
X152163Y288163D01*
X94059Y346267D01*
Y431401D01*
X96059Y431664D01*
X96147Y431333D01*
X97398Y429167D01*
X99167Y427398D01*
X101333Y426147D01*
X103749Y425500D01*
X106251D01*
X108667Y426147D01*
X110833Y427398D01*
X112602Y429167D01*
X113853Y431333D01*
X114500Y433749D01*
Y436251D01*
X113853Y438667D01*
X112602Y440833D01*
X110833Y442602D01*
X108667Y443853D01*
X106251Y444500D01*
X103749D01*
X101333Y443853D01*
X99167Y442602D01*
X97398Y440833D01*
X96147Y438667D01*
X96059Y438336D01*
X94059Y438599D01*
Y569207D01*
X93826Y570378D01*
X93559Y570778D01*
Y576335D01*
X95559Y576598D01*
X95681Y576140D01*
X96998Y573860D01*
X98860Y571998D01*
X101140Y570681D01*
X103684Y570000D01*
X103750D01*
Y580000D01*
Y590000D01*
X103684D01*
X101140Y589319D01*
X98860Y588002D01*
X96998Y586140D01*
X95681Y583860D01*
X95559Y583402D01*
X93559Y583665D01*
Y603233D01*
X95664Y605338D01*
X95705Y605368D01*
X95762Y605402D01*
X95808Y605426D01*
X95844Y605440D01*
X95874Y605449D01*
X95899Y605455D01*
X95925Y605458D01*
X96043Y605462D01*
X96205Y605500D01*
X96895D01*
X98549Y606185D01*
X99815Y607451D01*
X100500Y609105D01*
Y610895D01*
X99815Y612549D01*
X99327Y613037D01*
X99239Y613178D01*
X99158Y613265D01*
X99143Y613285D01*
X99128Y613307D01*
X99114Y613334D01*
X99099Y613370D01*
X99083Y613419D01*
X99067Y613483D01*
X99059Y613535D01*
Y622433D01*
X101558Y624932D01*
X102509Y624202D01*
X104820Y623245D01*
X107300Y622918D01*
X109780Y623245D01*
X112091Y624202D01*
X114075Y625724D01*
X115598Y627709D01*
X116555Y630020D01*
X116882Y632500D01*
Y637500D01*
X116555Y639980D01*
X115598Y642291D01*
X114075Y644276D01*
X112091Y645798D01*
X109780Y646756D01*
X107300Y647082D01*
X104820Y646756D01*
X102509Y645798D01*
X100525Y644276D01*
X99002Y642291D01*
X98045Y639980D01*
X97718Y637500D01*
Y632500D01*
X98029Y630136D01*
X97973Y630044D01*
X97879Y629913D01*
X97835Y629861D01*
X93837Y625863D01*
X93174Y624871D01*
X92941Y623700D01*
X92941Y623700D01*
Y613535D01*
X92933Y613484D01*
X92917Y613419D01*
X92901Y613370D01*
X92886Y613334D01*
X92872Y613307D01*
X92858Y613285D01*
X92842Y613265D01*
X92761Y613178D01*
X92673Y613037D01*
X92185Y612549D01*
X91500Y610895D01*
Y610205D01*
X91462Y610043D01*
X91458Y609925D01*
X91455Y609899D01*
X91450Y609874D01*
X91440Y609845D01*
X91426Y609808D01*
X91403Y609762D01*
X91368Y609705D01*
X91338Y609664D01*
X88337Y606663D01*
X87674Y605671D01*
X87441Y604500D01*
X87441Y604500D01*
X85469Y604566D01*
Y622798D01*
X85485Y622977D01*
X85533Y623277D01*
X85591Y623506D01*
X85649Y623664D01*
X85695Y623755D01*
X85715Y623784D01*
X85833Y623844D01*
X85838Y623848D01*
X86691Y624202D01*
X88675Y625724D01*
X90198Y627709D01*
X91155Y630020D01*
X91482Y632500D01*
Y637500D01*
X91155Y639980D01*
X90198Y642291D01*
X88675Y644276D01*
X86691Y645798D01*
X84380Y646756D01*
X81900Y647082D01*
X79420Y646756D01*
X77109Y645798D01*
X75125Y644276D01*
X73602Y642291D01*
X72645Y639980D01*
X72318Y637500D01*
Y632500D01*
X72645Y630020D01*
X73602Y627709D01*
X75125Y625724D01*
X77109Y624202D01*
X77962Y623848D01*
X77967Y623844D01*
X78085Y623784D01*
X78105Y623755D01*
X78151Y623664D01*
X78209Y623506D01*
X78267Y623277D01*
X78316Y622977D01*
X78331Y622798D01*
Y476378D01*
X64477Y462523D01*
X63703Y461366D01*
X63431Y460000D01*
Y442832D01*
X61431Y442004D01*
X60833Y442602D01*
X58667Y443853D01*
X56251Y444500D01*
X53749D01*
X51333Y443853D01*
X49167Y442602D01*
X47398Y440833D01*
X46147Y438667D01*
X45500Y436251D01*
Y433749D01*
X46147Y431333D01*
X47398Y429167D01*
X49167Y427398D01*
X51333Y426147D01*
X53749Y425500D01*
X56251D01*
X58667Y426147D01*
X60833Y427398D01*
X61431Y427996D01*
X63431Y427168D01*
Y371546D01*
X61431Y370278D01*
X60895Y370500D01*
X60205D01*
X60043Y370538D01*
X59925Y370542D01*
X59899Y370545D01*
X59874Y370550D01*
X59844Y370560D01*
X59808Y370574D01*
X59762Y370597D01*
X59705Y370632D01*
X59664Y370662D01*
X58820Y371506D01*
X57827Y372169D01*
X56657Y372402D01*
X56657Y372402D01*
X56582D01*
X56115Y373530D01*
X54992Y374992D01*
X53530Y376115D01*
X51827Y376820D01*
X50000Y377060D01*
X30000D01*
X28173Y376820D01*
X26470Y376115D01*
X25008Y374992D01*
X23886Y373530D01*
X23180Y371827D01*
X22940Y370000D01*
X23180Y368173D01*
X23886Y366470D01*
X25008Y365008D01*
X26470Y363885D01*
X28173Y363180D01*
X30000Y362940D01*
X50000D01*
X51827Y363180D01*
X53530Y363885D01*
X53766Y364066D01*
X56185Y363451D01*
X57451Y362185D01*
X59105Y361500D01*
X60895D01*
X61431Y361722D01*
X63431Y360454D01*
Y259546D01*
X61431Y258278D01*
X60895Y258500D01*
X59105D01*
X57451Y257815D01*
X56185Y256549D01*
X53765Y255933D01*
X53530Y256114D01*
X51827Y256819D01*
X50000Y257060D01*
X30000D01*
X28173Y256819D01*
X26470Y256114D01*
X25008Y254992D01*
X23886Y253529D01*
X23180Y251826D01*
X22940Y249999D01*
X23180Y248172D01*
X23886Y246469D01*
X25008Y245007D01*
X26470Y243885D01*
X28173Y243179D01*
X30000Y242939D01*
X50000D01*
X51827Y243179D01*
X53530Y243885D01*
X54992Y245007D01*
X56115Y246469D01*
X56582Y247598D01*
X56656D01*
X56656Y247598D01*
X57827Y247831D01*
X58819Y248494D01*
X59664Y249338D01*
X59705Y249368D01*
X59762Y249403D01*
X59808Y249426D01*
X59844Y249440D01*
X59874Y249450D01*
X59899Y249455D01*
X59925Y249458D01*
X60043Y249462D01*
X60205Y249500D01*
X60895D01*
X61431Y249722D01*
X63431Y248454D01*
Y230393D01*
X62500Y228539D01*
X57500D01*
X57500Y228539D01*
X56505Y228539D01*
X55725Y228384D01*
X53887Y227623D01*
X53226Y227181D01*
X53226Y227181D01*
X51819Y225774D01*
X51377Y225113D01*
X50616Y223275D01*
X50616Y223275D01*
X50476Y222569D01*
X38795D01*
X38549Y222815D01*
X36895Y223500D01*
X35105D01*
X33451Y222815D01*
X32185Y221549D01*
X31500Y219895D01*
Y218105D01*
X32185Y216451D01*
X33451Y215185D01*
X35105Y214500D01*
X36895D01*
X38549Y215185D01*
X38788Y215424D01*
X38893Y215431D01*
X50476D01*
X50616Y214725D01*
X50616Y214725D01*
X51377Y212887D01*
X51819Y212226D01*
X53226Y210819D01*
X53887Y210377D01*
X55725Y209616D01*
X56505Y209461D01*
X57500Y209461D01*
X62500Y209461D01*
X63280Y209616D01*
X63942Y210058D01*
X64058D01*
X64720Y209616D01*
X65500Y209461D01*
X70500D01*
X71494Y209461D01*
X72275Y209616D01*
X74113Y210377D01*
X74774Y210819D01*
X74774Y210819D01*
X76181Y212226D01*
X76623Y212887D01*
X77384Y214725D01*
X77384Y214725D01*
X77524Y215431D01*
X103522D01*
X141477Y177477D01*
X142634Y176703D01*
X144000Y176431D01*
X209522D01*
X253820Y132133D01*
X253732Y131884D01*
X251895Y130500D01*
X250105D01*
X248451Y129815D01*
X247185Y128549D01*
X246500Y126895D01*
Y125105D01*
X247185Y123451D01*
X248451Y122185D01*
X250105Y121500D01*
X251895D01*
X252931Y121929D01*
X254571Y121130D01*
X254931Y120758D01*
Y113007D01*
X253084Y112242D01*
X210663Y154663D01*
X209671Y155326D01*
X208500Y155559D01*
X208500Y155559D01*
X193533D01*
X192500Y157105D01*
Y158895D01*
X191815Y160549D01*
X190549Y161815D01*
X188895Y162500D01*
X187105D01*
X185451Y161815D01*
X185212Y161576D01*
X185107Y161569D01*
X150221D01*
X149815Y162549D01*
X148549Y163815D01*
X146895Y164500D01*
X145105D01*
X144500Y164249D01*
X144422Y164261D01*
X143849Y164492D01*
X142500Y165443D01*
Y165895D01*
X142327Y166313D01*
X142239Y166756D01*
X141988Y167132D01*
X141815Y167549D01*
X141495Y167868D01*
X141244Y168244D01*
X140869Y168495D01*
X140549Y168815D01*
X140132Y168988D01*
X139756Y169239D01*
X139313Y169327D01*
X138895Y169500D01*
X138443D01*
X138000Y169588D01*
X125000D01*
X125000Y169588D01*
X124557Y169500D01*
X124105D01*
X123687Y169327D01*
X123244Y169239D01*
X122868Y168988D01*
X122451Y168815D01*
X122132Y168495D01*
X121756Y168244D01*
X121430Y167919D01*
X120436Y166430D01*
X120086Y164675D01*
Y158325D01*
X120436Y156570D01*
X121430Y155081D01*
X142412Y134100D01*
Y114565D01*
X140412Y113286D01*
X139895Y113500D01*
X138105D01*
X136451Y112815D01*
X135185Y111549D01*
X134572Y110068D01*
X133735Y109672D01*
X132500Y109311D01*
X131059Y110752D01*
Y111466D01*
X131067Y111517D01*
X131083Y111581D01*
X131099Y111630D01*
X131114Y111666D01*
X131128Y111693D01*
X131142Y111715D01*
X131159Y111735D01*
X131239Y111822D01*
X131327Y111963D01*
X131815Y112451D01*
X132500Y114105D01*
Y115895D01*
X131815Y117549D01*
X130549Y118815D01*
X128895Y119500D01*
X127105D01*
X126588Y119286D01*
X124588Y120565D01*
Y145000D01*
X124239Y146756D01*
X123244Y148244D01*
X116588Y154901D01*
Y164000D01*
X116500Y164443D01*
Y164895D01*
X116327Y165313D01*
X116239Y165756D01*
X115988Y166132D01*
X115815Y166549D01*
X115495Y166869D01*
X115244Y167244D01*
X114869Y167495D01*
X114549Y167815D01*
X114132Y167988D01*
X113756Y168239D01*
X113313Y168327D01*
X112895Y168500D01*
X112443D01*
X112000Y168588D01*
X111557Y168500D01*
X111105D01*
X110687Y168327D01*
X110244Y168239D01*
X109868Y167988D01*
X109451Y167815D01*
X109131Y167495D01*
X108756Y167244D01*
X108505Y166869D01*
X108185Y166549D01*
X108012Y166132D01*
X107761Y165756D01*
X107673Y165313D01*
X107500Y164895D01*
Y164443D01*
X107412Y164000D01*
Y153000D01*
X107761Y151244D01*
X108756Y149756D01*
X115412Y143099D01*
Y107800D01*
X113412Y106972D01*
X103444Y116940D01*
X104577Y118636D01*
X104906Y118499D01*
X107094D01*
X109115Y119337D01*
X110663Y120884D01*
X111500Y122905D01*
Y125093D01*
X110663Y127115D01*
X109115Y128662D01*
X107094Y129499D01*
X106317Y130662D01*
X106500Y131105D01*
Y132895D01*
X105815Y134549D01*
X104549Y135815D01*
X102895Y136500D01*
X101262D01*
X97210Y140552D01*
X97718Y142872D01*
X98232Y143085D01*
X99498Y144351D01*
X100183Y146005D01*
Y147795D01*
X99498Y149449D01*
X98232Y150715D01*
X96578Y151400D01*
X95820D01*
X95632Y151438D01*
X95424Y151440D01*
X95299Y151448D01*
X95195Y151463D01*
X95113Y151480D01*
X95048Y151500D01*
X94999Y151519D01*
X94962Y151538D01*
X94954Y151542D01*
X91897Y154600D01*
X90987Y155208D01*
X89914Y155421D01*
X82618D01*
X81545Y155208D01*
X80635Y154600D01*
X75089Y149054D01*
X72752D01*
X71451Y151054D01*
X71649Y151533D01*
Y153323D01*
X70964Y154977D01*
X69698Y156243D01*
X68044Y156928D01*
X66954D01*
X66402Y157297D01*
X65036Y157569D01*
X51342D01*
X51186Y157802D01*
X51047Y158064D01*
X50966Y158131D01*
X50908Y158217D01*
X50141Y158985D01*
X49694Y159284D01*
X49683Y159295D01*
X49431Y159787D01*
X49170Y161720D01*
X49551Y162218D01*
X50307Y164042D01*
X50400Y164750D01*
X33000D01*
X15600D01*
X15693Y164042D01*
X16449Y162218D01*
X17651Y160651D01*
X19218Y159449D01*
X21042Y158693D01*
X23000Y158435D01*
X24527D01*
X24827Y158218D01*
X25806Y156435D01*
X25616Y155976D01*
X25461Y155196D01*
Y123060D01*
X23000D01*
X21173Y122819D01*
X19470Y122114D01*
X18008Y120992D01*
X16885Y119529D01*
X16180Y117826D01*
X15940Y115999D01*
X16180Y114172D01*
X16885Y112469D01*
X18008Y111007D01*
X19470Y109885D01*
X21173Y109179D01*
X23000Y108939D01*
X27601D01*
X28105Y108602D01*
X29279Y108116D01*
X30059Y107961D01*
X30695Y107961D01*
X41545D01*
X42685Y106983D01*
X43191Y106277D01*
Y105750D01*
X43191Y105750D01*
X43191Y101723D01*
X43424Y100552D01*
X43828Y99578D01*
X44491Y98586D01*
X45236Y97841D01*
X46228Y97177D01*
X47202Y96774D01*
X48373Y96541D01*
X49427D01*
X50598Y96774D01*
X50962Y96925D01*
X50970Y96925D01*
X51204Y96904D01*
X52548Y96246D01*
X53054Y95763D01*
X53225Y94466D01*
X54107Y92337D01*
X55509Y90509D01*
X57337Y89107D01*
X59466Y88225D01*
X61750Y87924D01*
X67000D01*
Y96750D01*
X69500D01*
Y87924D01*
X74750D01*
X77034Y88225D01*
X79163Y89107D01*
X80961Y90487D01*
X81105Y90468D01*
X82961Y89792D01*
X82961Y53000D01*
X83116Y52220D01*
X83558Y51558D01*
X84220Y51116D01*
X85000Y50961D01*
X122500Y50961D01*
X123280Y51116D01*
X123942Y51558D01*
X124384Y52220D01*
X124539Y53000D01*
Y84550D01*
X124539Y84552D01*
X124539Y87035D01*
X124500Y87232D01*
Y87432D01*
X123531Y92307D01*
X123454Y92492D01*
X123415Y92689D01*
X123255Y93074D01*
X123574Y93618D01*
X124531Y94524D01*
X124772Y94638D01*
X125105Y94500D01*
X125557D01*
X126000Y94412D01*
X126443Y94500D01*
X126895D01*
X127313Y94673D01*
X127756Y94761D01*
X128132Y95012D01*
X128549Y95185D01*
X128869Y95505D01*
X129244Y95756D01*
X129495Y96131D01*
X129815Y96451D01*
X129988Y96868D01*
X131941Y96331D01*
Y93000D01*
X131941Y93000D01*
X132174Y91830D01*
X132837Y90837D01*
X169837Y53837D01*
X170830Y53174D01*
X172000Y52941D01*
X172000Y52941D01*
X184183D01*
X185519Y50941D01*
X185500Y50895D01*
Y49105D01*
X185527Y49039D01*
X184191Y47039D01*
X150008Y47039D01*
X148895Y47500D01*
X147105D01*
X145992Y47039D01*
X130008D01*
X128895Y47500D01*
X127105D01*
X125451Y46815D01*
X124197Y45561D01*
X123723Y45244D01*
X123581Y45102D01*
X123414Y44991D01*
X122509Y44085D01*
X122397Y43918D01*
X122255Y43776D01*
X121544Y42712D01*
X121467Y42526D01*
X121355Y42359D01*
X120866Y41176D01*
X120814Y40915D01*
X120728Y40662D01*
X120478Y38766D01*
X120487Y38632D01*
X120461Y38500D01*
Y16477D01*
X120539Y16086D01*
X120616Y15697D01*
X121402Y13794D01*
X121616Y13474D01*
X121843Y13134D01*
X123297Y11676D01*
X123623Y11458D01*
X123957Y11233D01*
X125858Y10442D01*
X126245Y10364D01*
X126637Y10285D01*
X127667Y10283D01*
X321832Y9803D01*
X322461Y9802D01*
X322461Y9802D01*
X322462Y9802D01*
X322841Y9876D01*
X323241Y9955D01*
X323242Y9955D01*
X323242Y9955D01*
X324405Y10434D01*
X324405Y10435D01*
X324406Y10435D01*
X324745Y10661D01*
X325067Y10875D01*
X325667Y11202D01*
X327292Y11167D01*
X327954Y10725D01*
X329424Y10116D01*
X330204Y9961D01*
X362000D01*
X362230Y10007D01*
X362464Y10014D01*
X364287Y10440D01*
X364440Y10509D01*
X364604Y10542D01*
X365046Y10725D01*
X365708Y11167D01*
X365708Y11167D01*
X366833Y12292D01*
X366833Y12292D01*
X367275Y12954D01*
X367737Y14070D01*
X368324Y14452D01*
X369294Y14877D01*
X369463Y14931D01*
X369970Y14970D01*
X369970D01*
X371105Y14500D01*
X372895D01*
X374549Y15185D01*
X375815Y16451D01*
X376500Y18105D01*
Y19895D01*
X375815Y21549D01*
X374549Y22815D01*
X372895Y23500D01*
X371105D01*
X370039Y23059D01*
X368448Y23821D01*
X368039Y24230D01*
X368039Y40000D01*
X367994Y40228D01*
X367987Y40460D01*
X367570Y42260D01*
X367501Y42415D01*
X367468Y42581D01*
X367275Y43046D01*
X367275Y43046D01*
X367002Y43454D01*
X366833Y43708D01*
X366833Y43708D01*
X366833Y43708D01*
X365708Y44833D01*
X365708Y44833D01*
X365708Y44833D01*
X365401Y45038D01*
X365046Y45275D01*
X365046Y45275D01*
X365046Y45275D01*
X363576Y45884D01*
X363576Y45884D01*
X363576Y45884D01*
X363183Y45962D01*
X362795Y46039D01*
X362795Y46039D01*
X362795Y46039D01*
X362000Y46039D01*
X351588Y46039D01*
Y100099D01*
X353244Y101756D01*
X353495Y102131D01*
X353815Y102451D01*
X353988Y102868D01*
X354239Y103244D01*
X354327Y103687D01*
X354500Y104105D01*
Y104557D01*
X354588Y105000D01*
X354500Y105443D01*
Y105895D01*
X354327Y106313D01*
X354239Y106756D01*
X353988Y107132D01*
X353815Y107549D01*
X353495Y107868D01*
X353244Y108244D01*
X352869Y108495D01*
X352549Y108815D01*
X352132Y108988D01*
X351756Y109239D01*
X351313Y109327D01*
X350895Y109500D01*
X350443D01*
X350000Y109588D01*
X349557Y109500D01*
X349105D01*
X348688Y109327D01*
X348244Y109239D01*
X347868Y108988D01*
X347451Y108815D01*
X347132Y108495D01*
X346756Y108244D01*
X343756Y105244D01*
X342761Y103756D01*
X342412Y102000D01*
Y90709D01*
X340739Y89178D01*
X339588Y90000D01*
Y97000D01*
X339500Y97443D01*
Y97895D01*
X339327Y98313D01*
X339239Y98756D01*
X338988Y99132D01*
X338815Y99549D01*
X338495Y99869D01*
X338244Y100244D01*
X337868Y100495D01*
X337549Y100815D01*
X337132Y100988D01*
X336756Y101239D01*
X336313Y101327D01*
X335895Y101500D01*
X335443D01*
X335000Y101588D01*
X334557Y101500D01*
X334105D01*
X333687Y101327D01*
X333244Y101239D01*
X332868Y100988D01*
X332451Y100815D01*
X332131Y100495D01*
X331756Y100244D01*
X331505Y99869D01*
X331185Y99549D01*
X331012Y99132D01*
X330761Y98756D01*
X330673Y98313D01*
X330500Y97895D01*
Y97443D01*
X330412Y97000D01*
Y91481D01*
X330261Y91256D01*
X329912Y89500D01*
Y88300D01*
X329908Y88245D01*
X329849Y87777D01*
X329792Y87500D01*
X327039D01*
Y91155D01*
X327070Y92443D01*
X327321Y95029D01*
X327816Y97554D01*
X328552Y100021D01*
X329523Y102404D01*
X330719Y104683D01*
X332130Y106835D01*
X333758Y108861D01*
X334636Y109804D01*
X401696Y178461D01*
X405380Y182130D01*
X413057Y189167D01*
X421100Y195761D01*
X429505Y201910D01*
X433838Y204812D01*
X433852Y204826D01*
X433869Y204833D01*
X491347Y244866D01*
X491473Y244997D01*
X491624Y245098D01*
X491635Y245115D01*
X492606Y246086D01*
X493616Y246505D01*
X493800Y246627D01*
X494002Y246715D01*
X495268Y247597D01*
X522334Y262342D01*
X522396Y262394D01*
X522470Y262423D01*
X523884Y263342D01*
X524066Y263519D01*
X524271Y263668D01*
X526559Y266146D01*
X526691Y266362D01*
X526853Y266557D01*
X528103Y268860D01*
X529974Y268114D01*
X529500Y266346D01*
Y265950D01*
X540750D01*
Y277200D01*
X540354D01*
X537175Y276348D01*
X534325Y274702D01*
X531997Y272375D01*
X530778Y270264D01*
X528908Y271024D01*
X529476Y273261D01*
X529489Y273514D01*
X529538Y273763D01*
X529538Y275449D01*
X529538Y275449D01*
X529539Y302500D01*
X529539Y303494D01*
X529539Y303495D01*
X529539Y303495D01*
X529470Y303844D01*
X529384Y304275D01*
X529384Y304275D01*
X529384Y304275D01*
X528623Y306113D01*
X528623Y306113D01*
X528622Y306113D01*
X528461Y306355D01*
X528180Y306774D01*
X528180Y306774D01*
X526773Y308181D01*
X526773Y308181D01*
X526773Y308181D01*
X526469Y308384D01*
X526112Y308623D01*
X526112Y308623D01*
X526112Y308623D01*
X525097Y309043D01*
X524890Y309084D01*
X524693Y309163D01*
X522882Y309503D01*
X522692Y309501D01*
X522505Y309538D01*
X522504D01*
X522499Y309539D01*
X505860D01*
X505663Y309500D01*
X505462D01*
X504206Y309250D01*
X504021Y309173D01*
X503824Y309134D01*
X502641Y308644D01*
X502474Y308533D01*
X502288Y308456D01*
X501224Y307744D01*
X501082Y307602D01*
X500915Y307491D01*
X500009Y306585D01*
X499898Y306418D01*
X499756Y306276D01*
X499044Y305212D01*
X498967Y305026D01*
X498856Y304859D01*
X498366Y303676D01*
X498327Y303479D01*
X498250Y303294D01*
X498000Y302038D01*
Y301837D01*
X497961Y301640D01*
Y301000D01*
X497961Y301000D01*
X497961Y293322D01*
X497871Y290393D01*
X497150Y284549D01*
X495725Y278868D01*
X493615Y273405D01*
X490851Y268241D01*
X487476Y263455D01*
X483539Y259118D01*
X479077Y255277D01*
X476686Y253575D01*
X437636Y227541D01*
X431712Y223592D01*
X431676Y223556D01*
X431630Y223535D01*
X420186Y215061D01*
X420152Y215024D01*
X420107Y215000D01*
X409096Y205972D01*
X409063Y205933D01*
X409019Y205906D01*
X398467Y196347D01*
X398436Y196306D01*
X398394Y196277D01*
X393361Y191244D01*
X393359Y191243D01*
X348907Y146790D01*
X347059Y147556D01*
Y252733D01*
X351997Y257671D01*
X352660Y258664D01*
X352893Y259834D01*
Y276384D01*
X352900Y276423D01*
X352913Y276473D01*
X352924Y276505D01*
X352932Y276523D01*
X352938Y276532D01*
X352942Y276537D01*
X352947Y276543D01*
X353026Y276618D01*
X353135Y276771D01*
X353815Y277451D01*
X354500Y279105D01*
Y280895D01*
X353815Y282549D01*
X352549Y283815D01*
X350895Y284500D01*
X349105D01*
X348059Y284067D01*
X346435Y284853D01*
X346059Y285238D01*
Y300733D01*
X356163Y310837D01*
X356826Y311829D01*
X357059Y313000D01*
X357059Y313000D01*
Y381328D01*
X357059Y381328D01*
X356963Y381809D01*
X357500Y383105D01*
Y384895D01*
X356815Y386549D01*
X355549Y387815D01*
X354815Y389451D01*
X355051Y390021D01*
X355500Y391105D01*
Y392895D01*
X355067Y393941D01*
X355854Y395565D01*
X356238Y395941D01*
X359733D01*
X362837Y392837D01*
X362837Y392837D01*
X363829Y392174D01*
X365000Y391941D01*
X468465D01*
X468517Y391933D01*
X468581Y391917D01*
X468630Y391901D01*
X468666Y391886D01*
X468693Y391872D01*
X468715Y391858D01*
X468735Y391842D01*
X468822Y391761D01*
X468963Y391673D01*
X469451Y391185D01*
X471105Y390500D01*
X472895D01*
X474549Y391185D01*
X475815Y392451D01*
X476500Y394105D01*
Y395895D01*
X475815Y397549D01*
X474549Y398815D01*
X472895Y399500D01*
X471105D01*
X469451Y398815D01*
X468963Y398327D01*
X468822Y398239D01*
X468735Y398158D01*
X468715Y398143D01*
X468693Y398128D01*
X468666Y398114D01*
X468630Y398099D01*
X468581Y398083D01*
X468517Y398067D01*
X468465Y398059D01*
X366267D01*
X363163Y401163D01*
X362170Y401826D01*
X361000Y402059D01*
X361000Y402059D01*
X360238D01*
X359854Y402435D01*
X359067Y404059D01*
X359500Y405105D01*
Y406895D01*
X358815Y408549D01*
X357549Y409815D01*
X357463Y412015D01*
X357500Y412105D01*
Y412734D01*
X357537Y412879D01*
X357543Y413000D01*
X357547Y413030D01*
X357554Y413060D01*
X357565Y413094D01*
X357581Y413134D01*
X357607Y413184D01*
X357644Y413244D01*
X357676Y413288D01*
X364163Y419776D01*
X364163Y419776D01*
X364826Y420768D01*
X365059Y421939D01*
X365059Y421939D01*
Y430733D01*
X499664Y565338D01*
X499705Y565368D01*
X499762Y565403D01*
X499808Y565426D01*
X499844Y565440D01*
X499874Y565449D01*
X499899Y565455D01*
X499925Y565458D01*
X500043Y565462D01*
X500205Y565500D01*
X500895D01*
X502549Y566185D01*
X503815Y567451D01*
X504500Y569105D01*
Y570895D01*
X503815Y572549D01*
X502549Y573815D01*
X500895Y574500D01*
X499105D01*
X497451Y573815D01*
X496185Y572549D01*
X495500Y570895D01*
Y570205D01*
X495462Y570043D01*
X495458Y569925D01*
X495455Y569899D01*
X495449Y569874D01*
X495440Y569845D01*
X495426Y569808D01*
X495402Y569762D01*
X495368Y569705D01*
X495338Y569664D01*
X359837Y434163D01*
X359174Y433171D01*
X358941Y432000D01*
X358941Y432000D01*
Y423205D01*
X357348Y421612D01*
X355003Y422095D01*
X354815Y422549D01*
X353549Y423815D01*
X353192Y423963D01*
X351500Y425105D01*
Y426895D01*
X350815Y428549D01*
X349549Y429815D01*
X348432Y430278D01*
X347848Y431873D01*
X347826Y432500D01*
X501267Y585941D01*
X503465D01*
X503517Y585933D01*
X503581Y585917D01*
X503630Y585901D01*
X503666Y585886D01*
X503693Y585872D01*
X503715Y585858D01*
X503735Y585841D01*
X503822Y585761D01*
X503963Y585673D01*
X504451Y585185D01*
X506105Y584500D01*
X507895D01*
X509549Y585185D01*
X510815Y586451D01*
X511500Y588105D01*
Y589895D01*
X510815Y591549D01*
X509549Y592815D01*
X507895Y593500D01*
X506105D01*
X504451Y592815D01*
X503963Y592327D01*
X503822Y592239D01*
X503735Y592159D01*
X503715Y592142D01*
X503693Y592128D01*
X503666Y592114D01*
X503630Y592099D01*
X503581Y592083D01*
X503517Y592067D01*
X503465Y592059D01*
X502347D01*
X501782Y592437D01*
X500611Y592670D01*
X499440Y592437D01*
X498448Y591774D01*
X337837Y431163D01*
X337174Y430171D01*
X336941Y429000D01*
X336941Y429000D01*
Y422000D01*
X336941Y422000D01*
X337174Y420830D01*
X337837Y419837D01*
X343441Y414233D01*
Y410500D01*
X343441Y410500D01*
X343674Y409329D01*
X344337Y408337D01*
X348615Y404059D01*
X348473Y403146D01*
X347899Y402059D01*
X333267D01*
X324059Y411267D01*
Y416762D01*
X324435Y417146D01*
X326059Y417933D01*
X327105Y417500D01*
X328895D01*
X330549Y418185D01*
X331815Y419451D01*
X332500Y421105D01*
Y422895D01*
X331815Y424549D01*
X331327Y425037D01*
X331239Y425178D01*
X331158Y425265D01*
X331143Y425285D01*
X331128Y425307D01*
X331114Y425334D01*
X331099Y425370D01*
X331083Y425419D01*
X331067Y425483D01*
X331059Y425535D01*
Y581465D01*
X331067Y581516D01*
X331083Y581581D01*
X331099Y581630D01*
X331114Y581666D01*
X331128Y581693D01*
X331142Y581715D01*
X331158Y581735D01*
X331239Y581822D01*
X331327Y581963D01*
X331815Y582451D01*
X332500Y584105D01*
Y585895D01*
X331815Y587549D01*
X330549Y588815D01*
X328895Y589500D01*
X327105D01*
X325451Y588815D01*
X324185Y587549D01*
X323500Y585895D01*
Y584105D01*
X324185Y582451D01*
X324673Y581963D01*
X324761Y581822D01*
X324841Y581735D01*
X324857Y581715D01*
X324872Y581693D01*
X324886Y581666D01*
X324901Y581630D01*
X324917Y581581D01*
X324933Y581517D01*
X324941Y581465D01*
Y456196D01*
X323360Y455045D01*
X322941Y455037D01*
X322500Y455608D01*
Y455895D01*
X321815Y457549D01*
X320549Y458815D01*
X318895Y459500D01*
X317105D01*
X315451Y458815D01*
X314185Y457549D01*
X313500Y455895D01*
Y454105D01*
X314185Y452451D01*
X315451Y451185D01*
X317105Y450500D01*
X317765Y448687D01*
X317712Y448156D01*
X315941Y447423D01*
X315549Y447815D01*
X313895Y448500D01*
X312105D01*
X310451Y447815D01*
X309695Y447059D01*
X293267D01*
X291203Y449123D01*
X292335Y450819D01*
X293105Y450500D01*
X294895D01*
X296549Y451185D01*
X297815Y452451D01*
X298500Y454105D01*
Y455895D01*
X297815Y457549D01*
X296549Y458815D01*
X294895Y459500D01*
X293105D01*
X291451Y458815D01*
X290185Y457549D01*
X289500Y455895D01*
Y454105D01*
X289819Y453335D01*
X288123Y452203D01*
X285059Y455267D01*
Y461695D01*
X285815Y462451D01*
X286500Y464105D01*
Y465895D01*
X285815Y467549D01*
X284549Y468815D01*
X282895Y469500D01*
X281105D01*
X279451Y468815D01*
X278185Y467549D01*
X277500Y465895D01*
Y464105D01*
X278185Y462451D01*
X278941Y461695D01*
Y454000D01*
X278941Y454000D01*
X279041Y453500D01*
X278304Y451926D01*
X277754Y451355D01*
X276451Y450815D01*
X275185Y449549D01*
X275015Y449139D01*
X272656Y448670D01*
X229163Y492163D01*
X228171Y492826D01*
X227000Y493059D01*
X227000Y493059D01*
X203535D01*
X203484Y493067D01*
X203420Y493083D01*
X203371Y493099D01*
X203335Y493114D01*
X203308Y493128D01*
X203286Y493142D01*
X203265Y493158D01*
X203179Y493239D01*
X203038Y493327D01*
X202550Y493815D01*
X200896Y494500D01*
X199106D01*
X197452Y493815D01*
X196186Y492549D01*
X195501Y490895D01*
Y489105D01*
X196186Y487451D01*
X197452Y486185D01*
X199106Y485500D01*
X200896D01*
X202550Y486185D01*
X203038Y486673D01*
X203179Y486761D01*
X203265Y486842D01*
X203286Y486857D01*
X203308Y486872D01*
X203335Y486886D01*
X203371Y486901D01*
X203420Y486917D01*
X203484Y486933D01*
X203535Y486941D01*
X225733D01*
X278174Y434500D01*
X277346Y432500D01*
X277105D01*
X275451Y431815D01*
X274185Y430549D01*
X273500Y428895D01*
Y427105D01*
X274185Y425451D01*
X275451Y424185D01*
X277105Y423500D01*
X278895D01*
X280549Y424185D01*
X281815Y425451D01*
X282500Y427105D01*
Y427346D01*
X284500Y428174D01*
X310895Y401779D01*
X309762Y400084D01*
X308950Y400420D01*
X307160D01*
X305506Y399735D01*
X304466Y398695D01*
X304366D01*
X303293Y398482D01*
X302384Y397874D01*
X186390Y281881D01*
X184895Y282500D01*
X183105D01*
X181451Y281815D01*
X180185Y280549D01*
X179500Y278895D01*
Y277105D01*
X180185Y275451D01*
X181136Y274500D01*
X180185Y273549D01*
X179500Y271895D01*
Y270105D01*
X180185Y268451D01*
X181451Y267185D01*
X183105Y266500D01*
X184895D01*
X186549Y267185D01*
X187815Y268451D01*
X188500Y270105D01*
Y270435D01*
X188506Y270452D01*
X188536Y270680D01*
X188566Y270841D01*
X188601Y270980D01*
X188638Y271100D01*
X188676Y271200D01*
X188714Y271282D01*
X188750Y271349D01*
X188773Y271384D01*
X264078Y346688D01*
X265773Y345555D01*
X265500Y344895D01*
Y343105D01*
X266185Y341451D01*
X267451Y340185D01*
X269105Y339500D01*
X270895D01*
X272549Y340185D01*
X273815Y341451D01*
X274500Y343105D01*
Y344895D01*
X273815Y346549D01*
X272549Y347815D01*
X270895Y348500D01*
X269105D01*
X268445Y348227D01*
X267312Y349922D01*
X303513Y386123D01*
X304451Y385185D01*
X306105Y384500D01*
X307895D01*
X309549Y385185D01*
X310815Y386451D01*
X311500Y388105D01*
Y389895D01*
X310815Y391549D01*
X311846Y393347D01*
X311870Y393371D01*
X312555Y395025D01*
Y396815D01*
X312219Y397627D01*
X313914Y398760D01*
X327491Y385183D01*
X326852Y382994D01*
X325907Y382049D01*
X325222Y380395D01*
Y378605D01*
X325907Y376951D01*
X327173Y375685D01*
X328827Y375000D01*
X330617D01*
X332271Y375685D01*
X333537Y376951D01*
X335361Y377314D01*
X339263Y373411D01*
X339263Y373411D01*
X339988Y372927D01*
X340185Y372451D01*
X341130Y371506D01*
X341769Y369317D01*
X292837Y320385D01*
X292174Y319392D01*
X291941Y318222D01*
X291941Y318222D01*
Y162535D01*
X291933Y162484D01*
X291917Y162419D01*
X291901Y162370D01*
X291886Y162334D01*
X291872Y162307D01*
X291858Y162285D01*
X291841Y162265D01*
X291761Y162178D01*
X291673Y162037D01*
X291185Y161549D01*
X290500Y159895D01*
Y158105D01*
X291185Y156451D01*
X292451Y155185D01*
X294105Y154500D01*
X295895D01*
X297549Y155185D01*
X298815Y156451D01*
X299500Y158105D01*
Y159895D01*
X298815Y161549D01*
X298327Y162037D01*
X298239Y162178D01*
X298158Y162265D01*
X298143Y162285D01*
X298128Y162307D01*
X298114Y162334D01*
X298099Y162370D01*
X298083Y162419D01*
X298067Y162483D01*
X298059Y162535D01*
Y270749D01*
X300059Y271577D01*
X300451Y271185D01*
X302105Y270500D01*
X303895D01*
X305549Y271185D01*
X306815Y272451D01*
X307500Y274105D01*
Y275895D01*
X306815Y277549D01*
X305549Y278815D01*
X303895Y279500D01*
X302105D01*
X300451Y278815D01*
X300059Y278423D01*
X298059Y279251D01*
Y316955D01*
X333500Y352396D01*
X334310Y352278D01*
X335657Y351725D01*
X336185Y350451D01*
X337451Y349185D01*
X339105Y348500D01*
X340895D01*
X342549Y349185D01*
X343815Y350451D01*
X344500Y352105D01*
Y353895D01*
X343815Y355549D01*
X342549Y356815D01*
X341275Y357343D01*
X340722Y358690D01*
X340604Y359500D01*
X349094Y367990D01*
X350941Y367224D01*
Y314267D01*
X343696Y307022D01*
X341903Y308057D01*
X342000Y308420D01*
Y311580D01*
X341182Y314632D01*
X339602Y317368D01*
X337368Y319602D01*
X334632Y321182D01*
X331580Y322000D01*
X328420D01*
X325368Y321182D01*
X322632Y319602D01*
X320398Y317368D01*
X318818Y314632D01*
X318000Y311580D01*
Y308420D01*
X318818Y305368D01*
X320398Y302632D01*
X322632Y300398D01*
X325368Y298818D01*
X328420Y298000D01*
X331580D01*
X334632Y298818D01*
X337368Y300398D01*
X337941Y300971D01*
X339941Y300142D01*
Y279251D01*
X337941Y278423D01*
X337549Y278815D01*
X335895Y279500D01*
X334105D01*
X332451Y278815D01*
X331185Y277549D01*
X330500Y275895D01*
Y274105D01*
X331185Y272451D01*
X332130Y271506D01*
X332769Y269317D01*
X319459Y256007D01*
X317500Y256876D01*
Y257895D01*
X316815Y259549D01*
X315549Y260815D01*
X313895Y261500D01*
X312105D01*
X310451Y260815D01*
X309185Y259549D01*
X308500Y257895D01*
Y256105D01*
X309185Y254451D01*
X310451Y253185D01*
X312105Y252500D01*
X313124D01*
X313993Y250541D01*
X312837Y249385D01*
X312174Y248392D01*
X311941Y247222D01*
X311941Y247222D01*
Y132650D01*
X311940Y132637D01*
X311934Y132600D01*
X311614Y132386D01*
X311533Y132265D01*
X311521Y132255D01*
X311490Y132200D01*
X311128Y131658D01*
X310957Y130800D01*
X309043D01*
X308872Y131658D01*
X308386Y132386D01*
X307658Y132872D01*
X306800Y133043D01*
X305675D01*
X305582Y133066D01*
X305470Y133105D01*
X305342Y133163D01*
X305196Y133243D01*
X305034Y133349D01*
X304855Y133483D01*
X304773Y133553D01*
X287163Y151163D01*
X287163Y151163D01*
X287163Y151163D01*
X222992Y215333D01*
X222826Y216171D01*
X222163Y217163D01*
X163059Y276267D01*
Y594000D01*
X162826Y595171D01*
X162163Y596163D01*
X162163Y596163D01*
X148662Y609664D01*
X148632Y609705D01*
X148597Y609762D01*
X148574Y609808D01*
X148560Y609844D01*
X148551Y609874D01*
X148545Y609899D01*
X148542Y609925D01*
X148538Y610043D01*
X148500Y610205D01*
Y610895D01*
X147815Y612549D01*
X147327Y613037D01*
X147239Y613178D01*
X147158Y613265D01*
X147142Y613285D01*
X147128Y613307D01*
X147114Y613334D01*
X147099Y613370D01*
X147083Y613419D01*
X147067Y613483D01*
X147059Y613535D01*
Y623700D01*
X146826Y624870D01*
X146163Y625863D01*
X142165Y629861D01*
X142121Y629913D01*
X142027Y630044D01*
X141971Y630136D01*
X142282Y632500D01*
Y637500D01*
X141955Y639980D01*
X140998Y642291D01*
X139475Y644276D01*
X137491Y645798D01*
X135180Y646756D01*
X132700Y647082D01*
D02*
G37*
G36*
X168307Y633750D02*
X159350D01*
Y622577D01*
X160742Y622761D01*
X163204Y623780D01*
X165318Y625402D01*
X166940Y627516D01*
X167959Y629978D01*
X168307Y632620D01*
Y633750D01*
D02*
G37*
G36*
X576850D02*
X567893D01*
Y632620D01*
X568241Y629978D01*
X569260Y627516D01*
X570882Y625402D01*
X572996Y623780D01*
X575458Y622761D01*
X576850Y622577D01*
Y633750D01*
D02*
G37*
G36*
X588307D02*
X579350D01*
Y622577D01*
X580742Y622761D01*
X583204Y623780D01*
X585318Y625402D01*
X586940Y627516D01*
X587960Y629978D01*
X588307Y632620D01*
Y633750D01*
D02*
G37*
G36*
X156850D02*
X147893D01*
Y632620D01*
X148240Y629978D01*
X149260Y627516D01*
X150882Y625402D01*
X152996Y623780D01*
X155458Y622761D01*
X156850Y622577D01*
Y633750D01*
D02*
G37*
G36*
X441144Y631000D02*
X438856D01*
X436743Y630125D01*
X435125Y628507D01*
X434250Y626394D01*
Y624106D01*
X435125Y621993D01*
X436743Y620375D01*
X438856Y619500D01*
X441144D01*
X443257Y620375D01*
X444875Y621993D01*
X445750Y624106D01*
Y626394D01*
X444875Y628507D01*
X443257Y630125D01*
X441144Y631000D01*
D02*
G37*
G36*
X221144D02*
X218856D01*
X216743Y630125D01*
X215125Y628507D01*
X214250Y626394D01*
Y624106D01*
X215125Y621993D01*
X216743Y620375D01*
X218856Y619500D01*
X221144D01*
X223257Y620375D01*
X224875Y621993D01*
X225750Y624106D01*
Y626394D01*
X224875Y628507D01*
X223257Y630125D01*
X221144Y631000D01*
D02*
G37*
G36*
X351895Y623500D02*
X350105D01*
X348451Y622815D01*
X347185Y621549D01*
X346500Y619895D01*
Y618105D01*
X347185Y616451D01*
X348451Y615185D01*
X350105Y614500D01*
X351895D01*
X353549Y615185D01*
X354815Y616451D01*
X355500Y618105D01*
Y619895D01*
X354815Y621549D01*
X353549Y622815D01*
X351895Y623500D01*
D02*
G37*
G36*
X337565Y628750D02*
X331250D01*
Y612600D01*
X331958Y612693D01*
X333782Y613449D01*
X335349Y614651D01*
X336551Y616218D01*
X337307Y618042D01*
X337565Y620000D01*
Y628750D01*
D02*
G37*
G36*
X328750D02*
X322435D01*
Y620000D01*
X322693Y618042D01*
X323449Y616218D01*
X324651Y614651D01*
X326218Y613449D01*
X328042Y612693D01*
X328750Y612600D01*
Y628750D01*
D02*
G37*
G36*
X389999Y647060D02*
X388172Y646820D01*
X386469Y646115D01*
X385007Y644993D01*
X383885Y643530D01*
X383179Y641827D01*
X382939Y640000D01*
Y620000D01*
X383179Y618173D01*
X383885Y616470D01*
X385007Y615008D01*
X385464Y614657D01*
X386138Y612685D01*
X385934Y611942D01*
X385500Y610895D01*
Y609105D01*
X386185Y607451D01*
X387451Y606185D01*
X389105Y605500D01*
X390895D01*
X392549Y606185D01*
X393815Y607451D01*
X394500Y609105D01*
Y610895D01*
X394066Y611943D01*
X393861Y612684D01*
X394535Y614657D01*
X394992Y615008D01*
X396114Y616470D01*
X396819Y618173D01*
X397060Y620000D01*
Y640000D01*
X396819Y641827D01*
X396114Y643530D01*
X394992Y644993D01*
X393529Y646115D01*
X391827Y646820D01*
X389999Y647060D01*
D02*
G37*
G36*
X370000D02*
X368173Y646820D01*
X366470Y646115D01*
X365008Y644993D01*
X363885Y643530D01*
X363180Y641827D01*
X362940Y640000D01*
Y620000D01*
X363180Y618173D01*
X363885Y616470D01*
X365008Y615008D01*
X365465Y614657D01*
X366139Y612685D01*
X365934Y611943D01*
X365500Y610895D01*
Y609105D01*
X366185Y607451D01*
X367451Y606185D01*
X369105Y605500D01*
X370895D01*
X372549Y606185D01*
X373815Y607451D01*
X374500Y609105D01*
Y610895D01*
X374066Y611943D01*
X373861Y612685D01*
X374535Y614657D01*
X374992Y615008D01*
X376115Y616470D01*
X376820Y618173D01*
X377060Y620000D01*
Y640000D01*
X376820Y641827D01*
X376115Y643530D01*
X374992Y644993D01*
X373530Y646115D01*
X371827Y646820D01*
X370000Y647060D01*
D02*
G37*
G36*
X290000D02*
X288173Y646820D01*
X286470Y646115D01*
X285008Y644993D01*
X283885Y643530D01*
X283180Y641827D01*
X282940Y640000D01*
Y620000D01*
X283180Y618173D01*
X283885Y616470D01*
X285008Y615008D01*
X285464Y614657D01*
X286139Y612685D01*
X285934Y611943D01*
X285500Y610895D01*
Y609105D01*
X286185Y607451D01*
X287451Y606185D01*
X289105Y605500D01*
X290895D01*
X292549Y606185D01*
X293815Y607451D01*
X294500Y609105D01*
Y610895D01*
X294066Y611943D01*
X293861Y612685D01*
X294536Y614657D01*
X294993Y615008D01*
X296115Y616470D01*
X296820Y618173D01*
X297060Y620000D01*
Y640000D01*
X296820Y641827D01*
X296115Y643530D01*
X294993Y644993D01*
X293530Y646115D01*
X291827Y646820D01*
X290000Y647060D01*
D02*
G37*
G36*
X269999D02*
X268172Y646820D01*
X266469Y646115D01*
X265007Y644993D01*
X263885Y643530D01*
X263179Y641827D01*
X262939Y640000D01*
Y620000D01*
X263179Y618173D01*
X263885Y616470D01*
X265007Y615008D01*
X265464Y614657D01*
X266138Y612685D01*
X265934Y611942D01*
X265500Y610895D01*
Y609105D01*
X266185Y607451D01*
X267451Y606185D01*
X269105Y605500D01*
X270895D01*
X272549Y606185D01*
X273815Y607451D01*
X274500Y609105D01*
Y610895D01*
X274066Y611943D01*
X273861Y612684D01*
X274535Y614657D01*
X274992Y615008D01*
X276114Y616470D01*
X276819Y618173D01*
X277060Y620000D01*
Y640000D01*
X276819Y641827D01*
X276114Y643530D01*
X274992Y644993D01*
X273529Y646115D01*
X271826Y646820D01*
X269999Y647060D01*
D02*
G37*
G36*
X440895Y609500D02*
X439105D01*
X437451Y608815D01*
X436185Y607549D01*
X435500Y605895D01*
Y604105D01*
X436185Y602451D01*
X437451Y601185D01*
X439105Y600500D01*
X440895D01*
X442549Y601185D01*
X443815Y602451D01*
X444500Y604105D01*
Y605895D01*
X443815Y607549D01*
X442549Y608815D01*
X440895Y609500D01*
D02*
G37*
G36*
X542895Y608500D02*
X541105D01*
X539451Y607815D01*
X538185Y606549D01*
X537500Y604895D01*
Y603105D01*
X538185Y601451D01*
X539451Y600185D01*
X541105Y599500D01*
X542895D01*
X544549Y600185D01*
X545815Y601451D01*
X546500Y603105D01*
Y604895D01*
X545815Y606549D01*
X544549Y607815D01*
X542895Y608500D01*
D02*
G37*
G36*
X123895Y607500D02*
X122105D01*
X120451Y606815D01*
X119185Y605549D01*
X118500Y603895D01*
Y602105D01*
X119185Y600451D01*
X120451Y599185D01*
X122105Y598500D01*
X123895D01*
X125549Y599185D01*
X126815Y600451D01*
X127500Y602105D01*
Y603895D01*
X126815Y605549D01*
X125549Y606815D01*
X123895Y607500D01*
D02*
G37*
G36*
X106316Y590000D02*
X106250D01*
Y581250D01*
X115000D01*
Y581316D01*
X114319Y583860D01*
X113002Y586140D01*
X111140Y588002D01*
X108860Y589319D01*
X106316Y590000D01*
D02*
G37*
G36*
X58750Y589613D02*
X51250D01*
X49007Y589166D01*
X47105Y587896D01*
X45834Y585993D01*
X45387Y583750D01*
Y576250D01*
X45834Y574007D01*
X47105Y572104D01*
X49007Y570834D01*
X51250Y570387D01*
X58750D01*
X60993Y570834D01*
X62895Y572104D01*
X64166Y574007D01*
X64613Y576250D01*
Y583750D01*
X64166Y585993D01*
X62895Y587896D01*
X60993Y589166D01*
X58750Y589613D01*
D02*
G37*
G36*
X115000Y578750D02*
X106250D01*
Y570000D01*
X106316D01*
X108860Y570681D01*
X111140Y571998D01*
X113002Y573860D01*
X114319Y576140D01*
X115000Y578684D01*
Y578750D01*
D02*
G37*
G36*
X525895Y584500D02*
X524105D01*
X522451Y583815D01*
X521185Y582549D01*
X520500Y580895D01*
Y579105D01*
X521185Y577451D01*
X522451Y576185D01*
X522699Y576082D01*
Y573918D01*
X522451Y573815D01*
X521185Y572549D01*
X520500Y570895D01*
Y569105D01*
X521185Y567451D01*
X522451Y566185D01*
X524105Y565500D01*
X525895D01*
X527549Y566185D01*
X528815Y567451D01*
X529500Y569105D01*
Y570895D01*
X528815Y572549D01*
X527549Y573815D01*
X527301Y573918D01*
Y576082D01*
X527549Y576185D01*
X528815Y577451D01*
X529500Y579105D01*
Y580895D01*
X528815Y582549D01*
X527549Y583815D01*
X525895Y584500D01*
D02*
G37*
G36*
X616674Y592000D02*
X613326D01*
X610041Y591347D01*
X606948Y590065D01*
X604163Y588205D01*
X601795Y585837D01*
X599935Y583052D01*
X598653Y579959D01*
X598000Y576674D01*
Y573326D01*
X598653Y570041D01*
X599935Y566948D01*
X601795Y564163D01*
X604163Y561795D01*
X606948Y559935D01*
X610041Y558653D01*
X613326Y558000D01*
X616674D01*
X619959Y558653D01*
X623052Y559935D01*
X625837Y561795D01*
X628205Y564163D01*
X630065Y566948D01*
X631347Y570041D01*
X632000Y573326D01*
Y576674D01*
X631347Y579959D01*
X630065Y583052D01*
X628205Y585837D01*
X625837Y588205D01*
X623052Y590065D01*
X619959Y591347D01*
X616674Y592000D01*
D02*
G37*
G36*
X616724Y542500D02*
X616250D01*
Y526250D01*
X632500D01*
Y526724D01*
X631828Y530105D01*
X630508Y533289D01*
X628593Y536156D01*
X626156Y538593D01*
X623289Y540508D01*
X620105Y541828D01*
X616724Y542500D01*
D02*
G37*
G36*
X613750D02*
X613276D01*
X609895Y541828D01*
X606711Y540508D01*
X603844Y538593D01*
X601407Y536156D01*
X599492Y533289D01*
X598172Y530105D01*
X597500Y526724D01*
Y526250D01*
X613750D01*
Y542500D01*
D02*
G37*
G36*
X315895Y527500D02*
X314105D01*
X312451Y526815D01*
X311185Y525549D01*
X310500Y523895D01*
Y522105D01*
X311185Y520451D01*
X312451Y519185D01*
X314105Y518500D01*
X315895D01*
X317549Y519185D01*
X318815Y520451D01*
X319500Y522105D01*
Y523895D01*
X318815Y525549D01*
X317549Y526815D01*
X315895Y527500D01*
D02*
G37*
G36*
X364895Y521500D02*
X363105D01*
X361451Y520815D01*
X360963Y520327D01*
X360822Y520239D01*
X360735Y520159D01*
X360715Y520143D01*
X360693Y520128D01*
X360666Y520114D01*
X360630Y520099D01*
X360581Y520083D01*
X360517Y520067D01*
X360465Y520059D01*
X353000D01*
X351829Y519826D01*
X350837Y519163D01*
X350837Y519163D01*
X341336Y509662D01*
X341295Y509632D01*
X341238Y509598D01*
X341192Y509574D01*
X341156Y509560D01*
X341126Y509551D01*
X341101Y509545D01*
X341075Y509542D01*
X340957Y509538D01*
X340795Y509500D01*
X340105D01*
X338451Y508815D01*
X337185Y507549D01*
X336500Y505895D01*
Y504105D01*
X337185Y502451D01*
X338451Y501185D01*
X340105Y500500D01*
X341895D01*
X343549Y501185D01*
X344815Y502451D01*
X345500Y504105D01*
Y504795D01*
X345538Y504957D01*
X345542Y505075D01*
X345545Y505101D01*
X345550Y505126D01*
X345560Y505155D01*
X345574Y505192D01*
X345597Y505238D01*
X345632Y505295D01*
X345662Y505336D01*
X354267Y513941D01*
X360466D01*
X360517Y513933D01*
X360581Y513917D01*
X360630Y513901D01*
X360666Y513886D01*
X360693Y513872D01*
X360715Y513858D01*
X360735Y513842D01*
X360822Y513761D01*
X360963Y513673D01*
X361451Y513185D01*
X363105Y512500D01*
X364895D01*
X366549Y513185D01*
X367815Y514451D01*
X368500Y516105D01*
Y517895D01*
X367815Y519549D01*
X366549Y520815D01*
X364895Y521500D01*
D02*
G37*
G36*
X138750Y532591D02*
X132000D01*
X129259Y532230D01*
X126705Y531172D01*
X124511Y529489D01*
X122828Y527295D01*
X121770Y524741D01*
X121409Y522000D01*
Y511250D01*
X138750D01*
Y532591D01*
D02*
G37*
G36*
X28000D02*
X21250D01*
Y511250D01*
X38591D01*
Y522000D01*
X38230Y524741D01*
X37172Y527295D01*
X35489Y529489D01*
X33295Y531172D01*
X30741Y532230D01*
X28000Y532591D01*
D02*
G37*
G36*
X632500Y523750D02*
X616250D01*
Y507500D01*
X616724D01*
X620105Y508172D01*
X623289Y509492D01*
X626156Y511407D01*
X628593Y513844D01*
X630508Y516711D01*
X631828Y519895D01*
X632500Y523276D01*
Y523750D01*
D02*
G37*
G36*
X613750D02*
X597500D01*
Y523276D01*
X598172Y519895D01*
X599492Y516711D01*
X601407Y513844D01*
X603844Y511407D01*
X606711Y509492D01*
X609895Y508172D01*
X613276Y507500D01*
X613750D01*
Y523750D01*
D02*
G37*
G36*
X314895Y510500D02*
X313105D01*
X311451Y509815D01*
X310185Y508549D01*
X309500Y506895D01*
Y505105D01*
X310185Y503451D01*
X311451Y502185D01*
X313105Y501500D01*
X314895D01*
X316549Y502185D01*
X317815Y503451D01*
X318500Y505105D01*
Y506895D01*
X317815Y508549D01*
X316549Y509815D01*
X314895Y510500D01*
D02*
G37*
G36*
X552895Y541500D02*
X551105D01*
X549451Y540815D01*
X548185Y539549D01*
X547500Y537895D01*
Y536105D01*
X548185Y534451D01*
X549451Y533185D01*
X551105Y532500D01*
X551795D01*
X551957Y532462D01*
X552075Y532458D01*
X552101Y532455D01*
X552126Y532449D01*
X552155Y532440D01*
X552192Y532426D01*
X552238Y532402D01*
X552295Y532368D01*
X552336Y532338D01*
X559941Y524733D01*
Y508535D01*
X559933Y508484D01*
X559917Y508419D01*
X559901Y508370D01*
X559886Y508334D01*
X559872Y508307D01*
X559858Y508285D01*
X559841Y508265D01*
X559761Y508178D01*
X559673Y508037D01*
X559185Y507549D01*
X558500Y505895D01*
Y504105D01*
X559185Y502451D01*
X560451Y501185D01*
X562105Y500500D01*
X563895D01*
X565549Y501185D01*
X566815Y502451D01*
X567500Y504105D01*
Y505895D01*
X566815Y507549D01*
X566327Y508037D01*
X566239Y508178D01*
X566158Y508265D01*
X566143Y508285D01*
X566128Y508307D01*
X566114Y508334D01*
X566099Y508370D01*
X566083Y508419D01*
X566067Y508483D01*
X566059Y508535D01*
Y526000D01*
X566059Y526000D01*
X565826Y527170D01*
X565163Y528163D01*
X556662Y536664D01*
X556632Y536705D01*
X556597Y536762D01*
X556574Y536808D01*
X556559Y536844D01*
X556550Y536874D01*
X556545Y536899D01*
X556542Y536925D01*
X556538Y537043D01*
X556500Y537205D01*
Y537895D01*
X555815Y539549D01*
X554549Y540815D01*
X552895Y541500D01*
D02*
G37*
G36*
X170895Y500500D02*
X169105D01*
X167451Y499815D01*
X166185Y498549D01*
X165500Y496895D01*
Y495105D01*
X166185Y493451D01*
X167451Y492185D01*
X169105Y491500D01*
X170895D01*
X172549Y492185D01*
X173815Y493451D01*
X174500Y495105D01*
Y496895D01*
X173815Y498549D01*
X172549Y499815D01*
X170895Y500500D01*
D02*
G37*
G36*
X138750Y508750D02*
X121409D01*
Y498000D01*
X121770Y495259D01*
X122828Y492705D01*
X124511Y490511D01*
X126705Y488828D01*
X129259Y487770D01*
X132000Y487409D01*
X138750D01*
Y508750D01*
D02*
G37*
G36*
X38591D02*
X21250D01*
Y487409D01*
X28000D01*
X30741Y487770D01*
X33295Y488828D01*
X35489Y490511D01*
X37172Y492705D01*
X38230Y495259D01*
X38591Y498000D01*
Y508750D01*
D02*
G37*
G36*
X616674Y492000D02*
X613326D01*
X610041Y491347D01*
X606948Y490065D01*
X604163Y488205D01*
X601795Y485837D01*
X599935Y483052D01*
X598653Y479959D01*
X598000Y476674D01*
Y473326D01*
X598653Y470041D01*
X599935Y466948D01*
X601795Y464163D01*
X604163Y461795D01*
X606948Y459935D01*
X610041Y458653D01*
X613326Y458000D01*
X616674D01*
X619959Y458653D01*
X623052Y459935D01*
X625837Y461795D01*
X628205Y464163D01*
X630065Y466948D01*
X631347Y470041D01*
X632000Y473326D01*
Y476674D01*
X631347Y479959D01*
X630065Y483052D01*
X628205Y485837D01*
X625837Y488205D01*
X623052Y490065D01*
X619959Y491347D01*
X616674Y492000D01*
D02*
G37*
G36*
X306895Y459500D02*
X305105D01*
X303451Y458815D01*
X302185Y457549D01*
X301500Y455895D01*
Y454105D01*
X302185Y452451D01*
X303451Y451185D01*
X305105Y450500D01*
X306895D01*
X308549Y451185D01*
X309815Y452451D01*
X310500Y454105D01*
Y455895D01*
X309815Y457549D01*
X308549Y458815D01*
X306895Y459500D01*
D02*
G37*
G36*
X338895Y458000D02*
X337105D01*
X335451Y457315D01*
X334185Y456049D01*
X333500Y454395D01*
Y452605D01*
X334185Y450951D01*
X335451Y449685D01*
X337105Y449000D01*
X338895D01*
X340549Y449685D01*
X341815Y450951D01*
X342500Y452605D01*
Y454395D01*
X341815Y456049D01*
X340549Y457315D01*
X338895Y458000D01*
D02*
G37*
G36*
X447895Y433500D02*
X446105D01*
X444451Y432815D01*
X443185Y431549D01*
X442500Y429895D01*
Y428105D01*
X443185Y426451D01*
X444451Y425185D01*
X446105Y424500D01*
X447895D01*
X449549Y425185D01*
X450815Y426451D01*
X451500Y428105D01*
Y429895D01*
X450815Y431549D01*
X449549Y432815D01*
X447895Y433500D01*
D02*
G37*
G36*
X384895D02*
X383105D01*
X381451Y432815D01*
X380185Y431549D01*
X379500Y429895D01*
Y428105D01*
X380185Y426451D01*
X381451Y425185D01*
X383105Y424500D01*
X384895D01*
X386549Y425185D01*
X387815Y426451D01*
X388500Y428105D01*
Y429895D01*
X387815Y431549D01*
X386549Y432815D01*
X384895Y433500D01*
D02*
G37*
G36*
X237895D02*
X236105D01*
X234451Y432815D01*
X233185Y431549D01*
X232500Y429895D01*
Y428105D01*
X233185Y426451D01*
X234451Y425185D01*
X236105Y424500D01*
X237895D01*
X239549Y425185D01*
X240815Y426451D01*
X241500Y428105D01*
Y429895D01*
X240815Y431549D01*
X239549Y432815D01*
X237895Y433500D01*
D02*
G37*
G36*
X385895Y420500D02*
X384105D01*
X382451Y419815D01*
X381185Y418549D01*
X380500Y416895D01*
Y415105D01*
X381185Y413451D01*
X382451Y412185D01*
X384105Y411500D01*
X385895D01*
X387549Y412185D01*
X388815Y413451D01*
X389500Y415105D01*
Y416895D01*
X388815Y418549D01*
X387549Y419815D01*
X385895Y420500D01*
D02*
G37*
G36*
X616674Y442000D02*
X613326D01*
X610041Y441347D01*
X606948Y440065D01*
X604163Y438205D01*
X601795Y435837D01*
X599935Y433052D01*
X598653Y429959D01*
X598000Y426674D01*
Y423326D01*
X598653Y420041D01*
X599935Y416948D01*
X601795Y414163D01*
X604163Y411795D01*
X606948Y409935D01*
X610041Y408653D01*
X613326Y408000D01*
X616674D01*
X619959Y408653D01*
X623052Y409935D01*
X625837Y411795D01*
X628205Y414163D01*
X630065Y416948D01*
X631347Y420041D01*
X632000Y423326D01*
Y426674D01*
X631347Y429959D01*
X630065Y433052D01*
X628205Y435837D01*
X625837Y438205D01*
X623052Y440065D01*
X619959Y441347D01*
X616674Y442000D01*
D02*
G37*
G36*
X275895Y416500D02*
X274105D01*
X272451Y415815D01*
X271185Y414549D01*
X270500Y412895D01*
Y411105D01*
X271185Y409451D01*
X272451Y408185D01*
X274105Y407500D01*
X275895D01*
X277549Y408185D01*
X278815Y409451D01*
X279500Y411105D01*
Y412895D01*
X278815Y414549D01*
X277549Y415815D01*
X275895Y416500D01*
D02*
G37*
G36*
Y404500D02*
X274105D01*
X272451Y403815D01*
X271185Y402549D01*
X270500Y400895D01*
Y399105D01*
X271185Y397451D01*
X272451Y396185D01*
X274105Y395500D01*
X275895D01*
X277549Y396185D01*
X278815Y397451D01*
X279500Y399105D01*
Y400895D01*
X278815Y402549D01*
X277549Y403815D01*
X275895Y404500D01*
D02*
G37*
G36*
X314895Y381500D02*
X313105D01*
X311451Y380815D01*
X310185Y379549D01*
X309500Y377895D01*
Y376105D01*
X310185Y374451D01*
X311451Y373185D01*
X313105Y372500D01*
X314895D01*
X316549Y373185D01*
X317815Y374451D01*
X318500Y376105D01*
Y377895D01*
X317815Y379549D01*
X316549Y380815D01*
X314895Y381500D01*
D02*
G37*
G36*
X543646Y378800D02*
X543250D01*
Y367550D01*
X554500D01*
Y367946D01*
X553648Y371125D01*
X552002Y373975D01*
X549675Y376302D01*
X546825Y377948D01*
X543646Y378800D01*
D02*
G37*
G36*
X540750D02*
X540354D01*
X537175Y377948D01*
X534325Y376302D01*
X531997Y373975D01*
X530352Y371125D01*
X529500Y367946D01*
Y367550D01*
X540750D01*
Y378800D01*
D02*
G37*
G36*
X642350D02*
X641954D01*
X638775Y377948D01*
X635925Y376302D01*
X633597Y373975D01*
X631952Y371125D01*
X631100Y367946D01*
Y367550D01*
X642350D01*
Y378800D01*
D02*
G37*
G36*
X130895Y370500D02*
X129105D01*
X127451Y369815D01*
X126185Y368549D01*
X125500Y366895D01*
Y365105D01*
X126185Y363451D01*
X127451Y362185D01*
X129105Y361500D01*
X130895D01*
X132549Y362185D01*
X133815Y363451D01*
X134500Y365105D01*
Y366895D01*
X133815Y368549D01*
X132549Y369815D01*
X130895Y370500D01*
D02*
G37*
G36*
X433895Y367500D02*
X432105D01*
X430451Y366815D01*
X429185Y365549D01*
X428500Y363895D01*
Y362105D01*
X429185Y360451D01*
X430451Y359185D01*
X432105Y358500D01*
X433895D01*
X435549Y359185D01*
X436815Y360451D01*
X437500Y362105D01*
Y363895D01*
X436815Y365549D01*
X435549Y366815D01*
X433895Y367500D01*
D02*
G37*
G36*
X642350Y365050D02*
X631100D01*
Y364654D01*
X631952Y361475D01*
X633597Y358625D01*
X635925Y356297D01*
X638775Y354652D01*
X641954Y353800D01*
X642350D01*
Y365050D01*
D02*
G37*
G36*
X554500D02*
X543250D01*
Y353800D01*
X543646D01*
X546825Y354652D01*
X549675Y356297D01*
X552002Y358625D01*
X553648Y361475D01*
X554500Y364654D01*
Y365050D01*
D02*
G37*
G36*
X540750D02*
X529500D01*
Y364654D01*
X530352Y361475D01*
X531997Y358625D01*
X534325Y356297D01*
X537175Y354652D01*
X540354Y353800D01*
X540750D01*
Y365050D01*
D02*
G37*
G36*
X220895Y458500D02*
X219105D01*
X217451Y457815D01*
X216185Y456549D01*
X215500Y454895D01*
Y453105D01*
X216185Y451451D01*
X216673Y450963D01*
X216761Y450822D01*
X216842Y450735D01*
X216857Y450715D01*
X216872Y450693D01*
X216886Y450666D01*
X216901Y450630D01*
X216917Y450581D01*
X216933Y450517D01*
X216941Y450465D01*
Y376000D01*
X216941Y376000D01*
X217174Y374829D01*
X217837Y373837D01*
X234338Y357336D01*
X234368Y357295D01*
X234403Y357238D01*
X234426Y357192D01*
X234440Y357156D01*
X234450Y357126D01*
X234455Y357101D01*
X234458Y357075D01*
X234462Y356957D01*
X234500Y356795D01*
Y356105D01*
X235185Y354451D01*
X236451Y353185D01*
X238105Y352500D01*
X239895D01*
X241549Y353185D01*
X242815Y354451D01*
X243500Y356105D01*
Y357895D01*
X242815Y359549D01*
X241549Y360815D01*
X239895Y361500D01*
X239205D01*
X239043Y361538D01*
X238925Y361542D01*
X238899Y361545D01*
X238874Y361550D01*
X238845Y361559D01*
X238808Y361574D01*
X238762Y361597D01*
X238705Y361632D01*
X238664Y361662D01*
X223059Y377267D01*
Y450466D01*
X223067Y450517D01*
X223083Y450581D01*
X223099Y450630D01*
X223114Y450666D01*
X223128Y450693D01*
X223142Y450715D01*
X223159Y450735D01*
X223239Y450822D01*
X223327Y450963D01*
X223815Y451451D01*
X224500Y453105D01*
Y454895D01*
X223815Y456549D01*
X222549Y457815D01*
X220895Y458500D01*
D02*
G37*
G36*
X50000Y357565D02*
X41250D01*
Y351250D01*
X57400D01*
X57307Y351958D01*
X56551Y353782D01*
X55349Y355349D01*
X53782Y356551D01*
X51958Y357307D01*
X50000Y357565D01*
D02*
G37*
G36*
X38750D02*
X30000D01*
X28042Y357307D01*
X26218Y356551D01*
X24651Y355349D01*
X23449Y353782D01*
X22693Y351958D01*
X22600Y351250D01*
X38750D01*
Y357565D01*
D02*
G37*
G36*
X432895Y356500D02*
X431105D01*
X429451Y355815D01*
X428185Y354549D01*
X427500Y352895D01*
Y351105D01*
X428185Y349451D01*
X429451Y348185D01*
X431105Y347500D01*
X432895D01*
X434549Y348185D01*
X435815Y349451D01*
X436500Y351105D01*
Y352895D01*
X435815Y354549D01*
X434549Y355815D01*
X432895Y356500D01*
D02*
G37*
G36*
X420895D02*
X419105D01*
X417451Y355815D01*
X416185Y354549D01*
X415500Y352895D01*
Y351105D01*
X416185Y349451D01*
X417451Y348185D01*
X419105Y347500D01*
X420895D01*
X422549Y348185D01*
X423815Y349451D01*
X424500Y351105D01*
Y352895D01*
X423815Y354549D01*
X422549Y355815D01*
X420895Y356500D01*
D02*
G37*
G36*
X300895D02*
X299105D01*
X297451Y355815D01*
X296185Y354549D01*
X295500Y352895D01*
Y351105D01*
X296185Y349451D01*
X297451Y348185D01*
X299105Y347500D01*
X300895D01*
X302549Y348185D01*
X303815Y349451D01*
X304500Y351105D01*
Y352895D01*
X303815Y354549D01*
X302549Y355815D01*
X300895Y356500D01*
D02*
G37*
G36*
X57400Y348750D02*
X41250D01*
Y342435D01*
X50000D01*
X51958Y342693D01*
X53782Y343449D01*
X55349Y344651D01*
X56551Y346218D01*
X57307Y348042D01*
X57400Y348750D01*
D02*
G37*
G36*
X38750D02*
X22600D01*
X22693Y348042D01*
X23449Y346218D01*
X24651Y344651D01*
X26218Y343449D01*
X28042Y342693D01*
X30000Y342435D01*
X38750D01*
Y348750D01*
D02*
G37*
G36*
X432895Y344500D02*
X431105D01*
X429451Y343815D01*
X428185Y342549D01*
X427500Y340895D01*
Y339105D01*
X428185Y337451D01*
X429451Y336185D01*
X431105Y335500D01*
X432895D01*
X434549Y336185D01*
X435815Y337451D01*
X436500Y339105D01*
Y340895D01*
X435815Y342549D01*
X434549Y343815D01*
X432895Y344500D01*
D02*
G37*
G36*
X193895D02*
X192105D01*
X190451Y343815D01*
X189185Y342549D01*
X188500Y340895D01*
Y339105D01*
X189185Y337451D01*
X190451Y336185D01*
X192105Y335500D01*
X193895D01*
X195549Y336185D01*
X196815Y337451D01*
X197500Y339105D01*
Y340895D01*
X196815Y342549D01*
X195549Y343815D01*
X193895Y344500D01*
D02*
G37*
G36*
X414895Y343500D02*
X413105D01*
X411451Y342815D01*
X410185Y341549D01*
X409500Y339895D01*
Y338105D01*
X410185Y336451D01*
X411451Y335185D01*
X413105Y334500D01*
X414895D01*
X416549Y335185D01*
X417815Y336451D01*
X418500Y338105D01*
Y339895D01*
X417815Y341549D01*
X416549Y342815D01*
X414895Y343500D01*
D02*
G37*
G36*
X140895Y339500D02*
X139105D01*
X137451Y338815D01*
X136185Y337549D01*
X135500Y335895D01*
Y334105D01*
X136185Y332451D01*
X137451Y331185D01*
X139105Y330500D01*
X140895D01*
X142549Y331185D01*
X143815Y332451D01*
X144500Y334105D01*
Y335895D01*
X143815Y337549D01*
X142549Y338815D01*
X140895Y339500D01*
D02*
G37*
G36*
X581724Y333000D02*
X581250D01*
Y316750D01*
X597500D01*
Y317224D01*
X596828Y320605D01*
X595508Y323789D01*
X593593Y326656D01*
X591156Y329093D01*
X588289Y331008D01*
X585105Y332327D01*
X581724Y333000D01*
D02*
G37*
G36*
X578750D02*
X578276D01*
X574895Y332327D01*
X571711Y331008D01*
X568844Y329093D01*
X566407Y326656D01*
X564492Y323789D01*
X563172Y320605D01*
X562500Y317224D01*
Y316750D01*
X578750D01*
Y333000D01*
D02*
G37*
G36*
X390894Y309500D02*
X389104D01*
X387450Y308815D01*
X386184Y307549D01*
X385499Y305895D01*
Y304105D01*
X386184Y302451D01*
X387450Y301185D01*
X389104Y300500D01*
X390894D01*
X392548Y301185D01*
X393814Y302451D01*
X394499Y304105D01*
Y305895D01*
X393814Y307549D01*
X392548Y308815D01*
X390894Y309500D01*
D02*
G37*
G36*
X360894D02*
X359104D01*
X357450Y308815D01*
X356184Y307549D01*
X355499Y305895D01*
Y304105D01*
X356184Y302451D01*
X357450Y301185D01*
X359104Y300500D01*
X360894D01*
X362548Y301185D01*
X363814Y302451D01*
X364499Y304105D01*
Y305895D01*
X363814Y307549D01*
X362548Y308815D01*
X360894Y309500D01*
D02*
G37*
G36*
X597500Y314250D02*
X581250D01*
Y298000D01*
X581724D01*
X585105Y298673D01*
X588289Y299992D01*
X591156Y301907D01*
X593593Y304344D01*
X595508Y307211D01*
X596828Y310395D01*
X597500Y313776D01*
Y314250D01*
D02*
G37*
G36*
X578750D02*
X562500D01*
Y313776D01*
X563172Y310395D01*
X564492Y307211D01*
X566407Y304344D01*
X568844Y301907D01*
X571711Y299992D01*
X574895Y298673D01*
X578276Y298000D01*
X578750D01*
Y314250D01*
D02*
G37*
G36*
X362895Y284500D02*
X361105D01*
X359451Y283815D01*
X358185Y282549D01*
X357500Y280895D01*
Y279105D01*
X358185Y277451D01*
X359451Y276185D01*
X361105Y275500D01*
X362895D01*
X364549Y276185D01*
X365815Y277451D01*
X366500Y279105D01*
Y280895D01*
X365815Y282549D01*
X364549Y283815D01*
X362895Y284500D01*
D02*
G37*
G36*
X50000Y277565D02*
X41250D01*
Y271250D01*
X57400D01*
X57307Y271958D01*
X56551Y273782D01*
X55349Y275349D01*
X53782Y276551D01*
X51958Y277307D01*
X50000Y277565D01*
D02*
G37*
G36*
X38750D02*
X30000D01*
X28042Y277307D01*
X26218Y276551D01*
X24651Y275349D01*
X23449Y273782D01*
X22693Y271958D01*
X22600Y271250D01*
X38750D01*
Y277565D01*
D02*
G37*
G36*
X543646Y277200D02*
X543250D01*
Y265950D01*
X554500D01*
Y266346D01*
X553648Y269525D01*
X552002Y272375D01*
X549675Y274702D01*
X546825Y276348D01*
X543646Y277200D01*
D02*
G37*
G36*
X642350D02*
X641954D01*
X638775Y276348D01*
X635925Y274702D01*
X633597Y272375D01*
X631952Y269525D01*
X631100Y266346D01*
Y265950D01*
X642350D01*
Y277200D01*
D02*
G37*
G36*
X57400Y268750D02*
X41250D01*
Y262435D01*
X50000D01*
X51958Y262693D01*
X53782Y263449D01*
X55349Y264651D01*
X56551Y266218D01*
X57307Y268042D01*
X57400Y268750D01*
D02*
G37*
G36*
X38750D02*
X22600D01*
X22693Y268042D01*
X23449Y266218D01*
X24651Y264651D01*
X26218Y263449D01*
X28042Y262693D01*
X30000Y262435D01*
X38750D01*
Y268750D01*
D02*
G37*
G36*
X642350Y263450D02*
X631100D01*
Y263054D01*
X631952Y259875D01*
X633597Y257025D01*
X635925Y254697D01*
X638775Y253052D01*
X641954Y252200D01*
X642350D01*
Y263450D01*
D02*
G37*
G36*
X554500D02*
X543250D01*
Y252200D01*
X543646D01*
X546825Y253052D01*
X549675Y254697D01*
X552002Y257025D01*
X553648Y259875D01*
X554500Y263054D01*
Y263450D01*
D02*
G37*
G36*
X540750D02*
X529500D01*
Y263054D01*
X530352Y259875D01*
X531997Y257025D01*
X534325Y254697D01*
X537175Y253052D01*
X540354Y252200D01*
X540750D01*
Y263450D01*
D02*
G37*
G36*
X581514Y249000D02*
X581250D01*
Y238750D01*
X591500D01*
Y239014D01*
X590716Y241939D01*
X589202Y244561D01*
X587061Y246702D01*
X584439Y248216D01*
X581514Y249000D01*
D02*
G37*
G36*
X578750D02*
X578486D01*
X575561Y248216D01*
X572939Y246702D01*
X570798Y244561D01*
X569284Y241939D01*
X568500Y239014D01*
Y238750D01*
X578750D01*
Y249000D01*
D02*
G37*
G36*
X367395Y241500D02*
X365605D01*
X363951Y240815D01*
X362685Y239549D01*
X362000Y237895D01*
Y236105D01*
X362685Y234451D01*
X363951Y233185D01*
X365605Y232500D01*
X367395D01*
X369049Y233185D01*
X370315Y234451D01*
X371000Y236105D01*
Y237895D01*
X370315Y239549D01*
X369049Y240815D01*
X367395Y241500D01*
D02*
G37*
G36*
X528895Y247500D02*
X527105D01*
X525451Y246815D01*
X524185Y245549D01*
X523500Y243895D01*
Y242105D01*
X524185Y240451D01*
X525451Y239185D01*
X527105Y238500D01*
X527212D01*
X527288Y238464D01*
X527371Y238418D01*
X527461Y238361D01*
X527536Y238307D01*
X527648Y238215D01*
X527941Y237921D01*
Y232817D01*
X525941Y231481D01*
X525895Y231500D01*
X524105D01*
X522451Y230815D01*
X521185Y229549D01*
X520500Y227895D01*
Y226105D01*
X521185Y224451D01*
X521673Y223963D01*
X521712Y223901D01*
X521458Y222990D01*
X521320Y222812D01*
X520650Y222043D01*
X517200D01*
X516342Y221872D01*
X515799Y221510D01*
X515745Y221479D01*
X515735Y221467D01*
X515614Y221386D01*
X515400Y221066D01*
X515363Y221060D01*
X515350Y221059D01*
X513000D01*
X511829Y220826D01*
X510837Y220163D01*
X510837Y220163D01*
X441985Y151311D01*
X441322Y150318D01*
X441089Y149148D01*
X441089Y149148D01*
Y144415D01*
X386336Y89662D01*
X386295Y89632D01*
X386238Y89598D01*
X386192Y89574D01*
X386156Y89560D01*
X386126Y89551D01*
X386101Y89545D01*
X386075Y89542D01*
X385957Y89538D01*
X385795Y89500D01*
X385105D01*
X383451Y88815D01*
X382185Y87549D01*
X381500Y85895D01*
Y84105D01*
X382185Y82451D01*
X383451Y81185D01*
X385105Y80500D01*
X386895D01*
X388549Y81185D01*
X389815Y82451D01*
X390500Y84105D01*
Y84795D01*
X390538Y84957D01*
X390542Y85075D01*
X390545Y85101D01*
X390550Y85126D01*
X390560Y85155D01*
X390574Y85192D01*
X390597Y85238D01*
X390632Y85295D01*
X390662Y85336D01*
X446311Y140985D01*
X446311Y140985D01*
X446974Y141977D01*
X447207Y143148D01*
X447207Y143148D01*
Y147881D01*
X513640Y214314D01*
X514941Y214512D01*
X515745Y214520D01*
X515800Y214490D01*
X516342Y214128D01*
X517200Y213957D01*
X520800D01*
X521658Y214128D01*
X522000Y214356D01*
X522342Y214128D01*
X523200Y213957D01*
X526800D01*
X527658Y214128D01*
X528000Y214356D01*
X528342Y214128D01*
X529200Y213957D01*
X532800D01*
X533658Y214128D01*
X534386Y214614D01*
X534872Y215342D01*
X535043Y216200D01*
Y219800D01*
X534872Y220658D01*
X534510Y221201D01*
X534479Y221255D01*
X534467Y221265D01*
X534386Y221386D01*
X534066Y221600D01*
X534060Y221637D01*
X534059Y221650D01*
Y239188D01*
X534059Y239188D01*
X533826Y240359D01*
X533163Y241351D01*
X533163Y241351D01*
X532473Y242041D01*
X532500Y242105D01*
Y243895D01*
X531815Y245549D01*
X530549Y246815D01*
X528895Y247500D01*
D02*
G37*
G36*
X591500Y236250D02*
X581250D01*
Y226000D01*
X581514D01*
X584439Y226784D01*
X587061Y228298D01*
X589202Y230439D01*
X590716Y233061D01*
X591500Y235986D01*
Y236250D01*
D02*
G37*
G36*
X578750D02*
X568500D01*
Y235986D01*
X569284Y233061D01*
X570798Y230439D01*
X572939Y228298D01*
X575561Y226784D01*
X578486Y226000D01*
X578750D01*
Y236250D01*
D02*
G37*
G36*
X643895Y224500D02*
X642105D01*
X640451Y223815D01*
X639185Y222549D01*
X638500Y220895D01*
Y219105D01*
X639185Y217451D01*
X640451Y216185D01*
X642105Y215500D01*
X643895D01*
X645549Y216185D01*
X646815Y217451D01*
X647500Y219105D01*
Y220895D01*
X646815Y222549D01*
X645549Y223815D01*
X643895Y224500D01*
D02*
G37*
G36*
X581448Y216000D02*
X578552D01*
X575754Y215250D01*
X573246Y213802D01*
X571198Y211754D01*
X569750Y209246D01*
X569000Y206448D01*
Y203552D01*
X569750Y200754D01*
X571198Y198246D01*
X573246Y196198D01*
X575754Y194750D01*
X578552Y194000D01*
X581448D01*
X584246Y194750D01*
X586754Y196198D01*
X588802Y198246D01*
X590250Y200754D01*
X591000Y203552D01*
Y206448D01*
X590250Y209246D01*
X588802Y211754D01*
X586754Y213802D01*
X584246Y215250D01*
X581448Y216000D01*
D02*
G37*
G36*
X74750Y192076D02*
X69500D01*
Y184500D01*
X83411D01*
X83275Y185534D01*
X82393Y187663D01*
X80991Y189491D01*
X79163Y190893D01*
X77034Y191775D01*
X74750Y192076D01*
D02*
G37*
G36*
X67000D02*
X61750D01*
X59466Y191775D01*
X57337Y190893D01*
X55509Y189491D01*
X54107Y187663D01*
X53225Y185534D01*
X53089Y184500D01*
X67000D01*
Y192076D01*
D02*
G37*
G36*
X24250Y192278D02*
X19000D01*
Y184450D01*
X33163D01*
X33018Y185550D01*
X32111Y187739D01*
X30669Y189619D01*
X28789Y191061D01*
X26600Y191968D01*
X24250Y192278D01*
D02*
G37*
G36*
X419895Y188500D02*
X418105D01*
X416451Y187815D01*
X415185Y186549D01*
X414500Y184895D01*
Y183105D01*
X415185Y181451D01*
X416451Y180185D01*
X418105Y179500D01*
X419895D01*
X421549Y180185D01*
X422815Y181451D01*
X423500Y183105D01*
Y184895D01*
X422815Y186549D01*
X421549Y187815D01*
X419895Y188500D01*
D02*
G37*
G36*
X543646Y188300D02*
X543250D01*
Y177050D01*
X554500D01*
Y177446D01*
X553648Y180625D01*
X552002Y183475D01*
X549675Y185802D01*
X546825Y187448D01*
X543646Y188300D01*
D02*
G37*
G36*
X540750D02*
X540354D01*
X537175Y187448D01*
X534325Y185802D01*
X531997Y183475D01*
X530352Y180625D01*
X529500Y177446D01*
Y177050D01*
X540750D01*
Y188300D01*
D02*
G37*
G36*
X642350D02*
X641954D01*
X638775Y187448D01*
X635925Y185802D01*
X633597Y183475D01*
X631952Y180625D01*
X631100Y177446D01*
Y177050D01*
X642350D01*
Y188300D01*
D02*
G37*
G36*
X48877Y182209D02*
X47623D01*
X46453Y181976D01*
X45295Y181496D01*
X44303Y180833D01*
X43417Y179947D01*
X42754Y178955D01*
X42274Y177797D01*
X42041Y176627D01*
Y175373D01*
X40478Y173565D01*
X34250D01*
Y167250D01*
X50400D01*
X50307Y167958D01*
X50277Y168031D01*
X50251Y168257D01*
X51205Y170504D01*
X52197Y171167D01*
X52937Y171907D01*
X53266Y172066D01*
X54714Y172168D01*
X55415Y171963D01*
X55653Y171653D01*
X57585Y170170D01*
X59835Y169238D01*
X61000Y169085D01*
Y179750D01*
X63500D01*
Y169085D01*
X64665Y169238D01*
X66915Y170170D01*
X68847Y171653D01*
X70330Y173585D01*
X70677Y174424D01*
X74750D01*
X77034Y174725D01*
X79163Y175607D01*
X80991Y177009D01*
X82393Y178837D01*
X83275Y180966D01*
X83411Y182000D01*
X52228D01*
X50949Y181602D01*
X50047Y181976D01*
X48877Y182209D01*
D02*
G37*
G36*
X642350Y174550D02*
X631100D01*
Y174154D01*
X631952Y170975D01*
X633597Y168125D01*
X635925Y165798D01*
X638775Y164152D01*
X641954Y163300D01*
X642350D01*
Y174550D01*
D02*
G37*
G36*
X554500D02*
X543250D01*
Y163300D01*
X543646D01*
X546825Y164152D01*
X549675Y165798D01*
X552002Y168125D01*
X553648Y170975D01*
X554500Y174154D01*
Y174550D01*
D02*
G37*
G36*
X540750D02*
X529500D01*
Y174154D01*
X530352Y170975D01*
X531997Y168125D01*
X534325Y165798D01*
X537175Y164152D01*
X540354Y163300D01*
X540750D01*
Y174550D01*
D02*
G37*
G36*
X206895Y168500D02*
X205105D01*
X203451Y167815D01*
X202185Y166549D01*
X201500Y164895D01*
Y163105D01*
X202185Y161451D01*
X203451Y160185D01*
X205105Y159500D01*
X206895D01*
X208549Y160185D01*
X209815Y161451D01*
X210500Y163105D01*
Y164895D01*
X209815Y166549D01*
X208549Y167815D01*
X206895Y168500D01*
D02*
G37*
G36*
X385895Y130500D02*
X384105D01*
X382451Y129815D01*
X381185Y128549D01*
X380500Y126895D01*
Y125105D01*
X381185Y123451D01*
X382451Y122185D01*
X384105Y121500D01*
X385895D01*
X387549Y122185D01*
X388815Y123451D01*
X389500Y125105D01*
Y126895D01*
X388815Y128549D01*
X387549Y129815D01*
X385895Y130500D01*
D02*
G37*
G36*
X435895Y124500D02*
X434105D01*
X432451Y123815D01*
X431185Y122549D01*
X430500Y120895D01*
Y119105D01*
X431185Y117451D01*
X431889Y116747D01*
X432252Y115500D01*
X431889Y114253D01*
X431185Y113549D01*
X430500Y111895D01*
Y110105D01*
X431185Y108451D01*
X432451Y107185D01*
X434105Y106500D01*
X435895D01*
X437549Y107185D01*
X438815Y108451D01*
X439500Y110105D01*
Y111895D01*
X438815Y113549D01*
X438111Y114253D01*
X437748Y115500D01*
X438111Y116747D01*
X438815Y117451D01*
X439500Y119105D01*
Y120895D01*
X438815Y122549D01*
X437549Y123815D01*
X435895Y124500D01*
D02*
G37*
G36*
X24250Y105878D02*
X19000D01*
Y98050D01*
X33163D01*
X33018Y99150D01*
X32111Y101339D01*
X30669Y103219D01*
X28789Y104662D01*
X26600Y105568D01*
X24250Y105878D01*
D02*
G37*
G36*
X471005Y152039D02*
X470225Y151884D01*
X468387Y151123D01*
X467726Y150681D01*
X466319Y149274D01*
X466319Y149274D01*
X466043Y148862D01*
X465877Y148612D01*
X465461Y147608D01*
X465420Y147402D01*
X465341Y147206D01*
X464996Y145378D01*
X464998Y145187D01*
X464961Y145000D01*
X464961Y95440D01*
X464862Y92894D01*
X464073Y87825D01*
X462525Y82975D01*
X460232Y78385D01*
X458836Y76250D01*
X454231Y69770D01*
X453312Y68628D01*
X451058Y66672D01*
X448460Y65331D01*
X445610Y64639D01*
X445610Y64639D01*
X445610D01*
X445559Y64626D01*
X444095Y64539D01*
X442252Y64539D01*
X434500Y64539D01*
X433860Y64539D01*
X433663Y64500D01*
X433462D01*
X432206Y64250D01*
X432021Y64173D01*
X431824Y64134D01*
X430641Y63644D01*
X430474Y63533D01*
X430288Y63456D01*
X429223Y62744D01*
X429081Y62602D01*
X428914Y62491D01*
X428009Y61585D01*
X427897Y61418D01*
X427755Y61276D01*
X427044Y60212D01*
X426967Y60026D01*
X426856Y59859D01*
X426366Y58676D01*
X426326Y58479D01*
X426250Y58293D01*
X426241Y58248D01*
X426241Y58179D01*
X426218Y58113D01*
X425978Y56263D01*
X425987Y56130D01*
X425961Y56000D01*
Y41000D01*
X425961Y39806D01*
X426116Y39026D01*
X427029Y36821D01*
X427471Y36159D01*
X427471Y36159D01*
X429159Y34471D01*
X429821Y34030D01*
X432026Y33116D01*
X432806Y32961D01*
X434000Y32961D01*
X434000Y32961D01*
X503936D01*
X504133Y33000D01*
X504333D01*
X506169Y33365D01*
X506354Y33442D01*
X506551Y33481D01*
X508280Y34197D01*
X508447Y34309D01*
X508633Y34386D01*
X510189Y35425D01*
X510331Y35567D01*
X510498Y35679D01*
X511821Y37002D01*
X511933Y37169D01*
X512075Y37311D01*
X513114Y38867D01*
X513191Y39053D01*
X513303Y39220D01*
X514019Y40949D01*
X514058Y41146D01*
X514135Y41331D01*
X514500Y43166D01*
Y43367D01*
X514539Y43564D01*
Y70525D01*
X514573Y71900D01*
X514845Y74661D01*
X515381Y77357D01*
X516179Y79988D01*
X517231Y82528D01*
X518527Y84953D01*
X520055Y87239D01*
X521815Y89383D01*
X522763Y90380D01*
X525725Y93341D01*
X526862Y94372D01*
X529454Y96104D01*
X532287Y97277D01*
X535345Y97885D01*
X536882Y97961D01*
X605985D01*
X606182Y98000D01*
X606383D01*
X608315Y98384D01*
X608500Y98461D01*
X608697Y98500D01*
X610517Y99254D01*
X610684Y99366D01*
X610870Y99443D01*
X612508Y100537D01*
X612650Y100679D01*
X612817Y100791D01*
X614209Y102183D01*
X614321Y102350D01*
X614463Y102492D01*
X615557Y104130D01*
X615634Y104316D01*
X615746Y104483D01*
X616500Y106303D01*
X616539Y106500D01*
X616616Y106685D01*
X617000Y108617D01*
Y108818D01*
X617039Y109015D01*
X617039Y140000D01*
X617039Y140985D01*
X617000Y141182D01*
Y141383D01*
X616616Y143315D01*
X616539Y143500D01*
X616500Y143697D01*
X615746Y145517D01*
X615634Y145684D01*
X615557Y145870D01*
X614463Y147507D01*
X614321Y147649D01*
X614209Y147816D01*
X612816Y149209D01*
X612649Y149321D01*
X612507Y149463D01*
X610869Y150557D01*
X610684Y150634D01*
X610517Y150746D01*
X608697Y151499D01*
X608500Y151539D01*
X608314Y151615D01*
X607245Y151828D01*
X607139D01*
X607037Y151858D01*
X605195Y152030D01*
X605100Y152020D01*
X605006Y152039D01*
X605002D01*
X604999Y152039D01*
X472000Y152039D01*
X471005Y152039D01*
D02*
G37*
G36*
X33163Y95550D02*
X19000D01*
Y87722D01*
X24250D01*
X26600Y88032D01*
X28789Y88939D01*
X30669Y90381D01*
X32111Y92261D01*
X33018Y94451D01*
X33163Y95550D01*
D02*
G37*
G36*
X543646Y86700D02*
X543250D01*
Y75450D01*
X554500D01*
Y75846D01*
X553648Y79025D01*
X552002Y81875D01*
X549675Y84202D01*
X546825Y85848D01*
X543646Y86700D01*
D02*
G37*
G36*
X540750D02*
X540354D01*
X537175Y85848D01*
X534325Y84202D01*
X531997Y81875D01*
X530352Y79025D01*
X529500Y75846D01*
Y75450D01*
X540750D01*
Y86700D01*
D02*
G37*
G36*
X642350D02*
X641954D01*
X638775Y85848D01*
X635925Y84202D01*
X633597Y81875D01*
X631952Y79025D01*
X631100Y75846D01*
Y75450D01*
X642350D01*
Y86700D01*
D02*
G37*
G36*
X420895Y72500D02*
X419105D01*
X417451Y71815D01*
X416185Y70549D01*
X415500Y68895D01*
Y67105D01*
X416185Y65451D01*
X417451Y64185D01*
X419105Y63500D01*
X420895D01*
X422549Y64185D01*
X423815Y65451D01*
X424500Y67105D01*
Y68895D01*
X423815Y70549D01*
X422549Y71815D01*
X420895Y72500D01*
D02*
G37*
G36*
X642350Y72950D02*
X631100D01*
Y72554D01*
X631952Y69375D01*
X633597Y66525D01*
X635925Y64198D01*
X638775Y62552D01*
X641954Y61700D01*
X642350D01*
Y72950D01*
D02*
G37*
G36*
X554500D02*
X543250D01*
Y61700D01*
X543646D01*
X546825Y62552D01*
X549675Y64198D01*
X552002Y66525D01*
X553648Y69375D01*
X554500Y72554D01*
Y72950D01*
D02*
G37*
G36*
X540750D02*
X529500D01*
Y72554D01*
X530352Y69375D01*
X531997Y66525D01*
X534325Y64198D01*
X537175Y62552D01*
X540354Y61700D01*
X540750D01*
Y72950D01*
D02*
G37*
G36*
X440895Y28500D02*
X439105D01*
X437451Y27815D01*
X436185Y26549D01*
X435500Y24895D01*
Y23105D01*
X436185Y21451D01*
X437451Y20185D01*
X439105Y19500D01*
X440895D01*
X442549Y20185D01*
X443815Y21451D01*
X444500Y23105D01*
Y24895D01*
X443815Y26549D01*
X442549Y27815D01*
X440895Y28500D01*
D02*
G37*
G36*
X401895Y19500D02*
X400105D01*
X398451Y18815D01*
X397185Y17549D01*
X396500Y15895D01*
Y14105D01*
X397185Y12451D01*
X398451Y11185D01*
X400105Y10500D01*
X401895D01*
X403549Y11185D01*
X404815Y12451D01*
X405500Y14105D01*
Y15895D01*
X404815Y17549D01*
X403549Y18815D01*
X401895Y19500D01*
D02*
G37*
%LPD*%
G36*
X102179Y627051D02*
X102021Y627161D01*
X101851Y627232D01*
X101671Y627263D01*
X101478Y627255D01*
X101275Y627207D01*
X101060Y627119D01*
X100834Y626992D01*
X100596Y626826D01*
X100348Y626619D01*
X100087Y626373D01*
X99022Y628137D01*
X99271Y628400D01*
X99488Y628659D01*
X99674Y628915D01*
X99827Y629167D01*
X99948Y629416D01*
X100037Y629660D01*
X100094Y629901D01*
X100119Y630139D01*
X100113Y630372D01*
X100074Y630602D01*
X102179Y627051D01*
D02*
G37*
G36*
X139887Y630372D02*
X139881Y630139D01*
X139906Y629901D01*
X139963Y629660D01*
X140052Y629416D01*
X140173Y629167D01*
X140326Y628915D01*
X140511Y628659D01*
X140729Y628400D01*
X140977Y628137D01*
X139912Y626373D01*
X139652Y626619D01*
X139404Y626826D01*
X139166Y626992D01*
X138940Y627119D01*
X138725Y627207D01*
X138522Y627255D01*
X138329Y627263D01*
X138149Y627232D01*
X137979Y627161D01*
X137821Y627051D01*
X139926Y630602D01*
X139887Y630372D01*
D02*
G37*
G36*
X84615Y625511D02*
X84360Y625320D01*
X84135Y625084D01*
X83940Y624803D01*
X83775Y624477D01*
X83640Y624107D01*
X83535Y623692D01*
X83460Y623232D01*
X83415Y622728D01*
X83400Y622178D01*
X80400D01*
X80385Y622728D01*
X80340Y623232D01*
X80265Y623692D01*
X80160Y624107D01*
X80025Y624477D01*
X79860Y624803D01*
X79665Y625084D01*
X79440Y625320D01*
X79185Y625511D01*
X78900Y625658D01*
X84900D01*
X84615Y625511D01*
D02*
G37*
G36*
X145007Y613543D02*
X145030Y613304D01*
X145068Y613077D01*
X145120Y612860D01*
X145188Y612654D01*
X145270Y612459D01*
X145367Y612275D01*
X145480Y612101D01*
X145608Y611938D01*
X145750Y611785D01*
X142250D01*
X142393Y611938D01*
X142520Y612101D01*
X142633Y612275D01*
X142730Y612459D01*
X142812Y612654D01*
X142880Y612860D01*
X142933Y613077D01*
X142970Y613304D01*
X142992Y613543D01*
X143000Y613791D01*
X145000D01*
X145007Y613543D01*
D02*
G37*
G36*
X97008D02*
X97030Y613304D01*
X97067Y613077D01*
X97120Y612860D01*
X97188Y612654D01*
X97270Y612459D01*
X97367Y612275D01*
X97480Y612101D01*
X97607Y611938D01*
X97750Y611785D01*
X94250D01*
X94392Y611938D01*
X94520Y612101D01*
X94633Y612275D01*
X94730Y612459D01*
X94812Y612654D01*
X94880Y612860D01*
X94932Y613077D01*
X94970Y613304D01*
X94993Y613543D01*
X95000Y613791D01*
X97000D01*
X97008Y613543D01*
D02*
G37*
G36*
X146507Y609767D02*
X146532Y609561D01*
X146575Y609358D01*
X146637Y609159D01*
X146717Y608963D01*
X146814Y608769D01*
X146931Y608579D01*
X147065Y608392D01*
X147217Y608208D01*
X147388Y608026D01*
X145974Y606612D01*
X145793Y606783D01*
X145608Y606935D01*
X145421Y607069D01*
X145231Y607186D01*
X145037Y607283D01*
X144841Y607363D01*
X144641Y607425D01*
X144439Y607468D01*
X144234Y607493D01*
X144025Y607500D01*
X146500Y609975D01*
X146507Y609767D01*
D02*
G37*
G36*
X95975Y607500D02*
X95766Y607493D01*
X95561Y607468D01*
X95359Y607425D01*
X95159Y607363D01*
X94963Y607283D01*
X94769Y607186D01*
X94579Y607069D01*
X94392Y606935D01*
X94207Y606783D01*
X94026Y606612D01*
X92612Y608026D01*
X92783Y608208D01*
X92935Y608392D01*
X93069Y608579D01*
X93186Y608769D01*
X93283Y608963D01*
X93363Y609159D01*
X93425Y609358D01*
X93468Y609561D01*
X93493Y609767D01*
X93500Y609975D01*
X95975Y607500D01*
D02*
G37*
G36*
X505215Y587250D02*
X505062Y587393D01*
X504899Y587520D01*
X504725Y587632D01*
X504541Y587730D01*
X504346Y587812D01*
X504140Y587880D01*
X503923Y587933D01*
X503696Y587970D01*
X503457Y587993D01*
X503209Y588000D01*
Y590000D01*
X503457Y590008D01*
X503696Y590030D01*
X503923Y590067D01*
X504140Y590120D01*
X504346Y590187D01*
X504541Y590270D01*
X504725Y590368D01*
X504899Y590480D01*
X505062Y590607D01*
X505215Y590750D01*
Y587250D01*
D02*
G37*
G36*
X329608Y583062D02*
X329480Y582899D01*
X329367Y582725D01*
X329270Y582541D01*
X329188Y582346D01*
X329120Y582140D01*
X329067Y581923D01*
X329030Y581696D01*
X329007Y581457D01*
X329000Y581209D01*
X327000D01*
X326992Y581457D01*
X326970Y581696D01*
X326932Y581923D01*
X326880Y582140D01*
X326813Y582346D01*
X326730Y582541D01*
X326632Y582725D01*
X326520Y582899D01*
X326393Y583062D01*
X326250Y583215D01*
X329750D01*
X329608Y583062D01*
D02*
G37*
G36*
X499975Y567500D02*
X499767Y567493D01*
X499561Y567468D01*
X499358Y567425D01*
X499159Y567363D01*
X498963Y567283D01*
X498769Y567186D01*
X498579Y567069D01*
X498392Y566935D01*
X498208Y566783D01*
X498026Y566612D01*
X496612Y568026D01*
X496783Y568208D01*
X496935Y568392D01*
X497069Y568579D01*
X497186Y568769D01*
X497283Y568963D01*
X497363Y569159D01*
X497425Y569359D01*
X497468Y569561D01*
X497493Y569767D01*
X497500Y569975D01*
X499975Y567500D01*
D02*
G37*
G36*
X201939Y491608D02*
X202102Y491480D01*
X202276Y491367D01*
X202460Y491270D01*
X202655Y491188D01*
X202861Y491120D01*
X203078Y491068D01*
X203305Y491030D01*
X203543Y491007D01*
X203792Y491000D01*
Y489000D01*
X203543Y488993D01*
X203305Y488970D01*
X203078Y488932D01*
X202861Y488880D01*
X202655Y488812D01*
X202460Y488730D01*
X202276Y488633D01*
X202102Y488520D01*
X201939Y488392D01*
X201786Y488250D01*
Y491750D01*
X201939Y491608D01*
D02*
G37*
G36*
X320420Y454301D02*
X320413Y454103D01*
X320428Y453907D01*
X320465Y453712D01*
X320525Y453520D01*
X320607Y453329D01*
X320712Y453139D01*
X320839Y452952D01*
X320989Y452766D01*
X321160Y452582D01*
X319445Y451469D01*
X319266Y451640D01*
X318902Y451938D01*
X318716Y452066D01*
X318528Y452181D01*
X318337Y452281D01*
X318144Y452367D01*
X317948Y452439D01*
X317750Y452497D01*
X317550Y452541D01*
X320450Y454501D01*
X320420Y454301D01*
D02*
G37*
G36*
X87941Y567905D02*
Y443748D01*
X87486Y443560D01*
X85941Y443117D01*
X83860Y444319D01*
X81316Y445000D01*
X81250D01*
Y435000D01*
Y425000D01*
X81316D01*
X83860Y425681D01*
X85941Y426883D01*
X87486Y426440D01*
X87941Y426252D01*
Y345000D01*
X87941Y345000D01*
X88174Y343829D01*
X88837Y342837D01*
X140174Y291500D01*
X139346Y289500D01*
X139105D01*
X137451Y288815D01*
X136185Y287549D01*
X135500Y285895D01*
Y284105D01*
X136185Y282451D01*
X137451Y281185D01*
X139105Y280500D01*
X140895D01*
X142549Y281185D01*
X143815Y282451D01*
X143953Y282784D01*
X146348Y283589D01*
X146941Y283192D01*
Y275000D01*
X146941Y275000D01*
X147174Y273829D01*
X147837Y272837D01*
X234330Y186344D01*
X233861Y183985D01*
X233451Y183815D01*
X232185Y182549D01*
X231500Y180895D01*
Y179105D01*
X232185Y177451D01*
X233451Y176185D01*
X235105Y175500D01*
X236895D01*
X238549Y176185D01*
X239815Y177451D01*
X239985Y177861D01*
X242344Y178330D01*
X281941Y138733D01*
Y132650D01*
X281940Y132637D01*
X281934Y132600D01*
X281614Y132386D01*
X281533Y132265D01*
X281521Y132255D01*
X281490Y132200D01*
X281128Y131658D01*
X280957Y130800D01*
Y127200D01*
X281128Y126342D01*
X281356Y126000D01*
X281128Y125658D01*
X280957Y124800D01*
Y121200D01*
X281128Y120342D01*
X281378Y119967D01*
X281041Y118847D01*
X280441Y118043D01*
X277200D01*
X276342Y117872D01*
X276000Y117644D01*
X275658Y117872D01*
X274800Y118043D01*
X271200D01*
X270342Y117872D01*
X269614Y117386D01*
X269128Y116658D01*
X268957Y115800D01*
Y114675D01*
X268934Y114582D01*
X268895Y114470D01*
X268837Y114342D01*
X268757Y114196D01*
X268651Y114034D01*
X268517Y113855D01*
X268447Y113773D01*
X267507Y112832D01*
X265895Y113500D01*
X264105D01*
X264069Y113485D01*
X262069Y114821D01*
Y132500D01*
X261797Y133866D01*
X261023Y135023D01*
X260547Y135500D01*
X261375Y137500D01*
X261895D01*
X263549Y138185D01*
X264815Y139451D01*
X265500Y141105D01*
Y142895D01*
X264815Y144549D01*
X263549Y145815D01*
X261895Y146500D01*
X260105D01*
X258451Y145815D01*
X257185Y144549D01*
X256500Y142895D01*
Y142375D01*
X254500Y141547D01*
X213523Y182523D01*
X212366Y183297D01*
X211000Y183569D01*
X145478D01*
X107523Y221523D01*
X106366Y222297D01*
X105000Y222569D01*
X77524D01*
X77384Y223275D01*
X77384Y223275D01*
X76623Y225113D01*
X76181Y225774D01*
X74774Y227181D01*
X74113Y227623D01*
X72275Y228384D01*
X71495Y228539D01*
X70569Y230143D01*
Y427482D01*
X72569Y428289D01*
X73860Y426998D01*
X76140Y425681D01*
X78684Y425000D01*
X78750D01*
Y435000D01*
Y445000D01*
X78684D01*
X76140Y444319D01*
X73860Y443002D01*
X72569Y441711D01*
X70569Y442518D01*
Y458522D01*
X84423Y472377D01*
X85197Y473534D01*
X85469Y474900D01*
Y568122D01*
X87469Y568683D01*
X87941Y567905D01*
D02*
G37*
G36*
X329007Y425542D02*
X329030Y425304D01*
X329067Y425077D01*
X329120Y424860D01*
X329188Y424654D01*
X329270Y424459D01*
X329367Y424275D01*
X329480Y424101D01*
X329608Y423938D01*
X329750Y423785D01*
X326250D01*
X326393Y423938D01*
X326520Y424101D01*
X326632Y424275D01*
X326730Y424459D01*
X326813Y424654D01*
X326880Y424860D01*
X326932Y425077D01*
X326970Y425304D01*
X326992Y425542D01*
X327000Y425791D01*
X329000D01*
X329007Y425542D01*
D02*
G37*
G36*
X356405Y414929D02*
X356234Y414748D01*
X356082Y414564D01*
X355947Y414377D01*
X355830Y414187D01*
X355730Y413994D01*
X355648Y413797D01*
X355585Y413598D01*
X355539Y413396D01*
X355510Y413190D01*
X355500Y412981D01*
X353069Y415499D01*
X353277Y415503D01*
X353482Y415525D01*
X353685Y415565D01*
X353884Y415625D01*
X354080Y415703D01*
X354274Y415799D01*
X354464Y415914D01*
X354652Y416047D01*
X354836Y416199D01*
X355018Y416370D01*
X356405Y414929D01*
D02*
G37*
G36*
X353215Y404250D02*
X353062Y404393D01*
X352899Y404520D01*
X352725Y404632D01*
X352541Y404730D01*
X352346Y404813D01*
X352140Y404880D01*
X351923Y404933D01*
X351696Y404970D01*
X351457Y404992D01*
X351209Y405000D01*
Y407000D01*
X351457Y407007D01*
X351696Y407030D01*
X351923Y407067D01*
X352140Y407120D01*
X352346Y407188D01*
X352541Y407270D01*
X352725Y407368D01*
X352899Y407480D01*
X353062Y407607D01*
X353215Y407750D01*
Y404250D01*
D02*
G37*
G36*
X305991Y394509D02*
X305897Y394629D01*
X305788Y394737D01*
X305664Y394832D01*
X305524Y394914D01*
X305369Y394983D01*
X305199Y395040D01*
X305014Y395084D01*
X304813Y395116D01*
X304597Y395135D01*
X304366Y395141D01*
Y396641D01*
X304594Y396648D01*
X304806Y396667D01*
X305004Y396699D01*
X305186Y396744D01*
X305352Y396802D01*
X305504Y396872D01*
X305641Y396956D01*
X305762Y397052D01*
X305868Y397161D01*
X305960Y397283D01*
X305991Y394509D01*
D02*
G37*
G36*
X470215Y393250D02*
X470062Y393392D01*
X469899Y393520D01*
X469725Y393633D01*
X469541Y393730D01*
X469346Y393812D01*
X469140Y393880D01*
X468923Y393932D01*
X468696Y393970D01*
X468457Y393993D01*
X468209Y394000D01*
Y396000D01*
X468457Y396007D01*
X468696Y396030D01*
X468923Y396068D01*
X469140Y396120D01*
X469346Y396188D01*
X469541Y396270D01*
X469725Y396367D01*
X469899Y396480D01*
X470062Y396608D01*
X470215Y396750D01*
Y393250D01*
D02*
G37*
G36*
X351526Y389556D02*
X351329Y389507D01*
X351134Y389444D01*
X350941Y389367D01*
X350750Y389278D01*
X350561Y389174D01*
X350374Y389058D01*
X350190Y388928D01*
X350008Y388784D01*
X349649Y388456D01*
X347882Y389518D01*
X348055Y389703D01*
X348204Y389888D01*
X348330Y390076D01*
X348433Y390264D01*
X348513Y390454D01*
X348569Y390646D01*
X348603Y390839D01*
X348614Y391033D01*
X348602Y391228D01*
X348567Y391425D01*
X351526Y389556D01*
D02*
G37*
G36*
X304809Y387796D02*
X304681Y388010D01*
X304543Y388201D01*
X304395Y388369D01*
X304238Y388515D01*
X304072Y388639D01*
X303895Y388740D01*
X303710Y388819D01*
X303514Y388875D01*
X303309Y388908D01*
X303094Y388920D01*
X303442Y390420D01*
X303650Y390427D01*
X303862Y390449D01*
X304080Y390486D01*
X304302Y390538D01*
X304530Y390605D01*
X305000Y390783D01*
X305243Y390895D01*
X305744Y391162D01*
X304809Y387796D01*
D02*
G37*
G36*
X54926Y370933D02*
X55010Y370809D01*
X55122Y370700D01*
X55260Y370605D01*
X55426Y370525D01*
X55618Y370460D01*
X55837Y370409D01*
X56084Y370372D01*
X56357Y370350D01*
X56657Y370343D01*
Y368343D01*
X56290Y368336D01*
X55649Y368278D01*
X55374Y368227D01*
X55129Y368161D01*
X54914Y368081D01*
X54730Y367986D01*
X54577Y367877D01*
X54453Y367753D01*
X54360Y367615D01*
X54868Y371071D01*
X54926Y370933D01*
D02*
G37*
G36*
X58208Y369217D02*
X58392Y369065D01*
X58579Y368931D01*
X58769Y368815D01*
X58963Y368717D01*
X59159Y368637D01*
X59359Y368575D01*
X59561Y368532D01*
X59767Y368507D01*
X59975Y368500D01*
X57500Y366025D01*
X57493Y366233D01*
X57468Y366439D01*
X57425Y366642D01*
X57363Y366841D01*
X57283Y367037D01*
X57186Y367231D01*
X57069Y367421D01*
X56935Y367608D01*
X56783Y367793D01*
X56612Y367974D01*
X58026Y369388D01*
X58208Y369217D01*
D02*
G37*
G36*
X187096Y277871D02*
X186982Y277871D01*
X186519Y277843D01*
X186501Y277836D01*
X186494Y277827D01*
X186103Y279352D01*
X187096Y279371D01*
Y277871D01*
D02*
G37*
G36*
X351628Y278102D02*
X351477Y277960D01*
X351342Y277806D01*
X351223Y277640D01*
X351120Y277462D01*
X351032Y277272D01*
X350961Y277070D01*
X350905Y276857D01*
X350866Y276631D01*
X350842Y276393D01*
X350834Y276143D01*
X348834Y276289D01*
X348827Y276537D01*
X348806Y276775D01*
X348771Y277003D01*
X348722Y277223D01*
X348659Y277432D01*
X348582Y277632D01*
X348492Y277822D01*
X348387Y278002D01*
X348268Y278173D01*
X348135Y278335D01*
X351628Y278102D01*
D02*
G37*
G36*
X187407Y272922D02*
X187261Y272763D01*
X187126Y272590D01*
X187004Y272404D01*
X186893Y272204D01*
X186795Y271991D01*
X186709Y271765D01*
X186635Y271525D01*
X186572Y271271D01*
X186523Y271005D01*
X186485Y270725D01*
X184325Y273479D01*
X184588Y273454D01*
X184841Y273448D01*
X185083Y273462D01*
X185314Y273496D01*
X185535Y273550D01*
X185745Y273624D01*
X185945Y273718D01*
X186135Y273831D01*
X186313Y273965D01*
X186482Y274118D01*
X187407Y272922D01*
D02*
G37*
G36*
X59975Y251500D02*
X59767Y251493D01*
X59561Y251468D01*
X59359Y251425D01*
X59159Y251363D01*
X58963Y251283D01*
X58769Y251185D01*
X58579Y251069D01*
X58392Y250935D01*
X58208Y250783D01*
X58026Y250612D01*
X56612Y252026D01*
X56783Y252208D01*
X56935Y252392D01*
X57069Y252579D01*
X57186Y252769D01*
X57283Y252963D01*
X57363Y253159D01*
X57425Y253358D01*
X57468Y253561D01*
X57493Y253766D01*
X57500Y253975D01*
X59975Y251500D01*
D02*
G37*
G36*
X54453Y252246D02*
X54576Y252122D01*
X54730Y252013D01*
X54914Y251918D01*
X55129Y251838D01*
X55374Y251773D01*
X55649Y251722D01*
X55954Y251686D01*
X56290Y251664D01*
X56656Y251656D01*
Y249656D01*
X56357Y249649D01*
X56083Y249627D01*
X55837Y249591D01*
X55618Y249540D01*
X55426Y249475D01*
X55260Y249394D01*
X55122Y249300D01*
X55011Y249191D01*
X54926Y249067D01*
X54868Y248929D01*
X54360Y252384D01*
X54453Y252246D01*
D02*
G37*
G36*
X346295Y272255D02*
X346775Y271914D01*
Y261101D01*
X341837Y256163D01*
X341174Y255171D01*
X340941Y254000D01*
Y144142D01*
X321624Y124825D01*
X319385Y125341D01*
X318872Y126342D01*
X319043Y127200D01*
Y130800D01*
X318872Y131658D01*
X318510Y132201D01*
X318479Y132255D01*
X318467Y132265D01*
X318386Y132386D01*
X318066Y132600D01*
X318060Y132637D01*
X318059Y132650D01*
Y245955D01*
X320652Y248548D01*
X321603Y248212D01*
X322500Y247568D01*
Y246105D01*
X323185Y244451D01*
X324451Y243185D01*
X326105Y242500D01*
X327895D01*
X329549Y243185D01*
X330815Y244451D01*
X331500Y246105D01*
Y247895D01*
X330815Y249549D01*
X329549Y250815D01*
X327895Y251500D01*
X326432D01*
X325788Y252397D01*
X325452Y253348D01*
X344775Y272671D01*
X346295Y272255D01*
D02*
G37*
G36*
X62500Y211500D02*
X57500Y211500D01*
X56505Y211500D01*
X54668Y212261D01*
X53261Y213668D01*
X52500Y215506D01*
X52500Y216500D01*
X52500Y216500D01*
Y221500D01*
X52500Y222495D01*
X53261Y224332D01*
X54668Y225739D01*
X56505Y226500D01*
X57500Y226500D01*
X57500Y226500D01*
X62500D01*
Y211500D01*
D02*
G37*
G36*
X37847Y220702D02*
X37932Y220660D01*
X38043Y220623D01*
X38177Y220590D01*
X38337Y220562D01*
X38728Y220522D01*
X39218Y220502D01*
X39500Y220500D01*
Y217500D01*
X39218Y217498D01*
X38337Y217437D01*
X38177Y217410D01*
X38043Y217377D01*
X37932Y217340D01*
X37847Y217297D01*
X37785Y217250D01*
Y220750D01*
X37847Y220702D01*
D02*
G37*
G36*
X70500Y226500D02*
X71495Y226500D01*
X73332Y225739D01*
X74739Y224332D01*
X75500Y222495D01*
X75500Y221500D01*
X75500Y221500D01*
X75500Y216500D01*
X75500Y215505D01*
X74739Y213668D01*
X73332Y212261D01*
X71495Y211500D01*
X70500Y211500D01*
X65500D01*
Y226500D01*
X70500Y226500D01*
D02*
G37*
G36*
X522499Y307499D02*
X522499Y307499D01*
X522505D01*
X524317Y307159D01*
X525332Y306739D01*
X526739Y305332D01*
X527500Y303494D01*
X527500Y302500D01*
X527499Y275449D01*
X527499Y275449D01*
X527499Y273763D01*
X526670Y270494D01*
X525061Y267530D01*
X522773Y265052D01*
X521359Y264133D01*
X494194Y249335D01*
X492836Y248389D01*
X491451Y247815D01*
X490185Y246549D01*
X490181Y246539D01*
X432703Y206507D01*
Y206507D01*
X428336Y203581D01*
X419850Y197374D01*
X411721Y190709D01*
X403971Y183605D01*
X400246Y179895D01*
X333159Y111210D01*
X333159Y111210D01*
X332215Y110196D01*
X330479Y108036D01*
X328960Y105718D01*
X327672Y103265D01*
X326626Y100698D01*
X325834Y98043D01*
X325301Y95324D01*
X325033Y92566D01*
X325000Y91180D01*
X325000Y14997D01*
X325000Y14997D01*
X325000Y14369D01*
X324518Y13208D01*
X323628Y12320D01*
X322466Y11841D01*
X321837Y11842D01*
X127672Y12322D01*
X126642Y12324D01*
X124741Y13116D01*
X123287Y14574D01*
X122500Y16477D01*
Y38500D01*
X122750Y40396D01*
X123240Y41579D01*
X123951Y42643D01*
X124856Y43549D01*
X125921Y44260D01*
X127104Y44750D01*
X128360Y45000D01*
X129000Y45000D01*
X283910Y45000D01*
X284185Y44451D01*
X285451Y43185D01*
X287105Y42500D01*
X288895D01*
X290549Y43185D01*
X291815Y44451D01*
X292500Y46105D01*
Y46475D01*
X292739Y46543D01*
X296033Y47995D01*
X299095Y49887D01*
X301868Y52185D01*
X304296Y54842D01*
X306335Y57809D01*
X307196Y59391D01*
X311583Y68166D01*
X311583Y68167D01*
X311583Y68167D01*
X311604Y68214D01*
X312363Y69862D01*
X312399Y69966D01*
X313587Y73387D01*
X314345Y77041D01*
X314500Y79116D01*
Y80500D01*
X314500Y81495D01*
X314601Y81740D01*
X314582Y82628D01*
X314582Y82628D01*
X314582Y82628D01*
X314454Y84951D01*
X314323Y89602D01*
X314315Y94255D01*
X314430Y98907D01*
X314549Y101230D01*
X314549Y101230D01*
X314549D01*
X314657Y103329D01*
X315635Y107417D01*
X317343Y111258D01*
X318733Y113282D01*
X346163Y140712D01*
X346826Y141704D01*
X346856Y141856D01*
X394801Y189801D01*
X394802Y189801D01*
X394802Y189801D01*
X399836Y194835D01*
X410388Y204395D01*
X421400Y213423D01*
X432843Y221896D01*
X438767Y225845D01*
X477847Y251898D01*
X477848Y251898D01*
X477847Y251898D01*
X480336Y253670D01*
X484964Y257655D01*
X489070Y262177D01*
X492590Y267168D01*
X495472Y272553D01*
X497672Y278251D01*
X499158Y284175D01*
X499906Y290237D01*
X500000Y293291D01*
X500000Y301000D01*
X500000D01*
Y301640D01*
X500250Y302896D01*
X500740Y304079D01*
X501451Y305144D01*
X502356Y306049D01*
X503421Y306760D01*
X504604Y307250D01*
X505860Y307500D01*
X522499D01*
X522499Y307499D01*
D02*
G37*
G36*
X296007Y162542D02*
X296030Y162304D01*
X296068Y162077D01*
X296120Y161860D01*
X296187Y161654D01*
X296270Y161459D01*
X296367Y161275D01*
X296480Y161101D01*
X296607Y160938D01*
X296750Y160785D01*
X293250D01*
X293393Y160938D01*
X293520Y161101D01*
X293633Y161275D01*
X293730Y161459D01*
X293813Y161654D01*
X293880Y161860D01*
X293932Y162077D01*
X293970Y162304D01*
X293993Y162542D01*
X294000Y162791D01*
X296000D01*
X296007Y162542D01*
D02*
G37*
G36*
X145975Y157500D02*
X145898Y157490D01*
X145807Y157460D01*
X145703Y157408D01*
X145585Y157336D01*
X145453Y157243D01*
X145147Y156994D01*
X144787Y156662D01*
X144586Y156465D01*
X142465Y158586D01*
X142662Y158787D01*
X143243Y159453D01*
X143336Y159585D01*
X143408Y159703D01*
X143460Y159807D01*
X143490Y159898D01*
X143500Y159975D01*
X145975Y157500D01*
D02*
G37*
G36*
X186215Y156250D02*
X186153Y156298D01*
X186068Y156340D01*
X185957Y156377D01*
X185823Y156410D01*
X185664Y156438D01*
X185272Y156477D01*
X184782Y156497D01*
X184500Y156500D01*
Y159500D01*
X184782Y159502D01*
X185664Y159563D01*
X185823Y159590D01*
X185957Y159622D01*
X186068Y159660D01*
X186153Y159703D01*
X186215Y159750D01*
Y156250D01*
D02*
G37*
G36*
X151573Y153963D02*
X151754Y153866D01*
X151944Y153780D01*
X152142Y153706D01*
X152348Y153643D01*
X152562Y153591D01*
X152784Y153551D01*
X153015Y153523D01*
X153500Y153500D01*
X153949Y151500D01*
X153698Y151491D01*
X153461Y151465D01*
X153239Y151423D01*
X153032Y151362D01*
X152839Y151285D01*
X152661Y151191D01*
X152499Y151080D01*
X152351Y150951D01*
X152218Y150805D01*
X152099Y150642D01*
X151399Y154072D01*
X151573Y153963D01*
D02*
G37*
G36*
X163750Y133250D02*
X158750Y133250D01*
X157755Y133250D01*
X155918Y134011D01*
X154511Y135418D01*
X153750Y137255D01*
X153750Y138250D01*
X153750Y138250D01*
Y143250D01*
X153750Y144244D01*
X154511Y146082D01*
X155918Y147489D01*
X157755Y148250D01*
X158750Y148250D01*
X158750Y148250D01*
X163750D01*
Y133250D01*
D02*
G37*
G36*
X93598Y150009D02*
X93775Y149875D01*
X93963Y149757D01*
X94164Y149656D01*
X94377Y149572D01*
X94602Y149504D01*
X94839Y149453D01*
X95088Y149419D01*
X95349Y149401D01*
X95622Y149399D01*
X93183Y146889D01*
X93174Y147163D01*
X93149Y147426D01*
X93109Y147676D01*
X93053Y147914D01*
X92981Y148140D01*
X92894Y148353D01*
X92791Y148554D01*
X92673Y148743D01*
X92538Y148919D01*
X92388Y149082D01*
X93433Y150159D01*
X93598Y150009D01*
D02*
G37*
G36*
X52967Y147810D02*
X53167Y147640D01*
X53370Y147490D01*
X53576Y147360D01*
X53785Y147250D01*
X53996Y147160D01*
X54210Y147090D01*
X54427Y147040D01*
X54647Y147010D01*
X54869Y147000D01*
Y145500D01*
X54647Y145490D01*
X54427Y145460D01*
X54210Y145410D01*
X53996Y145340D01*
X53785Y145250D01*
X53576Y145140D01*
X53370Y145010D01*
X53167Y144860D01*
X52967Y144690D01*
X52770Y144500D01*
Y148000D01*
X52967Y147810D01*
D02*
G37*
G36*
X89515Y146078D02*
X89562Y145875D01*
X89624Y145676D01*
X89702Y145479D01*
X89795Y145285D01*
X89904Y145094D01*
X89941Y145037D01*
X90486Y145689D01*
X90478Y145445D01*
X90498Y145201D01*
X90544Y144955D01*
X90618Y144709D01*
X90719Y144462D01*
X90848Y144214D01*
X91004Y143966D01*
X91187Y143717D01*
X91397Y143466D01*
X91635Y143215D01*
X90352Y141670D01*
X90099Y141908D01*
X89849Y142114D01*
X89600Y142289D01*
X89354Y142431D01*
X89109Y142542D01*
X88867Y142622D01*
X88627Y142669D01*
X88389Y142685D01*
X88153Y142669D01*
X87919Y142622D01*
X88504Y143321D01*
X88332Y143399D01*
X88137Y143465D01*
X87939Y143511D01*
X87740Y143536D01*
X87538Y143539D01*
X87333Y143522D01*
X89484Y146284D01*
X89515Y146078D01*
D02*
G37*
G36*
X250941Y105733D02*
Y69603D01*
X248941Y68995D01*
X248116Y69547D01*
X246750Y69819D01*
X233515D01*
X232149Y69547D01*
X230991Y68773D01*
X228218Y66000D01*
X228105D01*
X226451Y65315D01*
X225185Y64049D01*
X224500Y62395D01*
Y60605D01*
X223467Y59059D01*
X173267D01*
X169831Y62494D01*
X169868Y62910D01*
X170273Y64028D01*
X170654Y64500D01*
X170895D01*
X171313Y64673D01*
X171756Y64761D01*
X172132Y65012D01*
X172549Y65185D01*
X172868Y65505D01*
X173244Y65756D01*
X173495Y66131D01*
X173815Y66451D01*
X173988Y66868D01*
X174239Y67244D01*
X174327Y67687D01*
X174500Y68105D01*
Y68557D01*
X174588Y69000D01*
Y81000D01*
X174500Y81443D01*
Y81895D01*
X174327Y82313D01*
X174239Y82756D01*
X173988Y83132D01*
X173815Y83549D01*
X173495Y83869D01*
X173244Y84244D01*
X168244Y89244D01*
X167161Y89968D01*
X166693Y90484D01*
X166203Y92388D01*
X166236Y92469D01*
X171634Y97866D01*
X171634Y97866D01*
X172518Y99189D01*
X172828Y100750D01*
Y101855D01*
X173750Y103711D01*
X178750D01*
X179744Y103711D01*
X180525Y103866D01*
X182363Y104627D01*
X183024Y105069D01*
X183024Y105069D01*
X184431Y106476D01*
X184873Y107137D01*
X185612Y108922D01*
X192087D01*
X193105Y108500D01*
X194895D01*
X196549Y109185D01*
X197815Y110451D01*
X198500Y112105D01*
Y113895D01*
X197815Y115549D01*
X196549Y116815D01*
X194895Y117500D01*
X193105D01*
X192087Y117078D01*
X185723D01*
X185634Y117525D01*
X185634Y117525D01*
X184873Y119363D01*
X184431Y120024D01*
X183024Y121431D01*
X182363Y121873D01*
X180525Y122634D01*
X179745Y122789D01*
X178750Y122789D01*
X173750Y122789D01*
X173750Y122789D01*
X172828Y124645D01*
Y131227D01*
X173525Y131366D01*
X175363Y132127D01*
X176024Y132569D01*
X176024Y132569D01*
X177431Y133976D01*
X177873Y134637D01*
X178634Y136475D01*
X178634Y136475D01*
X178789Y137255D01*
X178789Y138250D01*
Y139771D01*
X180939Y141922D01*
X186087D01*
X187105Y141500D01*
X188895D01*
X190549Y142185D01*
X191815Y143451D01*
X192500Y145105D01*
Y146895D01*
X192274Y147441D01*
X193536Y149441D01*
X207233D01*
X250941Y105733D01*
D02*
G37*
G36*
X52938Y136608D02*
X53101Y136480D01*
X53275Y136368D01*
X53459Y136270D01*
X53654Y136187D01*
X53860Y136120D01*
X54077Y136067D01*
X54304Y136030D01*
X54542Y136007D01*
X54791Y136000D01*
Y134000D01*
X54542Y133993D01*
X54304Y133970D01*
X54077Y133933D01*
X53860Y133880D01*
X53654Y133813D01*
X53459Y133730D01*
X53275Y133632D01*
X53101Y133520D01*
X52938Y133392D01*
X52785Y133250D01*
Y136750D01*
X52938Y136608D01*
D02*
G37*
G36*
X171750Y148250D02*
X172745Y148250D01*
X174582Y147489D01*
X175989Y146082D01*
X176750Y144244D01*
X176750Y143250D01*
X176750Y143250D01*
X176750Y138250D01*
X176750Y137255D01*
X175989Y135418D01*
X174582Y134011D01*
X172745Y133250D01*
X171750Y133250D01*
X166750D01*
Y148250D01*
X171750Y148250D01*
D02*
G37*
G36*
X99832Y135030D02*
X100018Y134880D01*
X100205Y134752D01*
X100395Y134646D01*
X100587Y134561D01*
X100781Y134498D01*
X100977Y134457D01*
X101175Y134438D01*
X101375Y134440D01*
X101577Y134464D01*
X99528Y131626D01*
X99490Y131829D01*
X99437Y132030D01*
X99369Y132227D01*
X99287Y132423D01*
X99190Y132615D01*
X99078Y132805D01*
X98952Y132992D01*
X98811Y133176D01*
X98656Y133358D01*
X98485Y133537D01*
X99649Y135202D01*
X99832Y135030D01*
D02*
G37*
G36*
X316009Y132663D02*
X316037Y132367D01*
X316084Y132098D01*
X316149Y131854D01*
X316232Y131636D01*
X316335Y131443D01*
X316456Y131276D01*
X316595Y131135D01*
X316753Y131020D01*
X316930Y130930D01*
X313070D01*
X313247Y131020D01*
X313405Y131135D01*
X313544Y131276D01*
X313665Y131443D01*
X313768Y131636D01*
X313851Y131854D01*
X313916Y132098D01*
X313963Y132367D01*
X313991Y132663D01*
X314000Y132984D01*
X316000D01*
X316009Y132663D01*
D02*
G37*
G36*
X286009D02*
X286037Y132367D01*
X286084Y132098D01*
X286149Y131854D01*
X286232Y131636D01*
X286335Y131443D01*
X286456Y131276D01*
X286595Y131135D01*
X286753Y131020D01*
X286930Y130930D01*
X283070D01*
X283247Y131020D01*
X283405Y131135D01*
X283544Y131276D01*
X283665Y131443D01*
X283768Y131636D01*
X283851Y131854D01*
X283916Y132098D01*
X283963Y132367D01*
X283991Y132663D01*
X284000Y132984D01*
X286000D01*
X286009Y132663D01*
D02*
G37*
G36*
X303299Y132129D02*
X303582Y131889D01*
X303865Y131676D01*
X304148Y131493D01*
X304431Y131337D01*
X304714Y131210D01*
X304996Y131111D01*
X305279Y131040D01*
X305562Y130998D01*
X305845Y130983D01*
X303016Y128155D01*
X303002Y128438D01*
X302960Y128721D01*
X302889Y129004D01*
X302790Y129286D01*
X302663Y129569D01*
X302507Y129852D01*
X302324Y130135D01*
X302111Y130418D01*
X301871Y130701D01*
X301602Y130983D01*
X303016Y132398D01*
X303299Y132129D01*
D02*
G37*
G36*
X292963Y133422D02*
X292908Y133273D01*
X292882Y133120D01*
X292885Y132961D01*
X292916Y132797D01*
X292977Y132629D01*
X293067Y132455D01*
X293186Y132276D01*
X293315Y132115D01*
X293582Y131889D01*
X293865Y131676D01*
X294148Y131493D01*
X294431Y131337D01*
X294714Y131210D01*
X294996Y131111D01*
X295279Y131040D01*
X295562Y130998D01*
X295845Y130983D01*
X293016Y128155D01*
X293002Y128438D01*
X292960Y128721D01*
X292889Y129004D01*
X292790Y129286D01*
X292663Y129569D01*
X292507Y129852D01*
X292323Y130135D01*
X292111Y130418D01*
X291871Y130701D01*
X291602Y130983D01*
X291603Y130984D01*
X289764Y132827D01*
X293047Y133565D01*
X292963Y133422D01*
D02*
G37*
G36*
X103274Y125471D02*
X103358Y125487D01*
X103571Y125543D01*
X103775Y125611D01*
X103971Y125691D01*
X104159Y125784D01*
X104338Y125889D01*
X104508Y126006D01*
X103965Y122549D01*
X103838Y122708D01*
X103697Y122851D01*
X103543Y122977D01*
X103375Y123086D01*
X103193Y123178D01*
X103025Y123243D01*
X102923Y122331D01*
X102796Y122532D01*
X102645Y122711D01*
X102469Y122870D01*
X102269Y123008D01*
X102044Y123124D01*
X101795Y123219D01*
X101521Y123293D01*
X101223Y123346D01*
X100901Y123378D01*
X100554Y123388D01*
X100787Y125388D01*
X101133Y125397D01*
X101459Y125425D01*
X101766Y125471D01*
X102053Y125535D01*
X102320Y125618D01*
X102569Y125719D01*
X102798Y125838D01*
X103007Y125976D01*
X103197Y126132D01*
X103368Y126306D01*
X103274Y125471D01*
D02*
G37*
G36*
X170750Y105750D02*
X165750Y105750D01*
X164755Y105750D01*
X162918Y106511D01*
X161511Y107918D01*
X160750Y109755D01*
X160750Y110750D01*
X160750Y110750D01*
Y115750D01*
X160750Y116744D01*
X161511Y118582D01*
X162918Y119989D01*
X164755Y120750D01*
X165750Y120750D01*
X165750Y120750D01*
X170750D01*
Y105750D01*
D02*
G37*
G36*
X315845Y121017D02*
X315684Y120998D01*
X315541Y120943D01*
X315414Y120850D01*
X315304Y120721D01*
X315211Y120555D01*
X315135Y120352D01*
X315076Y120112D01*
X315034Y119836D01*
X315009Y119522D01*
X315000Y119172D01*
X313000D01*
X313070Y121070D01*
X315845Y121017D01*
D02*
G37*
G36*
X296753Y120980D02*
X296595Y120865D01*
X296456Y120724D01*
X296335Y120557D01*
X296232Y120364D01*
X296149Y120146D01*
X296084Y119902D01*
X296037Y119633D01*
X296009Y119337D01*
X296000Y119017D01*
X294000D01*
X293991Y119337D01*
X293963Y119633D01*
X293916Y119902D01*
X293851Y120146D01*
X293768Y120364D01*
X293665Y120557D01*
X293544Y120724D01*
X293405Y120865D01*
X293247Y120980D01*
X293070Y121070D01*
X296930D01*
X296753Y120980D01*
D02*
G37*
G36*
X286753D02*
X286595Y120865D01*
X286456Y120724D01*
X286335Y120557D01*
X286232Y120364D01*
X286149Y120146D01*
X286084Y119902D01*
X286037Y119633D01*
X286009Y119337D01*
X286000Y119017D01*
X284000D01*
X283991Y119337D01*
X283963Y119633D01*
X283916Y119902D01*
X283851Y120146D01*
X283768Y120364D01*
X283665Y120557D01*
X283544Y120724D01*
X283405Y120865D01*
X283247Y120980D01*
X283070Y121070D01*
X286930D01*
X286753Y120980D01*
D02*
G37*
G36*
X286007Y117542D02*
X286030Y117304D01*
X286068Y117077D01*
X286120Y116860D01*
X286187Y116654D01*
X286270Y116459D01*
X286367Y116275D01*
X286480Y116101D01*
X286607Y115938D01*
X286750Y115785D01*
X283250D01*
X283393Y115938D01*
X283520Y116101D01*
X283633Y116275D01*
X283730Y116459D01*
X283813Y116654D01*
X283880Y116860D01*
X283932Y117077D01*
X283970Y117304D01*
X283993Y117542D01*
X284000Y117791D01*
X286000D01*
X286007Y117542D01*
D02*
G37*
G36*
X306753Y120980D02*
X306595Y120865D01*
X306456Y120724D01*
X306335Y120557D01*
X306232Y120364D01*
X306149Y120146D01*
X306138Y120106D01*
X306180Y119980D01*
X306320Y119720D01*
X306500Y119500D01*
X306720Y119320D01*
X306980Y119180D01*
X307280Y119080D01*
X307620Y119020D01*
X308000Y119000D01*
X307414Y117000D01*
X307020Y116986D01*
X306638Y116944D01*
X306267Y116873D01*
X305908Y116774D01*
X305561Y116646D01*
X305225Y116491D01*
X304901Y116307D01*
X304589Y116095D01*
X304289Y115855D01*
X304000Y115586D01*
X302586Y117000D01*
X302854Y117289D01*
X303095Y117589D01*
X303307Y117901D01*
X303491Y118225D01*
X303647Y118561D01*
X303774Y118908D01*
X303873Y119267D01*
X303943Y119638D01*
X303951Y119703D01*
X303916Y119902D01*
X303851Y120146D01*
X303768Y120364D01*
X303665Y120557D01*
X303544Y120724D01*
X303405Y120865D01*
X303247Y120980D01*
X303070Y121070D01*
X306930D01*
X306753Y120980D01*
D02*
G37*
G36*
X286938Y115608D02*
X287101Y115480D01*
X287275Y115367D01*
X287459Y115270D01*
X287654Y115188D01*
X287860Y115120D01*
X288077Y115068D01*
X288304Y115030D01*
X288542Y115007D01*
X288791Y115000D01*
Y113000D01*
X288542Y112992D01*
X288304Y112970D01*
X288077Y112933D01*
X287860Y112880D01*
X287654Y112812D01*
X287459Y112730D01*
X287275Y112633D01*
X287101Y112520D01*
X286938Y112393D01*
X286785Y112250D01*
Y115750D01*
X286938Y115608D01*
D02*
G37*
G36*
X281020Y115753D02*
X281135Y115595D01*
X281276Y115456D01*
X281443Y115335D01*
X281636Y115232D01*
X281854Y115149D01*
X282046Y115097D01*
X282140Y115120D01*
X282346Y115188D01*
X282541Y115270D01*
X282725Y115367D01*
X282899Y115480D01*
X283062Y115608D01*
X283215Y115750D01*
Y112250D01*
X283062Y112393D01*
X282899Y112520D01*
X282725Y112633D01*
X282541Y112730D01*
X282346Y112812D01*
X282140Y112880D01*
X282046Y112903D01*
X281854Y112851D01*
X281636Y112768D01*
X281443Y112665D01*
X281276Y112544D01*
X281135Y112405D01*
X281020Y112247D01*
X280930Y112070D01*
Y115930D01*
X281020Y115753D01*
D02*
G37*
G36*
X129607Y113062D02*
X129480Y112899D01*
X129368Y112725D01*
X129270Y112541D01*
X129187Y112346D01*
X129120Y112140D01*
X129067Y111923D01*
X129030Y111696D01*
X129008Y111458D01*
X129000Y111209D01*
X127000D01*
X126993Y111458D01*
X126970Y111696D01*
X126932Y111923D01*
X126880Y112140D01*
X126812Y112346D01*
X126730Y112541D01*
X126632Y112725D01*
X126520Y112899D01*
X126392Y113062D01*
X126250Y113215D01*
X129750D01*
X129607Y113062D01*
D02*
G37*
G36*
X273845Y112016D02*
X273562Y112002D01*
X273279Y111960D01*
X272996Y111889D01*
X272714Y111790D01*
X272431Y111663D01*
X272148Y111507D01*
X271865Y111324D01*
X271582Y111111D01*
X271299Y110871D01*
X271017Y110602D01*
X269602Y112016D01*
X269871Y112299D01*
X270111Y112582D01*
X270324Y112865D01*
X270507Y113148D01*
X270663Y113431D01*
X270790Y113714D01*
X270889Y113996D01*
X270960Y114279D01*
X271002Y114562D01*
X271017Y114845D01*
X273845Y112016D01*
D02*
G37*
G36*
X267080Y110407D02*
X267122Y110403D01*
X267403Y110395D01*
X268389Y110389D01*
Y108389D01*
X268206Y108388D01*
X267499Y108341D01*
X267446Y108327D01*
X267413Y108310D01*
X267398Y108292D01*
X267064Y110411D01*
X267080Y110407D01*
D02*
G37*
G36*
X178750Y120750D02*
X179745Y120750D01*
X181582Y119989D01*
X182989Y118582D01*
X183750Y116744D01*
X183750Y115750D01*
X183750Y115750D01*
X183750Y110750D01*
X183750Y109755D01*
X182989Y107918D01*
X181582Y106511D01*
X179745Y105750D01*
X178750Y105750D01*
X173750D01*
Y120750D01*
X178750Y120750D01*
D02*
G37*
G36*
X271070Y102070D02*
X270980Y102247D01*
X270865Y102405D01*
X270724Y102544D01*
X270557Y102665D01*
X270364Y102768D01*
X270146Y102851D01*
X269902Y102916D01*
X269633Y102963D01*
X269337Y102991D01*
X269016Y103000D01*
Y105000D01*
X269337Y105009D01*
X269633Y105037D01*
X269902Y105084D01*
X270146Y105149D01*
X270364Y105232D01*
X270557Y105335D01*
X270724Y105456D01*
X270865Y105595D01*
X270980Y105753D01*
X271070Y105930D01*
Y102070D01*
D02*
G37*
G36*
X281020Y105753D02*
X281135Y105595D01*
X281276Y105456D01*
X281443Y105335D01*
X281636Y105232D01*
X281854Y105149D01*
X282098Y105084D01*
X282367Y105037D01*
X282663Y105009D01*
X282983Y105000D01*
Y103000D01*
X282663Y102991D01*
X282367Y102963D01*
X282098Y102916D01*
X281854Y102851D01*
X281636Y102768D01*
X281443Y102665D01*
X281276Y102544D01*
X281135Y102405D01*
X281020Y102247D01*
X280930Y102070D01*
X280753Y101980D01*
X280595Y101865D01*
X280456Y101724D01*
X280335Y101557D01*
X280232Y101364D01*
X280149Y101146D01*
X280084Y100902D01*
X280037Y100633D01*
X280009Y100337D01*
X280000Y100016D01*
X278000D01*
X277991Y100337D01*
X277963Y100633D01*
X277916Y100902D01*
X277851Y101146D01*
X277768Y101364D01*
X277665Y101557D01*
X277544Y101724D01*
X277405Y101865D01*
X277247Y101980D01*
X277070Y102070D01*
X280930D01*
Y105930D01*
X281020Y105753D01*
D02*
G37*
G36*
X291227Y100060D02*
X291500Y99002D01*
Y98105D01*
X292185Y96451D01*
X293451Y95185D01*
X293623Y92949D01*
X286404Y85730D01*
X278298D01*
X277865Y86163D01*
X276873Y86826D01*
X275702Y87059D01*
X271047D01*
X269876Y86826D01*
X267719Y87533D01*
X267260Y88401D01*
X267361Y88747D01*
X268065Y89451D01*
X268750Y91105D01*
Y91811D01*
X270624Y93199D01*
X271105Y93000D01*
X272895D01*
X274549Y93685D01*
X275192Y94328D01*
X276387D01*
X276387Y94328D01*
X277558Y94561D01*
X278550Y95224D01*
X281163Y97837D01*
X281163Y97837D01*
X281826Y98829D01*
X282059Y100000D01*
X283652Y100941D01*
X289769D01*
X291227Y100060D01*
D02*
G37*
G36*
X154476Y132569D02*
X155137Y132127D01*
X156975Y131366D01*
X157755Y131211D01*
X158750Y131211D01*
X163750Y131211D01*
X164672Y129355D01*
Y122773D01*
X163975Y122634D01*
X162137Y121873D01*
X161476Y121431D01*
X161476Y121431D01*
X160069Y120024D01*
X159627Y119363D01*
X158866Y117525D01*
X158866Y117525D01*
X158711Y116744D01*
X158711Y115750D01*
Y110750D01*
X158711Y110750D01*
X158711Y109755D01*
X158866Y108975D01*
X158866Y108975D01*
X159627Y107137D01*
X160069Y106476D01*
X161476Y105069D01*
X162137Y104627D01*
X163631Y104008D01*
X164012Y102785D01*
X164045Y101813D01*
X160469Y98237D01*
X159451Y97815D01*
X158185Y96549D01*
X157500Y94895D01*
Y94817D01*
X155500Y93989D01*
X151588Y97900D01*
Y132723D01*
X153588Y133457D01*
X154476Y132569D01*
D02*
G37*
G36*
X265824Y95442D02*
X265829Y95196D01*
X265872Y94726D01*
X265910Y94503D01*
X265959Y94289D01*
X266018Y94082D01*
X266088Y93884D01*
X266169Y93693D01*
X266261Y93510D01*
X266363Y93336D01*
X262957Y94139D01*
X263121Y94252D01*
X263269Y94380D01*
X263399Y94524D01*
X263512Y94683D01*
X263607Y94858D01*
X263685Y95048D01*
X263746Y95253D01*
X263789Y95475D01*
X263815Y95711D01*
X263824Y95963D01*
X265824Y95442D01*
D02*
G37*
G36*
X336969Y85470D02*
X330470D01*
X330760Y85510D01*
X331021Y85631D01*
X331250Y85832D01*
X331449Y86114D01*
X331617Y86477D01*
X331755Y86920D01*
X331862Y87444D01*
X331939Y88049D01*
X331985Y88734D01*
X332000Y89500D01*
X337000D01*
X336969Y85470D01*
D02*
G37*
G36*
X266188Y84607D02*
X266351Y84480D01*
X266525Y84368D01*
X266709Y84270D01*
X266904Y84187D01*
X267110Y84120D01*
X267327Y84067D01*
X267554Y84030D01*
X267792Y84008D01*
X268041Y84000D01*
Y82000D01*
X267792Y81993D01*
X267554Y81970D01*
X267327Y81932D01*
X267110Y81880D01*
X266904Y81812D01*
X266709Y81730D01*
X266525Y81632D01*
X266351Y81520D01*
X266188Y81392D01*
X266035Y81250D01*
Y84750D01*
X266188Y84607D01*
D02*
G37*
G36*
X312460Y100306D02*
X312393Y99011D01*
X312397Y98984D01*
X312391Y98957D01*
X312276Y94306D01*
X312281Y94279D01*
X312275Y94252D01*
X312283Y89599D01*
X312289Y89572D01*
X312284Y89545D01*
X312416Y84894D01*
X312422Y84867D01*
X312418Y84840D01*
X312544Y82551D01*
X312556Y81976D01*
X312461Y81495D01*
X312461Y80500D01*
Y79192D01*
X312321Y77326D01*
X312238Y76926D01*
X310155Y76729D01*
X309815Y77549D01*
X308549Y78815D01*
X306895Y79500D01*
X305105D01*
X303451Y78815D01*
X302185Y77549D01*
X301500Y75895D01*
Y74105D01*
X302185Y72451D01*
X303451Y71185D01*
X305105Y70500D01*
X306895D01*
X308520Y71173D01*
X308628Y71127D01*
X310173Y69981D01*
X309752Y69066D01*
X309751Y69062D01*
X309749Y69058D01*
X309747Y69055D01*
X309742Y69043D01*
X305388Y60335D01*
X304594Y58877D01*
X302696Y56113D01*
X300457Y53664D01*
X297903Y51548D01*
X295081Y49804D01*
X293223Y48984D01*
X291815Y49549D01*
X290549Y50815D01*
X288895Y51500D01*
X287105D01*
X285451Y50815D01*
X284185Y49549D01*
X283500Y47895D01*
Y47039D01*
X270230D01*
X269821Y47448D01*
X269059Y49039D01*
X269500Y50105D01*
Y51895D01*
X268815Y53549D01*
X267648Y54716D01*
X267658Y55361D01*
X267948Y56814D01*
X268608Y56946D01*
X269766Y57719D01*
X275478Y63431D01*
X283454D01*
X284764Y61532D01*
X284500Y60895D01*
Y59105D01*
X285185Y57451D01*
X286451Y56185D01*
X288105Y55500D01*
X289895D01*
X291549Y56185D01*
X292815Y57451D01*
X293500Y59105D01*
Y60895D01*
X292815Y62549D01*
X292576Y62788D01*
X292569Y62893D01*
Y64000D01*
X292297Y65366D01*
X291523Y66523D01*
X288523Y69523D01*
X287366Y70297D01*
X286000Y70569D01*
X274000D01*
X272634Y70297D01*
X270950Y71459D01*
X270682Y72318D01*
X270815Y72451D01*
X271500Y74105D01*
Y75895D01*
X270815Y77549D01*
X270371Y77993D01*
X271051Y80141D01*
X271217Y80174D01*
X272209Y80837D01*
X272314Y80941D01*
X274435D01*
X274868Y80508D01*
X275860Y79845D01*
X277031Y79612D01*
X287671D01*
X288842Y79845D01*
X289834Y80508D01*
X310502Y101176D01*
X312460Y100306D01*
D02*
G37*
G36*
X336990Y75810D02*
X337049Y75640D01*
X337150Y75490D01*
X337290Y75360D01*
X337469Y75250D01*
X337690Y75160D01*
X337949Y75090D01*
X338250Y75040D01*
X338590Y75010D01*
X338969Y75000D01*
Y73000D01*
X338590Y72990D01*
X338250Y72960D01*
X337949Y72910D01*
X337690Y72840D01*
X337469Y72750D01*
X337290Y72640D01*
X337150Y72510D01*
X337049Y72360D01*
X336990Y72190D01*
X336969Y72000D01*
Y76000D01*
X336990Y75810D01*
D02*
G37*
G36*
X344500Y85500D02*
X345494Y85500D01*
X347332Y84739D01*
X348739Y83332D01*
X349500Y81495D01*
X349500Y80500D01*
X349500Y80500D01*
X349500Y75500D01*
X349500Y74505D01*
X348739Y72668D01*
X347332Y71261D01*
X345495Y70500D01*
X344500Y70500D01*
X339500D01*
Y85500D01*
X344500Y85500D01*
D02*
G37*
G36*
X290502Y63218D02*
X290562Y62337D01*
X290590Y62177D01*
X290623Y62043D01*
X290660Y61932D01*
X290702Y61847D01*
X290750Y61785D01*
X287250D01*
X287297Y61847D01*
X287340Y61932D01*
X287377Y62043D01*
X287410Y62177D01*
X287437Y62337D01*
X287477Y62728D01*
X287498Y63218D01*
X287500Y63500D01*
X290500D01*
X290502Y63218D01*
D02*
G37*
G36*
X232499Y63113D02*
X232302Y62912D01*
X231841Y62388D01*
X231729Y62240D01*
X231639Y62104D01*
X231571Y61981D01*
X231523Y61872D01*
X231497Y61775D01*
X231493Y61691D01*
X228859Y63996D01*
X228926Y64010D01*
X229007Y64044D01*
X229104Y64099D01*
X229216Y64174D01*
X229343Y64270D01*
X229641Y64523D01*
X230200Y65057D01*
X232499Y63113D01*
D02*
G37*
G36*
X235402Y56573D02*
X235205Y56610D01*
X235011Y56623D01*
X234817Y56614D01*
X234625Y56581D01*
X234434Y56525D01*
X234244Y56446D01*
X234056Y56343D01*
X233869Y56217D01*
X233683Y56068D01*
X233499Y55896D01*
X232453Y57679D01*
X232624Y57857D01*
X232925Y58220D01*
X233056Y58404D01*
X233173Y58590D01*
X233277Y58778D01*
X233368Y58968D01*
X233446Y59160D01*
X233510Y59354D01*
X233561Y59550D01*
X235402Y56573D01*
D02*
G37*
G36*
X47000Y158000D02*
X47597Y158000D01*
X48699Y157543D01*
X49467Y156776D01*
X49999Y155001D01*
Y155001D01*
X49999Y153128D01*
X49999Y150713D01*
X48435Y150065D01*
X47169Y148799D01*
X46484Y147145D01*
Y145355D01*
X47169Y143701D01*
X48435Y142435D01*
X50000Y141787D01*
X50000Y139457D01*
X48451Y138815D01*
X47185Y137549D01*
X46500Y135895D01*
Y134105D01*
X47185Y132451D01*
X48451Y131185D01*
X50105Y130500D01*
X51895D01*
X53102Y131000D01*
X76757Y131000D01*
X79074Y131000D01*
X83618Y130096D01*
X87899Y128323D01*
X91751Y125749D01*
X93389Y124111D01*
X93389Y124111D01*
X93389Y124111D01*
X115111Y102389D01*
X116868Y100632D01*
X119629Y96500D01*
X121531Y91909D01*
X122500Y87035D01*
X122500Y84550D01*
X122500Y84550D01*
X122500Y84550D01*
Y53000D01*
X85000Y53000D01*
X85000Y97171D01*
X84938Y98433D01*
X84446Y100906D01*
X84009Y101961D01*
X84549Y102185D01*
X85815Y103451D01*
X86500Y105105D01*
Y106895D01*
X85815Y108549D01*
X84549Y109815D01*
X82895Y110500D01*
X81105D01*
X79451Y109815D01*
X78185Y108549D01*
X78173Y108519D01*
X75921Y109452D01*
X74061Y109821D01*
X73471Y109939D01*
X73193Y109952D01*
X71670Y111504D01*
Y113294D01*
X70985Y114948D01*
X69719Y116214D01*
X68066Y116899D01*
X66275D01*
X64621Y116214D01*
X63355Y114948D01*
X62670Y113294D01*
Y112319D01*
X62250Y111951D01*
X59966Y111650D01*
X57837Y110768D01*
X56836Y110000D01*
X52723D01*
X52564Y110159D01*
X51572Y110822D01*
X50598Y111226D01*
X49427Y111459D01*
X48373D01*
X47202Y111226D01*
X46228Y110822D01*
X45236Y110159D01*
X45077Y110000D01*
X30695D01*
X30059Y110000D01*
X28885Y110486D01*
X27986Y111385D01*
X27500Y112559D01*
X27500Y113195D01*
Y155196D01*
X28033Y156483D01*
X29017Y157467D01*
X30304Y158000D01*
X31000D01*
X47000Y158000D01*
D02*
G37*
G36*
X263215Y49250D02*
X263153Y49297D01*
X263068Y49340D01*
X262957Y49377D01*
X262823Y49410D01*
X262663Y49437D01*
X262272Y49478D01*
X261782Y49497D01*
X261500Y49500D01*
Y52500D01*
X261782Y52502D01*
X262663Y52562D01*
X262823Y52590D01*
X262957Y52622D01*
X263068Y52660D01*
X263153Y52702D01*
X263215Y52750D01*
Y49250D01*
D02*
G37*
G36*
X364266Y43391D02*
X365391Y42266D01*
X365584Y41801D01*
X366000Y40001D01*
Y40000D01*
X366000Y40000D01*
X366000Y40000D01*
X366000Y16000D01*
X366000Y15204D01*
X365391Y13734D01*
X364266Y12609D01*
X363824Y12426D01*
X362000Y12000D01*
X362000Y12000D01*
X362000Y12000D01*
X330204D01*
X328734Y12609D01*
X327609Y13734D01*
X327039Y15110D01*
X327039Y40890D01*
X327609Y42266D01*
X328734Y43391D01*
X330204Y44000D01*
X331000D01*
X331000Y44000D01*
X362000Y44000D01*
X362796Y44000D01*
X364266Y43391D01*
D02*
G37*
%LPC*%
G36*
X80895Y416500D02*
X79105D01*
X77451Y415815D01*
X76185Y414549D01*
X75500Y412895D01*
Y411105D01*
X76185Y409451D01*
X77451Y408185D01*
X79105Y407500D01*
X80895D01*
X82549Y408185D01*
X83815Y409451D01*
X84500Y411105D01*
Y412895D01*
X83815Y414549D01*
X82549Y415815D01*
X80895Y416500D01*
D02*
G37*
G36*
X128895Y258500D02*
X127105D01*
X125451Y257815D01*
X124185Y256549D01*
X123500Y254895D01*
Y253105D01*
X124185Y251451D01*
X125451Y250185D01*
X127105Y249500D01*
X128895D01*
X130549Y250185D01*
X131815Y251451D01*
X132500Y253105D01*
Y254895D01*
X131815Y256549D01*
X130549Y257815D01*
X128895Y258500D01*
D02*
G37*
G36*
X251895Y162500D02*
X250105D01*
X248451Y161815D01*
X247185Y160549D01*
X246500Y158895D01*
Y157105D01*
X247185Y155451D01*
X248451Y154185D01*
X250105Y153500D01*
X251895D01*
X253549Y154185D01*
X254815Y155451D01*
X255500Y157105D01*
Y158895D01*
X254815Y160549D01*
X253549Y161815D01*
X251895Y162500D01*
D02*
G37*
G36*
X271895Y133500D02*
X270105D01*
X268451Y132815D01*
X267185Y131549D01*
X266500Y129895D01*
Y128105D01*
X267185Y126451D01*
X268451Y125185D01*
X270105Y124500D01*
X271895D01*
X273549Y125185D01*
X274815Y126451D01*
X275500Y128105D01*
Y129895D01*
X274815Y131549D01*
X273549Y132815D01*
X271895Y133500D01*
D02*
G37*
G36*
X329895Y177500D02*
X328105D01*
X326451Y176815D01*
X325185Y175549D01*
X324500Y173895D01*
Y172105D01*
X325185Y170451D01*
X326451Y169185D01*
X328105Y168500D01*
X329895D01*
X331549Y169185D01*
X332815Y170451D01*
X333500Y172105D01*
Y173895D01*
X332815Y175549D01*
X331549Y176815D01*
X329895Y177500D01*
D02*
G37*
G36*
X209895Y81500D02*
X208105D01*
X206451Y80815D01*
X205185Y79549D01*
X204500Y77895D01*
Y76105D01*
X205185Y74451D01*
X206451Y73185D01*
X208105Y72500D01*
X209895D01*
X211549Y73185D01*
X212815Y74451D01*
X213500Y76105D01*
Y77895D01*
X212815Y79549D01*
X211549Y80815D01*
X209895Y81500D01*
D02*
G37*
G36*
X346895Y23500D02*
X345105D01*
X343451Y22815D01*
X342185Y21549D01*
X341500Y19895D01*
Y18105D01*
X342185Y16451D01*
X343451Y15185D01*
X345105Y14500D01*
X346895D01*
X348549Y15185D01*
X349815Y16451D01*
X350500Y18105D01*
Y19895D01*
X349815Y21549D01*
X348549Y22815D01*
X346895Y23500D01*
D02*
G37*
%LPD*%
G36*
X362215Y515250D02*
X362062Y515392D01*
X361899Y515520D01*
X361725Y515633D01*
X361541Y515730D01*
X361346Y515812D01*
X361140Y515880D01*
X360923Y515933D01*
X360696Y515970D01*
X360457Y515993D01*
X360209Y516000D01*
Y518000D01*
X360457Y518008D01*
X360696Y518030D01*
X360923Y518068D01*
X361140Y518120D01*
X361346Y518187D01*
X361541Y518270D01*
X361725Y518368D01*
X361899Y518480D01*
X362062Y518607D01*
X362215Y518750D01*
Y515250D01*
D02*
G37*
G36*
X344388Y506974D02*
X344217Y506792D01*
X344065Y506608D01*
X343931Y506421D01*
X343815Y506231D01*
X343717Y506037D01*
X343637Y505841D01*
X343575Y505642D01*
X343532Y505439D01*
X343507Y505233D01*
X343500Y505025D01*
X341025Y507500D01*
X341233Y507507D01*
X341439Y507532D01*
X341642Y507575D01*
X341841Y507637D01*
X342037Y507717D01*
X342231Y507814D01*
X342421Y507931D01*
X342608Y508065D01*
X342793Y508217D01*
X342974Y508388D01*
X344388Y506974D01*
D02*
G37*
G36*
X554507Y536767D02*
X554532Y536561D01*
X554575Y536358D01*
X554637Y536159D01*
X554717Y535963D01*
X554814Y535769D01*
X554931Y535579D01*
X555065Y535392D01*
X555217Y535207D01*
X555388Y535026D01*
X553974Y533612D01*
X553792Y533783D01*
X553608Y533935D01*
X553421Y534069D01*
X553231Y534185D01*
X553037Y534283D01*
X552841Y534363D01*
X552641Y534425D01*
X552439Y534468D01*
X552234Y534493D01*
X552025Y534500D01*
X554500Y536975D01*
X554507Y536767D01*
D02*
G37*
G36*
X564007Y508543D02*
X564030Y508304D01*
X564067Y508077D01*
X564120Y507860D01*
X564188Y507654D01*
X564270Y507459D01*
X564367Y507275D01*
X564480Y507101D01*
X564608Y506938D01*
X564750Y506785D01*
X561250D01*
X561393Y506938D01*
X561520Y507101D01*
X561632Y507275D01*
X561730Y507459D01*
X561813Y507654D01*
X561880Y507860D01*
X561932Y508077D01*
X561970Y508304D01*
X561992Y508543D01*
X562000Y508791D01*
X564000D01*
X564007Y508543D01*
D02*
G37*
G36*
X221607Y452062D02*
X221480Y451899D01*
X221367Y451725D01*
X221270Y451541D01*
X221187Y451346D01*
X221120Y451140D01*
X221068Y450923D01*
X221030Y450696D01*
X221007Y450457D01*
X221000Y450209D01*
X219000D01*
X218993Y450457D01*
X218970Y450696D01*
X218932Y450923D01*
X218880Y451140D01*
X218813Y451346D01*
X218730Y451541D01*
X218633Y451725D01*
X218520Y451899D01*
X218393Y452062D01*
X218250Y452215D01*
X221750D01*
X221607Y452062D01*
D02*
G37*
G36*
X237208Y360217D02*
X237392Y360065D01*
X237579Y359931D01*
X237769Y359814D01*
X237963Y359717D01*
X238159Y359637D01*
X238359Y359575D01*
X238561Y359532D01*
X238766Y359507D01*
X238975Y359500D01*
X236500Y357025D01*
X236493Y357234D01*
X236468Y357439D01*
X236425Y357641D01*
X236363Y357841D01*
X236283Y358037D01*
X236185Y358231D01*
X236069Y358421D01*
X235935Y358608D01*
X235783Y358792D01*
X235612Y358974D01*
X237026Y360388D01*
X237208Y360217D01*
D02*
G37*
G36*
X530391Y242206D02*
X530377Y242011D01*
X530386Y241817D01*
X530419Y241625D01*
X530475Y241434D01*
X530554Y241244D01*
X530657Y241056D01*
X530783Y240869D01*
X530932Y240683D01*
X531104Y240499D01*
X529321Y239453D01*
X529143Y239624D01*
X528780Y239925D01*
X528596Y240056D01*
X528410Y240173D01*
X528222Y240277D01*
X528032Y240368D01*
X527840Y240446D01*
X527646Y240510D01*
X527450Y240561D01*
X530427Y242402D01*
X530391Y242206D01*
D02*
G37*
G36*
X526608Y225062D02*
X526480Y224899D01*
X526367Y224725D01*
X526270Y224541D01*
X526188Y224346D01*
X526120Y224140D01*
X526068Y223923D01*
X526030Y223696D01*
X526007Y223458D01*
X526000Y223209D01*
X524000D01*
X523993Y223458D01*
X523970Y223696D01*
X523932Y223923D01*
X523880Y224140D01*
X523812Y224346D01*
X523730Y224541D01*
X523633Y224725D01*
X523520Y224899D01*
X523392Y225062D01*
X523250Y225215D01*
X526750D01*
X526608Y225062D01*
D02*
G37*
G36*
X532009Y221663D02*
X532037Y221367D01*
X532084Y221098D01*
X532149Y220854D01*
X532232Y220636D01*
X532335Y220443D01*
X532456Y220276D01*
X532595Y220135D01*
X532753Y220020D01*
X532930Y219930D01*
X529070D01*
X529247Y220020D01*
X529405Y220135D01*
X529544Y220276D01*
X529665Y220443D01*
X529768Y220636D01*
X529851Y220854D01*
X529916Y221098D01*
X529963Y221367D01*
X529991Y221663D01*
X530000Y221984D01*
X532000D01*
X532009Y221663D01*
D02*
G37*
G36*
X526009D02*
X526037Y221367D01*
X526084Y221098D01*
X526149Y220854D01*
X526232Y220636D01*
X526335Y220443D01*
X526456Y220276D01*
X526595Y220135D01*
X526753Y220020D01*
X526930Y219930D01*
X523070D01*
X523247Y220020D01*
X523405Y220135D01*
X523544Y220276D01*
X523665Y220443D01*
X523768Y220636D01*
X523851Y220854D01*
X523916Y221098D01*
X523963Y221367D01*
X523991Y221663D01*
X524000Y221984D01*
X526000D01*
X526009Y221663D01*
D02*
G37*
G36*
X517070Y216070D02*
X516980Y216247D01*
X516865Y216405D01*
X516724Y216544D01*
X516557Y216665D01*
X516364Y216768D01*
X516146Y216851D01*
X515902Y216916D01*
X515633Y216963D01*
X515337Y216991D01*
X515017Y217000D01*
Y219000D01*
X515337Y219009D01*
X515633Y219037D01*
X515902Y219084D01*
X516146Y219149D01*
X516364Y219232D01*
X516557Y219335D01*
X516724Y219456D01*
X516865Y219595D01*
X516980Y219753D01*
X517070Y219930D01*
Y216070D01*
D02*
G37*
G36*
X389388Y86974D02*
X389217Y86792D01*
X389065Y86608D01*
X388931Y86421D01*
X388815Y86231D01*
X388717Y86037D01*
X388637Y85841D01*
X388575Y85641D01*
X388532Y85439D01*
X388507Y85233D01*
X388500Y85025D01*
X386025Y87500D01*
X386233Y87507D01*
X386439Y87532D01*
X386641Y87575D01*
X386841Y87637D01*
X387037Y87717D01*
X387231Y87815D01*
X387421Y87931D01*
X387608Y88065D01*
X387793Y88217D01*
X387974Y88388D01*
X389388Y86974D01*
D02*
G37*
G36*
X472000Y150000D02*
X604999Y150000D01*
X605000Y149999D01*
X605000Y149999D01*
X605006D01*
X606848Y149828D01*
X607916Y149615D01*
X609737Y148862D01*
X611374Y147767D01*
X612767Y146375D01*
X613862Y144737D01*
X614616Y142917D01*
X615000Y140985D01*
X615000Y140000D01*
X615000Y109015D01*
X614616Y107083D01*
X613862Y105263D01*
X612767Y103625D01*
X611375Y102233D01*
X609737Y101138D01*
X607917Y100384D01*
X605985Y100000D01*
X536828D01*
X536828Y100000D01*
X535094Y99915D01*
X531693Y99238D01*
X528488Y97911D01*
X525605Y95984D01*
X524318Y94818D01*
X521303Y91803D01*
Y91803D01*
X520286Y90735D01*
X518415Y88455D01*
X516776Y86002D01*
X515386Y83401D01*
X514257Y80676D01*
X513401Y77853D01*
X512825Y74960D01*
X512536Y72025D01*
X512500Y70550D01*
Y43564D01*
X512135Y41729D01*
X511419Y40000D01*
X510379Y38444D01*
X509056Y37121D01*
X507500Y36081D01*
X505771Y35365D01*
X503936Y35000D01*
X434000D01*
X434000Y35000D01*
X432806Y35000D01*
X430601Y35913D01*
X428913Y37601D01*
X428000Y39806D01*
X428000Y41000D01*
Y56000D01*
X428000Y56000D01*
X428000Y56000D01*
X428241Y57850D01*
X428250Y57896D01*
X428740Y59079D01*
X429451Y60143D01*
X430356Y61049D01*
X431421Y61760D01*
X432604Y62250D01*
X433860Y62500D01*
X434500Y62500D01*
X442252Y62500D01*
X444156Y62500D01*
X444156Y62500D01*
X445862Y62602D01*
X446091Y62657D01*
X449178Y63407D01*
X452210Y64972D01*
X454787Y67208D01*
X455858Y68540D01*
X460523Y75104D01*
X460523D01*
X460523Y75104D01*
X462003Y77368D01*
X464420Y82204D01*
X466064Y87355D01*
X466895Y92697D01*
X467000Y95400D01*
X467000Y145000D01*
X467000D01*
X467000Y145000D01*
X467345Y146828D01*
X467761Y147832D01*
X469168Y149239D01*
X471005Y150000D01*
X472000Y150000D01*
D02*
G37*
%LPC*%
G36*
X581724Y142500D02*
X581250D01*
Y126250D01*
X597500D01*
Y126724D01*
X596828Y130105D01*
X595508Y133289D01*
X593593Y136156D01*
X591156Y138593D01*
X588289Y140508D01*
X585105Y141827D01*
X581724Y142500D01*
D02*
G37*
G36*
X578750D02*
X578276D01*
X574895Y141827D01*
X571711Y140508D01*
X568844Y138593D01*
X566407Y136156D01*
X564492Y133289D01*
X563172Y130105D01*
X562500Y126724D01*
Y126250D01*
X578750D01*
Y142500D01*
D02*
G37*
G36*
X597500Y123750D02*
X581250D01*
Y107500D01*
X581724D01*
X585105Y108173D01*
X588289Y109492D01*
X591156Y111407D01*
X593593Y113844D01*
X595508Y116711D01*
X596828Y119895D01*
X597500Y123276D01*
Y123750D01*
D02*
G37*
G36*
X578750D02*
X562500D01*
Y123276D01*
X563172Y119895D01*
X564492Y116711D01*
X566407Y113844D01*
X568844Y111407D01*
X571711Y109492D01*
X574895Y108173D01*
X578276Y107500D01*
X578750D01*
Y123750D01*
D02*
G37*
%LPD*%
D72*
X50000Y630000D02*
D03*
X10000D02*
D03*
X30000Y650000D02*
D03*
X31000Y608000D02*
D03*
X45000Y615000D02*
D03*
X15000D02*
D03*
Y645000D02*
D03*
X45000D02*
D03*
X650000Y30000D02*
D03*
X610000D02*
D03*
X630000Y50000D02*
D03*
X631000Y8000D02*
D03*
X645000Y15000D02*
D03*
X615000D02*
D03*
Y45000D02*
D03*
X645000D02*
D03*
X50000Y30000D02*
D03*
X10000D02*
D03*
X30000Y50000D02*
D03*
X31000Y8000D02*
D03*
X45000Y15000D02*
D03*
X15000D02*
D03*
Y45000D02*
D03*
X45000D02*
D03*
X650000Y630000D02*
D03*
X610000D02*
D03*
X630000Y650000D02*
D03*
X631000Y608000D02*
D03*
X645000Y615000D02*
D03*
X615000D02*
D03*
Y645000D02*
D03*
X645000D02*
D03*
D153*
X106000Y123999D02*
D03*
X87000Y145999D02*
D03*
D162*
X65036Y154000D02*
X66608Y152428D01*
X46000Y154000D02*
X65036D01*
X66608Y152428D02*
X67149D01*
X146541Y160000D02*
X148541Y158000D01*
X188000D01*
X146000Y160000D02*
X146541D01*
X142000Y156000D02*
X146000Y160000D01*
X142000Y150000D02*
X151250Y140750D01*
X142000Y150000D02*
Y156000D01*
X258500Y66500D02*
X264757Y60243D01*
X267243D01*
X274000Y67000D02*
X286000D01*
X267243Y60243D02*
X274000Y67000D01*
X258500Y66500D02*
Y66625D01*
X36000Y219000D02*
X59000D01*
X229000Y61735D02*
X233515Y66250D01*
X229000Y61500D02*
Y61735D01*
X233515Y66250D02*
X246750D01*
X286000Y67000D02*
X289000Y64000D01*
Y60000D02*
Y64000D01*
X246750Y66250D02*
X249375Y63625D01*
Y57625D02*
Y63625D01*
Y57625D02*
X256000Y51000D01*
X67000Y227000D02*
X68500Y225500D01*
X258500Y104500D02*
Y132500D01*
X67000Y460000D02*
X81900Y474900D01*
Y635000D01*
X67000Y227000D02*
Y460000D01*
X68500Y219500D02*
X69000Y219000D01*
X105000D01*
X144000Y180000D01*
X211000D01*
X258500Y132500D01*
X151250Y140750D02*
X160250D01*
X256000Y51000D02*
X265000D01*
D163*
X272113Y97387D02*
X276387D01*
X272000Y97500D02*
X272113Y97387D01*
X318000Y454328D02*
X321000Y451328D01*
Y410000D02*
X332000Y399000D01*
X321000Y410000D02*
Y451328D01*
X318000Y454328D02*
Y455000D01*
X200001Y490000D02*
X227000D01*
X341426Y375574D02*
X343426D01*
X227000Y490000D02*
X341426Y375574D01*
X343426D02*
X344000Y375000D01*
X282000Y454000D02*
Y465000D01*
Y454000D02*
X292000Y444000D01*
X313000D01*
X328000Y422000D02*
Y585000D01*
X513000Y218000D02*
X519000D01*
X444148Y149148D02*
X513000Y218000D01*
X444148Y143148D02*
Y149148D01*
X528000Y242188D02*
X531000Y239188D01*
Y218000D02*
Y239188D01*
X528000Y242188D02*
Y243000D01*
X291206Y132794D02*
Y134794D01*
Y132794D02*
X295000Y129000D01*
X291000Y135000D02*
X291206Y134794D01*
X264824Y92574D02*
Y100824D01*
X264250Y92000D02*
X264824Y92574D01*
X346500Y410500D02*
X351000Y406000D01*
X355000D01*
X346500Y410500D02*
Y415500D01*
X340000Y422000D02*
X346500Y415500D01*
X340000Y422000D02*
Y429000D01*
X353000Y413000D02*
X353062D01*
X362000Y421939D01*
Y432000D01*
X340000Y429000D02*
X500611Y589611D01*
X362000Y432000D02*
X500000Y570000D01*
X150500Y152500D02*
X208500D01*
X150000Y152000D02*
X150500Y152500D01*
X101436Y132000D02*
X102000D01*
X86998Y146368D02*
X87069D01*
X101436Y132000D01*
X86505Y146368D02*
X86632D01*
X87000Y146000D01*
X128000Y109485D02*
X135000Y102485D01*
X128000Y109485D02*
Y115000D01*
X106001Y124000D02*
X106389Y124388D01*
X88000Y135000D02*
X98612Y124388D01*
X106389D01*
X106000Y124000D02*
X106001D01*
X276387Y97387D02*
X279000Y100000D01*
X235188Y59000D02*
X236000D01*
X172000Y56000D02*
X232188D01*
X235188Y59000D01*
X552000Y537000D02*
X563000Y526000D01*
Y505000D02*
Y526000D01*
X525000Y218000D02*
Y227000D01*
X386000Y85000D02*
X444148Y143148D01*
X501222Y589000D02*
X507000D01*
X312828Y118000D02*
X314000Y119172D01*
X305000Y118000D02*
X312828D01*
X314000Y119172D02*
Y122000D01*
X305000Y118000D02*
Y123000D01*
X291000Y104000D02*
X305000Y118000D01*
X279000Y104000D02*
X291000D01*
X51000Y135000D02*
X88000D01*
X353000Y384000D02*
X353574Y383426D01*
X354000Y313000D02*
Y381328D01*
X353574Y381754D02*
Y383426D01*
Y381754D02*
X354000Y381328D01*
X347500Y380705D02*
Y387722D01*
X351000Y391222D01*
Y392000D01*
X500611Y589611D02*
X501222Y589000D01*
X341000Y77000D02*
X342000Y78000D01*
X341000Y74172D02*
Y77000D01*
X340828Y74000D02*
X341000Y74172D01*
X334000Y74000D02*
X340828D01*
X332000Y76000D02*
X334000Y74000D01*
X332000Y76000D02*
Y78000D01*
X365000Y395000D02*
X472000D01*
X332000Y399000D02*
X361000D01*
X135000Y93000D02*
X172000Y56000D01*
X135000Y93000D02*
Y102485D01*
X144000Y610000D02*
Y623700D01*
X160000Y275000D02*
Y594000D01*
X144000Y610000D02*
X160000Y594000D01*
Y275000D02*
X220000Y215000D01*
X295000Y159000D02*
Y318222D01*
X349500Y372722D01*
Y378705D01*
X314000Y122000D02*
X315000Y123000D01*
X295000Y117000D02*
Y123000D01*
X292000Y114000D02*
X295000Y117000D01*
X285000Y114000D02*
X292000D01*
X254000Y62672D02*
Y107000D01*
X256000Y60000D02*
Y60672D01*
X150000Y275000D02*
X285000Y140000D01*
Y129000D02*
Y140000D01*
X279000Y114000D02*
X285000D01*
Y123000D01*
X343000Y302000D02*
X354000Y313000D01*
X343000Y275222D02*
Y302000D01*
X315000Y247222D02*
X343000Y275222D01*
X315000Y129000D02*
Y247222D01*
X91000Y345000D02*
X150000Y286000D01*
Y275000D02*
Y286000D01*
X91000Y345000D02*
Y569207D01*
X285000Y149000D02*
X305000Y129000D01*
X132700Y635000D02*
X144000Y623700D01*
X96000Y623700D02*
X107300Y635000D01*
X96000Y610000D02*
Y623700D01*
X90500Y604500D02*
X96000Y610000D01*
X90500Y569707D02*
Y604500D01*
Y569707D02*
X91000Y569207D01*
X220000Y214000D02*
Y215000D01*
Y214000D02*
X285000Y149000D01*
Y149000D02*
Y149000D01*
X279000Y100000D02*
Y104000D01*
X268000D02*
X273000D01*
X264824Y100824D02*
X268000Y104000D01*
X268389Y109389D02*
X273000Y114000D01*
X265000Y109000D02*
X265389Y109389D01*
X268389D01*
X347500Y380705D02*
X349500Y378705D01*
X361000Y399000D02*
X365000Y395000D01*
X208500Y152500D02*
X254000Y107000D01*
Y62672D02*
X256000Y60672D01*
X40657Y250656D02*
X56656D01*
X40000Y249999D02*
X40657Y250656D01*
X56656D02*
X60000Y254000D01*
X40000Y370000D02*
X40657Y369343D01*
X56657D01*
X60000Y366000D01*
X220000Y376000D02*
Y454000D01*
Y376000D02*
X239000Y357000D01*
X341000Y505000D02*
X353000Y517000D01*
X364000D01*
D164*
X270047Y83000D02*
X271047Y84000D01*
X264250Y83000D02*
X270047D01*
X349834Y259834D02*
Y279834D01*
X350000Y280000D01*
X344000Y254000D02*
X349834Y259834D01*
X271047Y84000D02*
X275702D01*
X277031Y82671D02*
X287671D01*
X275702Y84000D02*
X277031Y82671D01*
X287671D02*
X310000Y105000D01*
X344000Y142874D02*
Y254000D01*
X315063Y113937D02*
X344000Y142874D01*
X310000Y105000D02*
Y108875D01*
X315063Y113937D01*
X315063D01*
D165*
X187096Y278621D02*
X304366Y395891D01*
X306330Y389670D02*
X307000Y389000D01*
X184425Y271000D02*
X303094Y389670D01*
X184000Y271000D02*
X184425D01*
X184000Y278000D02*
X184621Y278621D01*
X303094Y389670D02*
X306330D01*
X184621Y278621D02*
X187096D01*
X304366Y395891D02*
X308027D01*
X308055Y395920D01*
X95632Y146900D02*
X95683D01*
X89914Y152618D02*
X95632Y146900D01*
X82618Y152618D02*
X89914D01*
X50984Y146250D02*
X76250D01*
X82618Y152618D01*
D166*
X147000Y96000D02*
X157000Y86000D01*
X124675Y158325D02*
X147000Y136000D01*
Y96000D02*
Y136000D01*
X124675Y164675D02*
X125000Y165000D01*
X125000Y165000D01*
X124675Y158325D02*
Y164675D01*
X125000Y165000D02*
X138000D01*
X112000Y153000D02*
Y164000D01*
Y153000D02*
X120000Y145000D01*
X347000Y102000D02*
X350000Y105000D01*
X347000Y32000D02*
Y102000D01*
X334500Y80500D02*
Y89500D01*
X335000Y90000D01*
Y97000D01*
X157000Y86000D02*
X165000D01*
X170000Y81000D01*
X126000Y99000D02*
Y99271D01*
X120000Y105271D02*
Y145000D01*
Y105271D02*
X126000Y99271D01*
X170000Y69000D02*
Y81000D01*
D168*
X179250Y146000D02*
X188000D01*
X173750Y140500D02*
X179250Y146000D01*
X170500Y140500D02*
X173750D01*
X177250Y112850D02*
X177400Y113000D01*
X194000D01*
X168750Y100750D02*
Y113250D01*
X162000Y94000D02*
X168750Y100750D01*
Y113250D02*
Y139250D01*
X170250Y140750D01*
D173*
X542000Y74200D02*
D03*
Y175800D02*
D03*
X643600Y74200D02*
D03*
Y175800D02*
D03*
X542000Y264700D02*
D03*
Y366300D02*
D03*
X643600Y264700D02*
D03*
Y366300D02*
D03*
D174*
X580000Y125000D02*
D03*
Y315500D02*
D03*
X615000Y475000D02*
D03*
Y425000D02*
D03*
Y575000D02*
D03*
Y525000D02*
D03*
D175*
X30000Y630000D02*
D03*
X630000Y30000D02*
D03*
X30000D02*
D03*
X630000Y630000D02*
D03*
D176*
X580000Y205000D02*
D03*
Y237500D02*
D03*
D177*
X68250Y183250D02*
D03*
Y96750D02*
D03*
D178*
X62250Y100250D02*
D03*
D179*
X17750Y183200D02*
D03*
Y96800D02*
D03*
D180*
X62250Y179750D02*
D03*
D181*
X20000Y510000D02*
D03*
X140000D02*
D03*
D182*
X80000Y435000D02*
D03*
X105000Y580000D02*
D03*
X55000Y435000D02*
D03*
X105000D02*
D03*
D183*
X158100Y635000D02*
D03*
X578100D02*
D03*
D184*
X81900D02*
D03*
X107300D02*
D03*
X132700D02*
D03*
X501900D02*
D03*
X552700D02*
D03*
X527300D02*
D03*
D185*
X440000Y625250D02*
D03*
X220000D02*
D03*
D186*
X440000Y652750D02*
D03*
X220000D02*
D03*
D187*
X55000Y580000D02*
D03*
D188*
X67170Y112399D02*
D03*
X272000Y97500D02*
D03*
X329722Y379500D02*
D03*
X311565Y421565D02*
D03*
X270000Y610000D02*
D03*
X328000Y585000D02*
D03*
Y422000D02*
D03*
X259000Y514000D02*
D03*
X465000Y69000D02*
D03*
X580000Y145000D02*
D03*
X600000D02*
D03*
Y125000D02*
D03*
Y105000D02*
D03*
X580000D02*
D03*
X560000Y125000D02*
D03*
Y145000D02*
D03*
Y105000D02*
D03*
X540000Y125000D02*
D03*
Y145000D02*
D03*
X455000Y60000D02*
D03*
X475000D02*
D03*
X490000D02*
D03*
X505000D02*
D03*
X540000Y105000D02*
D03*
X483000Y69000D02*
D03*
X498000D02*
D03*
X312000Y42000D02*
D03*
X311000Y16000D02*
D03*
X310000Y59000D02*
D03*
X414000Y339000D02*
D03*
X420000Y352000D02*
D03*
X522000Y292000D02*
D03*
X46000Y154000D02*
D03*
X38000Y131000D02*
D03*
X44000Y121000D02*
D03*
X32000D02*
D03*
X98000Y90000D02*
D03*
X117000Y80000D02*
D03*
X104000D02*
D03*
Y69000D02*
D03*
X117000D02*
D03*
Y58000D02*
D03*
X104000D02*
D03*
X148000Y43000D02*
D03*
X128000D02*
D03*
X184000Y278000D02*
D03*
Y271000D02*
D03*
X67149Y152428D02*
D03*
X528000Y243000D02*
D03*
X278000Y428000D02*
D03*
X385000Y416000D02*
D03*
X384000Y429000D02*
D03*
X396000Y416000D02*
D03*
X510000Y242000D02*
D03*
X139000Y109000D02*
D03*
X291000Y135000D02*
D03*
X146000Y160000D02*
D03*
X95683Y146900D02*
D03*
X224000Y122000D02*
D03*
X340000Y337000D02*
D03*
X318000Y465000D02*
D03*
X306000D02*
D03*
X294000D02*
D03*
X264250Y92000D02*
D03*
X313000Y444000D02*
D03*
X209000Y77000D02*
D03*
X264250Y83000D02*
D03*
X267000Y75000D02*
D03*
X266000Y68000D02*
D03*
X347000Y426000D02*
D03*
X351000Y420000D02*
D03*
X353000Y413000D02*
D03*
X355000Y406000D02*
D03*
X370000Y610000D02*
D03*
X350000Y280000D02*
D03*
X128000Y254000D02*
D03*
X643000Y220000D02*
D03*
X150000Y152000D02*
D03*
X329000Y173000D02*
D03*
X315000Y523000D02*
D03*
X314000Y506000D02*
D03*
X193000Y340000D02*
D03*
X282000Y465000D02*
D03*
X275000Y412000D02*
D03*
X130000Y366000D02*
D03*
X188000Y146000D02*
D03*
X432000Y352000D02*
D03*
X340000Y353000D02*
D03*
X125000Y165000D02*
D03*
X435000Y111000D02*
D03*
X112000Y164000D02*
D03*
X188000Y103000D02*
D03*
X318000Y455000D02*
D03*
X306000D02*
D03*
X294000D02*
D03*
X275000Y400000D02*
D03*
X125000Y177000D02*
D03*
X87000Y146000D02*
D03*
X351000Y619000D02*
D03*
X128000Y115000D02*
D03*
X279000Y447000D02*
D03*
X285000Y158000D02*
D03*
X36000Y219000D02*
D03*
X194000Y113000D02*
D03*
X372000Y19000D02*
D03*
X359000D02*
D03*
X333000D02*
D03*
X346000D02*
D03*
X106000Y124000D02*
D03*
X102000Y132000D02*
D03*
X300000Y352000D02*
D03*
X477000Y288000D02*
D03*
X462000Y333000D02*
D03*
X246000Y88000D02*
D03*
X522000Y518000D02*
D03*
X237000Y88000D02*
D03*
X508000Y8000D02*
D03*
X455000D02*
D03*
X475000D02*
D03*
X487000D02*
D03*
X67000Y168000D02*
D03*
X243000Y59000D02*
D03*
X162000Y94000D02*
D03*
X236000Y59000D02*
D03*
X307000Y389000D02*
D03*
X308055Y395920D02*
D03*
X123000Y603000D02*
D03*
X229000Y61500D02*
D03*
X563000Y505000D02*
D03*
X237000Y429000D02*
D03*
X552000Y537000D02*
D03*
X228000Y87000D02*
D03*
X289000Y60000D02*
D03*
X277000Y61000D02*
D03*
X91000Y176000D02*
D03*
X494000Y244000D02*
D03*
X518000Y255000D02*
D03*
X525000Y227000D02*
D03*
X386000Y85000D02*
D03*
X10000Y65000D02*
D03*
X50000Y75000D02*
D03*
X10000Y82500D02*
D03*
X70000Y20000D02*
D03*
X115000D02*
D03*
X128000Y16000D02*
D03*
X184000Y7000D02*
D03*
X200000D02*
D03*
X500000Y570000D02*
D03*
X507000Y589000D02*
D03*
X540000Y611000D02*
D03*
X338000Y453500D02*
D03*
X296000Y99000D02*
D03*
X370000Y640000D02*
D03*
X290000D02*
D03*
X270000Y640000D02*
D03*
X45000Y166000D02*
D03*
X33000D02*
D03*
X285500Y98500D02*
D03*
X83000Y126250D02*
D03*
X350000Y105000D02*
D03*
X82000Y106000D02*
D03*
X50984Y146250D02*
D03*
X66792Y128013D02*
D03*
X51000Y135000D02*
D03*
X249000Y7000D02*
D03*
X217000D02*
D03*
X600000Y315000D02*
D03*
X401000Y15000D02*
D03*
X353000Y384000D02*
D03*
X351000Y392000D02*
D03*
X440000Y24000D02*
D03*
X375000Y383000D02*
D03*
X87000Y164000D02*
D03*
X155000Y120000D02*
D03*
X177000Y98000D02*
D03*
X261000Y151000D02*
D03*
X323000Y152000D02*
D03*
X354000Y171000D02*
D03*
X379000Y538000D02*
D03*
X365000D02*
D03*
X351000Y650000D02*
D03*
X323000D02*
D03*
X50000Y65000D02*
D03*
Y55000D02*
D03*
Y85000D02*
D03*
X100000Y20000D02*
D03*
X168000Y7000D02*
D03*
X60000Y55000D02*
D03*
X72500Y40000D02*
D03*
X66000Y71000D02*
D03*
X85000Y20000D02*
D03*
X80000Y59000D02*
D03*
X38000Y103000D02*
D03*
X78000Y85000D02*
D03*
X113000Y112000D02*
D03*
X233000Y7000D02*
D03*
X265000D02*
D03*
X237000Y78000D02*
D03*
Y96000D02*
D03*
X15000Y130000D02*
D03*
Y150000D02*
D03*
X74000Y172000D02*
D03*
X82000D02*
D03*
X102000Y176000D02*
D03*
X90000Y185000D02*
D03*
X112000Y186000D02*
D03*
X30000Y200000D02*
D03*
X40000Y190000D02*
D03*
X15000Y200000D02*
D03*
X53000Y191000D02*
D03*
X80000Y285000D02*
D03*
Y338000D02*
D03*
X123000Y220000D02*
D03*
X119000Y597000D02*
D03*
X120000Y610000D02*
D03*
X132000Y132000D02*
D03*
Y140000D02*
D03*
X138000Y229000D02*
D03*
X184000Y285000D02*
D03*
X236000Y140000D02*
D03*
X279000Y135000D02*
D03*
X217000Y341000D02*
D03*
X287000Y205000D02*
D03*
X200000Y359000D02*
D03*
X140000Y390000D02*
D03*
X200000Y394000D02*
D03*
X249000Y427000D02*
D03*
Y453000D02*
D03*
Y443000D02*
D03*
X252000Y413000D02*
D03*
X253000Y403000D02*
D03*
X263000Y488000D02*
D03*
X285000Y505000D02*
D03*
X292000Y538000D02*
D03*
Y524000D02*
D03*
X385000Y95000D02*
D03*
X375000Y104000D02*
D03*
X365000Y135000D02*
D03*
X331000Y138000D02*
D03*
X375000Y140000D02*
D03*
X461000Y97000D02*
D03*
X337000Y183000D02*
D03*
X338000Y174000D02*
D03*
X400000Y155000D02*
D03*
X337000Y194000D02*
D03*
X327000Y196000D02*
D03*
X332000Y232000D02*
D03*
X356000Y248000D02*
D03*
X442000Y157000D02*
D03*
X469000D02*
D03*
X492000Y158000D02*
D03*
X482000Y168000D02*
D03*
X462000Y288000D02*
D03*
X489000Y186000D02*
D03*
Y175000D02*
D03*
X560000Y60000D02*
D03*
X525000D02*
D03*
X540000D02*
D03*
X525000Y75000D02*
D03*
X530000Y90000D02*
D03*
X560000Y75000D02*
D03*
X545000Y90000D02*
D03*
X560000D02*
D03*
X625000Y75000D02*
D03*
Y65000D02*
D03*
Y155000D02*
D03*
Y90000D02*
D03*
X645000D02*
D03*
X635000D02*
D03*
X645000Y155000D02*
D03*
X500000Y165000D02*
D03*
X510000D02*
D03*
X521000Y187000D02*
D03*
X525000Y160000D02*
D03*
X550000D02*
D03*
X521000Y175000D02*
D03*
X550000Y190000D02*
D03*
X540000Y280000D02*
D03*
X560000Y175000D02*
D03*
X625000Y250000D02*
D03*
Y175000D02*
D03*
X645000Y250000D02*
D03*
Y195000D02*
D03*
X560000Y250000D02*
D03*
X600000Y265000D02*
D03*
X560000Y280000D02*
D03*
Y265000D02*
D03*
X625000D02*
D03*
Y280000D02*
D03*
X645000D02*
D03*
X395000Y364000D02*
D03*
X319000Y388000D02*
D03*
X430000Y401000D02*
D03*
X462000Y298000D02*
D03*
X470000Y293000D02*
D03*
X463000Y318000D02*
D03*
X470000Y325000D02*
D03*
X478000Y297000D02*
D03*
X477000Y333000D02*
D03*
X478000Y318000D02*
D03*
X451000Y386000D02*
D03*
X462000Y373000D02*
D03*
X451000Y404000D02*
D03*
X490000Y360000D02*
D03*
X477000Y373000D02*
D03*
X329000Y413000D02*
D03*
X341000Y411000D02*
D03*
X338000Y476000D02*
D03*
X430000Y415000D02*
D03*
X417000Y447000D02*
D03*
Y466000D02*
D03*
X445000Y475000D02*
D03*
X485000D02*
D03*
X490000Y348000D02*
D03*
X560000Y315000D02*
D03*
Y300000D02*
D03*
X540000Y315000D02*
D03*
X560000Y330000D02*
D03*
X540000Y350000D02*
D03*
X537000Y421000D02*
D03*
X560000Y365000D02*
D03*
Y350000D02*
D03*
X550000Y425000D02*
D03*
X580000Y295000D02*
D03*
Y335000D02*
D03*
X600000Y330000D02*
D03*
Y300000D02*
D03*
X645000Y315000D02*
D03*
X625000D02*
D03*
X600000Y350000D02*
D03*
X625000Y365000D02*
D03*
Y350000D02*
D03*
X645000D02*
D03*
X500000Y433000D02*
D03*
X535000Y490000D02*
D03*
X550000Y485000D02*
D03*
Y475000D02*
D03*
X535000Y505000D02*
D03*
X540000Y597000D02*
D03*
X550000Y445000D02*
D03*
Y435000D02*
D03*
Y465000D02*
D03*
Y455000D02*
D03*
X430000Y91000D02*
D03*
X179000Y264000D02*
D03*
X194000Y269000D02*
D03*
X287000Y226000D02*
D03*
X304000Y250000D02*
D03*
X157000Y188000D02*
D03*
X440000Y15000D02*
D03*
X484000Y213000D02*
D03*
X512000Y204000D02*
D03*
X440000Y267000D02*
D03*
X401000Y481000D02*
D03*
X406000Y429000D02*
D03*
X387000Y377000D02*
D03*
X390000Y560000D02*
D03*
X269000D02*
D03*
X297000Y492000D02*
D03*
X200000Y527000D02*
D03*
X214000Y403000D02*
D03*
X257000Y469000D02*
D03*
X26000Y282000D02*
D03*
Y310000D02*
D03*
X25000Y337000D02*
D03*
X80000Y399000D02*
D03*
X190000Y225000D02*
D03*
X201000Y247000D02*
D03*
X177000Y239000D02*
D03*
X156000Y227000D02*
D03*
Y245000D02*
D03*
X290000Y339000D02*
D03*
X525000Y570000D02*
D03*
Y580000D02*
D03*
X288000Y47000D02*
D03*
X335000Y97000D02*
D03*
Y90000D02*
D03*
X270000Y344000D02*
D03*
X233000Y50000D02*
D03*
X243000D02*
D03*
X223000D02*
D03*
X366500Y237000D02*
D03*
X362000Y280000D02*
D03*
X303000Y275000D02*
D03*
X335000D02*
D03*
X261000Y142000D02*
D03*
X236000Y180000D02*
D03*
X419000Y184000D02*
D03*
X385000Y126000D02*
D03*
X144000Y610000D02*
D03*
X126000Y99000D02*
D03*
X256000Y60000D02*
D03*
X295000Y159000D02*
D03*
X271000Y129000D02*
D03*
X285000Y114000D02*
D03*
X96000Y610000D02*
D03*
X251000Y158000D02*
D03*
Y126000D02*
D03*
X265000Y109000D02*
D03*
X319000Y52000D02*
D03*
X303000Y49000D02*
D03*
X306000Y75000D02*
D03*
X60000Y366000D02*
D03*
Y254000D02*
D03*
X390000Y610000D02*
D03*
X290000D02*
D03*
X390000Y640000D02*
D03*
X80000Y412000D02*
D03*
X327000Y247000D02*
D03*
X344000Y375000D02*
D03*
X188000Y158000D02*
D03*
X31000Y154000D02*
D03*
X440000Y605000D02*
D03*
X389999Y305000D02*
D03*
X542000Y604000D02*
D03*
X433000Y363000D02*
D03*
X432000Y340000D02*
D03*
X170000Y496000D02*
D03*
X210000Y50000D02*
D03*
X200000D02*
D03*
X190000D02*
D03*
X140000Y285000D02*
D03*
Y335000D02*
D03*
X435000Y120000D02*
D03*
X170000Y81000D02*
D03*
Y69000D02*
D03*
X138000Y165000D02*
D03*
X265000Y51000D02*
D03*
X313000Y257000D02*
D03*
X206000Y164000D02*
D03*
X359999Y305000D02*
D03*
X347000Y32000D02*
D03*
X363000D02*
D03*
X355000D02*
D03*
X420000Y68000D02*
D03*
X200001Y490000D02*
D03*
X220000Y454000D02*
D03*
X92000Y58000D02*
D03*
X447000Y429000D02*
D03*
X364000Y517000D02*
D03*
X341000Y505000D02*
D03*
X239000Y357000D02*
D03*
X314000Y377000D02*
D03*
X472000Y395000D02*
D03*
X522000Y281000D02*
D03*
X509000D02*
D03*
Y292000D02*
D03*
X522000Y303000D02*
D03*
X509000D02*
D03*
X92000Y80000D02*
D03*
Y69000D02*
D03*
X320000Y23000D02*
D03*
X322000Y37000D02*
D03*
X310000Y31000D02*
D03*
X300000Y23000D02*
D03*
X299000Y37000D02*
D03*
X38000Y150000D02*
D03*
X44000Y141000D02*
D03*
X31000D02*
D03*
X128000Y30000D02*
D03*
X138000Y38000D02*
D03*
Y23000D02*
D03*
X148000Y16000D02*
D03*
Y30000D02*
D03*
X334000Y32000D02*
D03*
D191*
X40000Y350000D02*
D03*
Y270000D02*
D03*
Y249999D02*
D03*
Y370000D02*
D03*
X33000Y166000D02*
D03*
Y115999D02*
D03*
D192*
X269999Y630000D02*
D03*
X389999D02*
D03*
X370000D02*
D03*
X290000D02*
D03*
X330000D02*
D03*
D193*
X531000Y218000D02*
D03*
X525000D02*
D03*
X519000D02*
D03*
X59000Y219000D02*
D03*
X69000D02*
D03*
X279000Y114000D02*
D03*
X273000D02*
D03*
Y104000D02*
D03*
X279000D02*
D03*
X160250Y140750D02*
D03*
X170250D02*
D03*
X322000Y78000D02*
D03*
X342000D02*
D03*
X177250Y113250D02*
D03*
X167250D02*
D03*
D194*
X305000Y129000D02*
D03*
X285000D02*
D03*
X295000Y123000D02*
D03*
X285000D02*
D03*
X295000Y129000D02*
D03*
X315000D02*
D03*
Y123000D02*
D03*
X305000D02*
D03*
D195*
X332000Y78000D02*
D03*
D196*
X258375Y66750D02*
X258500Y66625D01*
X258375Y66750D02*
Y104375D01*
X258500Y104500D01*
D197*
X338250Y81998D02*
D03*
Y73998D02*
D03*
X172252Y117250D02*
D03*
Y109250D02*
D03*
M02*
