%TF.GenerationSoftware,KiCad,Pcbnew,9.0.7+1*%
%TF.CreationDate,Date%
%TF.ProjectId,PD240W_kicad,50443234-3057-45f6-9b69-6361642e6b69,1.0.0*%
%TF.SameCoordinates,Original*%
%TF.FileFunction,Soldermask,Top*%
%TF.FilePolarity,Negative*%
%FSLAX46Y46*%
G04 Gerber Fmt 4.6, Leading zero omitted, Abs format (unit mm)*
G04 Created by KiCad*
%MOMM*%
%LPD*%
G01*
G04 APERTURE LIST*
G04 Aperture macros list*
%AMRoundRect*
0 Rectangle with rounded corners*
0 $1 Rounding radius*
0 $2 $3 $4 $5 $6 $7 $8 $9 X,Y pos of 4 corners*
0 Add a 4 corners polygon primitive as box body*
4,1,4,$2,$3,$4,$5,$6,$7,$8,$9,$2,$3,0*
0 Add four circle primitives for the rounded corners*
1,1,$1+$1,$2,$3*
1,1,$1+$1,$4,$5*
1,1,$1+$1,$6,$7*
1,1,$1+$1,$8,$9*
0 Add four rect primitives between the rounded corners*
20,1,$1+$1,$2,$3,$4,$5,0*
20,1,$1+$1,$4,$5,$6,$7,0*
20,1,$1+$1,$6,$7,$8,$9,0*
20,1,$1+$1,$8,$9,$2,$3,0*%
%AMFreePoly0*
4,1,25,2.245155,0.441755,2.259800,0.406400,2.259800,-3.581400,2.245155,-3.616755,2.209800,-3.631400,0.482600,-3.631400,0.447245,-3.616755,0.432600,-3.581400,0.432600,-2.995260,-0.101600,-2.995260,-0.136955,-2.980615,-0.151600,-2.945260,-0.151600,-2.437260,-0.136955,-2.401905,-0.101600,-2.387260,0.432600,-2.387260,0.432600,-0.050000,0.000000,-0.050000,-0.035355,-0.035355,-0.050000,0.000000,
-0.050000,0.406400,-0.035355,0.441755,0.000000,0.456400,2.209800,0.456400,2.245155,0.441755,2.245155,0.441755,$1*%
%AMFreePoly1*
4,1,25,2.245155,4.023155,2.259800,3.987800,2.259800,3.581400,2.245155,3.546045,2.209800,3.531400,1.777200,3.531400,1.777200,1.194140,2.311400,1.194140,2.346755,1.179495,2.361400,1.144140,2.361400,0.636140,2.346755,0.600785,2.311400,0.586140,1.777200,0.586140,1.777200,0.000000,1.762555,-0.035355,1.727200,-0.050000,0.000000,-0.050000,-0.035355,-0.035355,-0.050000,0.000000,
-0.050000,3.987800,-0.035355,4.023155,0.000000,4.037800,2.209800,4.037800,2.245155,4.023155,2.245155,4.023155,$1*%
G04 Aperture macros list end*
%ADD10C,0.200000*%
%ADD11C,0.254000*%
%ADD12C,0.212500*%
%ADD13C,0.187500*%
%ADD14C,0.236250*%
%ADD15C,0.225000*%
%ADD16C,0.000000*%
%ADD17RoundRect,0.075000X0.300000X0.300000X-0.300000X0.300000X-0.300000X-0.300000X0.300000X-0.300000X0*%
%ADD18C,3.100000*%
%ADD19C,2.100000*%
%ADD20C,1.900000*%
%ADD21RoundRect,0.075000X-0.300000X-0.300000X0.300000X-0.300000X0.300000X0.300000X-0.300000X0.300000X0*%
%ADD22RoundRect,0.075000X0.300000X-0.300000X0.300000X0.300000X-0.300000X0.300000X-0.300000X-0.300000X0*%
%ADD23RoundRect,0.050000X0.150000X0.600000X-0.150000X0.600000X-0.150000X-0.600000X0.150000X-0.600000X0*%
%ADD24RoundRect,0.230000X0.920000X1.470000X-0.920000X1.470000X-0.920000X-1.470000X0.920000X-1.470000X0*%
%ADD25C,0.800000*%
%ADD26RoundRect,0.165000X-1.235000X-0.660000X1.235000X-0.660000X1.235000X0.660000X-1.235000X0.660000X0*%
%ADD27RoundRect,0.065000X0.260000X0.260000X-0.260000X0.260000X-0.260000X-0.260000X0.260000X-0.260000X0*%
%ADD28RoundRect,0.095000X0.380000X-0.405000X0.380000X0.405000X-0.380000X0.405000X-0.380000X-0.405000X0*%
%ADD29RoundRect,0.030000X0.320000X-0.120000X0.320000X0.120000X-0.320000X0.120000X-0.320000X-0.120000X0*%
%ADD30RoundRect,0.030000X-0.120000X-0.320000X0.120000X-0.320000X0.120000X0.320000X-0.120000X0.320000X0*%
%ADD31RoundRect,0.063000X-0.837000X-0.837000X0.837000X-0.837000X0.837000X0.837000X-0.837000X0.837000X0*%
%ADD32RoundRect,0.070000X-0.280000X0.290000X-0.280000X-0.290000X0.280000X-0.290000X0.280000X0.290000X0*%
%ADD33RoundRect,0.120000X1.780000X-0.480000X1.780000X0.480000X-1.780000X0.480000X-1.780000X-0.480000X0*%
%ADD34RoundRect,0.150000X-0.950000X0.600000X-0.950000X-0.600000X0.950000X-0.600000X0.950000X0.600000X0*%
%ADD35RoundRect,0.090000X0.360000X0.410000X-0.360000X0.410000X-0.360000X-0.410000X0.360000X-0.410000X0*%
%ADD36RoundRect,0.065000X-0.260000X0.260000X-0.260000X-0.260000X0.260000X-0.260000X0.260000X0.260000X0*%
%ADD37RoundRect,0.165000X0.660000X-1.235000X0.660000X1.235000X-0.660000X1.235000X-0.660000X-1.235000X0*%
%ADD38RoundRect,0.095000X0.405000X0.380000X-0.405000X0.380000X-0.405000X-0.380000X0.405000X-0.380000X0*%
%ADD39RoundRect,0.130000X-0.520000X0.620000X-0.520000X-0.620000X0.520000X-0.620000X0.520000X0.620000X0*%
%ADD40RoundRect,0.095000X-0.380000X0.405000X-0.380000X-0.405000X0.380000X-0.405000X0.380000X0.405000X0*%
%ADD41RoundRect,0.110000X0.440000X0.890000X-0.440000X0.890000X-0.440000X-0.890000X0.440000X-0.890000X0*%
%ADD42C,0.475000*%
%ADD43RoundRect,0.137500X0.687500X0.412500X-0.687500X0.412500X-0.687500X-0.412500X0.687500X-0.412500X0*%
%ADD44RoundRect,0.150000X0.600000X-0.650000X0.600000X0.650000X-0.600000X0.650000X-0.600000X-0.650000X0*%
%ADD45RoundRect,0.070000X0.290000X0.280000X-0.290000X0.280000X-0.290000X-0.280000X0.290000X-0.280000X0*%
%ADD46RoundRect,0.075000X-0.300000X0.300000X-0.300000X-0.300000X0.300000X-0.300000X0.300000X0.300000X0*%
%ADD47RoundRect,0.150000X-0.600000X-0.950000X0.600000X-0.950000X0.600000X0.950000X-0.600000X0.950000X0*%
%ADD48O,1.624000X2.100000*%
%ADD49O,1.600000X2.100000*%
%ADD50RoundRect,0.175000X0.700000X-0.840000X0.700000X0.840000X-0.700000X0.840000X-0.700000X-0.840000X0*%
%ADD51RoundRect,0.110000X-0.440000X0.440000X-0.440000X-0.440000X0.440000X-0.440000X0.440000X0.440000X0*%
%ADD52RoundRect,0.037500X0.112500X-0.450000X0.112500X0.450000X-0.112500X0.450000X-0.112500X-0.450000X0*%
%ADD53RoundRect,0.037500X0.450000X-0.112500X0.450000X0.112500X-0.450000X0.112500X-0.450000X-0.112500X0*%
%ADD54RoundRect,0.412500X1.237500X-1.237500X1.237500X1.237500X-1.237500X1.237500X-1.237500X-1.237500X0*%
%ADD55RoundRect,0.095000X-0.555000X0.380000X-0.555000X-0.380000X0.555000X-0.380000X0.555000X0.380000X0*%
%ADD56RoundRect,0.030000X0.120000X0.295000X-0.120000X0.295000X-0.120000X-0.295000X0.120000X-0.295000X0*%
%ADD57RoundRect,0.030000X0.295000X-0.120000X0.295000X0.120000X-0.295000X0.120000X-0.295000X-0.120000X0*%
%ADD58RoundRect,0.145000X1.305000X-1.305000X1.305000X1.305000X-1.305000X1.305000X-1.305000X-1.305000X0*%
%ADD59C,0.900000*%
%ADD60C,5.500000*%
%ADD61RoundRect,0.065000X-0.260000X-0.260000X0.260000X-0.260000X0.260000X0.260000X-0.260000X0.260000X0*%
%ADD62RoundRect,0.100000X-0.675000X0.100000X-0.675000X-0.100000X0.675000X-0.100000X0.675000X0.100000X0*%
%ADD63RoundRect,0.040000X-0.160000X0.460000X-0.160000X-0.460000X0.160000X-0.460000X0.160000X0.460000X0*%
%ADD64RoundRect,0.133500X-0.856500X0.756500X-0.856500X-0.756500X0.856500X-0.756500X0.856500X0.756500X0*%
%ADD65RoundRect,0.080000X-0.370000X-0.320000X0.370000X-0.320000X0.370000X0.320000X-0.370000X0.320000X0*%
%ADD66RoundRect,0.073000X-0.392000X0.292000X-0.392000X-0.292000X0.392000X-0.292000X0.392000X0.292000X0*%
%ADD67RoundRect,0.095000X-0.405000X-0.380000X0.405000X-0.380000X0.405000X0.380000X-0.405000X0.380000X0*%
%ADD68RoundRect,0.065000X0.260000X-0.260000X0.260000X0.260000X-0.260000X0.260000X-0.260000X-0.260000X0*%
%ADD69RoundRect,0.090000X-0.410000X0.360000X-0.410000X-0.360000X0.410000X-0.360000X0.410000X0.360000X0*%
%ADD70RoundRect,0.055000X-0.520000X0.220000X-0.520000X-0.220000X0.520000X-0.220000X0.520000X0.220000X0*%
%ADD71RoundRect,0.050000X-1.700000X2.175000X-1.700000X-2.175000X1.700000X-2.175000X1.700000X2.175000X0*%
%ADD72C,0.101000*%
%ADD73RoundRect,0.090000X0.360000X0.360000X-0.360000X0.360000X-0.360000X-0.360000X0.360000X-0.360000X0*%
%ADD74RoundRect,0.046250X-0.453750X0.138750X-0.453750X-0.138750X0.453750X-0.138750X0.453750X0.138750X0*%
%ADD75RoundRect,0.046250X-0.403750X0.138750X-0.403750X-0.138750X0.403750X-0.138750X0.403750X0.138750X0*%
%ADD76RoundRect,0.036250X-0.373750X0.108750X-0.373750X-0.108750X0.373750X-0.108750X0.373750X0.108750X0*%
%ADD77O,2.700000X1.400000*%
%ADD78O,2.650000X1.350000*%
%ADD79O,1.450000X1.750000*%
%ADD80O,1.450000X2.025000*%
%ADD81RoundRect,0.120000X0.480000X1.780000X-0.480000X1.780000X-0.480000X-1.780000X0.480000X-1.780000X0*%
%ADD82RoundRect,0.075000X0.225000X0.075000X-0.225000X0.075000X-0.225000X-0.075000X0.225000X-0.075000X0*%
%ADD83RoundRect,0.070000X-0.290000X-0.280000X0.290000X-0.280000X0.290000X0.280000X-0.290000X0.280000X0*%
%ADD84RoundRect,0.065000X0.260000X0.485000X-0.260000X0.485000X-0.260000X-0.485000X0.260000X-0.485000X0*%
%ADD85RoundRect,0.090000X-0.360000X-0.360000X0.360000X-0.360000X0.360000X0.360000X-0.360000X0.360000X0*%
%ADD86RoundRect,0.070000X0.280000X-0.290000X0.280000X0.290000X-0.280000X0.290000X-0.280000X-0.290000X0*%
%ADD87RoundRect,0.050000X-0.200000X-0.425000X0.200000X-0.425000X0.200000X0.425000X-0.200000X0.425000X0*%
%ADD88RoundRect,0.130000X0.520000X-0.620000X0.520000X0.620000X-0.520000X0.620000X-0.520000X-0.620000X0*%
%ADD89RoundRect,0.088750X-0.266250X-0.596250X0.266250X-0.596250X0.266250X0.596250X-0.266250X0.596250X0*%
%ADD90FreePoly0,0.000000*%
%ADD91FreePoly1,0.000000*%
%ADD92RoundRect,0.060000X-0.240000X0.250000X-0.240000X-0.250000X0.240000X-0.250000X0.240000X0.250000X0*%
%ADD93RoundRect,0.095000X0.380000X0.555000X-0.380000X0.555000X-0.380000X-0.555000X0.380000X-0.555000X0*%
%ADD94RoundRect,0.055000X0.395000X-0.220000X0.395000X0.220000X-0.395000X0.220000X-0.395000X-0.220000X0*%
%ADD95RoundRect,0.130000X0.620000X0.520000X-0.620000X0.520000X-0.620000X-0.520000X0.620000X-0.520000X0*%
%ADD96RoundRect,0.350000X0.350000X1.400000X-0.350000X1.400000X-0.350000X-1.400000X0.350000X-1.400000X0*%
%ADD97RoundRect,0.060000X-0.240000X-0.490000X0.240000X-0.490000X0.240000X0.490000X-0.240000X0.490000X0*%
%ADD98RoundRect,0.120000X0.480000X0.630000X-0.480000X0.630000X-0.480000X-0.630000X0.480000X-0.630000X0*%
%ADD99C,2.000000*%
%ADD100RoundRect,0.110000X0.890000X-0.440000X0.890000X0.440000X-0.890000X0.440000X-0.890000X-0.440000X0*%
%ADD101RoundRect,0.150000X-0.750000X-0.450000X0.750000X-0.450000X0.750000X0.450000X-0.750000X0.450000X0*%
%ADD102RoundRect,0.065000X0.260000X0.385000X-0.260000X0.385000X-0.260000X-0.385000X0.260000X-0.385000X0*%
%ADD103RoundRect,0.090000X0.410000X-0.360000X0.410000X0.360000X-0.410000X0.360000X-0.410000X-0.360000X0*%
%ADD104RoundRect,0.090000X0.360000X-0.360000X0.360000X0.360000X-0.360000X0.360000X-0.360000X-0.360000X0*%
%ADD105O,0.550000X1.500000*%
%ADD106RoundRect,0.150000X0.750000X0.450000X-0.750000X0.450000X-0.750000X-0.450000X0.750000X-0.450000X0*%
%ADD107RoundRect,0.102000X0.408000X-0.438000X0.408000X0.438000X-0.408000X0.438000X-0.408000X-0.438000X0*%
%ADD108RoundRect,0.165000X-0.660000X1.235000X-0.660000X-1.235000X0.660000X-1.235000X0.660000X1.235000X0*%
%ADD109RoundRect,0.060000X0.240000X-0.250000X0.240000X0.250000X-0.240000X0.250000X-0.240000X-0.250000X0*%
%ADD110RoundRect,0.110000X0.440000X0.440000X-0.440000X0.440000X-0.440000X-0.440000X0.440000X-0.440000X0*%
%ADD111RoundRect,0.400000X-0.400000X-0.400000X0.400000X-0.400000X0.400000X0.400000X-0.400000X0.400000X0*%
%ADD112C,1.600000*%
%ADD113RoundRect,0.825000X-0.825000X-1.225000X0.825000X-1.225000X0.825000X1.225000X-0.825000X1.225000X0*%
%ADD114RoundRect,0.065000X0.485000X-0.260000X0.485000X0.260000X-0.485000X0.260000X-0.485000X-0.260000X0*%
%ADD115C,3.200000*%
%ADD116RoundRect,0.095000X0.380000X0.380000X-0.380000X0.380000X-0.380000X-0.380000X0.380000X-0.380000X0*%
G04 APERTURE END LIST*
D10*
G36*
X169558391Y-77525673D02*
G01*
X169886470Y-77525673D01*
X170110441Y-78240999D01*
X170330992Y-77525673D01*
X170649485Y-77525673D01*
X170276404Y-78530000D01*
X169938311Y-78530000D01*
X169558391Y-77525673D01*
G37*
G36*
X169821772Y-71825673D02*
G01*
X170113704Y-71825673D01*
X170487823Y-72374609D01*
X170487823Y-71825673D01*
X170783418Y-71825673D01*
X170783418Y-72830000D01*
X170488739Y-72830000D01*
X170116696Y-72284178D01*
X170116696Y-72830000D01*
X169821772Y-72830000D01*
X169821772Y-71825673D01*
G37*
G36*
X169558391Y-82725673D02*
G01*
X169886470Y-82725673D01*
X170110441Y-83440999D01*
X170330992Y-82725673D01*
X170649485Y-82725673D01*
X170276404Y-83730000D01*
X169938311Y-83730000D01*
X169558391Y-82725673D01*
G37*
D11*
G36*
X175124078Y-101210810D02*
G01*
X175282414Y-101210810D01*
X175282414Y-101486551D01*
X175124078Y-101486551D01*
X175124078Y-101722900D01*
X174813563Y-101722900D01*
X174813563Y-101486551D01*
X174174913Y-101486551D01*
X174174913Y-101210810D01*
X174483967Y-101210810D01*
X174813563Y-101210810D01*
X174813563Y-100820511D01*
X174483967Y-101210810D01*
X174174913Y-101210810D01*
X174174913Y-101195808D01*
X174814870Y-100437752D01*
X175124078Y-100437752D01*
X175124078Y-101210810D01*
G37*
G36*
X176014208Y-100445102D02*
G01*
X176117004Y-100465075D01*
X176197386Y-100495200D01*
X176259584Y-100534000D01*
X176313990Y-100586559D01*
X176351403Y-100643644D01*
X176373742Y-100706339D01*
X176381374Y-100776427D01*
X176376014Y-100831837D01*
X176359998Y-100884614D01*
X176332828Y-100935685D01*
X176289049Y-100987192D01*
X176222116Y-101039780D01*
X176284205Y-101076214D01*
X176333600Y-101119135D01*
X176371911Y-101168803D01*
X176400078Y-101224983D01*
X176416962Y-101284766D01*
X176422689Y-101349219D01*
X176417776Y-101411680D01*
X176403218Y-101470789D01*
X176378912Y-101527327D01*
X176346464Y-101579843D01*
X176310677Y-101622035D01*
X176271509Y-101655195D01*
X176202250Y-101693381D01*
X176113174Y-101721438D01*
X176016733Y-101737174D01*
X175911523Y-101742595D01*
X175777011Y-101736214D01*
X175676890Y-101719379D01*
X175604008Y-101694972D01*
X175537774Y-101657540D01*
X175484327Y-101610956D01*
X175442134Y-101554639D01*
X175411479Y-101490828D01*
X175392973Y-101422197D01*
X175386662Y-101347526D01*
X175387743Y-101334755D01*
X175741032Y-101334755D01*
X175746911Y-101387563D01*
X175763669Y-101431673D01*
X175791118Y-101469009D01*
X175827043Y-101498501D01*
X175864777Y-101515399D01*
X175905522Y-101521018D01*
X175944516Y-101515387D01*
X175981126Y-101498308D01*
X176016542Y-101468163D01*
X176043570Y-101430338D01*
X176060029Y-101386181D01*
X176065781Y-101333909D01*
X176059952Y-101281113D01*
X176043323Y-101236860D01*
X176016080Y-101199270D01*
X175980393Y-101169563D01*
X175942545Y-101152495D01*
X175901291Y-101146799D01*
X175860495Y-101152354D01*
X175823467Y-101168913D01*
X175788963Y-101197577D01*
X175763014Y-101234036D01*
X175746820Y-101278973D01*
X175741032Y-101334755D01*
X175387743Y-101334755D01*
X175392842Y-101274515D01*
X175410437Y-101211963D01*
X175438748Y-101157955D01*
X175477999Y-101111388D01*
X175529099Y-101072032D01*
X175594083Y-101039780D01*
X175523566Y-100993450D01*
X175477448Y-100944225D01*
X175448672Y-100892781D01*
X175431310Y-100836443D01*
X175427264Y-100793891D01*
X175759958Y-100793891D01*
X175764677Y-100834554D01*
X175778098Y-100868155D01*
X175800119Y-100896294D01*
X175829030Y-100917386D01*
X175864170Y-100930436D01*
X175907292Y-100935070D01*
X175945186Y-100930624D01*
X175977149Y-100917867D01*
X176004539Y-100896755D01*
X176025393Y-100869112D01*
X176038093Y-100836436D01*
X176042546Y-100797277D01*
X176037883Y-100756565D01*
X176024592Y-100722686D01*
X176002770Y-100694105D01*
X175974185Y-100672238D01*
X175940829Y-100659015D01*
X175901291Y-100654405D01*
X175861081Y-100658954D01*
X175827574Y-100671919D01*
X175799273Y-100693181D01*
X175777675Y-100721175D01*
X175764554Y-100754250D01*
X175759958Y-100793891D01*
X175427264Y-100793891D01*
X175425362Y-100773888D01*
X175434531Y-100699106D01*
X175461526Y-100632288D01*
X175507363Y-100571265D01*
X175575311Y-100514920D01*
X175634697Y-100482772D01*
X175704657Y-100458648D01*
X175787033Y-100443237D01*
X175883980Y-100437752D01*
X176014208Y-100445102D01*
G37*
G36*
X176493163Y-100457448D02*
G01*
X176906543Y-100457448D01*
X177188746Y-101358759D01*
X177466641Y-100457448D01*
X177867941Y-100457448D01*
X177397859Y-101722900D01*
X176971862Y-101722900D01*
X176493163Y-100457448D01*
G37*
D12*
G36*
X165871422Y-122236965D02*
G01*
X165849628Y-122230812D01*
X165837969Y-122232438D01*
X165827133Y-122237297D01*
X165819209Y-122243816D01*
X165670520Y-122408354D01*
X165550774Y-122549673D01*
X165523579Y-122584756D01*
X165473388Y-122655286D01*
X165448036Y-122695488D01*
X165426974Y-122734526D01*
X165413548Y-122769057D01*
X165411106Y-122795738D01*
X165413957Y-122801932D01*
X165419101Y-122803662D01*
X165433917Y-122796438D01*
X165468265Y-122763567D01*
X165554303Y-122661691D01*
X165648791Y-122548900D01*
X165695951Y-122497564D01*
X165740370Y-122455523D01*
X165583783Y-122897569D01*
X165542995Y-123029659D01*
X165521401Y-123125419D01*
X165518877Y-123160500D01*
X165520755Y-123172312D01*
X165525134Y-123179343D01*
X165532516Y-123176955D01*
X165549603Y-123152552D01*
X165589993Y-123070475D01*
X165668164Y-122883937D01*
X165773340Y-122611125D01*
X165788535Y-122570226D01*
X165889016Y-122286583D01*
X165890525Y-122264050D01*
X165886521Y-122253006D01*
X165879527Y-122243428D01*
X165871422Y-122236965D01*
G37*
G36*
X166118785Y-123175295D02*
G01*
X166230750Y-123156480D01*
X166350094Y-123138903D01*
X166493359Y-123121161D01*
X166505919Y-123117898D01*
X166515430Y-123111023D01*
X166521593Y-123098169D01*
X166516155Y-123092729D01*
X166484578Y-123085987D01*
X166389504Y-123080101D01*
X166308372Y-123079988D01*
X166221149Y-123083200D01*
X166142722Y-123089274D01*
X166071087Y-123098584D01*
X166213001Y-122898281D01*
X166276232Y-122811326D01*
X166276358Y-122811153D01*
X166277639Y-122809394D01*
X166473428Y-122535971D01*
X166491588Y-122506705D01*
X166505720Y-122477909D01*
X166516141Y-122449434D01*
X166522915Y-122421738D01*
X166526396Y-122368255D01*
X166517205Y-122318558D01*
X166496328Y-122274381D01*
X166468965Y-122241585D01*
X166450172Y-122226305D01*
X166428938Y-122213386D01*
X166405720Y-122203213D01*
X166380545Y-122195948D01*
X166354344Y-122191947D01*
X166326692Y-122191257D01*
X166298687Y-122194006D01*
X166269690Y-122200371D01*
X166240669Y-122210282D01*
X166211049Y-122224088D01*
X166153715Y-122261878D01*
X166104408Y-122306462D01*
X166078103Y-122339963D01*
X166062169Y-122366249D01*
X166047239Y-122398287D01*
X166037188Y-122428757D01*
X166030490Y-122462583D01*
X166028345Y-122492701D01*
X166029946Y-122524769D01*
X166035070Y-122554860D01*
X166044170Y-122586286D01*
X166051157Y-122604377D01*
X166068499Y-122615931D01*
X166075570Y-122615738D01*
X166082446Y-122611099D01*
X166088485Y-122600408D01*
X166093042Y-122582059D01*
X166086254Y-122551725D01*
X166083993Y-122518547D01*
X166088020Y-122477575D01*
X166102484Y-122431968D01*
X166114927Y-122408414D01*
X166131535Y-122384886D01*
X166152827Y-122361779D01*
X166179321Y-122339489D01*
X166211537Y-122318409D01*
X166249992Y-122298936D01*
X166276725Y-122286746D01*
X166302291Y-122279011D01*
X166303036Y-122278850D01*
X166305319Y-122278072D01*
X166305215Y-122278539D01*
X166328130Y-122275628D01*
X166349522Y-122276089D01*
X166369345Y-122279699D01*
X166387155Y-122286189D01*
X166411873Y-122302777D01*
X166423818Y-122316166D01*
X166432920Y-122331240D01*
X166442704Y-122366351D01*
X166440401Y-122407927D01*
X166424122Y-122455032D01*
X166404451Y-122488584D01*
X166209118Y-122761294D01*
X166208678Y-122761898D01*
X166054628Y-122975441D01*
X165992076Y-123065997D01*
X165945070Y-123139586D01*
X165939249Y-123161575D01*
X165941090Y-123173235D01*
X165946227Y-123184091D01*
X165947717Y-123186194D01*
X165965732Y-123199844D01*
X165981090Y-123202751D01*
X165991782Y-123201349D01*
X165992261Y-123201229D01*
X166029677Y-123192522D01*
X166118785Y-123175295D01*
G37*
G36*
X166638579Y-123409838D02*
G01*
X166623429Y-123447453D01*
X166615766Y-123498225D01*
X166616677Y-123521655D01*
X166621030Y-123539626D01*
X166626379Y-123547876D01*
X166633575Y-123550991D01*
X166647549Y-123544243D01*
X166669505Y-123514792D01*
X166675170Y-123504610D01*
X166736822Y-123401816D01*
X167009433Y-122971972D01*
X167488676Y-122228973D01*
X167490557Y-122208309D01*
X167485567Y-122191246D01*
X167479447Y-122183588D01*
X167470095Y-122177486D01*
X167451084Y-122175069D01*
X167431749Y-122183683D01*
X167413211Y-122201880D01*
X167319628Y-122337867D01*
X167078448Y-122710482D01*
X166696747Y-123316175D01*
X166638579Y-123409838D01*
G37*
G36*
X167723167Y-123175295D02*
G01*
X167835132Y-123156480D01*
X167954476Y-123138903D01*
X168097741Y-123121161D01*
X168110301Y-123117898D01*
X168119812Y-123111023D01*
X168125976Y-123098169D01*
X168120538Y-123092729D01*
X168088961Y-123085987D01*
X167993886Y-123080101D01*
X167912754Y-123079988D01*
X167825532Y-123083200D01*
X167747105Y-123089274D01*
X167675470Y-123098584D01*
X167817383Y-122898281D01*
X167880614Y-122811326D01*
X167880741Y-122811153D01*
X167882021Y-122809394D01*
X168077811Y-122535971D01*
X168095970Y-122506705D01*
X168110102Y-122477909D01*
X168120524Y-122449434D01*
X168127297Y-122421738D01*
X168130779Y-122368255D01*
X168121587Y-122318558D01*
X168100711Y-122274381D01*
X168073347Y-122241585D01*
X168054554Y-122226305D01*
X168033321Y-122213386D01*
X168010103Y-122203213D01*
X167984927Y-122195948D01*
X167958726Y-122191947D01*
X167931074Y-122191257D01*
X167903070Y-122194006D01*
X167874073Y-122200371D01*
X167845051Y-122210282D01*
X167815431Y-122224088D01*
X167758097Y-122261878D01*
X167708790Y-122306462D01*
X167682485Y-122339963D01*
X167666552Y-122366249D01*
X167651621Y-122398287D01*
X167641570Y-122428757D01*
X167634872Y-122462583D01*
X167632728Y-122492701D01*
X167634329Y-122524769D01*
X167639453Y-122554860D01*
X167648553Y-122586286D01*
X167655539Y-122604377D01*
X167672881Y-122615931D01*
X167679952Y-122615738D01*
X167686829Y-122611099D01*
X167692868Y-122600408D01*
X167697424Y-122582059D01*
X167690636Y-122551725D01*
X167688376Y-122518547D01*
X167692403Y-122477575D01*
X167706867Y-122431968D01*
X167719309Y-122408414D01*
X167735917Y-122384886D01*
X167757209Y-122361779D01*
X167783703Y-122339489D01*
X167815919Y-122318409D01*
X167854375Y-122298936D01*
X167881108Y-122286746D01*
X167906673Y-122279011D01*
X167907418Y-122278850D01*
X167909702Y-122278072D01*
X167909598Y-122278539D01*
X167932512Y-122275628D01*
X167953904Y-122276089D01*
X167973728Y-122279699D01*
X167991537Y-122286189D01*
X168016256Y-122302777D01*
X168028200Y-122316166D01*
X168037303Y-122331240D01*
X168047087Y-122366351D01*
X168044783Y-122407927D01*
X168028504Y-122455032D01*
X168008834Y-122488584D01*
X167813501Y-122761294D01*
X167813061Y-122761898D01*
X167659010Y-122975441D01*
X167596458Y-123065997D01*
X167549453Y-123139586D01*
X167543631Y-123161575D01*
X167545473Y-123173235D01*
X167550609Y-123184091D01*
X167552100Y-123186194D01*
X167570114Y-123199844D01*
X167585472Y-123202751D01*
X167596164Y-123201349D01*
X167596644Y-123201229D01*
X167634059Y-123192522D01*
X167723167Y-123175295D01*
G37*
G36*
X168697101Y-122324108D02*
G01*
X168792785Y-122320075D01*
X168861439Y-122314334D01*
X168906984Y-122307773D01*
X168934924Y-122301067D01*
X168949343Y-122295076D01*
X168954983Y-122290369D01*
X168955778Y-122287258D01*
X168948681Y-122277332D01*
X168922663Y-122266481D01*
X168859795Y-122254700D01*
X168743437Y-122244615D01*
X168630303Y-122240391D01*
X168539041Y-122243096D01*
X168447506Y-122249422D01*
X168426311Y-122257557D01*
X168413874Y-122272570D01*
X168396117Y-122310789D01*
X168359481Y-122399262D01*
X168350422Y-122431993D01*
X168333329Y-122506731D01*
X168320061Y-122599033D01*
X168318567Y-122644134D01*
X168322475Y-122684461D01*
X168323795Y-122686412D01*
X168331590Y-122687108D01*
X168351619Y-122678812D01*
X168389636Y-122653787D01*
X168448149Y-122618804D01*
X168485263Y-122602392D01*
X168524606Y-122588693D01*
X168585616Y-122574689D01*
X168621532Y-122571004D01*
X168626114Y-122570979D01*
X168629369Y-122571004D01*
X168655372Y-122571471D01*
X168655743Y-122571460D01*
X168656514Y-122571471D01*
X168657203Y-122571607D01*
X168657811Y-122571731D01*
X168686824Y-122575156D01*
X168707021Y-122580397D01*
X168725141Y-122588632D01*
X168740536Y-122599309D01*
X168754003Y-122612703D01*
X168775351Y-122648168D01*
X168786372Y-122683371D01*
X168792679Y-122741508D01*
X168786826Y-122810958D01*
X168778692Y-122848117D01*
X168767139Y-122885173D01*
X168752479Y-122920900D01*
X168734599Y-122955261D01*
X168714860Y-122985806D01*
X168692345Y-123014059D01*
X168669192Y-123037592D01*
X168643749Y-123058327D01*
X168640788Y-123060436D01*
X168583800Y-123092664D01*
X168522809Y-123112625D01*
X168479633Y-123118410D01*
X168479685Y-123118722D01*
X168476777Y-123118821D01*
X168474443Y-123118878D01*
X168469201Y-123118981D01*
X168443660Y-123118186D01*
X168420766Y-123114348D01*
X168381599Y-123098606D01*
X168349685Y-123072889D01*
X168324064Y-123037196D01*
X168305028Y-122992170D01*
X168299431Y-122972359D01*
X168293075Y-122953054D01*
X168285939Y-122940426D01*
X168278650Y-122933112D01*
X168271871Y-122929785D01*
X168261075Y-122930111D01*
X168253598Y-122959321D01*
X168249864Y-122986551D01*
X168252266Y-123036012D01*
X168266407Y-123079936D01*
X168291522Y-123119256D01*
X168327092Y-123153829D01*
X168369821Y-123181466D01*
X168395397Y-123193201D01*
X168425245Y-123199532D01*
X168456344Y-123202564D01*
X168467955Y-123202802D01*
X168533653Y-123196214D01*
X168602138Y-123175909D01*
X168636068Y-123160612D01*
X168669164Y-123141976D01*
X168688849Y-123128946D01*
X168739778Y-123085349D01*
X168786689Y-123028044D01*
X168826717Y-122958532D01*
X168856520Y-122880506D01*
X168866625Y-122840199D01*
X168873311Y-122799609D01*
X168876361Y-122760482D01*
X168875890Y-122721914D01*
X168868065Y-122665206D01*
X168859700Y-122635139D01*
X168848571Y-122607510D01*
X168835153Y-122583001D01*
X168819335Y-122561059D01*
X168801649Y-122542190D01*
X168781886Y-122526004D01*
X168760477Y-122512783D01*
X168737261Y-122502385D01*
X168701409Y-122492685D01*
X168631848Y-122486804D01*
X168563305Y-122493324D01*
X168495659Y-122511922D01*
X168429542Y-122542304D01*
X168393321Y-122564465D01*
X168427650Y-122456236D01*
X168472461Y-122345223D01*
X168479010Y-122330700D01*
X168570201Y-122325665D01*
X168570046Y-122325613D01*
X168571914Y-122325613D01*
X168697101Y-122324108D01*
G37*
G36*
X168393476Y-123192630D02*
G01*
X168365761Y-123183132D01*
X168393476Y-123192630D01*
G37*
D10*
G36*
X170414798Y-73030399D02*
G01*
X170487208Y-73043280D01*
X170544487Y-73062737D01*
X170597713Y-73091262D01*
X170643800Y-73126591D01*
X170683461Y-73169043D01*
X170716425Y-73217184D01*
X170742965Y-73270636D01*
X170763084Y-73330061D01*
X170781516Y-73423635D01*
X170787814Y-73524417D01*
X170782946Y-73631940D01*
X170770011Y-73713395D01*
X170751116Y-73773911D01*
X170723020Y-73830683D01*
X170689063Y-73880032D01*
X170649145Y-73922716D01*
X170603480Y-73959027D01*
X170556923Y-73985358D01*
X170509010Y-74002644D01*
X170408837Y-74023586D01*
X170324057Y-74030000D01*
X169862377Y-74030000D01*
X169862377Y-73799434D01*
X170175741Y-73799434D01*
X170249624Y-73799434D01*
X170314604Y-73796396D01*
X170358414Y-73788724D01*
X170386584Y-73778185D01*
X170410796Y-73761240D01*
X170431934Y-73736950D01*
X170450087Y-73703813D01*
X170461548Y-73667191D01*
X170469847Y-73611610D01*
X170473107Y-73530889D01*
X170468839Y-73447942D01*
X170457653Y-73387350D01*
X170441525Y-73344197D01*
X170421694Y-73314368D01*
X170394289Y-73290581D01*
X170358238Y-73272508D01*
X170311392Y-73260620D01*
X170250968Y-73256238D01*
X170175741Y-73256238D01*
X170175741Y-73799434D01*
X169862377Y-73799434D01*
X169862377Y-73025673D01*
X170324057Y-73025673D01*
X170414798Y-73030399D01*
G37*
G36*
X169858810Y-76310041D02*
G01*
X169858810Y-77330000D01*
X169573474Y-77330000D01*
X169573474Y-76667674D01*
X169507350Y-76713372D01*
X169444086Y-76749007D01*
X169375233Y-76778963D01*
X169281054Y-76810922D01*
X169281054Y-76580235D01*
X169374959Y-76544867D01*
X169447527Y-76507857D01*
X169502399Y-76469715D01*
X169550648Y-76423661D01*
X169591563Y-76370670D01*
X169625436Y-76310041D01*
X169858810Y-76310041D01*
G37*
G36*
X170162160Y-76325673D02*
G01*
X170978297Y-76325673D01*
X170978297Y-76515938D01*
X170910461Y-76582562D01*
X170851580Y-76651515D01*
X170801099Y-76722934D01*
X170748399Y-76815154D01*
X170703135Y-76915109D01*
X170665422Y-77023475D01*
X170642921Y-77110089D01*
X170624868Y-77211626D01*
X170612055Y-77330000D01*
X170330565Y-77330000D01*
X170358596Y-77165477D01*
X170393559Y-77028825D01*
X170434185Y-76916313D01*
X170486887Y-76808901D01*
X170559378Y-76691887D01*
X170654615Y-76564054D01*
X170162160Y-76564054D01*
X170162160Y-76325673D01*
G37*
D11*
G36*
X174941277Y-104257448D02*
G01*
X175778116Y-104257448D01*
X175778116Y-104547960D01*
X175213940Y-104547960D01*
X175184935Y-104729223D01*
X175240345Y-104706519D01*
X175296955Y-104689831D01*
X175354527Y-104679402D01*
X175410744Y-104675983D01*
X175504633Y-104683659D01*
X175586047Y-104705606D01*
X175657193Y-104741006D01*
X175719721Y-104790156D01*
X175771632Y-104850957D01*
X175808298Y-104918175D01*
X175830640Y-104993140D01*
X175838357Y-105077745D01*
X175831657Y-105157388D01*
X175811521Y-105235096D01*
X175777346Y-105311863D01*
X175730801Y-105381172D01*
X175673470Y-105437985D01*
X175604316Y-105483431D01*
X175527313Y-105514893D01*
X175432993Y-105535244D01*
X175317728Y-105542595D01*
X175197272Y-105536231D01*
X175103152Y-105519053D01*
X175018814Y-105488912D01*
X174950894Y-105448656D01*
X174893453Y-105398131D01*
X174849184Y-105342714D01*
X174814621Y-105278379D01*
X174783557Y-105192303D01*
X175143389Y-105153374D01*
X175156837Y-105208704D01*
X175176989Y-105250907D01*
X175203169Y-105282627D01*
X175236385Y-105306755D01*
X175273027Y-105321061D01*
X175314265Y-105325942D01*
X175359832Y-105319848D01*
X175398982Y-105302081D01*
X175433363Y-105271933D01*
X175458146Y-105233076D01*
X175474451Y-105180509D01*
X175480525Y-105110058D01*
X175474285Y-105037895D01*
X175457762Y-104985746D01*
X175432978Y-104948645D01*
X175398419Y-104920609D01*
X175356968Y-104903557D01*
X175306572Y-104897560D01*
X175257551Y-104903564D01*
X175209632Y-104921872D01*
X175175254Y-104944910D01*
X175131926Y-104986960D01*
X174829489Y-104943875D01*
X174941277Y-104257448D01*
G37*
G36*
X177283609Y-105522900D02*
G01*
X176870229Y-105522900D01*
X176808218Y-105316094D01*
X176367834Y-105316094D01*
X176306669Y-105522900D01*
X175902753Y-105522900D01*
X176084324Y-105040354D01*
X176453618Y-105040354D01*
X176724973Y-105040354D01*
X176588872Y-104596353D01*
X176453618Y-105040354D01*
X176084324Y-105040354D01*
X176378913Y-104257448D01*
X176807449Y-104257448D01*
X177283609Y-105522900D01*
G37*
D10*
G36*
X169758391Y-67225673D02*
G01*
X170086470Y-67225673D01*
X170310441Y-67940999D01*
X170530992Y-67225673D01*
X170849485Y-67225673D01*
X170476404Y-68230000D01*
X170138311Y-68230000D01*
X169758391Y-67225673D01*
G37*
D11*
G36*
X171035510Y-120715043D02*
G01*
X170732820Y-120671342D01*
X170731159Y-120682761D01*
X170732508Y-120671238D01*
X170691921Y-120666256D01*
X170607010Y-120657536D01*
X170572028Y-120655253D01*
X170648843Y-120349656D01*
X170698668Y-120116514D01*
X170706661Y-120072917D01*
X170770604Y-119692374D01*
X170748909Y-119685627D01*
X170588429Y-120030357D01*
X170568188Y-120076238D01*
X170478190Y-120297132D01*
X170363488Y-120611759D01*
X170359998Y-120621848D01*
X170350928Y-120648298D01*
X170299337Y-120648402D01*
X170256149Y-120649361D01*
X170253768Y-120649440D01*
X170225326Y-120650270D01*
X170072112Y-120658263D01*
X170041905Y-120660339D01*
X170040736Y-120660422D01*
X169993222Y-120664076D01*
X169881010Y-120675391D01*
X169872135Y-120676357D01*
X169836168Y-120680477D01*
X169786861Y-120686809D01*
X169734544Y-120694179D01*
X169759561Y-120616223D01*
X169782501Y-120542626D01*
X169861392Y-120264330D01*
X169908934Y-120063990D01*
X169916793Y-120025422D01*
X169917861Y-120019977D01*
X169976613Y-119696111D01*
X169955126Y-119688637D01*
X169800563Y-119979079D01*
X169799110Y-119981881D01*
X169798127Y-119983789D01*
X169780321Y-120018835D01*
X169692919Y-120205473D01*
X169581746Y-120472144D01*
X169558656Y-120531525D01*
X169552577Y-120547297D01*
X169523720Y-120624319D01*
X169482614Y-120737569D01*
X169465798Y-120740994D01*
X169340507Y-120769332D01*
X169234524Y-120797152D01*
X169153661Y-120821338D01*
X169113308Y-120834792D01*
X169110168Y-120835870D01*
X169101345Y-120838984D01*
X169080895Y-120846458D01*
X168847961Y-120940400D01*
X168852528Y-120962614D01*
X169176706Y-120955659D01*
X169259956Y-120951922D01*
X169341649Y-120947251D01*
X169412650Y-120942580D01*
X169382963Y-121034654D01*
X169379400Y-121046064D01*
X169363863Y-121096416D01*
X169320785Y-121242571D01*
X169284869Y-121374817D01*
X169257049Y-121487547D01*
X169237431Y-121575053D01*
X169228711Y-121618650D01*
X169170789Y-121937949D01*
X169192172Y-121945527D01*
X169347462Y-121657058D01*
X169366147Y-121620311D01*
X169405384Y-121539345D01*
X169453756Y-121433673D01*
X169507838Y-121307760D01*
X169564930Y-121167003D01*
X169585068Y-121114997D01*
X169622852Y-121014827D01*
X169655288Y-120925739D01*
X169656173Y-120923273D01*
X169708981Y-120918421D01*
X169722711Y-120917148D01*
X170282002Y-120857358D01*
X170251484Y-120954621D01*
X170235083Y-121007976D01*
X170188891Y-121163058D01*
X170153286Y-121288556D01*
X170137923Y-121344506D01*
X170093184Y-121515470D01*
X170055815Y-121669514D01*
X170026646Y-121800721D01*
X170006197Y-121902552D01*
X169997062Y-121952689D01*
X169936026Y-122326692D01*
X169957929Y-122333335D01*
X170115813Y-121990162D01*
X170136678Y-121942932D01*
X170177161Y-121847017D01*
X170226779Y-121722038D01*
X170282625Y-121573496D01*
X170341378Y-121407515D01*
X170365356Y-121337136D01*
X170401376Y-121228454D01*
X170446879Y-121085637D01*
X170452447Y-121067871D01*
X170470405Y-121009014D01*
X170515663Y-120856527D01*
X170524175Y-120827358D01*
X170611889Y-120814694D01*
X170694516Y-120802446D01*
X170735519Y-120795387D01*
X171036029Y-120737673D01*
X171035510Y-120715043D01*
G37*
G36*
X171429162Y-120800388D02*
G01*
X171508614Y-120826010D01*
X171570042Y-120868278D01*
X171614798Y-120928709D01*
X171630778Y-120967259D01*
X171641824Y-121012128D01*
X171643792Y-121022599D01*
X171643797Y-121022716D01*
X171644108Y-121026142D01*
X171644108Y-121026557D01*
X171645354Y-121033304D01*
X171647222Y-121045449D01*
X171647534Y-121050016D01*
X171646288Y-121051677D01*
X171637880Y-121093925D01*
X171606142Y-121142583D01*
X171573314Y-121169909D01*
X171566878Y-121174580D01*
X171500860Y-121207693D01*
X171378268Y-121239872D01*
X171259893Y-121251146D01*
X171135680Y-121240807D01*
X171133619Y-121240444D01*
X171086295Y-121228314D01*
X171038312Y-121208731D01*
X171036236Y-121258972D01*
X171052589Y-121335492D01*
X171093432Y-121407930D01*
X171143452Y-121454113D01*
X171183400Y-121476192D01*
X171230141Y-121493360D01*
X171272251Y-121502039D01*
X171316881Y-121503701D01*
X171413976Y-121493879D01*
X171496396Y-121470316D01*
X171558444Y-121419636D01*
X171583902Y-121388103D01*
X171601030Y-121377412D01*
X171616301Y-121383629D01*
X171635804Y-121410836D01*
X171637375Y-121421518D01*
X171634019Y-121435358D01*
X171624282Y-121446441D01*
X171545184Y-121528549D01*
X171481073Y-121575256D01*
X171479684Y-121576195D01*
X171477428Y-121577714D01*
X171448958Y-121597267D01*
X171424737Y-121608329D01*
X171326448Y-121644061D01*
X171240729Y-121655604D01*
X171208654Y-121653736D01*
X171129442Y-121640621D01*
X171039621Y-121601449D01*
X170965650Y-121541732D01*
X170914930Y-121475757D01*
X170889544Y-121428255D01*
X170870026Y-121377592D01*
X170850325Y-121273401D01*
X170854134Y-121180466D01*
X170881028Y-121083752D01*
X171090318Y-121083752D01*
X171222043Y-121088735D01*
X171352317Y-121078876D01*
X171444282Y-121055534D01*
X171501898Y-121023028D01*
X171490501Y-121007952D01*
X171445796Y-120968639D01*
X171387137Y-120944028D01*
X171315778Y-120940504D01*
X171288808Y-120946038D01*
X171245896Y-120960650D01*
X171204294Y-120982129D01*
X171163954Y-121011609D01*
X171090318Y-121083752D01*
X170881028Y-121083752D01*
X170882724Y-121077653D01*
X170933056Y-120989291D01*
X170938915Y-120983013D01*
X170939803Y-120982129D01*
X170944163Y-120977458D01*
X170950582Y-120969498D01*
X171012569Y-120908198D01*
X171097243Y-120850315D01*
X171190488Y-120811892D01*
X171190696Y-120811269D01*
X171196197Y-120809920D01*
X171225470Y-120803691D01*
X171248929Y-120799747D01*
X171331970Y-120792650D01*
X171429162Y-120800388D01*
G37*
G36*
X172691898Y-121113752D02*
G01*
X172683762Y-121043788D01*
X172663559Y-120961991D01*
X172625253Y-120883851D01*
X172599555Y-120852914D01*
X172570637Y-120828895D01*
X172557888Y-120821234D01*
X172524634Y-120807136D01*
X172490084Y-120800128D01*
X172418123Y-120806423D01*
X172402702Y-120810750D01*
X172339346Y-120842254D01*
X172279484Y-120895448D01*
X172271910Y-120904069D01*
X172222188Y-120977769D01*
X172208947Y-120935287D01*
X172188586Y-120894189D01*
X172164535Y-120861327D01*
X172134995Y-120834359D01*
X172103749Y-120816978D01*
X172053404Y-120802757D01*
X171995378Y-120806286D01*
X171924073Y-120839271D01*
X171895519Y-120862340D01*
X171835085Y-120933439D01*
X171785775Y-121026862D01*
X171758499Y-121106901D01*
X171758340Y-121107447D01*
X171739216Y-121189695D01*
X171730588Y-121259207D01*
X171733067Y-121328624D01*
X171738738Y-121338031D01*
X171755385Y-121348451D01*
X171782251Y-121341524D01*
X171792650Y-121332569D01*
X171837834Y-121272481D01*
X171884931Y-121198974D01*
X171886128Y-121197281D01*
X171886177Y-121197209D01*
X171888565Y-121194199D01*
X171919913Y-121141156D01*
X171957142Y-121086102D01*
X171991452Y-121048091D01*
X171994029Y-121045864D01*
X172015164Y-121031040D01*
X172015204Y-121031020D01*
X172018007Y-121029671D01*
X172028180Y-121026764D01*
X172028284Y-121026661D01*
X172042712Y-121027802D01*
X172061456Y-121036718D01*
X172082930Y-121069088D01*
X172085064Y-121073787D01*
X172108311Y-121158402D01*
X172121499Y-121252848D01*
X172103175Y-121352507D01*
X172091228Y-121454320D01*
X172086102Y-121544535D01*
X172091697Y-121568700D01*
X172100858Y-121582816D01*
X172119319Y-121590520D01*
X172130737Y-121588859D01*
X172155096Y-121563739D01*
X172176515Y-121517235D01*
X172181705Y-121501041D01*
X172193746Y-121464399D01*
X172200805Y-121444469D01*
X172278034Y-121239353D01*
X172323850Y-121147358D01*
X172352232Y-121102401D01*
X172383291Y-121065483D01*
X172407585Y-121044894D01*
X172433466Y-121032281D01*
X172434154Y-121032058D01*
X172469791Y-121030950D01*
X172475053Y-121032889D01*
X172485472Y-121041985D01*
X172499862Y-121068286D01*
X172523010Y-121161190D01*
X172539515Y-121310251D01*
X172540030Y-121316036D01*
X172548649Y-121405854D01*
X172564946Y-121536750D01*
X172582372Y-121600952D01*
X172602739Y-121637004D01*
X172616444Y-121649291D01*
X172632730Y-121655189D01*
X172638128Y-121655501D01*
X172662937Y-121646470D01*
X172680219Y-121616137D01*
X172688057Y-121538929D01*
X172688472Y-121534258D01*
X172690423Y-121446043D01*
X172690756Y-121435334D01*
X172692330Y-121388069D01*
X172692417Y-121385301D01*
X172696322Y-121257078D01*
X172691898Y-121113752D01*
G37*
G36*
X173412981Y-120782054D02*
G01*
X173494400Y-120828812D01*
X173552634Y-120888810D01*
X173591249Y-120910297D01*
X173635561Y-120953899D01*
X173658241Y-120988033D01*
X173667544Y-121021470D01*
X173666921Y-121024273D01*
X173626438Y-121147072D01*
X173622195Y-121188861D01*
X173610572Y-121245542D01*
X173592415Y-121300768D01*
X173537479Y-121404297D01*
X173470006Y-121595606D01*
X173453532Y-121654330D01*
X173445405Y-121684565D01*
X173433489Y-121733265D01*
X173426513Y-121763144D01*
X173423087Y-121770411D01*
X173397488Y-121860638D01*
X173374752Y-121976707D01*
X173338553Y-122239679D01*
X173307970Y-122562118D01*
X173308904Y-122562741D01*
X173277036Y-122759863D01*
X173272780Y-122778132D01*
X173271954Y-122781726D01*
X173270185Y-122789135D01*
X173259701Y-122819134D01*
X173256587Y-122829169D01*
X173252539Y-122841660D01*
X173245651Y-122857982D01*
X173191526Y-122947658D01*
X173120326Y-123018912D01*
X173038497Y-123067328D01*
X172989845Y-123084105D01*
X172940331Y-123094302D01*
X172886695Y-123098249D01*
X172833311Y-123095261D01*
X172779301Y-123085312D01*
X172726951Y-123068771D01*
X172629918Y-123017354D01*
X172549890Y-122946213D01*
X172491557Y-122861175D01*
X172463324Y-122792273D01*
X172448512Y-122734573D01*
X172440622Y-122676202D01*
X172439443Y-122617625D01*
X172440378Y-122607733D01*
X172621552Y-122607733D01*
X172627227Y-122699396D01*
X172654736Y-122775849D01*
X172680920Y-122818241D01*
X172709854Y-122849454D01*
X172743638Y-122875600D01*
X172821789Y-122911082D01*
X172901403Y-122920781D01*
X172972789Y-122906225D01*
X172993101Y-122897427D01*
X173026252Y-122876909D01*
X173055876Y-122850352D01*
X173082507Y-122816907D01*
X173104515Y-122778028D01*
X173134109Y-122683061D01*
X173151166Y-122571095D01*
X173153303Y-122554748D01*
X173194928Y-122297939D01*
X173255189Y-121846364D01*
X173260220Y-121777988D01*
X173260116Y-121778404D01*
X173129014Y-121865243D01*
X172978394Y-121991719D01*
X172933304Y-122037923D01*
X172864461Y-122116601D01*
X172800967Y-122199470D01*
X172692105Y-122373819D01*
X172687972Y-122381821D01*
X172640714Y-122500490D01*
X172621552Y-122607733D01*
X172440378Y-122607733D01*
X172444846Y-122560457D01*
X172473335Y-122438863D01*
X172502503Y-122363089D01*
X172538165Y-122291710D01*
X172630270Y-122153891D01*
X172752905Y-122005208D01*
X172882896Y-121884283D01*
X172911751Y-121861232D01*
X172991545Y-121803716D01*
X173074912Y-121752092D01*
X173164135Y-121705013D01*
X173256068Y-121664220D01*
X173256169Y-121663339D01*
X173256054Y-121634359D01*
X173250982Y-121621764D01*
X173250889Y-121621664D01*
X173234996Y-121616886D01*
X173227107Y-121618547D01*
X173222955Y-121619273D01*
X173200637Y-121626851D01*
X173202090Y-121623010D01*
X173100586Y-121625528D01*
X173008134Y-121602903D01*
X172928050Y-121557095D01*
X172911097Y-121542992D01*
X172877387Y-121508294D01*
X172849298Y-121469527D01*
X172826025Y-121425392D01*
X172808909Y-121378085D01*
X172797746Y-121326725D01*
X172793169Y-121273372D01*
X172794497Y-121238212D01*
X172967080Y-121238212D01*
X172973910Y-121289535D01*
X173003621Y-121361474D01*
X173053756Y-121416857D01*
X173054915Y-121417753D01*
X173087848Y-121438545D01*
X173123473Y-121452857D01*
X173163156Y-121461086D01*
X173204271Y-121462461D01*
X173247217Y-121456906D01*
X173289968Y-121444469D01*
X173370896Y-121400085D01*
X173438866Y-121333295D01*
X173441045Y-121329870D01*
X173441568Y-121328991D01*
X173444056Y-121325095D01*
X173509867Y-121148422D01*
X173503525Y-121065887D01*
X173474068Y-120994086D01*
X173424852Y-120939466D01*
X173387994Y-120916349D01*
X173352034Y-120902419D01*
X173313629Y-120894833D01*
X173272700Y-120893758D01*
X173230429Y-120899502D01*
X173191104Y-120910821D01*
X173148782Y-120929855D01*
X173109025Y-120955188D01*
X173072518Y-120986371D01*
X173039846Y-121023028D01*
X173012536Y-121063391D01*
X172976639Y-121150359D01*
X172967080Y-121238212D01*
X172794497Y-121238212D01*
X172795249Y-121218296D01*
X172804076Y-121162617D01*
X172841397Y-121053764D01*
X172903241Y-120953479D01*
X172908283Y-120947082D01*
X172948539Y-120902062D01*
X172992745Y-120862476D01*
X173089508Y-120801602D01*
X173192748Y-120766322D01*
X173218940Y-120761521D01*
X173320214Y-120759062D01*
X173412981Y-120782054D01*
G37*
D13*
G36*
X167611250Y-86423754D02*
G01*
X167488151Y-86460665D01*
X167488151Y-86722799D01*
X167611250Y-86759207D01*
X167611250Y-86999633D01*
X166858005Y-86716205D01*
X166858005Y-86591229D01*
X167059734Y-86591229D01*
X167324020Y-86671737D01*
X167324020Y-86510216D01*
X167059734Y-86591229D01*
X166858005Y-86591229D01*
X166858005Y-86461123D01*
X167611250Y-86177695D01*
X167611250Y-86423754D01*
G37*
G36*
X167400224Y-86120221D02*
G01*
X167400224Y-85894404D01*
X167611250Y-85894404D01*
X167611250Y-86120221D01*
X167400224Y-86120221D01*
G37*
G36*
X166846281Y-85315365D02*
G01*
X167611250Y-85315365D01*
X167611250Y-85529368D01*
X167114505Y-85529368D01*
X167148779Y-85578960D01*
X167175505Y-85626408D01*
X167197972Y-85678048D01*
X167221942Y-85748682D01*
X167048926Y-85748682D01*
X167022400Y-85678254D01*
X166994643Y-85623827D01*
X166966036Y-85582674D01*
X166931495Y-85546487D01*
X166891753Y-85515800D01*
X166846281Y-85490396D01*
X166846281Y-85315365D01*
G37*
D10*
G36*
X170323142Y-71266566D02*
G01*
X170323142Y-71055540D01*
X170805277Y-71055540D01*
X170805277Y-71483820D01*
X170710405Y-71543469D01*
X170629652Y-71585089D01*
X170561034Y-71611803D01*
X170489713Y-71629907D01*
X170406648Y-71641508D01*
X170310136Y-71645631D01*
X170219308Y-71641290D01*
X170141556Y-71629086D01*
X170075122Y-71610029D01*
X170018449Y-71584815D01*
X169965427Y-71550838D01*
X169918883Y-71509708D01*
X169878314Y-71460933D01*
X169843510Y-71403709D01*
X169809630Y-71321477D01*
X169788719Y-71230088D01*
X169781472Y-71127836D01*
X169786017Y-71045913D01*
X169799154Y-70971719D01*
X169820349Y-70904277D01*
X169849372Y-70842744D01*
X169887158Y-70785895D01*
X169932497Y-70736573D01*
X169985921Y-70694194D01*
X170048308Y-70658524D01*
X170118253Y-70633174D01*
X170208321Y-70616281D01*
X170323081Y-70610041D01*
X170434990Y-70614182D01*
X170515752Y-70624938D01*
X170572148Y-70640144D01*
X170624708Y-70664202D01*
X170670215Y-70695258D01*
X170709473Y-70733567D01*
X170741920Y-70778100D01*
X170769566Y-70831803D01*
X170792088Y-70896111D01*
X170489777Y-70950272D01*
X170474017Y-70913896D01*
X170453292Y-70885052D01*
X170427495Y-70862588D01*
X170397125Y-70846557D01*
X170360523Y-70836413D01*
X170316242Y-70832791D01*
X170267020Y-70837420D01*
X170224633Y-70850676D01*
X170187733Y-70872243D01*
X170155408Y-70902644D01*
X170131282Y-70938584D01*
X170112552Y-70985595D01*
X170100104Y-71046361D01*
X170095508Y-71124112D01*
X170100272Y-71207264D01*
X170113036Y-71270810D01*
X170131990Y-71318677D01*
X170156080Y-71354127D01*
X170188580Y-71383652D01*
X170226752Y-71404922D01*
X170271725Y-71418193D01*
X170325096Y-71422882D01*
X170375844Y-71419112D01*
X170423587Y-71407983D01*
X170471252Y-71389076D01*
X170530138Y-71357608D01*
X170530138Y-71266566D01*
X170323142Y-71266566D01*
G37*
G36*
X170164323Y-68719070D02*
G01*
X169897244Y-68671564D01*
X169918586Y-68609679D01*
X169946938Y-68557444D01*
X169982147Y-68513532D01*
X170024555Y-68477025D01*
X170072283Y-68449535D01*
X170130884Y-68428580D01*
X170202523Y-68414963D01*
X170289742Y-68410041D01*
X170391122Y-68415735D01*
X170469557Y-68431065D01*
X170529475Y-68453947D01*
X170574590Y-68483131D01*
X170613724Y-68522771D01*
X170640814Y-68565984D01*
X170657071Y-68613599D01*
X170662640Y-68666924D01*
X170658605Y-68709132D01*
X170646709Y-68748070D01*
X170626797Y-68784527D01*
X170600293Y-68816936D01*
X170566128Y-68846861D01*
X170523177Y-68874347D01*
X170573388Y-68889954D01*
X170607746Y-68906831D01*
X170652563Y-68942814D01*
X170685965Y-68988408D01*
X170701092Y-69023181D01*
X170710549Y-69063107D01*
X170713870Y-69109187D01*
X170708823Y-69166585D01*
X170693645Y-69222522D01*
X170667830Y-69277775D01*
X170632793Y-69327254D01*
X170588943Y-69368473D01*
X170535267Y-69402034D01*
X170475928Y-69425020D01*
X170401343Y-69440115D01*
X170308182Y-69445631D01*
X170216675Y-69441440D01*
X170145863Y-69430195D01*
X170091905Y-69413574D01*
X170041558Y-69388544D01*
X169998300Y-69357330D01*
X169961358Y-69319724D01*
X169930831Y-69276433D01*
X169904330Y-69224382D01*
X169882162Y-69162248D01*
X170164262Y-69124940D01*
X170178997Y-69180763D01*
X170196142Y-69218121D01*
X170214821Y-69241810D01*
X170239146Y-69259303D01*
X170267599Y-69269958D01*
X170301344Y-69273684D01*
X170336360Y-69269115D01*
X170366564Y-69255799D01*
X170393179Y-69233262D01*
X170413044Y-69204295D01*
X170425449Y-69168820D01*
X170429876Y-69125062D01*
X170425499Y-69080374D01*
X170413452Y-69045529D01*
X170394522Y-69018328D01*
X170368802Y-68997726D01*
X170337387Y-68985077D01*
X170298596Y-68980593D01*
X170263056Y-68984182D01*
X170206272Y-68997690D01*
X170220988Y-68793258D01*
X170258968Y-68796922D01*
X170293526Y-68793010D01*
X170323090Y-68781744D01*
X170348788Y-68763094D01*
X170369045Y-68738718D01*
X170380796Y-68712316D01*
X170384753Y-68682983D01*
X170377775Y-68642381D01*
X170358008Y-68612274D01*
X170338664Y-68598012D01*
X170314534Y-68589095D01*
X170284247Y-68585896D01*
X170253173Y-68589316D01*
X170227363Y-68599035D01*
X170205662Y-68614900D01*
X170189278Y-68636402D01*
X170175171Y-68669743D01*
X170164323Y-68719070D01*
G37*
G36*
X170164323Y-66319070D02*
G01*
X169897244Y-66271564D01*
X169918586Y-66209679D01*
X169946938Y-66157444D01*
X169982147Y-66113532D01*
X170024555Y-66077025D01*
X170072283Y-66049535D01*
X170130884Y-66028580D01*
X170202523Y-66014963D01*
X170289742Y-66010041D01*
X170391122Y-66015735D01*
X170469557Y-66031065D01*
X170529475Y-66053947D01*
X170574590Y-66083131D01*
X170613724Y-66122771D01*
X170640814Y-66165984D01*
X170657071Y-66213599D01*
X170662640Y-66266924D01*
X170658605Y-66309132D01*
X170646709Y-66348070D01*
X170626797Y-66384527D01*
X170600293Y-66416936D01*
X170566128Y-66446861D01*
X170523177Y-66474347D01*
X170573388Y-66489954D01*
X170607746Y-66506831D01*
X170652563Y-66542814D01*
X170685965Y-66588408D01*
X170701092Y-66623181D01*
X170710549Y-66663107D01*
X170713870Y-66709187D01*
X170708823Y-66766585D01*
X170693645Y-66822522D01*
X170667830Y-66877775D01*
X170632793Y-66927254D01*
X170588943Y-66968473D01*
X170535267Y-67002034D01*
X170475928Y-67025020D01*
X170401343Y-67040115D01*
X170308182Y-67045631D01*
X170216675Y-67041440D01*
X170145863Y-67030195D01*
X170091905Y-67013574D01*
X170041558Y-66988544D01*
X169998300Y-66957330D01*
X169961358Y-66919724D01*
X169930831Y-66876433D01*
X169904330Y-66824382D01*
X169882162Y-66762248D01*
X170164262Y-66724940D01*
X170178997Y-66780763D01*
X170196142Y-66818121D01*
X170214821Y-66841810D01*
X170239146Y-66859303D01*
X170267599Y-66869958D01*
X170301344Y-66873684D01*
X170336360Y-66869115D01*
X170366564Y-66855799D01*
X170393179Y-66833262D01*
X170413044Y-66804295D01*
X170425449Y-66768820D01*
X170429876Y-66725062D01*
X170425499Y-66680374D01*
X170413452Y-66645529D01*
X170394522Y-66618328D01*
X170368802Y-66597726D01*
X170337387Y-66585077D01*
X170298596Y-66580593D01*
X170263056Y-66584182D01*
X170206272Y-66597690D01*
X170220988Y-66393258D01*
X170258968Y-66396922D01*
X170293526Y-66393010D01*
X170323090Y-66381744D01*
X170348788Y-66363094D01*
X170369045Y-66338718D01*
X170380796Y-66312316D01*
X170384753Y-66282983D01*
X170377775Y-66242381D01*
X170358008Y-66212274D01*
X170338664Y-66198012D01*
X170314534Y-66189095D01*
X170284247Y-66185896D01*
X170253173Y-66189316D01*
X170227363Y-66199035D01*
X170205662Y-66214900D01*
X170189278Y-66236402D01*
X170175171Y-66269743D01*
X170164323Y-66319070D01*
G37*
D11*
G36*
X167453183Y-119676340D02*
G01*
X167063195Y-119693571D01*
X166706254Y-119720665D01*
X166304461Y-119772248D01*
X166240347Y-119781908D01*
X166011876Y-119819589D01*
X165642687Y-119890162D01*
X165435354Y-119937345D01*
X165221414Y-119993978D01*
X164842637Y-120102452D01*
X164846270Y-120125081D01*
X165239891Y-120106812D01*
X165597399Y-120079250D01*
X165966618Y-120032593D01*
X165890530Y-120238123D01*
X165864994Y-120311616D01*
X165839874Y-120386769D01*
X165800325Y-120509672D01*
X165783716Y-120563858D01*
X165744479Y-120696207D01*
X165723095Y-120772502D01*
X165702750Y-120847344D01*
X165666834Y-120989970D01*
X165637146Y-121118790D01*
X165635575Y-121126276D01*
X165614829Y-121228406D01*
X165599466Y-121313628D01*
X165593267Y-121352564D01*
X165593238Y-121352762D01*
X165550055Y-121673306D01*
X165571750Y-121679950D01*
X165712611Y-121390650D01*
X165715829Y-121383695D01*
X165716709Y-121381849D01*
X165729635Y-121354008D01*
X165764824Y-121274702D01*
X165808214Y-121171106D01*
X165856275Y-121047996D01*
X165906204Y-120910456D01*
X165924058Y-120859385D01*
X165956756Y-120761914D01*
X165999420Y-120628319D01*
X166012914Y-120584930D01*
X166015356Y-120576810D01*
X166051840Y-120452684D01*
X166073327Y-120375974D01*
X166093673Y-120301028D01*
X166159069Y-120029998D01*
X166164882Y-120002801D01*
X166170280Y-120001971D01*
X166575964Y-119928065D01*
X166793103Y-119880958D01*
X167014661Y-119825140D01*
X167081672Y-119806406D01*
X167456817Y-119698969D01*
X167453183Y-119676340D01*
G37*
G36*
X166950776Y-120884402D02*
G01*
X166909200Y-120822615D01*
X166878955Y-120794736D01*
X166845390Y-120772983D01*
X166843859Y-120772191D01*
X166804604Y-120755600D01*
X166762024Y-120744949D01*
X166711510Y-120740012D01*
X166654067Y-120740998D01*
X166592655Y-120750392D01*
X166502761Y-120782363D01*
X166502761Y-120782260D01*
X166514699Y-120747901D01*
X166629355Y-120358699D01*
X166641339Y-120312446D01*
X166681822Y-120140652D01*
X166696771Y-120051167D01*
X166698197Y-119999560D01*
X166692813Y-119980488D01*
X166683375Y-119971298D01*
X166681303Y-119970415D01*
X166681288Y-119970409D01*
X166671265Y-119969067D01*
X166652849Y-119978701D01*
X166623172Y-120012321D01*
X166579368Y-120082937D01*
X166495080Y-120261998D01*
X166426013Y-120427637D01*
X166363758Y-120594110D01*
X166331901Y-120687695D01*
X166238532Y-121009507D01*
X166210451Y-121127301D01*
X166178568Y-121283806D01*
X166156428Y-121428674D01*
X166142357Y-121582997D01*
X166141734Y-121596181D01*
X166154917Y-121595039D01*
X166181996Y-121586877D01*
X166203891Y-121571552D01*
X166222700Y-121544071D01*
X166379962Y-121118374D01*
X166396259Y-121076230D01*
X166402487Y-121060037D01*
X166487191Y-120982911D01*
X166536149Y-120955697D01*
X166582501Y-120938313D01*
X166624419Y-120930491D01*
X166643181Y-120928972D01*
X166643518Y-120928933D01*
X166661269Y-120927584D01*
X166700091Y-120929764D01*
X166754588Y-120942635D01*
X166779916Y-120968171D01*
X166795798Y-121026301D01*
X166798480Y-121111713D01*
X166794968Y-121165079D01*
X166794967Y-121165086D01*
X166793032Y-121192535D01*
X166792684Y-121197680D01*
X166789466Y-121230274D01*
X166775452Y-121391688D01*
X166775245Y-121405286D01*
X166777736Y-121495907D01*
X166778982Y-121501304D01*
X166778670Y-121506910D01*
X166779812Y-121508155D01*
X166791023Y-121551026D01*
X166803832Y-121572921D01*
X166820226Y-121588119D01*
X166836696Y-121594935D01*
X166840018Y-121595558D01*
X166843132Y-121594312D01*
X166862245Y-121583348D01*
X166872108Y-121572606D01*
X166875519Y-121558604D01*
X166875000Y-121554659D01*
X166872405Y-121551753D01*
X166861531Y-121526412D01*
X166859179Y-121492502D01*
X166868564Y-121442137D01*
X166872612Y-121430822D01*
X166878010Y-121416186D01*
X166880501Y-121409542D01*
X166884757Y-121398332D01*
X166892750Y-121377363D01*
X166944963Y-121227368D01*
X166963924Y-121155157D01*
X166975122Y-121084333D01*
X166978907Y-121013741D01*
X166974217Y-120962756D01*
X166962775Y-120915440D01*
X166950776Y-120884402D01*
G37*
G36*
X167614036Y-120754721D02*
G01*
X167693493Y-120778590D01*
X167754645Y-120819030D01*
X167799004Y-120877398D01*
X167814786Y-120914828D01*
X167825629Y-120958517D01*
X167826098Y-120959524D01*
X167826667Y-120960801D01*
X167827531Y-120967589D01*
X167827913Y-120972427D01*
X167829266Y-120980099D01*
X167830923Y-120990696D01*
X167829989Y-120991838D01*
X167822411Y-121033775D01*
X167792921Y-121079076D01*
X167761801Y-121104986D01*
X167755251Y-121109759D01*
X167691723Y-121141419D01*
X167631037Y-121160467D01*
X167571519Y-121172975D01*
X167450177Y-121184074D01*
X167332979Y-121173909D01*
X167323549Y-121172115D01*
X167273843Y-121157815D01*
X167224713Y-121135917D01*
X167219938Y-121204220D01*
X167237717Y-121285866D01*
X167279624Y-121359509D01*
X167328131Y-121405353D01*
X167372668Y-121430592D01*
X167422043Y-121448780D01*
X167466420Y-121457872D01*
X167513065Y-121459550D01*
X167610861Y-121449610D01*
X167696602Y-121425217D01*
X167764349Y-121369693D01*
X167789713Y-121336984D01*
X167796939Y-121333528D01*
X167807550Y-121339623D01*
X167820795Y-121362492D01*
X167819811Y-121372730D01*
X167812758Y-121381619D01*
X167732310Y-121464662D01*
X167668294Y-121511087D01*
X167637434Y-121532238D01*
X167578621Y-121557733D01*
X167487501Y-121584016D01*
X167405123Y-121586734D01*
X167327192Y-121573683D01*
X167240754Y-121536013D01*
X167169178Y-121478260D01*
X167120904Y-121415826D01*
X167076496Y-121319824D01*
X167056967Y-121216987D01*
X167060300Y-121130154D01*
X167085519Y-121037615D01*
X167264054Y-121037615D01*
X167447772Y-121043994D01*
X167571655Y-121030732D01*
X167657913Y-121004666D01*
X167711965Y-120969624D01*
X167691678Y-120941589D01*
X167644359Y-120901365D01*
X167583430Y-120876717D01*
X167509652Y-120873399D01*
X167480649Y-120879395D01*
X167435824Y-120894746D01*
X167393497Y-120916685D01*
X167325191Y-120969856D01*
X167264054Y-121037615D01*
X167085519Y-121037615D01*
X167088286Y-121027462D01*
X167137414Y-120940559D01*
X167148002Y-120929452D01*
X167155201Y-120920542D01*
X167217624Y-120859317D01*
X167301699Y-120802740D01*
X167394016Y-120765859D01*
X167394223Y-120765443D01*
X167422769Y-120759319D01*
X167445710Y-120755478D01*
X167516727Y-120748821D01*
X167614036Y-120754721D01*
G37*
G36*
X167691739Y-120404860D02*
G01*
X167696520Y-120416204D01*
X167671779Y-120450088D01*
X167627540Y-120487725D01*
X167605774Y-120505624D01*
X167600299Y-120510326D01*
X167592384Y-120516939D01*
X167564541Y-120539362D01*
X167515795Y-120577975D01*
X167427440Y-120633406D01*
X167363809Y-120664650D01*
X167283248Y-120680888D01*
X167245136Y-120676613D01*
X167235960Y-120663412D01*
X167240575Y-120643730D01*
X167278744Y-120592605D01*
X167383843Y-120497112D01*
X167420693Y-120473134D01*
X167443112Y-120460618D01*
X167453451Y-120454772D01*
X167523251Y-120423723D01*
X167556591Y-120414568D01*
X167561554Y-120413343D01*
X167670275Y-120399484D01*
X167691739Y-120404860D01*
G37*
G36*
X168529608Y-120746691D02*
G01*
X168610174Y-120791706D01*
X168627195Y-120805515D01*
X168661345Y-120839797D01*
X168689927Y-120878219D01*
X168713761Y-120922069D01*
X168731478Y-120969168D01*
X168743294Y-121020394D01*
X168748549Y-121073694D01*
X168747171Y-121128801D01*
X168739053Y-121184596D01*
X168703122Y-121293930D01*
X168642561Y-121395010D01*
X168637742Y-121401273D01*
X168597976Y-121446851D01*
X168554199Y-121487050D01*
X168458179Y-121549189D01*
X168355441Y-121585800D01*
X168263990Y-121596284D01*
X168228330Y-121594600D01*
X168135140Y-121572785D01*
X168052958Y-121527048D01*
X168037895Y-121514933D01*
X168003875Y-121481490D01*
X167975000Y-121443690D01*
X167951129Y-121401209D01*
X167932979Y-121355039D01*
X167920630Y-121304875D01*
X167914589Y-121251761D01*
X167914450Y-121248809D01*
X167915473Y-121192728D01*
X167917655Y-121177140D01*
X168088170Y-121177140D01*
X168096127Y-121260877D01*
X168126782Y-121331369D01*
X168176899Y-121385252D01*
X168214587Y-121408114D01*
X168250766Y-121421507D01*
X168289270Y-121428539D01*
X168329967Y-121429032D01*
X168371842Y-121422725D01*
X168411699Y-121410701D01*
X168453663Y-121391121D01*
X168492986Y-121365290D01*
X168560868Y-121296812D01*
X168587677Y-121256119D01*
X168622480Y-121168695D01*
X168630935Y-121080798D01*
X168623530Y-121029617D01*
X168592977Y-120958049D01*
X168542183Y-120903294D01*
X168485759Y-120872631D01*
X168446881Y-120862429D01*
X168406408Y-120859074D01*
X168390793Y-120859553D01*
X168347922Y-120865669D01*
X168305325Y-120878664D01*
X168225003Y-120924073D01*
X168158007Y-120991631D01*
X168151581Y-121000385D01*
X168125570Y-121042882D01*
X168106359Y-121087064D01*
X168093893Y-121132136D01*
X168088170Y-121177140D01*
X167917655Y-121177140D01*
X167923308Y-121136767D01*
X167937996Y-121080837D01*
X167959299Y-121026216D01*
X168020676Y-120923743D01*
X168045013Y-120893855D01*
X168087523Y-120850440D01*
X168133440Y-120813099D01*
X168182410Y-120781802D01*
X168233443Y-120756973D01*
X168337263Y-120727603D01*
X168437675Y-120724761D01*
X168529608Y-120746691D01*
G37*
D10*
G36*
X169858810Y-81510041D02*
G01*
X169858810Y-82530000D01*
X169573474Y-82530000D01*
X169573474Y-81867674D01*
X169507350Y-81913372D01*
X169444086Y-81949007D01*
X169375233Y-81978963D01*
X169281054Y-82010922D01*
X169281054Y-81780235D01*
X169374959Y-81744867D01*
X169447527Y-81707857D01*
X169502399Y-81669715D01*
X169550648Y-81623661D01*
X169591563Y-81570670D01*
X169625436Y-81510041D01*
X169858810Y-81510041D01*
G37*
G36*
X170162160Y-81525673D02*
G01*
X170978297Y-81525673D01*
X170978297Y-81715938D01*
X170910461Y-81782562D01*
X170851580Y-81851515D01*
X170801099Y-81922934D01*
X170748399Y-82015154D01*
X170703135Y-82115109D01*
X170665422Y-82223475D01*
X170642921Y-82310089D01*
X170624868Y-82411626D01*
X170612055Y-82530000D01*
X170330565Y-82530000D01*
X170358596Y-82365477D01*
X170393559Y-82228825D01*
X170434185Y-82116313D01*
X170486887Y-82008901D01*
X170559378Y-81891887D01*
X170654615Y-81764054D01*
X170162160Y-81764054D01*
X170162160Y-81525673D01*
G37*
D14*
G36*
X117448348Y-87515982D02*
G01*
X117466179Y-87797858D01*
X117420350Y-87806882D01*
X117386081Y-87819345D01*
X117360987Y-87834499D01*
X117336144Y-87858879D01*
X117318434Y-87887624D01*
X117307449Y-87921604D01*
X117303573Y-87962137D01*
X117307186Y-88002480D01*
X117317029Y-88033528D01*
X117332251Y-88057346D01*
X117353128Y-88076378D01*
X117375009Y-88087140D01*
X117398667Y-88090698D01*
X117421172Y-88087344D01*
X117442284Y-88077152D01*
X117462716Y-88059077D01*
X117478220Y-88035075D01*
X117496321Y-87988974D01*
X117516899Y-87910089D01*
X117543350Y-87810575D01*
X117571774Y-87734187D01*
X117601425Y-87676843D01*
X117631842Y-87634964D01*
X117670690Y-87598262D01*
X117713603Y-87572596D01*
X117761453Y-87557056D01*
X117815566Y-87551700D01*
X117863269Y-87556368D01*
X117909206Y-87570384D01*
X117954167Y-87594284D01*
X117993563Y-87626412D01*
X118027692Y-87668484D01*
X118056647Y-87722153D01*
X118075965Y-87780377D01*
X118089006Y-87856822D01*
X118093865Y-87955732D01*
X118088785Y-88048697D01*
X118074820Y-88124077D01*
X118053501Y-88184821D01*
X118025776Y-88233453D01*
X117988296Y-88275046D01*
X117940744Y-88308000D01*
X117881272Y-88332489D01*
X117807257Y-88347704D01*
X117790927Y-88068425D01*
X117832602Y-88057463D01*
X117862882Y-88041996D01*
X117884290Y-88022609D01*
X117899554Y-87997986D01*
X117909346Y-87966612D01*
X117912910Y-87926650D01*
X117907050Y-87880481D01*
X117891907Y-87851060D01*
X117868359Y-87831997D01*
X117840955Y-87825844D01*
X117820947Y-87830708D01*
X117801891Y-87846501D01*
X117786539Y-87874582D01*
X117767616Y-87943845D01*
X117736572Y-88072660D01*
X117708778Y-88161277D01*
X117684236Y-88219085D01*
X117652394Y-88271597D01*
X117617467Y-88311395D01*
X117579391Y-88340434D01*
X117536257Y-88361447D01*
X117489801Y-88374132D01*
X117439174Y-88378459D01*
X117379976Y-88372815D01*
X117324364Y-88356051D01*
X117271318Y-88327797D01*
X117224644Y-88289955D01*
X117185964Y-88243188D01*
X117154874Y-88186311D01*
X117133848Y-88124509D01*
X117120175Y-88049147D01*
X117115233Y-87957636D01*
X117120120Y-87854688D01*
X117133393Y-87773087D01*
X117153305Y-87709148D01*
X117178633Y-87659660D01*
X117208768Y-87621981D01*
X117258211Y-87580735D01*
X117313903Y-87549436D01*
X117376835Y-87527749D01*
X117448348Y-87515982D01*
G37*
G36*
X118079093Y-88423871D02*
G01*
X118079093Y-88705228D01*
X117559022Y-88804188D01*
X118079093Y-88948328D01*
X118079093Y-89228011D01*
X117559945Y-89372844D01*
X118079093Y-89471746D01*
X118079093Y-89751834D01*
X117130005Y-89542547D01*
X117130005Y-89252997D01*
X117720184Y-89088487D01*
X117130005Y-88924612D01*
X117130005Y-88635120D01*
X118079093Y-88423871D01*
G37*
G36*
X118093865Y-90401735D02*
G01*
X117130005Y-90401735D01*
X117130005Y-90132092D01*
X117755902Y-90132092D01*
X117712718Y-90069605D01*
X117679043Y-90009821D01*
X117650734Y-89944755D01*
X117620532Y-89855756D01*
X117838532Y-89855756D01*
X117871955Y-89944496D01*
X117906929Y-90013073D01*
X117942973Y-90064927D01*
X117986495Y-90110522D01*
X118036570Y-90149187D01*
X118093865Y-90181197D01*
X118093865Y-90401735D01*
G37*
D11*
G36*
X168860511Y-85288720D02*
G01*
X168977222Y-85317134D01*
X169070983Y-85360965D01*
X169145924Y-85419138D01*
X169206610Y-85493757D01*
X169251050Y-85583145D01*
X169279154Y-85690296D01*
X169289172Y-85819207D01*
X169278457Y-85950953D01*
X169248175Y-86061962D01*
X169199836Y-86156062D01*
X169133156Y-86236054D01*
X169051796Y-86297779D01*
X168948856Y-86344612D01*
X168819480Y-86375159D01*
X168657634Y-86386294D01*
X168372901Y-86386294D01*
X168372901Y-87035980D01*
X167837900Y-87035980D01*
X167837900Y-86023837D01*
X168372901Y-86023837D01*
X168498503Y-86023837D01*
X168598487Y-86016413D01*
X168665961Y-85997473D01*
X168709847Y-85970516D01*
X168743598Y-85931463D01*
X168763516Y-85886666D01*
X168770364Y-85834167D01*
X168764391Y-85782417D01*
X168747001Y-85737251D01*
X168717839Y-85697071D01*
X168678626Y-85668733D01*
X168615756Y-85648772D01*
X168519368Y-85640864D01*
X168372901Y-85640864D01*
X168372901Y-86023837D01*
X167837900Y-86023837D01*
X167837900Y-85278408D01*
X168715660Y-85278408D01*
X168860511Y-85288720D01*
G37*
G36*
X170503574Y-85286679D02*
G01*
X170626671Y-85309221D01*
X170724044Y-85343270D01*
X170814529Y-85393188D01*
X170892877Y-85455015D01*
X170960300Y-85529306D01*
X171016339Y-85613553D01*
X171061457Y-85707094D01*
X171095660Y-85811086D01*
X171126994Y-85974841D01*
X171137700Y-86151210D01*
X171129425Y-86339376D01*
X171107435Y-86481922D01*
X171075314Y-86587824D01*
X171027550Y-86687176D01*
X170969824Y-86773536D01*
X170901963Y-86848233D01*
X170824333Y-86911778D01*
X170745186Y-86957857D01*
X170663734Y-86988108D01*
X170493439Y-87024756D01*
X170349314Y-87035980D01*
X169564458Y-87035980D01*
X169564458Y-86632490D01*
X170097176Y-86632490D01*
X170222778Y-86632490D01*
X170333243Y-86627174D01*
X170407720Y-86613748D01*
X170455609Y-86595304D01*
X170496770Y-86565650D01*
X170532705Y-86523142D01*
X170563564Y-86465153D01*
X170583048Y-86401065D01*
X170597157Y-86303799D01*
X170602698Y-86162537D01*
X170595443Y-86017378D01*
X170576427Y-85911343D01*
X170549009Y-85835825D01*
X170515296Y-85783624D01*
X170468708Y-85741996D01*
X170407421Y-85710370D01*
X170327782Y-85689566D01*
X170225062Y-85681897D01*
X170097176Y-85681897D01*
X170097176Y-86632490D01*
X169564458Y-86632490D01*
X169564458Y-85278408D01*
X170349314Y-85278408D01*
X170503574Y-85286679D01*
G37*
G36*
X172721944Y-87035980D02*
G01*
X171295792Y-87035980D01*
X171323279Y-86892802D01*
X171372609Y-86756222D01*
X171444750Y-86624690D01*
X171537364Y-86505619D01*
X171686586Y-86357856D01*
X171909581Y-86175359D01*
X172095133Y-86022411D01*
X172174590Y-85936215D01*
X172219001Y-85853726D01*
X172232201Y-85782235D01*
X172225898Y-85732555D01*
X172207331Y-85688518D01*
X172175628Y-85648558D01*
X172135193Y-85617949D01*
X172088407Y-85599433D01*
X172033418Y-85592993D01*
X171976304Y-85599760D01*
X171928381Y-85619119D01*
X171887574Y-85651016D01*
X171857115Y-85693792D01*
X171830939Y-85760572D01*
X171811071Y-85859920D01*
X171330670Y-85819742D01*
X171356976Y-85680472D01*
X171391958Y-85573261D01*
X171433747Y-85492120D01*
X171489662Y-85421257D01*
X171559347Y-85361835D01*
X171644675Y-85313350D01*
X171737622Y-85281072D01*
X171860561Y-85259218D01*
X172020650Y-85251053D01*
X172188138Y-85258830D01*
X172315497Y-85279530D01*
X172410535Y-85309824D01*
X172497884Y-85356661D01*
X172570527Y-85416670D01*
X172630182Y-85490624D01*
X172674651Y-85575056D01*
X172701274Y-85665552D01*
X172710318Y-85763963D01*
X172700352Y-85868514D01*
X172670282Y-85970349D01*
X172618764Y-86071174D01*
X172550063Y-86161785D01*
X172442779Y-86267581D01*
X172286179Y-86391316D01*
X172095284Y-86532793D01*
X171988263Y-86632490D01*
X172721944Y-86632490D01*
X172721944Y-87035980D01*
G37*
G36*
X174149031Y-86324744D02*
G01*
X174362658Y-86324744D01*
X174362658Y-86707717D01*
X174149031Y-86707717D01*
X174149031Y-87035980D01*
X173730081Y-87035980D01*
X173730081Y-86707717D01*
X172868411Y-86707717D01*
X172868411Y-86324744D01*
X173285388Y-86324744D01*
X173730081Y-86324744D01*
X173730081Y-85782663D01*
X173285388Y-86324744D01*
X172868411Y-86324744D01*
X172868411Y-86303907D01*
X173731846Y-85251053D01*
X174149031Y-85251053D01*
X174149031Y-86324744D01*
G37*
G36*
X175328774Y-85256582D02*
G01*
X175422076Y-85271747D01*
X175497227Y-85294757D01*
X175600193Y-85346466D01*
X175678260Y-85408559D01*
X175741881Y-85481718D01*
X175788603Y-85555914D01*
X175824139Y-85637302D01*
X175853376Y-85735966D01*
X175889042Y-85934621D01*
X175901125Y-86144050D01*
X175893140Y-86345567D01*
X175871148Y-86511048D01*
X175837699Y-86645830D01*
X175794747Y-86754704D01*
X175743552Y-86841822D01*
X175676280Y-86917272D01*
X175591975Y-86977618D01*
X175487638Y-87023175D01*
X175359062Y-87052667D01*
X175201077Y-87063335D01*
X175058231Y-87054419D01*
X174943665Y-87029988D01*
X174852298Y-86992703D01*
X174769368Y-86938658D01*
X174696837Y-86870027D01*
X174633896Y-86785402D01*
X174598098Y-86718362D01*
X174565694Y-86631477D01*
X174537670Y-86520719D01*
X174512276Y-86348111D01*
X174503311Y-86150034D01*
X174503376Y-86148538D01*
X174979145Y-86148538D01*
X174987622Y-86373507D01*
X175008460Y-86516413D01*
X175035926Y-86600968D01*
X175069647Y-86656393D01*
X175107622Y-86692912D01*
X175150438Y-86714160D01*
X175199935Y-86721395D01*
X175265749Y-86708731D01*
X175322526Y-86670531D01*
X175352077Y-86633340D01*
X175377964Y-86580758D01*
X175399341Y-86508644D01*
X175416759Y-86382017D01*
X175424150Y-86161682D01*
X175415522Y-85926618D01*
X175394530Y-85780821D01*
X175367265Y-85697391D01*
X175333713Y-85643692D01*
X175294952Y-85607807D01*
X175250238Y-85586615D01*
X175197547Y-85579315D01*
X175143994Y-85586843D01*
X175099624Y-85608521D01*
X175062158Y-85645056D01*
X175030839Y-85699742D01*
X175005839Y-85783988D01*
X174986857Y-85925906D01*
X174979145Y-86148538D01*
X174503376Y-86148538D01*
X174512495Y-85937408D01*
X174537474Y-85767969D01*
X174574964Y-85634493D01*
X174622570Y-85530612D01*
X174678946Y-85450981D01*
X174752192Y-85382346D01*
X174839647Y-85327576D01*
X174943610Y-85286587D01*
X175067127Y-85260397D01*
X175213844Y-85251053D01*
X175328774Y-85256582D01*
G37*
G36*
X175989877Y-85278408D02*
G01*
X176496022Y-85278408D01*
X176674044Y-86241503D01*
X176933344Y-85278408D01*
X177436479Y-85278408D01*
X177697025Y-86239794D01*
X177874943Y-85278408D01*
X178378804Y-85278408D01*
X178002310Y-87035980D01*
X177481425Y-87035980D01*
X177185482Y-85943054D01*
X176890681Y-87035980D01*
X176369901Y-87035980D01*
X175989877Y-85278408D01*
G37*
D14*
G36*
X134139434Y-62950788D02*
G01*
X134196336Y-62964367D01*
X134243220Y-62985562D01*
X134281787Y-63014000D01*
X134314393Y-63050448D01*
X134337177Y-63090141D01*
X134350928Y-63133814D01*
X134355646Y-63182548D01*
X134349627Y-63236803D01*
X134332113Y-63284517D01*
X134302906Y-63327208D01*
X134277403Y-63351253D01*
X134245487Y-63371810D01*
X134206082Y-63388777D01*
X134267524Y-63409478D01*
X134314974Y-63437428D01*
X134350972Y-63472272D01*
X134377425Y-63514797D01*
X134393758Y-63564646D01*
X134399500Y-63623683D01*
X134395547Y-63672170D01*
X134384005Y-63716372D01*
X134364994Y-63757091D01*
X134339180Y-63793855D01*
X134307931Y-63824946D01*
X134270766Y-63850799D01*
X134228402Y-63868197D01*
X134159054Y-63882074D01*
X134027781Y-63895000D01*
X133521097Y-63895000D01*
X133521097Y-63688194D01*
X133819822Y-63688194D01*
X133967078Y-63688194D01*
X134016625Y-63684551D01*
X134050266Y-63675224D01*
X134072328Y-63661882D01*
X134089085Y-63642519D01*
X134099194Y-63619332D01*
X134102737Y-63591139D01*
X134099281Y-63565084D01*
X134089329Y-63543355D01*
X134072616Y-63524896D01*
X134050857Y-63512295D01*
X134017013Y-63503369D01*
X133966444Y-63499854D01*
X133819822Y-63499854D01*
X133819822Y-63688194D01*
X133521097Y-63688194D01*
X133521097Y-63315206D01*
X133819822Y-63315206D01*
X133945152Y-63315206D01*
X133990118Y-63312001D01*
X134020017Y-63303879D01*
X134039091Y-63292414D01*
X134053281Y-63275571D01*
X134062110Y-63254081D01*
X134065288Y-63226518D01*
X134062184Y-63201100D01*
X134053428Y-63180699D01*
X134039091Y-63164141D01*
X134020077Y-63152777D01*
X133990714Y-63144778D01*
X133947056Y-63141637D01*
X133819822Y-63141637D01*
X133819822Y-63315206D01*
X133521097Y-63315206D01*
X133521097Y-62945911D01*
X134070366Y-62945911D01*
X134139434Y-62950788D01*
G37*
G36*
X135099068Y-62936944D02*
G01*
X135181989Y-62953362D01*
X135253406Y-62979291D01*
X135314991Y-63014184D01*
X135368034Y-63058084D01*
X135412771Y-63110789D01*
X135448103Y-63171338D01*
X135474198Y-63240884D01*
X135490634Y-63320950D01*
X135496422Y-63413358D01*
X135492435Y-63497521D01*
X135481205Y-63569905D01*
X135463631Y-63632061D01*
X135440335Y-63685367D01*
X135409093Y-63735653D01*
X135371915Y-63779665D01*
X135328488Y-63817917D01*
X135278249Y-63850684D01*
X135224746Y-63875502D01*
X135163695Y-63893985D01*
X135093964Y-63905663D01*
X135014261Y-63909771D01*
X134908069Y-63903445D01*
X134820482Y-63885896D01*
X134748426Y-63858762D01*
X134698808Y-63829937D01*
X134654017Y-63793825D01*
X134613659Y-63749892D01*
X134577570Y-63697311D01*
X134550035Y-63641372D01*
X134529581Y-63577535D01*
X134516674Y-63504577D01*
X134512235Y-63422936D01*
X134808264Y-63422936D01*
X134812398Y-63496084D01*
X134823497Y-63552256D01*
X134840006Y-63594799D01*
X134861004Y-63626510D01*
X134889465Y-63653264D01*
X134922251Y-63672315D01*
X134960218Y-63684074D01*
X135004625Y-63688194D01*
X135050505Y-63684074D01*
X135089000Y-63672424D01*
X135121537Y-63653748D01*
X135149112Y-63627780D01*
X135168960Y-63596908D01*
X135185019Y-63553028D01*
X135196091Y-63492292D01*
X135200294Y-63410126D01*
X135196207Y-63342416D01*
X135185136Y-63289488D01*
X135168455Y-63248517D01*
X135146919Y-63217170D01*
X135118245Y-63190876D01*
X135085182Y-63172096D01*
X135046860Y-63160482D01*
X135002028Y-63156409D01*
X134959363Y-63160471D01*
X134922389Y-63172142D01*
X134889973Y-63191197D01*
X134861350Y-63218151D01*
X134840241Y-63249850D01*
X134823624Y-63292541D01*
X134812437Y-63349092D01*
X134808264Y-63422936D01*
X134512235Y-63422936D01*
X134512135Y-63421090D01*
X134517979Y-63327360D01*
X134534579Y-63246096D01*
X134560937Y-63175465D01*
X134596621Y-63113933D01*
X134641792Y-63060335D01*
X134695576Y-63015311D01*
X134757228Y-62979747D01*
X134827902Y-62953488D01*
X134909111Y-62936956D01*
X135002663Y-62931139D01*
X135099068Y-62936944D01*
G37*
G36*
X136200491Y-62936944D02*
G01*
X136283412Y-62953362D01*
X136354829Y-62979291D01*
X136416413Y-63014184D01*
X136469457Y-63058084D01*
X136514194Y-63110789D01*
X136549526Y-63171338D01*
X136575620Y-63240884D01*
X136592057Y-63320950D01*
X136597845Y-63413358D01*
X136593858Y-63497521D01*
X136582627Y-63569905D01*
X136565054Y-63632061D01*
X136541758Y-63685367D01*
X136510516Y-63735653D01*
X136473338Y-63779665D01*
X136429911Y-63817917D01*
X136379672Y-63850684D01*
X136326169Y-63875502D01*
X136265118Y-63893985D01*
X136195387Y-63905663D01*
X136115684Y-63909771D01*
X136009492Y-63903445D01*
X135921905Y-63885896D01*
X135849849Y-63858762D01*
X135800231Y-63829937D01*
X135755440Y-63793825D01*
X135715082Y-63749892D01*
X135678992Y-63697311D01*
X135651458Y-63641372D01*
X135631004Y-63577535D01*
X135618097Y-63504577D01*
X135613658Y-63422936D01*
X135909687Y-63422936D01*
X135913821Y-63496084D01*
X135924920Y-63552256D01*
X135941429Y-63594799D01*
X135962426Y-63626510D01*
X135990888Y-63653264D01*
X136023674Y-63672315D01*
X136061641Y-63684074D01*
X136106048Y-63688194D01*
X136151928Y-63684074D01*
X136190423Y-63672424D01*
X136222960Y-63653748D01*
X136250534Y-63627780D01*
X136270383Y-63596908D01*
X136286442Y-63553028D01*
X136297514Y-63492292D01*
X136301716Y-63410126D01*
X136297630Y-63342416D01*
X136286559Y-63289488D01*
X136269878Y-63248517D01*
X136248342Y-63217170D01*
X136219668Y-63190876D01*
X136186605Y-63172096D01*
X136148283Y-63160482D01*
X136103451Y-63156409D01*
X136060786Y-63160471D01*
X136023812Y-63172142D01*
X135991395Y-63191197D01*
X135962773Y-63218151D01*
X135941664Y-63249850D01*
X135925047Y-63292541D01*
X135913860Y-63349092D01*
X135909687Y-63422936D01*
X135613658Y-63422936D01*
X135613558Y-63421090D01*
X135619402Y-63327360D01*
X135636002Y-63246096D01*
X135662359Y-63175465D01*
X135698043Y-63113933D01*
X135743215Y-63060335D01*
X135796998Y-63015311D01*
X135858651Y-62979747D01*
X135929325Y-62953488D01*
X136010534Y-62936956D01*
X136104086Y-62931139D01*
X136200491Y-62936944D01*
G37*
G36*
X136668704Y-62945911D02*
G01*
X137561302Y-62945911D01*
X137561302Y-63182260D01*
X137263038Y-63182260D01*
X137263038Y-63895000D01*
X136966909Y-63895000D01*
X136966909Y-63182260D01*
X136668704Y-63182260D01*
X136668704Y-62945911D01*
G37*
D12*
G36*
X166208221Y-62670922D02*
G01*
X166475151Y-62670922D01*
X166475151Y-63133936D01*
X166471625Y-63231718D01*
X166462378Y-63303899D01*
X166449148Y-63355712D01*
X166426684Y-63402882D01*
X166392450Y-63445763D01*
X166344670Y-63484947D01*
X166304604Y-63507238D01*
X166258462Y-63523766D01*
X166205230Y-63534205D01*
X166143707Y-63537886D01*
X166057536Y-63533282D01*
X165992078Y-63521003D01*
X165943159Y-63502905D01*
X165898983Y-63475789D01*
X165862547Y-63441897D01*
X165833076Y-63400658D01*
X165811522Y-63354329D01*
X165795961Y-63298964D01*
X165787143Y-63232912D01*
X166041980Y-63198813D01*
X166045157Y-63251852D01*
X166051686Y-63282115D01*
X166064052Y-63306068D01*
X166082515Y-63324726D01*
X166099187Y-63332331D01*
X166124504Y-63335262D01*
X166151568Y-63331460D01*
X166172191Y-63320829D01*
X166187979Y-63303239D01*
X166198086Y-63280677D01*
X166205354Y-63245853D01*
X166208221Y-63194350D01*
X166208221Y-62670922D01*
G37*
G36*
X166587258Y-62670922D02*
G01*
X167390124Y-62670922D01*
X167390124Y-62883511D01*
X167121845Y-62883511D01*
X167121845Y-63524600D01*
X166855486Y-63524600D01*
X166855486Y-62883511D01*
X166587258Y-62883511D01*
X166587258Y-62670922D01*
G37*
G36*
X168310703Y-63524600D02*
G01*
X168031836Y-63524600D01*
X167990003Y-63385088D01*
X167692918Y-63385088D01*
X167651656Y-63524600D01*
X167379173Y-63524600D01*
X167501661Y-63199073D01*
X167750788Y-63199073D01*
X167933845Y-63199073D01*
X167842031Y-62899548D01*
X167750788Y-63199073D01*
X167501661Y-63199073D01*
X167700392Y-62670922D01*
X167989484Y-62670922D01*
X168310703Y-63524600D01*
G37*
G36*
X168768216Y-63215681D02*
G01*
X168768216Y-63036309D01*
X169178031Y-63036309D01*
X169178031Y-63400347D01*
X169097389Y-63451049D01*
X169028749Y-63486425D01*
X168970424Y-63509133D01*
X168909801Y-63524521D01*
X168839196Y-63534382D01*
X168757161Y-63537886D01*
X168679957Y-63534197D01*
X168613868Y-63523823D01*
X168557399Y-63507625D01*
X168509227Y-63486192D01*
X168464158Y-63457312D01*
X168424596Y-63422352D01*
X168390111Y-63380893D01*
X168360529Y-63332252D01*
X168331730Y-63262356D01*
X168313956Y-63184675D01*
X168307796Y-63097761D01*
X168311660Y-63028126D01*
X168322826Y-62965061D01*
X168340842Y-62907736D01*
X168365511Y-62855432D01*
X168397629Y-62807111D01*
X168436168Y-62765187D01*
X168481577Y-62729165D01*
X168534606Y-62698845D01*
X168594060Y-62677298D01*
X168670618Y-62662939D01*
X168768164Y-62657635D01*
X168863287Y-62661155D01*
X168931934Y-62670297D01*
X168979870Y-62683223D01*
X169024547Y-62703671D01*
X169063227Y-62730070D01*
X169096597Y-62762632D01*
X169124177Y-62800485D01*
X169147676Y-62846132D01*
X169166820Y-62900794D01*
X168909855Y-62946831D01*
X168896459Y-62915911D01*
X168878843Y-62891394D01*
X168856915Y-62872300D01*
X168831101Y-62858674D01*
X168799990Y-62850051D01*
X168762351Y-62846972D01*
X168720512Y-62850907D01*
X168684483Y-62862175D01*
X168653118Y-62880506D01*
X168625642Y-62906348D01*
X168605134Y-62936896D01*
X168589214Y-62976856D01*
X168578634Y-63028507D01*
X168574726Y-63094595D01*
X168578776Y-63165274D01*
X168589626Y-63219289D01*
X168605737Y-63259975D01*
X168626213Y-63290108D01*
X168653838Y-63315204D01*
X168686284Y-63333284D01*
X168724512Y-63344564D01*
X168769876Y-63348549D01*
X168813012Y-63345345D01*
X168853594Y-63335885D01*
X168894109Y-63319815D01*
X168944162Y-63293066D01*
X168944162Y-63215681D01*
X168768216Y-63215681D01*
G37*
D15*
G36*
X121784187Y-62635156D02*
G01*
X122066819Y-62635156D01*
X122066819Y-63539050D01*
X121784187Y-63539050D01*
X121784187Y-62635156D01*
G37*
G36*
X122660439Y-63085344D02*
G01*
X122183598Y-63085344D01*
X122204689Y-63030823D01*
X122234046Y-62987085D01*
X122280317Y-62944545D01*
X122386600Y-62868548D01*
X122447608Y-62824998D01*
X122472934Y-62801613D01*
X122486538Y-62779939D01*
X122490354Y-62762925D01*
X122487021Y-62746970D01*
X122477055Y-62734239D01*
X122461359Y-62726244D01*
X122435565Y-62723083D01*
X122407914Y-62727079D01*
X122386160Y-62738415D01*
X122369750Y-62757587D01*
X122356924Y-62790018D01*
X122202227Y-62777323D01*
X122216624Y-62730051D01*
X122232452Y-62701321D01*
X122264390Y-62669310D01*
X122311202Y-62642959D01*
X122367167Y-62627046D01*
X122442324Y-62621087D01*
X122516181Y-62626571D01*
X122569176Y-62640952D01*
X122606419Y-62662083D01*
X122636193Y-62692242D01*
X122653030Y-62724592D01*
X122658625Y-62760397D01*
X122652148Y-62801425D01*
X122632467Y-62839422D01*
X122599742Y-62873602D01*
X122544485Y-62911687D01*
X122450018Y-62969280D01*
X122660439Y-62969280D01*
X122660439Y-63085344D01*
G37*
G36*
X123367156Y-63165743D02*
G01*
X123614671Y-63240811D01*
X123593997Y-63308651D01*
X123567801Y-63365920D01*
X123536471Y-63414028D01*
X123498046Y-63456357D01*
X123454267Y-63490870D01*
X123404580Y-63518057D01*
X123350909Y-63536618D01*
X123284961Y-63548728D01*
X123204325Y-63553118D01*
X123106529Y-63547741D01*
X123027267Y-63532968D01*
X122963404Y-63510418D01*
X122919765Y-63486018D01*
X122878458Y-63453483D01*
X122839211Y-63411919D01*
X122801947Y-63360117D01*
X122773482Y-63305513D01*
X122752271Y-63242416D01*
X122738828Y-63169437D01*
X122734078Y-63084959D01*
X122739552Y-62994015D01*
X122755022Y-62915913D01*
X122779436Y-62848759D01*
X122812267Y-62790958D01*
X122853550Y-62741273D01*
X122903102Y-62699544D01*
X122960347Y-62666490D01*
X123026431Y-62642006D01*
X123102856Y-62626543D01*
X123191411Y-62621087D01*
X123278013Y-62626073D01*
X123350226Y-62639965D01*
X123410312Y-62661528D01*
X123460194Y-62690055D01*
X123504347Y-62727531D01*
X123543408Y-62774647D01*
X123577479Y-62832750D01*
X123606263Y-62903609D01*
X123356824Y-62959058D01*
X123342218Y-62920002D01*
X123329567Y-62897784D01*
X123303740Y-62869670D01*
X123273018Y-62849149D01*
X123238020Y-62836474D01*
X123198170Y-62832113D01*
X123153072Y-62837038D01*
X123115025Y-62851116D01*
X123082486Y-62874204D01*
X123054574Y-62907346D01*
X123035246Y-62946714D01*
X123021858Y-63003532D01*
X123016710Y-63083421D01*
X123020474Y-63161692D01*
X123030322Y-63218788D01*
X123044465Y-63259336D01*
X123061718Y-63287247D01*
X123086128Y-63310936D01*
X123114743Y-63327872D01*
X123148400Y-63338386D01*
X123188333Y-63342092D01*
X123239200Y-63336582D01*
X123278119Y-63321454D01*
X123307915Y-63297524D01*
X123331028Y-63265633D01*
X123350995Y-63222597D01*
X123367156Y-63165743D01*
G37*
G36*
X124752123Y-62635156D02*
G01*
X125033545Y-62635156D01*
X125033545Y-63172612D01*
X125027207Y-63250859D01*
X125008541Y-63323682D01*
X124988670Y-63369214D01*
X124962607Y-63410555D01*
X124930066Y-63448155D01*
X124892613Y-63481072D01*
X124855284Y-63505714D01*
X124817793Y-63523003D01*
X124762723Y-63539111D01*
X124698073Y-63549439D01*
X124622320Y-63553118D01*
X124555068Y-63550916D01*
X124478393Y-63543886D01*
X124404395Y-63529444D01*
X124347876Y-63507286D01*
X124298280Y-63474660D01*
X124251760Y-63429360D01*
X124214405Y-63376871D01*
X124192080Y-63325056D01*
X124172164Y-63240927D01*
X124166196Y-63172612D01*
X124166196Y-62635156D01*
X124447619Y-62635156D01*
X124447619Y-63184372D01*
X124452531Y-63231194D01*
X124466184Y-63268277D01*
X124487956Y-63297799D01*
X124517259Y-63319848D01*
X124553952Y-63333628D01*
X124600173Y-63338575D01*
X124646036Y-63333709D01*
X124682524Y-63320149D01*
X124711731Y-63298458D01*
X124733455Y-63269275D01*
X124747162Y-63232035D01*
X124752123Y-63184372D01*
X124752123Y-62635156D01*
G37*
G36*
X125165821Y-63235865D02*
G01*
X125434274Y-63218884D01*
X125442869Y-63262530D01*
X125454738Y-63295167D01*
X125469171Y-63319066D01*
X125492390Y-63342726D01*
X125519766Y-63359593D01*
X125552127Y-63370054D01*
X125590730Y-63373746D01*
X125629153Y-63370306D01*
X125658722Y-63360931D01*
X125681405Y-63346433D01*
X125699532Y-63326551D01*
X125709781Y-63305712D01*
X125713169Y-63283181D01*
X125709975Y-63261747D01*
X125700268Y-63241640D01*
X125683054Y-63222181D01*
X125660195Y-63207415D01*
X125616290Y-63190177D01*
X125541161Y-63170579D01*
X125446385Y-63145387D01*
X125373635Y-63118317D01*
X125319022Y-63090077D01*
X125279138Y-63061109D01*
X125244183Y-63024111D01*
X125219739Y-62983242D01*
X125204939Y-62937670D01*
X125199838Y-62886133D01*
X125204283Y-62840703D01*
X125217632Y-62796953D01*
X125240394Y-62754132D01*
X125270992Y-62716613D01*
X125311061Y-62684109D01*
X125362174Y-62656533D01*
X125417625Y-62638134D01*
X125490430Y-62625715D01*
X125584630Y-62621087D01*
X125673169Y-62625926D01*
X125744959Y-62639225D01*
X125802811Y-62659529D01*
X125849127Y-62685934D01*
X125888739Y-62721629D01*
X125920124Y-62766917D01*
X125943447Y-62823557D01*
X125957937Y-62894047D01*
X125691957Y-62909599D01*
X125681517Y-62869909D01*
X125666787Y-62841071D01*
X125648323Y-62820682D01*
X125624872Y-62806145D01*
X125594993Y-62796819D01*
X125556933Y-62793425D01*
X125512963Y-62799006D01*
X125484943Y-62813428D01*
X125466787Y-62835855D01*
X125460927Y-62861953D01*
X125465560Y-62881009D01*
X125480601Y-62899158D01*
X125507344Y-62913779D01*
X125573310Y-62931801D01*
X125695991Y-62961366D01*
X125780388Y-62987837D01*
X125835443Y-63011210D01*
X125885454Y-63041536D01*
X125923357Y-63074800D01*
X125951013Y-63111063D01*
X125971026Y-63152142D01*
X125983107Y-63196386D01*
X125987228Y-63244603D01*
X125981852Y-63300981D01*
X125965886Y-63353946D01*
X125938978Y-63404466D01*
X125902938Y-63448917D01*
X125858398Y-63485755D01*
X125804229Y-63515364D01*
X125745370Y-63535389D01*
X125673597Y-63548411D01*
X125586444Y-63553118D01*
X125488398Y-63548463D01*
X125410682Y-63535822D01*
X125349789Y-63516859D01*
X125302657Y-63492737D01*
X125266773Y-63464036D01*
X125227490Y-63416948D01*
X125197682Y-63363908D01*
X125177028Y-63303973D01*
X125165821Y-63235865D01*
G37*
G36*
X126713232Y-62639800D02*
G01*
X126767425Y-62652732D01*
X126812076Y-62672918D01*
X126848807Y-62700002D01*
X126879860Y-62734715D01*
X126901559Y-62772518D01*
X126914656Y-62814111D01*
X126919149Y-62860525D01*
X126913416Y-62912196D01*
X126896736Y-62957638D01*
X126868920Y-62998296D01*
X126844631Y-63021195D01*
X126814235Y-63040774D01*
X126776706Y-63056932D01*
X126835223Y-63076648D01*
X126880413Y-63103268D01*
X126914698Y-63136452D01*
X126939890Y-63176952D01*
X126955446Y-63224427D01*
X126960914Y-63280653D01*
X126957150Y-63326831D01*
X126946157Y-63368929D01*
X126928051Y-63407708D01*
X126903467Y-63442722D01*
X126873706Y-63472332D01*
X126838311Y-63496954D01*
X126797964Y-63513523D01*
X126731918Y-63526740D01*
X126606897Y-63539050D01*
X126124340Y-63539050D01*
X126124340Y-63342092D01*
X126408840Y-63342092D01*
X126549084Y-63342092D01*
X126596272Y-63338622D01*
X126628310Y-63329740D01*
X126649322Y-63317033D01*
X126665281Y-63298592D01*
X126674909Y-63276509D01*
X126678283Y-63249658D01*
X126674992Y-63224844D01*
X126665513Y-63204150D01*
X126649596Y-63186570D01*
X126628874Y-63174569D01*
X126596641Y-63166068D01*
X126548480Y-63162720D01*
X126408840Y-63162720D01*
X126408840Y-63342092D01*
X126124340Y-63342092D01*
X126124340Y-62986865D01*
X126408840Y-62986865D01*
X126528202Y-62986865D01*
X126571026Y-62983812D01*
X126599502Y-62976077D01*
X126617668Y-62965158D01*
X126631182Y-62949117D01*
X126639590Y-62928651D01*
X126642617Y-62902400D01*
X126639661Y-62878193D01*
X126631322Y-62858763D01*
X126617668Y-62842994D01*
X126599559Y-62832171D01*
X126571594Y-62824553D01*
X126530015Y-62821562D01*
X126408840Y-62821562D01*
X126408840Y-62986865D01*
X126124340Y-62986865D01*
X126124340Y-62635156D01*
X126647453Y-62635156D01*
X126713232Y-62639800D01*
G37*
G36*
X127038675Y-63109964D02*
G01*
X127406157Y-63109964D01*
X127406157Y-63306921D01*
X127038675Y-63306921D01*
X127038675Y-63109964D01*
G37*
G36*
X128062834Y-62640459D02*
G01*
X128124623Y-62655072D01*
X128174261Y-62677613D01*
X128213935Y-62707531D01*
X128246063Y-62745907D01*
X128269590Y-62791877D01*
X128284469Y-62846983D01*
X128289773Y-62913281D01*
X128284100Y-62981036D01*
X128268068Y-63038126D01*
X128242477Y-63086521D01*
X128207176Y-63127659D01*
X128164103Y-63159403D01*
X128109605Y-63183489D01*
X128041112Y-63199199D01*
X127955429Y-63204925D01*
X127804688Y-63204925D01*
X127804688Y-63539050D01*
X127521452Y-63539050D01*
X127521452Y-63018519D01*
X127804688Y-63018519D01*
X127871183Y-63018519D01*
X127924116Y-63014701D01*
X127959837Y-63004961D01*
X127983071Y-62991097D01*
X128000939Y-62971013D01*
X128011484Y-62947974D01*
X128015109Y-62920975D01*
X128011947Y-62894360D01*
X128002741Y-62871132D01*
X127987302Y-62850468D01*
X127966542Y-62835894D01*
X127933258Y-62825628D01*
X127882229Y-62821562D01*
X127804688Y-62821562D01*
X127804688Y-63018519D01*
X127521452Y-63018519D01*
X127521452Y-62635156D01*
X127986148Y-62635156D01*
X128062834Y-62640459D01*
G37*
G36*
X128932691Y-62639409D02*
G01*
X128997860Y-62651002D01*
X129049411Y-62668513D01*
X129097314Y-62694185D01*
X129138792Y-62725982D01*
X129174487Y-62764189D01*
X129204155Y-62807516D01*
X129228041Y-62855622D01*
X129246148Y-62909104D01*
X129262737Y-62993321D01*
X129268405Y-63084025D01*
X129264024Y-63180796D01*
X129252382Y-63254106D01*
X129235377Y-63308570D01*
X129210090Y-63359665D01*
X129179529Y-63404078D01*
X129143603Y-63442494D01*
X129102505Y-63475175D01*
X129060603Y-63498872D01*
X129017482Y-63514430D01*
X128927326Y-63533278D01*
X128851024Y-63539050D01*
X128435512Y-63539050D01*
X128435512Y-63331541D01*
X128717539Y-63331541D01*
X128784035Y-63331541D01*
X128842516Y-63328807D01*
X128881945Y-63321902D01*
X128907298Y-63312417D01*
X128929089Y-63297166D01*
X128948113Y-63275305D01*
X128964451Y-63245482D01*
X128974766Y-63212522D01*
X128982235Y-63162499D01*
X128985169Y-63089850D01*
X128981327Y-63015198D01*
X128971260Y-62960665D01*
X128956745Y-62921827D01*
X128938897Y-62894981D01*
X128914233Y-62873572D01*
X128881787Y-62857307D01*
X128839625Y-62846608D01*
X128785244Y-62842664D01*
X128717539Y-62842664D01*
X128717539Y-63331541D01*
X128435512Y-63331541D01*
X128435512Y-62635156D01*
X128851024Y-62635156D01*
X128932691Y-62639409D01*
G37*
D14*
G36*
X117398348Y-97465977D02*
G01*
X117416179Y-97747853D01*
X117370350Y-97756877D01*
X117336081Y-97769340D01*
X117310987Y-97784494D01*
X117286144Y-97808874D01*
X117268434Y-97837619D01*
X117257449Y-97871599D01*
X117253573Y-97912132D01*
X117257186Y-97952475D01*
X117267029Y-97983523D01*
X117282251Y-98007341D01*
X117303128Y-98026373D01*
X117325009Y-98037135D01*
X117348667Y-98040693D01*
X117371172Y-98037339D01*
X117392284Y-98027147D01*
X117412716Y-98009072D01*
X117428220Y-97985070D01*
X117446321Y-97938969D01*
X117466899Y-97860084D01*
X117493350Y-97760570D01*
X117521774Y-97684182D01*
X117551425Y-97626838D01*
X117581842Y-97584959D01*
X117620690Y-97548257D01*
X117663603Y-97522591D01*
X117711453Y-97507051D01*
X117765566Y-97501695D01*
X117813269Y-97506363D01*
X117859206Y-97520379D01*
X117904167Y-97544279D01*
X117943563Y-97576407D01*
X117977692Y-97618479D01*
X118006647Y-97672148D01*
X118025965Y-97730372D01*
X118039006Y-97806817D01*
X118043865Y-97905727D01*
X118038785Y-97998692D01*
X118024820Y-98074072D01*
X118003501Y-98134816D01*
X117975776Y-98183448D01*
X117938296Y-98225041D01*
X117890744Y-98257995D01*
X117831272Y-98282484D01*
X117757257Y-98297699D01*
X117740927Y-98018420D01*
X117782602Y-98007458D01*
X117812882Y-97991991D01*
X117834290Y-97972604D01*
X117849554Y-97947981D01*
X117859346Y-97916607D01*
X117862910Y-97876645D01*
X117857050Y-97830476D01*
X117841907Y-97801055D01*
X117818359Y-97781992D01*
X117790955Y-97775839D01*
X117770947Y-97780703D01*
X117751891Y-97796496D01*
X117736539Y-97824577D01*
X117717616Y-97893840D01*
X117686572Y-98022655D01*
X117658778Y-98111272D01*
X117634236Y-98169080D01*
X117602394Y-98221592D01*
X117567467Y-98261390D01*
X117529391Y-98290429D01*
X117486257Y-98311442D01*
X117439801Y-98324127D01*
X117389174Y-98328454D01*
X117329976Y-98322810D01*
X117274364Y-98306046D01*
X117221318Y-98277792D01*
X117174644Y-98239950D01*
X117135964Y-98193183D01*
X117104874Y-98136306D01*
X117083848Y-98074504D01*
X117070175Y-97999142D01*
X117065233Y-97907631D01*
X117070120Y-97804683D01*
X117083393Y-97723082D01*
X117103305Y-97659143D01*
X117128633Y-97609655D01*
X117158768Y-97571976D01*
X117208211Y-97530730D01*
X117263903Y-97499431D01*
X117326835Y-97477744D01*
X117398348Y-97465977D01*
G37*
G36*
X118029093Y-98373866D02*
G01*
X118029093Y-98655223D01*
X117509022Y-98754183D01*
X118029093Y-98898323D01*
X118029093Y-99178006D01*
X117509945Y-99322839D01*
X118029093Y-99421741D01*
X118029093Y-99701829D01*
X117080005Y-99492542D01*
X117080005Y-99202992D01*
X117670184Y-99038482D01*
X117080005Y-98874607D01*
X117080005Y-98585115D01*
X118029093Y-98373866D01*
G37*
G36*
X117080005Y-100525357D02*
G01*
X117080005Y-99732584D01*
X117157320Y-99747863D01*
X117231073Y-99775285D01*
X117302101Y-99815387D01*
X117366399Y-99866870D01*
X117446191Y-99949819D01*
X117544739Y-100073778D01*
X117627331Y-100176924D01*
X117673877Y-100221092D01*
X117718422Y-100245780D01*
X117757026Y-100253117D01*
X117783854Y-100249613D01*
X117807634Y-100239292D01*
X117829212Y-100221669D01*
X117845741Y-100199192D01*
X117855739Y-100173184D01*
X117859217Y-100142617D01*
X117855563Y-100110869D01*
X117845109Y-100084229D01*
X117827885Y-100061545D01*
X117804786Y-100044613D01*
X117768725Y-100030063D01*
X117715077Y-100019019D01*
X117736773Y-99751972D01*
X117811979Y-99766595D01*
X117869873Y-99786041D01*
X117913688Y-99809270D01*
X117951955Y-99840353D01*
X117984043Y-99879090D01*
X118010224Y-99926522D01*
X118027654Y-99978189D01*
X118039456Y-100046529D01*
X118043865Y-100135520D01*
X118039665Y-100228623D01*
X118028487Y-100299420D01*
X118012129Y-100352250D01*
X117986836Y-100400806D01*
X117954432Y-100441186D01*
X117914496Y-100474348D01*
X117868903Y-100499067D01*
X117820035Y-100513866D01*
X117766894Y-100518894D01*
X117710436Y-100513354D01*
X117655445Y-100496638D01*
X117600999Y-100468001D01*
X117552070Y-100429811D01*
X117494940Y-100370174D01*
X117428123Y-100283122D01*
X117351725Y-100177008D01*
X117297889Y-100117517D01*
X117297889Y-100525357D01*
X117080005Y-100525357D01*
G37*
G36*
X156712344Y-62949070D02*
G01*
X156780071Y-62957375D01*
X156828979Y-62969280D01*
X156873990Y-62989288D01*
X156912487Y-63017927D01*
X156945307Y-63055949D01*
X156969424Y-63100097D01*
X156984341Y-63150988D01*
X156989565Y-63210188D01*
X156985569Y-63262056D01*
X156974142Y-63307225D01*
X156955751Y-63346827D01*
X156930502Y-63382571D01*
X156899704Y-63413506D01*
X156862850Y-63439959D01*
X156821796Y-63459608D01*
X156766026Y-63476138D01*
X156809069Y-63493288D01*
X156836481Y-63509375D01*
X156853842Y-63525140D01*
X156883623Y-63559691D01*
X156924881Y-63619124D01*
X157067636Y-63895000D01*
X156732962Y-63895000D01*
X156576185Y-63604814D01*
X156545610Y-63555156D01*
X156523849Y-63532513D01*
X156490791Y-63516382D01*
X156453221Y-63510933D01*
X156429275Y-63510933D01*
X156429275Y-63895000D01*
X156131819Y-63895000D01*
X156131819Y-63329978D01*
X156429275Y-63329978D01*
X156550738Y-63329978D01*
X156627771Y-63317168D01*
X156653514Y-63307087D01*
X156674164Y-63288144D01*
X156687634Y-63263181D01*
X156692167Y-63234538D01*
X156688741Y-63205924D01*
X156679173Y-63183440D01*
X156663662Y-63165642D01*
X156642912Y-63153750D01*
X156608848Y-63145107D01*
X156555874Y-63141637D01*
X156429275Y-63141637D01*
X156429275Y-63329978D01*
X156131819Y-63329978D01*
X156131819Y-62945911D01*
X156621078Y-62945911D01*
X156712344Y-62949070D01*
G37*
G36*
X157105258Y-63576656D02*
G01*
X157387134Y-63558825D01*
X157396158Y-63604654D01*
X157408621Y-63638923D01*
X157423775Y-63664017D01*
X157448155Y-63688860D01*
X157476900Y-63706570D01*
X157510880Y-63717555D01*
X157551413Y-63721431D01*
X157591757Y-63717818D01*
X157622804Y-63707975D01*
X157646622Y-63692753D01*
X157665654Y-63671876D01*
X157676416Y-63649995D01*
X157679974Y-63626337D01*
X157676620Y-63603832D01*
X157666428Y-63582720D01*
X157648353Y-63562288D01*
X157624351Y-63546784D01*
X157578250Y-63528683D01*
X157499365Y-63508105D01*
X157399851Y-63481654D01*
X157323463Y-63453230D01*
X157266119Y-63423579D01*
X157224240Y-63393162D01*
X157187538Y-63354314D01*
X157161872Y-63311401D01*
X157146332Y-63263551D01*
X157140976Y-63209438D01*
X157145644Y-63161735D01*
X157159660Y-63115798D01*
X157183560Y-63070837D01*
X157215688Y-63031441D01*
X157257760Y-62997312D01*
X157311429Y-62968357D01*
X157369653Y-62949039D01*
X157446098Y-62935998D01*
X157545008Y-62931139D01*
X157637973Y-62936219D01*
X157713353Y-62950184D01*
X157774097Y-62971503D01*
X157822729Y-62999228D01*
X157864322Y-63036708D01*
X157897276Y-63084260D01*
X157921766Y-63143732D01*
X157936980Y-63217747D01*
X157657701Y-63234077D01*
X157646739Y-63192402D01*
X157631273Y-63162122D01*
X157611885Y-63140714D01*
X157587262Y-63125450D01*
X157555888Y-63115658D01*
X157515926Y-63112094D01*
X157469758Y-63117954D01*
X157440336Y-63133097D01*
X157421273Y-63156645D01*
X157415120Y-63184049D01*
X157419984Y-63204057D01*
X157435777Y-63223113D01*
X157463858Y-63238465D01*
X157533121Y-63257388D01*
X157661936Y-63288432D01*
X157750553Y-63316226D01*
X157808362Y-63340768D01*
X157860873Y-63372610D01*
X157900671Y-63407537D01*
X157929710Y-63445613D01*
X157950724Y-63488747D01*
X157963409Y-63535203D01*
X157967736Y-63585830D01*
X157962091Y-63645028D01*
X157945327Y-63700640D01*
X157917073Y-63753686D01*
X157879231Y-63800360D01*
X157832464Y-63839040D01*
X157775587Y-63870130D01*
X157713785Y-63891156D01*
X157638423Y-63904829D01*
X157546912Y-63909771D01*
X157443964Y-63904884D01*
X157362363Y-63891611D01*
X157298424Y-63871699D01*
X157248936Y-63846371D01*
X157211257Y-63816236D01*
X157170011Y-63766793D01*
X157138712Y-63711101D01*
X157117025Y-63648169D01*
X157105258Y-63576656D01*
G37*
G36*
X158044595Y-62945911D02*
G01*
X158937193Y-62945911D01*
X158937193Y-63182260D01*
X158638930Y-63182260D01*
X158638930Y-63895000D01*
X158342801Y-63895000D01*
X158342801Y-63182260D01*
X158044595Y-63182260D01*
X158044595Y-62945911D01*
G37*
D16*
%TO.C,Q1*%
G36*
X128618000Y-115976000D02*
G01*
X128620000Y-115976000D01*
X128623000Y-115977000D01*
X128625000Y-115977000D01*
X128628000Y-115978000D01*
X128630000Y-115979000D01*
X128633000Y-115980000D01*
X128635000Y-115982000D01*
X128637000Y-115983000D01*
X128639000Y-115985000D01*
X128641000Y-115986000D01*
X128643000Y-115988000D01*
X128645000Y-115990000D01*
X128647000Y-115992000D01*
X128649000Y-115994000D01*
X128650000Y-115996000D01*
X128652000Y-115998000D01*
X128653000Y-116000000D01*
X128655000Y-116002000D01*
X128656000Y-116005000D01*
X128657000Y-116007000D01*
X128658000Y-116010000D01*
X128658000Y-116012000D01*
X128659000Y-116015000D01*
X128659000Y-116017000D01*
X128660000Y-116020000D01*
X128660000Y-116022000D01*
X128660000Y-116025000D01*
X128660000Y-118375000D01*
X128660000Y-118378000D01*
X128660000Y-118380000D01*
X128659000Y-118383000D01*
X128659000Y-118385000D01*
X128658000Y-118388000D01*
X128658000Y-118390000D01*
X128657000Y-118393000D01*
X128656000Y-118395000D01*
X128655000Y-118398000D01*
X128653000Y-118400000D01*
X128652000Y-118402000D01*
X128650000Y-118404000D01*
X128649000Y-118406000D01*
X128647000Y-118408000D01*
X128645000Y-118410000D01*
X128643000Y-118412000D01*
X128641000Y-118414000D01*
X128639000Y-118415000D01*
X128637000Y-118417000D01*
X128635000Y-118418000D01*
X128633000Y-118420000D01*
X128630000Y-118421000D01*
X128628000Y-118422000D01*
X128625000Y-118423000D01*
X128623000Y-118423000D01*
X128620000Y-118424000D01*
X128618000Y-118424000D01*
X128615000Y-118425000D01*
X126930000Y-118425000D01*
X126927000Y-118424000D01*
X126925000Y-118424000D01*
X126922000Y-118423000D01*
X126920000Y-118423000D01*
X126917000Y-118422000D01*
X126915000Y-118421000D01*
X126912000Y-118420000D01*
X126910000Y-118418000D01*
X126908000Y-118417000D01*
X126906000Y-118415000D01*
X126904000Y-118414000D01*
X126902000Y-118412000D01*
X126900000Y-118410000D01*
X126898000Y-118408000D01*
X126896000Y-118406000D01*
X126895000Y-118404000D01*
X126893000Y-118402000D01*
X126892000Y-118400000D01*
X126890000Y-118398000D01*
X126889000Y-118395000D01*
X126888000Y-118393000D01*
X126887000Y-118390000D01*
X126887000Y-118388000D01*
X126886000Y-118385000D01*
X126886000Y-118383000D01*
X126885000Y-118380000D01*
X126885000Y-118378000D01*
X126885000Y-118375000D01*
X126885000Y-118325000D01*
X126295000Y-118325000D01*
X126292000Y-118324000D01*
X126290000Y-118324000D01*
X126287000Y-118323000D01*
X126285000Y-118323000D01*
X126282000Y-118322000D01*
X126280000Y-118321000D01*
X126277000Y-118320000D01*
X126275000Y-118318000D01*
X126273000Y-118317000D01*
X126271000Y-118315000D01*
X126269000Y-118314000D01*
X126267000Y-118312000D01*
X126265000Y-118310000D01*
X126263000Y-118308000D01*
X126261000Y-118306000D01*
X126260000Y-118304000D01*
X126258000Y-118302000D01*
X126257000Y-118300000D01*
X126255000Y-118298000D01*
X126254000Y-118295000D01*
X126253000Y-118293000D01*
X126252000Y-118290000D01*
X126252000Y-118288000D01*
X126251000Y-118285000D01*
X126251000Y-118283000D01*
X126250000Y-118280000D01*
X126250000Y-118278000D01*
X126250000Y-118275000D01*
X126250000Y-118075000D01*
X126250000Y-118072000D01*
X126250000Y-118070000D01*
X126251000Y-118067000D01*
X126251000Y-118065000D01*
X126252000Y-118062000D01*
X126252000Y-118060000D01*
X126253000Y-118057000D01*
X126254000Y-118055000D01*
X126255000Y-118052000D01*
X126257000Y-118050000D01*
X126258000Y-118048000D01*
X126260000Y-118046000D01*
X126261000Y-118044000D01*
X126263000Y-118042000D01*
X126265000Y-118040000D01*
X126267000Y-118038000D01*
X126269000Y-118036000D01*
X126271000Y-118035000D01*
X126273000Y-118033000D01*
X126275000Y-118032000D01*
X126277000Y-118030000D01*
X126280000Y-118029000D01*
X126282000Y-118028000D01*
X126285000Y-118027000D01*
X126287000Y-118027000D01*
X126290000Y-118026000D01*
X126292000Y-118026000D01*
X126295000Y-118025000D01*
X126885000Y-118025000D01*
X126885000Y-117675000D01*
X126295000Y-117675000D01*
X126292000Y-117674000D01*
X126290000Y-117674000D01*
X126287000Y-117673000D01*
X126285000Y-117673000D01*
X126282000Y-117672000D01*
X126280000Y-117671000D01*
X126277000Y-117670000D01*
X126275000Y-117668000D01*
X126273000Y-117667000D01*
X126271000Y-117665000D01*
X126269000Y-117664000D01*
X126267000Y-117662000D01*
X126265000Y-117660000D01*
X126263000Y-117658000D01*
X126261000Y-117656000D01*
X126260000Y-117654000D01*
X126258000Y-117652000D01*
X126257000Y-117650000D01*
X126255000Y-117648000D01*
X126254000Y-117645000D01*
X126253000Y-117643000D01*
X126252000Y-117640000D01*
X126252000Y-117638000D01*
X126251000Y-117635000D01*
X126251000Y-117633000D01*
X126250000Y-117630000D01*
X126250000Y-117628000D01*
X126250000Y-117625000D01*
X126250000Y-117425000D01*
X126250000Y-117422000D01*
X126250000Y-117420000D01*
X126251000Y-117417000D01*
X126251000Y-117415000D01*
X126252000Y-117412000D01*
X126252000Y-117410000D01*
X126253000Y-117407000D01*
X126254000Y-117405000D01*
X126255000Y-117402000D01*
X126257000Y-117400000D01*
X126258000Y-117398000D01*
X126260000Y-117396000D01*
X126261000Y-117394000D01*
X126263000Y-117392000D01*
X126265000Y-117390000D01*
X126267000Y-117388000D01*
X126269000Y-117386000D01*
X126271000Y-117385000D01*
X126273000Y-117383000D01*
X126275000Y-117382000D01*
X126277000Y-117380000D01*
X126280000Y-117379000D01*
X126282000Y-117378000D01*
X126285000Y-117377000D01*
X126287000Y-117377000D01*
X126290000Y-117376000D01*
X126292000Y-117376000D01*
X126295000Y-117375000D01*
X126885000Y-117375000D01*
X126885000Y-117025000D01*
X126295000Y-117025000D01*
X126292000Y-117024000D01*
X126290000Y-117024000D01*
X126287000Y-117023000D01*
X126285000Y-117023000D01*
X126282000Y-117022000D01*
X126280000Y-117021000D01*
X126277000Y-117020000D01*
X126275000Y-117018000D01*
X126273000Y-117017000D01*
X126271000Y-117015000D01*
X126269000Y-117014000D01*
X126267000Y-117012000D01*
X126265000Y-117010000D01*
X126263000Y-117008000D01*
X126261000Y-117006000D01*
X126260000Y-117004000D01*
X126258000Y-117002000D01*
X126257000Y-117000000D01*
X126255000Y-116998000D01*
X126254000Y-116995000D01*
X126253000Y-116993000D01*
X126252000Y-116990000D01*
X126252000Y-116988000D01*
X126251000Y-116985000D01*
X126251000Y-116983000D01*
X126250000Y-116980000D01*
X126250000Y-116978000D01*
X126250000Y-116975000D01*
X126250000Y-116775000D01*
X126250000Y-116772000D01*
X126250000Y-116770000D01*
X126251000Y-116767000D01*
X126251000Y-116765000D01*
X126252000Y-116762000D01*
X126252000Y-116760000D01*
X126253000Y-116757000D01*
X126254000Y-116755000D01*
X126255000Y-116752000D01*
X126257000Y-116750000D01*
X126258000Y-116748000D01*
X126260000Y-116746000D01*
X126261000Y-116744000D01*
X126263000Y-116742000D01*
X126265000Y-116740000D01*
X126267000Y-116738000D01*
X126269000Y-116736000D01*
X126271000Y-116735000D01*
X126273000Y-116733000D01*
X126275000Y-116732000D01*
X126277000Y-116730000D01*
X126280000Y-116729000D01*
X126282000Y-116728000D01*
X126285000Y-116727000D01*
X126287000Y-116727000D01*
X126290000Y-116726000D01*
X126292000Y-116726000D01*
X126295000Y-116725000D01*
X126885000Y-116725000D01*
X126885000Y-116375000D01*
X126295000Y-116375000D01*
X126292000Y-116374000D01*
X126290000Y-116374000D01*
X126287000Y-116373000D01*
X126285000Y-116373000D01*
X126282000Y-116372000D01*
X126280000Y-116371000D01*
X126277000Y-116370000D01*
X126275000Y-116368000D01*
X126273000Y-116367000D01*
X126271000Y-116365000D01*
X126269000Y-116364000D01*
X126267000Y-116362000D01*
X126265000Y-116360000D01*
X126263000Y-116358000D01*
X126261000Y-116356000D01*
X126260000Y-116354000D01*
X126258000Y-116352000D01*
X126257000Y-116350000D01*
X126255000Y-116348000D01*
X126254000Y-116345000D01*
X126253000Y-116343000D01*
X126252000Y-116340000D01*
X126252000Y-116338000D01*
X126251000Y-116335000D01*
X126251000Y-116333000D01*
X126250000Y-116330000D01*
X126250000Y-116328000D01*
X126250000Y-116325000D01*
X126250000Y-116125000D01*
X126250000Y-116122000D01*
X126250000Y-116120000D01*
X126251000Y-116117000D01*
X126251000Y-116115000D01*
X126252000Y-116112000D01*
X126252000Y-116110000D01*
X126253000Y-116107000D01*
X126254000Y-116105000D01*
X126255000Y-116102000D01*
X126257000Y-116100000D01*
X126258000Y-116098000D01*
X126260000Y-116096000D01*
X126261000Y-116094000D01*
X126263000Y-116092000D01*
X126265000Y-116090000D01*
X126267000Y-116088000D01*
X126269000Y-116086000D01*
X126271000Y-116085000D01*
X126273000Y-116083000D01*
X126275000Y-116082000D01*
X126277000Y-116080000D01*
X126280000Y-116079000D01*
X126282000Y-116078000D01*
X126285000Y-116077000D01*
X126287000Y-116077000D01*
X126290000Y-116076000D01*
X126292000Y-116076000D01*
X126295000Y-116075000D01*
X126885000Y-116075000D01*
X126885000Y-116025000D01*
X126885000Y-116022000D01*
X126885000Y-116020000D01*
X126886000Y-116017000D01*
X126886000Y-116015000D01*
X126887000Y-116012000D01*
X126887000Y-116010000D01*
X126888000Y-116007000D01*
X126889000Y-116005000D01*
X126890000Y-116002000D01*
X126892000Y-116000000D01*
X126893000Y-115998000D01*
X126895000Y-115996000D01*
X126896000Y-115994000D01*
X126898000Y-115992000D01*
X126900000Y-115990000D01*
X126902000Y-115988000D01*
X126904000Y-115986000D01*
X126906000Y-115985000D01*
X126908000Y-115983000D01*
X126910000Y-115982000D01*
X126912000Y-115980000D01*
X126915000Y-115979000D01*
X126917000Y-115978000D01*
X126920000Y-115977000D01*
X126922000Y-115977000D01*
X126925000Y-115976000D01*
X126927000Y-115976000D01*
X126930000Y-115975000D01*
X128615000Y-115975000D01*
X128618000Y-115976000D01*
G37*
%TD*%
D17*
%TO.C,R89*%
X160100000Y-79800000D03*
X159100000Y-79800000D03*
%TD*%
%TO.C,R27*%
X165000000Y-85000000D03*
X164000000Y-85000000D03*
%TD*%
D18*
%TO.C,J4*%
X171500000Y-93450000D03*
D19*
X167700000Y-98530000D03*
X167700000Y-88370000D03*
X177860000Y-98530000D03*
X177860000Y-88370000D03*
%TD*%
D20*
%TO.C,TP32*%
X171500000Y-101250000D03*
%TD*%
D21*
%TO.C,R8*%
X143800000Y-98300000D03*
X144800000Y-98300000D03*
%TD*%
D22*
%TO.C,R3*%
X127300000Y-106300000D03*
X127300000Y-105300000D03*
%TD*%
D21*
%TO.C,R18*%
X144100000Y-110500000D03*
X145100000Y-110500000D03*
%TD*%
D22*
%TO.C,R12*%
X138600000Y-110200000D03*
X138600000Y-109200000D03*
%TD*%
D23*
%TO.C,J8*%
X149250000Y-71100000D03*
X148750000Y-71100000D03*
X148250000Y-71100000D03*
X147750000Y-71100000D03*
X147250000Y-71100000D03*
X146750000Y-71100000D03*
X146250000Y-71100000D03*
X145750000Y-71100000D03*
X145250000Y-71100000D03*
X144750000Y-71100000D03*
X144250000Y-71100000D03*
X143750000Y-71100000D03*
D24*
X150850000Y-68930000D03*
X142150000Y-68930000D03*
%TD*%
D25*
%TO.C,TP27*%
X160700000Y-85500000D03*
%TD*%
D26*
%TO.C,C28*%
X163200000Y-120225000D03*
X163200000Y-122775000D03*
%TD*%
D27*
%TO.C,R31*%
X159550000Y-85500000D03*
X158650000Y-85500000D03*
%TD*%
D28*
%TO.C,C35*%
X151850000Y-82100000D03*
X153150000Y-82100000D03*
%TD*%
D29*
%TO.C,U1*%
X124850000Y-110449990D03*
X124850000Y-110850000D03*
X124850000Y-111250000D03*
X124850000Y-111649990D03*
X124850000Y-112050000D03*
D30*
X125450000Y-112650000D03*
X125850000Y-112650000D03*
X126250000Y-112650000D03*
X126650000Y-112650000D03*
X127050000Y-112650000D03*
D29*
X127650000Y-112050000D03*
X127650000Y-111649990D03*
X127650000Y-111250000D03*
X127650000Y-110850000D03*
X127650000Y-110449990D03*
D30*
X127050000Y-109850000D03*
X126650000Y-109850000D03*
X126250000Y-109850000D03*
X125850000Y-109850000D03*
X125450000Y-109850000D03*
D31*
X126250000Y-111250000D03*
%TD*%
D32*
%TO.C,C46*%
X155020000Y-88600000D03*
X154100000Y-88600000D03*
%TD*%
D17*
%TO.C,R74*%
X138800000Y-77200000D03*
X137800000Y-77200000D03*
%TD*%
D33*
%TO.C,L2*%
X162000000Y-74700000D03*
X162000000Y-71700000D03*
%TD*%
D34*
%TO.C,D8*%
X164000000Y-111049990D03*
X164000000Y-106949990D03*
%TD*%
D28*
%TO.C,C44*%
X132750000Y-90899990D03*
X134050000Y-90899990D03*
%TD*%
D21*
%TO.C,R40*%
X132900000Y-83999990D03*
X133900000Y-83999990D03*
%TD*%
D25*
%TO.C,TP43*%
X148600000Y-74000000D03*
%TD*%
D35*
%TO.C,Q4*%
X135250000Y-112000000D03*
X137150000Y-112000000D03*
X136200000Y-109400000D03*
%TD*%
D17*
%TO.C,R9*%
X147000000Y-98300000D03*
X146000000Y-98300000D03*
%TD*%
D36*
%TO.C,R86*%
X169800000Y-74550000D03*
X169800000Y-75450000D03*
%TD*%
D21*
%TO.C,R43*%
X138500000Y-87299990D03*
X139500000Y-87299990D03*
%TD*%
D37*
%TO.C,C61*%
X158025000Y-89700000D03*
X160575000Y-89700000D03*
%TD*%
D38*
%TO.C,C48*%
X133500000Y-74650000D03*
X133500000Y-73350000D03*
%TD*%
D39*
%TO.C,C62*%
X166250000Y-100700000D03*
X164550000Y-100700000D03*
%TD*%
D40*
%TO.C,C27*%
X141550000Y-78499990D03*
X140250000Y-78499990D03*
%TD*%
D25*
%TO.C,TP22*%
X142300000Y-122999990D03*
%TD*%
D38*
%TO.C,C16*%
X145600000Y-112850000D03*
X145600000Y-111550000D03*
%TD*%
D41*
%TO.C,F1*%
X165900000Y-67500000D03*
X168900000Y-67500000D03*
%TD*%
D42*
%TO.C,S2*%
X157500000Y-62475000D03*
D43*
X154875000Y-61950000D03*
X154875000Y-60250000D03*
X160125000Y-61950000D03*
X160125000Y-60250000D03*
%TD*%
D44*
%TO.C,C18*%
X147350000Y-115700000D03*
X149250000Y-115700000D03*
%TD*%
D45*
%TO.C,C1*%
X123100000Y-109559990D03*
X123100000Y-108639990D03*
%TD*%
D46*
%TO.C,R85*%
X163500000Y-79900000D03*
X163500000Y-80900000D03*
%TD*%
D38*
%TO.C,C4*%
X124700000Y-108649990D03*
X124700000Y-107349990D03*
%TD*%
D18*
%TO.C,J3*%
X171500000Y-112500000D03*
D19*
X167700000Y-117580000D03*
X167700000Y-107420000D03*
X177860000Y-117580000D03*
X177860000Y-107420000D03*
%TD*%
D25*
%TO.C,TP56*%
X147800000Y-99200000D03*
%TD*%
D38*
%TO.C,C63*%
X159000000Y-76250000D03*
X159000000Y-74950000D03*
%TD*%
D47*
%TO.C,D1*%
X124350000Y-117899990D03*
X120250000Y-117899990D03*
%TD*%
D38*
%TO.C,C38*%
X142900000Y-79650000D03*
X142900000Y-78350000D03*
%TD*%
D39*
%TO.C,C33*%
X141350000Y-82200000D03*
X139650000Y-82200000D03*
%TD*%
D48*
%TO.C,J7*%
X163690000Y-61500000D03*
D49*
X166229999Y-61500000D03*
X168770001Y-61500000D03*
X171310000Y-61500000D03*
%TD*%
D50*
%TO.C,R22*%
X153775000Y-120000000D03*
X157225000Y-120000000D03*
%TD*%
D35*
%TO.C,Q7*%
X137850000Y-74700000D03*
X139750000Y-74700000D03*
X138800000Y-72100000D03*
%TD*%
D38*
%TO.C,C53*%
X127500000Y-88350000D03*
X127500000Y-87050000D03*
%TD*%
D40*
%TO.C,C50*%
X124150000Y-85100000D03*
X122850000Y-85100000D03*
%TD*%
D22*
%TO.C,R23*%
X153700000Y-118100000D03*
X153700000Y-117100000D03*
%TD*%
D25*
%TO.C,TP3*%
X129900000Y-112100080D03*
%TD*%
%TO.C,TP20*%
X152100000Y-120000000D03*
%TD*%
D46*
%TO.C,R5*%
X121750000Y-104000000D03*
X121750000Y-105000000D03*
%TD*%
D51*
%TO.C,C14*%
X149750000Y-107000000D03*
X148250000Y-107000000D03*
%TD*%
D52*
%TO.C,U9*%
X143900000Y-88438000D03*
X144300000Y-88438000D03*
X144700000Y-88438000D03*
X145100000Y-88438000D03*
X145500000Y-88438000D03*
X145900000Y-88438000D03*
X146300000Y-88438000D03*
X146700000Y-88438000D03*
X147100000Y-88438000D03*
X147500000Y-88438000D03*
X147900000Y-88438000D03*
X148300000Y-88438000D03*
X148700000Y-88438000D03*
X149100000Y-88438000D03*
D53*
X149938000Y-87600000D03*
X149938000Y-87200000D03*
X149938000Y-86800000D03*
X149938000Y-86400000D03*
X149938000Y-86000000D03*
X149938000Y-85600000D03*
X149938000Y-85200000D03*
X149938000Y-84800000D03*
X149938000Y-84400000D03*
X149938000Y-84000000D03*
X149938000Y-83600000D03*
X149938000Y-83200000D03*
X149938000Y-82800000D03*
X149938000Y-82400000D03*
D52*
X149100000Y-81562000D03*
X148700000Y-81562000D03*
X148300000Y-81562000D03*
X147900000Y-81562000D03*
X147500000Y-81562000D03*
X147100000Y-81562000D03*
X146700000Y-81562000D03*
X146300000Y-81562000D03*
X145900000Y-81562000D03*
X145500000Y-81562000D03*
X145100000Y-81562000D03*
X144700000Y-81562000D03*
X144300000Y-81562000D03*
X143900000Y-81562000D03*
D53*
X143062000Y-82400000D03*
X143062000Y-82800000D03*
X143062000Y-83200000D03*
X143062000Y-83600000D03*
X143062000Y-84000000D03*
X143062000Y-84400000D03*
X143062000Y-84800000D03*
X143062000Y-85200000D03*
X143062000Y-85600000D03*
X143062000Y-86000000D03*
X143062000Y-86400000D03*
X143062000Y-86800000D03*
X143062000Y-87200000D03*
X143062000Y-87600000D03*
D54*
X146500000Y-85000000D03*
%TD*%
D22*
%TO.C,R57*%
X149700000Y-78500000D03*
X149700000Y-77500000D03*
%TD*%
D55*
%TO.C,D12*%
X160400000Y-97225000D03*
X160400000Y-94175000D03*
%TD*%
D25*
%TO.C,TP14*%
X137300000Y-113300000D03*
%TD*%
%TO.C,TP40*%
X146200000Y-100299990D03*
%TD*%
D56*
%TO.C,U3*%
X135800000Y-118249990D03*
X136200000Y-118249990D03*
X136600000Y-118249990D03*
X137000000Y-118249990D03*
X137400000Y-118249990D03*
X137800000Y-118249990D03*
X138200000Y-118249990D03*
X138600000Y-118249990D03*
D57*
X139125000Y-117725000D03*
X139125000Y-117324990D03*
X139125000Y-116925000D03*
X139125000Y-116524990D03*
X139125000Y-116124990D03*
X139125000Y-115725000D03*
X139125000Y-115324990D03*
X139125000Y-114924990D03*
D56*
X138600000Y-114399990D03*
X138200000Y-114399990D03*
X137800000Y-114399990D03*
X137400000Y-114399990D03*
X137000000Y-114399990D03*
X136600000Y-114399990D03*
X136200000Y-114399990D03*
X135800000Y-114399990D03*
D57*
X135275000Y-114924990D03*
X135275000Y-115324990D03*
X135275000Y-115725000D03*
X135275000Y-116124990D03*
X135275000Y-116524990D03*
X135275000Y-116925000D03*
X135275000Y-117324990D03*
X135275000Y-117725000D03*
D58*
X137200000Y-116324990D03*
%TD*%
D59*
%TO.C,MH3*%
X114475000Y-122000000D03*
X115068109Y-120568109D03*
X115068109Y-123431891D03*
X116500000Y-119975000D03*
D60*
X116500000Y-122000000D03*
D59*
X116500000Y-124025000D03*
X117931891Y-120568109D03*
X117931891Y-123431891D03*
X118525000Y-122000000D03*
%TD*%
D17*
%TO.C,R68*%
X144300000Y-101000000D03*
X143300000Y-101000000D03*
%TD*%
D39*
%TO.C,C56*%
X164250000Y-91500000D03*
X162550000Y-91500000D03*
%TD*%
D46*
%TO.C,R64*%
X165100000Y-64200000D03*
X165100000Y-65200000D03*
%TD*%
D61*
%TO.C,R19*%
X144150000Y-109300000D03*
X145050000Y-109300000D03*
%TD*%
D26*
%TO.C,C12*%
X130300000Y-120325000D03*
X130300000Y-122875000D03*
%TD*%
D25*
%TO.C,TP41*%
X150800080Y-74900000D03*
%TD*%
D21*
%TO.C,R32*%
X156500000Y-122600000D03*
X157500000Y-122600000D03*
%TD*%
D35*
%TO.C,Q5*%
X140050000Y-108300000D03*
X141950000Y-108300000D03*
X141000000Y-105700000D03*
%TD*%
D62*
%TO.C,U8*%
X158200000Y-115500000D03*
X158200000Y-115000000D03*
X158200000Y-114500000D03*
X158200000Y-114000000D03*
X158200000Y-113500000D03*
X153800000Y-113500000D03*
X153800000Y-114000000D03*
X153800000Y-114500000D03*
X153800000Y-115000000D03*
X153800000Y-115500000D03*
%TD*%
D27*
%TO.C,R10*%
X149650000Y-95900000D03*
X148750000Y-95900000D03*
%TD*%
D61*
%TO.C,R70*%
X123050000Y-83800000D03*
X123950000Y-83800000D03*
%TD*%
D63*
%TO.C,U4*%
X149500000Y-108850000D03*
X149000000Y-108850000D03*
X148500000Y-108850000D03*
X148000000Y-108850000D03*
X147500000Y-108850000D03*
X147500000Y-113150000D03*
X148000000Y-113150000D03*
X148500000Y-113150000D03*
X149000000Y-113150000D03*
X149500000Y-113150000D03*
D64*
X148500000Y-111000000D03*
%TD*%
D65*
%TO.C,D11*%
X147150000Y-62099990D03*
X147150000Y-60900000D03*
X145850000Y-60900000D03*
X145850000Y-62099990D03*
%TD*%
D66*
%TO.C,D3*%
X131500000Y-113714990D03*
X131500000Y-111485000D03*
%TD*%
D46*
%TO.C,R11*%
X138600000Y-111400000D03*
X138600000Y-112400000D03*
%TD*%
D67*
%TO.C,C54*%
X127500000Y-99650000D03*
X127500000Y-100950000D03*
%TD*%
D39*
%TO.C,C57*%
X164250000Y-93500000D03*
X162550000Y-93500000D03*
%TD*%
D26*
%TO.C,C10*%
X136800000Y-120325000D03*
X136800000Y-122875000D03*
%TD*%
D21*
%TO.C,R75*%
X137800000Y-75999990D03*
X138800000Y-75999990D03*
%TD*%
D68*
%TO.C,R34*%
X159500000Y-110850000D03*
X159500000Y-109950000D03*
%TD*%
D69*
%TO.C,Q2*%
X125800000Y-105950000D03*
X125800000Y-104050000D03*
X123200000Y-105000000D03*
%TD*%
D70*
%TO.C,U10*%
X136220000Y-89304990D03*
X136220000Y-88034990D03*
X136220000Y-86764990D03*
X136220000Y-85494990D03*
X130580000Y-85494990D03*
X130580000Y-86764990D03*
X130580000Y-88034990D03*
X130580000Y-89304990D03*
D71*
X133400000Y-87399990D03*
%TD*%
D22*
%TO.C,R60*%
X147600000Y-76400000D03*
X147600000Y-75400000D03*
%TD*%
D25*
%TO.C,TP38*%
X135500000Y-67000000D03*
%TD*%
D72*
%TO.C,MH1*%
X146500000Y-94000000D03*
%TD*%
D40*
%TO.C,C52*%
X145050000Y-72700000D03*
X143750000Y-72700000D03*
%TD*%
D25*
%TO.C,TP44*%
X146500000Y-74000000D03*
%TD*%
D36*
%TO.C,R72*%
X132000000Y-73550000D03*
X132000000Y-74450000D03*
%TD*%
D25*
%TO.C,TP58*%
X135500000Y-95000000D03*
%TD*%
D27*
%TO.C,R33*%
X160450000Y-112100000D03*
X159550000Y-112100000D03*
%TD*%
D38*
%TO.C,C26*%
X145300000Y-79650000D03*
X145300000Y-78350000D03*
%TD*%
D22*
%TO.C,R35*%
X135500000Y-65500000D03*
X135500000Y-64500000D03*
%TD*%
D25*
%TO.C,TP30*%
X162750080Y-117000000D03*
%TD*%
D38*
%TO.C,C40*%
X147300000Y-79650000D03*
X147300000Y-78350000D03*
%TD*%
D73*
%TO.C,D4*%
X118825000Y-104100000D03*
X117175000Y-104100000D03*
%TD*%
D28*
%TO.C,C49*%
X118850000Y-85100000D03*
X120150000Y-85100000D03*
%TD*%
D74*
%TO.C,J1*%
X121025000Y-108374990D03*
X121025000Y-108875000D03*
X121025000Y-109375000D03*
X121025000Y-109875000D03*
X121025000Y-110375000D03*
X121025000Y-110874990D03*
X121025000Y-111375000D03*
X121025000Y-111875000D03*
X121025000Y-112375000D03*
X121025000Y-112875000D03*
X121025000Y-113375000D03*
X121025000Y-113875000D03*
D75*
X119425000Y-113625000D03*
X119425000Y-113125000D03*
X119425000Y-112625000D03*
X119425000Y-112125000D03*
X119425000Y-111625000D03*
X119425000Y-111125000D03*
X119425000Y-110625000D03*
X119425000Y-110125000D03*
X119425000Y-109624990D03*
X119425000Y-109125000D03*
X119425000Y-108625000D03*
D76*
X119425000Y-108125000D03*
D77*
X115275000Y-106680000D03*
X115275000Y-115319990D03*
D78*
X120325000Y-106675000D03*
D79*
X119725000Y-107025000D03*
D80*
X119725000Y-114975000D03*
D78*
X120325000Y-115325000D03*
%TD*%
D81*
%TO.C,L1*%
X159100000Y-100400000D03*
X156100000Y-100400000D03*
%TD*%
D27*
%TO.C,R78*%
X133850000Y-93000000D03*
X132950000Y-93000000D03*
%TD*%
D21*
%TO.C,R26*%
X156000000Y-111799990D03*
X157000000Y-111799990D03*
%TD*%
D17*
%TO.C,R14*%
X145300000Y-116599990D03*
X144300000Y-116599990D03*
%TD*%
D22*
%TO.C,R39*%
X130700000Y-104499990D03*
X130700000Y-103499990D03*
%TD*%
D21*
%TO.C,R45*%
X132900000Y-82900000D03*
X133900000Y-82900000D03*
%TD*%
D46*
%TO.C,R52*%
X150300000Y-90000000D03*
X150300000Y-91000000D03*
%TD*%
D27*
%TO.C,R69*%
X119950000Y-83800000D03*
X119050000Y-83800000D03*
%TD*%
D82*
%TO.C,Q1*%
X129650000Y-118175000D03*
X129650000Y-117525000D03*
X129650000Y-116875000D03*
X129650000Y-116225000D03*
%TD*%
D83*
%TO.C,C2*%
X125000000Y-121040000D03*
X125000000Y-121960000D03*
%TD*%
D84*
%TO.C,U11*%
X160900000Y-101600000D03*
X161850000Y-101600000D03*
X162800000Y-101600000D03*
X162800000Y-98900000D03*
X161850000Y-98900000D03*
X160900000Y-98900000D03*
%TD*%
D68*
%TO.C,R76*%
X127500000Y-90650000D03*
X127500000Y-89750000D03*
%TD*%
D22*
%TO.C,R62*%
X144500000Y-62000000D03*
X144500000Y-61000000D03*
%TD*%
D25*
%TO.C,TP28*%
X152500080Y-108200000D03*
%TD*%
%TO.C,TP45*%
X149900000Y-73300000D03*
%TD*%
%TO.C,TP9*%
X131800000Y-117300080D03*
%TD*%
D38*
%TO.C,C47*%
X148600000Y-62150000D03*
X148600000Y-60850000D03*
%TD*%
D25*
%TO.C,TP25*%
X152100000Y-123400000D03*
%TD*%
D40*
%TO.C,C34*%
X141150000Y-85000000D03*
X139850000Y-85000000D03*
%TD*%
D25*
%TO.C,TP10*%
X132300000Y-107000080D03*
%TD*%
%TO.C,TP16*%
X148500080Y-96999910D03*
%TD*%
D59*
%TO.C,MH4*%
X114475000Y-61999990D03*
X115068109Y-60568099D03*
X115068109Y-63431881D03*
X116500000Y-59974990D03*
D60*
X116500000Y-61999990D03*
D59*
X116500000Y-64024990D03*
X117931891Y-60568099D03*
X117931891Y-63431881D03*
X118525000Y-61999990D03*
%TD*%
D85*
%TO.C,D9*%
X120675000Y-94000000D03*
X122325000Y-94000000D03*
%TD*%
D27*
%TO.C,R83*%
X162850000Y-102900000D03*
X161950000Y-102900000D03*
%TD*%
D67*
%TO.C,C25*%
X154500000Y-107449990D03*
X154500000Y-108749990D03*
%TD*%
D86*
%TO.C,C45*%
X154240000Y-83500000D03*
X155160000Y-83500000D03*
%TD*%
D25*
%TO.C,TP37*%
X157500000Y-68700000D03*
%TD*%
D27*
%TO.C,R79*%
X133850000Y-95000000D03*
X132950000Y-95000000D03*
%TD*%
D67*
%TO.C,C24*%
X152000000Y-113250000D03*
X152000000Y-114550000D03*
%TD*%
D25*
%TO.C,TP33*%
X137200000Y-82100000D03*
%TD*%
%TO.C,TP55*%
X146500000Y-63500000D03*
%TD*%
D59*
%TO.C,MH2*%
X174475000Y-61999990D03*
X175068109Y-60568099D03*
X175068109Y-63431881D03*
X176500000Y-59974990D03*
D60*
X176500000Y-61999990D03*
D59*
X176500000Y-64024990D03*
X177931891Y-60568099D03*
X177931891Y-63431881D03*
X178525000Y-61999990D03*
%TD*%
D40*
%TO.C,C37*%
X141150000Y-83800000D03*
X139850000Y-83800000D03*
%TD*%
D87*
%TO.C,U5*%
X144950000Y-105750000D03*
X144300000Y-105750000D03*
X143650000Y-105750000D03*
X143650000Y-107850000D03*
X144950000Y-107850000D03*
%TD*%
D17*
%TO.C,R84*%
X166500000Y-104600000D03*
X165500000Y-104600000D03*
%TD*%
D22*
%TO.C,R56*%
X150800000Y-78500000D03*
X150800000Y-77500000D03*
%TD*%
%TO.C,R88*%
X161400000Y-80900000D03*
X161400000Y-79900000D03*
%TD*%
%TO.C,R53*%
X142500000Y-62000000D03*
X142500000Y-61000000D03*
%TD*%
D38*
%TO.C,C39*%
X144100000Y-79650000D03*
X144100000Y-78350000D03*
%TD*%
D22*
%TO.C,R54*%
X150500000Y-62000000D03*
X150500000Y-61000000D03*
%TD*%
D25*
%TO.C,TP11*%
X128900000Y-108000000D03*
%TD*%
%TO.C,TP65*%
X155700080Y-90700000D03*
%TD*%
%TO.C,TP7*%
X125000000Y-119999990D03*
%TD*%
D88*
%TO.C,C31*%
X152250000Y-78400000D03*
X153950000Y-78400000D03*
%TD*%
D21*
%TO.C,R16*%
X137100000Y-105800000D03*
X138100000Y-105800000D03*
%TD*%
D25*
%TO.C,TP63*%
X140400000Y-77200000D03*
%TD*%
%TO.C,TP18*%
X152500000Y-94500000D03*
%TD*%
D38*
%TO.C,C30*%
X161700000Y-110450000D03*
X161700000Y-109150000D03*
%TD*%
D25*
%TO.C,TP42*%
X149700000Y-76200000D03*
%TD*%
D66*
%TO.C,D2*%
X133000000Y-113714990D03*
X133000000Y-111485000D03*
%TD*%
D17*
%TO.C,R63*%
X152300000Y-85200000D03*
X151300000Y-85200000D03*
%TD*%
D48*
%TO.C,J2*%
X121690000Y-61500000D03*
D49*
X124229999Y-61500000D03*
X126770001Y-61500000D03*
X129310000Y-61500000D03*
%TD*%
D17*
%TO.C,R50*%
X118000000Y-94000000D03*
X117000000Y-94000000D03*
%TD*%
D21*
%TO.C,R44*%
X132900000Y-81800000D03*
X133900000Y-81800000D03*
%TD*%
D42*
%TO.C,S1*%
X135500000Y-62475000D03*
D43*
X132875000Y-61950000D03*
X132875000Y-60250000D03*
X138125000Y-61950000D03*
X138125000Y-60250000D03*
%TD*%
D26*
%TO.C,C67*%
X165700000Y-70525000D03*
X165700000Y-73075000D03*
%TD*%
D21*
%TO.C,R30*%
X153600000Y-122600000D03*
X154600000Y-122600000D03*
%TD*%
D25*
%TO.C,TP36*%
X171300000Y-64200000D03*
%TD*%
%TO.C,TP5*%
X134400000Y-113700080D03*
%TD*%
D46*
%TO.C,R48*%
X144800000Y-96200000D03*
X144800000Y-97200000D03*
%TD*%
D22*
%TO.C,R61*%
X146500000Y-76400000D03*
X146500000Y-75400000D03*
%TD*%
D38*
%TO.C,C21*%
X146300000Y-107650000D03*
X146300000Y-106350000D03*
%TD*%
D89*
%TO.C,Q3*%
X146845000Y-122994000D03*
X148115000Y-122994000D03*
X149385000Y-122994000D03*
X150655000Y-122994000D03*
D90*
X146286200Y-117610740D03*
D91*
X149004000Y-121192140D03*
%TD*%
D68*
%TO.C,R71*%
X130500000Y-74450000D03*
X130500000Y-73550000D03*
%TD*%
D17*
%TO.C,R21*%
X144200000Y-104500000D03*
X143200000Y-104500000D03*
%TD*%
D38*
%TO.C,C17*%
X132300000Y-116150000D03*
X132300000Y-114850000D03*
%TD*%
D25*
%TO.C,TP57*%
X135500160Y-93000000D03*
%TD*%
D21*
%TO.C,R15*%
X137100000Y-108200000D03*
X138100000Y-108200000D03*
%TD*%
D88*
%TO.C,C32*%
X152250000Y-80300000D03*
X153950000Y-80300000D03*
%TD*%
D28*
%TO.C,C41*%
X151850000Y-83400000D03*
X153150000Y-83400000D03*
%TD*%
D92*
%TO.C,C19*%
X134310000Y-114800000D03*
X133490000Y-114800000D03*
%TD*%
D25*
%TO.C,TP24*%
X142300000Y-120300000D03*
%TD*%
D46*
%TO.C,R81*%
X164320000Y-97800000D03*
X164320000Y-98800000D03*
%TD*%
D93*
%TO.C,D13*%
X165275000Y-75300000D03*
X168325000Y-75300000D03*
%TD*%
D17*
%TO.C,R28*%
X165000000Y-86000000D03*
X164000000Y-86000000D03*
%TD*%
D21*
%TO.C,R59*%
X159100000Y-82100000D03*
X160100000Y-82100000D03*
%TD*%
D46*
%TO.C,R20*%
X159500000Y-107600000D03*
X159500000Y-108600000D03*
%TD*%
D25*
%TO.C,TP17*%
X138700080Y-107000000D03*
%TD*%
D94*
%TO.C,D10*%
X166425000Y-64050000D03*
X166425000Y-64700000D03*
X166425000Y-65350000D03*
X168575000Y-65350000D03*
X168575000Y-64700000D03*
X168575000Y-64050000D03*
%TD*%
D95*
%TO.C,C58*%
X162600000Y-97150000D03*
X162600000Y-95450000D03*
%TD*%
D25*
%TO.C,TP29*%
X151500080Y-90500000D03*
%TD*%
D96*
%TO.C,PZ1*%
X141150000Y-100300000D03*
X132450000Y-100300000D03*
%TD*%
D22*
%TO.C,R55*%
X152500000Y-62000000D03*
X152500000Y-61000000D03*
%TD*%
D36*
%TO.C,R6*%
X134100000Y-106550000D03*
X134100000Y-107450000D03*
%TD*%
D25*
%TO.C,TP23*%
X152100000Y-122100000D03*
%TD*%
D88*
%TO.C,C7*%
X127350000Y-114199990D03*
X129050000Y-114199990D03*
%TD*%
D27*
%TO.C,R41*%
X139450000Y-90600000D03*
X138550000Y-90600000D03*
%TD*%
D97*
%TO.C,U2*%
X149950000Y-102899990D03*
X149000000Y-102899990D03*
X148050000Y-102899990D03*
X148050000Y-105599990D03*
X149000000Y-105599990D03*
X149950000Y-105599990D03*
%TD*%
D45*
%TO.C,C5*%
X131500000Y-110460000D03*
X131500000Y-109540000D03*
%TD*%
D98*
%TO.C,Y1*%
X155200000Y-87200000D03*
X155200000Y-84999990D03*
X153600000Y-84999990D03*
X153600000Y-87200000D03*
%TD*%
D99*
%TO.C,FD3*%
X116500000Y-117500000D03*
%TD*%
D100*
%TO.C,F2*%
X168500000Y-70300000D03*
X168500000Y-73300000D03*
%TD*%
D94*
%TO.C,D7*%
X124425000Y-63949990D03*
X124425000Y-64599990D03*
X124425000Y-65249990D03*
X126575000Y-65249990D03*
X126575000Y-64599990D03*
X126575000Y-63949990D03*
%TD*%
D99*
%TO.C,FD1*%
X121000000Y-65000000D03*
%TD*%
D21*
%TO.C,R47*%
X143200000Y-103300000D03*
X144200000Y-103300000D03*
%TD*%
D68*
%TO.C,R2*%
X133000000Y-110450000D03*
X133000000Y-109550000D03*
%TD*%
D25*
%TO.C,TP19*%
X144900000Y-102200000D03*
%TD*%
D68*
%TO.C,R4*%
X127300000Y-104050000D03*
X127300000Y-103150000D03*
%TD*%
D99*
%TO.C,FD2*%
X161000000Y-67000000D03*
%TD*%
D17*
%TO.C,R25*%
X158000000Y-106200000D03*
X157000000Y-106200000D03*
%TD*%
D26*
%TO.C,C11*%
X133500000Y-120325000D03*
X133500000Y-122875000D03*
%TD*%
D67*
%TO.C,C43*%
X143500000Y-89750000D03*
X143500000Y-91050000D03*
%TD*%
D22*
%TO.C,R90*%
X159100000Y-78500000D03*
X159100000Y-77500000D03*
%TD*%
D101*
%TO.C,S4*%
X117550000Y-86750000D03*
X125450000Y-86750000D03*
X117550000Y-91250000D03*
X125450000Y-91250000D03*
%TD*%
D102*
%TO.C,U7*%
X156050000Y-110200000D03*
X157000000Y-110200000D03*
X157950000Y-110200000D03*
X157950000Y-107799990D03*
X156050000Y-107799990D03*
%TD*%
D25*
%TO.C,TP67*%
X166000000Y-102299990D03*
%TD*%
D67*
%TO.C,C42*%
X147500000Y-89850000D03*
X147500000Y-91150000D03*
%TD*%
D40*
%TO.C,C55*%
X160850000Y-103500000D03*
X159550000Y-103500000D03*
%TD*%
D22*
%TO.C,R1*%
X127300000Y-108500000D03*
X127300000Y-107500000D03*
%TD*%
D103*
%TO.C,Q6*%
X151000000Y-110050000D03*
X151000000Y-111950000D03*
X153600000Y-111000000D03*
%TD*%
D25*
%TO.C,TP8*%
X127300000Y-122000080D03*
%TD*%
D40*
%TO.C,C22*%
X142400000Y-117999990D03*
X141100000Y-117999990D03*
%TD*%
D46*
%TO.C,R51*%
X149100000Y-90000000D03*
X149100000Y-91000000D03*
%TD*%
D26*
%TO.C,C9*%
X140000000Y-120325000D03*
X140000000Y-122875000D03*
%TD*%
D104*
%TO.C,D14*%
X169700000Y-80825000D03*
X169700000Y-79175000D03*
%TD*%
D22*
%TO.C,R58*%
X148600000Y-76400000D03*
X148600000Y-75400000D03*
%TD*%
D25*
%TO.C,TP26*%
X154500000Y-105900000D03*
%TD*%
D67*
%TO.C,C8*%
X122700000Y-112249990D03*
X122700000Y-113549990D03*
%TD*%
D105*
%TO.C,U6*%
X142575000Y-110350000D03*
X141925000Y-110350000D03*
X141275000Y-110350000D03*
X140625000Y-110350000D03*
X140625000Y-116250000D03*
X141275000Y-116250000D03*
X141925000Y-116250000D03*
X142575000Y-116250000D03*
%TD*%
D39*
%TO.C,C51*%
X145050000Y-74400000D03*
X143350000Y-74400000D03*
%TD*%
D46*
%TO.C,R49*%
X146000000Y-96200000D03*
X146000000Y-97200000D03*
%TD*%
D17*
%TO.C,R17*%
X145300000Y-115300000D03*
X144300000Y-115300000D03*
%TD*%
D36*
%TO.C,R77*%
X127500000Y-97350000D03*
X127500000Y-98250000D03*
%TD*%
D106*
%TO.C,S5*%
X125450000Y-101250000D03*
X117550000Y-101250000D03*
X125450000Y-96750000D03*
X117550000Y-96750000D03*
%TD*%
D88*
%TO.C,C66*%
X165450000Y-77500000D03*
X167150000Y-77500000D03*
%TD*%
D107*
%TO.C,FB1*%
X123310000Y-115200000D03*
X124890000Y-115200000D03*
%TD*%
D25*
%TO.C,TP60*%
X125500000Y-83800000D03*
%TD*%
D36*
%TO.C,R36*%
X157500000Y-64550000D03*
X157500000Y-65450000D03*
%TD*%
D68*
%TO.C,R13*%
X144100000Y-112750000D03*
X144100000Y-111850000D03*
%TD*%
D25*
%TO.C,TP59*%
X117500000Y-83800000D03*
%TD*%
%TO.C,TP61*%
X133500080Y-75999990D03*
%TD*%
D108*
%TO.C,C3*%
X123275000Y-121000000D03*
X120725000Y-121000000D03*
%TD*%
D22*
%TO.C,R67*%
X140500000Y-62000000D03*
X140500000Y-61000000D03*
%TD*%
D25*
%TO.C,TP12*%
X134100000Y-108600080D03*
%TD*%
D21*
%TO.C,R7*%
X144300000Y-114000000D03*
X145300000Y-114000000D03*
%TD*%
D17*
%TO.C,R29*%
X162800000Y-85500000D03*
X161800000Y-85500000D03*
%TD*%
D109*
%TO.C,C20*%
X135390000Y-113500000D03*
X136210000Y-113500000D03*
%TD*%
D21*
%TO.C,R46*%
X138500000Y-89499990D03*
X139500000Y-89499990D03*
%TD*%
D25*
%TO.C,TP62*%
X138800000Y-68600000D03*
%TD*%
D22*
%TO.C,R24*%
X157300000Y-118100000D03*
X157300000Y-117100000D03*
%TD*%
D110*
%TO.C,C15*%
X146200000Y-104350000D03*
X146200000Y-102850000D03*
%TD*%
D20*
%TO.C,TP31*%
X171500000Y-104500000D03*
%TD*%
D37*
%TO.C,C59*%
X155625000Y-93000000D03*
X158175000Y-93000000D03*
%TD*%
D26*
%TO.C,C29*%
X160000000Y-120225000D03*
X160000000Y-122775000D03*
%TD*%
D21*
%TO.C,R87*%
X159100000Y-81000000D03*
X160100000Y-81000000D03*
%TD*%
D22*
%TO.C,R38*%
X129600000Y-104499990D03*
X129600000Y-103499990D03*
%TD*%
D21*
%TO.C,R42*%
X138500000Y-88399990D03*
X139500000Y-88399990D03*
%TD*%
D111*
%TO.C,S3*%
X119000000Y-67000000D03*
D112*
X124000000Y-67000000D03*
X119000000Y-81500000D03*
X124000000Y-81500000D03*
X121500000Y-81500000D03*
D113*
X115500000Y-74000000D03*
X127500000Y-74000000D03*
%TD*%
D51*
%TO.C,C13*%
X150150000Y-101300000D03*
X148650000Y-101300000D03*
%TD*%
D25*
%TO.C,TP13*%
X128400000Y-103699990D03*
%TD*%
D85*
%TO.C,D6*%
X175175000Y-103000000D03*
X176825000Y-103000000D03*
%TD*%
D38*
%TO.C,C6*%
X126000000Y-108649990D03*
X126000000Y-107349990D03*
%TD*%
D28*
%TO.C,C23*%
X154850000Y-116999990D03*
X156150000Y-116999990D03*
%TD*%
D37*
%TO.C,C60*%
X155625000Y-96300000D03*
X158175000Y-96300000D03*
%TD*%
D25*
%TO.C,TP64*%
X162100000Y-70000000D03*
%TD*%
%TO.C,TP66*%
X162500000Y-82100000D03*
%TD*%
D39*
%TO.C,C36*%
X141350000Y-80200000D03*
X139650000Y-80200000D03*
%TD*%
D88*
%TO.C,C64*%
X165450000Y-79500000D03*
X167150000Y-79500000D03*
%TD*%
D25*
%TO.C,TP15*%
X149500000Y-94500000D03*
%TD*%
D46*
%TO.C,R66*%
X169900000Y-64200000D03*
X169900000Y-65200000D03*
%TD*%
D17*
%TO.C,R65*%
X142800000Y-77200000D03*
X141800000Y-77200000D03*
%TD*%
D88*
%TO.C,C65*%
X165450000Y-81500000D03*
X167150000Y-81500000D03*
%TD*%
D25*
%TO.C,TP39*%
X144800000Y-99300000D03*
%TD*%
D46*
%TO.C,R73*%
X138800000Y-69700000D03*
X138800000Y-70700000D03*
%TD*%
D68*
%TO.C,R80*%
X164200000Y-103550000D03*
X164200000Y-102650000D03*
%TD*%
D114*
%TO.C,U12*%
X160750000Y-76550000D03*
X160750000Y-77500000D03*
X160750000Y-78450000D03*
X163450000Y-78450000D03*
X163450000Y-77500000D03*
X163450000Y-76550000D03*
%TD*%
D115*
%TO.C,J5*%
X175000000Y-67500000D03*
X175000000Y-72500000D03*
%TD*%
D25*
%TO.C,TP35*%
X163700080Y-64200000D03*
%TD*%
%TO.C,TP21*%
X146200000Y-108999990D03*
%TD*%
D61*
%TO.C,R82*%
X165550000Y-103500000D03*
X166450000Y-103500000D03*
%TD*%
D25*
%TO.C,TP68*%
X152100000Y-116500000D03*
%TD*%
D59*
%TO.C,MH5*%
X174475000Y-122000000D03*
X175068109Y-120568109D03*
X175068109Y-123431891D03*
X176500000Y-119975000D03*
D60*
X176500000Y-122000000D03*
D59*
X176500000Y-124025000D03*
X177931891Y-120568109D03*
X177931891Y-123431891D03*
X178525000Y-122000000D03*
%TD*%
D116*
%TO.C,D5*%
X152000000Y-105924990D03*
X152000000Y-102574990D03*
%TD*%
D115*
%TO.C,J6*%
X175000000Y-77500000D03*
X175000000Y-82500000D03*
%TD*%
D22*
%TO.C,R37*%
X157500000Y-67599990D03*
X157500000Y-66599990D03*
%TD*%
D25*
%TO.C,TP34*%
X142800000Y-80700000D03*
%TD*%
G36*
X176500856Y-59000012D02*
G01*
X176662256Y-59002274D01*
X176674402Y-59003042D01*
X176995992Y-59039277D01*
X177009700Y-59041606D01*
X177324366Y-59113426D01*
X177337729Y-59117275D01*
X177642386Y-59223879D01*
X177655233Y-59229201D01*
X177946025Y-59369239D01*
X177958195Y-59375965D01*
X178231486Y-59547685D01*
X178242827Y-59555732D01*
X178495173Y-59756971D01*
X178505541Y-59766237D01*
X178733762Y-59994458D01*
X178743028Y-60004826D01*
X178944267Y-60257172D01*
X178952314Y-60268513D01*
X179124034Y-60541804D01*
X179130760Y-60553974D01*
X179270798Y-60844766D01*
X179276120Y-60857613D01*
X179382724Y-61162270D01*
X179386573Y-61175633D01*
X179458393Y-61490299D01*
X179460722Y-61504007D01*
X179496957Y-61825597D01*
X179497725Y-61837743D01*
X179499988Y-61999144D01*
X179500000Y-62000882D01*
X179500000Y-121999117D01*
X179499988Y-122000855D01*
X179497725Y-122162256D01*
X179496957Y-122174402D01*
X179460722Y-122495992D01*
X179458393Y-122509700D01*
X179386573Y-122824366D01*
X179382724Y-122837729D01*
X179276120Y-123142386D01*
X179270798Y-123155233D01*
X179130760Y-123446025D01*
X179124034Y-123458195D01*
X178952314Y-123731486D01*
X178944267Y-123742827D01*
X178743028Y-123995173D01*
X178733762Y-124005541D01*
X178505541Y-124233762D01*
X178495173Y-124243028D01*
X178242827Y-124444267D01*
X178231486Y-124452314D01*
X177958195Y-124624034D01*
X177946025Y-124630760D01*
X177655233Y-124770798D01*
X177642386Y-124776120D01*
X177337729Y-124882724D01*
X177324366Y-124886573D01*
X177009700Y-124958393D01*
X176995992Y-124960722D01*
X176674402Y-124996957D01*
X176662256Y-124997725D01*
X176500856Y-124999988D01*
X176499118Y-125000000D01*
X116500882Y-125000000D01*
X116499144Y-124999988D01*
X116337743Y-124997725D01*
X116325597Y-124996957D01*
X116004007Y-124960722D01*
X115990299Y-124958393D01*
X115675633Y-124886573D01*
X115662270Y-124882724D01*
X115357613Y-124776120D01*
X115344766Y-124770798D01*
X115053974Y-124630760D01*
X115041804Y-124624034D01*
X114768513Y-124452314D01*
X114757172Y-124444267D01*
X114504826Y-124243028D01*
X114494458Y-124233762D01*
X114266237Y-124005541D01*
X114256971Y-123995173D01*
X114055732Y-123742827D01*
X114047685Y-123731486D01*
X113875965Y-123458195D01*
X113869239Y-123446025D01*
X113729201Y-123155233D01*
X113723879Y-123142386D01*
X113617275Y-122837729D01*
X113613426Y-122824366D01*
X113541606Y-122509700D01*
X113539277Y-122495992D01*
X113503042Y-122174402D01*
X113502274Y-122162256D01*
X113500012Y-122000855D01*
X113500000Y-121999117D01*
X113500000Y-62000872D01*
X113500012Y-61999134D01*
X113502274Y-61837734D01*
X113503042Y-61825588D01*
X113539278Y-61503999D01*
X113541607Y-61490290D01*
X113613430Y-61175616D01*
X113617280Y-61162254D01*
X113674059Y-60999989D01*
X114500010Y-60999989D01*
X114500019Y-122999969D01*
X114500491Y-123043639D01*
X114508096Y-123130573D01*
X114523251Y-123216528D01*
X114523252Y-123216531D01*
X114545837Y-123300825D01*
X114545841Y-123300838D01*
X114575686Y-123382841D01*
X114575697Y-123382867D01*
X114612572Y-123461946D01*
X114612575Y-123461952D01*
X114656218Y-123537543D01*
X114706274Y-123609033D01*
X114706282Y-123609043D01*
X114762367Y-123675884D01*
X114762377Y-123675894D01*
X114824098Y-123737617D01*
X114890945Y-123793709D01*
X114962439Y-123843771D01*
X114962458Y-123843783D01*
X115038028Y-123887413D01*
X115117146Y-123924307D01*
X115117165Y-123924315D01*
X115199134Y-123954149D01*
X115199168Y-123954159D01*
X115283441Y-123976741D01*
X115283459Y-123976745D01*
X115369410Y-123991901D01*
X115456364Y-123999509D01*
X115499995Y-123999971D01*
X177538855Y-123999971D01*
X177541269Y-123999835D01*
X177541269Y-123999829D01*
X177541785Y-123999805D01*
X177543258Y-123999723D01*
X177543693Y-123999720D01*
X177543697Y-123999720D01*
X177630773Y-123992423D01*
X177716856Y-123977528D01*
X177716870Y-123977524D01*
X177801346Y-123955138D01*
X177883524Y-123925439D01*
X177962776Y-123888658D01*
X177962789Y-123888652D01*
X178038528Y-123845060D01*
X178038532Y-123845058D01*
X178110142Y-123795010D01*
X178177116Y-123738863D01*
X178238903Y-123677071D01*
X178295035Y-123610112D01*
X178345088Y-123538482D01*
X178345098Y-123538466D01*
X178388668Y-123462756D01*
X178388672Y-123462749D01*
X178425454Y-123383486D01*
X178425463Y-123383466D01*
X178455152Y-123301301D01*
X178477533Y-123216830D01*
X178477537Y-123216811D01*
X178492425Y-123130748D01*
X178492430Y-123130711D01*
X178499721Y-123043649D01*
X178499722Y-123043624D01*
X178500011Y-123000000D01*
X178500019Y-60957908D01*
X178499577Y-60955335D01*
X178492213Y-60869314D01*
X178492211Y-60869304D01*
X178477186Y-60783275D01*
X178454700Y-60698882D01*
X178454699Y-60698879D01*
X178424923Y-60616777D01*
X178424919Y-60616766D01*
X178388089Y-60537593D01*
X178344473Y-60461929D01*
X178344469Y-60461923D01*
X178294414Y-60390366D01*
X178294409Y-60390360D01*
X178238293Y-60323454D01*
X178238285Y-60323445D01*
X178176524Y-60261686D01*
X178109619Y-60205574D01*
X178109616Y-60205572D01*
X178038054Y-60155515D01*
X177962387Y-60111902D01*
X177883201Y-60075066D01*
X177801102Y-60045295D01*
X177801088Y-60045290D01*
X177716712Y-60022809D01*
X177630660Y-60007783D01*
X177543663Y-60000337D01*
X177543633Y-60000336D01*
X177500038Y-59999963D01*
X115499970Y-60000001D01*
X115499936Y-60000001D01*
X115456329Y-60000486D01*
X115369389Y-60008096D01*
X115369385Y-60008097D01*
X115283442Y-60023252D01*
X115283434Y-60023254D01*
X115199142Y-60045841D01*
X115199117Y-60045849D01*
X115117134Y-60075690D01*
X115038027Y-60112579D01*
X114962448Y-60156216D01*
X114890948Y-60206281D01*
X114824110Y-60262364D01*
X114824100Y-60262373D01*
X114762382Y-60324090D01*
X114706289Y-60390939D01*
X114706278Y-60390953D01*
X114656233Y-60462422D01*
X114656228Y-60462430D01*
X114612587Y-60538014D01*
X114575700Y-60617113D01*
X114575694Y-60617127D01*
X114545856Y-60699098D01*
X114545850Y-60699117D01*
X114523258Y-60783420D01*
X114523255Y-60783433D01*
X114508098Y-60869371D01*
X114500488Y-60956317D01*
X114500010Y-60999989D01*
X113674059Y-60999989D01*
X113723879Y-60857614D01*
X113729200Y-60844767D01*
X113869242Y-60553968D01*
X113875968Y-60541798D01*
X114047688Y-60268508D01*
X114055735Y-60257167D01*
X114256975Y-60004822D01*
X114266241Y-59994454D01*
X114494465Y-59766231D01*
X114504833Y-59756965D01*
X114757171Y-59555733D01*
X114768512Y-59547686D01*
X115041807Y-59375964D01*
X115053977Y-59369238D01*
X115344776Y-59229196D01*
X115357623Y-59223874D01*
X115662266Y-59117275D01*
X115675629Y-59113426D01*
X115990297Y-59041606D01*
X116004005Y-59039277D01*
X116325597Y-59003042D01*
X116337743Y-59002274D01*
X116499144Y-59000012D01*
X116500882Y-59000000D01*
X176499118Y-59000000D01*
X176500856Y-59000012D01*
G37*
M02*
