%TF.GenerationSoftware,KiCad,Pcbnew,9.0.7+1*%
%TF.CreationDate,Date%
%TF.ProjectId,PD240W_kicad,50443234-3057-45f6-9b69-6361642e6b69,1.0.0*%
%TF.SameCoordinates,Original*%
%TF.FileFunction,Soldermask,Bot*%
%TF.FilePolarity,Negative*%
%FSLAX46Y46*%
G04 Gerber Fmt 4.6, Leading zero omitted, Abs format (unit mm)*
G04 Created by KiCad*
%MOMM*%
%LPD*%
G01*
G04 APERTURE LIST*
G04 Aperture macros list*
%AMRoundRect*
0 Rectangle with rounded corners*
0 $1 Rounding radius*
0 $2 $3 $4 $5 $6 $7 $8 $9 X,Y pos of 4 corners*
0 Add a 4 corners polygon primitive as box body*
4,1,4,$2,$3,$4,$5,$6,$7,$8,$9,$2,$3,0*
0 Add four circle primitives for the rounded corners*
1,1,$1+$1,$2,$3*
1,1,$1+$1,$4,$5*
1,1,$1+$1,$6,$7*
1,1,$1+$1,$8,$9*
0 Add four rect primitives between the rounded corners*
20,1,$1+$1,$2,$3,$4,$5,0*
20,1,$1+$1,$4,$5,$6,$7,0*
20,1,$1+$1,$6,$7,$8,$9,0*
20,1,$1+$1,$8,$9,$2,$3,0*%
%AMFreePoly0*
4,1,39,0.535355,0.785355,0.550000,0.750000,0.550000,-0.750000,0.535355,-0.785355,0.500000,-0.800000,0.000000,-0.800000,-0.010328,-0.795722,-0.065263,-0.795722,-0.078204,-0.794018,-0.204283,-0.760236,-0.216342,-0.755241,-0.329381,-0.689978,-0.339736,-0.682032,-0.432032,-0.589736,-0.439978,-0.579381,-0.505241,-0.466342,-0.510236,-0.454283,-0.544018,-0.328204,-0.545722,-0.315263,-0.545722,-0.260327,
-0.550000,-0.250000,-0.550000,0.250000,-0.545722,0.260327,-0.545722,0.315263,-0.544018,0.328204,-0.510236,0.454283,-0.505241,0.466342,-0.439978,0.579381,-0.432032,0.589736,-0.339736,0.682032,-0.329381,0.689978,-0.216342,0.755241,-0.204283,0.760236,-0.078204,0.794018,-0.065263,0.795722,-0.010328,0.795722,0.000000,0.800000,0.500000,0.800000,0.535355,0.785355,0.535355,0.785355,
$1*%
%AMFreePoly1*
4,1,39,0.010328,0.795722,0.065263,0.795722,0.078204,0.794018,0.204283,0.760236,0.216342,0.755241,0.329381,0.689978,0.339736,0.682032,0.432032,0.589736,0.439978,0.579381,0.505241,0.466342,0.510236,0.454283,0.544018,0.328204,0.545722,0.315263,0.545722,0.260327,0.550000,0.250000,0.550000,-0.250000,0.545722,-0.260327,0.545722,-0.315263,0.544018,-0.328204,0.510236,-0.454283,
0.505241,-0.466342,0.439978,-0.579381,0.432032,-0.589736,0.339736,-0.682032,0.329381,-0.689978,0.216342,-0.755241,0.204283,-0.760236,0.078204,-0.794018,0.065263,-0.795722,0.010328,-0.795722,0.000000,-0.800000,-0.500000,-0.800000,-0.535355,-0.785355,-0.550000,-0.750000,-0.550000,0.750000,-0.535355,0.785355,-0.500000,0.800000,0.000000,0.800000,0.010328,0.795722,0.010328,0.795722,
$1*%
%AMFreePoly2*
4,1,39,0.585355,0.785355,0.600000,0.750000,0.600000,-0.750000,0.585355,-0.785355,0.550000,-0.800000,0.000000,-0.800000,-0.010328,-0.795722,-0.065263,-0.795722,-0.078204,-0.794018,-0.204283,-0.760236,-0.216342,-0.755241,-0.329381,-0.689978,-0.339736,-0.682032,-0.432032,-0.589736,-0.439978,-0.579381,-0.505241,-0.466342,-0.510236,-0.454283,-0.544018,-0.328204,-0.545722,-0.315263,-0.545722,-0.260327,
-0.550000,-0.250000,-0.550000,0.250000,-0.545722,0.260327,-0.545722,0.315263,-0.544018,0.328204,-0.510236,0.454283,-0.505241,0.466342,-0.439978,0.579381,-0.432032,0.589736,-0.339736,0.682032,-0.329381,0.689978,-0.216342,0.755241,-0.204283,0.760236,-0.078204,0.794018,-0.065263,0.795722,-0.010328,0.795722,0.000000,0.800000,0.550000,0.800000,0.585355,0.785355,0.585355,0.785355,
$1*%
%AMFreePoly3*
4,1,39,0.010328,0.795722,0.065263,0.795722,0.078204,0.794018,0.204283,0.760236,0.216342,0.755241,0.329381,0.689978,0.339736,0.682032,0.432032,0.589736,0.439978,0.579381,0.505241,0.466342,0.510236,0.454283,0.544018,0.328204,0.545722,0.315263,0.545722,0.260327,0.550000,0.250000,0.550000,-0.250000,0.545722,-0.260327,0.545722,-0.315263,0.544018,-0.328204,0.510236,-0.454283,
0.505241,-0.466342,0.439978,-0.579381,0.432032,-0.589736,0.339736,-0.682032,0.329381,-0.689978,0.216342,-0.755241,0.204283,-0.760236,0.078204,-0.794018,0.065263,-0.795722,0.010328,-0.795722,0.000000,-0.800000,-0.550000,-0.800000,-0.585355,-0.785355,-0.600000,-0.750000,-0.600000,0.750000,-0.585355,0.785355,-0.550000,0.800000,0.000000,0.800000,0.010328,0.795722,0.010328,0.795722,
$1*%
G04 Aperture macros list end*
%ADD10C,0.150000*%
%ADD11C,0.236250*%
%ADD12C,0.200000*%
%ADD13C,3.100000*%
%ADD14C,2.100000*%
%ADD15C,1.900000*%
%ADD16C,0.475000*%
%ADD17O,1.624000X2.100000*%
%ADD18O,1.600000X2.100000*%
%ADD19C,0.900000*%
%ADD20C,5.500000*%
%ADD21C,0.101000*%
%ADD22O,2.700000X1.400000*%
%ADD23O,2.650000X1.350000*%
%ADD24O,1.450000X1.750000*%
%ADD25O,1.450000X2.025000*%
%ADD26RoundRect,0.400000X-0.400000X-0.400000X0.400000X-0.400000X0.400000X0.400000X-0.400000X0.400000X0*%
%ADD27C,1.600000*%
%ADD28RoundRect,0.825000X-0.825000X-1.225000X0.825000X-1.225000X0.825000X1.225000X-0.825000X1.225000X0*%
%ADD29C,3.200000*%
%ADD30O,3.203200X1.203200*%
%ADD31FreePoly0,0.000000*%
%ADD32FreePoly1,0.000000*%
%ADD33FreePoly0,180.000000*%
%ADD34FreePoly1,180.000000*%
%ADD35O,1.203200X3.203200*%
%ADD36RoundRect,0.025000X-0.225000X0.225000X-0.225000X-0.225000X0.225000X-0.225000X0.225000X0.225000X0*%
%ADD37C,0.800000*%
%ADD38RoundRect,0.025000X0.225000X0.225000X-0.225000X0.225000X-0.225000X-0.225000X0.225000X-0.225000X0*%
%ADD39RoundRect,0.025000X0.225000X-0.225000X0.225000X0.225000X-0.225000X0.225000X-0.225000X-0.225000X0*%
%ADD40FreePoly2,180.000000*%
%ADD41RoundRect,0.050000X0.500000X0.750000X-0.500000X0.750000X-0.500000X-0.750000X0.500000X-0.750000X0*%
%ADD42FreePoly3,180.000000*%
%ADD43RoundRect,0.025000X-0.225000X-0.225000X0.225000X-0.225000X0.225000X0.225000X-0.225000X0.225000X0*%
G04 APERTURE END LIST*
D10*
G36*
X169251151Y-121141280D02*
G01*
X169283612Y-121215385D01*
X169287748Y-121251573D01*
X169283486Y-121284124D01*
X169272429Y-121308757D01*
X169254521Y-121327427D01*
X169252983Y-121328492D01*
X169208857Y-121340491D01*
X169152920Y-121323999D01*
X169093514Y-121273426D01*
X169080425Y-121255708D01*
X169047918Y-121181522D01*
X169043782Y-121145338D01*
X169048055Y-121112795D01*
X169059123Y-121088204D01*
X169077050Y-121069562D01*
X169078593Y-121068496D01*
X169122659Y-121056443D01*
X169178483Y-121072884D01*
X169237940Y-121123441D01*
X169251151Y-121141280D01*
G37*
G36*
X169451151Y-121841280D02*
G01*
X169483612Y-121915385D01*
X169487748Y-121951573D01*
X169483486Y-121984124D01*
X169472429Y-122008757D01*
X169454521Y-122027427D01*
X169452983Y-122028492D01*
X169408857Y-122040491D01*
X169352920Y-122023999D01*
X169293514Y-121973426D01*
X169280425Y-121955708D01*
X169247918Y-121881522D01*
X169243782Y-121845338D01*
X169248055Y-121812795D01*
X169259123Y-121788204D01*
X169277050Y-121769562D01*
X169278593Y-121768496D01*
X169322659Y-121756443D01*
X169378483Y-121772884D01*
X169437940Y-121823441D01*
X169451151Y-121841280D01*
G37*
D11*
G36*
X119354695Y-113312381D02*
G01*
X119107441Y-113312381D01*
X119107441Y-113064953D01*
X118895269Y-113064953D01*
X118895269Y-113312381D01*
X118646745Y-113312381D01*
X118646745Y-113522879D01*
X118895269Y-113522879D01*
X118895269Y-113770307D01*
X119107441Y-113770307D01*
X119107441Y-113522879D01*
X119354695Y-113522879D01*
X119354695Y-113312381D01*
G37*
D12*
G36*
X119054357Y-101471006D02*
G01*
X118772481Y-101453175D01*
X118763457Y-101499004D01*
X118750994Y-101533273D01*
X118735840Y-101558367D01*
X118711460Y-101583210D01*
X118682715Y-101600920D01*
X118648735Y-101611905D01*
X118608202Y-101615781D01*
X118567859Y-101612168D01*
X118536811Y-101602325D01*
X118512993Y-101587103D01*
X118493961Y-101566226D01*
X118483199Y-101544345D01*
X118479641Y-101520687D01*
X118482995Y-101498182D01*
X118493187Y-101477070D01*
X118511262Y-101456638D01*
X118535264Y-101441134D01*
X118581365Y-101423033D01*
X118660250Y-101402455D01*
X118759764Y-101376004D01*
X118836152Y-101347580D01*
X118893496Y-101317929D01*
X118935375Y-101287512D01*
X118972077Y-101248664D01*
X118997743Y-101205751D01*
X119013283Y-101157901D01*
X119018639Y-101103788D01*
X119013971Y-101056085D01*
X118999955Y-101010148D01*
X118976055Y-100965187D01*
X118943927Y-100925791D01*
X118901855Y-100891662D01*
X118848186Y-100862707D01*
X118789962Y-100843389D01*
X118713517Y-100830348D01*
X118614607Y-100825489D01*
X118521642Y-100830569D01*
X118446262Y-100844534D01*
X118385518Y-100865853D01*
X118336886Y-100893578D01*
X118295293Y-100931058D01*
X118262339Y-100978610D01*
X118237850Y-101038082D01*
X118222635Y-101112097D01*
X118501914Y-101128427D01*
X118512876Y-101086752D01*
X118528343Y-101056472D01*
X118547730Y-101035064D01*
X118572353Y-101019800D01*
X118603727Y-101010008D01*
X118643689Y-101006444D01*
X118689858Y-101012304D01*
X118719279Y-101027447D01*
X118738342Y-101050995D01*
X118744495Y-101078399D01*
X118739631Y-101098407D01*
X118723838Y-101117463D01*
X118695757Y-101132815D01*
X118626494Y-101151738D01*
X118497679Y-101182782D01*
X118409062Y-101210576D01*
X118351254Y-101235118D01*
X118298742Y-101266960D01*
X118258944Y-101301887D01*
X118229905Y-101339963D01*
X118208892Y-101383097D01*
X118196207Y-101429553D01*
X118191880Y-101480180D01*
X118197524Y-101539378D01*
X118214288Y-101594990D01*
X118242542Y-101648036D01*
X118280384Y-101694710D01*
X118327151Y-101733390D01*
X118384028Y-101764480D01*
X118445830Y-101785506D01*
X118521192Y-101799179D01*
X118612703Y-101804121D01*
X118715651Y-101799234D01*
X118797252Y-101785961D01*
X118861191Y-101766049D01*
X118910679Y-101740721D01*
X118948358Y-101710586D01*
X118989604Y-101661143D01*
X119020903Y-101605451D01*
X119042590Y-101542519D01*
X119054357Y-101471006D01*
G37*
G36*
X118146468Y-100840261D02*
G01*
X117865111Y-100840261D01*
X117766151Y-101360332D01*
X117622011Y-100840261D01*
X117342328Y-100840261D01*
X117197495Y-101359409D01*
X117098593Y-100840261D01*
X116818505Y-100840261D01*
X117027792Y-101789350D01*
X117317342Y-101789350D01*
X117481852Y-101199170D01*
X117645727Y-101789350D01*
X117935219Y-101789350D01*
X118146468Y-100840261D01*
G37*
G36*
X115994977Y-101789350D02*
G01*
X116787750Y-101789350D01*
X116772471Y-101712034D01*
X116745049Y-101638281D01*
X116704947Y-101567253D01*
X116653464Y-101502955D01*
X116570515Y-101423163D01*
X116446556Y-101324615D01*
X116343410Y-101242023D01*
X116299242Y-101195477D01*
X116274554Y-101150932D01*
X116267217Y-101112328D01*
X116270721Y-101085500D01*
X116281042Y-101061720D01*
X116298665Y-101040142D01*
X116321142Y-101023613D01*
X116347150Y-101013615D01*
X116377717Y-101010137D01*
X116409465Y-101013791D01*
X116436105Y-101024245D01*
X116458789Y-101041469D01*
X116475721Y-101064568D01*
X116490271Y-101100629D01*
X116501315Y-101154277D01*
X116768362Y-101132581D01*
X116753739Y-101057375D01*
X116734293Y-100999481D01*
X116711064Y-100955666D01*
X116679981Y-100917399D01*
X116641244Y-100885311D01*
X116593812Y-100859130D01*
X116542145Y-100841700D01*
X116473805Y-100829898D01*
X116384814Y-100825489D01*
X116291711Y-100829689D01*
X116220914Y-100840867D01*
X116168084Y-100857225D01*
X116119528Y-100882518D01*
X116079148Y-100914922D01*
X116045986Y-100954858D01*
X116021267Y-101000451D01*
X116006468Y-101049319D01*
X116001440Y-101102460D01*
X116006980Y-101158918D01*
X116023696Y-101213909D01*
X116052333Y-101268355D01*
X116090523Y-101317284D01*
X116150160Y-101374414D01*
X116237212Y-101441231D01*
X116343326Y-101517629D01*
X116402817Y-101571465D01*
X115994977Y-101571465D01*
X115994977Y-101789350D01*
G37*
D10*
G36*
X172388311Y-120115991D02*
G01*
X172458857Y-120133828D01*
X172520342Y-120158098D01*
X172580676Y-120191370D01*
X172633958Y-120230292D01*
X172684930Y-120278097D01*
X172730504Y-120332185D01*
X172772878Y-120395413D01*
X172801814Y-120448346D01*
X172833725Y-120520576D01*
X172855692Y-120588187D01*
X172874277Y-120712899D01*
X172863482Y-120824145D01*
X172827800Y-120922140D01*
X172819399Y-120937686D01*
X172751631Y-121028110D01*
X172689218Y-121083499D01*
X172766423Y-121136307D01*
X172845354Y-121202149D01*
X172914206Y-121271042D01*
X172983670Y-121352968D01*
X173040928Y-121431057D01*
X173089959Y-121509124D01*
X173130068Y-121587663D01*
X173160599Y-121664453D01*
X173182535Y-121740915D01*
X173195594Y-121814654D01*
X173200439Y-121887362D01*
X173197226Y-121956859D01*
X173186149Y-122024713D01*
X173167631Y-122089306D01*
X173141496Y-122151698D01*
X173121284Y-122189431D01*
X173040795Y-122297305D01*
X172934499Y-122388756D01*
X172806822Y-122457991D01*
X172737239Y-122482455D01*
X172665125Y-122499441D01*
X172545725Y-122510122D01*
X172545725Y-122510000D01*
X172487229Y-122507435D01*
X172416082Y-122497218D01*
X172347985Y-122479612D01*
X172283318Y-122454880D01*
X172222202Y-122423205D01*
X172111124Y-122339359D01*
X172016545Y-122228583D01*
X171941001Y-122091156D01*
X171922173Y-122043862D01*
X171883139Y-121926033D01*
X171854678Y-121814419D01*
X171837689Y-121716196D01*
X171829854Y-121623485D01*
X171830428Y-121574439D01*
X172026851Y-121574439D01*
X172038159Y-121724388D01*
X172085010Y-121912261D01*
X172107065Y-121976085D01*
X172135808Y-122043683D01*
X172168308Y-122101675D01*
X172244199Y-122194378D01*
X172332188Y-122258971D01*
X172429437Y-122298053D01*
X172504570Y-122311308D01*
X172624447Y-122306763D01*
X172742009Y-122272091D01*
X172796748Y-122243933D01*
X172847031Y-122209239D01*
X172891198Y-122169237D01*
X172929342Y-122123774D01*
X172951290Y-122090146D01*
X172975637Y-122040719D01*
X172992490Y-121988923D01*
X173003833Y-121878735D01*
X172984418Y-121758612D01*
X172930848Y-121628051D01*
X172878750Y-121542676D01*
X172817241Y-121459910D01*
X172756677Y-121390703D01*
X172636082Y-121284681D01*
X172508178Y-121208255D01*
X172467934Y-121189501D01*
X172400034Y-121200980D01*
X172305551Y-121217256D01*
X172240548Y-121239446D01*
X172173622Y-121275463D01*
X172131309Y-121309089D01*
X172093737Y-121351476D01*
X172083862Y-121365844D01*
X172043664Y-121456912D01*
X172026851Y-121574439D01*
X171830428Y-121574439D01*
X171830809Y-121541868D01*
X171839759Y-121465172D01*
X171855589Y-121397181D01*
X171878576Y-121333682D01*
X171918387Y-121259110D01*
X171995179Y-121166293D01*
X172091512Y-121093797D01*
X172166538Y-121056388D01*
X172105411Y-121014389D01*
X172046996Y-120961864D01*
X172001668Y-120909136D01*
X171959139Y-120846204D01*
X171921898Y-120776038D01*
X171887923Y-120694300D01*
X171856594Y-120596235D01*
X171843322Y-120496524D01*
X172039128Y-120496524D01*
X172044634Y-120536797D01*
X172046371Y-120543478D01*
X172075908Y-120635498D01*
X172108448Y-120710719D01*
X172140958Y-120766720D01*
X172176307Y-120812471D01*
X172255860Y-120880193D01*
X172364165Y-120935134D01*
X172432682Y-120962520D01*
X172432885Y-120962599D01*
X172476360Y-120979574D01*
X172532220Y-120951663D01*
X172586303Y-120913387D01*
X172620449Y-120879604D01*
X172648185Y-120840478D01*
X172665237Y-120802524D01*
X172675004Y-120761639D01*
X172672470Y-120670088D01*
X172636778Y-120559853D01*
X172625593Y-120536395D01*
X172592497Y-120478560D01*
X172556644Y-120430630D01*
X172477626Y-120360174D01*
X172389694Y-120318768D01*
X172293353Y-120303213D01*
X172280844Y-120303021D01*
X172180510Y-120314639D01*
X172117812Y-120333796D01*
X172068535Y-120385418D01*
X172041691Y-120456816D01*
X172039128Y-120496524D01*
X171843322Y-120496524D01*
X171842275Y-120488662D01*
X171858120Y-120379707D01*
X171877359Y-120327484D01*
X171903707Y-120278598D01*
X171936409Y-120234458D01*
X171975419Y-120195346D01*
X172013642Y-120166489D01*
X172018649Y-120163314D01*
X172032205Y-120155987D01*
X172093715Y-120133484D01*
X172166277Y-120116247D01*
X172239975Y-120107441D01*
X172318645Y-120107434D01*
X172388311Y-120115991D01*
G37*
G36*
X170604592Y-120180525D02*
G01*
X170679186Y-120194754D01*
X170746486Y-120216486D01*
X170816362Y-120248450D01*
X170882260Y-120287923D01*
X170949448Y-120338182D01*
X171014470Y-120397245D01*
X171079920Y-120468018D01*
X171144128Y-120549620D01*
X171208050Y-120644198D01*
X171271036Y-120752047D01*
X171333055Y-120874436D01*
X171341852Y-120893234D01*
X171407840Y-121044762D01*
X171461503Y-121186526D01*
X171504221Y-121320347D01*
X171536217Y-121444678D01*
X171558824Y-121562119D01*
X171572274Y-121670209D01*
X171575425Y-121865400D01*
X171550955Y-122032004D01*
X171504111Y-122170628D01*
X171460066Y-122252445D01*
X171420424Y-122307316D01*
X171375645Y-122356148D01*
X171326046Y-122398793D01*
X171272156Y-122434896D01*
X171214350Y-122464243D01*
X171153117Y-122486557D01*
X171088929Y-122501591D01*
X171022190Y-122509121D01*
X170989776Y-122510000D01*
X170884942Y-122494676D01*
X170765288Y-122445106D01*
X170631880Y-122355228D01*
X170489666Y-122220676D01*
X170382222Y-122090146D01*
X170315354Y-121993495D01*
X170251824Y-121887327D01*
X170194540Y-121775858D01*
X170142894Y-121657050D01*
X170100443Y-121538980D01*
X170065127Y-121415787D01*
X170039536Y-121296944D01*
X170021870Y-121174798D01*
X170013272Y-121058500D01*
X170012983Y-120952230D01*
X170170334Y-120952230D01*
X170185027Y-121163356D01*
X170229790Y-121378853D01*
X170304640Y-121594211D01*
X170407553Y-121801289D01*
X170512770Y-121961552D01*
X170581135Y-122047220D01*
X170648677Y-122120349D01*
X170716445Y-122182997D01*
X170781151Y-122232961D01*
X170841941Y-122270717D01*
X170897398Y-122296362D01*
X170976953Y-122313140D01*
X171033283Y-122309267D01*
X171086657Y-122297790D01*
X171136032Y-122279228D01*
X171181792Y-122253677D01*
X171260816Y-122182640D01*
X171291294Y-122140949D01*
X171343942Y-122029902D01*
X171374673Y-121891039D01*
X171379711Y-121720339D01*
X171353661Y-121514701D01*
X171290602Y-121273056D01*
X171185270Y-120997158D01*
X171155983Y-120932191D01*
X171093987Y-120807633D01*
X171029721Y-120696550D01*
X170967998Y-120605377D01*
X170904607Y-120526169D01*
X170844570Y-120463631D01*
X170783345Y-120411568D01*
X170725591Y-120372733D01*
X170667005Y-120343088D01*
X170611202Y-120323663D01*
X170554819Y-120312522D01*
X170507519Y-120309616D01*
X170502634Y-120309616D01*
X170421896Y-120325557D01*
X170343706Y-120372043D01*
X170275941Y-120448502D01*
X170249316Y-120496330D01*
X170229102Y-120549196D01*
X170228838Y-120550073D01*
X170228838Y-120550195D01*
X170185076Y-120747603D01*
X170170334Y-120952230D01*
X170012983Y-120952230D01*
X170012950Y-120940262D01*
X170020763Y-120828056D01*
X170036995Y-120714908D01*
X170076796Y-120549340D01*
X170129589Y-120426193D01*
X170165534Y-120371299D01*
X170206861Y-120322199D01*
X170253028Y-120279339D01*
X170303419Y-120243248D01*
X170356533Y-120214823D01*
X170412612Y-120193872D01*
X170469370Y-120181117D01*
X170527892Y-120176261D01*
X170528035Y-120176259D01*
X170535118Y-120176259D01*
X170604592Y-120180525D01*
G37*
G36*
X168065090Y-122445397D02*
G01*
X167801644Y-122401128D01*
X167520833Y-122359771D01*
X167183740Y-122318025D01*
X167154187Y-122310346D01*
X167131808Y-122294171D01*
X167117306Y-122263925D01*
X167130101Y-122251126D01*
X167204400Y-122235261D01*
X167428105Y-122221412D01*
X167619003Y-122221147D01*
X167824233Y-122228705D01*
X168008767Y-122242995D01*
X168177320Y-122264902D01*
X167843406Y-121793600D01*
X167694627Y-121589001D01*
X167694330Y-121588593D01*
X167691317Y-121584456D01*
X167230635Y-120941106D01*
X167187907Y-120872244D01*
X167154655Y-120804490D01*
X167130133Y-120737489D01*
X167114196Y-120672324D01*
X167106004Y-120546480D01*
X167127631Y-120429545D01*
X167176753Y-120325600D01*
X167241137Y-120248433D01*
X167285357Y-120212481D01*
X167335317Y-120182082D01*
X167389948Y-120158147D01*
X167449185Y-120141052D01*
X167510834Y-120131638D01*
X167575898Y-120130015D01*
X167641791Y-120136483D01*
X167710019Y-120151459D01*
X167778304Y-120174780D01*
X167847998Y-120207264D01*
X167982903Y-120296182D01*
X168098918Y-120401085D01*
X168160813Y-120479910D01*
X168198304Y-120541761D01*
X168233433Y-120617145D01*
X168257083Y-120688839D01*
X168272843Y-120768429D01*
X168277890Y-120839294D01*
X168274122Y-120914748D01*
X168262066Y-120985552D01*
X168240654Y-121059495D01*
X168224214Y-121102062D01*
X168183411Y-121129249D01*
X168166773Y-121128794D01*
X168150592Y-121117878D01*
X168136384Y-121092723D01*
X168125662Y-121049549D01*
X168141634Y-120978175D01*
X168146953Y-120900109D01*
X168137478Y-120803704D01*
X168103444Y-120696393D01*
X168074168Y-120640972D01*
X168035090Y-120585612D01*
X167984992Y-120531243D01*
X167922652Y-120478795D01*
X167846851Y-120429197D01*
X167756367Y-120383377D01*
X167693466Y-120354694D01*
X167633311Y-120336494D01*
X167631559Y-120336116D01*
X167626186Y-120334284D01*
X167626430Y-120335383D01*
X167572513Y-120328535D01*
X167522180Y-120329620D01*
X167475536Y-120338114D01*
X167433632Y-120353384D01*
X167375471Y-120392414D01*
X167347365Y-120423918D01*
X167325948Y-120459387D01*
X167302927Y-120542001D01*
X167308346Y-120639827D01*
X167346650Y-120750663D01*
X167392934Y-120829609D01*
X167852541Y-121471279D01*
X167853576Y-121472700D01*
X168216048Y-121975153D01*
X168363229Y-122188227D01*
X168473831Y-122361378D01*
X168487528Y-122413115D01*
X168483195Y-122440551D01*
X168471109Y-122466095D01*
X168467602Y-122471043D01*
X168425216Y-122503161D01*
X168389078Y-122510000D01*
X168363921Y-122506702D01*
X168362792Y-122506418D01*
X168274756Y-122485931D01*
X168065090Y-122445397D01*
G37*
G36*
X165836971Y-120180525D02*
G01*
X165911565Y-120194754D01*
X165978866Y-120216486D01*
X166048742Y-120248450D01*
X166114640Y-120287923D01*
X166181827Y-120338182D01*
X166246850Y-120397245D01*
X166312299Y-120468018D01*
X166376508Y-120549620D01*
X166440430Y-120644198D01*
X166503415Y-120752047D01*
X166565435Y-120874436D01*
X166574232Y-120893234D01*
X166640219Y-121044762D01*
X166693882Y-121186526D01*
X166736600Y-121320347D01*
X166768597Y-121444678D01*
X166791204Y-121562119D01*
X166804653Y-121670209D01*
X166807805Y-121865400D01*
X166783335Y-122032004D01*
X166736491Y-122170628D01*
X166692445Y-122252445D01*
X166652803Y-122307316D01*
X166608025Y-122356148D01*
X166558426Y-122398793D01*
X166504536Y-122434896D01*
X166446730Y-122464243D01*
X166385496Y-122486557D01*
X166321309Y-122501591D01*
X166254569Y-122509121D01*
X166222156Y-122510000D01*
X166117322Y-122494676D01*
X165997668Y-122445106D01*
X165864260Y-122355228D01*
X165722045Y-122220676D01*
X165614602Y-122090146D01*
X165547733Y-121993495D01*
X165484203Y-121887327D01*
X165426920Y-121775858D01*
X165375274Y-121657050D01*
X165332823Y-121538980D01*
X165297506Y-121415787D01*
X165271916Y-121296944D01*
X165254249Y-121174798D01*
X165245652Y-121058500D01*
X165245363Y-120952230D01*
X165402714Y-120952230D01*
X165417407Y-121163356D01*
X165462169Y-121378853D01*
X165537020Y-121594211D01*
X165639932Y-121801289D01*
X165745150Y-121961552D01*
X165813514Y-122047220D01*
X165881056Y-122120349D01*
X165948824Y-122182997D01*
X166013531Y-122232961D01*
X166074321Y-122270717D01*
X166129778Y-122296362D01*
X166209333Y-122313140D01*
X166265663Y-122309267D01*
X166319036Y-122297790D01*
X166368412Y-122279228D01*
X166414171Y-122253677D01*
X166493195Y-122182640D01*
X166523674Y-122140949D01*
X166576322Y-122029902D01*
X166607053Y-121891039D01*
X166612090Y-121720339D01*
X166586041Y-121514701D01*
X166522982Y-121273056D01*
X166417649Y-120997158D01*
X166388363Y-120932191D01*
X166326367Y-120807633D01*
X166262101Y-120696550D01*
X166200377Y-120605377D01*
X166136986Y-120526169D01*
X166076950Y-120463631D01*
X166015724Y-120411568D01*
X165957970Y-120372733D01*
X165899384Y-120343088D01*
X165843581Y-120323663D01*
X165787199Y-120312522D01*
X165739898Y-120309616D01*
X165735013Y-120309616D01*
X165654275Y-120325557D01*
X165576086Y-120372043D01*
X165508321Y-120448502D01*
X165481696Y-120496330D01*
X165461482Y-120549196D01*
X165461217Y-120550073D01*
X165461217Y-120550195D01*
X165417456Y-120747603D01*
X165402714Y-120952230D01*
X165245363Y-120952230D01*
X165245330Y-120940262D01*
X165253143Y-120828056D01*
X165269375Y-120714908D01*
X165309176Y-120549340D01*
X165361968Y-120426193D01*
X165397914Y-120371299D01*
X165439241Y-120322199D01*
X165485408Y-120279339D01*
X165535799Y-120243248D01*
X165588912Y-120214823D01*
X165644991Y-120193872D01*
X165701749Y-120181117D01*
X165760271Y-120176261D01*
X165760415Y-120176259D01*
X165767498Y-120176259D01*
X165836971Y-120180525D01*
G37*
D11*
G36*
X152727929Y-64375659D02*
G01*
X152727929Y-65339520D01*
X152997572Y-65339520D01*
X152997572Y-64713622D01*
X153060059Y-64756806D01*
X153119843Y-64790481D01*
X153184909Y-64818790D01*
X153273908Y-64848992D01*
X153273908Y-64630992D01*
X153185169Y-64597569D01*
X153116591Y-64562595D01*
X153064737Y-64526551D01*
X153019142Y-64483029D01*
X152980477Y-64432954D01*
X152948467Y-64375659D01*
X152727929Y-64375659D01*
G37*
G36*
X152112888Y-64380923D02*
G01*
X152180008Y-64395944D01*
X152238837Y-64419975D01*
X152290603Y-64452836D01*
X152336187Y-64494930D01*
X152372153Y-64543064D01*
X152401714Y-64602385D01*
X152424393Y-64674947D01*
X152439161Y-64763240D01*
X152444495Y-64870111D01*
X152440735Y-64959481D01*
X152430253Y-65034863D01*
X152414073Y-65098155D01*
X152392966Y-65151064D01*
X152353318Y-65217385D01*
X152307437Y-65268238D01*
X152255058Y-65305821D01*
X152195497Y-65331422D01*
X152120419Y-65348172D01*
X152026268Y-65354291D01*
X151947887Y-65349407D01*
X151882799Y-65335804D01*
X151828810Y-65314650D01*
X151779980Y-65283992D01*
X151739099Y-65245277D01*
X151705443Y-65197745D01*
X151680828Y-65144690D01*
X151665997Y-65088084D01*
X151661588Y-65034678D01*
X151913864Y-65034678D01*
X151918272Y-65084692D01*
X151930124Y-65122058D01*
X151948196Y-65149736D01*
X151973154Y-65171205D01*
X152001175Y-65183807D01*
X152033365Y-65188108D01*
X152068422Y-65183372D01*
X152099228Y-65169435D01*
X152126958Y-65145582D01*
X152147448Y-65115065D01*
X152160452Y-65076498D01*
X152165157Y-65027638D01*
X152160586Y-64979589D01*
X152148079Y-64942501D01*
X152128574Y-64913907D01*
X152102035Y-64891738D01*
X152072204Y-64878675D01*
X152037924Y-64874208D01*
X152004606Y-64878776D01*
X151975526Y-64892198D01*
X151949524Y-64915176D01*
X151930671Y-64944553D01*
X151918396Y-64983454D01*
X151913864Y-65034678D01*
X151661588Y-65034678D01*
X151660954Y-65027003D01*
X151666763Y-64959045D01*
X151683503Y-64899196D01*
X151710770Y-64845968D01*
X151749008Y-64798271D01*
X151795859Y-64758514D01*
X151846691Y-64730644D01*
X151902407Y-64713800D01*
X151964295Y-64708025D01*
X152027231Y-64714033D01*
X152079931Y-64731048D01*
X152127682Y-64758894D01*
X152173755Y-64798444D01*
X152162357Y-64698726D01*
X152149375Y-64638482D01*
X152136306Y-64605430D01*
X152116062Y-64576466D01*
X152093392Y-64557111D01*
X152067878Y-64545731D01*
X152038501Y-64541842D01*
X152006256Y-64547452D01*
X151980048Y-64563884D01*
X151960896Y-64591495D01*
X151945773Y-64641725D01*
X151680457Y-64609123D01*
X151698983Y-64557933D01*
X151721355Y-64515040D01*
X151747334Y-64479350D01*
X151778575Y-64448358D01*
X151814842Y-64422660D01*
X151856738Y-64402087D01*
X151901550Y-64388378D01*
X151960244Y-64379111D01*
X152035962Y-64375659D01*
X152112888Y-64380923D01*
G37*
G36*
X147543085Y-64996075D02*
G01*
X147543085Y-64796656D01*
X147087467Y-64796656D01*
X147087467Y-65201380D01*
X147177121Y-65257748D01*
X147253433Y-65297079D01*
X147318276Y-65322324D01*
X147385675Y-65339432D01*
X147464172Y-65350395D01*
X147555375Y-65354291D01*
X147641208Y-65350189D01*
X147714684Y-65338656D01*
X147777464Y-65320647D01*
X147831020Y-65296820D01*
X147881125Y-65264712D01*
X147925109Y-65225844D01*
X147963448Y-65179751D01*
X147996337Y-65125675D01*
X148028354Y-65047966D01*
X148048115Y-64961603D01*
X148054963Y-64864975D01*
X148050667Y-64787558D01*
X148038254Y-64717444D01*
X148018224Y-64653712D01*
X147990798Y-64595563D01*
X147955090Y-64541841D01*
X147912244Y-64495232D01*
X147861759Y-64455184D01*
X147802803Y-64421475D01*
X147736705Y-64397520D01*
X147651591Y-64381556D01*
X147543143Y-64375659D01*
X147437388Y-64379572D01*
X147361068Y-64389736D01*
X147307775Y-64404106D01*
X147258105Y-64426841D01*
X147215101Y-64456189D01*
X147178002Y-64492391D01*
X147147339Y-64534474D01*
X147121215Y-64585223D01*
X147099931Y-64645995D01*
X147385615Y-64697177D01*
X147400508Y-64662802D01*
X147420094Y-64635544D01*
X147444472Y-64614316D01*
X147473171Y-64599167D01*
X147507760Y-64589581D01*
X147549605Y-64586157D01*
X147596120Y-64590532D01*
X147636176Y-64603059D01*
X147671046Y-64623439D01*
X147701593Y-64652169D01*
X147724393Y-64686132D01*
X147742092Y-64730557D01*
X147753855Y-64787981D01*
X147758199Y-64861455D01*
X147753697Y-64940035D01*
X147741635Y-65000086D01*
X147723723Y-65045319D01*
X147700959Y-65078820D01*
X147670245Y-65106721D01*
X147634173Y-65126822D01*
X147591673Y-65139363D01*
X147541238Y-65143793D01*
X147493282Y-65140231D01*
X147448164Y-65129714D01*
X147403121Y-65111847D01*
X147347474Y-65082109D01*
X147347474Y-64996075D01*
X147543085Y-64996075D01*
G37*
G36*
X146915456Y-64390431D02*
G01*
X146639581Y-64390431D01*
X146286039Y-64909175D01*
X146286039Y-64390431D01*
X146006701Y-64390431D01*
X146006701Y-65339520D01*
X146285173Y-65339520D01*
X146636754Y-64823718D01*
X146636754Y-65339520D01*
X146915456Y-65339520D01*
X146915456Y-64390431D01*
G37*
G36*
X145812129Y-65339520D02*
G01*
X145375841Y-65339520D01*
X145295725Y-65333459D01*
X145201061Y-65313669D01*
X145155783Y-65297333D01*
X145111787Y-65272451D01*
X145068634Y-65238136D01*
X145030911Y-65197800D01*
X144998822Y-65151166D01*
X144972271Y-65097516D01*
X144954415Y-65040329D01*
X144942192Y-64963353D01*
X144937869Y-64867860D01*
X145234990Y-64867860D01*
X145238070Y-64944142D01*
X145245913Y-64996666D01*
X145256744Y-65031273D01*
X145273898Y-65062587D01*
X145293874Y-65085541D01*
X145316754Y-65101555D01*
X145343375Y-65111514D01*
X145384775Y-65118765D01*
X145446181Y-65121635D01*
X145516001Y-65121635D01*
X145516001Y-64608315D01*
X145444911Y-64608315D01*
X145387811Y-64612456D01*
X145343541Y-64623690D01*
X145309472Y-64640769D01*
X145283575Y-64663248D01*
X145264835Y-64691436D01*
X145249593Y-64732216D01*
X145239023Y-64789475D01*
X145234990Y-64867860D01*
X144937869Y-64867860D01*
X144937592Y-64861744D01*
X144943543Y-64766505D01*
X144960961Y-64678077D01*
X144979974Y-64621921D01*
X145005054Y-64571409D01*
X145036205Y-64525916D01*
X145073685Y-64485798D01*
X145117237Y-64452412D01*
X145167536Y-64425456D01*
X145221664Y-64407070D01*
X145290091Y-64394897D01*
X145375841Y-64390431D01*
X145812129Y-64390431D01*
X145812129Y-65339520D01*
G37*
G36*
X142727919Y-64375659D02*
G01*
X142727919Y-65339520D01*
X142997562Y-65339520D01*
X142997562Y-64713622D01*
X143060049Y-64756806D01*
X143119833Y-64790481D01*
X143184899Y-64818790D01*
X143273898Y-64848992D01*
X143273898Y-64630992D01*
X143185159Y-64597569D01*
X143116581Y-64562595D01*
X143064727Y-64526551D01*
X143019132Y-64483029D01*
X142980467Y-64432954D01*
X142948457Y-64375659D01*
X142727919Y-64375659D01*
G37*
G36*
X142472874Y-64944201D02*
G01*
X142472874Y-65162258D01*
X141993887Y-65162258D01*
X141993887Y-65339520D01*
X141761000Y-65339520D01*
X141761000Y-65162258D01*
X141642248Y-65162258D01*
X141642248Y-64955453D01*
X141761000Y-64955453D01*
X141993887Y-64955453D01*
X142241084Y-64955453D01*
X141993887Y-64662728D01*
X141993887Y-64955453D01*
X141761000Y-64955453D01*
X141761000Y-64375659D01*
X141992906Y-64375659D01*
X142472874Y-64944201D01*
G37*
G36*
X118543085Y-91396075D02*
G01*
X118543085Y-91196656D01*
X118087467Y-91196656D01*
X118087467Y-91601380D01*
X118177121Y-91657748D01*
X118253433Y-91697079D01*
X118318276Y-91722324D01*
X118385675Y-91739432D01*
X118464172Y-91750395D01*
X118555375Y-91754291D01*
X118641208Y-91750189D01*
X118714684Y-91738656D01*
X118777464Y-91720647D01*
X118831020Y-91696820D01*
X118881125Y-91664712D01*
X118925109Y-91625844D01*
X118963448Y-91579751D01*
X118996337Y-91525675D01*
X119028354Y-91447966D01*
X119048115Y-91361603D01*
X119054963Y-91264975D01*
X119050667Y-91187558D01*
X119038254Y-91117444D01*
X119018224Y-91053712D01*
X118990798Y-90995563D01*
X118955090Y-90941841D01*
X118912244Y-90895232D01*
X118861759Y-90855184D01*
X118802803Y-90821475D01*
X118736705Y-90797520D01*
X118651591Y-90781556D01*
X118543143Y-90775659D01*
X118437388Y-90779572D01*
X118361068Y-90789736D01*
X118307775Y-90804106D01*
X118258105Y-90826841D01*
X118215101Y-90856189D01*
X118178002Y-90892391D01*
X118147339Y-90934474D01*
X118121215Y-90985223D01*
X118099931Y-91045995D01*
X118385615Y-91097177D01*
X118400508Y-91062802D01*
X118420094Y-91035544D01*
X118444472Y-91014316D01*
X118473171Y-90999167D01*
X118507760Y-90989581D01*
X118549605Y-90986157D01*
X118596120Y-90990532D01*
X118636176Y-91003059D01*
X118671046Y-91023439D01*
X118701593Y-91052169D01*
X118724393Y-91086132D01*
X118742092Y-91130557D01*
X118753855Y-91187981D01*
X118758199Y-91261455D01*
X118753697Y-91340035D01*
X118741635Y-91400086D01*
X118723723Y-91445319D01*
X118700959Y-91478820D01*
X118670245Y-91506721D01*
X118634173Y-91526822D01*
X118591673Y-91539363D01*
X118541238Y-91543793D01*
X118493282Y-91540231D01*
X118448164Y-91529714D01*
X118403121Y-91511847D01*
X118347474Y-91482109D01*
X118347474Y-91396075D01*
X118543085Y-91396075D01*
G37*
G36*
X117915456Y-90790431D02*
G01*
X117639581Y-90790431D01*
X117286039Y-91309175D01*
X117286039Y-90790431D01*
X117006701Y-90790431D01*
X117006701Y-91739520D01*
X117285173Y-91739520D01*
X117636754Y-91223718D01*
X117636754Y-91739520D01*
X117915456Y-91739520D01*
X117915456Y-90790431D01*
G37*
G36*
X116812129Y-91739520D02*
G01*
X116375841Y-91739520D01*
X116295725Y-91733459D01*
X116201061Y-91713669D01*
X116155783Y-91697333D01*
X116111787Y-91672451D01*
X116068634Y-91638136D01*
X116030911Y-91597800D01*
X115998822Y-91551166D01*
X115972271Y-91497516D01*
X115954415Y-91440329D01*
X115942192Y-91363353D01*
X115937869Y-91267860D01*
X116234990Y-91267860D01*
X116238070Y-91344142D01*
X116245913Y-91396666D01*
X116256744Y-91431273D01*
X116273898Y-91462587D01*
X116293874Y-91485541D01*
X116316754Y-91501555D01*
X116343375Y-91511514D01*
X116384775Y-91518765D01*
X116446181Y-91521635D01*
X116516001Y-91521635D01*
X116516001Y-91008315D01*
X116444911Y-91008315D01*
X116387811Y-91012456D01*
X116343541Y-91023690D01*
X116309472Y-91040769D01*
X116283575Y-91063248D01*
X116264835Y-91091436D01*
X116249593Y-91132216D01*
X116239023Y-91189475D01*
X116234990Y-91267860D01*
X115937869Y-91267860D01*
X115937592Y-91261744D01*
X115943543Y-91166505D01*
X115960961Y-91078077D01*
X115979974Y-91021921D01*
X116005054Y-90971409D01*
X116036205Y-90925916D01*
X116073685Y-90885798D01*
X116117237Y-90852412D01*
X116167536Y-90825456D01*
X116221664Y-90807070D01*
X116290091Y-90794897D01*
X116375841Y-90790431D01*
X116812129Y-90790431D01*
X116812129Y-91739520D01*
G37*
G36*
X140554292Y-65339520D02*
G01*
X141347065Y-65339520D01*
X141331786Y-65262204D01*
X141304364Y-65188451D01*
X141264262Y-65117423D01*
X141212779Y-65053125D01*
X141129830Y-64973333D01*
X141005871Y-64874785D01*
X140902725Y-64792193D01*
X140858557Y-64745647D01*
X140833869Y-64701102D01*
X140826532Y-64662498D01*
X140830036Y-64635670D01*
X140840357Y-64611890D01*
X140857980Y-64590312D01*
X140880457Y-64573783D01*
X140906465Y-64563785D01*
X140937032Y-64560307D01*
X140968780Y-64563961D01*
X140995420Y-64574415D01*
X141018104Y-64591639D01*
X141035036Y-64614738D01*
X141049586Y-64650799D01*
X141060630Y-64704447D01*
X141327677Y-64682751D01*
X141313054Y-64607545D01*
X141293608Y-64549651D01*
X141270379Y-64505836D01*
X141239296Y-64467569D01*
X141200559Y-64435481D01*
X141153127Y-64409300D01*
X141101460Y-64391870D01*
X141033120Y-64380068D01*
X140944129Y-64375659D01*
X140851026Y-64379859D01*
X140780229Y-64391037D01*
X140727399Y-64407395D01*
X140678843Y-64432688D01*
X140638463Y-64465092D01*
X140605301Y-64505028D01*
X140580582Y-64550621D01*
X140565783Y-64599489D01*
X140560755Y-64652630D01*
X140566295Y-64709088D01*
X140583011Y-64764079D01*
X140611648Y-64818525D01*
X140649838Y-64867454D01*
X140709475Y-64924584D01*
X140796527Y-64991401D01*
X140902641Y-65067799D01*
X140962133Y-65121635D01*
X140554292Y-65121635D01*
X140554292Y-65339520D01*
G37*
G36*
X140167248Y-64380548D02*
G01*
X140232230Y-64394156D01*
X140286034Y-64415301D01*
X140334663Y-64445929D01*
X140375556Y-64484659D01*
X140409402Y-64532263D01*
X140434158Y-64585305D01*
X140449093Y-64642095D01*
X140454179Y-64703582D01*
X140448383Y-64771204D01*
X140431669Y-64830846D01*
X140404422Y-64883980D01*
X140366182Y-64931679D01*
X140319310Y-64971405D01*
X140268363Y-64999279D01*
X140212427Y-65016140D01*
X140150202Y-65021926D01*
X140087204Y-65016001D01*
X140034567Y-64999249D01*
X139986820Y-64971511D01*
X139940685Y-64931564D01*
X139952458Y-65031197D01*
X139965622Y-65091736D01*
X139978769Y-65125213D01*
X140006255Y-65161209D01*
X140038087Y-65181341D01*
X140075940Y-65188108D01*
X140108342Y-65182505D01*
X140134854Y-65166066D01*
X140154182Y-65138428D01*
X140169360Y-65088226D01*
X140434733Y-65121520D01*
X140415836Y-65172307D01*
X140393258Y-65215007D01*
X140367221Y-65250658D01*
X140335965Y-65281643D01*
X140299787Y-65307339D01*
X140258106Y-65327921D01*
X140213483Y-65341591D01*
X140154898Y-65350842D01*
X140079171Y-65354291D01*
X140002240Y-65349029D01*
X139935124Y-65334013D01*
X139876308Y-65309993D01*
X139824562Y-65277147D01*
X139779003Y-65235078D01*
X139743014Y-65186919D01*
X139713437Y-65127577D01*
X139690747Y-65055001D01*
X139675973Y-64966703D01*
X139670638Y-64859840D01*
X139674397Y-64770825D01*
X139683955Y-64702312D01*
X139949975Y-64702312D01*
X139954517Y-64750424D01*
X139966932Y-64787529D01*
X139986270Y-64816101D01*
X140012574Y-64838179D01*
X140042501Y-64851251D01*
X140077267Y-64855743D01*
X140110535Y-64851170D01*
X140139496Y-64837746D01*
X140165320Y-64814774D01*
X140184001Y-64785436D01*
X140196152Y-64746724D01*
X140200634Y-64695907D01*
X140196250Y-64645425D01*
X140184498Y-64607896D01*
X140166648Y-64580272D01*
X140141848Y-64558815D01*
X140113728Y-64546173D01*
X140081133Y-64541842D01*
X140046536Y-64546563D01*
X140015951Y-64560497D01*
X139988232Y-64584426D01*
X139967711Y-64614912D01*
X139954688Y-64653458D01*
X139949975Y-64702312D01*
X139683955Y-64702312D01*
X139684883Y-64695661D01*
X139701079Y-64632474D01*
X139722224Y-64579579D01*
X139761829Y-64513204D01*
X139807692Y-64462230D01*
X139860075Y-64424475D01*
X139919660Y-64398684D01*
X139994738Y-64381818D01*
X140088865Y-64375659D01*
X140167248Y-64380548D01*
G37*
G36*
X119034017Y-86621176D02*
G01*
X118752141Y-86603345D01*
X118743117Y-86649174D01*
X118730654Y-86683443D01*
X118715500Y-86708537D01*
X118691120Y-86733380D01*
X118662375Y-86751090D01*
X118628395Y-86762075D01*
X118587862Y-86765951D01*
X118547519Y-86762338D01*
X118516471Y-86752495D01*
X118492653Y-86737273D01*
X118473621Y-86716396D01*
X118462859Y-86694515D01*
X118459301Y-86670857D01*
X118462655Y-86648352D01*
X118472847Y-86627240D01*
X118490922Y-86606808D01*
X118514924Y-86591304D01*
X118561025Y-86573203D01*
X118639910Y-86552625D01*
X118739424Y-86526174D01*
X118815812Y-86497750D01*
X118873156Y-86468099D01*
X118915035Y-86437682D01*
X118951737Y-86398834D01*
X118977403Y-86355921D01*
X118992943Y-86308071D01*
X118998299Y-86253958D01*
X118993631Y-86206255D01*
X118979615Y-86160318D01*
X118955715Y-86115357D01*
X118923587Y-86075961D01*
X118881515Y-86041832D01*
X118827846Y-86012877D01*
X118769622Y-85993559D01*
X118693177Y-85980518D01*
X118594267Y-85975659D01*
X118501302Y-85980739D01*
X118425922Y-85994704D01*
X118365178Y-86016023D01*
X118316546Y-86043748D01*
X118274953Y-86081228D01*
X118241999Y-86128780D01*
X118217510Y-86188252D01*
X118202295Y-86262267D01*
X118481574Y-86278597D01*
X118492536Y-86236922D01*
X118508003Y-86206642D01*
X118527390Y-86185234D01*
X118552013Y-86169970D01*
X118583387Y-86160178D01*
X118623349Y-86156614D01*
X118669518Y-86162474D01*
X118698939Y-86177617D01*
X118718002Y-86201165D01*
X118724155Y-86228569D01*
X118719291Y-86248577D01*
X118703498Y-86267633D01*
X118675417Y-86282985D01*
X118606154Y-86301908D01*
X118477339Y-86332952D01*
X118388722Y-86360746D01*
X118330914Y-86385288D01*
X118278402Y-86417130D01*
X118238604Y-86452057D01*
X118209565Y-86490133D01*
X118188552Y-86533267D01*
X118175867Y-86579723D01*
X118171540Y-86630350D01*
X118177184Y-86689548D01*
X118193948Y-86745160D01*
X118222202Y-86798206D01*
X118260044Y-86844880D01*
X118306811Y-86883560D01*
X118363688Y-86914650D01*
X118425490Y-86935676D01*
X118500852Y-86949349D01*
X118592363Y-86954291D01*
X118695311Y-86949404D01*
X118776912Y-86936131D01*
X118840851Y-86916219D01*
X118890339Y-86890891D01*
X118928018Y-86860756D01*
X118969264Y-86811313D01*
X119000563Y-86755621D01*
X119022250Y-86692689D01*
X119034017Y-86621176D01*
G37*
G36*
X118126128Y-85990431D02*
G01*
X117844771Y-85990431D01*
X117745811Y-86510502D01*
X117601671Y-85990431D01*
X117321988Y-85990431D01*
X117177155Y-86509579D01*
X117078253Y-85990431D01*
X116798165Y-85990431D01*
X117007452Y-86939520D01*
X117297002Y-86939520D01*
X117461512Y-86349340D01*
X117625387Y-86939520D01*
X117914879Y-86939520D01*
X118126128Y-85990431D01*
G37*
G36*
X116148264Y-85975659D02*
G01*
X116148264Y-86939520D01*
X116417907Y-86939520D01*
X116417907Y-86313622D01*
X116480394Y-86356806D01*
X116540178Y-86390481D01*
X116605244Y-86418790D01*
X116694243Y-86448992D01*
X116694243Y-86230992D01*
X116605503Y-86197569D01*
X116536926Y-86162595D01*
X116485072Y-86126551D01*
X116439477Y-86083029D01*
X116400812Y-86032954D01*
X116368802Y-85975659D01*
X116148264Y-85975659D01*
G37*
G36*
X118543085Y-96596075D02*
G01*
X118543085Y-96396656D01*
X118087467Y-96396656D01*
X118087467Y-96801380D01*
X118177121Y-96857748D01*
X118253433Y-96897079D01*
X118318276Y-96922324D01*
X118385675Y-96939432D01*
X118464172Y-96950395D01*
X118555375Y-96954291D01*
X118641208Y-96950189D01*
X118714684Y-96938656D01*
X118777464Y-96920647D01*
X118831020Y-96896820D01*
X118881125Y-96864712D01*
X118925109Y-96825844D01*
X118963448Y-96779751D01*
X118996337Y-96725675D01*
X119028354Y-96647966D01*
X119048115Y-96561603D01*
X119054963Y-96464975D01*
X119050667Y-96387558D01*
X119038254Y-96317444D01*
X119018224Y-96253712D01*
X118990798Y-96195563D01*
X118955090Y-96141841D01*
X118912244Y-96095232D01*
X118861759Y-96055184D01*
X118802803Y-96021475D01*
X118736705Y-95997520D01*
X118651591Y-95981556D01*
X118543143Y-95975659D01*
X118437388Y-95979572D01*
X118361068Y-95989736D01*
X118307775Y-96004106D01*
X118258105Y-96026841D01*
X118215101Y-96056189D01*
X118178002Y-96092391D01*
X118147339Y-96134474D01*
X118121215Y-96185223D01*
X118099931Y-96245995D01*
X118385615Y-96297177D01*
X118400508Y-96262802D01*
X118420094Y-96235544D01*
X118444472Y-96214316D01*
X118473171Y-96199167D01*
X118507760Y-96189581D01*
X118549605Y-96186157D01*
X118596120Y-96190532D01*
X118636176Y-96203059D01*
X118671046Y-96223439D01*
X118701593Y-96252169D01*
X118724393Y-96286132D01*
X118742092Y-96330557D01*
X118753855Y-96387981D01*
X118758199Y-96461455D01*
X118753697Y-96540035D01*
X118741635Y-96600086D01*
X118723723Y-96645319D01*
X118700959Y-96678820D01*
X118670245Y-96706721D01*
X118634173Y-96726822D01*
X118591673Y-96739363D01*
X118541238Y-96743793D01*
X118493282Y-96740231D01*
X118448164Y-96729714D01*
X118403121Y-96711847D01*
X118347474Y-96682109D01*
X118347474Y-96596075D01*
X118543085Y-96596075D01*
G37*
G36*
X117915456Y-95990431D02*
G01*
X117639581Y-95990431D01*
X117286039Y-96509175D01*
X117286039Y-95990431D01*
X117006701Y-95990431D01*
X117006701Y-96939520D01*
X117285173Y-96939520D01*
X117636754Y-96423718D01*
X117636754Y-96939520D01*
X117915456Y-96939520D01*
X117915456Y-95990431D01*
G37*
G36*
X116812129Y-96939520D02*
G01*
X116375841Y-96939520D01*
X116295725Y-96933459D01*
X116201061Y-96913669D01*
X116155783Y-96897333D01*
X116111787Y-96872451D01*
X116068634Y-96838136D01*
X116030911Y-96797800D01*
X115998822Y-96751166D01*
X115972271Y-96697516D01*
X115954415Y-96640329D01*
X115942192Y-96563353D01*
X115937869Y-96467860D01*
X116234990Y-96467860D01*
X116238070Y-96544142D01*
X116245913Y-96596666D01*
X116256744Y-96631273D01*
X116273898Y-96662587D01*
X116293874Y-96685541D01*
X116316754Y-96701555D01*
X116343375Y-96711514D01*
X116384775Y-96718765D01*
X116446181Y-96721635D01*
X116516001Y-96721635D01*
X116516001Y-96208315D01*
X116444911Y-96208315D01*
X116387811Y-96212456D01*
X116343541Y-96223690D01*
X116309472Y-96240769D01*
X116283575Y-96263248D01*
X116264835Y-96291436D01*
X116249593Y-96332216D01*
X116239023Y-96389475D01*
X116234990Y-96467860D01*
X115937869Y-96467860D01*
X115937592Y-96461744D01*
X115943543Y-96366505D01*
X115960961Y-96278077D01*
X115979974Y-96221921D01*
X116005054Y-96171409D01*
X116036205Y-96125916D01*
X116073685Y-96085798D01*
X116117237Y-96052412D01*
X116167536Y-96025456D01*
X116221664Y-96007070D01*
X116290091Y-95994897D01*
X116375841Y-95990431D01*
X116812129Y-95990431D01*
X116812129Y-96939520D01*
G37*
G36*
X150727919Y-64375659D02*
G01*
X150727919Y-65339520D01*
X150997562Y-65339520D01*
X150997562Y-64713622D01*
X151060049Y-64756806D01*
X151119833Y-64790481D01*
X151184899Y-64818790D01*
X151273898Y-64848992D01*
X151273898Y-64630992D01*
X151185159Y-64597569D01*
X151116581Y-64562595D01*
X151064727Y-64526551D01*
X151019132Y-64483029D01*
X150980467Y-64432954D01*
X150948457Y-64375659D01*
X150727919Y-64375659D01*
G37*
G36*
X150338947Y-64390431D02*
G01*
X149711318Y-64390431D01*
X149711318Y-64608315D01*
X150134450Y-64608315D01*
X150156204Y-64744262D01*
X150114646Y-64727234D01*
X150072189Y-64714718D01*
X150029009Y-64706896D01*
X149986847Y-64704332D01*
X149916430Y-64710089D01*
X149855370Y-64726549D01*
X149802010Y-64753100D01*
X149755114Y-64789962D01*
X149716181Y-64835563D01*
X149688682Y-64885976D01*
X149671925Y-64942200D01*
X149666137Y-65005654D01*
X149671162Y-65065386D01*
X149686264Y-65123667D01*
X149711895Y-65181242D01*
X149746804Y-65233224D01*
X149789802Y-65275834D01*
X149841668Y-65309918D01*
X149899420Y-65333514D01*
X149970160Y-65348778D01*
X150056609Y-65354291D01*
X150146951Y-65349518D01*
X150217541Y-65336634D01*
X150280795Y-65314029D01*
X150331734Y-65283837D01*
X150374815Y-65245943D01*
X150408017Y-65204381D01*
X150433939Y-65156129D01*
X150457237Y-65091572D01*
X150187363Y-65062375D01*
X150177277Y-65103873D01*
X150162163Y-65135525D01*
X150142528Y-65159315D01*
X150117616Y-65177411D01*
X150090135Y-65188141D01*
X150059206Y-65191801D01*
X150025031Y-65187231D01*
X149995668Y-65173906D01*
X149969883Y-65151294D01*
X149951295Y-65122152D01*
X149939067Y-65082727D01*
X149934511Y-65029889D01*
X149939191Y-64975766D01*
X149951583Y-64936654D01*
X149970171Y-64908829D01*
X149996091Y-64887802D01*
X150027179Y-64875012D01*
X150064976Y-64870515D01*
X150101742Y-64875018D01*
X150137681Y-64888749D01*
X150163464Y-64906027D01*
X150195960Y-64937565D01*
X150422788Y-64905251D01*
X150338947Y-64390431D01*
G37*
G36*
X126895728Y-62680705D02*
G01*
X126964389Y-62694848D01*
X127022180Y-62716981D01*
X127070795Y-62746558D01*
X127111511Y-62783620D01*
X127142850Y-62826621D01*
X127169313Y-62882717D01*
X127190153Y-62954794D01*
X127204038Y-63046291D01*
X127209143Y-63161109D01*
X127204160Y-63268070D01*
X127190044Y-63361279D01*
X127174466Y-63421088D01*
X127156453Y-63468006D01*
X127136554Y-63504207D01*
X127101566Y-63549905D01*
X127061247Y-63586966D01*
X127015148Y-63616150D01*
X126964359Y-63636284D01*
X126900673Y-63649477D01*
X126821268Y-63654291D01*
X126733447Y-63648531D01*
X126661973Y-63632605D01*
X126603974Y-63608004D01*
X126557111Y-63575418D01*
X126519715Y-63534674D01*
X126491257Y-63487631D01*
X126467381Y-63428839D01*
X126448787Y-63356056D01*
X126436562Y-63266697D01*
X126432511Y-63167399D01*
X126697266Y-63167399D01*
X126701374Y-63286380D01*
X126711056Y-63354758D01*
X126722939Y-63393700D01*
X126737329Y-63422094D01*
X126753756Y-63442177D01*
X126785318Y-63462806D01*
X126821903Y-63469644D01*
X126849417Y-63465737D01*
X126873218Y-63454263D01*
X126894327Y-63434543D01*
X126913072Y-63404613D01*
X126928340Y-63358953D01*
X126939924Y-63281784D01*
X126944636Y-63160301D01*
X126940349Y-63040080D01*
X126929797Y-62963444D01*
X126915900Y-62917951D01*
X126898490Y-62888421D01*
X126877664Y-62868692D01*
X126852999Y-62856986D01*
X126823230Y-62852921D01*
X126793940Y-62856863D01*
X126769084Y-62868306D01*
X126747538Y-62887684D01*
X126728886Y-62916682D01*
X126713730Y-62961734D01*
X126702061Y-63040464D01*
X126697266Y-63167399D01*
X126432511Y-63167399D01*
X126432123Y-63157878D01*
X126438840Y-63044786D01*
X126458666Y-62937512D01*
X126474919Y-62884234D01*
X126494672Y-62840284D01*
X126520644Y-62800218D01*
X126556010Y-62760712D01*
X126599406Y-62727182D01*
X126656643Y-62699259D01*
X126698418Y-62686834D01*
X126750283Y-62678645D01*
X126814171Y-62675659D01*
X126895728Y-62680705D01*
G37*
G36*
X126363457Y-62948938D02*
G01*
X126046960Y-62948938D01*
X125938826Y-63138721D01*
X125813381Y-62948938D01*
X125518983Y-62948938D01*
X125754005Y-63278072D01*
X125502249Y-63639520D01*
X125813496Y-63639520D01*
X125939056Y-63420020D01*
X126087063Y-63639520D01*
X126376267Y-63639520D01*
X126125839Y-63278072D01*
X126363457Y-62948938D01*
G37*
G36*
X125338952Y-62690431D02*
G01*
X124711323Y-62690431D01*
X124711323Y-62908315D01*
X125134454Y-62908315D01*
X125156208Y-63044262D01*
X125114651Y-63027234D01*
X125072194Y-63014718D01*
X125029014Y-63006896D01*
X124986852Y-63004332D01*
X124916435Y-63010089D01*
X124855374Y-63026549D01*
X124802015Y-63053100D01*
X124755119Y-63089962D01*
X124716186Y-63135563D01*
X124688686Y-63185976D01*
X124671930Y-63242200D01*
X124666142Y-63305654D01*
X124671167Y-63365386D01*
X124686269Y-63423667D01*
X124711900Y-63481242D01*
X124746809Y-63533224D01*
X124789807Y-63575834D01*
X124841673Y-63609918D01*
X124899425Y-63633514D01*
X124970165Y-63648778D01*
X125056614Y-63654291D01*
X125146956Y-63649518D01*
X125217546Y-63636634D01*
X125280799Y-63614029D01*
X125331739Y-63583837D01*
X125374820Y-63545943D01*
X125408021Y-63504381D01*
X125433944Y-63456129D01*
X125457242Y-63391572D01*
X125187368Y-63362375D01*
X125177282Y-63403873D01*
X125162168Y-63435525D01*
X125142533Y-63459315D01*
X125117621Y-63477411D01*
X125090140Y-63488141D01*
X125059211Y-63491801D01*
X125025035Y-63487231D01*
X124995673Y-63473906D01*
X124969887Y-63451294D01*
X124951300Y-63422152D01*
X124939072Y-63382727D01*
X124934516Y-63329889D01*
X124939196Y-63275766D01*
X124951588Y-63236654D01*
X124970176Y-63208829D01*
X124996095Y-63187802D01*
X125027183Y-63175012D01*
X125064981Y-63170515D01*
X125101747Y-63175018D01*
X125137686Y-63188749D01*
X125163469Y-63206027D01*
X125195965Y-63237565D01*
X125422793Y-63205251D01*
X125338952Y-62690431D01*
G37*
G36*
X124250652Y-62680705D02*
G01*
X124319312Y-62694848D01*
X124377103Y-62716981D01*
X124425718Y-62746558D01*
X124466434Y-62783620D01*
X124497773Y-62826621D01*
X124524236Y-62882717D01*
X124545076Y-62954794D01*
X124558961Y-63046291D01*
X124564067Y-63161109D01*
X124559083Y-63268070D01*
X124544967Y-63361279D01*
X124529389Y-63421088D01*
X124511376Y-63468006D01*
X124491477Y-63504207D01*
X124456489Y-63549905D01*
X124416170Y-63586966D01*
X124370071Y-63616150D01*
X124319282Y-63636284D01*
X124255596Y-63649477D01*
X124176191Y-63654291D01*
X124088370Y-63648531D01*
X124016897Y-63632605D01*
X123958898Y-63608004D01*
X123912034Y-63575418D01*
X123874639Y-63534674D01*
X123846180Y-63487631D01*
X123822304Y-63428839D01*
X123803710Y-63356056D01*
X123791485Y-63266697D01*
X123787434Y-63167399D01*
X124052189Y-63167399D01*
X124056297Y-63286380D01*
X124065980Y-63354758D01*
X124077863Y-63393700D01*
X124092253Y-63422094D01*
X124108679Y-63442177D01*
X124140241Y-63462806D01*
X124176826Y-63469644D01*
X124204340Y-63465737D01*
X124228141Y-63454263D01*
X124249251Y-63434543D01*
X124267996Y-63404613D01*
X124283263Y-63358953D01*
X124294847Y-63281784D01*
X124299559Y-63160301D01*
X124295272Y-63040080D01*
X124284720Y-62963444D01*
X124270823Y-62917951D01*
X124253414Y-62888421D01*
X124232587Y-62868692D01*
X124207922Y-62856986D01*
X124178153Y-62852921D01*
X124148863Y-62856863D01*
X124124007Y-62868306D01*
X124102461Y-62887684D01*
X124083810Y-62916682D01*
X124068654Y-62961734D01*
X124056985Y-63040464D01*
X124052189Y-63167399D01*
X123787434Y-63167399D01*
X123787046Y-63157878D01*
X123793763Y-63044786D01*
X123813589Y-62937512D01*
X123829842Y-62884234D01*
X123849596Y-62840284D01*
X123875568Y-62800218D01*
X123910933Y-62760712D01*
X123954329Y-62727182D01*
X124011566Y-62699259D01*
X124053341Y-62686834D01*
X124105206Y-62678645D01*
X124169094Y-62675659D01*
X124250652Y-62680705D01*
G37*
%TO.C,JP2*%
G36*
X129875000Y-111674990D02*
G01*
X130175000Y-111674990D01*
X130175000Y-110174990D01*
X129875000Y-110174990D01*
X129875000Y-111674990D01*
G37*
%TO.C,JP1*%
G36*
X130875000Y-112925000D02*
G01*
X130575000Y-112925000D01*
X130575000Y-114425000D01*
X130875000Y-114425000D01*
X130875000Y-112925000D01*
G37*
%TO.C,JP10*%
G36*
X120050000Y-102350000D02*
G01*
X119750000Y-102350000D01*
X119750000Y-103850000D01*
X120050000Y-103850000D01*
X120050000Y-102350000D01*
G37*
%TO.C,JP7*%
G36*
X141800255Y-112249785D02*
G01*
X142200245Y-112249785D01*
X142200245Y-112549785D01*
X141800255Y-112549785D01*
X141800255Y-112249785D01*
G37*
%TO.C,JP4*%
G36*
X141250215Y-114400255D02*
G01*
X140950215Y-114400255D01*
X140950215Y-114800245D01*
X141250215Y-114800245D01*
X141250215Y-114400255D01*
G37*
%TO.C,JP6*%
G36*
X141250215Y-113400255D02*
G01*
X140950215Y-113400255D01*
X140950215Y-113800245D01*
X141250215Y-113800245D01*
X141250215Y-113400255D01*
G37*
%TO.C,JP9*%
G36*
X145199745Y-112550215D02*
G01*
X144799755Y-112550215D01*
X144799755Y-112250215D01*
X145199745Y-112250215D01*
X145199745Y-112550215D01*
G37*
%TO.C,JP8*%
G36*
X143199745Y-112550215D02*
G01*
X142799755Y-112550215D01*
X142799755Y-112250215D01*
X143199745Y-112250215D01*
X143199745Y-112550215D01*
G37*
%TO.C,JP3*%
G36*
X147450000Y-116450000D02*
G01*
X145950000Y-116450000D01*
X145950000Y-117950000D01*
X147450000Y-117950000D01*
X147450000Y-116450000D01*
G37*
%TO.C,JP5*%
G36*
X143800255Y-112249785D02*
G01*
X144200245Y-112249785D01*
X144200245Y-112549785D01*
X143800255Y-112549785D01*
X143800255Y-112249785D01*
G37*
%TO.C,JP11*%
G36*
X165549790Y-103399990D02*
G01*
X165849790Y-103399990D01*
X165849790Y-102999990D01*
X165549790Y-102999990D01*
X165549790Y-103399990D01*
G37*
%TD*%
D13*
%TO.C,J4*%
X171500000Y-93450000D03*
D14*
X167700000Y-98530000D03*
X167700000Y-88370000D03*
X177860000Y-98530000D03*
X177860000Y-88370000D03*
%TD*%
D15*
%TO.C,TP32*%
X171500000Y-101250000D03*
%TD*%
D16*
%TO.C,S2*%
X157500000Y-62475000D03*
%TD*%
D13*
%TO.C,J3*%
X171500000Y-112500000D03*
D14*
X167700000Y-117580000D03*
X167700000Y-107420000D03*
X177860000Y-117580000D03*
X177860000Y-107420000D03*
%TD*%
D17*
%TO.C,J7*%
X163690000Y-61500000D03*
D18*
X166229999Y-61500000D03*
X168770001Y-61500000D03*
X171310000Y-61500000D03*
%TD*%
D19*
%TO.C,MH3*%
X114475000Y-122000000D03*
X115068109Y-120568109D03*
X115068109Y-123431891D03*
X116500000Y-119975000D03*
D20*
X116500000Y-122000000D03*
D19*
X116500000Y-124025000D03*
X117931891Y-120568109D03*
X117931891Y-123431891D03*
X118525000Y-122000000D03*
%TD*%
D21*
%TO.C,MH1*%
X146500000Y-94000000D03*
%TD*%
D22*
%TO.C,J1*%
X115275000Y-106680000D03*
X115275000Y-115319990D03*
D23*
X120325000Y-106675000D03*
D24*
X119725000Y-107025000D03*
D25*
X119725000Y-114975000D03*
D23*
X120325000Y-115325000D03*
%TD*%
D19*
%TO.C,MH4*%
X114475000Y-61999990D03*
X115068109Y-60568099D03*
X115068109Y-63431881D03*
X116500000Y-59974990D03*
D20*
X116500000Y-61999990D03*
D19*
X116500000Y-64024990D03*
X117931891Y-60568099D03*
X117931891Y-63431881D03*
X118525000Y-61999990D03*
%TD*%
%TO.C,MH2*%
X174475000Y-61999990D03*
X175068109Y-60568099D03*
X175068109Y-63431881D03*
X176500000Y-59974990D03*
D20*
X176500000Y-61999990D03*
D19*
X176500000Y-64024990D03*
X177931891Y-60568099D03*
X177931891Y-63431881D03*
X178525000Y-61999990D03*
%TD*%
D17*
%TO.C,J2*%
X121690000Y-61500000D03*
D18*
X124229999Y-61500000D03*
X126770001Y-61500000D03*
X129310000Y-61500000D03*
%TD*%
D16*
%TO.C,S1*%
X135500000Y-62475000D03*
%TD*%
D15*
%TO.C,TP31*%
X171500000Y-104500000D03*
%TD*%
D26*
%TO.C,S3*%
X119000000Y-67000000D03*
D27*
X124000000Y-67000000D03*
X119000000Y-81500000D03*
X124000000Y-81500000D03*
X121500000Y-81500000D03*
D28*
X115500000Y-74000000D03*
X127500000Y-74000000D03*
%TD*%
D29*
%TO.C,J5*%
X175000000Y-67500000D03*
X175000000Y-72500000D03*
%TD*%
D19*
%TO.C,MH5*%
X174475000Y-122000000D03*
X175068109Y-120568109D03*
X175068109Y-123431891D03*
X176500000Y-119975000D03*
D20*
X176500000Y-122000000D03*
D19*
X176500000Y-124025000D03*
X177931891Y-120568109D03*
X177931891Y-123431891D03*
X178525000Y-122000000D03*
%TD*%
D29*
%TO.C,J6*%
X175000000Y-77500000D03*
X175000000Y-82500000D03*
%TD*%
D30*
%TO.C,TP2*%
X116800000Y-108399990D03*
%TD*%
D31*
%TO.C,JP2*%
X129375000Y-110924990D03*
D32*
X130675000Y-110924990D03*
%TD*%
D33*
%TO.C,JP1*%
X131375000Y-113675000D03*
D34*
X130075000Y-113675000D03*
%TD*%
D35*
%TO.C,TP50*%
X140499920Y-61999990D03*
%TD*%
D33*
%TO.C,JP10*%
X120550000Y-103100000D03*
D34*
X119250000Y-103100000D03*
%TD*%
D30*
%TO.C,TP1*%
X116800000Y-113400080D03*
%TD*%
D36*
%TO.C,JP7*%
X142000000Y-112100000D03*
X142000000Y-112700000D03*
%TD*%
D30*
%TO.C,TP53*%
X117500000Y-98000000D03*
%TD*%
D37*
%TO.C,TP4*%
X122200000Y-110400080D03*
%TD*%
D38*
%TO.C,JP4*%
X141400000Y-114600000D03*
X140800000Y-114600000D03*
%TD*%
%TO.C,JP6*%
X141400000Y-113600000D03*
X140800000Y-113600000D03*
%TD*%
D39*
%TO.C,JP9*%
X145000000Y-112700000D03*
X145000000Y-112100000D03*
%TD*%
%TO.C,JP8*%
X143000000Y-112700000D03*
X143000000Y-112100000D03*
%TD*%
D30*
%TO.C,TP52*%
X117500000Y-100000080D03*
%TD*%
D40*
%TO.C,JP3*%
X148000000Y-117200000D03*
D41*
X146700000Y-117200000D03*
D42*
X145400000Y-117200000D03*
%TD*%
D36*
%TO.C,JP5*%
X144000000Y-112100000D03*
X144000000Y-112700000D03*
%TD*%
D35*
%TO.C,TP46*%
X146500000Y-61999990D03*
%TD*%
D30*
%TO.C,TP51*%
X117500000Y-88000000D03*
%TD*%
D35*
%TO.C,TP48*%
X150500000Y-61999990D03*
%TD*%
D37*
%TO.C,TP6*%
X124100000Y-112600080D03*
%TD*%
D35*
%TO.C,TP49*%
X152499920Y-61999990D03*
%TD*%
D30*
%TO.C,TP54*%
X117500000Y-89999990D03*
%TD*%
D35*
%TO.C,TP47*%
X142500000Y-61999990D03*
%TD*%
D43*
%TO.C,JP11*%
X165400000Y-103200000D03*
X166000000Y-103200000D03*
X166600000Y-103200000D03*
%TD*%
G36*
X176500856Y-59000012D02*
G01*
X176662256Y-59002274D01*
X176674402Y-59003042D01*
X176995992Y-59039277D01*
X177009700Y-59041606D01*
X177324366Y-59113426D01*
X177337729Y-59117275D01*
X177642386Y-59223879D01*
X177655233Y-59229201D01*
X177946025Y-59369239D01*
X177958195Y-59375965D01*
X178231486Y-59547685D01*
X178242827Y-59555732D01*
X178495173Y-59756971D01*
X178505541Y-59766237D01*
X178733762Y-59994458D01*
X178743028Y-60004826D01*
X178944267Y-60257172D01*
X178952314Y-60268513D01*
X179124034Y-60541804D01*
X179130760Y-60553974D01*
X179270798Y-60844766D01*
X179276120Y-60857613D01*
X179382724Y-61162270D01*
X179386573Y-61175633D01*
X179458393Y-61490299D01*
X179460722Y-61504007D01*
X179496957Y-61825597D01*
X179497725Y-61837743D01*
X179499988Y-61999144D01*
X179500000Y-62000882D01*
X179500000Y-121999117D01*
X179499988Y-122000855D01*
X179497725Y-122162256D01*
X179496957Y-122174402D01*
X179460722Y-122495992D01*
X179458393Y-122509700D01*
X179386573Y-122824366D01*
X179382724Y-122837729D01*
X179276120Y-123142386D01*
X179270798Y-123155233D01*
X179130760Y-123446025D01*
X179124034Y-123458195D01*
X178952314Y-123731486D01*
X178944267Y-123742827D01*
X178743028Y-123995173D01*
X178733762Y-124005541D01*
X178505541Y-124233762D01*
X178495173Y-124243028D01*
X178242827Y-124444267D01*
X178231486Y-124452314D01*
X177958195Y-124624034D01*
X177946025Y-124630760D01*
X177655233Y-124770798D01*
X177642386Y-124776120D01*
X177337729Y-124882724D01*
X177324366Y-124886573D01*
X177009700Y-124958393D01*
X176995992Y-124960722D01*
X176674402Y-124996957D01*
X176662256Y-124997725D01*
X176500856Y-124999988D01*
X176499118Y-125000000D01*
X116500882Y-125000000D01*
X116499144Y-124999988D01*
X116337743Y-124997725D01*
X116325597Y-124996957D01*
X116004007Y-124960722D01*
X115990299Y-124958393D01*
X115675633Y-124886573D01*
X115662270Y-124882724D01*
X115357613Y-124776120D01*
X115344766Y-124770798D01*
X115053974Y-124630760D01*
X115041804Y-124624034D01*
X114768513Y-124452314D01*
X114757172Y-124444267D01*
X114504826Y-124243028D01*
X114494458Y-124233762D01*
X114266237Y-124005541D01*
X114256971Y-123995173D01*
X114055732Y-123742827D01*
X114047685Y-123731486D01*
X113875965Y-123458195D01*
X113869239Y-123446025D01*
X113729201Y-123155233D01*
X113723879Y-123142386D01*
X113617275Y-122837729D01*
X113613611Y-122825008D01*
X114499999Y-122825008D01*
X114500500Y-122873536D01*
X114500502Y-122873580D01*
X114508522Y-122970362D01*
X114508523Y-122970368D01*
X114524514Y-123066198D01*
X114548371Y-123160405D01*
X114579908Y-123252272D01*
X114618938Y-123341249D01*
X114618940Y-123341252D01*
X114665175Y-123426687D01*
X114718315Y-123508026D01*
X114777992Y-123584698D01*
X114843793Y-123656177D01*
X114915272Y-123721978D01*
X114991944Y-123781655D01*
X115073283Y-123834795D01*
X115158718Y-123881030D01*
X115158721Y-123881032D01*
X115247698Y-123920062D01*
X115339565Y-123951599D01*
X115433773Y-123975456D01*
X115433771Y-123975456D01*
X115529602Y-123991447D01*
X115529608Y-123991448D01*
X115626390Y-123999468D01*
X115626434Y-123999470D01*
X115674963Y-123999972D01*
X176417306Y-123999972D01*
X176418331Y-124000273D01*
X176562875Y-123999744D01*
X176562927Y-123999742D01*
X176688489Y-123992327D01*
X176688518Y-123992324D01*
X176813383Y-123976994D01*
X176937055Y-123953808D01*
X177059003Y-123922865D01*
X177178757Y-123884285D01*
X177295844Y-123838221D01*
X177409775Y-123784864D01*
X177520136Y-123724409D01*
X177626441Y-123657120D01*
X177728298Y-123583246D01*
X177825273Y-123503103D01*
X177825278Y-123503099D01*
X177917011Y-123416985D01*
X178003126Y-123325251D01*
X178003130Y-123325246D01*
X178083271Y-123228274D01*
X178157146Y-123126415D01*
X178224436Y-123020110D01*
X178284891Y-122909749D01*
X178338248Y-122795818D01*
X178384312Y-122678731D01*
X178422892Y-122558977D01*
X178453834Y-122437032D01*
X178477020Y-122313356D01*
X178492353Y-122188473D01*
X178492355Y-122188450D01*
X178499769Y-122062901D01*
X178499771Y-122062849D01*
X178500000Y-122000018D01*
X178499999Y-62630150D01*
X178499510Y-62628198D01*
X178499501Y-62626824D01*
X178491586Y-62480832D01*
X178491582Y-62480786D01*
X178475776Y-62335440D01*
X178452112Y-62191087D01*
X178420672Y-62048250D01*
X178420667Y-62048232D01*
X178381551Y-61907348D01*
X178381543Y-61907321D01*
X178334849Y-61768735D01*
X178334844Y-61768722D01*
X178280714Y-61632865D01*
X178219308Y-61500135D01*
X178150799Y-61370911D01*
X178075397Y-61245588D01*
X178075393Y-61245583D01*
X177993315Y-61124526D01*
X177904811Y-61008099D01*
X177810132Y-60896633D01*
X177810116Y-60896615D01*
X177709565Y-60790464D01*
X177709539Y-60790438D01*
X177603375Y-60689871D01*
X177603356Y-60689854D01*
X177491895Y-60595179D01*
X177375460Y-60506666D01*
X177375459Y-60506665D01*
X177254417Y-60424595D01*
X177129093Y-60349190D01*
X176999860Y-60280675D01*
X176999851Y-60280670D01*
X176867148Y-60219274D01*
X176867138Y-60219270D01*
X176731264Y-60165132D01*
X176731250Y-60165127D01*
X176592661Y-60118431D01*
X176592646Y-60118426D01*
X176451739Y-60079304D01*
X176308910Y-60047864D01*
X176308872Y-60047857D01*
X176164588Y-60024203D01*
X176019193Y-60008388D01*
X176019173Y-60008386D01*
X175873145Y-60000469D01*
X175800043Y-59999982D01*
X116623509Y-60000001D01*
X116620417Y-59999093D01*
X116500424Y-59999997D01*
X116499491Y-60000001D01*
X116399047Y-60000001D01*
X116383757Y-60003835D01*
X116311722Y-60008368D01*
X116187058Y-60024117D01*
X116187022Y-60024123D01*
X116063580Y-60047672D01*
X115941866Y-60078924D01*
X115822346Y-60117760D01*
X115705495Y-60164025D01*
X115705478Y-60164033D01*
X115591800Y-60217527D01*
X115481657Y-60278080D01*
X115375559Y-60345411D01*
X115375558Y-60345412D01*
X115273888Y-60419280D01*
X115177051Y-60499390D01*
X115085431Y-60585428D01*
X114999409Y-60677033D01*
X114919321Y-60773845D01*
X114919293Y-60773880D01*
X114845432Y-60875542D01*
X114778096Y-60981647D01*
X114717555Y-61091771D01*
X114664046Y-61205485D01*
X114617787Y-61322318D01*
X114617778Y-61322344D01*
X114578950Y-61441842D01*
X114578943Y-61441867D01*
X114547699Y-61563555D01*
X114547696Y-61563569D01*
X114524145Y-61687026D01*
X114508394Y-61811699D01*
X114508392Y-61811716D01*
X114500503Y-61937118D01*
X114500502Y-61937147D01*
X114500008Y-61999939D01*
X114499999Y-122825008D01*
X113613611Y-122825008D01*
X113613426Y-122824366D01*
X113541606Y-122509700D01*
X113539277Y-122495992D01*
X113503042Y-122174402D01*
X113502274Y-122162256D01*
X113500012Y-122000855D01*
X113500000Y-121999117D01*
X113500000Y-62000872D01*
X113500012Y-61999134D01*
X113502274Y-61837734D01*
X113503042Y-61825588D01*
X113539278Y-61503999D01*
X113541607Y-61490290D01*
X113613430Y-61175616D01*
X113617280Y-61162254D01*
X113723879Y-60857614D01*
X113729200Y-60844767D01*
X113869242Y-60553968D01*
X113875968Y-60541798D01*
X114047688Y-60268508D01*
X114055735Y-60257167D01*
X114256975Y-60004822D01*
X114266241Y-59994454D01*
X114494465Y-59766231D01*
X114504833Y-59756965D01*
X114757171Y-59555733D01*
X114768512Y-59547686D01*
X115041807Y-59375964D01*
X115053977Y-59369238D01*
X115344776Y-59229196D01*
X115357623Y-59223874D01*
X115662266Y-59117275D01*
X115675629Y-59113426D01*
X115990297Y-59041606D01*
X116004005Y-59039277D01*
X116325597Y-59003042D01*
X116337743Y-59002274D01*
X116499144Y-59000012D01*
X116500882Y-59000000D01*
X176499118Y-59000000D01*
X176500856Y-59000012D01*
G37*
M02*
