M48
; DRILL file {KiCad 9.0.7+1} date 2026-03-15T04:37:35+0000
; FORMAT={-:-/ absolute / metric / decimal}
; #@! TF.CreationDate,2026-03-15T04:37:35+00:00
; #@! TF.GenerationSoftware,Kicad,Pcbnew,9.0.7+1
; #@! TF.FileFunction,Plated,1,6,PTH
FMAT,2
METRIC
; #@! TA.AperFunction,Plated,PTH,ViaDrill
T1C0.300
; #@! TA.AperFunction,Plated,PTH,ComponentDrill
T2C0.500
; #@! TA.AperFunction,Plated,PTH,ComponentDrill
T3C0.650
; #@! TA.AperFunction,Plated,PTH,ComponentDrill
T4C0.750
; #@! TA.AperFunction,Plated,PTH,ComponentDrill
T5C1.000
; #@! TA.AperFunction,Plated,PTH,ComponentDrill
T6C1.020
; #@! TA.AperFunction,Plated,PTH,ComponentDrill
T7C1.100
; #@! TA.AperFunction,Plated,PTH,ComponentDrill
T8C1.200
; #@! TA.AperFunction,Plated,PTH,ComponentDrill
T9C1.400
; #@! TA.AperFunction,Plated,PTH,ComponentDrill
T10C1.800
; #@! TA.AperFunction,Plated,PTH,ComponentDrill
T11C2.200
; #@! TA.AperFunction,Plated,PTH,ComponentDrill
T12C2.700
%
G90
G05
T1
X114.5Y-116.75
X114.5Y-118.5
X115.0Y-105.0
X115.0Y-110.0
X115.0Y-112.0
X116.0Y-91.3
X116.1Y-94.0
X116.1Y-96.8
X116.5Y-105.0
X116.6Y-109.6
X116.6Y-110.9
X116.7Y-112.9
X116.8Y-108.4
X117.1Y-103.1
X117.3Y-110.0
X117.3Y-111.9
X117.3Y-114.7
X117.5Y-106.0
X117.9Y-110.9
X117.9Y-112.9
X118.0Y-108.4
X118.1Y-109.6
X118.5Y-116.5
X118.5Y-117.5
X118.5Y-118.5
X118.5Y-119.5
X118.598Y-110.375
X118.6Y-111.5
X118.8Y-105.9
X119.5Y-88.4
X119.5Y-99.6
X119.5Y-119.5
X120.1Y-117.9
X120.179Y-112.199
X120.2Y-108.2
X120.215Y-109.757
X120.217Y-113.76
X120.5Y-123.0
X120.75Y-121.0
X120.9Y-107.8
X121.3Y-116.5
X121.5Y-83.8
X121.5Y-85.1
X121.5Y-91.2
X121.5Y-96.5
X121.5Y-119.1
X121.7Y-107.8
X121.7Y-114.4
X121.8Y-112.375
X122.0Y-123.0
X122.2Y-108.6
X122.2Y-110.4
X122.5Y-106.5
X122.6Y-107.4
X122.7Y-117.0
X122.7Y-118.1
X122.7Y-119.2
X123.068Y-110.31
X123.1Y-64.0
X123.3Y-116.0
X123.5Y-123.0
X123.7Y-107.4
X123.7Y-111.8
X123.9Y-117.0
X123.9Y-118.1
X123.9Y-119.2
X124.1Y-112.6
X124.7Y-106.4
X124.7Y-108.6
X124.8Y-113.8
X125.0Y-123.0
X125.2Y-117.0
X125.2Y-118.1
X125.2Y-119.2
X125.4Y-65.3
X125.5Y-64.0
X125.8Y-64.7
X125.8Y-103.0
X126.0Y-107.3
X126.0Y-108.5
X126.1Y-115.1
X126.3Y-99.6
X126.3Y-113.5
X126.3Y-120.7
X126.3Y-122.0
X126.3Y-123.4
X126.5Y-88.4
X126.7Y-111.0
X126.7Y-111.8
X127.3Y-102.1
X127.3Y-108.5
X127.3Y-121.2
X127.3Y-122.7
X127.4Y-114.1
X127.5Y-86.0
X127.5Y-91.5
X127.5Y-96.5
X127.9Y-64.0
X128.1Y-109.0
X128.3Y-120.7
X128.3Y-122.0
X128.3Y-123.4
X128.5Y-109.8
X129.0Y-113.0
X129.1Y-100.5
X129.1Y-102.3
X129.2Y-106.2
X129.7Y-115.6
X130.3Y-124.3
X130.5Y-75.4
X130.5Y-116.9
X130.5Y-118.1
X131.2Y-101.1
X131.2Y-115.2
X131.4Y-98.6
X131.9Y-96.5
X131.9Y-97.2
X131.9Y-97.9
X131.9Y-124.3
X132.3Y-109.2
X132.3Y-110.4
X132.3Y-114.7
X132.5Y-102.5
X132.5Y-120.0
X132.8Y-91.0
X132.9Y-98.1
X132.9Y-113.7
X133.5Y-72.3
X133.5Y-85.6
X133.5Y-89.1
X133.5Y-120.0
X133.5Y-124.3
X133.5Y-76.0
X133.6Y-100.3
X134.1Y-108.6
X134.4Y-117.3
X134.5Y-120.0
X134.9Y-84.7
X135.2Y-90.9
X135.2Y-124.3
X135.5Y-79.6
X135.8Y-120.0
X135.9Y-112.8
X136.3Y-116.3
X136.4Y-118.85
X136.8Y-120.0
X136.8Y-124.3
X137.1Y-107.0
X137.1Y-111.0
X137.1Y-119.1
X137.2Y-82.1
X137.2Y-115.4
X137.2Y-116.2
X137.2Y-117.2
X137.4Y-89.3
X137.8Y-119.1
X137.8Y-120.0
X138.1Y-116.2
X138.4Y-79.7
X138.4Y-80.7
X138.4Y-82.3
X138.4Y-124.3
X138.6Y-109.2
X138.6Y-112.4
X138.7Y-83.7
X138.8Y-84.7
X139.1Y-119.0
X139.2Y-78.1
X139.4Y-73.6
X139.6Y-109.9
X139.6Y-110.8
X139.8Y-76.2
X139.925Y-115.8
X139.925Y-116.7
X140.0Y-114.1
X140.0Y-119.9
X140.0Y-124.3
X140.1Y-118.2
X140.2Y-117.5
X140.4Y-69.0
X140.5Y-61.0
X140.5Y-64.0
X140.5Y-90.6
X140.6Y-112.1
X140.7Y-115.25
X141.0Y-83.8
X141.0Y-85.0
X141.2Y-118.9
X141.3Y-82.2
X141.4Y-80.3
X141.4Y-111.5
X141.7Y-78.5
X142.0Y-74.5
X142.0Y-109.2
X142.0Y-113.6
X142.05Y-115.15
X142.2Y-102.4
X142.2Y-104.5
X142.3Y-120.3
X142.4Y-119.0
X142.5Y-61.0
X142.5Y-64.0
X142.5Y-91.1
X142.6Y-111.5
X142.7Y-71.2
X142.7Y-72.6
X142.9Y-78.5
X142.9Y-79.5
X143.0Y-109.1
X143.1Y-115.1
X143.2Y-75.8
X143.4Y-121.3
X143.5Y-89.8
X143.5Y-122.7
X143.8Y-97.5
X143.8Y-120.1
X143.9Y-100.0
X144.1Y-78.5
X144.1Y-79.5
X144.1Y-117.5
X144.2Y-86.1
X144.306Y-85.408
X144.5Y-119.1
X144.5Y-121.9
X144.6Y-123.4
X144.657Y-82.843
X144.7Y-120.8
X144.8Y-80.6
X144.8Y-99.3
X144.9Y-74.4
X144.9Y-87.3
X145.0Y-72.7
X145.3Y-78.5
X145.3Y-79.5
X145.4Y-86.2
X145.4Y-119.8
X145.5Y-122.7
X145.7Y-121.3
X145.8Y-60.0
X145.8Y-109.8
X146.2Y-100.3
X146.2Y-105.4
X146.3Y-66.5
X146.3Y-82.8
X146.4Y-83.7
X146.4Y-107.7
X146.472Y-87.05
X146.6Y-111.2
X146.7Y-101.8
X146.8Y-123.1
X146.9Y-121.8
X147.0Y-97.5
X147.0Y-115.3
X147.0Y-116.0
X147.2Y-105.6
X147.2Y-106.7
X147.3Y-77.4
X147.3Y-79.65
X147.3Y-107.6
X147.5Y-89.7
X147.5Y-91.3
X147.6Y-74.5
X147.6Y-83.9
X147.9Y-87.5
X148.1Y-123.1
X148.2Y-82.4
X148.2Y-121.8
X148.5Y-97.0
X148.5Y-114.5
X148.6Y-60.0
X148.6Y-63.1
X148.6Y-83.0
X148.6Y-85.8
X148.8Y-83.7
X148.8Y-86.6
X148.9Y-107.9
X149.0Y-84.4
X149.0Y-121.8
X149.1Y-100.2
X149.4Y-123.1
X149.5Y-94.5
X149.7Y-97.0
X149.8Y-121.8
X149.9Y-73.3
X150.0Y-71.2
X150.0Y-111.5
X150.15Y-101.3
X150.5Y-61.0
X150.5Y-64.0
X150.7Y-123.1
X151.0Y-111.0
X151.0Y-114.6
X151.046Y-86.746
X151.4Y-71.2
X151.745Y-87.464
X151.9Y-82.1
X152.0Y-83.4
X152.0Y-112.4
X152.0Y-115.5
X152.1Y-116.5
X152.2Y-86.9
X152.5Y-94.5
X152.5Y-61.0
X152.5Y-64.0
X152.5Y-69.0
X153.0Y-88.6
X153.1Y-83.4
X153.5Y-109.5
X153.6Y-76.9
X153.6Y-123.5
X154.1Y-82.1
X154.9Y-91.1
X155.2Y-78.4
X155.2Y-80.3
X155.4Y-106.6
X155.5Y-89.8
X155.5Y-118.2
X156.5Y-83.5
X156.5Y-84.9
X156.5Y-115.9
X156.7Y-89.8
X156.7Y-91.0
X156.8Y-88.7
X157.0Y-113.0
X157.0Y-113.9
X157.5Y-64.5
X157.5Y-98.3
X157.5Y-122.6
X157.5Y-123.5
X157.7Y-109.3
X158.0Y-77.5
X158.2Y-82.1
X158.6Y-84.6
X158.6Y-86.4
X159.0Y-119.0
X159.0Y-124.2
X159.6Y-115.3
X159.7Y-87.7
X159.7Y-91.7
X159.7Y-95.2
X159.7Y-96.2
X159.8Y-93.2
X160.0Y-118.1
X160.4Y-109.3
X160.5Y-92.5
X160.5Y-95.7
X160.7Y-85.5
X161.0Y-119.0
X161.0Y-124.2
X161.2Y-87.7
X161.2Y-91.7
X161.2Y-96.2
X161.3Y-93.2
X161.3Y-95.3
X161.7Y-108.2
X161.8Y-118.1
X161.9Y-103.7
X162.0Y-77.5
X162.2Y-124.2
X162.4Y-106.4
X162.4Y-107.5
X162.5Y-89.0
X162.5Y-90.2
X162.5Y-119.0
X162.7Y-109.2
X162.9Y-100.6
X163.3Y-118.1
X163.5Y-68.0
X163.5Y-81.7
X163.5Y-108.5
X164.0Y-119.0
X164.2Y-66.1
X164.3Y-124.2
X164.4Y-94.7
X164.4Y-95.8
X164.4Y-96.9
X164.5Y-100.8
X164.5Y-108.5
X164.7Y-104.6
X165.3Y-99.5
X165.6Y-106.3
X165.6Y-107.5
X165.7Y-73.2
X165.7Y-94.7
X165.7Y-95.8
X165.7Y-96.9
X166.0Y-67.0
X166.0Y-68.0
X166.0Y-102.3
X166.0Y-109.0
X166.0Y-117.5
X166.0Y-119.0
X166.3Y-100.7
X166.5Y-116.0
X167.0Y-74.5
X167.0Y-76.0
X167.2Y-82.9
X167.5Y-63.9
X167.5Y-65.3
X167.5Y-90.0
X167.5Y-93.5
X167.5Y-97.0
X167.5Y-110.5
X167.5Y-112.5
X167.5Y-114.5
X167.5Y-119.0
X167.7Y-64.6
X168.0Y-116.0
X168.5Y-76.5
X168.5Y-77.5
X168.5Y-78.5
X168.5Y-79.5
X168.5Y-80.5
X168.5Y-81.5
X168.5Y-82.5
X168.5Y-106.0
X168.5Y-109.0
X168.7Y-71.3
X169.5Y-88.5
X169.5Y-90.0
X169.5Y-92.0
X169.5Y-93.5
X169.5Y-95.0
X169.5Y-97.0
X169.5Y-98.5
X169.5Y-100.0
X169.5Y-107.5
X169.5Y-110.5
X169.5Y-112.5
X169.5Y-114.5
X169.5Y-116.0
X169.5Y-117.5
X169.5Y-119.0
X169.8Y-74.5
X171.5Y-91.5
X171.5Y-95.5
X171.5Y-110.5
X171.5Y-114.5
X173.5Y-90.0
X173.5Y-92.0
X173.5Y-93.5
X173.5Y-95.0
X173.5Y-98.5
X173.5Y-110.5
X173.5Y-112.5
X173.5Y-114.5
X176.0Y-88.5
X176.0Y-90.0
X176.0Y-93.5
X176.0Y-97.0
X176.0Y-98.5
X176.0Y-100.0
X176.0Y-107.5
X176.0Y-109.5
X176.0Y-116.0
X176.0Y-117.5
X176.0Y-118.5
X177.0Y-116.0
X177.8Y-103.0
X178.0Y-90.0
X178.0Y-93.5
X178.0Y-97.0
X178.0Y-100.0
X178.0Y-105.5
X178.0Y-109.5
X178.0Y-116.0
T2
X114.475Y-62.0
X114.475Y-122.0
X115.068Y-60.568
X115.068Y-63.432
X115.068Y-120.568
X115.068Y-123.432
X116.5Y-59.975
X116.5Y-64.025
X116.5Y-119.975
X116.5Y-124.025
X117.932Y-60.568
X117.932Y-63.432
X117.932Y-120.568
X117.932Y-123.432
X118.525Y-62.0
X118.525Y-122.0
X174.475Y-62.0
X174.475Y-122.0
X175.068Y-60.568
X175.068Y-63.432
X175.068Y-120.568
X175.068Y-123.432
X176.5Y-59.975
X176.5Y-64.025
X176.5Y-119.975
X176.5Y-124.025
X177.932Y-60.568
X177.932Y-63.432
X177.932Y-120.568
X177.932Y-123.432
X178.525Y-62.0
X178.525Y-122.0
T5
X119.0Y-67.0
X119.0Y-81.5
X121.5Y-81.5
X124.0Y-67.0
X124.0Y-81.5
T6
X171.5Y-101.25
X171.5Y-104.5
T7
X121.69Y-61.5
X124.23Y-61.5
X126.77Y-61.5
X129.31Y-61.5
X163.69Y-61.5
X166.23Y-61.5
X168.77Y-61.5
X171.31Y-61.5
T8
X167.7Y-88.37
X167.7Y-98.53
X167.7Y-107.42
X167.7Y-117.58
X177.86Y-88.37
X177.86Y-98.53
X177.86Y-107.42
X177.86Y-117.58
T9
X175.0Y-67.5
X175.0Y-72.5
X175.0Y-77.5
X175.0Y-82.5
T11
X171.5Y-93.45
X171.5Y-112.5
T12
X116.5Y-62.0
X116.5Y-122.0
X176.5Y-62.0
X176.5Y-122.0
T3
G00X119.675Y-106.675
M15
G01X120.975Y-106.675
M16
G05
G00X119.675Y-115.325
M15
G01X120.975Y-115.325
M16
G05
T4
G00X114.625Y-106.68
M15
G01X115.925Y-106.68
M16
G05
G00X114.625Y-115.32
M15
G01X115.925Y-115.32
M16
G05
G00X119.725Y-107.312
M15
G01X119.725Y-106.737
M16
G05
G00X119.725Y-115.262
M15
G01X119.725Y-114.688
M16
G05
T10
G00X115.5Y-73.55
M15
G01X115.5Y-74.45
M16
G05
G00X127.5Y-73.55
M15
G01X127.5Y-74.45
M16
G05
M30
