%TF.GenerationSoftware,KiCad,Pcbnew,9.0.7+1*%
%TF.CreationDate,Date%
%TF.ProjectId,PD240W_kicad,50443234-3057-45f6-9b69-6361642e6b69,1.0.0*%
%TF.SameCoordinates,Original*%
%TF.FileFunction,Paste,Top*%
%TF.FilePolarity,Positive*%
%FSLAX46Y46*%
G04 Gerber Fmt 4.6, Leading zero omitted, Abs format (unit mm)*
G04 Created by KiCad*
%MOMM*%
%LPD*%
G01*
G04 APERTURE LIST*
G04 Aperture macros list*
%AMRoundRect*
0 Rectangle with rounded corners*
0 $1 Rounding radius*
0 $2 $3 $4 $5 $6 $7 $8 $9 X,Y pos of 4 corners*
0 Add a 4 corners polygon primitive as box body*
4,1,4,$2,$3,$4,$5,$6,$7,$8,$9,$2,$3,0*
0 Add four circle primitives for the rounded corners*
1,1,$1+$1,$2,$3*
1,1,$1+$1,$4,$5*
1,1,$1+$1,$6,$7*
1,1,$1+$1,$8,$9*
0 Add four rect primitives between the rounded corners*
20,1,$1+$1,$2,$3,$4,$5,0*
20,1,$1+$1,$4,$5,$6,$7,0*
20,1,$1+$1,$6,$7,$8,$9,0*
20,1,$1+$1,$8,$9,$2,$3,0*%
G04 Aperture macros list end*
%ADD10C,0.000000*%
%ADD11RoundRect,0.065000X0.260000X0.260000X-0.260000X0.260000X-0.260000X-0.260000X0.260000X-0.260000X0*%
%ADD12RoundRect,0.065000X-0.260000X-0.260000X0.260000X-0.260000X0.260000X0.260000X-0.260000X0.260000X0*%
%ADD13RoundRect,0.065000X0.260000X-0.260000X0.260000X0.260000X-0.260000X0.260000X-0.260000X-0.260000X0*%
%ADD14RoundRect,0.037500X0.112500X0.562500X-0.112500X0.562500X-0.112500X-0.562500X0.112500X-0.562500X0*%
%ADD15RoundRect,0.220000X0.880000X1.430000X-0.880000X1.430000X-0.880000X-1.430000X0.880000X-1.430000X0*%
%ADD16RoundRect,0.155000X-1.195000X-0.620000X1.195000X-0.620000X1.195000X0.620000X-1.195000X0.620000X0*%
%ADD17RoundRect,0.055000X0.220000X0.220000X-0.220000X0.220000X-0.220000X-0.220000X0.220000X-0.220000X0*%
%ADD18RoundRect,0.085000X0.340000X-0.365000X0.340000X0.365000X-0.340000X0.365000X-0.340000X-0.365000X0*%
%ADD19RoundRect,0.020000X0.280000X-0.080000X0.280000X0.080000X-0.280000X0.080000X-0.280000X-0.080000X0*%
%ADD20RoundRect,0.020000X-0.080000X-0.280000X0.080000X-0.280000X0.080000X0.280000X-0.080000X0.280000X0*%
%ADD21RoundRect,0.060000X-0.240000X0.250000X-0.240000X-0.250000X0.240000X-0.250000X0.240000X0.250000X0*%
%ADD22RoundRect,0.110000X1.740000X-0.440000X1.740000X0.440000X-1.740000X0.440000X-1.740000X-0.440000X0*%
%ADD23RoundRect,0.140000X-0.910000X0.560000X-0.910000X-0.560000X0.910000X-0.560000X0.910000X0.560000X0*%
%ADD24RoundRect,0.080000X0.320000X0.370000X-0.320000X0.370000X-0.320000X-0.370000X0.320000X-0.370000X0*%
%ADD25RoundRect,0.055000X-0.220000X0.220000X-0.220000X-0.220000X0.220000X-0.220000X0.220000X0.220000X0*%
%ADD26RoundRect,0.155000X0.620000X-1.195000X0.620000X1.195000X-0.620000X1.195000X-0.620000X-1.195000X0*%
%ADD27RoundRect,0.085000X0.365000X0.340000X-0.365000X0.340000X-0.365000X-0.340000X0.365000X-0.340000X0*%
%ADD28RoundRect,0.120000X-0.480000X0.580000X-0.480000X-0.580000X0.480000X-0.580000X0.480000X0.580000X0*%
%ADD29RoundRect,0.085000X-0.340000X0.365000X-0.340000X-0.365000X0.340000X-0.365000X0.340000X0.365000X0*%
%ADD30RoundRect,0.100000X0.400000X0.850000X-0.400000X0.850000X-0.400000X-0.850000X0.400000X-0.850000X0*%
%ADD31RoundRect,0.125000X0.650000X0.375000X-0.650000X0.375000X-0.650000X-0.375000X0.650000X-0.375000X0*%
%ADD32RoundRect,0.140000X0.560000X-0.610000X0.560000X0.610000X-0.560000X0.610000X-0.560000X-0.610000X0*%
%ADD33RoundRect,0.060000X0.250000X0.240000X-0.250000X0.240000X-0.250000X-0.240000X0.250000X-0.240000X0*%
%ADD34RoundRect,0.065000X-0.260000X0.260000X-0.260000X-0.260000X0.260000X-0.260000X0.260000X0.260000X0*%
%ADD35RoundRect,0.140000X-0.560000X-0.910000X0.560000X-0.910000X0.560000X0.910000X-0.560000X0.910000X0*%
%ADD36RoundRect,0.165000X0.660000X-0.800000X0.660000X0.800000X-0.660000X0.800000X-0.660000X-0.800000X0*%
%ADD37RoundRect,0.100000X-0.400000X0.400000X-0.400000X-0.400000X0.400000X-0.400000X0.400000X0.400000X0*%
%ADD38RoundRect,0.025000X0.075000X-0.412500X0.075000X0.412500X-0.075000X0.412500X-0.075000X-0.412500X0*%
%ADD39RoundRect,0.025000X0.412500X-0.075000X0.412500X0.075000X-0.412500X0.075000X-0.412500X-0.075000X0*%
%ADD40RoundRect,0.085000X-0.515000X0.340000X-0.515000X-0.340000X0.515000X-0.340000X0.515000X0.340000X0*%
%ADD41RoundRect,0.020000X0.080000X0.255000X-0.080000X0.255000X-0.080000X-0.255000X0.080000X-0.255000X0*%
%ADD42RoundRect,0.020000X0.255000X-0.080000X0.255000X0.080000X-0.255000X0.080000X-0.255000X-0.080000X0*%
%ADD43RoundRect,0.055000X-0.220000X-0.220000X0.220000X-0.220000X0.220000X0.220000X-0.220000X0.220000X0*%
%ADD44RoundRect,0.075000X-0.650000X0.075000X-0.650000X-0.075000X0.650000X-0.075000X0.650000X0.075000X0*%
%ADD45RoundRect,0.030000X-0.120000X0.420000X-0.120000X-0.420000X0.120000X-0.420000X0.120000X0.420000X0*%
%ADD46RoundRect,0.070000X-0.330000X-0.280000X0.330000X-0.280000X0.330000X0.280000X-0.330000X0.280000X0*%
%ADD47RoundRect,0.063000X-0.352000X0.252000X-0.352000X-0.252000X0.352000X-0.252000X0.352000X0.252000X0*%
%ADD48RoundRect,0.085000X-0.365000X-0.340000X0.365000X-0.340000X0.365000X0.340000X-0.365000X0.340000X0*%
%ADD49RoundRect,0.055000X0.220000X-0.220000X0.220000X0.220000X-0.220000X0.220000X-0.220000X-0.220000X0*%
%ADD50RoundRect,0.080000X-0.370000X0.320000X-0.370000X-0.320000X0.370000X-0.320000X0.370000X0.320000X0*%
%ADD51RoundRect,0.045000X-0.480000X0.180000X-0.480000X-0.180000X0.480000X-0.180000X0.480000X0.180000X0*%
%ADD52RoundRect,0.080000X0.320000X0.320000X-0.320000X0.320000X-0.320000X-0.320000X0.320000X-0.320000X0*%
%ADD53RoundRect,0.033750X-0.416250X0.101250X-0.416250X-0.101250X0.416250X-0.101250X0.416250X0.101250X0*%
%ADD54RoundRect,0.033750X-0.366250X0.101250X-0.366250X-0.101250X0.366250X-0.101250X0.366250X0.101250X0*%
%ADD55RoundRect,0.110000X0.440000X1.740000X-0.440000X1.740000X-0.440000X-1.740000X0.440000X-1.740000X0*%
%ADD56RoundRect,0.060000X-0.250000X-0.240000X0.250000X-0.240000X0.250000X0.240000X-0.250000X0.240000X0*%
%ADD57RoundRect,0.055000X0.220000X0.445000X-0.220000X0.445000X-0.220000X-0.445000X0.220000X-0.445000X0*%
%ADD58RoundRect,0.080000X-0.320000X-0.320000X0.320000X-0.320000X0.320000X0.320000X-0.320000X0.320000X0*%
%ADD59RoundRect,0.060000X0.240000X-0.250000X0.240000X0.250000X-0.240000X0.250000X-0.240000X-0.250000X0*%
%ADD60RoundRect,0.040000X-0.160000X-0.385000X0.160000X-0.385000X0.160000X0.385000X-0.160000X0.385000X0*%
%ADD61RoundRect,0.120000X0.480000X-0.580000X0.480000X0.580000X-0.480000X0.580000X-0.480000X-0.580000X0*%
%ADD62RoundRect,0.076250X-0.228750X-0.558750X0.228750X-0.558750X0.228750X0.558750X-0.228750X0.558750X0*%
%ADD63RoundRect,0.050000X-0.200000X0.210000X-0.200000X-0.210000X0.200000X-0.210000X0.200000X0.210000X0*%
%ADD64RoundRect,0.085000X0.340000X0.515000X-0.340000X0.515000X-0.340000X-0.515000X0.340000X-0.515000X0*%
%ADD65RoundRect,0.045000X0.355000X-0.180000X0.355000X0.180000X-0.355000X0.180000X-0.355000X-0.180000X0*%
%ADD66RoundRect,0.120000X0.580000X0.480000X-0.580000X0.480000X-0.580000X-0.480000X0.580000X-0.480000X0*%
%ADD67RoundRect,0.325000X0.325000X1.375000X-0.325000X1.375000X-0.325000X-1.375000X0.325000X-1.375000X0*%
%ADD68RoundRect,0.050000X-0.200000X-0.450000X0.200000X-0.450000X0.200000X0.450000X-0.200000X0.450000X0*%
%ADD69RoundRect,0.110000X0.440000X0.590000X-0.440000X0.590000X-0.440000X-0.590000X0.440000X-0.590000X0*%
%ADD70RoundRect,0.100000X0.850000X-0.400000X0.850000X0.400000X-0.850000X0.400000X-0.850000X-0.400000X0*%
%ADD71RoundRect,0.137500X-0.712500X-0.412500X0.712500X-0.412500X0.712500X0.412500X-0.712500X0.412500X0*%
%ADD72RoundRect,0.055000X0.220000X0.345000X-0.220000X0.345000X-0.220000X-0.345000X0.220000X-0.345000X0*%
%ADD73RoundRect,0.080000X0.370000X-0.320000X0.370000X0.320000X-0.370000X0.320000X-0.370000X-0.320000X0*%
%ADD74RoundRect,0.080000X0.320000X-0.320000X0.320000X0.320000X-0.320000X0.320000X-0.320000X-0.320000X0*%
%ADD75O,0.450000X1.400000*%
%ADD76RoundRect,0.137500X0.712500X0.412500X-0.712500X0.412500X-0.712500X-0.412500X0.712500X-0.412500X0*%
%ADD77RoundRect,0.092000X0.368000X-0.398000X0.368000X0.398000X-0.368000X0.398000X-0.368000X-0.398000X0*%
%ADD78RoundRect,0.155000X-0.620000X1.195000X-0.620000X-1.195000X0.620000X-1.195000X0.620000X1.195000X0*%
%ADD79RoundRect,0.050000X0.200000X-0.210000X0.200000X0.210000X-0.200000X0.210000X-0.200000X-0.210000X0*%
%ADD80RoundRect,0.100000X0.400000X0.400000X-0.400000X0.400000X-0.400000X-0.400000X0.400000X-0.400000X0*%
%ADD81RoundRect,0.055000X0.445000X-0.220000X0.445000X0.220000X-0.445000X0.220000X-0.445000X-0.220000X0*%
%ADD82RoundRect,0.085000X0.340000X0.340000X-0.340000X0.340000X-0.340000X-0.340000X0.340000X-0.340000X0*%
G04 APERTURE END LIST*
D10*
%TO.C,U1*%
G36*
X126050001Y-110399990D02*
G01*
X126050001Y-110399990D01*
G75*
G02*
X126149980Y-110500009I-1J-100010D01*
G01*
X126150000Y-110500000D01*
X126150000Y-111049996D01*
G75*
G02*
X126049995Y-111150000I-100000J-4D01*
G01*
X126050000Y-111149990D01*
X125500003Y-111149990D01*
G75*
G02*
X125400010Y-111049996I-3J99990D01*
G01*
X125400000Y-111049990D01*
X125400000Y-110499990D01*
G75*
G02*
X125500000Y-110399990I100000J-10D01*
G01*
X126050001Y-110399990D01*
G37*
G36*
X127000001Y-110399990D02*
G01*
X127000001Y-110399990D01*
G75*
G02*
X127099980Y-110500009I-1J-100010D01*
G01*
X127100000Y-110500000D01*
X127100000Y-111049996D01*
G75*
G02*
X126999995Y-111150000I-100000J-4D01*
G01*
X127000000Y-111149990D01*
X126450003Y-111149990D01*
G75*
G02*
X126350010Y-111049996I-3J99990D01*
G01*
X126350000Y-111049990D01*
X126350000Y-110499990D01*
G75*
G02*
X126450000Y-110399990I100000J-10D01*
G01*
X127000001Y-110399990D01*
G37*
G36*
X126050001Y-111349990D02*
G01*
X126050001Y-111349990D01*
G75*
G02*
X126149980Y-111450009I-1J-100010D01*
G01*
X126150000Y-111450000D01*
X126150000Y-111999996D01*
G75*
G02*
X126049995Y-112100000I-100000J-4D01*
G01*
X126050000Y-112099990D01*
X125500003Y-112099990D01*
G75*
G02*
X125400010Y-111999996I-3J99990D01*
G01*
X125400000Y-111999990D01*
X125400000Y-111449990D01*
G75*
G02*
X125500000Y-111349990I100000J-10D01*
G01*
X125500000Y-111350000D01*
X126050001Y-111349990D01*
G37*
G36*
X127000001Y-111349990D02*
G01*
X127000001Y-111349990D01*
G75*
G02*
X127099980Y-111450009I-1J-100010D01*
G01*
X127100000Y-111450000D01*
X127100000Y-111999996D01*
G75*
G02*
X126999995Y-112100000I-100000J-4D01*
G01*
X127000000Y-112099990D01*
X126450003Y-112099990D01*
G75*
G02*
X126350010Y-111999996I-3J99990D01*
G01*
X126350000Y-111999990D01*
X126350000Y-111449990D01*
G75*
G02*
X126450000Y-111349990I100000J-10D01*
G01*
X126450000Y-111350000D01*
X127000001Y-111349990D01*
G37*
%TO.C,U9*%
G36*
X147350000Y-84000000D02*
G01*
X147350000Y-84000000D01*
G75*
G02*
X147500000Y-84150000I0J-150000D01*
G01*
X147500000Y-85850000D01*
G75*
G02*
X147350000Y-86000000I-150000J0D01*
G01*
X145650000Y-86000000D01*
G75*
G02*
X145500000Y-85850000I0J150000D01*
G01*
X145500000Y-84150000D01*
G75*
G02*
X145650000Y-84000000I150000J0D01*
G01*
X147350000Y-84000000D01*
G37*
%TO.C,U3*%
G36*
X136974997Y-114949990D02*
G01*
X136974997Y-114949990D01*
G75*
G02*
X137075000Y-115049994I3J-100010D01*
G01*
X137075000Y-115050000D01*
X137075000Y-116099999D01*
G75*
G02*
X136975001Y-116200000I-100000J-1D01*
G01*
X136975000Y-116200000D01*
X135925000Y-116200000D01*
G75*
G02*
X135825020Y-116100021I0J100000D01*
G01*
X135825020Y-116100020D01*
X135825018Y-115051879D01*
G75*
G02*
X135925015Y-114950020I99982J1879D01*
G01*
X135925010Y-114950020D01*
X136974997Y-114949990D01*
G37*
G36*
X136974997Y-116449990D02*
G01*
X136974997Y-116449990D01*
G75*
G02*
X137075000Y-116549994I3J-100010D01*
G01*
X137075000Y-116550000D01*
X137075000Y-117599999D01*
G75*
G02*
X136975001Y-117700000I-100000J-1D01*
G01*
X136975000Y-117700000D01*
X135925000Y-117700000D01*
G75*
G02*
X135825020Y-117600021I0J100000D01*
G01*
X135825020Y-117600020D01*
X135825018Y-116551879D01*
G75*
G02*
X135925015Y-116450020I99982J1879D01*
G01*
X135925010Y-116450020D01*
X136974997Y-116449990D01*
G37*
G36*
X138474997Y-114949990D02*
G01*
X138474997Y-114949990D01*
G75*
G02*
X138575000Y-115049994I3J-100010D01*
G01*
X138575000Y-116099989D01*
G75*
G02*
X138475001Y-116199990I-100000J-11D01*
G01*
X138475000Y-116199990D01*
X137425000Y-116199990D01*
G75*
G02*
X137325020Y-116100011I0J99990D01*
G01*
X137325020Y-116100010D01*
X137325018Y-115051879D01*
G75*
G02*
X137425015Y-114950020I99982J1879D01*
G01*
X137425010Y-114950020D01*
X138474997Y-114949990D01*
G37*
G36*
X138475007Y-116449990D02*
G01*
X138475007Y-116449990D01*
G75*
G02*
X138575010Y-116549994I-7J-100010D01*
G01*
X138575000Y-116550000D01*
X138575000Y-117599999D01*
G75*
G02*
X138475001Y-117700000I-100000J-1D01*
G01*
X138475000Y-117700000D01*
X137425000Y-117700000D01*
G75*
G02*
X137325020Y-117600021I0J100000D01*
G01*
X137325020Y-117600020D01*
X137325018Y-116551879D01*
G75*
G02*
X137425015Y-116450020I99982J1879D01*
G01*
X137425020Y-116450020D01*
X138475007Y-116449990D01*
G37*
%TO.C,U10*%
G36*
X132734930Y-85324970D02*
G01*
X131804930Y-85324970D01*
X131804930Y-86574970D01*
X132734930Y-86574970D01*
X132734930Y-85324970D01*
G37*
G36*
X132734930Y-86774970D02*
G01*
X131804930Y-86774970D01*
X131804930Y-88024970D01*
X132734930Y-88024970D01*
X132734930Y-86774970D01*
G37*
G36*
X132734930Y-88224970D02*
G01*
X131804930Y-88224970D01*
X131804930Y-89474970D01*
X132734930Y-89474970D01*
X132734930Y-88224970D01*
G37*
G36*
X133864930Y-85324970D02*
G01*
X132934930Y-85324970D01*
X132934930Y-86574970D01*
X133864930Y-86574970D01*
X133864930Y-85324970D01*
G37*
G36*
X133864930Y-86774970D02*
G01*
X132934930Y-86774970D01*
X132934930Y-88024970D01*
X133864930Y-88024970D01*
X133864930Y-86774970D01*
G37*
G36*
X133864930Y-88224970D02*
G01*
X132934930Y-88224970D01*
X132934930Y-89474970D01*
X133864930Y-89474970D01*
X133864930Y-88224970D01*
G37*
G36*
X134994930Y-85324970D02*
G01*
X134064930Y-85324970D01*
X134064930Y-86574970D01*
X134994930Y-86574970D01*
X134994930Y-85324970D01*
G37*
G36*
X134994930Y-86774970D02*
G01*
X134064930Y-86774970D01*
X134064930Y-88024970D01*
X134994930Y-88024970D01*
X134994930Y-86774970D01*
G37*
G36*
X134994930Y-88224970D02*
G01*
X134064930Y-88224970D01*
X134064930Y-89474970D01*
X134994930Y-89474970D01*
X134994930Y-88224970D01*
G37*
%TO.C,Q1*%
G36*
X126808000Y-116076000D02*
G01*
X126810000Y-116076000D01*
X126813000Y-116077000D01*
X126815000Y-116077000D01*
X126818000Y-116078000D01*
X126820000Y-116079000D01*
X126823000Y-116080000D01*
X126825000Y-116082000D01*
X126827000Y-116083000D01*
X126829000Y-116085000D01*
X126831000Y-116086000D01*
X126833000Y-116088000D01*
X126835000Y-116090000D01*
X126837000Y-116092000D01*
X126839000Y-116094000D01*
X126840000Y-116096000D01*
X126842000Y-116098000D01*
X126843000Y-116100000D01*
X126845000Y-116102000D01*
X126846000Y-116105000D01*
X126847000Y-116107000D01*
X126848000Y-116110000D01*
X126848000Y-116112000D01*
X126849000Y-116115000D01*
X126849000Y-116117000D01*
X126850000Y-116120000D01*
X126850000Y-116122000D01*
X126850000Y-116125000D01*
X126850000Y-116325000D01*
X126850000Y-116328000D01*
X126850000Y-116330000D01*
X126849000Y-116333000D01*
X126849000Y-116335000D01*
X126848000Y-116338000D01*
X126848000Y-116340000D01*
X126847000Y-116343000D01*
X126846000Y-116345000D01*
X126845000Y-116348000D01*
X126843000Y-116350000D01*
X126842000Y-116352000D01*
X126840000Y-116354000D01*
X126839000Y-116356000D01*
X126837000Y-116358000D01*
X126835000Y-116360000D01*
X126833000Y-116362000D01*
X126831000Y-116364000D01*
X126829000Y-116365000D01*
X126827000Y-116367000D01*
X126825000Y-116368000D01*
X126823000Y-116370000D01*
X126820000Y-116371000D01*
X126818000Y-116372000D01*
X126815000Y-116373000D01*
X126813000Y-116373000D01*
X126810000Y-116374000D01*
X126808000Y-116374000D01*
X126805000Y-116375000D01*
X126295000Y-116375000D01*
X126292000Y-116374000D01*
X126290000Y-116374000D01*
X126287000Y-116373000D01*
X126285000Y-116373000D01*
X126282000Y-116372000D01*
X126280000Y-116371000D01*
X126277000Y-116370000D01*
X126275000Y-116368000D01*
X126273000Y-116367000D01*
X126271000Y-116365000D01*
X126269000Y-116364000D01*
X126267000Y-116362000D01*
X126265000Y-116360000D01*
X126263000Y-116358000D01*
X126261000Y-116356000D01*
X126260000Y-116354000D01*
X126258000Y-116352000D01*
X126257000Y-116350000D01*
X126255000Y-116348000D01*
X126254000Y-116345000D01*
X126253000Y-116343000D01*
X126252000Y-116340000D01*
X126252000Y-116338000D01*
X126251000Y-116335000D01*
X126251000Y-116333000D01*
X126250000Y-116330000D01*
X126250000Y-116328000D01*
X126250000Y-116325000D01*
X126250000Y-116125000D01*
X126250000Y-116122000D01*
X126250000Y-116120000D01*
X126251000Y-116117000D01*
X126251000Y-116115000D01*
X126252000Y-116112000D01*
X126252000Y-116110000D01*
X126253000Y-116107000D01*
X126254000Y-116105000D01*
X126255000Y-116102000D01*
X126257000Y-116100000D01*
X126258000Y-116098000D01*
X126260000Y-116096000D01*
X126261000Y-116094000D01*
X126263000Y-116092000D01*
X126265000Y-116090000D01*
X126267000Y-116088000D01*
X126269000Y-116086000D01*
X126271000Y-116085000D01*
X126273000Y-116083000D01*
X126275000Y-116082000D01*
X126277000Y-116080000D01*
X126280000Y-116079000D01*
X126282000Y-116078000D01*
X126285000Y-116077000D01*
X126287000Y-116077000D01*
X126290000Y-116076000D01*
X126292000Y-116076000D01*
X126295000Y-116075000D01*
X126805000Y-116075000D01*
X126808000Y-116076000D01*
G37*
G36*
X126808000Y-116726000D02*
G01*
X126810000Y-116726000D01*
X126813000Y-116727000D01*
X126815000Y-116727000D01*
X126818000Y-116728000D01*
X126820000Y-116729000D01*
X126823000Y-116730000D01*
X126825000Y-116732000D01*
X126827000Y-116733000D01*
X126829000Y-116735000D01*
X126831000Y-116736000D01*
X126833000Y-116738000D01*
X126835000Y-116740000D01*
X126837000Y-116742000D01*
X126839000Y-116744000D01*
X126840000Y-116746000D01*
X126842000Y-116748000D01*
X126843000Y-116750000D01*
X126845000Y-116752000D01*
X126846000Y-116755000D01*
X126847000Y-116757000D01*
X126848000Y-116760000D01*
X126848000Y-116762000D01*
X126849000Y-116765000D01*
X126849000Y-116767000D01*
X126850000Y-116770000D01*
X126850000Y-116772000D01*
X126850000Y-116775000D01*
X126850000Y-116975000D01*
X126850000Y-116978000D01*
X126850000Y-116980000D01*
X126849000Y-116983000D01*
X126849000Y-116985000D01*
X126848000Y-116988000D01*
X126848000Y-116990000D01*
X126847000Y-116993000D01*
X126846000Y-116995000D01*
X126845000Y-116998000D01*
X126843000Y-117000000D01*
X126842000Y-117002000D01*
X126840000Y-117004000D01*
X126839000Y-117006000D01*
X126837000Y-117008000D01*
X126835000Y-117010000D01*
X126833000Y-117012000D01*
X126831000Y-117014000D01*
X126829000Y-117015000D01*
X126827000Y-117017000D01*
X126825000Y-117018000D01*
X126823000Y-117020000D01*
X126820000Y-117021000D01*
X126818000Y-117022000D01*
X126815000Y-117023000D01*
X126813000Y-117023000D01*
X126810000Y-117024000D01*
X126808000Y-117024000D01*
X126805000Y-117025000D01*
X126295000Y-117025000D01*
X126292000Y-117024000D01*
X126290000Y-117024000D01*
X126287000Y-117023000D01*
X126285000Y-117023000D01*
X126282000Y-117022000D01*
X126280000Y-117021000D01*
X126277000Y-117020000D01*
X126275000Y-117018000D01*
X126273000Y-117017000D01*
X126271000Y-117015000D01*
X126269000Y-117014000D01*
X126267000Y-117012000D01*
X126265000Y-117010000D01*
X126263000Y-117008000D01*
X126261000Y-117006000D01*
X126260000Y-117004000D01*
X126258000Y-117002000D01*
X126257000Y-117000000D01*
X126255000Y-116998000D01*
X126254000Y-116995000D01*
X126253000Y-116993000D01*
X126252000Y-116990000D01*
X126252000Y-116988000D01*
X126251000Y-116985000D01*
X126251000Y-116983000D01*
X126250000Y-116980000D01*
X126250000Y-116978000D01*
X126250000Y-116975000D01*
X126250000Y-116775000D01*
X126250000Y-116772000D01*
X126250000Y-116770000D01*
X126251000Y-116767000D01*
X126251000Y-116765000D01*
X126252000Y-116762000D01*
X126252000Y-116760000D01*
X126253000Y-116757000D01*
X126254000Y-116755000D01*
X126255000Y-116752000D01*
X126257000Y-116750000D01*
X126258000Y-116748000D01*
X126260000Y-116746000D01*
X126261000Y-116744000D01*
X126263000Y-116742000D01*
X126265000Y-116740000D01*
X126267000Y-116738000D01*
X126269000Y-116736000D01*
X126271000Y-116735000D01*
X126273000Y-116733000D01*
X126275000Y-116732000D01*
X126277000Y-116730000D01*
X126280000Y-116729000D01*
X126282000Y-116728000D01*
X126285000Y-116727000D01*
X126287000Y-116727000D01*
X126290000Y-116726000D01*
X126292000Y-116726000D01*
X126295000Y-116725000D01*
X126805000Y-116725000D01*
X126808000Y-116726000D01*
G37*
G36*
X126808000Y-117376000D02*
G01*
X126810000Y-117376000D01*
X126813000Y-117377000D01*
X126815000Y-117377000D01*
X126818000Y-117378000D01*
X126820000Y-117379000D01*
X126823000Y-117380000D01*
X126825000Y-117382000D01*
X126827000Y-117383000D01*
X126829000Y-117385000D01*
X126831000Y-117386000D01*
X126833000Y-117388000D01*
X126835000Y-117390000D01*
X126837000Y-117392000D01*
X126839000Y-117394000D01*
X126840000Y-117396000D01*
X126842000Y-117398000D01*
X126843000Y-117400000D01*
X126845000Y-117402000D01*
X126846000Y-117405000D01*
X126847000Y-117407000D01*
X126848000Y-117410000D01*
X126848000Y-117412000D01*
X126849000Y-117415000D01*
X126849000Y-117417000D01*
X126850000Y-117420000D01*
X126850000Y-117422000D01*
X126850000Y-117425000D01*
X126850000Y-117625000D01*
X126850000Y-117628000D01*
X126850000Y-117630000D01*
X126849000Y-117633000D01*
X126849000Y-117635000D01*
X126848000Y-117638000D01*
X126848000Y-117640000D01*
X126847000Y-117643000D01*
X126846000Y-117645000D01*
X126845000Y-117648000D01*
X126843000Y-117650000D01*
X126842000Y-117652000D01*
X126840000Y-117654000D01*
X126839000Y-117656000D01*
X126837000Y-117658000D01*
X126835000Y-117660000D01*
X126833000Y-117662000D01*
X126831000Y-117664000D01*
X126829000Y-117665000D01*
X126827000Y-117667000D01*
X126825000Y-117668000D01*
X126823000Y-117670000D01*
X126820000Y-117671000D01*
X126818000Y-117672000D01*
X126815000Y-117673000D01*
X126813000Y-117673000D01*
X126810000Y-117674000D01*
X126808000Y-117674000D01*
X126805000Y-117675000D01*
X126295000Y-117675000D01*
X126292000Y-117674000D01*
X126290000Y-117674000D01*
X126287000Y-117673000D01*
X126285000Y-117673000D01*
X126282000Y-117672000D01*
X126280000Y-117671000D01*
X126277000Y-117670000D01*
X126275000Y-117668000D01*
X126273000Y-117667000D01*
X126271000Y-117665000D01*
X126269000Y-117664000D01*
X126267000Y-117662000D01*
X126265000Y-117660000D01*
X126263000Y-117658000D01*
X126261000Y-117656000D01*
X126260000Y-117654000D01*
X126258000Y-117652000D01*
X126257000Y-117650000D01*
X126255000Y-117648000D01*
X126254000Y-117645000D01*
X126253000Y-117643000D01*
X126252000Y-117640000D01*
X126252000Y-117638000D01*
X126251000Y-117635000D01*
X126251000Y-117633000D01*
X126250000Y-117630000D01*
X126250000Y-117628000D01*
X126250000Y-117625000D01*
X126250000Y-117425000D01*
X126250000Y-117422000D01*
X126250000Y-117420000D01*
X126251000Y-117417000D01*
X126251000Y-117415000D01*
X126252000Y-117412000D01*
X126252000Y-117410000D01*
X126253000Y-117407000D01*
X126254000Y-117405000D01*
X126255000Y-117402000D01*
X126257000Y-117400000D01*
X126258000Y-117398000D01*
X126260000Y-117396000D01*
X126261000Y-117394000D01*
X126263000Y-117392000D01*
X126265000Y-117390000D01*
X126267000Y-117388000D01*
X126269000Y-117386000D01*
X126271000Y-117385000D01*
X126273000Y-117383000D01*
X126275000Y-117382000D01*
X126277000Y-117380000D01*
X126280000Y-117379000D01*
X126282000Y-117378000D01*
X126285000Y-117377000D01*
X126287000Y-117377000D01*
X126290000Y-117376000D01*
X126292000Y-117376000D01*
X126295000Y-117375000D01*
X126805000Y-117375000D01*
X126808000Y-117376000D01*
G37*
G36*
X126808000Y-118026000D02*
G01*
X126810000Y-118026000D01*
X126813000Y-118027000D01*
X126815000Y-118027000D01*
X126818000Y-118028000D01*
X126820000Y-118029000D01*
X126823000Y-118030000D01*
X126825000Y-118032000D01*
X126827000Y-118033000D01*
X126829000Y-118035000D01*
X126831000Y-118036000D01*
X126833000Y-118038000D01*
X126835000Y-118040000D01*
X126837000Y-118042000D01*
X126839000Y-118044000D01*
X126840000Y-118046000D01*
X126842000Y-118048000D01*
X126843000Y-118050000D01*
X126845000Y-118052000D01*
X126846000Y-118055000D01*
X126847000Y-118057000D01*
X126848000Y-118060000D01*
X126848000Y-118062000D01*
X126849000Y-118065000D01*
X126849000Y-118067000D01*
X126850000Y-118070000D01*
X126850000Y-118072000D01*
X126850000Y-118075000D01*
X126850000Y-118275000D01*
X126850000Y-118278000D01*
X126850000Y-118280000D01*
X126849000Y-118283000D01*
X126849000Y-118285000D01*
X126848000Y-118288000D01*
X126848000Y-118290000D01*
X126847000Y-118293000D01*
X126846000Y-118295000D01*
X126845000Y-118298000D01*
X126843000Y-118300000D01*
X126842000Y-118302000D01*
X126840000Y-118304000D01*
X126839000Y-118306000D01*
X126837000Y-118308000D01*
X126835000Y-118310000D01*
X126833000Y-118312000D01*
X126831000Y-118314000D01*
X126829000Y-118315000D01*
X126827000Y-118317000D01*
X126825000Y-118318000D01*
X126823000Y-118320000D01*
X126820000Y-118321000D01*
X126818000Y-118322000D01*
X126815000Y-118323000D01*
X126813000Y-118323000D01*
X126810000Y-118324000D01*
X126808000Y-118324000D01*
X126805000Y-118325000D01*
X126295000Y-118325000D01*
X126292000Y-118324000D01*
X126290000Y-118324000D01*
X126287000Y-118323000D01*
X126285000Y-118323000D01*
X126282000Y-118322000D01*
X126280000Y-118321000D01*
X126277000Y-118320000D01*
X126275000Y-118318000D01*
X126273000Y-118317000D01*
X126271000Y-118315000D01*
X126269000Y-118314000D01*
X126267000Y-118312000D01*
X126265000Y-118310000D01*
X126263000Y-118308000D01*
X126261000Y-118306000D01*
X126260000Y-118304000D01*
X126258000Y-118302000D01*
X126257000Y-118300000D01*
X126255000Y-118298000D01*
X126254000Y-118295000D01*
X126253000Y-118293000D01*
X126252000Y-118290000D01*
X126252000Y-118288000D01*
X126251000Y-118285000D01*
X126251000Y-118283000D01*
X126250000Y-118280000D01*
X126250000Y-118278000D01*
X126250000Y-118275000D01*
X126250000Y-118075000D01*
X126250000Y-118072000D01*
X126250000Y-118070000D01*
X126251000Y-118067000D01*
X126251000Y-118065000D01*
X126252000Y-118062000D01*
X126252000Y-118060000D01*
X126253000Y-118057000D01*
X126254000Y-118055000D01*
X126255000Y-118052000D01*
X126257000Y-118050000D01*
X126258000Y-118048000D01*
X126260000Y-118046000D01*
X126261000Y-118044000D01*
X126263000Y-118042000D01*
X126265000Y-118040000D01*
X126267000Y-118038000D01*
X126269000Y-118036000D01*
X126271000Y-118035000D01*
X126273000Y-118033000D01*
X126275000Y-118032000D01*
X126277000Y-118030000D01*
X126280000Y-118029000D01*
X126282000Y-118028000D01*
X126285000Y-118027000D01*
X126287000Y-118027000D01*
X126290000Y-118026000D01*
X126292000Y-118026000D01*
X126295000Y-118025000D01*
X126805000Y-118025000D01*
X126808000Y-118026000D01*
G37*
G36*
X127713000Y-115976000D02*
G01*
X127716000Y-115976000D01*
X127718000Y-115977000D01*
X127721000Y-115977000D01*
X127723000Y-115978000D01*
X127726000Y-115979000D01*
X127728000Y-115980000D01*
X127731000Y-115982000D01*
X127733000Y-115983000D01*
X127735000Y-115985000D01*
X127737000Y-115986000D01*
X127739000Y-115988000D01*
X127741000Y-115990000D01*
X127743000Y-115992000D01*
X127744000Y-115994000D01*
X127746000Y-115996000D01*
X127747000Y-115998000D01*
X127749000Y-116000000D01*
X127750000Y-116002000D01*
X127751000Y-116005000D01*
X127752000Y-116007000D01*
X127753000Y-116010000D01*
X127754000Y-116012000D01*
X127754000Y-116015000D01*
X127755000Y-116017000D01*
X127755000Y-116020000D01*
X127755000Y-116022000D01*
X127756000Y-116025000D01*
X127756000Y-117050000D01*
X127755000Y-117053000D01*
X127755000Y-117055000D01*
X127755000Y-117058000D01*
X127754000Y-117060000D01*
X127754000Y-117063000D01*
X127753000Y-117065000D01*
X127752000Y-117068000D01*
X127751000Y-117070000D01*
X127750000Y-117073000D01*
X127749000Y-117075000D01*
X127747000Y-117077000D01*
X127746000Y-117079000D01*
X127744000Y-117081000D01*
X127743000Y-117083000D01*
X127741000Y-117085000D01*
X127739000Y-117087000D01*
X127737000Y-117089000D01*
X127735000Y-117090000D01*
X127733000Y-117092000D01*
X127731000Y-117093000D01*
X127728000Y-117095000D01*
X127726000Y-117096000D01*
X127723000Y-117097000D01*
X127721000Y-117098000D01*
X127718000Y-117098000D01*
X127716000Y-117099000D01*
X127713000Y-117099000D01*
X127711000Y-117100000D01*
X127095000Y-117100000D01*
X127093000Y-117099000D01*
X127090000Y-117099000D01*
X127088000Y-117098000D01*
X127085000Y-117098000D01*
X127083000Y-117097000D01*
X127080000Y-117096000D01*
X127078000Y-117095000D01*
X127075000Y-117093000D01*
X127073000Y-117092000D01*
X127071000Y-117090000D01*
X127069000Y-117089000D01*
X127067000Y-117087000D01*
X127065000Y-117085000D01*
X127063000Y-117083000D01*
X127062000Y-117081000D01*
X127060000Y-117079000D01*
X127059000Y-117077000D01*
X127057000Y-117075000D01*
X127056000Y-117073000D01*
X127055000Y-117070000D01*
X127054000Y-117068000D01*
X127053000Y-117065000D01*
X127052000Y-117063000D01*
X127052000Y-117060000D01*
X127051000Y-117058000D01*
X127051000Y-117055000D01*
X127051000Y-117053000D01*
X127050000Y-117050000D01*
X127050000Y-116025000D01*
X127051000Y-116022000D01*
X127051000Y-116020000D01*
X127051000Y-116017000D01*
X127052000Y-116015000D01*
X127052000Y-116012000D01*
X127053000Y-116010000D01*
X127054000Y-116007000D01*
X127055000Y-116005000D01*
X127056000Y-116002000D01*
X127057000Y-116000000D01*
X127059000Y-115998000D01*
X127060000Y-115996000D01*
X127062000Y-115994000D01*
X127063000Y-115992000D01*
X127065000Y-115990000D01*
X127067000Y-115988000D01*
X127069000Y-115986000D01*
X127071000Y-115985000D01*
X127073000Y-115983000D01*
X127075000Y-115982000D01*
X127078000Y-115980000D01*
X127080000Y-115979000D01*
X127083000Y-115978000D01*
X127085000Y-115977000D01*
X127088000Y-115977000D01*
X127090000Y-115976000D01*
X127093000Y-115976000D01*
X127095000Y-115975000D01*
X127711000Y-115975000D01*
X127713000Y-115976000D01*
G37*
G36*
X127713000Y-117301000D02*
G01*
X127716000Y-117301000D01*
X127718000Y-117302000D01*
X127721000Y-117302000D01*
X127723000Y-117303000D01*
X127726000Y-117304000D01*
X127728000Y-117305000D01*
X127731000Y-117307000D01*
X127733000Y-117308000D01*
X127735000Y-117310000D01*
X127737000Y-117311000D01*
X127739000Y-117313000D01*
X127741000Y-117315000D01*
X127743000Y-117317000D01*
X127744000Y-117319000D01*
X127746000Y-117321000D01*
X127747000Y-117323000D01*
X127749000Y-117325000D01*
X127750000Y-117327000D01*
X127751000Y-117330000D01*
X127752000Y-117332000D01*
X127753000Y-117335000D01*
X127754000Y-117337000D01*
X127754000Y-117340000D01*
X127755000Y-117342000D01*
X127755000Y-117345000D01*
X127755000Y-117347000D01*
X127756000Y-117350000D01*
X127756000Y-118375000D01*
X127755000Y-118378000D01*
X127755000Y-118380000D01*
X127755000Y-118383000D01*
X127754000Y-118385000D01*
X127754000Y-118388000D01*
X127753000Y-118390000D01*
X127752000Y-118393000D01*
X127751000Y-118395000D01*
X127750000Y-118398000D01*
X127749000Y-118400000D01*
X127747000Y-118402000D01*
X127746000Y-118404000D01*
X127744000Y-118406000D01*
X127743000Y-118408000D01*
X127741000Y-118410000D01*
X127739000Y-118412000D01*
X127737000Y-118414000D01*
X127735000Y-118415000D01*
X127733000Y-118417000D01*
X127731000Y-118418000D01*
X127728000Y-118420000D01*
X127726000Y-118421000D01*
X127723000Y-118422000D01*
X127721000Y-118423000D01*
X127718000Y-118423000D01*
X127716000Y-118424000D01*
X127713000Y-118424000D01*
X127711000Y-118425000D01*
X127095000Y-118425000D01*
X127093000Y-118424000D01*
X127090000Y-118424000D01*
X127088000Y-118423000D01*
X127085000Y-118423000D01*
X127083000Y-118422000D01*
X127080000Y-118421000D01*
X127078000Y-118420000D01*
X127075000Y-118418000D01*
X127073000Y-118417000D01*
X127071000Y-118415000D01*
X127069000Y-118414000D01*
X127067000Y-118412000D01*
X127065000Y-118410000D01*
X127063000Y-118408000D01*
X127062000Y-118406000D01*
X127060000Y-118404000D01*
X127059000Y-118402000D01*
X127057000Y-118400000D01*
X127056000Y-118398000D01*
X127055000Y-118395000D01*
X127054000Y-118393000D01*
X127053000Y-118390000D01*
X127052000Y-118388000D01*
X127052000Y-118385000D01*
X127051000Y-118383000D01*
X127051000Y-118380000D01*
X127051000Y-118378000D01*
X127050000Y-118375000D01*
X127050000Y-117350000D01*
X127051000Y-117347000D01*
X127051000Y-117345000D01*
X127051000Y-117342000D01*
X127052000Y-117340000D01*
X127052000Y-117337000D01*
X127053000Y-117335000D01*
X127054000Y-117332000D01*
X127055000Y-117330000D01*
X127056000Y-117327000D01*
X127057000Y-117325000D01*
X127059000Y-117323000D01*
X127060000Y-117321000D01*
X127062000Y-117319000D01*
X127063000Y-117317000D01*
X127065000Y-117315000D01*
X127067000Y-117313000D01*
X127069000Y-117311000D01*
X127071000Y-117310000D01*
X127073000Y-117308000D01*
X127075000Y-117307000D01*
X127078000Y-117305000D01*
X127080000Y-117304000D01*
X127083000Y-117303000D01*
X127085000Y-117302000D01*
X127088000Y-117302000D01*
X127090000Y-117301000D01*
X127093000Y-117301000D01*
X127095000Y-117300000D01*
X127711000Y-117300000D01*
X127713000Y-117301000D01*
G37*
G36*
X128618000Y-115976000D02*
G01*
X128621000Y-115976000D01*
X128623000Y-115977000D01*
X128626000Y-115977000D01*
X128628000Y-115978000D01*
X128631000Y-115979000D01*
X128633000Y-115980000D01*
X128635000Y-115982000D01*
X128638000Y-115983000D01*
X128640000Y-115985000D01*
X128642000Y-115986000D01*
X128644000Y-115988000D01*
X128646000Y-115990000D01*
X128648000Y-115992000D01*
X128649000Y-115994000D01*
X128651000Y-115996000D01*
X128652000Y-115998000D01*
X128654000Y-116000000D01*
X128655000Y-116002000D01*
X128656000Y-116005000D01*
X128657000Y-116007000D01*
X128658000Y-116010000D01*
X128659000Y-116012000D01*
X128659000Y-116015000D01*
X128660000Y-116017000D01*
X128660000Y-116020000D01*
X128660000Y-116022000D01*
X128660000Y-116025000D01*
X128660000Y-117050000D01*
X128660000Y-117053000D01*
X128660000Y-117055000D01*
X128660000Y-117058000D01*
X128659000Y-117060000D01*
X128659000Y-117063000D01*
X128658000Y-117065000D01*
X128657000Y-117068000D01*
X128656000Y-117070000D01*
X128655000Y-117073000D01*
X128654000Y-117075000D01*
X128652000Y-117077000D01*
X128651000Y-117079000D01*
X128649000Y-117081000D01*
X128648000Y-117083000D01*
X128646000Y-117085000D01*
X128644000Y-117087000D01*
X128642000Y-117089000D01*
X128640000Y-117090000D01*
X128638000Y-117092000D01*
X128635000Y-117093000D01*
X128633000Y-117095000D01*
X128631000Y-117096000D01*
X128628000Y-117097000D01*
X128626000Y-117098000D01*
X128623000Y-117098000D01*
X128621000Y-117099000D01*
X128618000Y-117099000D01*
X128616000Y-117100000D01*
X128000000Y-117100000D01*
X127998000Y-117099000D01*
X127995000Y-117099000D01*
X127993000Y-117098000D01*
X127990000Y-117098000D01*
X127988000Y-117097000D01*
X127985000Y-117096000D01*
X127983000Y-117095000D01*
X127980000Y-117093000D01*
X127978000Y-117092000D01*
X127976000Y-117090000D01*
X127974000Y-117089000D01*
X127972000Y-117087000D01*
X127970000Y-117085000D01*
X127968000Y-117083000D01*
X127967000Y-117081000D01*
X127965000Y-117079000D01*
X127964000Y-117077000D01*
X127962000Y-117075000D01*
X127961000Y-117073000D01*
X127960000Y-117070000D01*
X127959000Y-117068000D01*
X127958000Y-117065000D01*
X127957000Y-117063000D01*
X127957000Y-117060000D01*
X127956000Y-117058000D01*
X127956000Y-117055000D01*
X127956000Y-117053000D01*
X127956000Y-117050000D01*
X127956000Y-116025000D01*
X127956000Y-116022000D01*
X127956000Y-116020000D01*
X127956000Y-116017000D01*
X127957000Y-116015000D01*
X127957000Y-116012000D01*
X127958000Y-116010000D01*
X127959000Y-116007000D01*
X127960000Y-116005000D01*
X127961000Y-116002000D01*
X127962000Y-116000000D01*
X127964000Y-115998000D01*
X127965000Y-115996000D01*
X127967000Y-115994000D01*
X127968000Y-115992000D01*
X127970000Y-115990000D01*
X127972000Y-115988000D01*
X127974000Y-115986000D01*
X127976000Y-115985000D01*
X127978000Y-115983000D01*
X127981000Y-115982000D01*
X127983000Y-115980000D01*
X127985000Y-115979000D01*
X127988000Y-115978000D01*
X127990000Y-115977000D01*
X127993000Y-115977000D01*
X127995000Y-115976000D01*
X127998000Y-115976000D01*
X128000000Y-115975000D01*
X128616000Y-115975000D01*
X128618000Y-115976000D01*
G37*
G36*
X128618000Y-117301000D02*
G01*
X128621000Y-117301000D01*
X128623000Y-117302000D01*
X128626000Y-117302000D01*
X128628000Y-117303000D01*
X128631000Y-117304000D01*
X128633000Y-117305000D01*
X128635000Y-117307000D01*
X128638000Y-117308000D01*
X128640000Y-117310000D01*
X128642000Y-117311000D01*
X128644000Y-117313000D01*
X128646000Y-117315000D01*
X128648000Y-117317000D01*
X128649000Y-117319000D01*
X128651000Y-117321000D01*
X128652000Y-117323000D01*
X128654000Y-117325000D01*
X128655000Y-117327000D01*
X128656000Y-117330000D01*
X128657000Y-117332000D01*
X128658000Y-117335000D01*
X128659000Y-117337000D01*
X128659000Y-117340000D01*
X128660000Y-117342000D01*
X128660000Y-117345000D01*
X128660000Y-117347000D01*
X128660000Y-117350000D01*
X128660000Y-118375000D01*
X128660000Y-118378000D01*
X128660000Y-118380000D01*
X128660000Y-118383000D01*
X128659000Y-118385000D01*
X128659000Y-118388000D01*
X128658000Y-118390000D01*
X128657000Y-118393000D01*
X128656000Y-118395000D01*
X128655000Y-118398000D01*
X128654000Y-118400000D01*
X128652000Y-118402000D01*
X128651000Y-118404000D01*
X128649000Y-118406000D01*
X128648000Y-118408000D01*
X128646000Y-118410000D01*
X128644000Y-118412000D01*
X128642000Y-118414000D01*
X128640000Y-118415000D01*
X128638000Y-118417000D01*
X128635000Y-118418000D01*
X128633000Y-118420000D01*
X128631000Y-118421000D01*
X128628000Y-118422000D01*
X128626000Y-118423000D01*
X128623000Y-118423000D01*
X128621000Y-118424000D01*
X128618000Y-118424000D01*
X128616000Y-118425000D01*
X128000000Y-118425000D01*
X127998000Y-118424000D01*
X127995000Y-118424000D01*
X127993000Y-118423000D01*
X127990000Y-118423000D01*
X127988000Y-118422000D01*
X127985000Y-118421000D01*
X127983000Y-118420000D01*
X127981000Y-118418000D01*
X127978000Y-118417000D01*
X127976000Y-118415000D01*
X127974000Y-118414000D01*
X127972000Y-118412000D01*
X127970000Y-118410000D01*
X127968000Y-118408000D01*
X127967000Y-118406000D01*
X127965000Y-118404000D01*
X127964000Y-118402000D01*
X127962000Y-118400000D01*
X127961000Y-118398000D01*
X127960000Y-118395000D01*
X127959000Y-118393000D01*
X127958000Y-118390000D01*
X127957000Y-118388000D01*
X127957000Y-118385000D01*
X127956000Y-118383000D01*
X127956000Y-118380000D01*
X127956000Y-118378000D01*
X127956000Y-118375000D01*
X127956000Y-117350000D01*
X127956000Y-117347000D01*
X127956000Y-117345000D01*
X127956000Y-117342000D01*
X127957000Y-117340000D01*
X127957000Y-117337000D01*
X127958000Y-117335000D01*
X127959000Y-117332000D01*
X127960000Y-117330000D01*
X127961000Y-117327000D01*
X127962000Y-117325000D01*
X127964000Y-117323000D01*
X127965000Y-117321000D01*
X127967000Y-117319000D01*
X127968000Y-117317000D01*
X127970000Y-117315000D01*
X127972000Y-117313000D01*
X127974000Y-117311000D01*
X127976000Y-117310000D01*
X127978000Y-117308000D01*
X127980000Y-117307000D01*
X127983000Y-117305000D01*
X127985000Y-117304000D01*
X127988000Y-117303000D01*
X127990000Y-117302000D01*
X127993000Y-117302000D01*
X127995000Y-117301000D01*
X127998000Y-117301000D01*
X128000000Y-117300000D01*
X128616000Y-117300000D01*
X128618000Y-117301000D01*
G37*
G36*
X129908000Y-116076000D02*
G01*
X129910000Y-116076000D01*
X129913000Y-116077000D01*
X129915000Y-116077000D01*
X129918000Y-116078000D01*
X129920000Y-116079000D01*
X129923000Y-116080000D01*
X129925000Y-116082000D01*
X129927000Y-116083000D01*
X129929000Y-116085000D01*
X129931000Y-116086000D01*
X129933000Y-116088000D01*
X129935000Y-116090000D01*
X129937000Y-116092000D01*
X129939000Y-116094000D01*
X129940000Y-116096000D01*
X129942000Y-116098000D01*
X129943000Y-116100000D01*
X129945000Y-116102000D01*
X129946000Y-116105000D01*
X129947000Y-116107000D01*
X129948000Y-116110000D01*
X129948000Y-116112000D01*
X129949000Y-116115000D01*
X129949000Y-116117000D01*
X129950000Y-116120000D01*
X129950000Y-116122000D01*
X129950000Y-116125000D01*
X129950000Y-116325000D01*
X129950000Y-116328000D01*
X129950000Y-116330000D01*
X129949000Y-116333000D01*
X129949000Y-116335000D01*
X129948000Y-116338000D01*
X129948000Y-116340000D01*
X129947000Y-116343000D01*
X129946000Y-116345000D01*
X129945000Y-116348000D01*
X129943000Y-116350000D01*
X129942000Y-116352000D01*
X129940000Y-116354000D01*
X129939000Y-116356000D01*
X129937000Y-116358000D01*
X129935000Y-116360000D01*
X129933000Y-116362000D01*
X129931000Y-116364000D01*
X129929000Y-116365000D01*
X129927000Y-116367000D01*
X129925000Y-116368000D01*
X129923000Y-116370000D01*
X129920000Y-116371000D01*
X129918000Y-116372000D01*
X129915000Y-116373000D01*
X129913000Y-116373000D01*
X129910000Y-116374000D01*
X129908000Y-116374000D01*
X129905000Y-116375000D01*
X129395000Y-116375000D01*
X129392000Y-116374000D01*
X129390000Y-116374000D01*
X129387000Y-116373000D01*
X129385000Y-116373000D01*
X129382000Y-116372000D01*
X129380000Y-116371000D01*
X129377000Y-116370000D01*
X129375000Y-116368000D01*
X129373000Y-116367000D01*
X129371000Y-116365000D01*
X129369000Y-116364000D01*
X129367000Y-116362000D01*
X129365000Y-116360000D01*
X129363000Y-116358000D01*
X129361000Y-116356000D01*
X129360000Y-116354000D01*
X129358000Y-116352000D01*
X129357000Y-116350000D01*
X129355000Y-116348000D01*
X129354000Y-116345000D01*
X129353000Y-116343000D01*
X129352000Y-116340000D01*
X129352000Y-116338000D01*
X129351000Y-116335000D01*
X129351000Y-116333000D01*
X129350000Y-116330000D01*
X129350000Y-116328000D01*
X129350000Y-116325000D01*
X129350000Y-116125000D01*
X129350000Y-116122000D01*
X129350000Y-116120000D01*
X129351000Y-116117000D01*
X129351000Y-116115000D01*
X129352000Y-116112000D01*
X129352000Y-116110000D01*
X129353000Y-116107000D01*
X129354000Y-116105000D01*
X129355000Y-116102000D01*
X129357000Y-116100000D01*
X129358000Y-116098000D01*
X129360000Y-116096000D01*
X129361000Y-116094000D01*
X129363000Y-116092000D01*
X129365000Y-116090000D01*
X129367000Y-116088000D01*
X129369000Y-116086000D01*
X129371000Y-116085000D01*
X129373000Y-116083000D01*
X129375000Y-116082000D01*
X129377000Y-116080000D01*
X129380000Y-116079000D01*
X129382000Y-116078000D01*
X129385000Y-116077000D01*
X129387000Y-116077000D01*
X129390000Y-116076000D01*
X129392000Y-116076000D01*
X129395000Y-116075000D01*
X129905000Y-116075000D01*
X129908000Y-116076000D01*
G37*
G36*
X129908000Y-116726000D02*
G01*
X129910000Y-116726000D01*
X129913000Y-116727000D01*
X129915000Y-116727000D01*
X129918000Y-116728000D01*
X129920000Y-116729000D01*
X129923000Y-116730000D01*
X129925000Y-116732000D01*
X129927000Y-116733000D01*
X129929000Y-116735000D01*
X129931000Y-116736000D01*
X129933000Y-116738000D01*
X129935000Y-116740000D01*
X129937000Y-116742000D01*
X129939000Y-116744000D01*
X129940000Y-116746000D01*
X129942000Y-116748000D01*
X129943000Y-116750000D01*
X129945000Y-116752000D01*
X129946000Y-116755000D01*
X129947000Y-116757000D01*
X129948000Y-116760000D01*
X129948000Y-116762000D01*
X129949000Y-116765000D01*
X129949000Y-116767000D01*
X129950000Y-116770000D01*
X129950000Y-116772000D01*
X129950000Y-116775000D01*
X129950000Y-116975000D01*
X129950000Y-116978000D01*
X129950000Y-116980000D01*
X129949000Y-116983000D01*
X129949000Y-116985000D01*
X129948000Y-116988000D01*
X129948000Y-116990000D01*
X129947000Y-116993000D01*
X129946000Y-116995000D01*
X129945000Y-116998000D01*
X129943000Y-117000000D01*
X129942000Y-117002000D01*
X129940000Y-117004000D01*
X129939000Y-117006000D01*
X129937000Y-117008000D01*
X129935000Y-117010000D01*
X129933000Y-117012000D01*
X129931000Y-117014000D01*
X129929000Y-117015000D01*
X129927000Y-117017000D01*
X129925000Y-117018000D01*
X129923000Y-117020000D01*
X129920000Y-117021000D01*
X129918000Y-117022000D01*
X129915000Y-117023000D01*
X129913000Y-117023000D01*
X129910000Y-117024000D01*
X129908000Y-117024000D01*
X129905000Y-117025000D01*
X129395000Y-117025000D01*
X129392000Y-117024000D01*
X129390000Y-117024000D01*
X129387000Y-117023000D01*
X129385000Y-117023000D01*
X129382000Y-117022000D01*
X129380000Y-117021000D01*
X129377000Y-117020000D01*
X129375000Y-117018000D01*
X129373000Y-117017000D01*
X129371000Y-117015000D01*
X129369000Y-117014000D01*
X129367000Y-117012000D01*
X129365000Y-117010000D01*
X129363000Y-117008000D01*
X129361000Y-117006000D01*
X129360000Y-117004000D01*
X129358000Y-117002000D01*
X129357000Y-117000000D01*
X129355000Y-116998000D01*
X129354000Y-116995000D01*
X129353000Y-116993000D01*
X129352000Y-116990000D01*
X129352000Y-116988000D01*
X129351000Y-116985000D01*
X129351000Y-116983000D01*
X129350000Y-116980000D01*
X129350000Y-116978000D01*
X129350000Y-116975000D01*
X129350000Y-116775000D01*
X129350000Y-116772000D01*
X129350000Y-116770000D01*
X129351000Y-116767000D01*
X129351000Y-116765000D01*
X129352000Y-116762000D01*
X129352000Y-116760000D01*
X129353000Y-116757000D01*
X129354000Y-116755000D01*
X129355000Y-116752000D01*
X129357000Y-116750000D01*
X129358000Y-116748000D01*
X129360000Y-116746000D01*
X129361000Y-116744000D01*
X129363000Y-116742000D01*
X129365000Y-116740000D01*
X129367000Y-116738000D01*
X129369000Y-116736000D01*
X129371000Y-116735000D01*
X129373000Y-116733000D01*
X129375000Y-116732000D01*
X129377000Y-116730000D01*
X129380000Y-116729000D01*
X129382000Y-116728000D01*
X129385000Y-116727000D01*
X129387000Y-116727000D01*
X129390000Y-116726000D01*
X129392000Y-116726000D01*
X129395000Y-116725000D01*
X129905000Y-116725000D01*
X129908000Y-116726000D01*
G37*
G36*
X129908000Y-117376000D02*
G01*
X129910000Y-117376000D01*
X129913000Y-117377000D01*
X129915000Y-117377000D01*
X129918000Y-117378000D01*
X129920000Y-117379000D01*
X129923000Y-117380000D01*
X129925000Y-117382000D01*
X129927000Y-117383000D01*
X129929000Y-117385000D01*
X129931000Y-117386000D01*
X129933000Y-117388000D01*
X129935000Y-117390000D01*
X129937000Y-117392000D01*
X129939000Y-117394000D01*
X129940000Y-117396000D01*
X129942000Y-117398000D01*
X129943000Y-117400000D01*
X129945000Y-117402000D01*
X129946000Y-117405000D01*
X129947000Y-117407000D01*
X129948000Y-117410000D01*
X129948000Y-117412000D01*
X129949000Y-117415000D01*
X129949000Y-117417000D01*
X129950000Y-117420000D01*
X129950000Y-117422000D01*
X129950000Y-117425000D01*
X129950000Y-117625000D01*
X129950000Y-117628000D01*
X129950000Y-117630000D01*
X129949000Y-117633000D01*
X129949000Y-117635000D01*
X129948000Y-117638000D01*
X129948000Y-117640000D01*
X129947000Y-117643000D01*
X129946000Y-117645000D01*
X129945000Y-117648000D01*
X129943000Y-117650000D01*
X129942000Y-117652000D01*
X129940000Y-117654000D01*
X129939000Y-117656000D01*
X129937000Y-117658000D01*
X129935000Y-117660000D01*
X129933000Y-117662000D01*
X129931000Y-117664000D01*
X129929000Y-117665000D01*
X129927000Y-117667000D01*
X129925000Y-117668000D01*
X129923000Y-117670000D01*
X129920000Y-117671000D01*
X129918000Y-117672000D01*
X129915000Y-117673000D01*
X129913000Y-117673000D01*
X129910000Y-117674000D01*
X129908000Y-117674000D01*
X129905000Y-117675000D01*
X129395000Y-117675000D01*
X129392000Y-117674000D01*
X129390000Y-117674000D01*
X129387000Y-117673000D01*
X129385000Y-117673000D01*
X129382000Y-117672000D01*
X129380000Y-117671000D01*
X129377000Y-117670000D01*
X129375000Y-117668000D01*
X129373000Y-117667000D01*
X129371000Y-117665000D01*
X129369000Y-117664000D01*
X129367000Y-117662000D01*
X129365000Y-117660000D01*
X129363000Y-117658000D01*
X129361000Y-117656000D01*
X129360000Y-117654000D01*
X129358000Y-117652000D01*
X129357000Y-117650000D01*
X129355000Y-117648000D01*
X129354000Y-117645000D01*
X129353000Y-117643000D01*
X129352000Y-117640000D01*
X129352000Y-117638000D01*
X129351000Y-117635000D01*
X129351000Y-117633000D01*
X129350000Y-117630000D01*
X129350000Y-117628000D01*
X129350000Y-117625000D01*
X129350000Y-117425000D01*
X129350000Y-117422000D01*
X129350000Y-117420000D01*
X129351000Y-117417000D01*
X129351000Y-117415000D01*
X129352000Y-117412000D01*
X129352000Y-117410000D01*
X129353000Y-117407000D01*
X129354000Y-117405000D01*
X129355000Y-117402000D01*
X129357000Y-117400000D01*
X129358000Y-117398000D01*
X129360000Y-117396000D01*
X129361000Y-117394000D01*
X129363000Y-117392000D01*
X129365000Y-117390000D01*
X129367000Y-117388000D01*
X129369000Y-117386000D01*
X129371000Y-117385000D01*
X129373000Y-117383000D01*
X129375000Y-117382000D01*
X129377000Y-117380000D01*
X129380000Y-117379000D01*
X129382000Y-117378000D01*
X129385000Y-117377000D01*
X129387000Y-117377000D01*
X129390000Y-117376000D01*
X129392000Y-117376000D01*
X129395000Y-117375000D01*
X129905000Y-117375000D01*
X129908000Y-117376000D01*
G37*
G36*
X129908000Y-118026000D02*
G01*
X129910000Y-118026000D01*
X129913000Y-118027000D01*
X129915000Y-118027000D01*
X129918000Y-118028000D01*
X129920000Y-118029000D01*
X129923000Y-118030000D01*
X129925000Y-118032000D01*
X129927000Y-118033000D01*
X129929000Y-118035000D01*
X129931000Y-118036000D01*
X129933000Y-118038000D01*
X129935000Y-118040000D01*
X129937000Y-118042000D01*
X129939000Y-118044000D01*
X129940000Y-118046000D01*
X129942000Y-118048000D01*
X129943000Y-118050000D01*
X129945000Y-118052000D01*
X129946000Y-118055000D01*
X129947000Y-118057000D01*
X129948000Y-118060000D01*
X129948000Y-118062000D01*
X129949000Y-118065000D01*
X129949000Y-118067000D01*
X129950000Y-118070000D01*
X129950000Y-118072000D01*
X129950000Y-118075000D01*
X129950000Y-118275000D01*
X129950000Y-118278000D01*
X129950000Y-118280000D01*
X129949000Y-118283000D01*
X129949000Y-118285000D01*
X129948000Y-118288000D01*
X129948000Y-118290000D01*
X129947000Y-118293000D01*
X129946000Y-118295000D01*
X129945000Y-118298000D01*
X129943000Y-118300000D01*
X129942000Y-118302000D01*
X129940000Y-118304000D01*
X129939000Y-118306000D01*
X129937000Y-118308000D01*
X129935000Y-118310000D01*
X129933000Y-118312000D01*
X129931000Y-118314000D01*
X129929000Y-118315000D01*
X129927000Y-118317000D01*
X129925000Y-118318000D01*
X129923000Y-118320000D01*
X129920000Y-118321000D01*
X129918000Y-118322000D01*
X129915000Y-118323000D01*
X129913000Y-118323000D01*
X129910000Y-118324000D01*
X129908000Y-118324000D01*
X129905000Y-118325000D01*
X129395000Y-118325000D01*
X129392000Y-118324000D01*
X129390000Y-118324000D01*
X129387000Y-118323000D01*
X129385000Y-118323000D01*
X129382000Y-118322000D01*
X129380000Y-118321000D01*
X129377000Y-118320000D01*
X129375000Y-118318000D01*
X129373000Y-118317000D01*
X129371000Y-118315000D01*
X129369000Y-118314000D01*
X129367000Y-118312000D01*
X129365000Y-118310000D01*
X129363000Y-118308000D01*
X129361000Y-118306000D01*
X129360000Y-118304000D01*
X129358000Y-118302000D01*
X129357000Y-118300000D01*
X129355000Y-118298000D01*
X129354000Y-118295000D01*
X129353000Y-118293000D01*
X129352000Y-118290000D01*
X129352000Y-118288000D01*
X129351000Y-118285000D01*
X129351000Y-118283000D01*
X129350000Y-118280000D01*
X129350000Y-118278000D01*
X129350000Y-118275000D01*
X129350000Y-118075000D01*
X129350000Y-118072000D01*
X129350000Y-118070000D01*
X129351000Y-118067000D01*
X129351000Y-118065000D01*
X129352000Y-118062000D01*
X129352000Y-118060000D01*
X129353000Y-118057000D01*
X129354000Y-118055000D01*
X129355000Y-118052000D01*
X129357000Y-118050000D01*
X129358000Y-118048000D01*
X129360000Y-118046000D01*
X129361000Y-118044000D01*
X129363000Y-118042000D01*
X129365000Y-118040000D01*
X129367000Y-118038000D01*
X129369000Y-118036000D01*
X129371000Y-118035000D01*
X129373000Y-118033000D01*
X129375000Y-118032000D01*
X129377000Y-118030000D01*
X129380000Y-118029000D01*
X129382000Y-118028000D01*
X129385000Y-118027000D01*
X129387000Y-118027000D01*
X129390000Y-118026000D01*
X129392000Y-118026000D01*
X129395000Y-118025000D01*
X129905000Y-118025000D01*
X129908000Y-118026000D01*
G37*
%TO.C,Q3*%
G36*
X148496000Y-121192140D02*
G01*
X146768800Y-121192140D01*
X146768800Y-120556000D01*
X146184600Y-120556000D01*
X146184600Y-120048000D01*
X146768800Y-120048000D01*
X146768800Y-117610740D01*
X146286200Y-117610740D01*
X146286200Y-117204340D01*
X148496000Y-117204340D01*
X148496000Y-121192140D01*
G37*
G36*
X151213800Y-117610740D02*
G01*
X150731200Y-117610740D01*
X150731200Y-120048000D01*
X151315400Y-120048000D01*
X151315400Y-120556000D01*
X150731200Y-120556000D01*
X150731200Y-121192140D01*
X149004000Y-121192140D01*
X149004000Y-117204340D01*
X151213800Y-117204340D01*
X151213800Y-117610740D01*
G37*
%TD*%
D11*
%TO.C,R89*%
X160100000Y-79800000D03*
X159100000Y-79800000D03*
%TD*%
%TO.C,R27*%
X165000000Y-85000000D03*
X164000000Y-85000000D03*
%TD*%
D12*
%TO.C,R8*%
X143800000Y-98300000D03*
X144800000Y-98300000D03*
%TD*%
D13*
%TO.C,R3*%
X127300000Y-106300000D03*
X127300000Y-105300000D03*
%TD*%
D12*
%TO.C,R18*%
X144100000Y-110500000D03*
X145100000Y-110500000D03*
%TD*%
D13*
%TO.C,R12*%
X138600000Y-110200000D03*
X138600000Y-109200000D03*
%TD*%
D14*
%TO.C,J8*%
X149250000Y-71100000D03*
X148750000Y-71100000D03*
X148250000Y-71100000D03*
X147750000Y-71100000D03*
X147250000Y-71100000D03*
X146750000Y-71100000D03*
X146250000Y-71100000D03*
X145750000Y-71100000D03*
X145250000Y-71100000D03*
X144750000Y-71100000D03*
X144250000Y-71100000D03*
X143750000Y-71100000D03*
D15*
X150850000Y-68930000D03*
X142150000Y-68930000D03*
%TD*%
D16*
%TO.C,C28*%
X163200000Y-120225000D03*
X163200000Y-122775000D03*
%TD*%
D17*
%TO.C,R31*%
X159550000Y-85500000D03*
X158650000Y-85500000D03*
%TD*%
D18*
%TO.C,C35*%
X151850000Y-82100000D03*
X153150000Y-82100000D03*
%TD*%
D19*
%TO.C,U1*%
X124850000Y-110449990D03*
X124850000Y-110850000D03*
X124850000Y-111250000D03*
X124850000Y-111649990D03*
X124850000Y-112050000D03*
D20*
X125450000Y-112650000D03*
X125850000Y-112650000D03*
X126250000Y-112650000D03*
X126650000Y-112650000D03*
X127050000Y-112650000D03*
D19*
X127650000Y-112050000D03*
X127650000Y-111649990D03*
X127650000Y-111250000D03*
X127650000Y-110850000D03*
X127650000Y-110449990D03*
D20*
X127050000Y-109850000D03*
X126650000Y-109850000D03*
X126250000Y-109850000D03*
X125850000Y-109850000D03*
X125450000Y-109850000D03*
%TD*%
D21*
%TO.C,C46*%
X155020000Y-88600000D03*
X154100000Y-88600000D03*
%TD*%
D11*
%TO.C,R74*%
X138800000Y-77200000D03*
X137800000Y-77200000D03*
%TD*%
D22*
%TO.C,L2*%
X162000000Y-74700000D03*
X162000000Y-71700000D03*
%TD*%
D23*
%TO.C,D8*%
X164000000Y-111049990D03*
X164000000Y-106949990D03*
%TD*%
D18*
%TO.C,C44*%
X132750000Y-90899990D03*
X134050000Y-90899990D03*
%TD*%
D12*
%TO.C,R40*%
X132900000Y-83999990D03*
X133900000Y-83999990D03*
%TD*%
D24*
%TO.C,Q4*%
X135250000Y-112000000D03*
X137150000Y-112000000D03*
X136200000Y-109400000D03*
%TD*%
D11*
%TO.C,R9*%
X147000000Y-98300000D03*
X146000000Y-98300000D03*
%TD*%
D25*
%TO.C,R86*%
X169800000Y-74550000D03*
X169800000Y-75450000D03*
%TD*%
D12*
%TO.C,R43*%
X138500000Y-87299990D03*
X139500000Y-87299990D03*
%TD*%
D26*
%TO.C,C61*%
X158025000Y-89700000D03*
X160575000Y-89700000D03*
%TD*%
D27*
%TO.C,C48*%
X133500000Y-74650000D03*
X133500000Y-73350000D03*
%TD*%
D28*
%TO.C,C62*%
X166250000Y-100700000D03*
X164550000Y-100700000D03*
%TD*%
D29*
%TO.C,C27*%
X141550000Y-78499990D03*
X140250000Y-78499990D03*
%TD*%
D27*
%TO.C,C16*%
X145600000Y-112850000D03*
X145600000Y-111550000D03*
%TD*%
D30*
%TO.C,F1*%
X165900000Y-67500000D03*
X168900000Y-67500000D03*
%TD*%
D31*
%TO.C,S2*%
X154875000Y-61950000D03*
X154875000Y-60250000D03*
X160125000Y-61950000D03*
X160125000Y-60250000D03*
%TD*%
D32*
%TO.C,C18*%
X147350000Y-115700000D03*
X149250000Y-115700000D03*
%TD*%
D33*
%TO.C,C1*%
X123100000Y-109559990D03*
X123100000Y-108639990D03*
%TD*%
D34*
%TO.C,R85*%
X163500000Y-79900000D03*
X163500000Y-80900000D03*
%TD*%
D27*
%TO.C,C4*%
X124700000Y-108649990D03*
X124700000Y-107349990D03*
%TD*%
%TO.C,C63*%
X159000000Y-76250000D03*
X159000000Y-74950000D03*
%TD*%
D35*
%TO.C,D1*%
X124350000Y-117899990D03*
X120250000Y-117899990D03*
%TD*%
D27*
%TO.C,C38*%
X142900000Y-79650000D03*
X142900000Y-78350000D03*
%TD*%
D28*
%TO.C,C33*%
X141350000Y-82200000D03*
X139650000Y-82200000D03*
%TD*%
D36*
%TO.C,R22*%
X153775000Y-120000000D03*
X157225000Y-120000000D03*
%TD*%
D24*
%TO.C,Q7*%
X137850000Y-74700000D03*
X139750000Y-74700000D03*
X138800000Y-72100000D03*
%TD*%
D27*
%TO.C,C53*%
X127500000Y-88350000D03*
X127500000Y-87050000D03*
%TD*%
D29*
%TO.C,C50*%
X124150000Y-85100000D03*
X122850000Y-85100000D03*
%TD*%
D13*
%TO.C,R23*%
X153700000Y-118100000D03*
X153700000Y-117100000D03*
%TD*%
D34*
%TO.C,R5*%
X121750000Y-104000000D03*
X121750000Y-105000000D03*
%TD*%
D37*
%TO.C,C14*%
X149750000Y-107000000D03*
X148250000Y-107000000D03*
%TD*%
D38*
%TO.C,U9*%
X143900000Y-88438000D03*
X144300000Y-88438000D03*
X144700000Y-88438000D03*
X145100000Y-88438000D03*
X145500000Y-88438000D03*
X145900000Y-88438000D03*
X146300000Y-88438000D03*
X146700000Y-88438000D03*
X147100000Y-88438000D03*
X147500000Y-88438000D03*
X147900000Y-88438000D03*
X148300000Y-88438000D03*
X148700000Y-88438000D03*
X149100000Y-88438000D03*
D39*
X149938000Y-87600000D03*
X149938000Y-87200000D03*
X149938000Y-86800000D03*
X149938000Y-86400000D03*
X149938000Y-86000000D03*
X149938000Y-85600000D03*
X149938000Y-85200000D03*
X149938000Y-84800000D03*
X149938000Y-84400000D03*
X149938000Y-84000000D03*
X149938000Y-83600000D03*
X149938000Y-83200000D03*
X149938000Y-82800000D03*
X149938000Y-82400000D03*
D38*
X149100000Y-81562000D03*
X148700000Y-81562000D03*
X148300000Y-81562000D03*
X147900000Y-81562000D03*
X147500000Y-81562000D03*
X147100000Y-81562000D03*
X146700000Y-81562000D03*
X146300000Y-81562000D03*
X145900000Y-81562000D03*
X145500000Y-81562000D03*
X145100000Y-81562000D03*
X144700000Y-81562000D03*
X144300000Y-81562000D03*
X143900000Y-81562000D03*
D39*
X143062000Y-82400000D03*
X143062000Y-82800000D03*
X143062000Y-83200000D03*
X143062000Y-83600000D03*
X143062000Y-84000000D03*
X143062000Y-84400000D03*
X143062000Y-84800000D03*
X143062000Y-85200000D03*
X143062000Y-85600000D03*
X143062000Y-86000000D03*
X143062000Y-86400000D03*
X143062000Y-86800000D03*
X143062000Y-87200000D03*
X143062000Y-87600000D03*
%TD*%
D13*
%TO.C,R57*%
X149700000Y-78500000D03*
X149700000Y-77500000D03*
%TD*%
D40*
%TO.C,D12*%
X160400000Y-97225000D03*
X160400000Y-94175000D03*
%TD*%
D41*
%TO.C,U3*%
X135800000Y-118249990D03*
X136200000Y-118249990D03*
X136600000Y-118249990D03*
X137000000Y-118249990D03*
X137400000Y-118249990D03*
X137800000Y-118249990D03*
X138200000Y-118249990D03*
X138600000Y-118249990D03*
D42*
X139125000Y-117725000D03*
X139125000Y-117324990D03*
X139125000Y-116925000D03*
X139125000Y-116524990D03*
X139125000Y-116124990D03*
X139125000Y-115725000D03*
X139125000Y-115324990D03*
X139125000Y-114924990D03*
D41*
X138600000Y-114399990D03*
X138200000Y-114399990D03*
X137800000Y-114399990D03*
X137400000Y-114399990D03*
X137000000Y-114399990D03*
X136600000Y-114399990D03*
X136200000Y-114399990D03*
X135800000Y-114399990D03*
D42*
X135275000Y-114924990D03*
X135275000Y-115324990D03*
X135275000Y-115725000D03*
X135275000Y-116124990D03*
X135275000Y-116524990D03*
X135275000Y-116925000D03*
X135275000Y-117324990D03*
X135275000Y-117725000D03*
%TD*%
D11*
%TO.C,R68*%
X144300000Y-101000000D03*
X143300000Y-101000000D03*
%TD*%
D28*
%TO.C,C56*%
X164250000Y-91500000D03*
X162550000Y-91500000D03*
%TD*%
D34*
%TO.C,R64*%
X165100000Y-64200000D03*
X165100000Y-65200000D03*
%TD*%
D43*
%TO.C,R19*%
X144150000Y-109300000D03*
X145050000Y-109300000D03*
%TD*%
D16*
%TO.C,C12*%
X130300000Y-120325000D03*
X130300000Y-122875000D03*
%TD*%
D12*
%TO.C,R32*%
X156500000Y-122600000D03*
X157500000Y-122600000D03*
%TD*%
D24*
%TO.C,Q5*%
X140050000Y-108300000D03*
X141950000Y-108300000D03*
X141000000Y-105700000D03*
%TD*%
D44*
%TO.C,U8*%
X158200000Y-115500000D03*
X158200000Y-115000000D03*
X158200000Y-114500000D03*
X158200000Y-114000000D03*
X158200000Y-113500000D03*
X153800000Y-113500000D03*
X153800000Y-114000000D03*
X153800000Y-114500000D03*
X153800000Y-115000000D03*
X153800000Y-115500000D03*
%TD*%
D17*
%TO.C,R10*%
X149650000Y-95900000D03*
X148750000Y-95900000D03*
%TD*%
D43*
%TO.C,R70*%
X123050000Y-83800000D03*
X123950000Y-83800000D03*
%TD*%
D45*
%TO.C,U4*%
X149500000Y-108850000D03*
X149000000Y-108850000D03*
X148500000Y-108850000D03*
X148000000Y-108850000D03*
X147500000Y-108850000D03*
X147500000Y-113150000D03*
X148000000Y-113150000D03*
X148500000Y-113150000D03*
X149000000Y-113150000D03*
X149500000Y-113150000D03*
%TD*%
D46*
%TO.C,D11*%
X147150000Y-62099990D03*
X147150000Y-60900000D03*
X145850000Y-60900000D03*
X145850000Y-62099990D03*
%TD*%
D47*
%TO.C,D3*%
X131500000Y-113714990D03*
X131500000Y-111485000D03*
%TD*%
D34*
%TO.C,R11*%
X138600000Y-111400000D03*
X138600000Y-112400000D03*
%TD*%
D48*
%TO.C,C54*%
X127500000Y-99650000D03*
X127500000Y-100950000D03*
%TD*%
D28*
%TO.C,C57*%
X164250000Y-93500000D03*
X162550000Y-93500000D03*
%TD*%
D16*
%TO.C,C10*%
X136800000Y-120325000D03*
X136800000Y-122875000D03*
%TD*%
D12*
%TO.C,R75*%
X137800000Y-75999990D03*
X138800000Y-75999990D03*
%TD*%
D49*
%TO.C,R34*%
X159500000Y-110850000D03*
X159500000Y-109950000D03*
%TD*%
D50*
%TO.C,Q2*%
X125800000Y-105950000D03*
X125800000Y-104050000D03*
X123200000Y-105000000D03*
%TD*%
D51*
%TO.C,U10*%
X136220000Y-89304990D03*
X136220000Y-88034990D03*
X136220000Y-86764990D03*
X136220000Y-85494990D03*
X130580000Y-85494990D03*
X130580000Y-86764990D03*
X130580000Y-88034990D03*
X130580000Y-89304990D03*
%TD*%
D13*
%TO.C,R60*%
X147600000Y-76400000D03*
X147600000Y-75400000D03*
%TD*%
D29*
%TO.C,C52*%
X145050000Y-72700000D03*
X143750000Y-72700000D03*
%TD*%
D25*
%TO.C,R72*%
X132000000Y-73550000D03*
X132000000Y-74450000D03*
%TD*%
D17*
%TO.C,R33*%
X160450000Y-112100000D03*
X159550000Y-112100000D03*
%TD*%
D27*
%TO.C,C26*%
X145300000Y-79650000D03*
X145300000Y-78350000D03*
%TD*%
D13*
%TO.C,R35*%
X135500000Y-65500000D03*
X135500000Y-64500000D03*
%TD*%
D27*
%TO.C,C40*%
X147300000Y-79650000D03*
X147300000Y-78350000D03*
%TD*%
D52*
%TO.C,D4*%
X118825000Y-104100000D03*
X117175000Y-104100000D03*
%TD*%
D18*
%TO.C,C49*%
X118850000Y-85100000D03*
X120150000Y-85100000D03*
%TD*%
D53*
%TO.C,J1*%
X121025000Y-108374990D03*
X121025000Y-108875000D03*
X121025000Y-109375000D03*
X121025000Y-109875000D03*
X121025000Y-110375000D03*
X121025000Y-110874990D03*
X121025000Y-111375000D03*
X121025000Y-111875000D03*
X121025000Y-112375000D03*
X121025000Y-112875000D03*
X121025000Y-113375000D03*
X121025000Y-113875000D03*
D54*
X119425000Y-113625000D03*
X119425000Y-113125000D03*
X119425000Y-112625000D03*
X119425000Y-112125000D03*
X119425000Y-111625000D03*
X119425000Y-111125000D03*
X119425000Y-110625000D03*
X119425000Y-110125000D03*
X119425000Y-109624990D03*
X119425000Y-109125000D03*
X119425000Y-108625000D03*
X119425000Y-108125000D03*
%TD*%
D55*
%TO.C,L1*%
X159100000Y-100400000D03*
X156100000Y-100400000D03*
%TD*%
D17*
%TO.C,R78*%
X133850000Y-93000000D03*
X132950000Y-93000000D03*
%TD*%
D12*
%TO.C,R26*%
X156000000Y-111799990D03*
X157000000Y-111799990D03*
%TD*%
D11*
%TO.C,R14*%
X145300000Y-116599990D03*
X144300000Y-116599990D03*
%TD*%
D13*
%TO.C,R39*%
X130700000Y-104499990D03*
X130700000Y-103499990D03*
%TD*%
D12*
%TO.C,R45*%
X132900000Y-82900000D03*
X133900000Y-82900000D03*
%TD*%
D34*
%TO.C,R52*%
X150300000Y-90000000D03*
X150300000Y-91000000D03*
%TD*%
D17*
%TO.C,R69*%
X119950000Y-83800000D03*
X119050000Y-83800000D03*
%TD*%
D56*
%TO.C,C2*%
X125000000Y-121040000D03*
X125000000Y-121960000D03*
%TD*%
D57*
%TO.C,U11*%
X160900000Y-101600000D03*
X161850000Y-101600000D03*
X162800000Y-101600000D03*
X162800000Y-98900000D03*
X161850000Y-98900000D03*
X160900000Y-98900000D03*
%TD*%
D49*
%TO.C,R76*%
X127500000Y-90650000D03*
X127500000Y-89750000D03*
%TD*%
D13*
%TO.C,R62*%
X144500000Y-62000000D03*
X144500000Y-61000000D03*
%TD*%
D27*
%TO.C,C47*%
X148600000Y-62150000D03*
X148600000Y-60850000D03*
%TD*%
D29*
%TO.C,C34*%
X141150000Y-85000000D03*
X139850000Y-85000000D03*
%TD*%
D58*
%TO.C,D9*%
X120675000Y-94000000D03*
X122325000Y-94000000D03*
%TD*%
D17*
%TO.C,R83*%
X162850000Y-102900000D03*
X161950000Y-102900000D03*
%TD*%
D48*
%TO.C,C25*%
X154500000Y-107449990D03*
X154500000Y-108749990D03*
%TD*%
D59*
%TO.C,C45*%
X154240000Y-83500000D03*
X155160000Y-83500000D03*
%TD*%
D17*
%TO.C,R79*%
X133850000Y-95000000D03*
X132950000Y-95000000D03*
%TD*%
D48*
%TO.C,C24*%
X152000000Y-113250000D03*
X152000000Y-114550000D03*
%TD*%
D29*
%TO.C,C37*%
X141150000Y-83800000D03*
X139850000Y-83800000D03*
%TD*%
D60*
%TO.C,U5*%
X144950000Y-105750000D03*
X144300000Y-105750000D03*
X143650000Y-105750000D03*
X143650000Y-107850000D03*
X144950000Y-107850000D03*
%TD*%
D11*
%TO.C,R84*%
X166500000Y-104600000D03*
X165500000Y-104600000D03*
%TD*%
D13*
%TO.C,R56*%
X150800000Y-78500000D03*
X150800000Y-77500000D03*
%TD*%
%TO.C,R88*%
X161400000Y-80900000D03*
X161400000Y-79900000D03*
%TD*%
%TO.C,R53*%
X142500000Y-62000000D03*
X142500000Y-61000000D03*
%TD*%
D27*
%TO.C,C39*%
X144100000Y-79650000D03*
X144100000Y-78350000D03*
%TD*%
D13*
%TO.C,R54*%
X150500000Y-62000000D03*
X150500000Y-61000000D03*
%TD*%
D61*
%TO.C,C31*%
X152250000Y-78400000D03*
X153950000Y-78400000D03*
%TD*%
D12*
%TO.C,R16*%
X137100000Y-105800000D03*
X138100000Y-105800000D03*
%TD*%
D27*
%TO.C,C30*%
X161700000Y-110450000D03*
X161700000Y-109150000D03*
%TD*%
D47*
%TO.C,D2*%
X133000000Y-113714990D03*
X133000000Y-111485000D03*
%TD*%
D11*
%TO.C,R63*%
X152300000Y-85200000D03*
X151300000Y-85200000D03*
%TD*%
%TO.C,R50*%
X118000000Y-94000000D03*
X117000000Y-94000000D03*
%TD*%
D12*
%TO.C,R44*%
X132900000Y-81800000D03*
X133900000Y-81800000D03*
%TD*%
D31*
%TO.C,S1*%
X132875000Y-61950000D03*
X132875000Y-60250000D03*
X138125000Y-61950000D03*
X138125000Y-60250000D03*
%TD*%
D16*
%TO.C,C67*%
X165700000Y-70525000D03*
X165700000Y-73075000D03*
%TD*%
D12*
%TO.C,R30*%
X153600000Y-122600000D03*
X154600000Y-122600000D03*
%TD*%
D34*
%TO.C,R48*%
X144800000Y-96200000D03*
X144800000Y-97200000D03*
%TD*%
D13*
%TO.C,R61*%
X146500000Y-76400000D03*
X146500000Y-75400000D03*
%TD*%
D27*
%TO.C,C21*%
X146300000Y-107650000D03*
X146300000Y-106350000D03*
%TD*%
D62*
%TO.C,Q3*%
X146845000Y-122994000D03*
X148115000Y-122994000D03*
X149385000Y-122994000D03*
X150655000Y-122994000D03*
%TD*%
D49*
%TO.C,R71*%
X130500000Y-74450000D03*
X130500000Y-73550000D03*
%TD*%
D11*
%TO.C,R21*%
X144200000Y-104500000D03*
X143200000Y-104500000D03*
%TD*%
D27*
%TO.C,C17*%
X132300000Y-116150000D03*
X132300000Y-114850000D03*
%TD*%
D12*
%TO.C,R15*%
X137100000Y-108200000D03*
X138100000Y-108200000D03*
%TD*%
D61*
%TO.C,C32*%
X152250000Y-80300000D03*
X153950000Y-80300000D03*
%TD*%
D18*
%TO.C,C41*%
X151850000Y-83400000D03*
X153150000Y-83400000D03*
%TD*%
D63*
%TO.C,C19*%
X134310000Y-114800000D03*
X133490000Y-114800000D03*
%TD*%
D34*
%TO.C,R81*%
X164320000Y-97800000D03*
X164320000Y-98800000D03*
%TD*%
D64*
%TO.C,D13*%
X165275000Y-75300000D03*
X168325000Y-75300000D03*
%TD*%
D11*
%TO.C,R28*%
X165000000Y-86000000D03*
X164000000Y-86000000D03*
%TD*%
D12*
%TO.C,R59*%
X159100000Y-82100000D03*
X160100000Y-82100000D03*
%TD*%
D34*
%TO.C,R20*%
X159500000Y-107600000D03*
X159500000Y-108600000D03*
%TD*%
D65*
%TO.C,D10*%
X166425000Y-64050000D03*
X166425000Y-64700000D03*
X166425000Y-65350000D03*
X168575000Y-65350000D03*
X168575000Y-64700000D03*
X168575000Y-64050000D03*
%TD*%
D66*
%TO.C,C58*%
X162600000Y-97150000D03*
X162600000Y-95450000D03*
%TD*%
D67*
%TO.C,PZ1*%
X141150000Y-100300000D03*
X132450000Y-100300000D03*
%TD*%
D13*
%TO.C,R55*%
X152500000Y-62000000D03*
X152500000Y-61000000D03*
%TD*%
D25*
%TO.C,R6*%
X134100000Y-106550000D03*
X134100000Y-107450000D03*
%TD*%
D61*
%TO.C,C7*%
X127350000Y-114199990D03*
X129050000Y-114199990D03*
%TD*%
D17*
%TO.C,R41*%
X139450000Y-90600000D03*
X138550000Y-90600000D03*
%TD*%
D68*
%TO.C,U2*%
X149950000Y-102899990D03*
X149000000Y-102899990D03*
X148050000Y-102899990D03*
X148050000Y-105599990D03*
X149000000Y-105599990D03*
X149950000Y-105599990D03*
%TD*%
D33*
%TO.C,C5*%
X131500000Y-110460000D03*
X131500000Y-109540000D03*
%TD*%
D69*
%TO.C,Y1*%
X155200000Y-87200000D03*
X155200000Y-84999990D03*
X153600000Y-84999990D03*
X153600000Y-87200000D03*
%TD*%
D70*
%TO.C,F2*%
X168500000Y-70300000D03*
X168500000Y-73300000D03*
%TD*%
D65*
%TO.C,D7*%
X124425000Y-63949990D03*
X124425000Y-64599990D03*
X124425000Y-65249990D03*
X126575000Y-65249990D03*
X126575000Y-64599990D03*
X126575000Y-63949990D03*
%TD*%
D12*
%TO.C,R47*%
X143200000Y-103300000D03*
X144200000Y-103300000D03*
%TD*%
D49*
%TO.C,R2*%
X133000000Y-110450000D03*
X133000000Y-109550000D03*
%TD*%
%TO.C,R4*%
X127300000Y-104050000D03*
X127300000Y-103150000D03*
%TD*%
D11*
%TO.C,R25*%
X158000000Y-106200000D03*
X157000000Y-106200000D03*
%TD*%
D16*
%TO.C,C11*%
X133500000Y-120325000D03*
X133500000Y-122875000D03*
%TD*%
D48*
%TO.C,C43*%
X143500000Y-89750000D03*
X143500000Y-91050000D03*
%TD*%
D13*
%TO.C,R90*%
X159100000Y-78500000D03*
X159100000Y-77500000D03*
%TD*%
D71*
%TO.C,S4*%
X117550000Y-86750000D03*
X125450000Y-86750000D03*
X117550000Y-91250000D03*
X125450000Y-91250000D03*
%TD*%
D72*
%TO.C,U7*%
X156050000Y-110200000D03*
X157000000Y-110200000D03*
X157950000Y-110200000D03*
X157950000Y-107799990D03*
X156050000Y-107799990D03*
%TD*%
D48*
%TO.C,C42*%
X147500000Y-89850000D03*
X147500000Y-91150000D03*
%TD*%
D29*
%TO.C,C55*%
X160850000Y-103500000D03*
X159550000Y-103500000D03*
%TD*%
D13*
%TO.C,R1*%
X127300000Y-108500000D03*
X127300000Y-107500000D03*
%TD*%
D73*
%TO.C,Q6*%
X151000000Y-110050000D03*
X151000000Y-111950000D03*
X153600000Y-111000000D03*
%TD*%
D29*
%TO.C,C22*%
X142400000Y-117999990D03*
X141100000Y-117999990D03*
%TD*%
D34*
%TO.C,R51*%
X149100000Y-90000000D03*
X149100000Y-91000000D03*
%TD*%
D16*
%TO.C,C9*%
X140000000Y-120325000D03*
X140000000Y-122875000D03*
%TD*%
D74*
%TO.C,D14*%
X169700000Y-80825000D03*
X169700000Y-79175000D03*
%TD*%
D13*
%TO.C,R58*%
X148600000Y-76400000D03*
X148600000Y-75400000D03*
%TD*%
D48*
%TO.C,C8*%
X122700000Y-112249990D03*
X122700000Y-113549990D03*
%TD*%
D75*
%TO.C,U6*%
X142575000Y-110350000D03*
X141925000Y-110350000D03*
X141275000Y-110350000D03*
X140625000Y-110350000D03*
X140625000Y-116250000D03*
X141275000Y-116250000D03*
X141925000Y-116250000D03*
X142575000Y-116250000D03*
%TD*%
D28*
%TO.C,C51*%
X145050000Y-74400000D03*
X143350000Y-74400000D03*
%TD*%
D34*
%TO.C,R49*%
X146000000Y-96200000D03*
X146000000Y-97200000D03*
%TD*%
D11*
%TO.C,R17*%
X145300000Y-115300000D03*
X144300000Y-115300000D03*
%TD*%
D25*
%TO.C,R77*%
X127500000Y-97350000D03*
X127500000Y-98250000D03*
%TD*%
D76*
%TO.C,S5*%
X125450000Y-101250000D03*
X117550000Y-101250000D03*
X125450000Y-96750000D03*
X117550000Y-96750000D03*
%TD*%
D61*
%TO.C,C66*%
X165450000Y-77500000D03*
X167150000Y-77500000D03*
%TD*%
D77*
%TO.C,FB1*%
X123310000Y-115200000D03*
X124890000Y-115200000D03*
%TD*%
D25*
%TO.C,R36*%
X157500000Y-64550000D03*
X157500000Y-65450000D03*
%TD*%
D49*
%TO.C,R13*%
X144100000Y-112750000D03*
X144100000Y-111850000D03*
%TD*%
D78*
%TO.C,C3*%
X123275000Y-121000000D03*
X120725000Y-121000000D03*
%TD*%
D13*
%TO.C,R67*%
X140500000Y-62000000D03*
X140500000Y-61000000D03*
%TD*%
D12*
%TO.C,R7*%
X144300000Y-114000000D03*
X145300000Y-114000000D03*
%TD*%
D11*
%TO.C,R29*%
X162800000Y-85500000D03*
X161800000Y-85500000D03*
%TD*%
D79*
%TO.C,C20*%
X135390000Y-113500000D03*
X136210000Y-113500000D03*
%TD*%
D12*
%TO.C,R46*%
X138500000Y-89499990D03*
X139500000Y-89499990D03*
%TD*%
D13*
%TO.C,R24*%
X157300000Y-118100000D03*
X157300000Y-117100000D03*
%TD*%
D80*
%TO.C,C15*%
X146200000Y-104350000D03*
X146200000Y-102850000D03*
%TD*%
D26*
%TO.C,C59*%
X155625000Y-93000000D03*
X158175000Y-93000000D03*
%TD*%
D16*
%TO.C,C29*%
X160000000Y-120225000D03*
X160000000Y-122775000D03*
%TD*%
D12*
%TO.C,R87*%
X159100000Y-81000000D03*
X160100000Y-81000000D03*
%TD*%
D13*
%TO.C,R38*%
X129600000Y-104499990D03*
X129600000Y-103499990D03*
%TD*%
D12*
%TO.C,R42*%
X138500000Y-88399990D03*
X139500000Y-88399990D03*
%TD*%
D37*
%TO.C,C13*%
X150150000Y-101300000D03*
X148650000Y-101300000D03*
%TD*%
D58*
%TO.C,D6*%
X175175000Y-103000000D03*
X176825000Y-103000000D03*
%TD*%
D27*
%TO.C,C6*%
X126000000Y-108649990D03*
X126000000Y-107349990D03*
%TD*%
D18*
%TO.C,C23*%
X154850000Y-116999990D03*
X156150000Y-116999990D03*
%TD*%
D26*
%TO.C,C60*%
X155625000Y-96300000D03*
X158175000Y-96300000D03*
%TD*%
D28*
%TO.C,C36*%
X141350000Y-80200000D03*
X139650000Y-80200000D03*
%TD*%
D61*
%TO.C,C64*%
X165450000Y-79500000D03*
X167150000Y-79500000D03*
%TD*%
D34*
%TO.C,R66*%
X169900000Y-64200000D03*
X169900000Y-65200000D03*
%TD*%
D11*
%TO.C,R65*%
X142800000Y-77200000D03*
X141800000Y-77200000D03*
%TD*%
D61*
%TO.C,C65*%
X165450000Y-81500000D03*
X167150000Y-81500000D03*
%TD*%
D34*
%TO.C,R73*%
X138800000Y-69700000D03*
X138800000Y-70700000D03*
%TD*%
D49*
%TO.C,R80*%
X164200000Y-103550000D03*
X164200000Y-102650000D03*
%TD*%
D81*
%TO.C,U12*%
X160750000Y-76550000D03*
X160750000Y-77500000D03*
X160750000Y-78450000D03*
X163450000Y-78450000D03*
X163450000Y-77500000D03*
X163450000Y-76550000D03*
%TD*%
D43*
%TO.C,R82*%
X165550000Y-103500000D03*
X166450000Y-103500000D03*
%TD*%
D82*
%TO.C,D5*%
X152000000Y-105924990D03*
X152000000Y-102574990D03*
%TD*%
D13*
%TO.C,R37*%
X157500000Y-67599990D03*
X157500000Y-66599990D03*
%TD*%
M02*
